%TF.GenerationSoftware,KiCad,Pcbnew,(5.1.8-0-10_14)*%
%TF.CreationDate,2021-04-06T01:22:42+01:00*%
%TF.ProjectId,STM32MP1_TestBoard_RevB,53544d33-324d-4503-915f-54657374426f,rev?*%
%TF.SameCoordinates,Original*%
%TF.FileFunction,Soldermask,Top*%
%TF.FilePolarity,Negative*%
%FSLAX46Y46*%
G04 Gerber Fmt 4.6, Leading zero omitted, Abs format (unit mm)*
G04 Created by KiCad (PCBNEW (5.1.8-0-10_14)) date 2021-04-06 01:22:42*
%MOMM*%
%LPD*%
G01*
G04 APERTURE LIST*
%ADD10R,0.650000X1.560000*%
%ADD11O,1.740000X2.190000*%
%ADD12C,1.000000*%
%ADD13O,1.300000X2.500000*%
%ADD14O,1.300000X3.200000*%
%ADD15C,0.700000*%
%ADD16R,1.900000X1.350000*%
%ADD17R,1.200000X1.000000*%
%ADD18R,1.550000X1.350000*%
%ADD19R,1.170000X1.800000*%
%ADD20R,0.850000X1.100000*%
%ADD21R,0.750000X1.100000*%
%ADD22R,1.000000X1.450000*%
%ADD23C,0.400000*%
%ADD24O,1.700000X1.700000*%
%ADD25R,1.700000X1.700000*%
%ADD26R,3.500000X3.500000*%
%ADD27R,1.200000X1.900000*%
%ADD28O,1.200000X1.900000*%
%ADD29R,1.500000X1.900000*%
%ADD30C,1.450000*%
%ADD31R,0.400000X1.350000*%
%ADD32R,1.060000X0.650000*%
%ADD33R,0.900000X0.800000*%
%ADD34R,5.700000X1.600000*%
%ADD35R,0.740000X2.400000*%
G04 APERTURE END LIST*
D10*
%TO.C,U6*%
X173990000Y-119300000D03*
X173040000Y-119300000D03*
X174940000Y-119300000D03*
X174940000Y-122000000D03*
X173990000Y-122000000D03*
X173040000Y-122000000D03*
%TD*%
%TO.C,U5*%
X167640000Y-144860000D03*
X168590000Y-144860000D03*
X166690000Y-144860000D03*
X166690000Y-142160000D03*
X167640000Y-142160000D03*
X168590000Y-142160000D03*
%TD*%
%TO.C,R26*%
G36*
G01*
X175655000Y-127475000D02*
X175655000Y-127795000D01*
G75*
G02*
X175495000Y-127955000I-160000J0D01*
G01*
X175100000Y-127955000D01*
G75*
G02*
X174940000Y-127795000I0J160000D01*
G01*
X174940000Y-127475000D01*
G75*
G02*
X175100000Y-127315000I160000J0D01*
G01*
X175495000Y-127315000D01*
G75*
G02*
X175655000Y-127475000I0J-160000D01*
G01*
G37*
G36*
G01*
X176850000Y-127475000D02*
X176850000Y-127795000D01*
G75*
G02*
X176690000Y-127955000I-160000J0D01*
G01*
X176295000Y-127955000D01*
G75*
G02*
X176135000Y-127795000I0J160000D01*
G01*
X176135000Y-127475000D01*
G75*
G02*
X176295000Y-127315000I160000J0D01*
G01*
X176690000Y-127315000D01*
G75*
G02*
X176850000Y-127475000I0J-160000D01*
G01*
G37*
%TD*%
%TO.C,D2*%
G36*
G01*
X173540000Y-124644999D02*
X173540000Y-125545001D01*
G75*
G02*
X173290001Y-125795000I-249999J0D01*
G01*
X172639999Y-125795000D01*
G75*
G02*
X172390000Y-125545001I0J249999D01*
G01*
X172390000Y-124644999D01*
G75*
G02*
X172639999Y-124395000I249999J0D01*
G01*
X173290001Y-124395000D01*
G75*
G02*
X173540000Y-124644999I0J-249999D01*
G01*
G37*
G36*
G01*
X175590000Y-124644999D02*
X175590000Y-125545001D01*
G75*
G02*
X175340001Y-125795000I-249999J0D01*
G01*
X174689999Y-125795000D01*
G75*
G02*
X174440000Y-125545001I0J249999D01*
G01*
X174440000Y-124644999D01*
G75*
G02*
X174689999Y-124395000I249999J0D01*
G01*
X175340001Y-124395000D01*
G75*
G02*
X175590000Y-124644999I0J-249999D01*
G01*
G37*
%TD*%
%TO.C,C44*%
G36*
G01*
X172285000Y-127790000D02*
X172285000Y-127480000D01*
G75*
G02*
X172440000Y-127325000I155000J0D01*
G01*
X172865000Y-127325000D01*
G75*
G02*
X173020000Y-127480000I0J-155000D01*
G01*
X173020000Y-127790000D01*
G75*
G02*
X172865000Y-127945000I-155000J0D01*
G01*
X172440000Y-127945000D01*
G75*
G02*
X172285000Y-127790000I0J155000D01*
G01*
G37*
G36*
G01*
X171150000Y-127790000D02*
X171150000Y-127480000D01*
G75*
G02*
X171305000Y-127325000I155000J0D01*
G01*
X171730000Y-127325000D01*
G75*
G02*
X171885000Y-127480000I0J-155000D01*
G01*
X171885000Y-127790000D01*
G75*
G02*
X171730000Y-127945000I-155000J0D01*
G01*
X171305000Y-127945000D01*
G75*
G02*
X171150000Y-127790000I0J155000D01*
G01*
G37*
%TD*%
%TO.C,C43*%
G36*
G01*
X174440000Y-116680000D02*
X174440000Y-115730000D01*
G75*
G02*
X174690000Y-115480000I250000J0D01*
G01*
X175365000Y-115480000D01*
G75*
G02*
X175615000Y-115730000I0J-250000D01*
G01*
X175615000Y-116680000D01*
G75*
G02*
X175365000Y-116930000I-250000J0D01*
G01*
X174690000Y-116930000D01*
G75*
G02*
X174440000Y-116680000I0J250000D01*
G01*
G37*
G36*
G01*
X172365000Y-116680000D02*
X172365000Y-115730000D01*
G75*
G02*
X172615000Y-115480000I250000J0D01*
G01*
X173290000Y-115480000D01*
G75*
G02*
X173540000Y-115730000I0J-250000D01*
G01*
X173540000Y-116680000D01*
G75*
G02*
X173290000Y-116930000I-250000J0D01*
G01*
X172615000Y-116930000D01*
G75*
G02*
X172365000Y-116680000I0J250000D01*
G01*
G37*
%TD*%
%TO.C,C41*%
G36*
G01*
X170660000Y-139900000D02*
X170970000Y-139900000D01*
G75*
G02*
X171125000Y-140055000I0J-155000D01*
G01*
X171125000Y-140480000D01*
G75*
G02*
X170970000Y-140635000I-155000J0D01*
G01*
X170660000Y-140635000D01*
G75*
G02*
X170505000Y-140480000I0J155000D01*
G01*
X170505000Y-140055000D01*
G75*
G02*
X170660000Y-139900000I155000J0D01*
G01*
G37*
G36*
G01*
X170660000Y-138765000D02*
X170970000Y-138765000D01*
G75*
G02*
X171125000Y-138920000I0J-155000D01*
G01*
X171125000Y-139345000D01*
G75*
G02*
X170970000Y-139500000I-155000J0D01*
G01*
X170660000Y-139500000D01*
G75*
G02*
X170505000Y-139345000I0J155000D01*
G01*
X170505000Y-138920000D01*
G75*
G02*
X170660000Y-138765000I155000J0D01*
G01*
G37*
%TD*%
%TO.C,C39*%
G36*
G01*
X167190000Y-147480000D02*
X167190000Y-148430000D01*
G75*
G02*
X166940000Y-148680000I-250000J0D01*
G01*
X166265000Y-148680000D01*
G75*
G02*
X166015000Y-148430000I0J250000D01*
G01*
X166015000Y-147480000D01*
G75*
G02*
X166265000Y-147230000I250000J0D01*
G01*
X166940000Y-147230000D01*
G75*
G02*
X167190000Y-147480000I0J-250000D01*
G01*
G37*
G36*
G01*
X169265000Y-147480000D02*
X169265000Y-148430000D01*
G75*
G02*
X169015000Y-148680000I-250000J0D01*
G01*
X168340000Y-148680000D01*
G75*
G02*
X168090000Y-148430000I0J250000D01*
G01*
X168090000Y-147480000D01*
G75*
G02*
X168340000Y-147230000I250000J0D01*
G01*
X169015000Y-147230000D01*
G75*
G02*
X169265000Y-147480000I0J-250000D01*
G01*
G37*
%TD*%
D11*
%TO.C,J12*%
X165100000Y-73660000D03*
G36*
G01*
X161690000Y-74505001D02*
X161690000Y-72814999D01*
G75*
G02*
X161939999Y-72565000I249999J0D01*
G01*
X163180001Y-72565000D01*
G75*
G02*
X163430000Y-72814999I0J-249999D01*
G01*
X163430000Y-74505001D01*
G75*
G02*
X163180001Y-74755000I-249999J0D01*
G01*
X161939999Y-74755000D01*
G75*
G02*
X161690000Y-74505001I0J249999D01*
G01*
G37*
%TD*%
%TO.C,C38*%
G36*
G01*
X162995000Y-77950000D02*
X162995000Y-78260000D01*
G75*
G02*
X162840000Y-78415000I-155000J0D01*
G01*
X162415000Y-78415000D01*
G75*
G02*
X162260000Y-78260000I0J155000D01*
G01*
X162260000Y-77950000D01*
G75*
G02*
X162415000Y-77795000I155000J0D01*
G01*
X162840000Y-77795000D01*
G75*
G02*
X162995000Y-77950000I0J-155000D01*
G01*
G37*
G36*
G01*
X164130000Y-77950000D02*
X164130000Y-78260000D01*
G75*
G02*
X163975000Y-78415000I-155000J0D01*
G01*
X163550000Y-78415000D01*
G75*
G02*
X163395000Y-78260000I0J155000D01*
G01*
X163395000Y-77950000D01*
G75*
G02*
X163550000Y-77795000I155000J0D01*
G01*
X163975000Y-77795000D01*
G75*
G02*
X164130000Y-77950000I0J-155000D01*
G01*
G37*
%TD*%
D12*
%TO.C,TP2*%
X149923500Y-107378500D03*
%TD*%
D13*
%TO.C,J11*%
X182270400Y-145846800D03*
X173639480Y-145836640D03*
D14*
X182306000Y-141696000D03*
X173656000Y-141696000D03*
D15*
X178406000Y-142548000D03*
X180956000Y-142544800D03*
X180106000Y-142548000D03*
X179256000Y-142548000D03*
X174993300Y-142544800D03*
X176695100Y-142544800D03*
X177556000Y-142548000D03*
X175844200Y-142544800D03*
X180962300Y-141185900D03*
X180111400Y-141185900D03*
X179256000Y-141185900D03*
X178406000Y-141185000D03*
X177556000Y-141185000D03*
X176695100Y-141185000D03*
X175844200Y-141185000D03*
X174993300Y-141185000D03*
%TD*%
%TO.C,C3*%
G36*
G01*
X170528000Y-135059000D02*
X169578000Y-135059000D01*
G75*
G02*
X169328000Y-134809000I0J250000D01*
G01*
X169328000Y-134134000D01*
G75*
G02*
X169578000Y-133884000I250000J0D01*
G01*
X170528000Y-133884000D01*
G75*
G02*
X170778000Y-134134000I0J-250000D01*
G01*
X170778000Y-134809000D01*
G75*
G02*
X170528000Y-135059000I-250000J0D01*
G01*
G37*
G36*
G01*
X170528000Y-137134000D02*
X169578000Y-137134000D01*
G75*
G02*
X169328000Y-136884000I0J250000D01*
G01*
X169328000Y-136209000D01*
G75*
G02*
X169578000Y-135959000I250000J0D01*
G01*
X170528000Y-135959000D01*
G75*
G02*
X170778000Y-136209000I0J-250000D01*
G01*
X170778000Y-136884000D01*
G75*
G02*
X170528000Y-137134000I-250000J0D01*
G01*
G37*
%TD*%
%TO.C,C1*%
G36*
G01*
X178976000Y-132784000D02*
X179926000Y-132784000D01*
G75*
G02*
X180176000Y-133034000I0J-250000D01*
G01*
X180176000Y-133709000D01*
G75*
G02*
X179926000Y-133959000I-250000J0D01*
G01*
X178976000Y-133959000D01*
G75*
G02*
X178726000Y-133709000I0J250000D01*
G01*
X178726000Y-133034000D01*
G75*
G02*
X178976000Y-132784000I250000J0D01*
G01*
G37*
G36*
G01*
X178976000Y-130709000D02*
X179926000Y-130709000D01*
G75*
G02*
X180176000Y-130959000I0J-250000D01*
G01*
X180176000Y-131634000D01*
G75*
G02*
X179926000Y-131884000I-250000J0D01*
G01*
X178976000Y-131884000D01*
G75*
G02*
X178726000Y-131634000I0J250000D01*
G01*
X178726000Y-130959000D01*
G75*
G02*
X178976000Y-130709000I250000J0D01*
G01*
G37*
%TD*%
D16*
%TO.C,J10*%
X171466500Y-71460000D03*
X177436500Y-71460000D03*
D17*
X180936500Y-76135000D03*
X180936500Y-72435000D03*
D18*
X180761500Y-82160000D03*
D19*
X169441500Y-81935000D03*
D20*
X171701500Y-82285000D03*
X172801500Y-82285000D03*
X173901500Y-82285000D03*
X175001500Y-82285000D03*
X176101500Y-82285000D03*
X177201500Y-82285000D03*
D21*
X170651500Y-82285000D03*
D20*
X178301500Y-82285000D03*
%TD*%
D22*
%TO.C,SW2*%
X199605000Y-80045000D03*
X199605000Y-74895000D03*
X197905000Y-74895000D03*
X197905000Y-80045000D03*
%TD*%
D23*
%TO.C,U1*%
X167131000Y-110057000D03*
X167131000Y-109257000D03*
X167131000Y-108457000D03*
X167131000Y-107657000D03*
X167131000Y-106057000D03*
X167131000Y-105257000D03*
X167131000Y-104457000D03*
X167131000Y-103657000D03*
X167131000Y-102857000D03*
X167131000Y-102057000D03*
X167131000Y-101257000D03*
X167131000Y-100457000D03*
X167131000Y-99657000D03*
X167131000Y-98057000D03*
X167131000Y-97257000D03*
X167131000Y-96457000D03*
X167131000Y-95657000D03*
X166331000Y-110057000D03*
X166331000Y-109257000D03*
X166331000Y-108457000D03*
X166331000Y-107657000D03*
X166331000Y-106857000D03*
X166331000Y-106057000D03*
X166331000Y-105257000D03*
X166331000Y-104457000D03*
X166331000Y-103657000D03*
X166331000Y-102857000D03*
X166331000Y-102057000D03*
X166331000Y-101257000D03*
X166331000Y-100457000D03*
X166331000Y-99657000D03*
X166331000Y-98857000D03*
X166331000Y-98057000D03*
X166331000Y-97257000D03*
X166331000Y-96457000D03*
X166331000Y-95657000D03*
X165531000Y-110057000D03*
X165531000Y-109257000D03*
X165531000Y-108457000D03*
X165531000Y-107657000D03*
X165531000Y-106857000D03*
X165531000Y-106057000D03*
X165531000Y-105257000D03*
X165531000Y-104457000D03*
X165531000Y-103657000D03*
X165531000Y-102857000D03*
X165531000Y-102057000D03*
X165531000Y-101257000D03*
X165531000Y-100457000D03*
X165531000Y-99657000D03*
X165531000Y-98857000D03*
X165531000Y-98057000D03*
X165531000Y-97257000D03*
X165531000Y-96457000D03*
X165531000Y-95657000D03*
X164731000Y-110057000D03*
X164731000Y-109257000D03*
X164731000Y-108457000D03*
X164731000Y-107657000D03*
X164731000Y-106857000D03*
X164731000Y-105257000D03*
X164731000Y-103657000D03*
X164731000Y-102057000D03*
X164731000Y-100457000D03*
X164731000Y-98857000D03*
X164731000Y-98057000D03*
X164731000Y-97257000D03*
X164731000Y-96457000D03*
X164731000Y-95657000D03*
X163931000Y-110057000D03*
X163931000Y-109257000D03*
X163931000Y-108457000D03*
X163931000Y-107657000D03*
X163931000Y-106857000D03*
X163931000Y-106057000D03*
X163931000Y-105257000D03*
X163931000Y-104457000D03*
X163931000Y-103657000D03*
X163931000Y-102857000D03*
X163931000Y-102057000D03*
X163931000Y-101257000D03*
X163931000Y-100457000D03*
X163931000Y-99657000D03*
X163931000Y-98857000D03*
X163931000Y-98057000D03*
X163931000Y-97257000D03*
X163931000Y-96457000D03*
X163931000Y-95657000D03*
X163131000Y-110057000D03*
X163131000Y-109257000D03*
X163131000Y-108457000D03*
X163131000Y-107657000D03*
X163131000Y-106857000D03*
X163131000Y-106057000D03*
X163131000Y-105257000D03*
X163131000Y-104457000D03*
X163131000Y-103657000D03*
X163131000Y-102857000D03*
X163131000Y-102057000D03*
X163131000Y-101257000D03*
X163131000Y-100457000D03*
X163131000Y-99657000D03*
X163131000Y-98857000D03*
X163131000Y-98057000D03*
X163131000Y-97257000D03*
X163131000Y-96457000D03*
X163131000Y-95657000D03*
X162331000Y-110057000D03*
X162331000Y-109257000D03*
X162331000Y-108457000D03*
X162331000Y-107657000D03*
X162331000Y-106857000D03*
X162331000Y-106057000D03*
X162331000Y-105257000D03*
X162331000Y-104457000D03*
X162331000Y-103657000D03*
X162331000Y-102857000D03*
X162331000Y-102057000D03*
X162331000Y-101257000D03*
X162331000Y-100457000D03*
X162331000Y-99657000D03*
X162331000Y-98857000D03*
X162331000Y-98057000D03*
X162331000Y-97257000D03*
X162331000Y-96457000D03*
X162331000Y-95657000D03*
X161531000Y-110057000D03*
X161531000Y-109257000D03*
X161531000Y-108457000D03*
X161531000Y-107657000D03*
X161531000Y-106857000D03*
X161531000Y-106057000D03*
X161531000Y-105257000D03*
X161531000Y-104457000D03*
X161531000Y-103657000D03*
X161531000Y-102857000D03*
X161531000Y-102057000D03*
X161531000Y-101257000D03*
X161531000Y-100457000D03*
X161531000Y-99657000D03*
X161531000Y-98857000D03*
X161531000Y-98057000D03*
X161531000Y-97257000D03*
X161531000Y-96457000D03*
X161531000Y-95657000D03*
X160731000Y-110057000D03*
X160731000Y-109257000D03*
X160731000Y-108457000D03*
X160731000Y-107657000D03*
X160731000Y-106857000D03*
X160731000Y-106057000D03*
X160731000Y-105257000D03*
X160731000Y-104457000D03*
X160731000Y-103657000D03*
X160731000Y-102857000D03*
X160731000Y-102057000D03*
X160731000Y-101257000D03*
X160731000Y-100457000D03*
X160731000Y-99657000D03*
X160731000Y-98857000D03*
X160731000Y-98057000D03*
X160731000Y-97257000D03*
X160731000Y-96457000D03*
X160731000Y-95657000D03*
X159931000Y-110057000D03*
X159931000Y-109257000D03*
X159931000Y-108457000D03*
X159931000Y-107657000D03*
X159931000Y-106857000D03*
X159931000Y-106057000D03*
X159931000Y-105257000D03*
X159931000Y-104457000D03*
X159931000Y-103657000D03*
X159931000Y-102857000D03*
X159931000Y-102057000D03*
X159931000Y-101257000D03*
X159931000Y-100457000D03*
X159931000Y-99657000D03*
X159931000Y-98857000D03*
X159931000Y-98057000D03*
X159931000Y-97257000D03*
X159931000Y-96457000D03*
X159931000Y-95657000D03*
X159131000Y-110057000D03*
X159131000Y-109257000D03*
X159131000Y-108457000D03*
X159131000Y-107657000D03*
X159131000Y-106857000D03*
X159131000Y-106057000D03*
X159131000Y-105257000D03*
X159131000Y-104457000D03*
X159131000Y-103657000D03*
X159131000Y-102857000D03*
X159131000Y-102057000D03*
X159131000Y-101257000D03*
X159131000Y-100457000D03*
X159131000Y-99657000D03*
X159131000Y-98857000D03*
X159131000Y-98057000D03*
X159131000Y-97257000D03*
X159131000Y-96457000D03*
X159131000Y-95657000D03*
X158331000Y-110057000D03*
X158331000Y-109257000D03*
X158331000Y-108457000D03*
X158331000Y-107657000D03*
X158331000Y-106857000D03*
X158331000Y-106057000D03*
X158331000Y-105257000D03*
X158331000Y-104457000D03*
X158331000Y-103657000D03*
X158331000Y-102857000D03*
X158331000Y-102057000D03*
X158331000Y-101257000D03*
X158331000Y-100457000D03*
X158331000Y-99657000D03*
X158331000Y-98857000D03*
X158331000Y-98057000D03*
X158331000Y-97257000D03*
X158331000Y-96457000D03*
X158331000Y-95657000D03*
X157531000Y-110057000D03*
X157531000Y-109257000D03*
X157531000Y-108457000D03*
X157531000Y-107657000D03*
X157531000Y-106857000D03*
X157531000Y-106057000D03*
X157531000Y-105257000D03*
X157531000Y-104457000D03*
X157531000Y-103657000D03*
X157531000Y-102857000D03*
X157531000Y-102057000D03*
X157531000Y-101257000D03*
X157531000Y-100457000D03*
X157531000Y-99657000D03*
X157531000Y-98857000D03*
X157531000Y-98057000D03*
X157531000Y-97257000D03*
X157531000Y-96457000D03*
X157531000Y-95657000D03*
X156731000Y-110057000D03*
X156731000Y-109257000D03*
X156731000Y-108457000D03*
X156731000Y-107657000D03*
X156731000Y-106857000D03*
X156731000Y-106057000D03*
X156731000Y-105257000D03*
X156731000Y-104457000D03*
X156731000Y-103657000D03*
X156731000Y-102857000D03*
X156731000Y-102057000D03*
X156731000Y-101257000D03*
X156731000Y-100457000D03*
X156731000Y-99657000D03*
X156731000Y-98857000D03*
X156731000Y-98057000D03*
X156731000Y-97257000D03*
X156731000Y-96457000D03*
X156731000Y-95657000D03*
X155931000Y-110057000D03*
X155931000Y-109257000D03*
X155931000Y-108457000D03*
X155931000Y-107657000D03*
X155931000Y-106857000D03*
X155931000Y-106057000D03*
X155931000Y-105257000D03*
X155931000Y-104457000D03*
X155931000Y-103657000D03*
X155931000Y-102857000D03*
X155931000Y-102057000D03*
X155931000Y-101257000D03*
X155931000Y-100457000D03*
X155931000Y-99657000D03*
X155931000Y-98857000D03*
X155931000Y-98057000D03*
X155931000Y-97257000D03*
X155931000Y-96457000D03*
X155931000Y-95657000D03*
X155131000Y-110057000D03*
X155131000Y-109257000D03*
X155131000Y-108457000D03*
X155131000Y-107657000D03*
X155131000Y-106857000D03*
X155131000Y-106057000D03*
X155131000Y-105257000D03*
X155131000Y-104457000D03*
X155131000Y-103657000D03*
X155131000Y-102857000D03*
X155131000Y-102057000D03*
X155131000Y-101257000D03*
X155131000Y-100457000D03*
X155131000Y-99657000D03*
X155131000Y-98857000D03*
X155131000Y-98057000D03*
X155131000Y-97257000D03*
X155131000Y-96457000D03*
X155131000Y-95657000D03*
X154331000Y-110057000D03*
X154331000Y-109257000D03*
X154331000Y-108457000D03*
X154331000Y-107657000D03*
X154331000Y-106857000D03*
X154331000Y-106057000D03*
X154331000Y-105257000D03*
X154331000Y-104457000D03*
X154331000Y-103657000D03*
X154331000Y-102857000D03*
X154331000Y-102057000D03*
X154331000Y-101257000D03*
X154331000Y-100457000D03*
X154331000Y-99657000D03*
X154331000Y-98857000D03*
X154331000Y-98057000D03*
X154331000Y-97257000D03*
X154331000Y-96457000D03*
X154331000Y-95657000D03*
X153531000Y-110057000D03*
X153531000Y-109257000D03*
X153531000Y-108457000D03*
X153531000Y-107657000D03*
X153531000Y-106857000D03*
X153531000Y-106057000D03*
X153531000Y-105257000D03*
X153531000Y-104457000D03*
X153531000Y-103657000D03*
X153531000Y-102857000D03*
X153531000Y-102057000D03*
X153531000Y-101257000D03*
X153531000Y-100457000D03*
X153531000Y-99657000D03*
X153531000Y-98857000D03*
X153531000Y-98057000D03*
X153531000Y-97257000D03*
X153531000Y-96457000D03*
X153531000Y-95657000D03*
X152731000Y-110057000D03*
X152731000Y-109257000D03*
X152731000Y-108457000D03*
X152731000Y-107657000D03*
X152731000Y-106857000D03*
X152731000Y-106057000D03*
X152731000Y-105257000D03*
X152731000Y-104457000D03*
X152731000Y-103657000D03*
X152731000Y-102857000D03*
X152731000Y-102057000D03*
X152731000Y-101257000D03*
X152731000Y-100457000D03*
X152731000Y-99657000D03*
X152731000Y-98857000D03*
X152731000Y-98057000D03*
X152731000Y-97257000D03*
X152731000Y-96457000D03*
X152731000Y-95657000D03*
%TD*%
D24*
%TO.C,J7*%
X198120000Y-91440000D03*
X198120000Y-93980000D03*
X198120000Y-96520000D03*
X198120000Y-99060000D03*
X198120000Y-101600000D03*
X198120000Y-104140000D03*
X198120000Y-106680000D03*
D25*
X198120000Y-109220000D03*
%TD*%
D12*
%TO.C,TP1*%
X149987000Y-102489000D03*
%TD*%
%TO.C,R19*%
G36*
G01*
X173750000Y-129888000D02*
X173750000Y-130208000D01*
G75*
G02*
X173590000Y-130368000I-160000J0D01*
G01*
X173195000Y-130368000D01*
G75*
G02*
X173035000Y-130208000I0J160000D01*
G01*
X173035000Y-129888000D01*
G75*
G02*
X173195000Y-129728000I160000J0D01*
G01*
X173590000Y-129728000D01*
G75*
G02*
X173750000Y-129888000I0J-160000D01*
G01*
G37*
G36*
G01*
X174945000Y-129888000D02*
X174945000Y-130208000D01*
G75*
G02*
X174785000Y-130368000I-160000J0D01*
G01*
X174390000Y-130368000D01*
G75*
G02*
X174230000Y-130208000I0J160000D01*
G01*
X174230000Y-129888000D01*
G75*
G02*
X174390000Y-129728000I160000J0D01*
G01*
X174785000Y-129728000D01*
G75*
G02*
X174945000Y-129888000I0J-160000D01*
G01*
G37*
%TD*%
%TO.C,R18*%
G36*
G01*
X164305000Y-139940000D02*
X164625000Y-139940000D01*
G75*
G02*
X164785000Y-140100000I0J-160000D01*
G01*
X164785000Y-140495000D01*
G75*
G02*
X164625000Y-140655000I-160000J0D01*
G01*
X164305000Y-140655000D01*
G75*
G02*
X164145000Y-140495000I0J160000D01*
G01*
X164145000Y-140100000D01*
G75*
G02*
X164305000Y-139940000I160000J0D01*
G01*
G37*
G36*
G01*
X164305000Y-138745000D02*
X164625000Y-138745000D01*
G75*
G02*
X164785000Y-138905000I0J-160000D01*
G01*
X164785000Y-139300000D01*
G75*
G02*
X164625000Y-139460000I-160000J0D01*
G01*
X164305000Y-139460000D01*
G75*
G02*
X164145000Y-139300000I0J160000D01*
G01*
X164145000Y-138905000D01*
G75*
G02*
X164305000Y-138745000I160000J0D01*
G01*
G37*
%TD*%
%TO.C,D4*%
G36*
G01*
X173159000Y-131629999D02*
X173159000Y-132530001D01*
G75*
G02*
X172909001Y-132780000I-249999J0D01*
G01*
X172258999Y-132780000D01*
G75*
G02*
X172009000Y-132530001I0J249999D01*
G01*
X172009000Y-131629999D01*
G75*
G02*
X172258999Y-131380000I249999J0D01*
G01*
X172909001Y-131380000D01*
G75*
G02*
X173159000Y-131629999I0J-249999D01*
G01*
G37*
G36*
G01*
X175209000Y-131629999D02*
X175209000Y-132530001D01*
G75*
G02*
X174959001Y-132780000I-249999J0D01*
G01*
X174308999Y-132780000D01*
G75*
G02*
X174059000Y-132530001I0J249999D01*
G01*
X174059000Y-131629999D01*
G75*
G02*
X174308999Y-131380000I249999J0D01*
G01*
X174959001Y-131380000D01*
G75*
G02*
X175209000Y-131629999I0J-249999D01*
G01*
G37*
%TD*%
%TO.C,D3*%
G36*
G01*
X168090000Y-139515001D02*
X168090000Y-138614999D01*
G75*
G02*
X168339999Y-138365000I249999J0D01*
G01*
X168990001Y-138365000D01*
G75*
G02*
X169240000Y-138614999I0J-249999D01*
G01*
X169240000Y-139515001D01*
G75*
G02*
X168990001Y-139765000I-249999J0D01*
G01*
X168339999Y-139765000D01*
G75*
G02*
X168090000Y-139515001I0J249999D01*
G01*
G37*
G36*
G01*
X166040000Y-139515001D02*
X166040000Y-138614999D01*
G75*
G02*
X166289999Y-138365000I249999J0D01*
G01*
X166940001Y-138365000D01*
G75*
G02*
X167190000Y-138614999I0J-249999D01*
G01*
X167190000Y-139515001D01*
G75*
G02*
X166940001Y-139765000I-249999J0D01*
G01*
X166289999Y-139765000D01*
G75*
G02*
X166040000Y-139515001I0J249999D01*
G01*
G37*
%TD*%
%TO.C,J9*%
G36*
G01*
X196075000Y-140640000D02*
X194325000Y-140640000D01*
G75*
G02*
X193450000Y-139765000I0J875000D01*
G01*
X193450000Y-138015000D01*
G75*
G02*
X194325000Y-137140000I875000J0D01*
G01*
X196075000Y-137140000D01*
G75*
G02*
X196950000Y-138015000I0J-875000D01*
G01*
X196950000Y-139765000D01*
G75*
G02*
X196075000Y-140640000I-875000J0D01*
G01*
G37*
G36*
G01*
X191500000Y-143390000D02*
X189500000Y-143390000D01*
G75*
G02*
X188750000Y-142640000I0J750000D01*
G01*
X188750000Y-141140000D01*
G75*
G02*
X189500000Y-140390000I750000J0D01*
G01*
X191500000Y-140390000D01*
G75*
G02*
X192250000Y-141140000I0J-750000D01*
G01*
X192250000Y-142640000D01*
G75*
G02*
X191500000Y-143390000I-750000J0D01*
G01*
G37*
D26*
X190500000Y-135890000D03*
%TD*%
%TO.C,C57*%
G36*
G01*
X185981400Y-96972400D02*
X185671400Y-96972400D01*
G75*
G02*
X185516400Y-96817400I0J155000D01*
G01*
X185516400Y-96392400D01*
G75*
G02*
X185671400Y-96237400I155000J0D01*
G01*
X185981400Y-96237400D01*
G75*
G02*
X186136400Y-96392400I0J-155000D01*
G01*
X186136400Y-96817400D01*
G75*
G02*
X185981400Y-96972400I-155000J0D01*
G01*
G37*
G36*
G01*
X185981400Y-95837400D02*
X185671400Y-95837400D01*
G75*
G02*
X185516400Y-95682400I0J155000D01*
G01*
X185516400Y-95257400D01*
G75*
G02*
X185671400Y-95102400I155000J0D01*
G01*
X185981400Y-95102400D01*
G75*
G02*
X186136400Y-95257400I0J-155000D01*
G01*
X186136400Y-95682400D01*
G75*
G02*
X185981400Y-95837400I-155000J0D01*
G01*
G37*
%TD*%
%TO.C,C40*%
G36*
G01*
X189024200Y-110647200D02*
X189334200Y-110647200D01*
G75*
G02*
X189489200Y-110802200I0J-155000D01*
G01*
X189489200Y-111227200D01*
G75*
G02*
X189334200Y-111382200I-155000J0D01*
G01*
X189024200Y-111382200D01*
G75*
G02*
X188869200Y-111227200I0J155000D01*
G01*
X188869200Y-110802200D01*
G75*
G02*
X189024200Y-110647200I155000J0D01*
G01*
G37*
G36*
G01*
X189024200Y-111782200D02*
X189334200Y-111782200D01*
G75*
G02*
X189489200Y-111937200I0J-155000D01*
G01*
X189489200Y-112362200D01*
G75*
G02*
X189334200Y-112517200I-155000J0D01*
G01*
X189024200Y-112517200D01*
G75*
G02*
X188869200Y-112362200I0J155000D01*
G01*
X188869200Y-111937200D01*
G75*
G02*
X189024200Y-111782200I155000J0D01*
G01*
G37*
%TD*%
%TO.C,R15*%
G36*
G01*
X175422600Y-98610400D02*
X175422600Y-98290400D01*
G75*
G02*
X175582600Y-98130400I160000J0D01*
G01*
X175977600Y-98130400D01*
G75*
G02*
X176137600Y-98290400I0J-160000D01*
G01*
X176137600Y-98610400D01*
G75*
G02*
X175977600Y-98770400I-160000J0D01*
G01*
X175582600Y-98770400D01*
G75*
G02*
X175422600Y-98610400I0J160000D01*
G01*
G37*
G36*
G01*
X176617600Y-98610400D02*
X176617600Y-98290400D01*
G75*
G02*
X176777600Y-98130400I160000J0D01*
G01*
X177172600Y-98130400D01*
G75*
G02*
X177332600Y-98290400I0J-160000D01*
G01*
X177332600Y-98610400D01*
G75*
G02*
X177172600Y-98770400I-160000J0D01*
G01*
X176777600Y-98770400D01*
G75*
G02*
X176617600Y-98610400I0J160000D01*
G01*
G37*
%TD*%
%TO.C,C62*%
G36*
G01*
X183898600Y-96972400D02*
X183588600Y-96972400D01*
G75*
G02*
X183433600Y-96817400I0J155000D01*
G01*
X183433600Y-96392400D01*
G75*
G02*
X183588600Y-96237400I155000J0D01*
G01*
X183898600Y-96237400D01*
G75*
G02*
X184053600Y-96392400I0J-155000D01*
G01*
X184053600Y-96817400D01*
G75*
G02*
X183898600Y-96972400I-155000J0D01*
G01*
G37*
G36*
G01*
X183898600Y-95837400D02*
X183588600Y-95837400D01*
G75*
G02*
X183433600Y-95682400I0J155000D01*
G01*
X183433600Y-95257400D01*
G75*
G02*
X183588600Y-95102400I155000J0D01*
G01*
X183898600Y-95102400D01*
G75*
G02*
X184053600Y-95257400I0J-155000D01*
G01*
X184053600Y-95682400D01*
G75*
G02*
X183898600Y-95837400I-155000J0D01*
G01*
G37*
%TD*%
D23*
%TO.C,U2*%
X191420000Y-99670000D03*
X191420000Y-100470000D03*
X191420000Y-101270000D03*
X191420000Y-104470000D03*
X191420000Y-105270000D03*
X191420000Y-106070000D03*
X190620000Y-99670000D03*
X190620000Y-100470000D03*
X190620000Y-101270000D03*
X190620000Y-104470000D03*
X190620000Y-105270000D03*
X190620000Y-106070000D03*
X189820000Y-99670000D03*
X189820000Y-100470000D03*
X189820000Y-101270000D03*
X189820000Y-104470000D03*
X189820000Y-105270000D03*
X189820000Y-106070000D03*
X189020000Y-99670000D03*
X189020000Y-100470000D03*
X189020000Y-101270000D03*
X189020000Y-104470000D03*
X189020000Y-105270000D03*
X189020000Y-106070000D03*
X188220000Y-99670000D03*
X188220000Y-100470000D03*
X188220000Y-101270000D03*
X188220000Y-104470000D03*
X188220000Y-105270000D03*
X188220000Y-106070000D03*
X187420000Y-99670000D03*
X187420000Y-100470000D03*
X187420000Y-101270000D03*
X187420000Y-104470000D03*
X187420000Y-105270000D03*
X187420000Y-106070000D03*
X186620000Y-99670000D03*
X186620000Y-100470000D03*
X186620000Y-101270000D03*
X186620000Y-104470000D03*
X186620000Y-105270000D03*
X186620000Y-106070000D03*
X185820000Y-99670000D03*
X185820000Y-100470000D03*
X185820000Y-101270000D03*
X185820000Y-104470000D03*
X185820000Y-105270000D03*
X185820000Y-106070000D03*
X185020000Y-99670000D03*
X185020000Y-100470000D03*
X185020000Y-101270000D03*
X185020000Y-104470000D03*
X185020000Y-105270000D03*
X185020000Y-106070000D03*
X184220000Y-99670000D03*
X184220000Y-100470000D03*
X184220000Y-101270000D03*
X184220000Y-104470000D03*
X184220000Y-105270000D03*
X184220000Y-106070000D03*
X183420000Y-99670000D03*
X183420000Y-100470000D03*
X183420000Y-101270000D03*
X183420000Y-104470000D03*
X183420000Y-105270000D03*
X183420000Y-106070000D03*
X182620000Y-99670000D03*
X182620000Y-100470000D03*
X182620000Y-101270000D03*
X182620000Y-104470000D03*
X182620000Y-105270000D03*
X182620000Y-106070000D03*
X181820000Y-99670000D03*
X181820000Y-100470000D03*
X181820000Y-101270000D03*
X181820000Y-104470000D03*
X181820000Y-105270000D03*
X181820000Y-106070000D03*
X181020000Y-99670000D03*
X181020000Y-100470000D03*
X181020000Y-101270000D03*
X181020000Y-104470000D03*
X181020000Y-105270000D03*
X181020000Y-106070000D03*
X180220000Y-99670000D03*
X180220000Y-100470000D03*
X180220000Y-101270000D03*
X180220000Y-104470000D03*
X180220000Y-105270000D03*
X180220000Y-106070000D03*
X179420000Y-99670000D03*
X179420000Y-100470000D03*
X179420000Y-101270000D03*
X179420000Y-104470000D03*
X179420000Y-105270000D03*
X179420000Y-106070000D03*
%TD*%
%TO.C,C36*%
G36*
G01*
X189181800Y-96997800D02*
X188871800Y-96997800D01*
G75*
G02*
X188716800Y-96842800I0J155000D01*
G01*
X188716800Y-96417800D01*
G75*
G02*
X188871800Y-96262800I155000J0D01*
G01*
X189181800Y-96262800D01*
G75*
G02*
X189336800Y-96417800I0J-155000D01*
G01*
X189336800Y-96842800D01*
G75*
G02*
X189181800Y-96997800I-155000J0D01*
G01*
G37*
G36*
G01*
X189181800Y-95862800D02*
X188871800Y-95862800D01*
G75*
G02*
X188716800Y-95707800I0J155000D01*
G01*
X188716800Y-95282800D01*
G75*
G02*
X188871800Y-95127800I155000J0D01*
G01*
X189181800Y-95127800D01*
G75*
G02*
X189336800Y-95282800I0J-155000D01*
G01*
X189336800Y-95707800D01*
G75*
G02*
X189181800Y-95862800I-155000J0D01*
G01*
G37*
%TD*%
%TO.C,C52*%
G36*
G01*
X188089600Y-96997800D02*
X187779600Y-96997800D01*
G75*
G02*
X187624600Y-96842800I0J155000D01*
G01*
X187624600Y-96417800D01*
G75*
G02*
X187779600Y-96262800I155000J0D01*
G01*
X188089600Y-96262800D01*
G75*
G02*
X188244600Y-96417800I0J-155000D01*
G01*
X188244600Y-96842800D01*
G75*
G02*
X188089600Y-96997800I-155000J0D01*
G01*
G37*
G36*
G01*
X188089600Y-95862800D02*
X187779600Y-95862800D01*
G75*
G02*
X187624600Y-95707800I0J155000D01*
G01*
X187624600Y-95282800D01*
G75*
G02*
X187779600Y-95127800I155000J0D01*
G01*
X188089600Y-95127800D01*
G75*
G02*
X188244600Y-95282800I0J-155000D01*
G01*
X188244600Y-95707800D01*
G75*
G02*
X188089600Y-95862800I-155000J0D01*
G01*
G37*
%TD*%
%TO.C,C42*%
G36*
G01*
X190040200Y-110647200D02*
X190350200Y-110647200D01*
G75*
G02*
X190505200Y-110802200I0J-155000D01*
G01*
X190505200Y-111227200D01*
G75*
G02*
X190350200Y-111382200I-155000J0D01*
G01*
X190040200Y-111382200D01*
G75*
G02*
X189885200Y-111227200I0J155000D01*
G01*
X189885200Y-110802200D01*
G75*
G02*
X190040200Y-110647200I155000J0D01*
G01*
G37*
G36*
G01*
X190040200Y-111782200D02*
X190350200Y-111782200D01*
G75*
G02*
X190505200Y-111937200I0J-155000D01*
G01*
X190505200Y-112362200D01*
G75*
G02*
X190350200Y-112517200I-155000J0D01*
G01*
X190040200Y-112517200D01*
G75*
G02*
X189885200Y-112362200I0J155000D01*
G01*
X189885200Y-111937200D01*
G75*
G02*
X190040200Y-111782200I155000J0D01*
G01*
G37*
%TD*%
%TO.C,C65*%
G36*
G01*
X184940000Y-96972400D02*
X184630000Y-96972400D01*
G75*
G02*
X184475000Y-96817400I0J155000D01*
G01*
X184475000Y-96392400D01*
G75*
G02*
X184630000Y-96237400I155000J0D01*
G01*
X184940000Y-96237400D01*
G75*
G02*
X185095000Y-96392400I0J-155000D01*
G01*
X185095000Y-96817400D01*
G75*
G02*
X184940000Y-96972400I-155000J0D01*
G01*
G37*
G36*
G01*
X184940000Y-95837400D02*
X184630000Y-95837400D01*
G75*
G02*
X184475000Y-95682400I0J155000D01*
G01*
X184475000Y-95257400D01*
G75*
G02*
X184630000Y-95102400I155000J0D01*
G01*
X184940000Y-95102400D01*
G75*
G02*
X185095000Y-95257400I0J-155000D01*
G01*
X185095000Y-95682400D01*
G75*
G02*
X184940000Y-95837400I-155000J0D01*
G01*
G37*
%TD*%
%TO.C,R52*%
G36*
G01*
X187027800Y-97017800D02*
X186707800Y-97017800D01*
G75*
G02*
X186547800Y-96857800I0J160000D01*
G01*
X186547800Y-96462800D01*
G75*
G02*
X186707800Y-96302800I160000J0D01*
G01*
X187027800Y-96302800D01*
G75*
G02*
X187187800Y-96462800I0J-160000D01*
G01*
X187187800Y-96857800D01*
G75*
G02*
X187027800Y-97017800I-160000J0D01*
G01*
G37*
G36*
G01*
X187027800Y-95822800D02*
X186707800Y-95822800D01*
G75*
G02*
X186547800Y-95662800I0J160000D01*
G01*
X186547800Y-95267800D01*
G75*
G02*
X186707800Y-95107800I160000J0D01*
G01*
X187027800Y-95107800D01*
G75*
G02*
X187187800Y-95267800I0J-160000D01*
G01*
X187187800Y-95662800D01*
G75*
G02*
X187027800Y-95822800I-160000J0D01*
G01*
G37*
%TD*%
%TO.C,R17*%
G36*
G01*
X151798000Y-146318000D02*
X151478000Y-146318000D01*
G75*
G02*
X151318000Y-146158000I0J160000D01*
G01*
X151318000Y-145763000D01*
G75*
G02*
X151478000Y-145603000I160000J0D01*
G01*
X151798000Y-145603000D01*
G75*
G02*
X151958000Y-145763000I0J-160000D01*
G01*
X151958000Y-146158000D01*
G75*
G02*
X151798000Y-146318000I-160000J0D01*
G01*
G37*
G36*
G01*
X151798000Y-147513000D02*
X151478000Y-147513000D01*
G75*
G02*
X151318000Y-147353000I0J160000D01*
G01*
X151318000Y-146958000D01*
G75*
G02*
X151478000Y-146798000I160000J0D01*
G01*
X151798000Y-146798000D01*
G75*
G02*
X151958000Y-146958000I0J-160000D01*
G01*
X151958000Y-147353000D01*
G75*
G02*
X151798000Y-147513000I-160000J0D01*
G01*
G37*
%TD*%
%TO.C,R16*%
G36*
G01*
X139794000Y-146798000D02*
X140114000Y-146798000D01*
G75*
G02*
X140274000Y-146958000I0J-160000D01*
G01*
X140274000Y-147353000D01*
G75*
G02*
X140114000Y-147513000I-160000J0D01*
G01*
X139794000Y-147513000D01*
G75*
G02*
X139634000Y-147353000I0J160000D01*
G01*
X139634000Y-146958000D01*
G75*
G02*
X139794000Y-146798000I160000J0D01*
G01*
G37*
G36*
G01*
X139794000Y-145603000D02*
X140114000Y-145603000D01*
G75*
G02*
X140274000Y-145763000I0J-160000D01*
G01*
X140274000Y-146158000D01*
G75*
G02*
X140114000Y-146318000I-160000J0D01*
G01*
X139794000Y-146318000D01*
G75*
G02*
X139634000Y-146158000I0J160000D01*
G01*
X139634000Y-145763000D01*
G75*
G02*
X139794000Y-145603000I160000J0D01*
G01*
G37*
%TD*%
D27*
%TO.C,J8*%
X142667400Y-147338300D03*
X148467400Y-147338300D03*
D28*
X149067400Y-147338300D03*
X142067400Y-147338300D03*
D29*
X144567400Y-147338300D03*
D30*
X148067400Y-144638300D03*
D31*
X145567400Y-144638300D03*
X146217400Y-144638300D03*
X146867400Y-144638300D03*
X144267400Y-144638300D03*
X144917400Y-144638300D03*
D30*
X143067400Y-144638300D03*
D29*
X146567400Y-147338300D03*
%TD*%
D24*
%TO.C,J5*%
X150622000Y-76835000D03*
X148082000Y-76835000D03*
X150622000Y-74295000D03*
X148082000Y-74295000D03*
X150622000Y-71755000D03*
D25*
X148082000Y-71755000D03*
%TD*%
D24*
%TO.C,J4*%
X129540000Y-76200000D03*
X129540000Y-78740000D03*
X129540000Y-81280000D03*
X129540000Y-83820000D03*
X129540000Y-86360000D03*
X129540000Y-88900000D03*
X129540000Y-91440000D03*
X129540000Y-93980000D03*
X129540000Y-96520000D03*
X129540000Y-99060000D03*
X129540000Y-101600000D03*
X129540000Y-104140000D03*
X129540000Y-106680000D03*
X129540000Y-109220000D03*
X129540000Y-111760000D03*
X129540000Y-114300000D03*
X129540000Y-116840000D03*
X129540000Y-119380000D03*
X129540000Y-121920000D03*
X129540000Y-124460000D03*
X129540000Y-127000000D03*
X129540000Y-129540000D03*
X129540000Y-132080000D03*
X129540000Y-134620000D03*
X129540000Y-137160000D03*
X129540000Y-139700000D03*
D25*
X129540000Y-142240000D03*
%TD*%
D24*
%TO.C,J3*%
X132080000Y-76200000D03*
X132080000Y-78740000D03*
X132080000Y-81280000D03*
X132080000Y-83820000D03*
X132080000Y-86360000D03*
X132080000Y-88900000D03*
X132080000Y-91440000D03*
X132080000Y-93980000D03*
X132080000Y-96520000D03*
X132080000Y-99060000D03*
X132080000Y-101600000D03*
X132080000Y-104140000D03*
X132080000Y-106680000D03*
X132080000Y-109220000D03*
X132080000Y-111760000D03*
X132080000Y-114300000D03*
X132080000Y-116840000D03*
X132080000Y-119380000D03*
X132080000Y-121920000D03*
X132080000Y-124460000D03*
X132080000Y-127000000D03*
X132080000Y-129540000D03*
X132080000Y-132080000D03*
X132080000Y-134620000D03*
X132080000Y-137160000D03*
X132080000Y-139700000D03*
D25*
X132080000Y-142240000D03*
%TD*%
D24*
%TO.C,J2*%
X134620000Y-76200000D03*
X134620000Y-78740000D03*
X134620000Y-81280000D03*
X134620000Y-83820000D03*
X134620000Y-86360000D03*
X134620000Y-88900000D03*
X134620000Y-91440000D03*
X134620000Y-93980000D03*
X134620000Y-96520000D03*
X134620000Y-99060000D03*
X134620000Y-101600000D03*
X134620000Y-104140000D03*
X134620000Y-106680000D03*
X134620000Y-109220000D03*
X134620000Y-111760000D03*
X134620000Y-114300000D03*
X134620000Y-116840000D03*
X134620000Y-119380000D03*
X134620000Y-121920000D03*
X134620000Y-124460000D03*
X134620000Y-127000000D03*
X134620000Y-129540000D03*
X134620000Y-132080000D03*
X134620000Y-134620000D03*
X134620000Y-137160000D03*
X134620000Y-139700000D03*
D25*
X134620000Y-142240000D03*
%TD*%
D24*
%TO.C,J1*%
X137160000Y-76200000D03*
X137160000Y-78740000D03*
X137160000Y-81280000D03*
X137160000Y-83820000D03*
X137160000Y-86360000D03*
X137160000Y-88900000D03*
X137160000Y-91440000D03*
X137160000Y-93980000D03*
X137160000Y-96520000D03*
X137160000Y-99060000D03*
X137160000Y-101600000D03*
X137160000Y-104140000D03*
X137160000Y-106680000D03*
X137160000Y-109220000D03*
X137160000Y-111760000D03*
X137160000Y-114300000D03*
X137160000Y-116840000D03*
X137160000Y-119380000D03*
X137160000Y-121920000D03*
X137160000Y-124460000D03*
X137160000Y-127000000D03*
X137160000Y-129540000D03*
X137160000Y-132080000D03*
X137160000Y-134620000D03*
X137160000Y-137160000D03*
X137160000Y-139700000D03*
D25*
X137160000Y-142240000D03*
%TD*%
%TO.C,C68*%
G36*
G01*
X163141600Y-112857000D02*
X163451600Y-112857000D01*
G75*
G02*
X163606600Y-113012000I0J-155000D01*
G01*
X163606600Y-113437000D01*
G75*
G02*
X163451600Y-113592000I-155000J0D01*
G01*
X163141600Y-113592000D01*
G75*
G02*
X162986600Y-113437000I0J155000D01*
G01*
X162986600Y-113012000D01*
G75*
G02*
X163141600Y-112857000I155000J0D01*
G01*
G37*
G36*
G01*
X163141600Y-113992000D02*
X163451600Y-113992000D01*
G75*
G02*
X163606600Y-114147000I0J-155000D01*
G01*
X163606600Y-114572000D01*
G75*
G02*
X163451600Y-114727000I-155000J0D01*
G01*
X163141600Y-114727000D01*
G75*
G02*
X162986600Y-114572000I0J155000D01*
G01*
X162986600Y-114147000D01*
G75*
G02*
X163141600Y-113992000I155000J0D01*
G01*
G37*
%TD*%
%TO.C,C9*%
G36*
G01*
X162529800Y-113002000D02*
X162529800Y-113312000D01*
G75*
G02*
X162374800Y-113467000I-155000J0D01*
G01*
X161949800Y-113467000D01*
G75*
G02*
X161794800Y-113312000I0J155000D01*
G01*
X161794800Y-113002000D01*
G75*
G02*
X161949800Y-112847000I155000J0D01*
G01*
X162374800Y-112847000D01*
G75*
G02*
X162529800Y-113002000I0J-155000D01*
G01*
G37*
G36*
G01*
X161394800Y-113002000D02*
X161394800Y-113312000D01*
G75*
G02*
X161239800Y-113467000I-155000J0D01*
G01*
X160814800Y-113467000D01*
G75*
G02*
X160659800Y-113312000I0J155000D01*
G01*
X160659800Y-113002000D01*
G75*
G02*
X160814800Y-112847000I155000J0D01*
G01*
X161239800Y-112847000D01*
G75*
G02*
X161394800Y-113002000I0J-155000D01*
G01*
G37*
%TD*%
%TO.C,C17*%
G36*
G01*
X163451600Y-117038400D02*
X163141600Y-117038400D01*
G75*
G02*
X162986600Y-116883400I0J155000D01*
G01*
X162986600Y-116458400D01*
G75*
G02*
X163141600Y-116303400I155000J0D01*
G01*
X163451600Y-116303400D01*
G75*
G02*
X163606600Y-116458400I0J-155000D01*
G01*
X163606600Y-116883400D01*
G75*
G02*
X163451600Y-117038400I-155000J0D01*
G01*
G37*
G36*
G01*
X163451600Y-115903400D02*
X163141600Y-115903400D01*
G75*
G02*
X162986600Y-115748400I0J155000D01*
G01*
X162986600Y-115323400D01*
G75*
G02*
X163141600Y-115168400I155000J0D01*
G01*
X163451600Y-115168400D01*
G75*
G02*
X163606600Y-115323400I0J-155000D01*
G01*
X163606600Y-115748400D01*
G75*
G02*
X163451600Y-115903400I-155000J0D01*
G01*
G37*
%TD*%
%TO.C,C5*%
G36*
G01*
X188610003Y-125338000D02*
X187309997Y-125338000D01*
G75*
G02*
X187060000Y-125088003I0J249997D01*
G01*
X187060000Y-124262997D01*
G75*
G02*
X187309997Y-124013000I249997J0D01*
G01*
X188610003Y-124013000D01*
G75*
G02*
X188860000Y-124262997I0J-249997D01*
G01*
X188860000Y-125088003D01*
G75*
G02*
X188610003Y-125338000I-249997J0D01*
G01*
G37*
G36*
G01*
X188610003Y-128463000D02*
X187309997Y-128463000D01*
G75*
G02*
X187060000Y-128213003I0J249997D01*
G01*
X187060000Y-127387997D01*
G75*
G02*
X187309997Y-127138000I249997J0D01*
G01*
X188610003Y-127138000D01*
G75*
G02*
X188860000Y-127387997I0J-249997D01*
G01*
X188860000Y-128213003D01*
G75*
G02*
X188610003Y-128463000I-249997J0D01*
G01*
G37*
%TD*%
D32*
%TO.C,U4*%
X195410000Y-126238000D03*
X195410000Y-125288000D03*
X195410000Y-127188000D03*
X193210000Y-127188000D03*
X193210000Y-126238000D03*
X193210000Y-125288000D03*
%TD*%
D33*
%TO.C,U3*%
X174609000Y-135382000D03*
X172609000Y-136332000D03*
X172609000Y-134432000D03*
%TD*%
%TO.C,R9*%
G36*
G01*
X132574000Y-72042000D02*
X132574000Y-71722000D01*
G75*
G02*
X132734000Y-71562000I160000J0D01*
G01*
X133129000Y-71562000D01*
G75*
G02*
X133289000Y-71722000I0J-160000D01*
G01*
X133289000Y-72042000D01*
G75*
G02*
X133129000Y-72202000I-160000J0D01*
G01*
X132734000Y-72202000D01*
G75*
G02*
X132574000Y-72042000I0J160000D01*
G01*
G37*
G36*
G01*
X131379000Y-72042000D02*
X131379000Y-71722000D01*
G75*
G02*
X131539000Y-71562000I160000J0D01*
G01*
X131934000Y-71562000D01*
G75*
G02*
X132094000Y-71722000I0J-160000D01*
G01*
X132094000Y-72042000D01*
G75*
G02*
X131934000Y-72202000I-160000J0D01*
G01*
X131539000Y-72202000D01*
G75*
G02*
X131379000Y-72042000I0J160000D01*
G01*
G37*
%TD*%
%TO.C,R8*%
G36*
G01*
X166657000Y-113425000D02*
X166337000Y-113425000D01*
G75*
G02*
X166177000Y-113265000I0J160000D01*
G01*
X166177000Y-112870000D01*
G75*
G02*
X166337000Y-112710000I160000J0D01*
G01*
X166657000Y-112710000D01*
G75*
G02*
X166817000Y-112870000I0J-160000D01*
G01*
X166817000Y-113265000D01*
G75*
G02*
X166657000Y-113425000I-160000J0D01*
G01*
G37*
G36*
G01*
X166657000Y-114620000D02*
X166337000Y-114620000D01*
G75*
G02*
X166177000Y-114460000I0J160000D01*
G01*
X166177000Y-114065000D01*
G75*
G02*
X166337000Y-113905000I160000J0D01*
G01*
X166657000Y-113905000D01*
G75*
G02*
X166817000Y-114065000I0J-160000D01*
G01*
X166817000Y-114460000D01*
G75*
G02*
X166657000Y-114620000I-160000J0D01*
G01*
G37*
%TD*%
%TO.C,R7*%
G36*
G01*
X144794000Y-76675000D02*
X144794000Y-76995000D01*
G75*
G02*
X144634000Y-77155000I-160000J0D01*
G01*
X144239000Y-77155000D01*
G75*
G02*
X144079000Y-76995000I0J160000D01*
G01*
X144079000Y-76675000D01*
G75*
G02*
X144239000Y-76515000I160000J0D01*
G01*
X144634000Y-76515000D01*
G75*
G02*
X144794000Y-76675000I0J-160000D01*
G01*
G37*
G36*
G01*
X145989000Y-76675000D02*
X145989000Y-76995000D01*
G75*
G02*
X145829000Y-77155000I-160000J0D01*
G01*
X145434000Y-77155000D01*
G75*
G02*
X145274000Y-76995000I0J160000D01*
G01*
X145274000Y-76675000D01*
G75*
G02*
X145434000Y-76515000I160000J0D01*
G01*
X145829000Y-76515000D01*
G75*
G02*
X145989000Y-76675000I0J-160000D01*
G01*
G37*
%TD*%
%TO.C,R5*%
G36*
G01*
X144794000Y-74135000D02*
X144794000Y-74455000D01*
G75*
G02*
X144634000Y-74615000I-160000J0D01*
G01*
X144239000Y-74615000D01*
G75*
G02*
X144079000Y-74455000I0J160000D01*
G01*
X144079000Y-74135000D01*
G75*
G02*
X144239000Y-73975000I160000J0D01*
G01*
X144634000Y-73975000D01*
G75*
G02*
X144794000Y-74135000I0J-160000D01*
G01*
G37*
G36*
G01*
X145989000Y-74135000D02*
X145989000Y-74455000D01*
G75*
G02*
X145829000Y-74615000I-160000J0D01*
G01*
X145434000Y-74615000D01*
G75*
G02*
X145274000Y-74455000I0J160000D01*
G01*
X145274000Y-74135000D01*
G75*
G02*
X145434000Y-73975000I160000J0D01*
G01*
X145829000Y-73975000D01*
G75*
G02*
X145989000Y-74135000I0J-160000D01*
G01*
G37*
%TD*%
%TO.C,R4*%
G36*
G01*
X197415999Y-128670000D02*
X198316001Y-128670000D01*
G75*
G02*
X198566000Y-128919999I0J-249999D01*
G01*
X198566000Y-129620001D01*
G75*
G02*
X198316001Y-129870000I-249999J0D01*
G01*
X197415999Y-129870000D01*
G75*
G02*
X197166000Y-129620001I0J249999D01*
G01*
X197166000Y-128919999D01*
G75*
G02*
X197415999Y-128670000I249999J0D01*
G01*
G37*
G36*
G01*
X197415999Y-126670000D02*
X198316001Y-126670000D01*
G75*
G02*
X198566000Y-126919999I0J-249999D01*
G01*
X198566000Y-127620001D01*
G75*
G02*
X198316001Y-127870000I-249999J0D01*
G01*
X197415999Y-127870000D01*
G75*
G02*
X197166000Y-127620001I0J249999D01*
G01*
X197166000Y-126919999D01*
G75*
G02*
X197415999Y-126670000I249999J0D01*
G01*
G37*
%TD*%
%TO.C,R3*%
G36*
G01*
X197415999Y-123971000D02*
X198316001Y-123971000D01*
G75*
G02*
X198566000Y-124220999I0J-249999D01*
G01*
X198566000Y-124921001D01*
G75*
G02*
X198316001Y-125171000I-249999J0D01*
G01*
X197415999Y-125171000D01*
G75*
G02*
X197166000Y-124921001I0J249999D01*
G01*
X197166000Y-124220999D01*
G75*
G02*
X197415999Y-123971000I249999J0D01*
G01*
G37*
G36*
G01*
X197415999Y-121971000D02*
X198316001Y-121971000D01*
G75*
G02*
X198566000Y-122220999I0J-249999D01*
G01*
X198566000Y-122921001D01*
G75*
G02*
X198316001Y-123171000I-249999J0D01*
G01*
X197415999Y-123171000D01*
G75*
G02*
X197166000Y-122921001I0J249999D01*
G01*
X197166000Y-122220999D01*
G75*
G02*
X197415999Y-121971000I249999J0D01*
G01*
G37*
%TD*%
%TO.C,R1*%
G36*
G01*
X144794000Y-71595000D02*
X144794000Y-71915000D01*
G75*
G02*
X144634000Y-72075000I-160000J0D01*
G01*
X144239000Y-72075000D01*
G75*
G02*
X144079000Y-71915000I0J160000D01*
G01*
X144079000Y-71595000D01*
G75*
G02*
X144239000Y-71435000I160000J0D01*
G01*
X144634000Y-71435000D01*
G75*
G02*
X144794000Y-71595000I0J-160000D01*
G01*
G37*
G36*
G01*
X145989000Y-71595000D02*
X145989000Y-71915000D01*
G75*
G02*
X145829000Y-72075000I-160000J0D01*
G01*
X145434000Y-72075000D01*
G75*
G02*
X145274000Y-71915000I0J160000D01*
G01*
X145274000Y-71595000D01*
G75*
G02*
X145434000Y-71435000I160000J0D01*
G01*
X145829000Y-71435000D01*
G75*
G02*
X145989000Y-71595000I0J-160000D01*
G01*
G37*
%TD*%
D34*
%TO.C,L2*%
X180975000Y-118300000D03*
X180975000Y-123000000D03*
%TD*%
D27*
%TO.C,J14*%
X155850000Y-147287500D03*
X161650000Y-147287500D03*
D28*
X162250000Y-147287500D03*
X155250000Y-147287500D03*
D29*
X157750000Y-147287500D03*
D30*
X161250000Y-144587500D03*
D31*
X158750000Y-144587500D03*
X159400000Y-144587500D03*
X160050000Y-144587500D03*
X157450000Y-144587500D03*
X158100000Y-144587500D03*
D30*
X156250000Y-144587500D03*
D29*
X159750000Y-147287500D03*
%TD*%
D35*
%TO.C,J6*%
X187896500Y-79420000D03*
X187896500Y-75520000D03*
X189166500Y-79420000D03*
X189166500Y-75520000D03*
X190436500Y-79420000D03*
X190436500Y-75520000D03*
X191706500Y-79420000D03*
X191706500Y-75520000D03*
X192976500Y-79420000D03*
X192976500Y-75520000D03*
%TD*%
%TO.C,D1*%
G36*
G01*
X136594000Y-72332001D02*
X136594000Y-71431999D01*
G75*
G02*
X136843999Y-71182000I249999J0D01*
G01*
X137494001Y-71182000D01*
G75*
G02*
X137744000Y-71431999I0J-249999D01*
G01*
X137744000Y-72332001D01*
G75*
G02*
X137494001Y-72582000I-249999J0D01*
G01*
X136843999Y-72582000D01*
G75*
G02*
X136594000Y-72332001I0J249999D01*
G01*
G37*
G36*
G01*
X134544000Y-72332001D02*
X134544000Y-71431999D01*
G75*
G02*
X134793999Y-71182000I249999J0D01*
G01*
X135444001Y-71182000D01*
G75*
G02*
X135694000Y-71431999I0J-249999D01*
G01*
X135694000Y-72332001D01*
G75*
G02*
X135444001Y-72582000I-249999J0D01*
G01*
X134793999Y-72582000D01*
G75*
G02*
X134544000Y-72332001I0J249999D01*
G01*
G37*
%TD*%
%TO.C,C13*%
G36*
G01*
X184521500Y-79220000D02*
X184521500Y-79530000D01*
G75*
G02*
X184366500Y-79685000I-155000J0D01*
G01*
X183941500Y-79685000D01*
G75*
G02*
X183786500Y-79530000I0J155000D01*
G01*
X183786500Y-79220000D01*
G75*
G02*
X183941500Y-79065000I155000J0D01*
G01*
X184366500Y-79065000D01*
G75*
G02*
X184521500Y-79220000I0J-155000D01*
G01*
G37*
G36*
G01*
X185656500Y-79220000D02*
X185656500Y-79530000D01*
G75*
G02*
X185501500Y-79685000I-155000J0D01*
G01*
X185076500Y-79685000D01*
G75*
G02*
X184921500Y-79530000I0J155000D01*
G01*
X184921500Y-79220000D01*
G75*
G02*
X185076500Y-79065000I155000J0D01*
G01*
X185501500Y-79065000D01*
G75*
G02*
X185656500Y-79220000I0J-155000D01*
G01*
G37*
%TD*%
%TO.C,C10*%
G36*
G01*
X187309997Y-120788000D02*
X188610003Y-120788000D01*
G75*
G02*
X188860000Y-121037997I0J-249997D01*
G01*
X188860000Y-121863003D01*
G75*
G02*
X188610003Y-122113000I-249997J0D01*
G01*
X187309997Y-122113000D01*
G75*
G02*
X187060000Y-121863003I0J249997D01*
G01*
X187060000Y-121037997D01*
G75*
G02*
X187309997Y-120788000I249997J0D01*
G01*
G37*
G36*
G01*
X187309997Y-117663000D02*
X188610003Y-117663000D01*
G75*
G02*
X188860000Y-117912997I0J-249997D01*
G01*
X188860000Y-118738003D01*
G75*
G02*
X188610003Y-118988000I-249997J0D01*
G01*
X187309997Y-118988000D01*
G75*
G02*
X187060000Y-118738003I0J249997D01*
G01*
X187060000Y-117912997D01*
G75*
G02*
X187309997Y-117663000I249997J0D01*
G01*
G37*
%TD*%
%TO.C,C8*%
G36*
G01*
X189849997Y-120788000D02*
X191150003Y-120788000D01*
G75*
G02*
X191400000Y-121037997I0J-249997D01*
G01*
X191400000Y-121863003D01*
G75*
G02*
X191150003Y-122113000I-249997J0D01*
G01*
X189849997Y-122113000D01*
G75*
G02*
X189600000Y-121863003I0J249997D01*
G01*
X189600000Y-121037997D01*
G75*
G02*
X189849997Y-120788000I249997J0D01*
G01*
G37*
G36*
G01*
X189849997Y-117663000D02*
X191150003Y-117663000D01*
G75*
G02*
X191400000Y-117912997I0J-249997D01*
G01*
X191400000Y-118738003D01*
G75*
G02*
X191150003Y-118988000I-249997J0D01*
G01*
X189849997Y-118988000D01*
G75*
G02*
X189600000Y-118738003I0J249997D01*
G01*
X189600000Y-117912997D01*
G75*
G02*
X189849997Y-117663000I249997J0D01*
G01*
G37*
%TD*%
%TO.C,C6*%
G36*
G01*
X185895000Y-125661000D02*
X184945000Y-125661000D01*
G75*
G02*
X184695000Y-125411000I0J250000D01*
G01*
X184695000Y-124736000D01*
G75*
G02*
X184945000Y-124486000I250000J0D01*
G01*
X185895000Y-124486000D01*
G75*
G02*
X186145000Y-124736000I0J-250000D01*
G01*
X186145000Y-125411000D01*
G75*
G02*
X185895000Y-125661000I-250000J0D01*
G01*
G37*
G36*
G01*
X185895000Y-127736000D02*
X184945000Y-127736000D01*
G75*
G02*
X184695000Y-127486000I0J250000D01*
G01*
X184695000Y-126811000D01*
G75*
G02*
X184945000Y-126561000I250000J0D01*
G01*
X185895000Y-126561000D01*
G75*
G02*
X186145000Y-126811000I0J-250000D01*
G01*
X186145000Y-127486000D01*
G75*
G02*
X185895000Y-127736000I-250000J0D01*
G01*
G37*
%TD*%
%TO.C,C4*%
G36*
G01*
X194760000Y-123157000D02*
X194760000Y-122207000D01*
G75*
G02*
X195010000Y-121957000I250000J0D01*
G01*
X195685000Y-121957000D01*
G75*
G02*
X195935000Y-122207000I0J-250000D01*
G01*
X195935000Y-123157000D01*
G75*
G02*
X195685000Y-123407000I-250000J0D01*
G01*
X195010000Y-123407000D01*
G75*
G02*
X194760000Y-123157000I0J250000D01*
G01*
G37*
G36*
G01*
X192685000Y-123157000D02*
X192685000Y-122207000D01*
G75*
G02*
X192935000Y-121957000I250000J0D01*
G01*
X193610000Y-121957000D01*
G75*
G02*
X193860000Y-122207000I0J-250000D01*
G01*
X193860000Y-123157000D01*
G75*
G02*
X193610000Y-123407000I-250000J0D01*
G01*
X192935000Y-123407000D01*
G75*
G02*
X192685000Y-123157000I0J250000D01*
G01*
G37*
%TD*%
%TO.C,C2*%
G36*
G01*
X191150003Y-125338000D02*
X189849997Y-125338000D01*
G75*
G02*
X189600000Y-125088003I0J249997D01*
G01*
X189600000Y-124262997D01*
G75*
G02*
X189849997Y-124013000I249997J0D01*
G01*
X191150003Y-124013000D01*
G75*
G02*
X191400000Y-124262997I0J-249997D01*
G01*
X191400000Y-125088003D01*
G75*
G02*
X191150003Y-125338000I-249997J0D01*
G01*
G37*
G36*
G01*
X191150003Y-128463000D02*
X189849997Y-128463000D01*
G75*
G02*
X189600000Y-128213003I0J249997D01*
G01*
X189600000Y-127387997D01*
G75*
G02*
X189849997Y-127138000I249997J0D01*
G01*
X191150003Y-127138000D01*
G75*
G02*
X191400000Y-127387997I0J-249997D01*
G01*
X191400000Y-128213003D01*
G75*
G02*
X191150003Y-128463000I-249997J0D01*
G01*
G37*
%TD*%
M02*
