%TF.GenerationSoftware,KiCad,Pcbnew,(5.1.8-0-10_14)*%
%TF.CreationDate,2020-12-08T12:39:33+00:00*%
%TF.ProjectId,STM32MP1_TestBoard,53544d33-324d-4503-915f-54657374426f,rev?*%
%TF.SameCoordinates,Original*%
%TF.FileFunction,Legend,Bot*%
%TF.FilePolarity,Positive*%
%FSLAX46Y46*%
G04 Gerber Fmt 4.6, Leading zero omitted, Abs format (unit mm)*
G04 Created by KiCad (PCBNEW (5.1.8-0-10_14)) date 2020-12-08 12:39:33*
%MOMM*%
%LPD*%
G01*
G04 APERTURE LIST*
%ADD10C,0.120000*%
%ADD11C,0.100000*%
G04 APERTURE END LIST*
D10*
%TO.C,R2*%
X180629579Y-107733100D02*
X180964821Y-107733100D01*
X180629579Y-106973100D02*
X180964821Y-106973100D01*
%TO.C,R11*%
X180964821Y-108039900D02*
X180629579Y-108039900D01*
X180964821Y-108799900D02*
X180629579Y-108799900D01*
%TO.C,R14*%
X184838321Y-102693200D02*
X184503079Y-102693200D01*
X184838321Y-103453200D02*
X184503079Y-103453200D01*
%TO.C,R6*%
X184261779Y-107745800D02*
X184597021Y-107745800D01*
X184261779Y-106985800D02*
X184597021Y-106985800D01*
%TO.C,C69*%
X163523665Y-98785000D02*
X163755335Y-98785000D01*
X163523665Y-98065000D02*
X163755335Y-98065000D01*
%TO.C,C70*%
X162641349Y-90659034D02*
X162477534Y-90822849D01*
X163150466Y-91168151D02*
X162986651Y-91331966D01*
%TO.C,JP4*%
X148253938Y-106860125D02*
X146839725Y-108274338D01*
X150233837Y-108840024D02*
X148253938Y-106860125D01*
X148819624Y-110254237D02*
X150233837Y-108840024D01*
X146839725Y-108274338D02*
X148819624Y-110254237D01*
%TO.C,C33*%
X156697000Y-103392235D02*
X156697000Y-103160565D01*
X155977000Y-103392235D02*
X155977000Y-103160565D01*
%TO.C,C32*%
X159177400Y-105446565D02*
X159177400Y-105678235D01*
X159897400Y-105446565D02*
X159897400Y-105678235D01*
%TO.C,C31*%
X151195035Y-104897600D02*
X150963365Y-104897600D01*
X151195035Y-105617600D02*
X150963365Y-105617600D01*
%TO.C,C34*%
X155960400Y-98617035D02*
X155960400Y-98385365D01*
X155240400Y-98617035D02*
X155240400Y-98385365D01*
%TO.C,C12*%
X155884200Y-106414835D02*
X155884200Y-106183165D01*
X155164200Y-106414835D02*
X155164200Y-106183165D01*
%TO.C,C7*%
X163403349Y-91421034D02*
X163239534Y-91584849D01*
X163912466Y-91930151D02*
X163748651Y-92093966D01*
%TO.C,C35*%
X152490435Y-99868400D02*
X152258765Y-99868400D01*
X152490435Y-100588400D02*
X152258765Y-100588400D01*
%TO.C,C30*%
X162285000Y-105576635D02*
X162285000Y-105344965D01*
X161565000Y-105576635D02*
X161565000Y-105344965D01*
%TO.C,C29*%
X157577200Y-103846365D02*
X157577200Y-104078035D01*
X158297200Y-103846365D02*
X158297200Y-104078035D01*
%TO.C,C28*%
X155147600Y-104027235D02*
X155147600Y-103795565D01*
X154427600Y-104027235D02*
X154427600Y-103795565D01*
%TO.C,C27*%
X156662800Y-106157765D02*
X156662800Y-106389435D01*
X157382800Y-106157765D02*
X157382800Y-106389435D01*
%TO.C,C26*%
X157338765Y-98810400D02*
X157570435Y-98810400D01*
X157338765Y-98090400D02*
X157570435Y-98090400D01*
%TO.C,C25*%
X161565000Y-102347765D02*
X161565000Y-102579435D01*
X162285000Y-102347765D02*
X162285000Y-102579435D01*
%TO.C,C24*%
X157678800Y-106157765D02*
X157678800Y-106389435D01*
X158398800Y-106157765D02*
X158398800Y-106389435D01*
%TO.C,C23*%
X163978000Y-106284765D02*
X163978000Y-106516435D01*
X164698000Y-106284765D02*
X164698000Y-106516435D01*
%TO.C,C22*%
X159856435Y-98090400D02*
X159624765Y-98090400D01*
X159856435Y-98810400D02*
X159624765Y-98810400D01*
%TO.C,C21*%
X154969800Y-98617035D02*
X154969800Y-98385365D01*
X154249800Y-98617035D02*
X154249800Y-98385365D01*
%TO.C,C20*%
X159653235Y-101290800D02*
X159421565Y-101290800D01*
X159653235Y-102010800D02*
X159421565Y-102010800D01*
%TO.C,C19*%
X160847035Y-106853400D02*
X160615365Y-106853400D01*
X160847035Y-107573400D02*
X160615365Y-107573400D01*
%TO.C,C18*%
X152258765Y-98404000D02*
X152490435Y-98404000D01*
X152258765Y-97684000D02*
X152490435Y-97684000D01*
%TO.C,C14*%
X150963365Y-104627000D02*
X151195035Y-104627000D01*
X150963365Y-103907000D02*
X151195035Y-103907000D01*
%TO.C,R47*%
X157352000Y-78318379D02*
X157352000Y-78653621D01*
X156592000Y-78318379D02*
X156592000Y-78653621D01*
%TO.C,R46*%
X156209000Y-78318379D02*
X156209000Y-78653621D01*
X155449000Y-78318379D02*
X155449000Y-78653621D01*
%TO.C,R45*%
X151891000Y-78318379D02*
X151891000Y-78653621D01*
X151131000Y-78318379D02*
X151131000Y-78653621D01*
%TO.C,R44*%
X150748000Y-78318379D02*
X150748000Y-78653621D01*
X149988000Y-78318379D02*
X149988000Y-78653621D01*
%TO.C,R43*%
X149605000Y-78318379D02*
X149605000Y-78653621D01*
X148845000Y-78318379D02*
X148845000Y-78653621D01*
%TO.C,R42*%
X177672000Y-78318379D02*
X177672000Y-78653621D01*
X176912000Y-78318379D02*
X176912000Y-78653621D01*
%TO.C,R41*%
X176529000Y-78318379D02*
X176529000Y-78653621D01*
X175769000Y-78318379D02*
X175769000Y-78653621D01*
%TO.C,R40*%
X172211000Y-78318379D02*
X172211000Y-78653621D01*
X171451000Y-78318379D02*
X171451000Y-78653621D01*
%TO.C,R13*%
X171068000Y-78318379D02*
X171068000Y-78653621D01*
X170308000Y-78318379D02*
X170308000Y-78653621D01*
%TO.C,R12*%
X169925000Y-78318379D02*
X169925000Y-78653621D01*
X169165000Y-78318379D02*
X169165000Y-78653621D01*
%TO.C,R10*%
X163930600Y-100644979D02*
X163930600Y-100980221D01*
X163170600Y-100644979D02*
X163170600Y-100980221D01*
%TO.C,R7*%
X141848821Y-111505000D02*
X141513579Y-111505000D01*
X141848821Y-110745000D02*
X141513579Y-110745000D01*
%TO.C,R5*%
X139320000Y-103736121D02*
X139320000Y-103400879D01*
X140080000Y-103736121D02*
X140080000Y-103400879D01*
%TO.C,R1*%
X141772621Y-99503500D02*
X141437379Y-99503500D01*
X141772621Y-98743500D02*
X141437379Y-98743500D01*
%TO.C,JP5*%
X147128000Y-96504000D02*
X148528000Y-96504000D01*
X149228000Y-95804000D02*
X149228000Y-95204000D01*
X148528000Y-94504000D02*
X147128000Y-94504000D01*
X146428000Y-95204000D02*
X146428000Y-95804000D01*
X146428000Y-95804000D02*
G75*
G03*
X147128000Y-96504000I700000J0D01*
G01*
X147128000Y-94504000D02*
G75*
G03*
X146428000Y-95204000I0J-700000D01*
G01*
X149228000Y-95204000D02*
G75*
G03*
X148528000Y-94504000I-700000J0D01*
G01*
X148528000Y-96504000D02*
G75*
G03*
X149228000Y-95804000I0J700000D01*
G01*
%TO.C,C15*%
X154824165Y-101303500D02*
X155055835Y-101303500D01*
X154824165Y-102023500D02*
X155055835Y-102023500D01*
%TO.C,C13*%
X183503835Y-71226000D02*
X183272165Y-71226000D01*
X183503835Y-70506000D02*
X183272165Y-70506000D01*
%TO.C,R2*%
D11*
X179050933Y-107753104D02*
X179317600Y-107372152D01*
X179508076Y-107753104D02*
X179508076Y-106953104D01*
X179203314Y-106953104D01*
X179127123Y-106991200D01*
X179089028Y-107029295D01*
X179050933Y-107105485D01*
X179050933Y-107219771D01*
X179089028Y-107295961D01*
X179127123Y-107334057D01*
X179203314Y-107372152D01*
X179508076Y-107372152D01*
X178746171Y-107029295D02*
X178708076Y-106991200D01*
X178631885Y-106953104D01*
X178441409Y-106953104D01*
X178365219Y-106991200D01*
X178327123Y-107029295D01*
X178289028Y-107105485D01*
X178289028Y-107181676D01*
X178327123Y-107295961D01*
X178784266Y-107753104D01*
X178289028Y-107753104D01*
%TO.C,R11*%
X181286085Y-109823204D02*
X181552752Y-109442252D01*
X181743228Y-109823204D02*
X181743228Y-109023204D01*
X181438466Y-109023204D01*
X181362276Y-109061300D01*
X181324180Y-109099395D01*
X181286085Y-109175585D01*
X181286085Y-109289871D01*
X181324180Y-109366061D01*
X181362276Y-109404157D01*
X181438466Y-109442252D01*
X181743228Y-109442252D01*
X180524180Y-109823204D02*
X180981323Y-109823204D01*
X180752752Y-109823204D02*
X180752752Y-109023204D01*
X180828942Y-109137490D01*
X180905133Y-109213680D01*
X180981323Y-109251776D01*
X179762276Y-109823204D02*
X180219419Y-109823204D01*
X179990847Y-109823204D02*
X179990847Y-109023204D01*
X180067038Y-109137490D01*
X180143228Y-109213680D01*
X180219419Y-109251776D01*
%TO.C,R14*%
X185146885Y-102431804D02*
X185413552Y-102050852D01*
X185604028Y-102431804D02*
X185604028Y-101631804D01*
X185299266Y-101631804D01*
X185223076Y-101669900D01*
X185184980Y-101707995D01*
X185146885Y-101784185D01*
X185146885Y-101898471D01*
X185184980Y-101974661D01*
X185223076Y-102012757D01*
X185299266Y-102050852D01*
X185604028Y-102050852D01*
X184384980Y-102431804D02*
X184842123Y-102431804D01*
X184613552Y-102431804D02*
X184613552Y-101631804D01*
X184689742Y-101746090D01*
X184765933Y-101822280D01*
X184842123Y-101860376D01*
X183699266Y-101898471D02*
X183699266Y-102431804D01*
X183889742Y-101593709D02*
X184080219Y-102165138D01*
X183584980Y-102165138D01*
%TO.C,R6*%
X184562733Y-108743704D02*
X184829400Y-108362752D01*
X185019876Y-108743704D02*
X185019876Y-107943704D01*
X184715114Y-107943704D01*
X184638923Y-107981800D01*
X184600828Y-108019895D01*
X184562733Y-108096085D01*
X184562733Y-108210371D01*
X184600828Y-108286561D01*
X184638923Y-108324657D01*
X184715114Y-108362752D01*
X185019876Y-108362752D01*
X183877019Y-107943704D02*
X184029400Y-107943704D01*
X184105590Y-107981800D01*
X184143685Y-108019895D01*
X184219876Y-108134180D01*
X184257971Y-108286561D01*
X184257971Y-108591323D01*
X184219876Y-108667514D01*
X184181780Y-108705609D01*
X184105590Y-108743704D01*
X183953209Y-108743704D01*
X183877019Y-108705609D01*
X183838923Y-108667514D01*
X183800828Y-108591323D01*
X183800828Y-108400847D01*
X183838923Y-108324657D01*
X183877019Y-108286561D01*
X183953209Y-108248466D01*
X184105590Y-108248466D01*
X184181780Y-108286561D01*
X184219876Y-108324657D01*
X184257971Y-108400847D01*
%TO.C,C69*%
X164090285Y-97059714D02*
X164128380Y-97097809D01*
X164242666Y-97135904D01*
X164318857Y-97135904D01*
X164433142Y-97097809D01*
X164509333Y-97021619D01*
X164547428Y-96945428D01*
X164585523Y-96793047D01*
X164585523Y-96678761D01*
X164547428Y-96526380D01*
X164509333Y-96450190D01*
X164433142Y-96374000D01*
X164318857Y-96335904D01*
X164242666Y-96335904D01*
X164128380Y-96374000D01*
X164090285Y-96412095D01*
X163404571Y-96335904D02*
X163556952Y-96335904D01*
X163633142Y-96374000D01*
X163671238Y-96412095D01*
X163747428Y-96526380D01*
X163785523Y-96678761D01*
X163785523Y-96983523D01*
X163747428Y-97059714D01*
X163709333Y-97097809D01*
X163633142Y-97135904D01*
X163480761Y-97135904D01*
X163404571Y-97097809D01*
X163366476Y-97059714D01*
X163328380Y-96983523D01*
X163328380Y-96793047D01*
X163366476Y-96716857D01*
X163404571Y-96678761D01*
X163480761Y-96640666D01*
X163633142Y-96640666D01*
X163709333Y-96678761D01*
X163747428Y-96716857D01*
X163785523Y-96793047D01*
X162947428Y-97135904D02*
X162795047Y-97135904D01*
X162718857Y-97097809D01*
X162680761Y-97059714D01*
X162604571Y-96945428D01*
X162566476Y-96793047D01*
X162566476Y-96488285D01*
X162604571Y-96412095D01*
X162642666Y-96374000D01*
X162718857Y-96335904D01*
X162871238Y-96335904D01*
X162947428Y-96374000D01*
X162985523Y-96412095D01*
X163023619Y-96488285D01*
X163023619Y-96678761D01*
X162985523Y-96754952D01*
X162947428Y-96793047D01*
X162871238Y-96831142D01*
X162718857Y-96831142D01*
X162642666Y-96793047D01*
X162604571Y-96754952D01*
X162566476Y-96678761D01*
%TO.C,C70*%
X165056085Y-89246375D02*
X165109960Y-89246375D01*
X165217709Y-89192500D01*
X165271584Y-89138625D01*
X165325459Y-89030876D01*
X165325459Y-88923126D01*
X165298522Y-88842314D01*
X165217709Y-88707627D01*
X165136897Y-88626815D01*
X165002210Y-88546003D01*
X164921398Y-88519065D01*
X164813648Y-88519065D01*
X164705899Y-88572940D01*
X164652024Y-88626815D01*
X164598149Y-88734564D01*
X164598149Y-88788439D01*
X164355712Y-88923126D02*
X163978589Y-89300250D01*
X164786711Y-89623499D01*
X163655340Y-89623499D02*
X163601465Y-89677374D01*
X163574528Y-89758186D01*
X163574528Y-89812061D01*
X163601465Y-89892873D01*
X163682277Y-90027560D01*
X163816964Y-90162247D01*
X163951651Y-90243059D01*
X164032464Y-90269996D01*
X164086338Y-90269996D01*
X164167151Y-90243059D01*
X164221025Y-90189184D01*
X164247963Y-90108372D01*
X164247963Y-90054497D01*
X164221025Y-89973685D01*
X164140213Y-89838998D01*
X164005526Y-89704311D01*
X163870839Y-89623499D01*
X163790027Y-89596561D01*
X163736152Y-89596561D01*
X163655340Y-89623499D01*
%TO.C,L3*%
X150450533Y-106686304D02*
X150831485Y-106686304D01*
X150831485Y-105886304D01*
X150260057Y-105886304D02*
X149764819Y-105886304D01*
X150031485Y-106191066D01*
X149917200Y-106191066D01*
X149841009Y-106229161D01*
X149802914Y-106267257D01*
X149764819Y-106343447D01*
X149764819Y-106533923D01*
X149802914Y-106610114D01*
X149841009Y-106648209D01*
X149917200Y-106686304D01*
X150145771Y-106686304D01*
X150221961Y-106648209D01*
X150260057Y-106610114D01*
%TO.C,JP4*%
X148045173Y-109991597D02*
X147641112Y-110395658D01*
X147587237Y-110503408D01*
X147587237Y-110611157D01*
X147641112Y-110718907D01*
X147694987Y-110772782D01*
X147210114Y-110287908D02*
X147775799Y-109722223D01*
X147560300Y-109506724D01*
X147479488Y-109479786D01*
X147425613Y-109479786D01*
X147344801Y-109506724D01*
X147263988Y-109587536D01*
X147237051Y-109668348D01*
X147237051Y-109722223D01*
X147263988Y-109803035D01*
X147479488Y-110018534D01*
X146779115Y-109102663D02*
X146401992Y-109479786D01*
X147129301Y-109021850D02*
X146859927Y-109560598D01*
X146509741Y-109210412D01*
%TO.C,C33*%
X156597314Y-110026514D02*
X156635409Y-109988419D01*
X156673504Y-109874133D01*
X156673504Y-109797942D01*
X156635409Y-109683657D01*
X156559219Y-109607466D01*
X156483028Y-109569371D01*
X156330647Y-109531276D01*
X156216361Y-109531276D01*
X156063980Y-109569371D01*
X155987790Y-109607466D01*
X155911600Y-109683657D01*
X155873504Y-109797942D01*
X155873504Y-109874133D01*
X155911600Y-109988419D01*
X155949695Y-110026514D01*
X155873504Y-110293180D02*
X155873504Y-110788419D01*
X156178266Y-110521752D01*
X156178266Y-110636038D01*
X156216361Y-110712228D01*
X156254457Y-110750323D01*
X156330647Y-110788419D01*
X156521123Y-110788419D01*
X156597314Y-110750323D01*
X156635409Y-110712228D01*
X156673504Y-110636038D01*
X156673504Y-110407466D01*
X156635409Y-110331276D01*
X156597314Y-110293180D01*
X155873504Y-111055085D02*
X155873504Y-111550323D01*
X156178266Y-111283657D01*
X156178266Y-111397942D01*
X156216361Y-111474133D01*
X156254457Y-111512228D01*
X156330647Y-111550323D01*
X156521123Y-111550323D01*
X156597314Y-111512228D01*
X156635409Y-111474133D01*
X156673504Y-111397942D01*
X156673504Y-111169371D01*
X156635409Y-111093180D01*
X156597314Y-111055085D01*
%TO.C,C32*%
X159848514Y-109975714D02*
X159886609Y-109937619D01*
X159924704Y-109823333D01*
X159924704Y-109747142D01*
X159886609Y-109632857D01*
X159810419Y-109556666D01*
X159734228Y-109518571D01*
X159581847Y-109480476D01*
X159467561Y-109480476D01*
X159315180Y-109518571D01*
X159238990Y-109556666D01*
X159162800Y-109632857D01*
X159124704Y-109747142D01*
X159124704Y-109823333D01*
X159162800Y-109937619D01*
X159200895Y-109975714D01*
X159124704Y-110242380D02*
X159124704Y-110737619D01*
X159429466Y-110470952D01*
X159429466Y-110585238D01*
X159467561Y-110661428D01*
X159505657Y-110699523D01*
X159581847Y-110737619D01*
X159772323Y-110737619D01*
X159848514Y-110699523D01*
X159886609Y-110661428D01*
X159924704Y-110585238D01*
X159924704Y-110356666D01*
X159886609Y-110280476D01*
X159848514Y-110242380D01*
X159200895Y-111042380D02*
X159162800Y-111080476D01*
X159124704Y-111156666D01*
X159124704Y-111347142D01*
X159162800Y-111423333D01*
X159200895Y-111461428D01*
X159277085Y-111499523D01*
X159353276Y-111499523D01*
X159467561Y-111461428D01*
X159924704Y-111004285D01*
X159924704Y-111499523D01*
%TO.C,C31*%
X149256685Y-105644914D02*
X149294780Y-105683009D01*
X149409066Y-105721104D01*
X149485257Y-105721104D01*
X149599542Y-105683009D01*
X149675733Y-105606819D01*
X149713828Y-105530628D01*
X149751923Y-105378247D01*
X149751923Y-105263961D01*
X149713828Y-105111580D01*
X149675733Y-105035390D01*
X149599542Y-104959200D01*
X149485257Y-104921104D01*
X149409066Y-104921104D01*
X149294780Y-104959200D01*
X149256685Y-104997295D01*
X148990019Y-104921104D02*
X148494780Y-104921104D01*
X148761447Y-105225866D01*
X148647161Y-105225866D01*
X148570971Y-105263961D01*
X148532876Y-105302057D01*
X148494780Y-105378247D01*
X148494780Y-105568723D01*
X148532876Y-105644914D01*
X148570971Y-105683009D01*
X148647161Y-105721104D01*
X148875733Y-105721104D01*
X148951923Y-105683009D01*
X148990019Y-105644914D01*
X147732876Y-105721104D02*
X148190019Y-105721104D01*
X147961447Y-105721104D02*
X147961447Y-104921104D01*
X148037638Y-105035390D01*
X148113828Y-105111580D01*
X148190019Y-105149676D01*
%TO.C,C34*%
X155936914Y-94837314D02*
X155975009Y-94799219D01*
X156013104Y-94684933D01*
X156013104Y-94608742D01*
X155975009Y-94494457D01*
X155898819Y-94418266D01*
X155822628Y-94380171D01*
X155670247Y-94342076D01*
X155555961Y-94342076D01*
X155403580Y-94380171D01*
X155327390Y-94418266D01*
X155251200Y-94494457D01*
X155213104Y-94608742D01*
X155213104Y-94684933D01*
X155251200Y-94799219D01*
X155289295Y-94837314D01*
X155213104Y-95103980D02*
X155213104Y-95599219D01*
X155517866Y-95332552D01*
X155517866Y-95446838D01*
X155555961Y-95523028D01*
X155594057Y-95561123D01*
X155670247Y-95599219D01*
X155860723Y-95599219D01*
X155936914Y-95561123D01*
X155975009Y-95523028D01*
X156013104Y-95446838D01*
X156013104Y-95218266D01*
X155975009Y-95142076D01*
X155936914Y-95103980D01*
X155479771Y-96284933D02*
X156013104Y-96284933D01*
X155175009Y-96094457D02*
X155746438Y-95903980D01*
X155746438Y-96399219D01*
%TO.C,C12*%
X155886114Y-112414114D02*
X155924209Y-112376019D01*
X155962304Y-112261733D01*
X155962304Y-112185542D01*
X155924209Y-112071257D01*
X155848019Y-111995066D01*
X155771828Y-111956971D01*
X155619447Y-111918876D01*
X155505161Y-111918876D01*
X155352780Y-111956971D01*
X155276590Y-111995066D01*
X155200400Y-112071257D01*
X155162304Y-112185542D01*
X155162304Y-112261733D01*
X155200400Y-112376019D01*
X155238495Y-112414114D01*
X155962304Y-113176019D02*
X155962304Y-112718876D01*
X155962304Y-112947447D02*
X155162304Y-112947447D01*
X155276590Y-112871257D01*
X155352780Y-112795066D01*
X155390876Y-112718876D01*
X155238495Y-113480780D02*
X155200400Y-113518876D01*
X155162304Y-113595066D01*
X155162304Y-113785542D01*
X155200400Y-113861733D01*
X155238495Y-113899828D01*
X155314685Y-113937923D01*
X155390876Y-113937923D01*
X155505161Y-113899828D01*
X155962304Y-113442685D01*
X155962304Y-113937923D01*
%TO.C,C7*%
X165345511Y-90531749D02*
X165399386Y-90531749D01*
X165507135Y-90477874D01*
X165561010Y-90424000D01*
X165614885Y-90316250D01*
X165614885Y-90208500D01*
X165587948Y-90127688D01*
X165507135Y-89993001D01*
X165426323Y-89912189D01*
X165291636Y-89831377D01*
X165210824Y-89804439D01*
X165103074Y-89804439D01*
X164995325Y-89858314D01*
X164941450Y-89912189D01*
X164887575Y-90019938D01*
X164887575Y-90073813D01*
X164645138Y-90208500D02*
X164268015Y-90585624D01*
X165076137Y-90908873D01*
%TO.C,C35*%
X148697885Y-100564914D02*
X148735980Y-100603009D01*
X148850266Y-100641104D01*
X148926457Y-100641104D01*
X149040742Y-100603009D01*
X149116933Y-100526819D01*
X149155028Y-100450628D01*
X149193123Y-100298247D01*
X149193123Y-100183961D01*
X149155028Y-100031580D01*
X149116933Y-99955390D01*
X149040742Y-99879200D01*
X148926457Y-99841104D01*
X148850266Y-99841104D01*
X148735980Y-99879200D01*
X148697885Y-99917295D01*
X148431219Y-99841104D02*
X147935980Y-99841104D01*
X148202647Y-100145866D01*
X148088361Y-100145866D01*
X148012171Y-100183961D01*
X147974076Y-100222057D01*
X147935980Y-100298247D01*
X147935980Y-100488723D01*
X147974076Y-100564914D01*
X148012171Y-100603009D01*
X148088361Y-100641104D01*
X148316933Y-100641104D01*
X148393123Y-100603009D01*
X148431219Y-100564914D01*
X147212171Y-99841104D02*
X147593123Y-99841104D01*
X147631219Y-100222057D01*
X147593123Y-100183961D01*
X147516933Y-100145866D01*
X147326457Y-100145866D01*
X147250266Y-100183961D01*
X147212171Y-100222057D01*
X147174076Y-100298247D01*
X147174076Y-100488723D01*
X147212171Y-100564914D01*
X147250266Y-100603009D01*
X147326457Y-100641104D01*
X147516933Y-100641104D01*
X147593123Y-100603009D01*
X147631219Y-100564914D01*
%TO.C,C30*%
X162083714Y-110839314D02*
X162121809Y-110801219D01*
X162159904Y-110686933D01*
X162159904Y-110610742D01*
X162121809Y-110496457D01*
X162045619Y-110420266D01*
X161969428Y-110382171D01*
X161817047Y-110344076D01*
X161702761Y-110344076D01*
X161550380Y-110382171D01*
X161474190Y-110420266D01*
X161398000Y-110496457D01*
X161359904Y-110610742D01*
X161359904Y-110686933D01*
X161398000Y-110801219D01*
X161436095Y-110839314D01*
X161359904Y-111105980D02*
X161359904Y-111601219D01*
X161664666Y-111334552D01*
X161664666Y-111448838D01*
X161702761Y-111525028D01*
X161740857Y-111563123D01*
X161817047Y-111601219D01*
X162007523Y-111601219D01*
X162083714Y-111563123D01*
X162121809Y-111525028D01*
X162159904Y-111448838D01*
X162159904Y-111220266D01*
X162121809Y-111144076D01*
X162083714Y-111105980D01*
X161359904Y-112096457D02*
X161359904Y-112172647D01*
X161398000Y-112248838D01*
X161436095Y-112286933D01*
X161512285Y-112325028D01*
X161664666Y-112363123D01*
X161855142Y-112363123D01*
X162007523Y-112325028D01*
X162083714Y-112286933D01*
X162121809Y-112248838D01*
X162159904Y-112172647D01*
X162159904Y-112096457D01*
X162121809Y-112020266D01*
X162083714Y-111982171D01*
X162007523Y-111944076D01*
X161855142Y-111905980D01*
X161664666Y-111905980D01*
X161512285Y-111944076D01*
X161436095Y-111982171D01*
X161398000Y-112020266D01*
X161359904Y-112096457D01*
%TO.C,C29*%
X158451514Y-109975714D02*
X158489609Y-109937619D01*
X158527704Y-109823333D01*
X158527704Y-109747142D01*
X158489609Y-109632857D01*
X158413419Y-109556666D01*
X158337228Y-109518571D01*
X158184847Y-109480476D01*
X158070561Y-109480476D01*
X157918180Y-109518571D01*
X157841990Y-109556666D01*
X157765800Y-109632857D01*
X157727704Y-109747142D01*
X157727704Y-109823333D01*
X157765800Y-109937619D01*
X157803895Y-109975714D01*
X157803895Y-110280476D02*
X157765800Y-110318571D01*
X157727704Y-110394761D01*
X157727704Y-110585238D01*
X157765800Y-110661428D01*
X157803895Y-110699523D01*
X157880085Y-110737619D01*
X157956276Y-110737619D01*
X158070561Y-110699523D01*
X158527704Y-110242380D01*
X158527704Y-110737619D01*
X158527704Y-111118571D02*
X158527704Y-111270952D01*
X158489609Y-111347142D01*
X158451514Y-111385238D01*
X158337228Y-111461428D01*
X158184847Y-111499523D01*
X157880085Y-111499523D01*
X157803895Y-111461428D01*
X157765800Y-111423333D01*
X157727704Y-111347142D01*
X157727704Y-111194761D01*
X157765800Y-111118571D01*
X157803895Y-111080476D01*
X157880085Y-111042380D01*
X158070561Y-111042380D01*
X158146752Y-111080476D01*
X158184847Y-111118571D01*
X158222942Y-111194761D01*
X158222942Y-111347142D01*
X158184847Y-111423333D01*
X158146752Y-111461428D01*
X158070561Y-111499523D01*
%TO.C,C28*%
X155073314Y-110026514D02*
X155111409Y-109988419D01*
X155149504Y-109874133D01*
X155149504Y-109797942D01*
X155111409Y-109683657D01*
X155035219Y-109607466D01*
X154959028Y-109569371D01*
X154806647Y-109531276D01*
X154692361Y-109531276D01*
X154539980Y-109569371D01*
X154463790Y-109607466D01*
X154387600Y-109683657D01*
X154349504Y-109797942D01*
X154349504Y-109874133D01*
X154387600Y-109988419D01*
X154425695Y-110026514D01*
X154425695Y-110331276D02*
X154387600Y-110369371D01*
X154349504Y-110445561D01*
X154349504Y-110636038D01*
X154387600Y-110712228D01*
X154425695Y-110750323D01*
X154501885Y-110788419D01*
X154578076Y-110788419D01*
X154692361Y-110750323D01*
X155149504Y-110293180D01*
X155149504Y-110788419D01*
X154692361Y-111245561D02*
X154654266Y-111169371D01*
X154616171Y-111131276D01*
X154539980Y-111093180D01*
X154501885Y-111093180D01*
X154425695Y-111131276D01*
X154387600Y-111169371D01*
X154349504Y-111245561D01*
X154349504Y-111397942D01*
X154387600Y-111474133D01*
X154425695Y-111512228D01*
X154501885Y-111550323D01*
X154539980Y-111550323D01*
X154616171Y-111512228D01*
X154654266Y-111474133D01*
X154692361Y-111397942D01*
X154692361Y-111245561D01*
X154730457Y-111169371D01*
X154768552Y-111131276D01*
X154844742Y-111093180D01*
X154997123Y-111093180D01*
X155073314Y-111131276D01*
X155111409Y-111169371D01*
X155149504Y-111245561D01*
X155149504Y-111397942D01*
X155111409Y-111474133D01*
X155073314Y-111512228D01*
X154997123Y-111550323D01*
X154844742Y-111550323D01*
X154768552Y-111512228D01*
X154730457Y-111474133D01*
X154692361Y-111397942D01*
%TO.C,C27*%
X157257714Y-112414114D02*
X157295809Y-112376019D01*
X157333904Y-112261733D01*
X157333904Y-112185542D01*
X157295809Y-112071257D01*
X157219619Y-111995066D01*
X157143428Y-111956971D01*
X156991047Y-111918876D01*
X156876761Y-111918876D01*
X156724380Y-111956971D01*
X156648190Y-111995066D01*
X156572000Y-112071257D01*
X156533904Y-112185542D01*
X156533904Y-112261733D01*
X156572000Y-112376019D01*
X156610095Y-112414114D01*
X156610095Y-112718876D02*
X156572000Y-112756971D01*
X156533904Y-112833161D01*
X156533904Y-113023638D01*
X156572000Y-113099828D01*
X156610095Y-113137923D01*
X156686285Y-113176019D01*
X156762476Y-113176019D01*
X156876761Y-113137923D01*
X157333904Y-112680780D01*
X157333904Y-113176019D01*
X156533904Y-113442685D02*
X156533904Y-113976019D01*
X157333904Y-113633161D01*
%TO.C,C26*%
X157994285Y-95129314D02*
X158032380Y-95167409D01*
X158146666Y-95205504D01*
X158222857Y-95205504D01*
X158337142Y-95167409D01*
X158413333Y-95091219D01*
X158451428Y-95015028D01*
X158489523Y-94862647D01*
X158489523Y-94748361D01*
X158451428Y-94595980D01*
X158413333Y-94519790D01*
X158337142Y-94443600D01*
X158222857Y-94405504D01*
X158146666Y-94405504D01*
X158032380Y-94443600D01*
X157994285Y-94481695D01*
X157689523Y-94481695D02*
X157651428Y-94443600D01*
X157575238Y-94405504D01*
X157384761Y-94405504D01*
X157308571Y-94443600D01*
X157270476Y-94481695D01*
X157232380Y-94557885D01*
X157232380Y-94634076D01*
X157270476Y-94748361D01*
X157727619Y-95205504D01*
X157232380Y-95205504D01*
X156546666Y-94405504D02*
X156699047Y-94405504D01*
X156775238Y-94443600D01*
X156813333Y-94481695D01*
X156889523Y-94595980D01*
X156927619Y-94748361D01*
X156927619Y-95053123D01*
X156889523Y-95129314D01*
X156851428Y-95167409D01*
X156775238Y-95205504D01*
X156622857Y-95205504D01*
X156546666Y-95167409D01*
X156508571Y-95129314D01*
X156470476Y-95053123D01*
X156470476Y-94862647D01*
X156508571Y-94786457D01*
X156546666Y-94748361D01*
X156622857Y-94710266D01*
X156775238Y-94710266D01*
X156851428Y-94748361D01*
X156889523Y-94786457D01*
X156927619Y-94862647D01*
%TO.C,C25*%
X170008485Y-102901714D02*
X170046580Y-102939809D01*
X170160866Y-102977904D01*
X170237057Y-102977904D01*
X170351342Y-102939809D01*
X170427533Y-102863619D01*
X170465628Y-102787428D01*
X170503723Y-102635047D01*
X170503723Y-102520761D01*
X170465628Y-102368380D01*
X170427533Y-102292190D01*
X170351342Y-102216000D01*
X170237057Y-102177904D01*
X170160866Y-102177904D01*
X170046580Y-102216000D01*
X170008485Y-102254095D01*
X169703723Y-102254095D02*
X169665628Y-102216000D01*
X169589438Y-102177904D01*
X169398961Y-102177904D01*
X169322771Y-102216000D01*
X169284676Y-102254095D01*
X169246580Y-102330285D01*
X169246580Y-102406476D01*
X169284676Y-102520761D01*
X169741819Y-102977904D01*
X169246580Y-102977904D01*
X168522771Y-102177904D02*
X168903723Y-102177904D01*
X168941819Y-102558857D01*
X168903723Y-102520761D01*
X168827533Y-102482666D01*
X168637057Y-102482666D01*
X168560866Y-102520761D01*
X168522771Y-102558857D01*
X168484676Y-102635047D01*
X168484676Y-102825523D01*
X168522771Y-102901714D01*
X168560866Y-102939809D01*
X168637057Y-102977904D01*
X168827533Y-102977904D01*
X168903723Y-102939809D01*
X168941819Y-102901714D01*
%TO.C,C24*%
X158553114Y-112236314D02*
X158591209Y-112198219D01*
X158629304Y-112083933D01*
X158629304Y-112007742D01*
X158591209Y-111893457D01*
X158515019Y-111817266D01*
X158438828Y-111779171D01*
X158286447Y-111741076D01*
X158172161Y-111741076D01*
X158019780Y-111779171D01*
X157943590Y-111817266D01*
X157867400Y-111893457D01*
X157829304Y-112007742D01*
X157829304Y-112083933D01*
X157867400Y-112198219D01*
X157905495Y-112236314D01*
X157905495Y-112541076D02*
X157867400Y-112579171D01*
X157829304Y-112655361D01*
X157829304Y-112845838D01*
X157867400Y-112922028D01*
X157905495Y-112960123D01*
X157981685Y-112998219D01*
X158057876Y-112998219D01*
X158172161Y-112960123D01*
X158629304Y-112502980D01*
X158629304Y-112998219D01*
X158095971Y-113683933D02*
X158629304Y-113683933D01*
X157791209Y-113493457D02*
X158362638Y-113302980D01*
X158362638Y-113798219D01*
%TO.C,C23*%
X164623714Y-110128114D02*
X164661809Y-110090019D01*
X164699904Y-109975733D01*
X164699904Y-109899542D01*
X164661809Y-109785257D01*
X164585619Y-109709066D01*
X164509428Y-109670971D01*
X164357047Y-109632876D01*
X164242761Y-109632876D01*
X164090380Y-109670971D01*
X164014190Y-109709066D01*
X163938000Y-109785257D01*
X163899904Y-109899542D01*
X163899904Y-109975733D01*
X163938000Y-110090019D01*
X163976095Y-110128114D01*
X163976095Y-110432876D02*
X163938000Y-110470971D01*
X163899904Y-110547161D01*
X163899904Y-110737638D01*
X163938000Y-110813828D01*
X163976095Y-110851923D01*
X164052285Y-110890019D01*
X164128476Y-110890019D01*
X164242761Y-110851923D01*
X164699904Y-110394780D01*
X164699904Y-110890019D01*
X163899904Y-111156685D02*
X163899904Y-111651923D01*
X164204666Y-111385257D01*
X164204666Y-111499542D01*
X164242761Y-111575733D01*
X164280857Y-111613828D01*
X164357047Y-111651923D01*
X164547523Y-111651923D01*
X164623714Y-111613828D01*
X164661809Y-111575733D01*
X164699904Y-111499542D01*
X164699904Y-111270971D01*
X164661809Y-111194780D01*
X164623714Y-111156685D01*
%TO.C,C22*%
X160229485Y-96221514D02*
X160267580Y-96259609D01*
X160381866Y-96297704D01*
X160458057Y-96297704D01*
X160572342Y-96259609D01*
X160648533Y-96183419D01*
X160686628Y-96107228D01*
X160724723Y-95954847D01*
X160724723Y-95840561D01*
X160686628Y-95688180D01*
X160648533Y-95611990D01*
X160572342Y-95535800D01*
X160458057Y-95497704D01*
X160381866Y-95497704D01*
X160267580Y-95535800D01*
X160229485Y-95573895D01*
X159924723Y-95573895D02*
X159886628Y-95535800D01*
X159810438Y-95497704D01*
X159619961Y-95497704D01*
X159543771Y-95535800D01*
X159505676Y-95573895D01*
X159467580Y-95650085D01*
X159467580Y-95726276D01*
X159505676Y-95840561D01*
X159962819Y-96297704D01*
X159467580Y-96297704D01*
X159162819Y-95573895D02*
X159124723Y-95535800D01*
X159048533Y-95497704D01*
X158858057Y-95497704D01*
X158781866Y-95535800D01*
X158743771Y-95573895D01*
X158705676Y-95650085D01*
X158705676Y-95726276D01*
X158743771Y-95840561D01*
X159200914Y-96297704D01*
X158705676Y-96297704D01*
%TO.C,C21*%
X154870114Y-94837314D02*
X154908209Y-94799219D01*
X154946304Y-94684933D01*
X154946304Y-94608742D01*
X154908209Y-94494457D01*
X154832019Y-94418266D01*
X154755828Y-94380171D01*
X154603447Y-94342076D01*
X154489161Y-94342076D01*
X154336780Y-94380171D01*
X154260590Y-94418266D01*
X154184400Y-94494457D01*
X154146304Y-94608742D01*
X154146304Y-94684933D01*
X154184400Y-94799219D01*
X154222495Y-94837314D01*
X154222495Y-95142076D02*
X154184400Y-95180171D01*
X154146304Y-95256361D01*
X154146304Y-95446838D01*
X154184400Y-95523028D01*
X154222495Y-95561123D01*
X154298685Y-95599219D01*
X154374876Y-95599219D01*
X154489161Y-95561123D01*
X154946304Y-95103980D01*
X154946304Y-95599219D01*
X154946304Y-96361123D02*
X154946304Y-95903980D01*
X154946304Y-96132552D02*
X154146304Y-96132552D01*
X154260590Y-96056361D01*
X154336780Y-95980171D01*
X154374876Y-95903980D01*
%TO.C,C20*%
X170033885Y-101885714D02*
X170071980Y-101923809D01*
X170186266Y-101961904D01*
X170262457Y-101961904D01*
X170376742Y-101923809D01*
X170452933Y-101847619D01*
X170491028Y-101771428D01*
X170529123Y-101619047D01*
X170529123Y-101504761D01*
X170491028Y-101352380D01*
X170452933Y-101276190D01*
X170376742Y-101200000D01*
X170262457Y-101161904D01*
X170186266Y-101161904D01*
X170071980Y-101200000D01*
X170033885Y-101238095D01*
X169729123Y-101238095D02*
X169691028Y-101200000D01*
X169614838Y-101161904D01*
X169424361Y-101161904D01*
X169348171Y-101200000D01*
X169310076Y-101238095D01*
X169271980Y-101314285D01*
X169271980Y-101390476D01*
X169310076Y-101504761D01*
X169767219Y-101961904D01*
X169271980Y-101961904D01*
X168776742Y-101161904D02*
X168700552Y-101161904D01*
X168624361Y-101200000D01*
X168586266Y-101238095D01*
X168548171Y-101314285D01*
X168510076Y-101466666D01*
X168510076Y-101657142D01*
X168548171Y-101809523D01*
X168586266Y-101885714D01*
X168624361Y-101923809D01*
X168700552Y-101961904D01*
X168776742Y-101961904D01*
X168852933Y-101923809D01*
X168891028Y-101885714D01*
X168929123Y-101809523D01*
X168967219Y-101657142D01*
X168967219Y-101466666D01*
X168929123Y-101314285D01*
X168891028Y-101238095D01*
X168852933Y-101200000D01*
X168776742Y-101161904D01*
%TO.C,C19*%
X160991514Y-109975714D02*
X161029609Y-109937619D01*
X161067704Y-109823333D01*
X161067704Y-109747142D01*
X161029609Y-109632857D01*
X160953419Y-109556666D01*
X160877228Y-109518571D01*
X160724847Y-109480476D01*
X160610561Y-109480476D01*
X160458180Y-109518571D01*
X160381990Y-109556666D01*
X160305800Y-109632857D01*
X160267704Y-109747142D01*
X160267704Y-109823333D01*
X160305800Y-109937619D01*
X160343895Y-109975714D01*
X161067704Y-110737619D02*
X161067704Y-110280476D01*
X161067704Y-110509047D02*
X160267704Y-110509047D01*
X160381990Y-110432857D01*
X160458180Y-110356666D01*
X160496276Y-110280476D01*
X161067704Y-111118571D02*
X161067704Y-111270952D01*
X161029609Y-111347142D01*
X160991514Y-111385238D01*
X160877228Y-111461428D01*
X160724847Y-111499523D01*
X160420085Y-111499523D01*
X160343895Y-111461428D01*
X160305800Y-111423333D01*
X160267704Y-111347142D01*
X160267704Y-111194761D01*
X160305800Y-111118571D01*
X160343895Y-111080476D01*
X160420085Y-111042380D01*
X160610561Y-111042380D01*
X160686752Y-111080476D01*
X160724847Y-111118571D01*
X160762942Y-111194761D01*
X160762942Y-111347142D01*
X160724847Y-111423333D01*
X160686752Y-111461428D01*
X160610561Y-111499523D01*
%TO.C,C18*%
X148748685Y-98380514D02*
X148786780Y-98418609D01*
X148901066Y-98456704D01*
X148977257Y-98456704D01*
X149091542Y-98418609D01*
X149167733Y-98342419D01*
X149205828Y-98266228D01*
X149243923Y-98113847D01*
X149243923Y-97999561D01*
X149205828Y-97847180D01*
X149167733Y-97770990D01*
X149091542Y-97694800D01*
X148977257Y-97656704D01*
X148901066Y-97656704D01*
X148786780Y-97694800D01*
X148748685Y-97732895D01*
X147986780Y-98456704D02*
X148443923Y-98456704D01*
X148215352Y-98456704D02*
X148215352Y-97656704D01*
X148291542Y-97770990D01*
X148367733Y-97847180D01*
X148443923Y-97885276D01*
X147529638Y-97999561D02*
X147605828Y-97961466D01*
X147643923Y-97923371D01*
X147682019Y-97847180D01*
X147682019Y-97809085D01*
X147643923Y-97732895D01*
X147605828Y-97694800D01*
X147529638Y-97656704D01*
X147377257Y-97656704D01*
X147301066Y-97694800D01*
X147262971Y-97732895D01*
X147224876Y-97809085D01*
X147224876Y-97847180D01*
X147262971Y-97923371D01*
X147301066Y-97961466D01*
X147377257Y-97999561D01*
X147529638Y-97999561D01*
X147605828Y-98037657D01*
X147643923Y-98075752D01*
X147682019Y-98151942D01*
X147682019Y-98304323D01*
X147643923Y-98380514D01*
X147605828Y-98418609D01*
X147529638Y-98456704D01*
X147377257Y-98456704D01*
X147301066Y-98418609D01*
X147262971Y-98380514D01*
X147224876Y-98304323D01*
X147224876Y-98151942D01*
X147262971Y-98075752D01*
X147301066Y-98037657D01*
X147377257Y-97999561D01*
%TO.C,C14*%
X148901085Y-104578114D02*
X148939180Y-104616209D01*
X149053466Y-104654304D01*
X149129657Y-104654304D01*
X149243942Y-104616209D01*
X149320133Y-104540019D01*
X149358228Y-104463828D01*
X149396323Y-104311447D01*
X149396323Y-104197161D01*
X149358228Y-104044780D01*
X149320133Y-103968590D01*
X149243942Y-103892400D01*
X149129657Y-103854304D01*
X149053466Y-103854304D01*
X148939180Y-103892400D01*
X148901085Y-103930495D01*
X148139180Y-104654304D02*
X148596323Y-104654304D01*
X148367752Y-104654304D02*
X148367752Y-103854304D01*
X148443942Y-103968590D01*
X148520133Y-104044780D01*
X148596323Y-104082876D01*
X147453466Y-104120971D02*
X147453466Y-104654304D01*
X147643942Y-103816209D02*
X147834419Y-104387638D01*
X147339180Y-104387638D01*
%TO.C,R47*%
X157333904Y-80892714D02*
X156952952Y-80626047D01*
X157333904Y-80435571D02*
X156533904Y-80435571D01*
X156533904Y-80740333D01*
X156572000Y-80816523D01*
X156610095Y-80854619D01*
X156686285Y-80892714D01*
X156800571Y-80892714D01*
X156876761Y-80854619D01*
X156914857Y-80816523D01*
X156952952Y-80740333D01*
X156952952Y-80435571D01*
X156800571Y-81578428D02*
X157333904Y-81578428D01*
X156495809Y-81387952D02*
X157067238Y-81197476D01*
X157067238Y-81692714D01*
X156533904Y-81921285D02*
X156533904Y-82454619D01*
X157333904Y-82111761D01*
%TO.C,R46*%
X156190904Y-80892714D02*
X155809952Y-80626047D01*
X156190904Y-80435571D02*
X155390904Y-80435571D01*
X155390904Y-80740333D01*
X155429000Y-80816523D01*
X155467095Y-80854619D01*
X155543285Y-80892714D01*
X155657571Y-80892714D01*
X155733761Y-80854619D01*
X155771857Y-80816523D01*
X155809952Y-80740333D01*
X155809952Y-80435571D01*
X155657571Y-81578428D02*
X156190904Y-81578428D01*
X155352809Y-81387952D02*
X155924238Y-81197476D01*
X155924238Y-81692714D01*
X155390904Y-82340333D02*
X155390904Y-82187952D01*
X155429000Y-82111761D01*
X155467095Y-82073666D01*
X155581380Y-81997476D01*
X155733761Y-81959380D01*
X156038523Y-81959380D01*
X156114714Y-81997476D01*
X156152809Y-82035571D01*
X156190904Y-82111761D01*
X156190904Y-82264142D01*
X156152809Y-82340333D01*
X156114714Y-82378428D01*
X156038523Y-82416523D01*
X155848047Y-82416523D01*
X155771857Y-82378428D01*
X155733761Y-82340333D01*
X155695666Y-82264142D01*
X155695666Y-82111761D01*
X155733761Y-82035571D01*
X155771857Y-81997476D01*
X155848047Y-81959380D01*
%TO.C,R45*%
X151872904Y-80892714D02*
X151491952Y-80626047D01*
X151872904Y-80435571D02*
X151072904Y-80435571D01*
X151072904Y-80740333D01*
X151111000Y-80816523D01*
X151149095Y-80854619D01*
X151225285Y-80892714D01*
X151339571Y-80892714D01*
X151415761Y-80854619D01*
X151453857Y-80816523D01*
X151491952Y-80740333D01*
X151491952Y-80435571D01*
X151339571Y-81578428D02*
X151872904Y-81578428D01*
X151034809Y-81387952D02*
X151606238Y-81197476D01*
X151606238Y-81692714D01*
X151072904Y-82378428D02*
X151072904Y-81997476D01*
X151453857Y-81959380D01*
X151415761Y-81997476D01*
X151377666Y-82073666D01*
X151377666Y-82264142D01*
X151415761Y-82340333D01*
X151453857Y-82378428D01*
X151530047Y-82416523D01*
X151720523Y-82416523D01*
X151796714Y-82378428D01*
X151834809Y-82340333D01*
X151872904Y-82264142D01*
X151872904Y-82073666D01*
X151834809Y-81997476D01*
X151796714Y-81959380D01*
%TO.C,R44*%
X150729904Y-80892714D02*
X150348952Y-80626047D01*
X150729904Y-80435571D02*
X149929904Y-80435571D01*
X149929904Y-80740333D01*
X149968000Y-80816523D01*
X150006095Y-80854619D01*
X150082285Y-80892714D01*
X150196571Y-80892714D01*
X150272761Y-80854619D01*
X150310857Y-80816523D01*
X150348952Y-80740333D01*
X150348952Y-80435571D01*
X150196571Y-81578428D02*
X150729904Y-81578428D01*
X149891809Y-81387952D02*
X150463238Y-81197476D01*
X150463238Y-81692714D01*
X150196571Y-82340333D02*
X150729904Y-82340333D01*
X149891809Y-82149857D02*
X150463238Y-81959380D01*
X150463238Y-82454619D01*
%TO.C,R43*%
X149586904Y-80892714D02*
X149205952Y-80626047D01*
X149586904Y-80435571D02*
X148786904Y-80435571D01*
X148786904Y-80740333D01*
X148825000Y-80816523D01*
X148863095Y-80854619D01*
X148939285Y-80892714D01*
X149053571Y-80892714D01*
X149129761Y-80854619D01*
X149167857Y-80816523D01*
X149205952Y-80740333D01*
X149205952Y-80435571D01*
X149053571Y-81578428D02*
X149586904Y-81578428D01*
X148748809Y-81387952D02*
X149320238Y-81197476D01*
X149320238Y-81692714D01*
X148786904Y-81921285D02*
X148786904Y-82416523D01*
X149091666Y-82149857D01*
X149091666Y-82264142D01*
X149129761Y-82340333D01*
X149167857Y-82378428D01*
X149244047Y-82416523D01*
X149434523Y-82416523D01*
X149510714Y-82378428D01*
X149548809Y-82340333D01*
X149586904Y-82264142D01*
X149586904Y-82035571D01*
X149548809Y-81959380D01*
X149510714Y-81921285D01*
%TO.C,R42*%
X177653904Y-75685714D02*
X177272952Y-75419047D01*
X177653904Y-75228571D02*
X176853904Y-75228571D01*
X176853904Y-75533333D01*
X176892000Y-75609523D01*
X176930095Y-75647619D01*
X177006285Y-75685714D01*
X177120571Y-75685714D01*
X177196761Y-75647619D01*
X177234857Y-75609523D01*
X177272952Y-75533333D01*
X177272952Y-75228571D01*
X177120571Y-76371428D02*
X177653904Y-76371428D01*
X176815809Y-76180952D02*
X177387238Y-75990476D01*
X177387238Y-76485714D01*
X176930095Y-76752380D02*
X176892000Y-76790476D01*
X176853904Y-76866666D01*
X176853904Y-77057142D01*
X176892000Y-77133333D01*
X176930095Y-77171428D01*
X177006285Y-77209523D01*
X177082476Y-77209523D01*
X177196761Y-77171428D01*
X177653904Y-76714285D01*
X177653904Y-77209523D01*
%TO.C,R41*%
X176510904Y-75685714D02*
X176129952Y-75419047D01*
X176510904Y-75228571D02*
X175710904Y-75228571D01*
X175710904Y-75533333D01*
X175749000Y-75609523D01*
X175787095Y-75647619D01*
X175863285Y-75685714D01*
X175977571Y-75685714D01*
X176053761Y-75647619D01*
X176091857Y-75609523D01*
X176129952Y-75533333D01*
X176129952Y-75228571D01*
X175977571Y-76371428D02*
X176510904Y-76371428D01*
X175672809Y-76180952D02*
X176244238Y-75990476D01*
X176244238Y-76485714D01*
X176510904Y-77209523D02*
X176510904Y-76752380D01*
X176510904Y-76980952D02*
X175710904Y-76980952D01*
X175825190Y-76904761D01*
X175901380Y-76828571D01*
X175939476Y-76752380D01*
%TO.C,R40*%
X172269104Y-75685714D02*
X171888152Y-75419047D01*
X172269104Y-75228571D02*
X171469104Y-75228571D01*
X171469104Y-75533333D01*
X171507200Y-75609523D01*
X171545295Y-75647619D01*
X171621485Y-75685714D01*
X171735771Y-75685714D01*
X171811961Y-75647619D01*
X171850057Y-75609523D01*
X171888152Y-75533333D01*
X171888152Y-75228571D01*
X171735771Y-76371428D02*
X172269104Y-76371428D01*
X171431009Y-76180952D02*
X172002438Y-75990476D01*
X172002438Y-76485714D01*
X171469104Y-76942857D02*
X171469104Y-77019047D01*
X171507200Y-77095238D01*
X171545295Y-77133333D01*
X171621485Y-77171428D01*
X171773866Y-77209523D01*
X171964342Y-77209523D01*
X172116723Y-77171428D01*
X172192914Y-77133333D01*
X172231009Y-77095238D01*
X172269104Y-77019047D01*
X172269104Y-76942857D01*
X172231009Y-76866666D01*
X172192914Y-76828571D01*
X172116723Y-76790476D01*
X171964342Y-76752380D01*
X171773866Y-76752380D01*
X171621485Y-76790476D01*
X171545295Y-76828571D01*
X171507200Y-76866666D01*
X171469104Y-76942857D01*
%TO.C,R13*%
X171100704Y-75685714D02*
X170719752Y-75419047D01*
X171100704Y-75228571D02*
X170300704Y-75228571D01*
X170300704Y-75533333D01*
X170338800Y-75609523D01*
X170376895Y-75647619D01*
X170453085Y-75685714D01*
X170567371Y-75685714D01*
X170643561Y-75647619D01*
X170681657Y-75609523D01*
X170719752Y-75533333D01*
X170719752Y-75228571D01*
X171100704Y-76447619D02*
X171100704Y-75990476D01*
X171100704Y-76219047D02*
X170300704Y-76219047D01*
X170414990Y-76142857D01*
X170491180Y-76066666D01*
X170529276Y-75990476D01*
X170300704Y-76714285D02*
X170300704Y-77209523D01*
X170605466Y-76942857D01*
X170605466Y-77057142D01*
X170643561Y-77133333D01*
X170681657Y-77171428D01*
X170757847Y-77209523D01*
X170948323Y-77209523D01*
X171024514Y-77171428D01*
X171062609Y-77133333D01*
X171100704Y-77057142D01*
X171100704Y-76828571D01*
X171062609Y-76752380D01*
X171024514Y-76714285D01*
%TO.C,R12*%
X169906904Y-75685714D02*
X169525952Y-75419047D01*
X169906904Y-75228571D02*
X169106904Y-75228571D01*
X169106904Y-75533333D01*
X169145000Y-75609523D01*
X169183095Y-75647619D01*
X169259285Y-75685714D01*
X169373571Y-75685714D01*
X169449761Y-75647619D01*
X169487857Y-75609523D01*
X169525952Y-75533333D01*
X169525952Y-75228571D01*
X169906904Y-76447619D02*
X169906904Y-75990476D01*
X169906904Y-76219047D02*
X169106904Y-76219047D01*
X169221190Y-76142857D01*
X169297380Y-76066666D01*
X169335476Y-75990476D01*
X169183095Y-76752380D02*
X169145000Y-76790476D01*
X169106904Y-76866666D01*
X169106904Y-77057142D01*
X169145000Y-77133333D01*
X169183095Y-77171428D01*
X169259285Y-77209523D01*
X169335476Y-77209523D01*
X169449761Y-77171428D01*
X169906904Y-76714285D01*
X169906904Y-77209523D01*
%TO.C,R10*%
X170033885Y-100895104D02*
X170300552Y-100514152D01*
X170491028Y-100895104D02*
X170491028Y-100095104D01*
X170186266Y-100095104D01*
X170110076Y-100133200D01*
X170071980Y-100171295D01*
X170033885Y-100247485D01*
X170033885Y-100361771D01*
X170071980Y-100437961D01*
X170110076Y-100476057D01*
X170186266Y-100514152D01*
X170491028Y-100514152D01*
X169271980Y-100895104D02*
X169729123Y-100895104D01*
X169500552Y-100895104D02*
X169500552Y-100095104D01*
X169576742Y-100209390D01*
X169652933Y-100285580D01*
X169729123Y-100323676D01*
X168776742Y-100095104D02*
X168700552Y-100095104D01*
X168624361Y-100133200D01*
X168586266Y-100171295D01*
X168548171Y-100247485D01*
X168510076Y-100399866D01*
X168510076Y-100590342D01*
X168548171Y-100742723D01*
X168586266Y-100818914D01*
X168624361Y-100857009D01*
X168700552Y-100895104D01*
X168776742Y-100895104D01*
X168852933Y-100857009D01*
X168891028Y-100818914D01*
X168929123Y-100742723D01*
X168967219Y-100590342D01*
X168967219Y-100399866D01*
X168929123Y-100247485D01*
X168891028Y-100171295D01*
X168852933Y-100133200D01*
X168776742Y-100095104D01*
%TO.C,R7*%
X141814533Y-110316904D02*
X142081200Y-109935952D01*
X142271676Y-110316904D02*
X142271676Y-109516904D01*
X141966914Y-109516904D01*
X141890723Y-109555000D01*
X141852628Y-109593095D01*
X141814533Y-109669285D01*
X141814533Y-109783571D01*
X141852628Y-109859761D01*
X141890723Y-109897857D01*
X141966914Y-109935952D01*
X142271676Y-109935952D01*
X141547866Y-109516904D02*
X141014533Y-109516904D01*
X141357390Y-110316904D01*
%TO.C,R5*%
X139782533Y-102317504D02*
X140049200Y-101936552D01*
X140239676Y-102317504D02*
X140239676Y-101517504D01*
X139934914Y-101517504D01*
X139858723Y-101555600D01*
X139820628Y-101593695D01*
X139782533Y-101669885D01*
X139782533Y-101784171D01*
X139820628Y-101860361D01*
X139858723Y-101898457D01*
X139934914Y-101936552D01*
X140239676Y-101936552D01*
X139058723Y-101517504D02*
X139439676Y-101517504D01*
X139477771Y-101898457D01*
X139439676Y-101860361D01*
X139363485Y-101822266D01*
X139173009Y-101822266D01*
X139096819Y-101860361D01*
X139058723Y-101898457D01*
X139020628Y-101974647D01*
X139020628Y-102165123D01*
X139058723Y-102241314D01*
X139096819Y-102279409D01*
X139173009Y-102317504D01*
X139363485Y-102317504D01*
X139439676Y-102279409D01*
X139477771Y-102241314D01*
%TO.C,R1*%
X141674833Y-98469404D02*
X141941500Y-98088452D01*
X142131976Y-98469404D02*
X142131976Y-97669404D01*
X141827214Y-97669404D01*
X141751023Y-97707500D01*
X141712928Y-97745595D01*
X141674833Y-97821785D01*
X141674833Y-97936071D01*
X141712928Y-98012261D01*
X141751023Y-98050357D01*
X141827214Y-98088452D01*
X142131976Y-98088452D01*
X140912928Y-98469404D02*
X141370071Y-98469404D01*
X141141500Y-98469404D02*
X141141500Y-97669404D01*
X141217690Y-97783690D01*
X141293880Y-97859880D01*
X141370071Y-97897976D01*
%TO.C,JP5*%
X148545466Y-93338704D02*
X148545466Y-93910133D01*
X148583561Y-94024419D01*
X148659752Y-94100609D01*
X148774038Y-94138704D01*
X148850228Y-94138704D01*
X148164514Y-94138704D02*
X148164514Y-93338704D01*
X147859752Y-93338704D01*
X147783561Y-93376800D01*
X147745466Y-93414895D01*
X147707371Y-93491085D01*
X147707371Y-93605371D01*
X147745466Y-93681561D01*
X147783561Y-93719657D01*
X147859752Y-93757752D01*
X148164514Y-93757752D01*
X146983561Y-93338704D02*
X147364514Y-93338704D01*
X147402609Y-93719657D01*
X147364514Y-93681561D01*
X147288323Y-93643466D01*
X147097847Y-93643466D01*
X147021657Y-93681561D01*
X146983561Y-93719657D01*
X146945466Y-93795847D01*
X146945466Y-93986323D01*
X146983561Y-94062514D01*
X147021657Y-94100609D01*
X147097847Y-94138704D01*
X147288323Y-94138704D01*
X147364514Y-94100609D01*
X147402609Y-94062514D01*
%TO.C,C15*%
X148647085Y-101936514D02*
X148685180Y-101974609D01*
X148799466Y-102012704D01*
X148875657Y-102012704D01*
X148989942Y-101974609D01*
X149066133Y-101898419D01*
X149104228Y-101822228D01*
X149142323Y-101669847D01*
X149142323Y-101555561D01*
X149104228Y-101403180D01*
X149066133Y-101326990D01*
X148989942Y-101250800D01*
X148875657Y-101212704D01*
X148799466Y-101212704D01*
X148685180Y-101250800D01*
X148647085Y-101288895D01*
X147885180Y-102012704D02*
X148342323Y-102012704D01*
X148113752Y-102012704D02*
X148113752Y-101212704D01*
X148189942Y-101326990D01*
X148266133Y-101403180D01*
X148342323Y-101441276D01*
X147161371Y-101212704D02*
X147542323Y-101212704D01*
X147580419Y-101593657D01*
X147542323Y-101555561D01*
X147466133Y-101517466D01*
X147275657Y-101517466D01*
X147199466Y-101555561D01*
X147161371Y-101593657D01*
X147123276Y-101669847D01*
X147123276Y-101860323D01*
X147161371Y-101936514D01*
X147199466Y-101974609D01*
X147275657Y-102012704D01*
X147466133Y-102012704D01*
X147542323Y-101974609D01*
X147580419Y-101936514D01*
%TO.C,C13*%
X181108285Y-71151714D02*
X181146380Y-71189809D01*
X181260666Y-71227904D01*
X181336857Y-71227904D01*
X181451142Y-71189809D01*
X181527333Y-71113619D01*
X181565428Y-71037428D01*
X181603523Y-70885047D01*
X181603523Y-70770761D01*
X181565428Y-70618380D01*
X181527333Y-70542190D01*
X181451142Y-70466000D01*
X181336857Y-70427904D01*
X181260666Y-70427904D01*
X181146380Y-70466000D01*
X181108285Y-70504095D01*
X180346380Y-71227904D02*
X180803523Y-71227904D01*
X180574952Y-71227904D02*
X180574952Y-70427904D01*
X180651142Y-70542190D01*
X180727333Y-70618380D01*
X180803523Y-70656476D01*
X180079714Y-70427904D02*
X179584476Y-70427904D01*
X179851142Y-70732666D01*
X179736857Y-70732666D01*
X179660666Y-70770761D01*
X179622571Y-70808857D01*
X179584476Y-70885047D01*
X179584476Y-71075523D01*
X179622571Y-71151714D01*
X179660666Y-71189809D01*
X179736857Y-71227904D01*
X179965428Y-71227904D01*
X180041619Y-71189809D01*
X180079714Y-71151714D01*
%TD*%
M02*
