%TF.GenerationSoftware,KiCad,Pcbnew,(5.1.8-0-10_14)*%
%TF.CreationDate,2021-04-08T13:24:54+01:00*%
%TF.ProjectId,STM32MP1_TestBoard_RevB,53544d33-324d-4503-915f-54657374426f,rev?*%
%TF.SameCoordinates,Original*%
%TF.FileFunction,Paste,Top*%
%TF.FilePolarity,Positive*%
%FSLAX46Y46*%
G04 Gerber Fmt 4.6, Leading zero omitted, Abs format (unit mm)*
G04 Created by KiCad (PCBNEW (5.1.8-0-10_14)) date 2021-04-08 13:24:54*
%MOMM*%
%LPD*%
G01*
G04 APERTURE LIST*
%ADD10R,1.900000X1.350000*%
%ADD11R,1.200000X1.000000*%
%ADD12R,1.550000X1.350000*%
%ADD13R,1.170000X1.800000*%
%ADD14R,0.850000X1.100000*%
%ADD15R,0.750000X1.100000*%
%ADD16R,1.000000X1.450000*%
%ADD17C,0.400000*%
%ADD18R,1.500000X1.900000*%
%ADD19R,0.400000X1.350000*%
%ADD20R,1.060000X0.650000*%
%ADD21R,0.740000X2.400000*%
G04 APERTURE END LIST*
%TO.C,D2*%
G36*
G01*
X173540000Y-124644999D02*
X173540000Y-125545001D01*
G75*
G02*
X173290001Y-125795000I-249999J0D01*
G01*
X172639999Y-125795000D01*
G75*
G02*
X172390000Y-125545001I0J249999D01*
G01*
X172390000Y-124644999D01*
G75*
G02*
X172639999Y-124395000I249999J0D01*
G01*
X173290001Y-124395000D01*
G75*
G02*
X173540000Y-124644999I0J-249999D01*
G01*
G37*
G36*
G01*
X175590000Y-124644999D02*
X175590000Y-125545001D01*
G75*
G02*
X175340001Y-125795000I-249999J0D01*
G01*
X174689999Y-125795000D01*
G75*
G02*
X174440000Y-125545001I0J249999D01*
G01*
X174440000Y-124644999D01*
G75*
G02*
X174689999Y-124395000I249999J0D01*
G01*
X175340001Y-124395000D01*
G75*
G02*
X175590000Y-124644999I0J-249999D01*
G01*
G37*
%TD*%
D10*
%TO.C,J10*%
X171466500Y-71460000D03*
X177436500Y-71460000D03*
D11*
X180936500Y-76135000D03*
X180936500Y-72435000D03*
D12*
X180761500Y-82160000D03*
D13*
X169441500Y-81935000D03*
D14*
X171701500Y-82285000D03*
X172801500Y-82285000D03*
X173901500Y-82285000D03*
X175001500Y-82285000D03*
X176101500Y-82285000D03*
X177201500Y-82285000D03*
D15*
X170651500Y-82285000D03*
D14*
X178301500Y-82285000D03*
%TD*%
D16*
%TO.C,SW2*%
X199605000Y-80045000D03*
X199605000Y-74895000D03*
X197905000Y-74895000D03*
X197905000Y-80045000D03*
%TD*%
D17*
%TO.C,U1*%
X167131000Y-110057000D03*
X167131000Y-109257000D03*
X167131000Y-108457000D03*
X167131000Y-107657000D03*
X167131000Y-106057000D03*
X167131000Y-105257000D03*
X167131000Y-104457000D03*
X167131000Y-103657000D03*
X167131000Y-102857000D03*
X167131000Y-102057000D03*
X167131000Y-101257000D03*
X167131000Y-100457000D03*
X167131000Y-99657000D03*
X167131000Y-98057000D03*
X167131000Y-97257000D03*
X167131000Y-96457000D03*
X167131000Y-95657000D03*
X166331000Y-110057000D03*
X166331000Y-109257000D03*
X166331000Y-108457000D03*
X166331000Y-107657000D03*
X166331000Y-106857000D03*
X166331000Y-106057000D03*
X166331000Y-105257000D03*
X166331000Y-104457000D03*
X166331000Y-103657000D03*
X166331000Y-102857000D03*
X166331000Y-102057000D03*
X166331000Y-101257000D03*
X166331000Y-100457000D03*
X166331000Y-99657000D03*
X166331000Y-98857000D03*
X166331000Y-98057000D03*
X166331000Y-97257000D03*
X166331000Y-96457000D03*
X166331000Y-95657000D03*
X165531000Y-110057000D03*
X165531000Y-109257000D03*
X165531000Y-108457000D03*
X165531000Y-107657000D03*
X165531000Y-106857000D03*
X165531000Y-106057000D03*
X165531000Y-105257000D03*
X165531000Y-104457000D03*
X165531000Y-103657000D03*
X165531000Y-102857000D03*
X165531000Y-102057000D03*
X165531000Y-101257000D03*
X165531000Y-100457000D03*
X165531000Y-99657000D03*
X165531000Y-98857000D03*
X165531000Y-98057000D03*
X165531000Y-97257000D03*
X165531000Y-96457000D03*
X165531000Y-95657000D03*
X164731000Y-110057000D03*
X164731000Y-109257000D03*
X164731000Y-108457000D03*
X164731000Y-107657000D03*
X164731000Y-106857000D03*
X164731000Y-105257000D03*
X164731000Y-103657000D03*
X164731000Y-102057000D03*
X164731000Y-100457000D03*
X164731000Y-98857000D03*
X164731000Y-98057000D03*
X164731000Y-97257000D03*
X164731000Y-96457000D03*
X164731000Y-95657000D03*
X163931000Y-110057000D03*
X163931000Y-109257000D03*
X163931000Y-108457000D03*
X163931000Y-107657000D03*
X163931000Y-106857000D03*
X163931000Y-106057000D03*
X163931000Y-105257000D03*
X163931000Y-104457000D03*
X163931000Y-103657000D03*
X163931000Y-102857000D03*
X163931000Y-102057000D03*
X163931000Y-101257000D03*
X163931000Y-100457000D03*
X163931000Y-99657000D03*
X163931000Y-98857000D03*
X163931000Y-98057000D03*
X163931000Y-97257000D03*
X163931000Y-96457000D03*
X163931000Y-95657000D03*
X163131000Y-110057000D03*
X163131000Y-109257000D03*
X163131000Y-108457000D03*
X163131000Y-107657000D03*
X163131000Y-106857000D03*
X163131000Y-106057000D03*
X163131000Y-105257000D03*
X163131000Y-104457000D03*
X163131000Y-103657000D03*
X163131000Y-102857000D03*
X163131000Y-102057000D03*
X163131000Y-101257000D03*
X163131000Y-100457000D03*
X163131000Y-99657000D03*
X163131000Y-98857000D03*
X163131000Y-98057000D03*
X163131000Y-97257000D03*
X163131000Y-96457000D03*
X163131000Y-95657000D03*
X162331000Y-110057000D03*
X162331000Y-109257000D03*
X162331000Y-108457000D03*
X162331000Y-107657000D03*
X162331000Y-106857000D03*
X162331000Y-106057000D03*
X162331000Y-105257000D03*
X162331000Y-104457000D03*
X162331000Y-103657000D03*
X162331000Y-102857000D03*
X162331000Y-102057000D03*
X162331000Y-101257000D03*
X162331000Y-100457000D03*
X162331000Y-99657000D03*
X162331000Y-98857000D03*
X162331000Y-98057000D03*
X162331000Y-97257000D03*
X162331000Y-96457000D03*
X162331000Y-95657000D03*
X161531000Y-110057000D03*
X161531000Y-109257000D03*
X161531000Y-108457000D03*
X161531000Y-107657000D03*
X161531000Y-106857000D03*
X161531000Y-106057000D03*
X161531000Y-105257000D03*
X161531000Y-104457000D03*
X161531000Y-103657000D03*
X161531000Y-102857000D03*
X161531000Y-102057000D03*
X161531000Y-101257000D03*
X161531000Y-100457000D03*
X161531000Y-99657000D03*
X161531000Y-98857000D03*
X161531000Y-98057000D03*
X161531000Y-97257000D03*
X161531000Y-96457000D03*
X161531000Y-95657000D03*
X160731000Y-110057000D03*
X160731000Y-109257000D03*
X160731000Y-108457000D03*
X160731000Y-107657000D03*
X160731000Y-106857000D03*
X160731000Y-106057000D03*
X160731000Y-105257000D03*
X160731000Y-104457000D03*
X160731000Y-103657000D03*
X160731000Y-102857000D03*
X160731000Y-102057000D03*
X160731000Y-101257000D03*
X160731000Y-100457000D03*
X160731000Y-99657000D03*
X160731000Y-98857000D03*
X160731000Y-98057000D03*
X160731000Y-97257000D03*
X160731000Y-96457000D03*
X160731000Y-95657000D03*
X159931000Y-110057000D03*
X159931000Y-109257000D03*
X159931000Y-108457000D03*
X159931000Y-107657000D03*
X159931000Y-106857000D03*
X159931000Y-106057000D03*
X159931000Y-105257000D03*
X159931000Y-104457000D03*
X159931000Y-103657000D03*
X159931000Y-102857000D03*
X159931000Y-102057000D03*
X159931000Y-101257000D03*
X159931000Y-100457000D03*
X159931000Y-99657000D03*
X159931000Y-98857000D03*
X159931000Y-98057000D03*
X159931000Y-97257000D03*
X159931000Y-96457000D03*
X159931000Y-95657000D03*
X159131000Y-110057000D03*
X159131000Y-109257000D03*
X159131000Y-108457000D03*
X159131000Y-107657000D03*
X159131000Y-106857000D03*
X159131000Y-106057000D03*
X159131000Y-105257000D03*
X159131000Y-104457000D03*
X159131000Y-103657000D03*
X159131000Y-102857000D03*
X159131000Y-102057000D03*
X159131000Y-101257000D03*
X159131000Y-100457000D03*
X159131000Y-99657000D03*
X159131000Y-98857000D03*
X159131000Y-98057000D03*
X159131000Y-97257000D03*
X159131000Y-96457000D03*
X159131000Y-95657000D03*
X158331000Y-110057000D03*
X158331000Y-109257000D03*
X158331000Y-108457000D03*
X158331000Y-107657000D03*
X158331000Y-106857000D03*
X158331000Y-106057000D03*
X158331000Y-105257000D03*
X158331000Y-104457000D03*
X158331000Y-103657000D03*
X158331000Y-102857000D03*
X158331000Y-102057000D03*
X158331000Y-101257000D03*
X158331000Y-100457000D03*
X158331000Y-99657000D03*
X158331000Y-98857000D03*
X158331000Y-98057000D03*
X158331000Y-97257000D03*
X158331000Y-96457000D03*
X158331000Y-95657000D03*
X157531000Y-110057000D03*
X157531000Y-109257000D03*
X157531000Y-108457000D03*
X157531000Y-107657000D03*
X157531000Y-106857000D03*
X157531000Y-106057000D03*
X157531000Y-105257000D03*
X157531000Y-104457000D03*
X157531000Y-103657000D03*
X157531000Y-102857000D03*
X157531000Y-102057000D03*
X157531000Y-101257000D03*
X157531000Y-100457000D03*
X157531000Y-99657000D03*
X157531000Y-98857000D03*
X157531000Y-98057000D03*
X157531000Y-97257000D03*
X157531000Y-96457000D03*
X157531000Y-95657000D03*
X156731000Y-110057000D03*
X156731000Y-109257000D03*
X156731000Y-108457000D03*
X156731000Y-107657000D03*
X156731000Y-106857000D03*
X156731000Y-106057000D03*
X156731000Y-105257000D03*
X156731000Y-104457000D03*
X156731000Y-103657000D03*
X156731000Y-102857000D03*
X156731000Y-102057000D03*
X156731000Y-101257000D03*
X156731000Y-100457000D03*
X156731000Y-99657000D03*
X156731000Y-98857000D03*
X156731000Y-98057000D03*
X156731000Y-97257000D03*
X156731000Y-96457000D03*
X156731000Y-95657000D03*
X155931000Y-110057000D03*
X155931000Y-109257000D03*
X155931000Y-108457000D03*
X155931000Y-107657000D03*
X155931000Y-106857000D03*
X155931000Y-106057000D03*
X155931000Y-105257000D03*
X155931000Y-104457000D03*
X155931000Y-103657000D03*
X155931000Y-102857000D03*
X155931000Y-102057000D03*
X155931000Y-101257000D03*
X155931000Y-100457000D03*
X155931000Y-99657000D03*
X155931000Y-98857000D03*
X155931000Y-98057000D03*
X155931000Y-97257000D03*
X155931000Y-96457000D03*
X155931000Y-95657000D03*
X155131000Y-110057000D03*
X155131000Y-109257000D03*
X155131000Y-108457000D03*
X155131000Y-107657000D03*
X155131000Y-106857000D03*
X155131000Y-106057000D03*
X155131000Y-105257000D03*
X155131000Y-104457000D03*
X155131000Y-103657000D03*
X155131000Y-102857000D03*
X155131000Y-102057000D03*
X155131000Y-101257000D03*
X155131000Y-100457000D03*
X155131000Y-99657000D03*
X155131000Y-98857000D03*
X155131000Y-98057000D03*
X155131000Y-97257000D03*
X155131000Y-96457000D03*
X155131000Y-95657000D03*
X154331000Y-110057000D03*
X154331000Y-109257000D03*
X154331000Y-108457000D03*
X154331000Y-107657000D03*
X154331000Y-106857000D03*
X154331000Y-106057000D03*
X154331000Y-105257000D03*
X154331000Y-104457000D03*
X154331000Y-103657000D03*
X154331000Y-102857000D03*
X154331000Y-102057000D03*
X154331000Y-101257000D03*
X154331000Y-100457000D03*
X154331000Y-99657000D03*
X154331000Y-98857000D03*
X154331000Y-98057000D03*
X154331000Y-97257000D03*
X154331000Y-96457000D03*
X154331000Y-95657000D03*
X153531000Y-110057000D03*
X153531000Y-109257000D03*
X153531000Y-108457000D03*
X153531000Y-107657000D03*
X153531000Y-106857000D03*
X153531000Y-106057000D03*
X153531000Y-105257000D03*
X153531000Y-104457000D03*
X153531000Y-103657000D03*
X153531000Y-102857000D03*
X153531000Y-102057000D03*
X153531000Y-101257000D03*
X153531000Y-100457000D03*
X153531000Y-99657000D03*
X153531000Y-98857000D03*
X153531000Y-98057000D03*
X153531000Y-97257000D03*
X153531000Y-96457000D03*
X153531000Y-95657000D03*
X152731000Y-110057000D03*
X152731000Y-109257000D03*
X152731000Y-108457000D03*
X152731000Y-107657000D03*
X152731000Y-106857000D03*
X152731000Y-106057000D03*
X152731000Y-105257000D03*
X152731000Y-104457000D03*
X152731000Y-103657000D03*
X152731000Y-102857000D03*
X152731000Y-102057000D03*
X152731000Y-101257000D03*
X152731000Y-100457000D03*
X152731000Y-99657000D03*
X152731000Y-98857000D03*
X152731000Y-98057000D03*
X152731000Y-97257000D03*
X152731000Y-96457000D03*
X152731000Y-95657000D03*
%TD*%
%TO.C,D4*%
G36*
G01*
X173540000Y-131629999D02*
X173540000Y-132530001D01*
G75*
G02*
X173290001Y-132780000I-249999J0D01*
G01*
X172639999Y-132780000D01*
G75*
G02*
X172390000Y-132530001I0J249999D01*
G01*
X172390000Y-131629999D01*
G75*
G02*
X172639999Y-131380000I249999J0D01*
G01*
X173290001Y-131380000D01*
G75*
G02*
X173540000Y-131629999I0J-249999D01*
G01*
G37*
G36*
G01*
X175590000Y-131629999D02*
X175590000Y-132530001D01*
G75*
G02*
X175340001Y-132780000I-249999J0D01*
G01*
X174689999Y-132780000D01*
G75*
G02*
X174440000Y-132530001I0J249999D01*
G01*
X174440000Y-131629999D01*
G75*
G02*
X174689999Y-131380000I249999J0D01*
G01*
X175340001Y-131380000D01*
G75*
G02*
X175590000Y-131629999I0J-249999D01*
G01*
G37*
%TD*%
%TO.C,D3*%
G36*
G01*
X173540000Y-128073999D02*
X173540000Y-128974001D01*
G75*
G02*
X173290001Y-129224000I-249999J0D01*
G01*
X172639999Y-129224000D01*
G75*
G02*
X172390000Y-128974001I0J249999D01*
G01*
X172390000Y-128073999D01*
G75*
G02*
X172639999Y-127824000I249999J0D01*
G01*
X173290001Y-127824000D01*
G75*
G02*
X173540000Y-128073999I0J-249999D01*
G01*
G37*
G36*
G01*
X175590000Y-128073999D02*
X175590000Y-128974001D01*
G75*
G02*
X175340001Y-129224000I-249999J0D01*
G01*
X174689999Y-129224000D01*
G75*
G02*
X174440000Y-128974001I0J249999D01*
G01*
X174440000Y-128073999D01*
G75*
G02*
X174689999Y-127824000I249999J0D01*
G01*
X175340001Y-127824000D01*
G75*
G02*
X175590000Y-128073999I0J-249999D01*
G01*
G37*
%TD*%
%TO.C,U2*%
X191420000Y-99670000D03*
X191420000Y-100470000D03*
X191420000Y-101270000D03*
X191420000Y-104470000D03*
X191420000Y-105270000D03*
X191420000Y-106070000D03*
X190620000Y-99670000D03*
X190620000Y-100470000D03*
X190620000Y-101270000D03*
X190620000Y-104470000D03*
X190620000Y-105270000D03*
X190620000Y-106070000D03*
X189820000Y-99670000D03*
X189820000Y-100470000D03*
X189820000Y-101270000D03*
X189820000Y-104470000D03*
X189820000Y-105270000D03*
X189820000Y-106070000D03*
X189020000Y-99670000D03*
X189020000Y-100470000D03*
X189020000Y-101270000D03*
X189020000Y-104470000D03*
X189020000Y-105270000D03*
X189020000Y-106070000D03*
X188220000Y-99670000D03*
X188220000Y-100470000D03*
X188220000Y-101270000D03*
X188220000Y-104470000D03*
X188220000Y-105270000D03*
X188220000Y-106070000D03*
X187420000Y-99670000D03*
X187420000Y-100470000D03*
X187420000Y-101270000D03*
X187420000Y-104470000D03*
X187420000Y-105270000D03*
X187420000Y-106070000D03*
X186620000Y-99670000D03*
X186620000Y-100470000D03*
X186620000Y-101270000D03*
X186620000Y-104470000D03*
X186620000Y-105270000D03*
X186620000Y-106070000D03*
X185820000Y-99670000D03*
X185820000Y-100470000D03*
X185820000Y-101270000D03*
X185820000Y-104470000D03*
X185820000Y-105270000D03*
X185820000Y-106070000D03*
X185020000Y-99670000D03*
X185020000Y-100470000D03*
X185020000Y-101270000D03*
X185020000Y-104470000D03*
X185020000Y-105270000D03*
X185020000Y-106070000D03*
X184220000Y-99670000D03*
X184220000Y-100470000D03*
X184220000Y-101270000D03*
X184220000Y-104470000D03*
X184220000Y-105270000D03*
X184220000Y-106070000D03*
X183420000Y-99670000D03*
X183420000Y-100470000D03*
X183420000Y-101270000D03*
X183420000Y-104470000D03*
X183420000Y-105270000D03*
X183420000Y-106070000D03*
X182620000Y-99670000D03*
X182620000Y-100470000D03*
X182620000Y-101270000D03*
X182620000Y-104470000D03*
X182620000Y-105270000D03*
X182620000Y-106070000D03*
X181820000Y-99670000D03*
X181820000Y-100470000D03*
X181820000Y-101270000D03*
X181820000Y-104470000D03*
X181820000Y-105270000D03*
X181820000Y-106070000D03*
X181020000Y-99670000D03*
X181020000Y-100470000D03*
X181020000Y-101270000D03*
X181020000Y-104470000D03*
X181020000Y-105270000D03*
X181020000Y-106070000D03*
X180220000Y-99670000D03*
X180220000Y-100470000D03*
X180220000Y-101270000D03*
X180220000Y-104470000D03*
X180220000Y-105270000D03*
X180220000Y-106070000D03*
X179420000Y-99670000D03*
X179420000Y-100470000D03*
X179420000Y-101270000D03*
X179420000Y-104470000D03*
X179420000Y-105270000D03*
X179420000Y-106070000D03*
%TD*%
D18*
%TO.C,J8*%
X144567400Y-147338300D03*
D19*
X145567400Y-144638300D03*
X146217400Y-144638300D03*
X146867400Y-144638300D03*
X144267400Y-144638300D03*
X144917400Y-144638300D03*
D18*
X146567400Y-147338300D03*
%TD*%
D20*
%TO.C,U4*%
X195410000Y-126238000D03*
X195410000Y-125288000D03*
X195410000Y-127188000D03*
X193210000Y-127188000D03*
X193210000Y-126238000D03*
X193210000Y-125288000D03*
%TD*%
D18*
%TO.C,J14*%
X157750000Y-147287500D03*
D19*
X158750000Y-144587500D03*
X159400000Y-144587500D03*
X160050000Y-144587500D03*
X157450000Y-144587500D03*
X158100000Y-144587500D03*
D18*
X159750000Y-147287500D03*
%TD*%
D21*
%TO.C,J6*%
X187896500Y-79420000D03*
X187896500Y-75520000D03*
X189166500Y-79420000D03*
X189166500Y-75520000D03*
X190436500Y-79420000D03*
X190436500Y-75520000D03*
X191706500Y-79420000D03*
X191706500Y-75520000D03*
X192976500Y-79420000D03*
X192976500Y-75520000D03*
%TD*%
%TO.C,D1*%
G36*
G01*
X136594000Y-72332001D02*
X136594000Y-71431999D01*
G75*
G02*
X136843999Y-71182000I249999J0D01*
G01*
X137494001Y-71182000D01*
G75*
G02*
X137744000Y-71431999I0J-249999D01*
G01*
X137744000Y-72332001D01*
G75*
G02*
X137494001Y-72582000I-249999J0D01*
G01*
X136843999Y-72582000D01*
G75*
G02*
X136594000Y-72332001I0J249999D01*
G01*
G37*
G36*
G01*
X134544000Y-72332001D02*
X134544000Y-71431999D01*
G75*
G02*
X134793999Y-71182000I249999J0D01*
G01*
X135444001Y-71182000D01*
G75*
G02*
X135694000Y-71431999I0J-249999D01*
G01*
X135694000Y-72332001D01*
G75*
G02*
X135444001Y-72582000I-249999J0D01*
G01*
X134793999Y-72582000D01*
G75*
G02*
X134544000Y-72332001I0J249999D01*
G01*
G37*
%TD*%
M02*
