%TF.GenerationSoftware,KiCad,Pcbnew,(5.1.8-0-10_14)*%
%TF.CreationDate,2021-04-06T01:22:42+01:00*%
%TF.ProjectId,STM32MP1_TestBoard_RevB,53544d33-324d-4503-915f-54657374426f,rev?*%
%TF.SameCoordinates,Original*%
%TF.FileFunction,Soldermask,Bot*%
%TF.FilePolarity,Negative*%
%FSLAX46Y46*%
G04 Gerber Fmt 4.6, Leading zero omitted, Abs format (unit mm)*
G04 Created by KiCad (PCBNEW (5.1.8-0-10_14)) date 2021-04-06 01:22:42*
%MOMM*%
%LPD*%
G01*
G04 APERTURE LIST*
%ADD10O,1.740000X2.190000*%
%ADD11O,1.300000X2.500000*%
%ADD12O,1.300000X3.200000*%
%ADD13C,0.700000*%
%ADD14R,1.100000X1.050000*%
%ADD15R,1.300000X1.100000*%
%ADD16O,1.700000X1.700000*%
%ADD17R,1.700000X1.700000*%
%ADD18R,3.500000X3.500000*%
%ADD19O,1.200000X1.900000*%
%ADD20C,1.450000*%
G04 APERTURE END LIST*
D10*
%TO.C,J12*%
X165100000Y-73660000D03*
G36*
G01*
X161690000Y-74505001D02*
X161690000Y-72814999D01*
G75*
G02*
X161939999Y-72565000I249999J0D01*
G01*
X163180001Y-72565000D01*
G75*
G02*
X163430000Y-72814999I0J-249999D01*
G01*
X163430000Y-74505001D01*
G75*
G02*
X163180001Y-74755000I-249999J0D01*
G01*
X161939999Y-74755000D01*
G75*
G02*
X161690000Y-74505001I0J249999D01*
G01*
G37*
%TD*%
D11*
%TO.C,J11*%
X182270400Y-145846800D03*
X173639480Y-145836640D03*
D12*
X182306000Y-141696000D03*
X173656000Y-141696000D03*
D13*
X178406000Y-142548000D03*
X180956000Y-142544800D03*
X180106000Y-142548000D03*
X179256000Y-142548000D03*
X174993300Y-142544800D03*
X176695100Y-142544800D03*
X177556000Y-142548000D03*
X175844200Y-142544800D03*
X180962300Y-141185900D03*
X180111400Y-141185900D03*
X179256000Y-141185900D03*
X178406000Y-141185000D03*
X177556000Y-141185000D03*
X176695100Y-141185000D03*
X175844200Y-141185000D03*
X174993300Y-141185000D03*
%TD*%
%TO.C,R25*%
G36*
G01*
X151438000Y-106144000D02*
X151438000Y-106454000D01*
G75*
G02*
X151283000Y-106609000I-155000J0D01*
G01*
X150858000Y-106609000D01*
G75*
G02*
X150703000Y-106454000I0J155000D01*
G01*
X150703000Y-106144000D01*
G75*
G02*
X150858000Y-105989000I155000J0D01*
G01*
X151283000Y-105989000D01*
G75*
G02*
X151438000Y-106144000I0J-155000D01*
G01*
G37*
G36*
G01*
X152573000Y-106144000D02*
X152573000Y-106454000D01*
G75*
G02*
X152418000Y-106609000I-155000J0D01*
G01*
X151993000Y-106609000D01*
G75*
G02*
X151838000Y-106454000I0J155000D01*
G01*
X151838000Y-106144000D01*
G75*
G02*
X151993000Y-105989000I155000J0D01*
G01*
X152418000Y-105989000D01*
G75*
G02*
X152573000Y-106144000I0J-155000D01*
G01*
G37*
%TD*%
%TO.C,C37*%
G36*
G01*
X141196000Y-110436000D02*
X141506000Y-110436000D01*
G75*
G02*
X141661000Y-110591000I0J-155000D01*
G01*
X141661000Y-111016000D01*
G75*
G02*
X141506000Y-111171000I-155000J0D01*
G01*
X141196000Y-111171000D01*
G75*
G02*
X141041000Y-111016000I0J155000D01*
G01*
X141041000Y-110591000D01*
G75*
G02*
X141196000Y-110436000I155000J0D01*
G01*
G37*
G36*
G01*
X141196000Y-109301000D02*
X141506000Y-109301000D01*
G75*
G02*
X141661000Y-109456000I0J-155000D01*
G01*
X141661000Y-109881000D01*
G75*
G02*
X141506000Y-110036000I-155000J0D01*
G01*
X141196000Y-110036000D01*
G75*
G02*
X141041000Y-109881000I0J155000D01*
G01*
X141041000Y-109456000D01*
G75*
G02*
X141196000Y-109301000I155000J0D01*
G01*
G37*
%TD*%
%TO.C,R24*%
G36*
G01*
X149319000Y-92569000D02*
X149639000Y-92569000D01*
G75*
G02*
X149799000Y-92729000I0J-160000D01*
G01*
X149799000Y-93124000D01*
G75*
G02*
X149639000Y-93284000I-160000J0D01*
G01*
X149319000Y-93284000D01*
G75*
G02*
X149159000Y-93124000I0J160000D01*
G01*
X149159000Y-92729000D01*
G75*
G02*
X149319000Y-92569000I160000J0D01*
G01*
G37*
G36*
G01*
X149319000Y-91374000D02*
X149639000Y-91374000D01*
G75*
G02*
X149799000Y-91534000I0J-160000D01*
G01*
X149799000Y-91929000D01*
G75*
G02*
X149639000Y-92089000I-160000J0D01*
G01*
X149319000Y-92089000D01*
G75*
G02*
X149159000Y-91929000I0J160000D01*
G01*
X149159000Y-91534000D01*
G75*
G02*
X149319000Y-91374000I160000J0D01*
G01*
G37*
%TD*%
%TO.C,C11*%
G36*
G01*
X144554000Y-102035000D02*
X144244000Y-102035000D01*
G75*
G02*
X144089000Y-101880000I0J155000D01*
G01*
X144089000Y-101455000D01*
G75*
G02*
X144244000Y-101300000I155000J0D01*
G01*
X144554000Y-101300000D01*
G75*
G02*
X144709000Y-101455000I0J-155000D01*
G01*
X144709000Y-101880000D01*
G75*
G02*
X144554000Y-102035000I-155000J0D01*
G01*
G37*
G36*
G01*
X144554000Y-103170000D02*
X144244000Y-103170000D01*
G75*
G02*
X144089000Y-103015000I0J155000D01*
G01*
X144089000Y-102590000D01*
G75*
G02*
X144244000Y-102435000I155000J0D01*
G01*
X144554000Y-102435000D01*
G75*
G02*
X144709000Y-102590000I0J-155000D01*
G01*
X144709000Y-103015000D01*
G75*
G02*
X144554000Y-103170000I-155000J0D01*
G01*
G37*
%TD*%
%TO.C,C16*%
G36*
G01*
X144244000Y-104721000D02*
X144554000Y-104721000D01*
G75*
G02*
X144709000Y-104876000I0J-155000D01*
G01*
X144709000Y-105301000D01*
G75*
G02*
X144554000Y-105456000I-155000J0D01*
G01*
X144244000Y-105456000D01*
G75*
G02*
X144089000Y-105301000I0J155000D01*
G01*
X144089000Y-104876000D01*
G75*
G02*
X144244000Y-104721000I155000J0D01*
G01*
G37*
G36*
G01*
X144244000Y-103586000D02*
X144554000Y-103586000D01*
G75*
G02*
X144709000Y-103741000I0J-155000D01*
G01*
X144709000Y-104166000D01*
G75*
G02*
X144554000Y-104321000I-155000J0D01*
G01*
X144244000Y-104321000D01*
G75*
G02*
X144089000Y-104166000I0J155000D01*
G01*
X144089000Y-103741000D01*
G75*
G02*
X144244000Y-103586000I155000J0D01*
G01*
G37*
%TD*%
D14*
%TO.C,Y1*%
X145923000Y-104252200D03*
X145923000Y-102402200D03*
%TD*%
D15*
%TO.C,X1*%
X143095000Y-110680000D03*
X145195000Y-110680000D03*
X145195000Y-109030000D03*
X143095000Y-109030000D03*
%TD*%
%TO.C,R23*%
G36*
G01*
X147287000Y-103999000D02*
X147607000Y-103999000D01*
G75*
G02*
X147767000Y-104159000I0J-160000D01*
G01*
X147767000Y-104554000D01*
G75*
G02*
X147607000Y-104714000I-160000J0D01*
G01*
X147287000Y-104714000D01*
G75*
G02*
X147127000Y-104554000I0J160000D01*
G01*
X147127000Y-104159000D01*
G75*
G02*
X147287000Y-103999000I160000J0D01*
G01*
G37*
G36*
G01*
X147287000Y-102804000D02*
X147607000Y-102804000D01*
G75*
G02*
X147767000Y-102964000I0J-160000D01*
G01*
X147767000Y-103359000D01*
G75*
G02*
X147607000Y-103519000I-160000J0D01*
G01*
X147287000Y-103519000D01*
G75*
G02*
X147127000Y-103359000I0J160000D01*
G01*
X147127000Y-102964000D01*
G75*
G02*
X147287000Y-102804000I160000J0D01*
G01*
G37*
%TD*%
%TO.C,R22*%
G36*
G01*
X147226000Y-108472000D02*
X146906000Y-108472000D01*
G75*
G02*
X146746000Y-108312000I0J160000D01*
G01*
X146746000Y-107917000D01*
G75*
G02*
X146906000Y-107757000I160000J0D01*
G01*
X147226000Y-107757000D01*
G75*
G02*
X147386000Y-107917000I0J-160000D01*
G01*
X147386000Y-108312000D01*
G75*
G02*
X147226000Y-108472000I-160000J0D01*
G01*
G37*
G36*
G01*
X147226000Y-109667000D02*
X146906000Y-109667000D01*
G75*
G02*
X146746000Y-109507000I0J160000D01*
G01*
X146746000Y-109112000D01*
G75*
G02*
X146906000Y-108952000I160000J0D01*
G01*
X147226000Y-108952000D01*
G75*
G02*
X147386000Y-109112000I0J-160000D01*
G01*
X147386000Y-109507000D01*
G75*
G02*
X147226000Y-109667000I-160000J0D01*
G01*
G37*
%TD*%
%TO.C,R21*%
G36*
G01*
X140956000Y-108745000D02*
X140956000Y-108425000D01*
G75*
G02*
X141116000Y-108265000I160000J0D01*
G01*
X141511000Y-108265000D01*
G75*
G02*
X141671000Y-108425000I0J-160000D01*
G01*
X141671000Y-108745000D01*
G75*
G02*
X141511000Y-108905000I-160000J0D01*
G01*
X141116000Y-108905000D01*
G75*
G02*
X140956000Y-108745000I0J160000D01*
G01*
G37*
G36*
G01*
X139761000Y-108745000D02*
X139761000Y-108425000D01*
G75*
G02*
X139921000Y-108265000I160000J0D01*
G01*
X140316000Y-108265000D01*
G75*
G02*
X140476000Y-108425000I0J-160000D01*
G01*
X140476000Y-108745000D01*
G75*
G02*
X140316000Y-108905000I-160000J0D01*
G01*
X139921000Y-108905000D01*
G75*
G02*
X139761000Y-108745000I0J160000D01*
G01*
G37*
%TD*%
%TO.C,R20*%
G36*
G01*
X139921000Y-110476000D02*
X140241000Y-110476000D01*
G75*
G02*
X140401000Y-110636000I0J-160000D01*
G01*
X140401000Y-111031000D01*
G75*
G02*
X140241000Y-111191000I-160000J0D01*
G01*
X139921000Y-111191000D01*
G75*
G02*
X139761000Y-111031000I0J160000D01*
G01*
X139761000Y-110636000D01*
G75*
G02*
X139921000Y-110476000I160000J0D01*
G01*
G37*
G36*
G01*
X139921000Y-109281000D02*
X140241000Y-109281000D01*
G75*
G02*
X140401000Y-109441000I0J-160000D01*
G01*
X140401000Y-109836000D01*
G75*
G02*
X140241000Y-109996000I-160000J0D01*
G01*
X139921000Y-109996000D01*
G75*
G02*
X139761000Y-109836000I0J160000D01*
G01*
X139761000Y-109441000D01*
G75*
G02*
X139921000Y-109281000I160000J0D01*
G01*
G37*
%TD*%
D16*
%TO.C,J7*%
X198120000Y-91440000D03*
X198120000Y-93980000D03*
X198120000Y-96520000D03*
X198120000Y-99060000D03*
X198120000Y-101600000D03*
X198120000Y-104140000D03*
X198120000Y-106680000D03*
D17*
X198120000Y-109220000D03*
%TD*%
%TO.C,J9*%
G36*
G01*
X196075000Y-140640000D02*
X194325000Y-140640000D01*
G75*
G02*
X193450000Y-139765000I0J875000D01*
G01*
X193450000Y-138015000D01*
G75*
G02*
X194325000Y-137140000I875000J0D01*
G01*
X196075000Y-137140000D01*
G75*
G02*
X196950000Y-138015000I0J-875000D01*
G01*
X196950000Y-139765000D01*
G75*
G02*
X196075000Y-140640000I-875000J0D01*
G01*
G37*
G36*
G01*
X191500000Y-143390000D02*
X189500000Y-143390000D01*
G75*
G02*
X188750000Y-142640000I0J750000D01*
G01*
X188750000Y-141140000D01*
G75*
G02*
X189500000Y-140390000I750000J0D01*
G01*
X191500000Y-140390000D01*
G75*
G02*
X192250000Y-141140000I0J-750000D01*
G01*
X192250000Y-142640000D01*
G75*
G02*
X191500000Y-143390000I-750000J0D01*
G01*
G37*
D18*
X190500000Y-135890000D03*
%TD*%
%TO.C,R2*%
G36*
G01*
X179842200Y-107513100D02*
X179842200Y-107193100D01*
G75*
G02*
X180002200Y-107033100I160000J0D01*
G01*
X180397200Y-107033100D01*
G75*
G02*
X180557200Y-107193100I0J-160000D01*
G01*
X180557200Y-107513100D01*
G75*
G02*
X180397200Y-107673100I-160000J0D01*
G01*
X180002200Y-107673100D01*
G75*
G02*
X179842200Y-107513100I0J160000D01*
G01*
G37*
G36*
G01*
X181037200Y-107513100D02*
X181037200Y-107193100D01*
G75*
G02*
X181197200Y-107033100I160000J0D01*
G01*
X181592200Y-107033100D01*
G75*
G02*
X181752200Y-107193100I0J-160000D01*
G01*
X181752200Y-107513100D01*
G75*
G02*
X181592200Y-107673100I-160000J0D01*
G01*
X181197200Y-107673100D01*
G75*
G02*
X181037200Y-107513100I0J160000D01*
G01*
G37*
%TD*%
%TO.C,R11*%
G36*
G01*
X181752200Y-108259900D02*
X181752200Y-108579900D01*
G75*
G02*
X181592200Y-108739900I-160000J0D01*
G01*
X181197200Y-108739900D01*
G75*
G02*
X181037200Y-108579900I0J160000D01*
G01*
X181037200Y-108259900D01*
G75*
G02*
X181197200Y-108099900I160000J0D01*
G01*
X181592200Y-108099900D01*
G75*
G02*
X181752200Y-108259900I0J-160000D01*
G01*
G37*
G36*
G01*
X180557200Y-108259900D02*
X180557200Y-108579900D01*
G75*
G02*
X180397200Y-108739900I-160000J0D01*
G01*
X180002200Y-108739900D01*
G75*
G02*
X179842200Y-108579900I0J160000D01*
G01*
X179842200Y-108259900D01*
G75*
G02*
X180002200Y-108099900I160000J0D01*
G01*
X180397200Y-108099900D01*
G75*
G02*
X180557200Y-108259900I0J-160000D01*
G01*
G37*
%TD*%
%TO.C,R14*%
G36*
G01*
X185625700Y-102913200D02*
X185625700Y-103233200D01*
G75*
G02*
X185465700Y-103393200I-160000J0D01*
G01*
X185070700Y-103393200D01*
G75*
G02*
X184910700Y-103233200I0J160000D01*
G01*
X184910700Y-102913200D01*
G75*
G02*
X185070700Y-102753200I160000J0D01*
G01*
X185465700Y-102753200D01*
G75*
G02*
X185625700Y-102913200I0J-160000D01*
G01*
G37*
G36*
G01*
X184430700Y-102913200D02*
X184430700Y-103233200D01*
G75*
G02*
X184270700Y-103393200I-160000J0D01*
G01*
X183875700Y-103393200D01*
G75*
G02*
X183715700Y-103233200I0J160000D01*
G01*
X183715700Y-102913200D01*
G75*
G02*
X183875700Y-102753200I160000J0D01*
G01*
X184270700Y-102753200D01*
G75*
G02*
X184430700Y-102913200I0J-160000D01*
G01*
G37*
%TD*%
%TO.C,R6*%
G36*
G01*
X183474400Y-107525800D02*
X183474400Y-107205800D01*
G75*
G02*
X183634400Y-107045800I160000J0D01*
G01*
X184029400Y-107045800D01*
G75*
G02*
X184189400Y-107205800I0J-160000D01*
G01*
X184189400Y-107525800D01*
G75*
G02*
X184029400Y-107685800I-160000J0D01*
G01*
X183634400Y-107685800D01*
G75*
G02*
X183474400Y-107525800I0J160000D01*
G01*
G37*
G36*
G01*
X184669400Y-107525800D02*
X184669400Y-107205800D01*
G75*
G02*
X184829400Y-107045800I160000J0D01*
G01*
X185224400Y-107045800D01*
G75*
G02*
X185384400Y-107205800I0J-160000D01*
G01*
X185384400Y-107525800D01*
G75*
G02*
X185224400Y-107685800I-160000J0D01*
G01*
X184829400Y-107685800D01*
G75*
G02*
X184669400Y-107525800I0J160000D01*
G01*
G37*
%TD*%
D19*
%TO.C,J8*%
X149067400Y-147338300D03*
X142067400Y-147338300D03*
D20*
X148067400Y-144638300D03*
X143067400Y-144638300D03*
%TD*%
D16*
%TO.C,J5*%
X150622000Y-76835000D03*
X148082000Y-76835000D03*
X150622000Y-74295000D03*
X148082000Y-74295000D03*
X150622000Y-71755000D03*
D17*
X148082000Y-71755000D03*
%TD*%
D16*
%TO.C,J4*%
X129540000Y-76200000D03*
X129540000Y-78740000D03*
X129540000Y-81280000D03*
X129540000Y-83820000D03*
X129540000Y-86360000D03*
X129540000Y-88900000D03*
X129540000Y-91440000D03*
X129540000Y-93980000D03*
X129540000Y-96520000D03*
X129540000Y-99060000D03*
X129540000Y-101600000D03*
X129540000Y-104140000D03*
X129540000Y-106680000D03*
X129540000Y-109220000D03*
X129540000Y-111760000D03*
X129540000Y-114300000D03*
X129540000Y-116840000D03*
X129540000Y-119380000D03*
X129540000Y-121920000D03*
X129540000Y-124460000D03*
X129540000Y-127000000D03*
X129540000Y-129540000D03*
X129540000Y-132080000D03*
X129540000Y-134620000D03*
X129540000Y-137160000D03*
X129540000Y-139700000D03*
D17*
X129540000Y-142240000D03*
%TD*%
D16*
%TO.C,J3*%
X132080000Y-76200000D03*
X132080000Y-78740000D03*
X132080000Y-81280000D03*
X132080000Y-83820000D03*
X132080000Y-86360000D03*
X132080000Y-88900000D03*
X132080000Y-91440000D03*
X132080000Y-93980000D03*
X132080000Y-96520000D03*
X132080000Y-99060000D03*
X132080000Y-101600000D03*
X132080000Y-104140000D03*
X132080000Y-106680000D03*
X132080000Y-109220000D03*
X132080000Y-111760000D03*
X132080000Y-114300000D03*
X132080000Y-116840000D03*
X132080000Y-119380000D03*
X132080000Y-121920000D03*
X132080000Y-124460000D03*
X132080000Y-127000000D03*
X132080000Y-129540000D03*
X132080000Y-132080000D03*
X132080000Y-134620000D03*
X132080000Y-137160000D03*
X132080000Y-139700000D03*
D17*
X132080000Y-142240000D03*
%TD*%
D16*
%TO.C,J2*%
X134620000Y-76200000D03*
X134620000Y-78740000D03*
X134620000Y-81280000D03*
X134620000Y-83820000D03*
X134620000Y-86360000D03*
X134620000Y-88900000D03*
X134620000Y-91440000D03*
X134620000Y-93980000D03*
X134620000Y-96520000D03*
X134620000Y-99060000D03*
X134620000Y-101600000D03*
X134620000Y-104140000D03*
X134620000Y-106680000D03*
X134620000Y-109220000D03*
X134620000Y-111760000D03*
X134620000Y-114300000D03*
X134620000Y-116840000D03*
X134620000Y-119380000D03*
X134620000Y-121920000D03*
X134620000Y-124460000D03*
X134620000Y-127000000D03*
X134620000Y-129540000D03*
X134620000Y-132080000D03*
X134620000Y-134620000D03*
X134620000Y-137160000D03*
X134620000Y-139700000D03*
D17*
X134620000Y-142240000D03*
%TD*%
D16*
%TO.C,J1*%
X137160000Y-76200000D03*
X137160000Y-78740000D03*
X137160000Y-81280000D03*
X137160000Y-83820000D03*
X137160000Y-86360000D03*
X137160000Y-88900000D03*
X137160000Y-91440000D03*
X137160000Y-93980000D03*
X137160000Y-96520000D03*
X137160000Y-99060000D03*
X137160000Y-101600000D03*
X137160000Y-104140000D03*
X137160000Y-106680000D03*
X137160000Y-109220000D03*
X137160000Y-111760000D03*
X137160000Y-114300000D03*
X137160000Y-116840000D03*
X137160000Y-119380000D03*
X137160000Y-121920000D03*
X137160000Y-124460000D03*
X137160000Y-127000000D03*
X137160000Y-129540000D03*
X137160000Y-132080000D03*
X137160000Y-134620000D03*
X137160000Y-137160000D03*
X137160000Y-139700000D03*
D17*
X137160000Y-142240000D03*
%TD*%
%TO.C,C69*%
G36*
G01*
X162704500Y-98580000D02*
X162704500Y-98270000D01*
G75*
G02*
X162859500Y-98115000I155000J0D01*
G01*
X163284500Y-98115000D01*
G75*
G02*
X163439500Y-98270000I0J-155000D01*
G01*
X163439500Y-98580000D01*
G75*
G02*
X163284500Y-98735000I-155000J0D01*
G01*
X162859500Y-98735000D01*
G75*
G02*
X162704500Y-98580000I0J155000D01*
G01*
G37*
G36*
G01*
X163839500Y-98580000D02*
X163839500Y-98270000D01*
G75*
G02*
X163994500Y-98115000I155000J0D01*
G01*
X164419500Y-98115000D01*
G75*
G02*
X164574500Y-98270000I0J-155000D01*
G01*
X164574500Y-98580000D01*
G75*
G02*
X164419500Y-98735000I-155000J0D01*
G01*
X163994500Y-98735000D01*
G75*
G02*
X163839500Y-98580000I0J155000D01*
G01*
G37*
%TD*%
%TO.C,C70*%
G36*
G01*
X163365544Y-90224753D02*
X163584747Y-90443956D01*
G75*
G02*
X163584747Y-90663160I-109602J-109602D01*
G01*
X163284226Y-90963681D01*
G75*
G02*
X163065022Y-90963681I-109602J109602D01*
G01*
X162845819Y-90744478D01*
G75*
G02*
X162845819Y-90525274I109602J109602D01*
G01*
X163146340Y-90224753D01*
G75*
G02*
X163365544Y-90224753I109602J-109602D01*
G01*
G37*
G36*
G01*
X162562978Y-91027319D02*
X162782181Y-91246522D01*
G75*
G02*
X162782181Y-91465726I-109602J-109602D01*
G01*
X162481660Y-91766247D01*
G75*
G02*
X162262456Y-91766247I-109602J109602D01*
G01*
X162043253Y-91547044D01*
G75*
G02*
X162043253Y-91327840I109602J109602D01*
G01*
X162343774Y-91027319D01*
G75*
G02*
X162562978Y-91027319I109602J-109602D01*
G01*
G37*
%TD*%
%TO.C,L3*%
G36*
G01*
X152246000Y-108675000D02*
X152046000Y-108675000D01*
G75*
G02*
X151946000Y-108575000I0J100000D01*
G01*
X151946000Y-108140000D01*
G75*
G02*
X152046000Y-108040000I100000J0D01*
G01*
X152246000Y-108040000D01*
G75*
G02*
X152346000Y-108140000I0J-100000D01*
G01*
X152346000Y-108575000D01*
G75*
G02*
X152246000Y-108675000I-100000J0D01*
G01*
G37*
G36*
G01*
X152246000Y-107860000D02*
X152046000Y-107860000D01*
G75*
G02*
X151946000Y-107760000I0J100000D01*
G01*
X151946000Y-107325000D01*
G75*
G02*
X152046000Y-107225000I100000J0D01*
G01*
X152246000Y-107225000D01*
G75*
G02*
X152346000Y-107325000I0J-100000D01*
G01*
X152346000Y-107760000D01*
G75*
G02*
X152246000Y-107860000I-100000J0D01*
G01*
G37*
%TD*%
%TO.C,C33*%
G36*
G01*
X156492000Y-104211400D02*
X156182000Y-104211400D01*
G75*
G02*
X156027000Y-104056400I0J155000D01*
G01*
X156027000Y-103631400D01*
G75*
G02*
X156182000Y-103476400I155000J0D01*
G01*
X156492000Y-103476400D01*
G75*
G02*
X156647000Y-103631400I0J-155000D01*
G01*
X156647000Y-104056400D01*
G75*
G02*
X156492000Y-104211400I-155000J0D01*
G01*
G37*
G36*
G01*
X156492000Y-103076400D02*
X156182000Y-103076400D01*
G75*
G02*
X156027000Y-102921400I0J155000D01*
G01*
X156027000Y-102496400D01*
G75*
G02*
X156182000Y-102341400I155000J0D01*
G01*
X156492000Y-102341400D01*
G75*
G02*
X156647000Y-102496400I0J-155000D01*
G01*
X156647000Y-102921400D01*
G75*
G02*
X156492000Y-103076400I-155000J0D01*
G01*
G37*
%TD*%
%TO.C,C32*%
G36*
G01*
X159382400Y-104627400D02*
X159692400Y-104627400D01*
G75*
G02*
X159847400Y-104782400I0J-155000D01*
G01*
X159847400Y-105207400D01*
G75*
G02*
X159692400Y-105362400I-155000J0D01*
G01*
X159382400Y-105362400D01*
G75*
G02*
X159227400Y-105207400I0J155000D01*
G01*
X159227400Y-104782400D01*
G75*
G02*
X159382400Y-104627400I155000J0D01*
G01*
G37*
G36*
G01*
X159382400Y-105762400D02*
X159692400Y-105762400D01*
G75*
G02*
X159847400Y-105917400I0J-155000D01*
G01*
X159847400Y-106342400D01*
G75*
G02*
X159692400Y-106497400I-155000J0D01*
G01*
X159382400Y-106497400D01*
G75*
G02*
X159227400Y-106342400I0J155000D01*
G01*
X159227400Y-105917400D01*
G75*
G02*
X159382400Y-105762400I155000J0D01*
G01*
G37*
%TD*%
%TO.C,C31*%
G36*
G01*
X152014200Y-105102600D02*
X152014200Y-105412600D01*
G75*
G02*
X151859200Y-105567600I-155000J0D01*
G01*
X151434200Y-105567600D01*
G75*
G02*
X151279200Y-105412600I0J155000D01*
G01*
X151279200Y-105102600D01*
G75*
G02*
X151434200Y-104947600I155000J0D01*
G01*
X151859200Y-104947600D01*
G75*
G02*
X152014200Y-105102600I0J-155000D01*
G01*
G37*
G36*
G01*
X150879200Y-105102600D02*
X150879200Y-105412600D01*
G75*
G02*
X150724200Y-105567600I-155000J0D01*
G01*
X150299200Y-105567600D01*
G75*
G02*
X150144200Y-105412600I0J155000D01*
G01*
X150144200Y-105102600D01*
G75*
G02*
X150299200Y-104947600I155000J0D01*
G01*
X150724200Y-104947600D01*
G75*
G02*
X150879200Y-105102600I0J-155000D01*
G01*
G37*
%TD*%
%TO.C,C34*%
G36*
G01*
X155755400Y-99436200D02*
X155445400Y-99436200D01*
G75*
G02*
X155290400Y-99281200I0J155000D01*
G01*
X155290400Y-98856200D01*
G75*
G02*
X155445400Y-98701200I155000J0D01*
G01*
X155755400Y-98701200D01*
G75*
G02*
X155910400Y-98856200I0J-155000D01*
G01*
X155910400Y-99281200D01*
G75*
G02*
X155755400Y-99436200I-155000J0D01*
G01*
G37*
G36*
G01*
X155755400Y-98301200D02*
X155445400Y-98301200D01*
G75*
G02*
X155290400Y-98146200I0J155000D01*
G01*
X155290400Y-97721200D01*
G75*
G02*
X155445400Y-97566200I155000J0D01*
G01*
X155755400Y-97566200D01*
G75*
G02*
X155910400Y-97721200I0J-155000D01*
G01*
X155910400Y-98146200D01*
G75*
G02*
X155755400Y-98301200I-155000J0D01*
G01*
G37*
%TD*%
%TO.C,C12*%
G36*
G01*
X155679200Y-107234000D02*
X155369200Y-107234000D01*
G75*
G02*
X155214200Y-107079000I0J155000D01*
G01*
X155214200Y-106654000D01*
G75*
G02*
X155369200Y-106499000I155000J0D01*
G01*
X155679200Y-106499000D01*
G75*
G02*
X155834200Y-106654000I0J-155000D01*
G01*
X155834200Y-107079000D01*
G75*
G02*
X155679200Y-107234000I-155000J0D01*
G01*
G37*
G36*
G01*
X155679200Y-106099000D02*
X155369200Y-106099000D01*
G75*
G02*
X155214200Y-105944000I0J155000D01*
G01*
X155214200Y-105519000D01*
G75*
G02*
X155369200Y-105364000I155000J0D01*
G01*
X155679200Y-105364000D01*
G75*
G02*
X155834200Y-105519000I0J-155000D01*
G01*
X155834200Y-105944000D01*
G75*
G02*
X155679200Y-106099000I-155000J0D01*
G01*
G37*
%TD*%
%TO.C,C7*%
G36*
G01*
X164127544Y-90986753D02*
X164346747Y-91205956D01*
G75*
G02*
X164346747Y-91425160I-109602J-109602D01*
G01*
X164046226Y-91725681D01*
G75*
G02*
X163827022Y-91725681I-109602J109602D01*
G01*
X163607819Y-91506478D01*
G75*
G02*
X163607819Y-91287274I109602J109602D01*
G01*
X163908340Y-90986753D01*
G75*
G02*
X164127544Y-90986753I109602J-109602D01*
G01*
G37*
G36*
G01*
X163324978Y-91789319D02*
X163544181Y-92008522D01*
G75*
G02*
X163544181Y-92227726I-109602J-109602D01*
G01*
X163243660Y-92528247D01*
G75*
G02*
X163024456Y-92528247I-109602J109602D01*
G01*
X162805253Y-92309044D01*
G75*
G02*
X162805253Y-92089840I109602J109602D01*
G01*
X163105774Y-91789319D01*
G75*
G02*
X163324978Y-91789319I109602J-109602D01*
G01*
G37*
%TD*%
%TO.C,C35*%
G36*
G01*
X151539000Y-98979000D02*
X151229000Y-98979000D01*
G75*
G02*
X151074000Y-98824000I0J155000D01*
G01*
X151074000Y-98399000D01*
G75*
G02*
X151229000Y-98244000I155000J0D01*
G01*
X151539000Y-98244000D01*
G75*
G02*
X151694000Y-98399000I0J-155000D01*
G01*
X151694000Y-98824000D01*
G75*
G02*
X151539000Y-98979000I-155000J0D01*
G01*
G37*
G36*
G01*
X151539000Y-97844000D02*
X151229000Y-97844000D01*
G75*
G02*
X151074000Y-97689000I0J155000D01*
G01*
X151074000Y-97264000D01*
G75*
G02*
X151229000Y-97109000I155000J0D01*
G01*
X151539000Y-97109000D01*
G75*
G02*
X151694000Y-97264000I0J-155000D01*
G01*
X151694000Y-97689000D01*
G75*
G02*
X151539000Y-97844000I-155000J0D01*
G01*
G37*
%TD*%
%TO.C,C30*%
G36*
G01*
X162080000Y-106395800D02*
X161770000Y-106395800D01*
G75*
G02*
X161615000Y-106240800I0J155000D01*
G01*
X161615000Y-105815800D01*
G75*
G02*
X161770000Y-105660800I155000J0D01*
G01*
X162080000Y-105660800D01*
G75*
G02*
X162235000Y-105815800I0J-155000D01*
G01*
X162235000Y-106240800D01*
G75*
G02*
X162080000Y-106395800I-155000J0D01*
G01*
G37*
G36*
G01*
X162080000Y-105260800D02*
X161770000Y-105260800D01*
G75*
G02*
X161615000Y-105105800I0J155000D01*
G01*
X161615000Y-104680800D01*
G75*
G02*
X161770000Y-104525800I155000J0D01*
G01*
X162080000Y-104525800D01*
G75*
G02*
X162235000Y-104680800I0J-155000D01*
G01*
X162235000Y-105105800D01*
G75*
G02*
X162080000Y-105260800I-155000J0D01*
G01*
G37*
%TD*%
%TO.C,C29*%
G36*
G01*
X157782200Y-103027200D02*
X158092200Y-103027200D01*
G75*
G02*
X158247200Y-103182200I0J-155000D01*
G01*
X158247200Y-103607200D01*
G75*
G02*
X158092200Y-103762200I-155000J0D01*
G01*
X157782200Y-103762200D01*
G75*
G02*
X157627200Y-103607200I0J155000D01*
G01*
X157627200Y-103182200D01*
G75*
G02*
X157782200Y-103027200I155000J0D01*
G01*
G37*
G36*
G01*
X157782200Y-104162200D02*
X158092200Y-104162200D01*
G75*
G02*
X158247200Y-104317200I0J-155000D01*
G01*
X158247200Y-104742200D01*
G75*
G02*
X158092200Y-104897200I-155000J0D01*
G01*
X157782200Y-104897200D01*
G75*
G02*
X157627200Y-104742200I0J155000D01*
G01*
X157627200Y-104317200D01*
G75*
G02*
X157782200Y-104162200I155000J0D01*
G01*
G37*
%TD*%
%TO.C,C28*%
G36*
G01*
X154942600Y-104846400D02*
X154632600Y-104846400D01*
G75*
G02*
X154477600Y-104691400I0J155000D01*
G01*
X154477600Y-104266400D01*
G75*
G02*
X154632600Y-104111400I155000J0D01*
G01*
X154942600Y-104111400D01*
G75*
G02*
X155097600Y-104266400I0J-155000D01*
G01*
X155097600Y-104691400D01*
G75*
G02*
X154942600Y-104846400I-155000J0D01*
G01*
G37*
G36*
G01*
X154942600Y-103711400D02*
X154632600Y-103711400D01*
G75*
G02*
X154477600Y-103556400I0J155000D01*
G01*
X154477600Y-103131400D01*
G75*
G02*
X154632600Y-102976400I155000J0D01*
G01*
X154942600Y-102976400D01*
G75*
G02*
X155097600Y-103131400I0J-155000D01*
G01*
X155097600Y-103556400D01*
G75*
G02*
X154942600Y-103711400I-155000J0D01*
G01*
G37*
%TD*%
%TO.C,C27*%
G36*
G01*
X156867800Y-105338600D02*
X157177800Y-105338600D01*
G75*
G02*
X157332800Y-105493600I0J-155000D01*
G01*
X157332800Y-105918600D01*
G75*
G02*
X157177800Y-106073600I-155000J0D01*
G01*
X156867800Y-106073600D01*
G75*
G02*
X156712800Y-105918600I0J155000D01*
G01*
X156712800Y-105493600D01*
G75*
G02*
X156867800Y-105338600I155000J0D01*
G01*
G37*
G36*
G01*
X156867800Y-106473600D02*
X157177800Y-106473600D01*
G75*
G02*
X157332800Y-106628600I0J-155000D01*
G01*
X157332800Y-107053600D01*
G75*
G02*
X157177800Y-107208600I-155000J0D01*
G01*
X156867800Y-107208600D01*
G75*
G02*
X156712800Y-107053600I0J155000D01*
G01*
X156712800Y-106628600D01*
G75*
G02*
X156867800Y-106473600I155000J0D01*
G01*
G37*
%TD*%
%TO.C,C26*%
G36*
G01*
X156519600Y-98605400D02*
X156519600Y-98295400D01*
G75*
G02*
X156674600Y-98140400I155000J0D01*
G01*
X157099600Y-98140400D01*
G75*
G02*
X157254600Y-98295400I0J-155000D01*
G01*
X157254600Y-98605400D01*
G75*
G02*
X157099600Y-98760400I-155000J0D01*
G01*
X156674600Y-98760400D01*
G75*
G02*
X156519600Y-98605400I0J155000D01*
G01*
G37*
G36*
G01*
X157654600Y-98605400D02*
X157654600Y-98295400D01*
G75*
G02*
X157809600Y-98140400I155000J0D01*
G01*
X158234600Y-98140400D01*
G75*
G02*
X158389600Y-98295400I0J-155000D01*
G01*
X158389600Y-98605400D01*
G75*
G02*
X158234600Y-98760400I-155000J0D01*
G01*
X157809600Y-98760400D01*
G75*
G02*
X157654600Y-98605400I0J155000D01*
G01*
G37*
%TD*%
%TO.C,C25*%
G36*
G01*
X161770000Y-101528600D02*
X162080000Y-101528600D01*
G75*
G02*
X162235000Y-101683600I0J-155000D01*
G01*
X162235000Y-102108600D01*
G75*
G02*
X162080000Y-102263600I-155000J0D01*
G01*
X161770000Y-102263600D01*
G75*
G02*
X161615000Y-102108600I0J155000D01*
G01*
X161615000Y-101683600D01*
G75*
G02*
X161770000Y-101528600I155000J0D01*
G01*
G37*
G36*
G01*
X161770000Y-102663600D02*
X162080000Y-102663600D01*
G75*
G02*
X162235000Y-102818600I0J-155000D01*
G01*
X162235000Y-103243600D01*
G75*
G02*
X162080000Y-103398600I-155000J0D01*
G01*
X161770000Y-103398600D01*
G75*
G02*
X161615000Y-103243600I0J155000D01*
G01*
X161615000Y-102818600D01*
G75*
G02*
X161770000Y-102663600I155000J0D01*
G01*
G37*
%TD*%
%TO.C,C24*%
G36*
G01*
X157883800Y-105338600D02*
X158193800Y-105338600D01*
G75*
G02*
X158348800Y-105493600I0J-155000D01*
G01*
X158348800Y-105918600D01*
G75*
G02*
X158193800Y-106073600I-155000J0D01*
G01*
X157883800Y-106073600D01*
G75*
G02*
X157728800Y-105918600I0J155000D01*
G01*
X157728800Y-105493600D01*
G75*
G02*
X157883800Y-105338600I155000J0D01*
G01*
G37*
G36*
G01*
X157883800Y-106473600D02*
X158193800Y-106473600D01*
G75*
G02*
X158348800Y-106628600I0J-155000D01*
G01*
X158348800Y-107053600D01*
G75*
G02*
X158193800Y-107208600I-155000J0D01*
G01*
X157883800Y-107208600D01*
G75*
G02*
X157728800Y-107053600I0J155000D01*
G01*
X157728800Y-106628600D01*
G75*
G02*
X157883800Y-106473600I155000J0D01*
G01*
G37*
%TD*%
%TO.C,C23*%
G36*
G01*
X164183000Y-105465600D02*
X164493000Y-105465600D01*
G75*
G02*
X164648000Y-105620600I0J-155000D01*
G01*
X164648000Y-106045600D01*
G75*
G02*
X164493000Y-106200600I-155000J0D01*
G01*
X164183000Y-106200600D01*
G75*
G02*
X164028000Y-106045600I0J155000D01*
G01*
X164028000Y-105620600D01*
G75*
G02*
X164183000Y-105465600I155000J0D01*
G01*
G37*
G36*
G01*
X164183000Y-106600600D02*
X164493000Y-106600600D01*
G75*
G02*
X164648000Y-106755600I0J-155000D01*
G01*
X164648000Y-107180600D01*
G75*
G02*
X164493000Y-107335600I-155000J0D01*
G01*
X164183000Y-107335600D01*
G75*
G02*
X164028000Y-107180600I0J155000D01*
G01*
X164028000Y-106755600D01*
G75*
G02*
X164183000Y-106600600I155000J0D01*
G01*
G37*
%TD*%
%TO.C,C22*%
G36*
G01*
X160675600Y-98295400D02*
X160675600Y-98605400D01*
G75*
G02*
X160520600Y-98760400I-155000J0D01*
G01*
X160095600Y-98760400D01*
G75*
G02*
X159940600Y-98605400I0J155000D01*
G01*
X159940600Y-98295400D01*
G75*
G02*
X160095600Y-98140400I155000J0D01*
G01*
X160520600Y-98140400D01*
G75*
G02*
X160675600Y-98295400I0J-155000D01*
G01*
G37*
G36*
G01*
X159540600Y-98295400D02*
X159540600Y-98605400D01*
G75*
G02*
X159385600Y-98760400I-155000J0D01*
G01*
X158960600Y-98760400D01*
G75*
G02*
X158805600Y-98605400I0J155000D01*
G01*
X158805600Y-98295400D01*
G75*
G02*
X158960600Y-98140400I155000J0D01*
G01*
X159385600Y-98140400D01*
G75*
G02*
X159540600Y-98295400I0J-155000D01*
G01*
G37*
%TD*%
%TO.C,C21*%
G36*
G01*
X154764800Y-99436200D02*
X154454800Y-99436200D01*
G75*
G02*
X154299800Y-99281200I0J155000D01*
G01*
X154299800Y-98856200D01*
G75*
G02*
X154454800Y-98701200I155000J0D01*
G01*
X154764800Y-98701200D01*
G75*
G02*
X154919800Y-98856200I0J-155000D01*
G01*
X154919800Y-99281200D01*
G75*
G02*
X154764800Y-99436200I-155000J0D01*
G01*
G37*
G36*
G01*
X154764800Y-98301200D02*
X154454800Y-98301200D01*
G75*
G02*
X154299800Y-98146200I0J155000D01*
G01*
X154299800Y-97721200D01*
G75*
G02*
X154454800Y-97566200I155000J0D01*
G01*
X154764800Y-97566200D01*
G75*
G02*
X154919800Y-97721200I0J-155000D01*
G01*
X154919800Y-98146200D01*
G75*
G02*
X154764800Y-98301200I-155000J0D01*
G01*
G37*
%TD*%
%TO.C,C20*%
G36*
G01*
X160472400Y-101495800D02*
X160472400Y-101805800D01*
G75*
G02*
X160317400Y-101960800I-155000J0D01*
G01*
X159892400Y-101960800D01*
G75*
G02*
X159737400Y-101805800I0J155000D01*
G01*
X159737400Y-101495800D01*
G75*
G02*
X159892400Y-101340800I155000J0D01*
G01*
X160317400Y-101340800D01*
G75*
G02*
X160472400Y-101495800I0J-155000D01*
G01*
G37*
G36*
G01*
X159337400Y-101495800D02*
X159337400Y-101805800D01*
G75*
G02*
X159182400Y-101960800I-155000J0D01*
G01*
X158757400Y-101960800D01*
G75*
G02*
X158602400Y-101805800I0J155000D01*
G01*
X158602400Y-101495800D01*
G75*
G02*
X158757400Y-101340800I155000J0D01*
G01*
X159182400Y-101340800D01*
G75*
G02*
X159337400Y-101495800I0J-155000D01*
G01*
G37*
%TD*%
%TO.C,C19*%
G36*
G01*
X161666200Y-107058400D02*
X161666200Y-107368400D01*
G75*
G02*
X161511200Y-107523400I-155000J0D01*
G01*
X161086200Y-107523400D01*
G75*
G02*
X160931200Y-107368400I0J155000D01*
G01*
X160931200Y-107058400D01*
G75*
G02*
X161086200Y-106903400I155000J0D01*
G01*
X161511200Y-106903400D01*
G75*
G02*
X161666200Y-107058400I0J-155000D01*
G01*
G37*
G36*
G01*
X160531200Y-107058400D02*
X160531200Y-107368400D01*
G75*
G02*
X160376200Y-107523400I-155000J0D01*
G01*
X159951200Y-107523400D01*
G75*
G02*
X159796200Y-107368400I0J155000D01*
G01*
X159796200Y-107058400D01*
G75*
G02*
X159951200Y-106903400I155000J0D01*
G01*
X160376200Y-106903400D01*
G75*
G02*
X160531200Y-107058400I0J-155000D01*
G01*
G37*
%TD*%
%TO.C,C18*%
G36*
G01*
X153063000Y-98979000D02*
X152753000Y-98979000D01*
G75*
G02*
X152598000Y-98824000I0J155000D01*
G01*
X152598000Y-98399000D01*
G75*
G02*
X152753000Y-98244000I155000J0D01*
G01*
X153063000Y-98244000D01*
G75*
G02*
X153218000Y-98399000I0J-155000D01*
G01*
X153218000Y-98824000D01*
G75*
G02*
X153063000Y-98979000I-155000J0D01*
G01*
G37*
G36*
G01*
X153063000Y-97844000D02*
X152753000Y-97844000D01*
G75*
G02*
X152598000Y-97689000I0J155000D01*
G01*
X152598000Y-97264000D01*
G75*
G02*
X152753000Y-97109000I155000J0D01*
G01*
X153063000Y-97109000D01*
G75*
G02*
X153218000Y-97264000I0J-155000D01*
G01*
X153218000Y-97689000D01*
G75*
G02*
X153063000Y-97844000I-155000J0D01*
G01*
G37*
%TD*%
%TO.C,C14*%
G36*
G01*
X150144200Y-104422000D02*
X150144200Y-104112000D01*
G75*
G02*
X150299200Y-103957000I155000J0D01*
G01*
X150724200Y-103957000D01*
G75*
G02*
X150879200Y-104112000I0J-155000D01*
G01*
X150879200Y-104422000D01*
G75*
G02*
X150724200Y-104577000I-155000J0D01*
G01*
X150299200Y-104577000D01*
G75*
G02*
X150144200Y-104422000I0J155000D01*
G01*
G37*
G36*
G01*
X151279200Y-104422000D02*
X151279200Y-104112000D01*
G75*
G02*
X151434200Y-103957000I155000J0D01*
G01*
X151859200Y-103957000D01*
G75*
G02*
X152014200Y-104112000I0J-155000D01*
G01*
X152014200Y-104422000D01*
G75*
G02*
X151859200Y-104577000I-155000J0D01*
G01*
X151434200Y-104577000D01*
G75*
G02*
X151279200Y-104422000I0J155000D01*
G01*
G37*
%TD*%
%TO.C,R42*%
G36*
G01*
X170489900Y-78726000D02*
X170809900Y-78726000D01*
G75*
G02*
X170969900Y-78886000I0J-160000D01*
G01*
X170969900Y-79281000D01*
G75*
G02*
X170809900Y-79441000I-160000J0D01*
G01*
X170489900Y-79441000D01*
G75*
G02*
X170329900Y-79281000I0J160000D01*
G01*
X170329900Y-78886000D01*
G75*
G02*
X170489900Y-78726000I160000J0D01*
G01*
G37*
G36*
G01*
X170489900Y-77531000D02*
X170809900Y-77531000D01*
G75*
G02*
X170969900Y-77691000I0J-160000D01*
G01*
X170969900Y-78086000D01*
G75*
G02*
X170809900Y-78246000I-160000J0D01*
G01*
X170489900Y-78246000D01*
G75*
G02*
X170329900Y-78086000I0J160000D01*
G01*
X170329900Y-77691000D01*
G75*
G02*
X170489900Y-77531000I160000J0D01*
G01*
G37*
%TD*%
%TO.C,R41*%
G36*
G01*
X171556700Y-78726000D02*
X171876700Y-78726000D01*
G75*
G02*
X172036700Y-78886000I0J-160000D01*
G01*
X172036700Y-79281000D01*
G75*
G02*
X171876700Y-79441000I-160000J0D01*
G01*
X171556700Y-79441000D01*
G75*
G02*
X171396700Y-79281000I0J160000D01*
G01*
X171396700Y-78886000D01*
G75*
G02*
X171556700Y-78726000I160000J0D01*
G01*
G37*
G36*
G01*
X171556700Y-77531000D02*
X171876700Y-77531000D01*
G75*
G02*
X172036700Y-77691000I0J-160000D01*
G01*
X172036700Y-78086000D01*
G75*
G02*
X171876700Y-78246000I-160000J0D01*
G01*
X171556700Y-78246000D01*
G75*
G02*
X171396700Y-78086000I0J160000D01*
G01*
X171396700Y-77691000D01*
G75*
G02*
X171556700Y-77531000I160000J0D01*
G01*
G37*
%TD*%
%TO.C,R40*%
G36*
G01*
X175950900Y-78726000D02*
X176270900Y-78726000D01*
G75*
G02*
X176430900Y-78886000I0J-160000D01*
G01*
X176430900Y-79281000D01*
G75*
G02*
X176270900Y-79441000I-160000J0D01*
G01*
X175950900Y-79441000D01*
G75*
G02*
X175790900Y-79281000I0J160000D01*
G01*
X175790900Y-78886000D01*
G75*
G02*
X175950900Y-78726000I160000J0D01*
G01*
G37*
G36*
G01*
X175950900Y-77531000D02*
X176270900Y-77531000D01*
G75*
G02*
X176430900Y-77691000I0J-160000D01*
G01*
X176430900Y-78086000D01*
G75*
G02*
X176270900Y-78246000I-160000J0D01*
G01*
X175950900Y-78246000D01*
G75*
G02*
X175790900Y-78086000I0J160000D01*
G01*
X175790900Y-77691000D01*
G75*
G02*
X175950900Y-77531000I160000J0D01*
G01*
G37*
%TD*%
%TO.C,R13*%
G36*
G01*
X177043100Y-78726000D02*
X177363100Y-78726000D01*
G75*
G02*
X177523100Y-78886000I0J-160000D01*
G01*
X177523100Y-79281000D01*
G75*
G02*
X177363100Y-79441000I-160000J0D01*
G01*
X177043100Y-79441000D01*
G75*
G02*
X176883100Y-79281000I0J160000D01*
G01*
X176883100Y-78886000D01*
G75*
G02*
X177043100Y-78726000I160000J0D01*
G01*
G37*
G36*
G01*
X177043100Y-77531000D02*
X177363100Y-77531000D01*
G75*
G02*
X177523100Y-77691000I0J-160000D01*
G01*
X177523100Y-78086000D01*
G75*
G02*
X177363100Y-78246000I-160000J0D01*
G01*
X177043100Y-78246000D01*
G75*
G02*
X176883100Y-78086000I0J160000D01*
G01*
X176883100Y-77691000D01*
G75*
G02*
X177043100Y-77531000I160000J0D01*
G01*
G37*
%TD*%
%TO.C,R12*%
G36*
G01*
X178135300Y-78726000D02*
X178455300Y-78726000D01*
G75*
G02*
X178615300Y-78886000I0J-160000D01*
G01*
X178615300Y-79281000D01*
G75*
G02*
X178455300Y-79441000I-160000J0D01*
G01*
X178135300Y-79441000D01*
G75*
G02*
X177975300Y-79281000I0J160000D01*
G01*
X177975300Y-78886000D01*
G75*
G02*
X178135300Y-78726000I160000J0D01*
G01*
G37*
G36*
G01*
X178135300Y-77531000D02*
X178455300Y-77531000D01*
G75*
G02*
X178615300Y-77691000I0J-160000D01*
G01*
X178615300Y-78086000D01*
G75*
G02*
X178455300Y-78246000I-160000J0D01*
G01*
X178135300Y-78246000D01*
G75*
G02*
X177975300Y-78086000I0J160000D01*
G01*
X177975300Y-77691000D01*
G75*
G02*
X178135300Y-77531000I160000J0D01*
G01*
G37*
%TD*%
%TO.C,R10*%
G36*
G01*
X163390600Y-101052600D02*
X163710600Y-101052600D01*
G75*
G02*
X163870600Y-101212600I0J-160000D01*
G01*
X163870600Y-101607600D01*
G75*
G02*
X163710600Y-101767600I-160000J0D01*
G01*
X163390600Y-101767600D01*
G75*
G02*
X163230600Y-101607600I0J160000D01*
G01*
X163230600Y-101212600D01*
G75*
G02*
X163390600Y-101052600I160000J0D01*
G01*
G37*
G36*
G01*
X163390600Y-99857600D02*
X163710600Y-99857600D01*
G75*
G02*
X163870600Y-100017600I0J-160000D01*
G01*
X163870600Y-100412600D01*
G75*
G02*
X163710600Y-100572600I-160000J0D01*
G01*
X163390600Y-100572600D01*
G75*
G02*
X163230600Y-100412600I0J160000D01*
G01*
X163230600Y-100017600D01*
G75*
G02*
X163390600Y-99857600I160000J0D01*
G01*
G37*
%TD*%
D19*
%TO.C,J14*%
X162250000Y-147287500D03*
X155250000Y-147287500D03*
D20*
X161250000Y-144587500D03*
X156250000Y-144587500D03*
%TD*%
%TO.C,C15*%
G36*
G01*
X152454000Y-100492500D02*
X152454000Y-100802500D01*
G75*
G02*
X152299000Y-100957500I-155000J0D01*
G01*
X151874000Y-100957500D01*
G75*
G02*
X151719000Y-100802500I0J155000D01*
G01*
X151719000Y-100492500D01*
G75*
G02*
X151874000Y-100337500I155000J0D01*
G01*
X152299000Y-100337500D01*
G75*
G02*
X152454000Y-100492500I0J-155000D01*
G01*
G37*
G36*
G01*
X153589000Y-100492500D02*
X153589000Y-100802500D01*
G75*
G02*
X153434000Y-100957500I-155000J0D01*
G01*
X153009000Y-100957500D01*
G75*
G02*
X152854000Y-100802500I0J155000D01*
G01*
X152854000Y-100492500D01*
G75*
G02*
X153009000Y-100337500I155000J0D01*
G01*
X153434000Y-100337500D01*
G75*
G02*
X153589000Y-100492500I0J-155000D01*
G01*
G37*
%TD*%
M02*
