%TF.GenerationSoftware,KiCad,Pcbnew,(5.1.8-0-10_14)*%
%TF.CreationDate,2021-04-08T13:24:54+01:00*%
%TF.ProjectId,STM32MP1_TestBoard_RevB,53544d33-324d-4503-915f-54657374426f,rev?*%
%TF.SameCoordinates,Original*%
%TF.FileFunction,Paste,Bot*%
%TF.FilePolarity,Positive*%
%FSLAX46Y46*%
G04 Gerber Fmt 4.6, Leading zero omitted, Abs format (unit mm)*
G04 Created by KiCad (PCBNEW (5.1.8-0-10_14)) date 2021-04-08 13:24:54*
%MOMM*%
%LPD*%
G01*
G04 APERTURE LIST*
%ADD10R,5.700000X1.600000*%
%ADD11R,0.650000X1.560000*%
%ADD12R,1.100000X1.050000*%
%ADD13R,1.300000X1.100000*%
%ADD14R,0.900000X0.800000*%
G04 APERTURE END LIST*
%TO.C,R15*%
G36*
G01*
X175194000Y-98585000D02*
X175194000Y-98265000D01*
G75*
G02*
X175354000Y-98105000I160000J0D01*
G01*
X175749000Y-98105000D01*
G75*
G02*
X175909000Y-98265000I0J-160000D01*
G01*
X175909000Y-98585000D01*
G75*
G02*
X175749000Y-98745000I-160000J0D01*
G01*
X175354000Y-98745000D01*
G75*
G02*
X175194000Y-98585000I0J160000D01*
G01*
G37*
G36*
G01*
X176389000Y-98585000D02*
X176389000Y-98265000D01*
G75*
G02*
X176549000Y-98105000I160000J0D01*
G01*
X176944000Y-98105000D01*
G75*
G02*
X177104000Y-98265000I0J-160000D01*
G01*
X177104000Y-98585000D01*
G75*
G02*
X176944000Y-98745000I-160000J0D01*
G01*
X176549000Y-98745000D01*
G75*
G02*
X176389000Y-98585000I0J160000D01*
G01*
G37*
%TD*%
%TO.C,R4*%
G36*
G01*
X197706000Y-128002000D02*
X198026000Y-128002000D01*
G75*
G02*
X198186000Y-128162000I0J-160000D01*
G01*
X198186000Y-128557000D01*
G75*
G02*
X198026000Y-128717000I-160000J0D01*
G01*
X197706000Y-128717000D01*
G75*
G02*
X197546000Y-128557000I0J160000D01*
G01*
X197546000Y-128162000D01*
G75*
G02*
X197706000Y-128002000I160000J0D01*
G01*
G37*
G36*
G01*
X197706000Y-126807000D02*
X198026000Y-126807000D01*
G75*
G02*
X198186000Y-126967000I0J-160000D01*
G01*
X198186000Y-127362000D01*
G75*
G02*
X198026000Y-127522000I-160000J0D01*
G01*
X197706000Y-127522000D01*
G75*
G02*
X197546000Y-127362000I0J160000D01*
G01*
X197546000Y-126967000D01*
G75*
G02*
X197706000Y-126807000I160000J0D01*
G01*
G37*
%TD*%
%TO.C,R3*%
G36*
G01*
X197706000Y-123811000D02*
X198026000Y-123811000D01*
G75*
G02*
X198186000Y-123971000I0J-160000D01*
G01*
X198186000Y-124366000D01*
G75*
G02*
X198026000Y-124526000I-160000J0D01*
G01*
X197706000Y-124526000D01*
G75*
G02*
X197546000Y-124366000I0J160000D01*
G01*
X197546000Y-123971000D01*
G75*
G02*
X197706000Y-123811000I160000J0D01*
G01*
G37*
G36*
G01*
X197706000Y-122616000D02*
X198026000Y-122616000D01*
G75*
G02*
X198186000Y-122776000I0J-160000D01*
G01*
X198186000Y-123171000D01*
G75*
G02*
X198026000Y-123331000I-160000J0D01*
G01*
X197706000Y-123331000D01*
G75*
G02*
X197546000Y-123171000I0J160000D01*
G01*
X197546000Y-122776000D01*
G75*
G02*
X197706000Y-122616000I160000J0D01*
G01*
G37*
%TD*%
%TO.C,C43*%
G36*
G01*
X170925500Y-117785000D02*
X170450500Y-117785000D01*
G75*
G02*
X170213000Y-117547500I0J237500D01*
G01*
X170213000Y-116947500D01*
G75*
G02*
X170450500Y-116710000I237500J0D01*
G01*
X170925500Y-116710000D01*
G75*
G02*
X171163000Y-116947500I0J-237500D01*
G01*
X171163000Y-117547500D01*
G75*
G02*
X170925500Y-117785000I-237500J0D01*
G01*
G37*
G36*
G01*
X170925500Y-119510000D02*
X170450500Y-119510000D01*
G75*
G02*
X170213000Y-119272500I0J237500D01*
G01*
X170213000Y-118672500D01*
G75*
G02*
X170450500Y-118435000I237500J0D01*
G01*
X170925500Y-118435000D01*
G75*
G02*
X171163000Y-118672500I0J-237500D01*
G01*
X171163000Y-119272500D01*
G75*
G02*
X170925500Y-119510000I-237500J0D01*
G01*
G37*
%TD*%
%TO.C,C39*%
G36*
G01*
X167950000Y-133239500D02*
X167950000Y-133714500D01*
G75*
G02*
X167712500Y-133952000I-237500J0D01*
G01*
X167112500Y-133952000D01*
G75*
G02*
X166875000Y-133714500I0J237500D01*
G01*
X166875000Y-133239500D01*
G75*
G02*
X167112500Y-133002000I237500J0D01*
G01*
X167712500Y-133002000D01*
G75*
G02*
X167950000Y-133239500I0J-237500D01*
G01*
G37*
G36*
G01*
X169675000Y-133239500D02*
X169675000Y-133714500D01*
G75*
G02*
X169437500Y-133952000I-237500J0D01*
G01*
X168837500Y-133952000D01*
G75*
G02*
X168600000Y-133714500I0J237500D01*
G01*
X168600000Y-133239500D01*
G75*
G02*
X168837500Y-133002000I237500J0D01*
G01*
X169437500Y-133002000D01*
G75*
G02*
X169675000Y-133239500I0J-237500D01*
G01*
G37*
%TD*%
%TO.C,C6*%
G36*
G01*
X185575000Y-122990000D02*
X185265000Y-122990000D01*
G75*
G02*
X185110000Y-122835000I0J155000D01*
G01*
X185110000Y-122410000D01*
G75*
G02*
X185265000Y-122255000I155000J0D01*
G01*
X185575000Y-122255000D01*
G75*
G02*
X185730000Y-122410000I0J-155000D01*
G01*
X185730000Y-122835000D01*
G75*
G02*
X185575000Y-122990000I-155000J0D01*
G01*
G37*
G36*
G01*
X185575000Y-124125000D02*
X185265000Y-124125000D01*
G75*
G02*
X185110000Y-123970000I0J155000D01*
G01*
X185110000Y-123545000D01*
G75*
G02*
X185265000Y-123390000I155000J0D01*
G01*
X185575000Y-123390000D01*
G75*
G02*
X185730000Y-123545000I0J-155000D01*
G01*
X185730000Y-123970000D01*
G75*
G02*
X185575000Y-124125000I-155000J0D01*
G01*
G37*
%TD*%
%TO.C,C4*%
G36*
G01*
X194383000Y-123218000D02*
X194383000Y-122908000D01*
G75*
G02*
X194538000Y-122753000I155000J0D01*
G01*
X194963000Y-122753000D01*
G75*
G02*
X195118000Y-122908000I0J-155000D01*
G01*
X195118000Y-123218000D01*
G75*
G02*
X194963000Y-123373000I-155000J0D01*
G01*
X194538000Y-123373000D01*
G75*
G02*
X194383000Y-123218000I0J155000D01*
G01*
G37*
G36*
G01*
X193248000Y-123218000D02*
X193248000Y-122908000D01*
G75*
G02*
X193403000Y-122753000I155000J0D01*
G01*
X193828000Y-122753000D01*
G75*
G02*
X193983000Y-122908000I0J-155000D01*
G01*
X193983000Y-123218000D01*
G75*
G02*
X193828000Y-123373000I-155000J0D01*
G01*
X193403000Y-123373000D01*
G75*
G02*
X193248000Y-123218000I0J155000D01*
G01*
G37*
%TD*%
%TO.C,C3*%
G36*
G01*
X169009000Y-137106000D02*
X169319000Y-137106000D01*
G75*
G02*
X169474000Y-137261000I0J-155000D01*
G01*
X169474000Y-137686000D01*
G75*
G02*
X169319000Y-137841000I-155000J0D01*
G01*
X169009000Y-137841000D01*
G75*
G02*
X168854000Y-137686000I0J155000D01*
G01*
X168854000Y-137261000D01*
G75*
G02*
X169009000Y-137106000I155000J0D01*
G01*
G37*
G36*
G01*
X169009000Y-135971000D02*
X169319000Y-135971000D01*
G75*
G02*
X169474000Y-136126000I0J-155000D01*
G01*
X169474000Y-136551000D01*
G75*
G02*
X169319000Y-136706000I-155000J0D01*
G01*
X169009000Y-136706000D01*
G75*
G02*
X168854000Y-136551000I0J155000D01*
G01*
X168854000Y-136126000D01*
G75*
G02*
X169009000Y-135971000I155000J0D01*
G01*
G37*
%TD*%
%TO.C,C1*%
G36*
G01*
X180058000Y-133677000D02*
X180368000Y-133677000D01*
G75*
G02*
X180523000Y-133832000I0J-155000D01*
G01*
X180523000Y-134257000D01*
G75*
G02*
X180368000Y-134412000I-155000J0D01*
G01*
X180058000Y-134412000D01*
G75*
G02*
X179903000Y-134257000I0J155000D01*
G01*
X179903000Y-133832000D01*
G75*
G02*
X180058000Y-133677000I155000J0D01*
G01*
G37*
G36*
G01*
X180058000Y-132542000D02*
X180368000Y-132542000D01*
G75*
G02*
X180523000Y-132697000I0J-155000D01*
G01*
X180523000Y-133122000D01*
G75*
G02*
X180368000Y-133277000I-155000J0D01*
G01*
X180058000Y-133277000D01*
G75*
G02*
X179903000Y-133122000I0J155000D01*
G01*
X179903000Y-132697000D01*
G75*
G02*
X180058000Y-132542000I155000J0D01*
G01*
G37*
%TD*%
D10*
%TO.C,L2*%
X180975000Y-118300000D03*
X180975000Y-123000000D03*
%TD*%
D11*
%TO.C,U6*%
X173990000Y-120984000D03*
X173040000Y-120984000D03*
X174940000Y-120984000D03*
X174940000Y-118284000D03*
X173990000Y-118284000D03*
X173040000Y-118284000D03*
%TD*%
%TO.C,U5*%
X169164000Y-131017000D03*
X168214000Y-131017000D03*
X170114000Y-131017000D03*
X170114000Y-128317000D03*
X169164000Y-128317000D03*
X168214000Y-128317000D03*
%TD*%
%TO.C,R26*%
G36*
G01*
X174846000Y-127748000D02*
X175166000Y-127748000D01*
G75*
G02*
X175326000Y-127908000I0J-160000D01*
G01*
X175326000Y-128303000D01*
G75*
G02*
X175166000Y-128463000I-160000J0D01*
G01*
X174846000Y-128463000D01*
G75*
G02*
X174686000Y-128303000I0J160000D01*
G01*
X174686000Y-127908000D01*
G75*
G02*
X174846000Y-127748000I160000J0D01*
G01*
G37*
G36*
G01*
X174846000Y-126553000D02*
X175166000Y-126553000D01*
G75*
G02*
X175326000Y-126713000I0J-160000D01*
G01*
X175326000Y-127108000D01*
G75*
G02*
X175166000Y-127268000I-160000J0D01*
G01*
X174846000Y-127268000D01*
G75*
G02*
X174686000Y-127108000I0J160000D01*
G01*
X174686000Y-126713000D01*
G75*
G02*
X174846000Y-126553000I160000J0D01*
G01*
G37*
%TD*%
%TO.C,C44*%
G36*
G01*
X172819000Y-127708000D02*
X173129000Y-127708000D01*
G75*
G02*
X173284000Y-127863000I0J-155000D01*
G01*
X173284000Y-128288000D01*
G75*
G02*
X173129000Y-128443000I-155000J0D01*
G01*
X172819000Y-128443000D01*
G75*
G02*
X172664000Y-128288000I0J155000D01*
G01*
X172664000Y-127863000D01*
G75*
G02*
X172819000Y-127708000I155000J0D01*
G01*
G37*
G36*
G01*
X172819000Y-126573000D02*
X173129000Y-126573000D01*
G75*
G02*
X173284000Y-126728000I0J-155000D01*
G01*
X173284000Y-127153000D01*
G75*
G02*
X173129000Y-127308000I-155000J0D01*
G01*
X172819000Y-127308000D01*
G75*
G02*
X172664000Y-127153000I0J155000D01*
G01*
X172664000Y-126728000D01*
G75*
G02*
X172819000Y-126573000I155000J0D01*
G01*
G37*
%TD*%
%TO.C,C41*%
G36*
G01*
X168456000Y-123543000D02*
X168456000Y-123853000D01*
G75*
G02*
X168301000Y-124008000I-155000J0D01*
G01*
X167876000Y-124008000D01*
G75*
G02*
X167721000Y-123853000I0J155000D01*
G01*
X167721000Y-123543000D01*
G75*
G02*
X167876000Y-123388000I155000J0D01*
G01*
X168301000Y-123388000D01*
G75*
G02*
X168456000Y-123543000I0J-155000D01*
G01*
G37*
G36*
G01*
X169591000Y-123543000D02*
X169591000Y-123853000D01*
G75*
G02*
X169436000Y-124008000I-155000J0D01*
G01*
X169011000Y-124008000D01*
G75*
G02*
X168856000Y-123853000I0J155000D01*
G01*
X168856000Y-123543000D01*
G75*
G02*
X169011000Y-123388000I155000J0D01*
G01*
X169436000Y-123388000D01*
G75*
G02*
X169591000Y-123543000I0J-155000D01*
G01*
G37*
%TD*%
%TO.C,C38*%
G36*
G01*
X162995000Y-77950000D02*
X162995000Y-78260000D01*
G75*
G02*
X162840000Y-78415000I-155000J0D01*
G01*
X162415000Y-78415000D01*
G75*
G02*
X162260000Y-78260000I0J155000D01*
G01*
X162260000Y-77950000D01*
G75*
G02*
X162415000Y-77795000I155000J0D01*
G01*
X162840000Y-77795000D01*
G75*
G02*
X162995000Y-77950000I0J-155000D01*
G01*
G37*
G36*
G01*
X164130000Y-77950000D02*
X164130000Y-78260000D01*
G75*
G02*
X163975000Y-78415000I-155000J0D01*
G01*
X163550000Y-78415000D01*
G75*
G02*
X163395000Y-78260000I0J155000D01*
G01*
X163395000Y-77950000D01*
G75*
G02*
X163550000Y-77795000I155000J0D01*
G01*
X163975000Y-77795000D01*
G75*
G02*
X164130000Y-77950000I0J-155000D01*
G01*
G37*
%TD*%
%TO.C,R25*%
G36*
G01*
X151438000Y-106144000D02*
X151438000Y-106454000D01*
G75*
G02*
X151283000Y-106609000I-155000J0D01*
G01*
X150858000Y-106609000D01*
G75*
G02*
X150703000Y-106454000I0J155000D01*
G01*
X150703000Y-106144000D01*
G75*
G02*
X150858000Y-105989000I155000J0D01*
G01*
X151283000Y-105989000D01*
G75*
G02*
X151438000Y-106144000I0J-155000D01*
G01*
G37*
G36*
G01*
X152573000Y-106144000D02*
X152573000Y-106454000D01*
G75*
G02*
X152418000Y-106609000I-155000J0D01*
G01*
X151993000Y-106609000D01*
G75*
G02*
X151838000Y-106454000I0J155000D01*
G01*
X151838000Y-106144000D01*
G75*
G02*
X151993000Y-105989000I155000J0D01*
G01*
X152418000Y-105989000D01*
G75*
G02*
X152573000Y-106144000I0J-155000D01*
G01*
G37*
%TD*%
%TO.C,C37*%
G36*
G01*
X141196000Y-110436000D02*
X141506000Y-110436000D01*
G75*
G02*
X141661000Y-110591000I0J-155000D01*
G01*
X141661000Y-111016000D01*
G75*
G02*
X141506000Y-111171000I-155000J0D01*
G01*
X141196000Y-111171000D01*
G75*
G02*
X141041000Y-111016000I0J155000D01*
G01*
X141041000Y-110591000D01*
G75*
G02*
X141196000Y-110436000I155000J0D01*
G01*
G37*
G36*
G01*
X141196000Y-109301000D02*
X141506000Y-109301000D01*
G75*
G02*
X141661000Y-109456000I0J-155000D01*
G01*
X141661000Y-109881000D01*
G75*
G02*
X141506000Y-110036000I-155000J0D01*
G01*
X141196000Y-110036000D01*
G75*
G02*
X141041000Y-109881000I0J155000D01*
G01*
X141041000Y-109456000D01*
G75*
G02*
X141196000Y-109301000I155000J0D01*
G01*
G37*
%TD*%
%TO.C,R24*%
G36*
G01*
X149319000Y-92569000D02*
X149639000Y-92569000D01*
G75*
G02*
X149799000Y-92729000I0J-160000D01*
G01*
X149799000Y-93124000D01*
G75*
G02*
X149639000Y-93284000I-160000J0D01*
G01*
X149319000Y-93284000D01*
G75*
G02*
X149159000Y-93124000I0J160000D01*
G01*
X149159000Y-92729000D01*
G75*
G02*
X149319000Y-92569000I160000J0D01*
G01*
G37*
G36*
G01*
X149319000Y-91374000D02*
X149639000Y-91374000D01*
G75*
G02*
X149799000Y-91534000I0J-160000D01*
G01*
X149799000Y-91929000D01*
G75*
G02*
X149639000Y-92089000I-160000J0D01*
G01*
X149319000Y-92089000D01*
G75*
G02*
X149159000Y-91929000I0J160000D01*
G01*
X149159000Y-91534000D01*
G75*
G02*
X149319000Y-91374000I160000J0D01*
G01*
G37*
%TD*%
%TO.C,C11*%
G36*
G01*
X144554000Y-102035000D02*
X144244000Y-102035000D01*
G75*
G02*
X144089000Y-101880000I0J155000D01*
G01*
X144089000Y-101455000D01*
G75*
G02*
X144244000Y-101300000I155000J0D01*
G01*
X144554000Y-101300000D01*
G75*
G02*
X144709000Y-101455000I0J-155000D01*
G01*
X144709000Y-101880000D01*
G75*
G02*
X144554000Y-102035000I-155000J0D01*
G01*
G37*
G36*
G01*
X144554000Y-103170000D02*
X144244000Y-103170000D01*
G75*
G02*
X144089000Y-103015000I0J155000D01*
G01*
X144089000Y-102590000D01*
G75*
G02*
X144244000Y-102435000I155000J0D01*
G01*
X144554000Y-102435000D01*
G75*
G02*
X144709000Y-102590000I0J-155000D01*
G01*
X144709000Y-103015000D01*
G75*
G02*
X144554000Y-103170000I-155000J0D01*
G01*
G37*
%TD*%
%TO.C,C16*%
G36*
G01*
X144244000Y-104721000D02*
X144554000Y-104721000D01*
G75*
G02*
X144709000Y-104876000I0J-155000D01*
G01*
X144709000Y-105301000D01*
G75*
G02*
X144554000Y-105456000I-155000J0D01*
G01*
X144244000Y-105456000D01*
G75*
G02*
X144089000Y-105301000I0J155000D01*
G01*
X144089000Y-104876000D01*
G75*
G02*
X144244000Y-104721000I155000J0D01*
G01*
G37*
G36*
G01*
X144244000Y-103586000D02*
X144554000Y-103586000D01*
G75*
G02*
X144709000Y-103741000I0J-155000D01*
G01*
X144709000Y-104166000D01*
G75*
G02*
X144554000Y-104321000I-155000J0D01*
G01*
X144244000Y-104321000D01*
G75*
G02*
X144089000Y-104166000I0J155000D01*
G01*
X144089000Y-103741000D01*
G75*
G02*
X144244000Y-103586000I155000J0D01*
G01*
G37*
%TD*%
D12*
%TO.C,Y1*%
X145923000Y-104252200D03*
X145923000Y-102402200D03*
%TD*%
D13*
%TO.C,X1*%
X143095000Y-110680000D03*
X145195000Y-110680000D03*
X145195000Y-109030000D03*
X143095000Y-109030000D03*
%TD*%
%TO.C,R23*%
G36*
G01*
X147287000Y-103999000D02*
X147607000Y-103999000D01*
G75*
G02*
X147767000Y-104159000I0J-160000D01*
G01*
X147767000Y-104554000D01*
G75*
G02*
X147607000Y-104714000I-160000J0D01*
G01*
X147287000Y-104714000D01*
G75*
G02*
X147127000Y-104554000I0J160000D01*
G01*
X147127000Y-104159000D01*
G75*
G02*
X147287000Y-103999000I160000J0D01*
G01*
G37*
G36*
G01*
X147287000Y-102804000D02*
X147607000Y-102804000D01*
G75*
G02*
X147767000Y-102964000I0J-160000D01*
G01*
X147767000Y-103359000D01*
G75*
G02*
X147607000Y-103519000I-160000J0D01*
G01*
X147287000Y-103519000D01*
G75*
G02*
X147127000Y-103359000I0J160000D01*
G01*
X147127000Y-102964000D01*
G75*
G02*
X147287000Y-102804000I160000J0D01*
G01*
G37*
%TD*%
%TO.C,R22*%
G36*
G01*
X147226000Y-108472000D02*
X146906000Y-108472000D01*
G75*
G02*
X146746000Y-108312000I0J160000D01*
G01*
X146746000Y-107917000D01*
G75*
G02*
X146906000Y-107757000I160000J0D01*
G01*
X147226000Y-107757000D01*
G75*
G02*
X147386000Y-107917000I0J-160000D01*
G01*
X147386000Y-108312000D01*
G75*
G02*
X147226000Y-108472000I-160000J0D01*
G01*
G37*
G36*
G01*
X147226000Y-109667000D02*
X146906000Y-109667000D01*
G75*
G02*
X146746000Y-109507000I0J160000D01*
G01*
X146746000Y-109112000D01*
G75*
G02*
X146906000Y-108952000I160000J0D01*
G01*
X147226000Y-108952000D01*
G75*
G02*
X147386000Y-109112000I0J-160000D01*
G01*
X147386000Y-109507000D01*
G75*
G02*
X147226000Y-109667000I-160000J0D01*
G01*
G37*
%TD*%
%TO.C,R21*%
G36*
G01*
X140956000Y-108745000D02*
X140956000Y-108425000D01*
G75*
G02*
X141116000Y-108265000I160000J0D01*
G01*
X141511000Y-108265000D01*
G75*
G02*
X141671000Y-108425000I0J-160000D01*
G01*
X141671000Y-108745000D01*
G75*
G02*
X141511000Y-108905000I-160000J0D01*
G01*
X141116000Y-108905000D01*
G75*
G02*
X140956000Y-108745000I0J160000D01*
G01*
G37*
G36*
G01*
X139761000Y-108745000D02*
X139761000Y-108425000D01*
G75*
G02*
X139921000Y-108265000I160000J0D01*
G01*
X140316000Y-108265000D01*
G75*
G02*
X140476000Y-108425000I0J-160000D01*
G01*
X140476000Y-108745000D01*
G75*
G02*
X140316000Y-108905000I-160000J0D01*
G01*
X139921000Y-108905000D01*
G75*
G02*
X139761000Y-108745000I0J160000D01*
G01*
G37*
%TD*%
%TO.C,R20*%
G36*
G01*
X139921000Y-110476000D02*
X140241000Y-110476000D01*
G75*
G02*
X140401000Y-110636000I0J-160000D01*
G01*
X140401000Y-111031000D01*
G75*
G02*
X140241000Y-111191000I-160000J0D01*
G01*
X139921000Y-111191000D01*
G75*
G02*
X139761000Y-111031000I0J160000D01*
G01*
X139761000Y-110636000D01*
G75*
G02*
X139921000Y-110476000I160000J0D01*
G01*
G37*
G36*
G01*
X139921000Y-109281000D02*
X140241000Y-109281000D01*
G75*
G02*
X140401000Y-109441000I0J-160000D01*
G01*
X140401000Y-109836000D01*
G75*
G02*
X140241000Y-109996000I-160000J0D01*
G01*
X139921000Y-109996000D01*
G75*
G02*
X139761000Y-109836000I0J160000D01*
G01*
X139761000Y-109441000D01*
G75*
G02*
X139921000Y-109281000I160000J0D01*
G01*
G37*
%TD*%
%TO.C,R19*%
G36*
G01*
X173750000Y-129888000D02*
X173750000Y-130208000D01*
G75*
G02*
X173590000Y-130368000I-160000J0D01*
G01*
X173195000Y-130368000D01*
G75*
G02*
X173035000Y-130208000I0J160000D01*
G01*
X173035000Y-129888000D01*
G75*
G02*
X173195000Y-129728000I160000J0D01*
G01*
X173590000Y-129728000D01*
G75*
G02*
X173750000Y-129888000I0J-160000D01*
G01*
G37*
G36*
G01*
X174945000Y-129888000D02*
X174945000Y-130208000D01*
G75*
G02*
X174785000Y-130368000I-160000J0D01*
G01*
X174390000Y-130368000D01*
G75*
G02*
X174230000Y-130208000I0J160000D01*
G01*
X174230000Y-129888000D01*
G75*
G02*
X174390000Y-129728000I160000J0D01*
G01*
X174785000Y-129728000D01*
G75*
G02*
X174945000Y-129888000I0J-160000D01*
G01*
G37*
%TD*%
%TO.C,R18*%
G36*
G01*
X173750000Y-123538000D02*
X173750000Y-123858000D01*
G75*
G02*
X173590000Y-124018000I-160000J0D01*
G01*
X173195000Y-124018000D01*
G75*
G02*
X173035000Y-123858000I0J160000D01*
G01*
X173035000Y-123538000D01*
G75*
G02*
X173195000Y-123378000I160000J0D01*
G01*
X173590000Y-123378000D01*
G75*
G02*
X173750000Y-123538000I0J-160000D01*
G01*
G37*
G36*
G01*
X174945000Y-123538000D02*
X174945000Y-123858000D01*
G75*
G02*
X174785000Y-124018000I-160000J0D01*
G01*
X174390000Y-124018000D01*
G75*
G02*
X174230000Y-123858000I0J160000D01*
G01*
X174230000Y-123538000D01*
G75*
G02*
X174390000Y-123378000I160000J0D01*
G01*
X174785000Y-123378000D01*
G75*
G02*
X174945000Y-123538000I0J-160000D01*
G01*
G37*
%TD*%
%TO.C,C57*%
G36*
G01*
X190705207Y-97089934D02*
X190486004Y-96870731D01*
G75*
G02*
X190486004Y-96651527I109602J109602D01*
G01*
X190786525Y-96351006D01*
G75*
G02*
X191005729Y-96351006I109602J-109602D01*
G01*
X191224932Y-96570209D01*
G75*
G02*
X191224932Y-96789413I-109602J-109602D01*
G01*
X190924411Y-97089934D01*
G75*
G02*
X190705207Y-97089934I-109602J109602D01*
G01*
G37*
G36*
G01*
X191507773Y-96287368D02*
X191288570Y-96068165D01*
G75*
G02*
X191288570Y-95848961I109602J109602D01*
G01*
X191589091Y-95548440D01*
G75*
G02*
X191808295Y-95548440I109602J-109602D01*
G01*
X192027498Y-95767643D01*
G75*
G02*
X192027498Y-95986847I-109602J-109602D01*
G01*
X191726977Y-96287368D01*
G75*
G02*
X191507773Y-96287368I-109602J109602D01*
G01*
G37*
%TD*%
%TO.C,C40*%
G36*
G01*
X192627508Y-111185465D02*
X192846711Y-110966262D01*
G75*
G02*
X193065915Y-110966262I109602J-109602D01*
G01*
X193366436Y-111266783D01*
G75*
G02*
X193366436Y-111485987I-109602J-109602D01*
G01*
X193147233Y-111705190D01*
G75*
G02*
X192928029Y-111705190I-109602J109602D01*
G01*
X192627508Y-111404669D01*
G75*
G02*
X192627508Y-111185465I109602J109602D01*
G01*
G37*
G36*
G01*
X193430074Y-111988031D02*
X193649277Y-111768828D01*
G75*
G02*
X193868481Y-111768828I109602J-109602D01*
G01*
X194169002Y-112069349D01*
G75*
G02*
X194169002Y-112288553I-109602J-109602D01*
G01*
X193949799Y-112507756D01*
G75*
G02*
X193730595Y-112507756I-109602J109602D01*
G01*
X193430074Y-112207235D01*
G75*
G02*
X193430074Y-111988031I109602J109602D01*
G01*
G37*
%TD*%
%TO.C,R2*%
G36*
G01*
X179842200Y-107513100D02*
X179842200Y-107193100D01*
G75*
G02*
X180002200Y-107033100I160000J0D01*
G01*
X180397200Y-107033100D01*
G75*
G02*
X180557200Y-107193100I0J-160000D01*
G01*
X180557200Y-107513100D01*
G75*
G02*
X180397200Y-107673100I-160000J0D01*
G01*
X180002200Y-107673100D01*
G75*
G02*
X179842200Y-107513100I0J160000D01*
G01*
G37*
G36*
G01*
X181037200Y-107513100D02*
X181037200Y-107193100D01*
G75*
G02*
X181197200Y-107033100I160000J0D01*
G01*
X181592200Y-107033100D01*
G75*
G02*
X181752200Y-107193100I0J-160000D01*
G01*
X181752200Y-107513100D01*
G75*
G02*
X181592200Y-107673100I-160000J0D01*
G01*
X181197200Y-107673100D01*
G75*
G02*
X181037200Y-107513100I0J160000D01*
G01*
G37*
%TD*%
%TO.C,C62*%
G36*
G01*
X192177969Y-98562696D02*
X191958766Y-98343493D01*
G75*
G02*
X191958766Y-98124289I109602J109602D01*
G01*
X192259287Y-97823768D01*
G75*
G02*
X192478491Y-97823768I109602J-109602D01*
G01*
X192697694Y-98042971D01*
G75*
G02*
X192697694Y-98262175I-109602J-109602D01*
G01*
X192397173Y-98562696D01*
G75*
G02*
X192177969Y-98562696I-109602J109602D01*
G01*
G37*
G36*
G01*
X192980535Y-97760130D02*
X192761332Y-97540927D01*
G75*
G02*
X192761332Y-97321723I109602J109602D01*
G01*
X193061853Y-97021202D01*
G75*
G02*
X193281057Y-97021202I109602J-109602D01*
G01*
X193500260Y-97240405D01*
G75*
G02*
X193500260Y-97459609I-109602J-109602D01*
G01*
X193199739Y-97760130D01*
G75*
G02*
X192980535Y-97760130I-109602J109602D01*
G01*
G37*
%TD*%
%TO.C,R11*%
G36*
G01*
X181752200Y-108259900D02*
X181752200Y-108579900D01*
G75*
G02*
X181592200Y-108739900I-160000J0D01*
G01*
X181197200Y-108739900D01*
G75*
G02*
X181037200Y-108579900I0J160000D01*
G01*
X181037200Y-108259900D01*
G75*
G02*
X181197200Y-108099900I160000J0D01*
G01*
X181592200Y-108099900D01*
G75*
G02*
X181752200Y-108259900I0J-160000D01*
G01*
G37*
G36*
G01*
X180557200Y-108259900D02*
X180557200Y-108579900D01*
G75*
G02*
X180397200Y-108739900I-160000J0D01*
G01*
X180002200Y-108739900D01*
G75*
G02*
X179842200Y-108579900I0J160000D01*
G01*
X179842200Y-108259900D01*
G75*
G02*
X180002200Y-108099900I160000J0D01*
G01*
X180397200Y-108099900D01*
G75*
G02*
X180557200Y-108259900I0J-160000D01*
G01*
G37*
%TD*%
%TO.C,R14*%
G36*
G01*
X185625700Y-102913200D02*
X185625700Y-103233200D01*
G75*
G02*
X185465700Y-103393200I-160000J0D01*
G01*
X185070700Y-103393200D01*
G75*
G02*
X184910700Y-103233200I0J160000D01*
G01*
X184910700Y-102913200D01*
G75*
G02*
X185070700Y-102753200I160000J0D01*
G01*
X185465700Y-102753200D01*
G75*
G02*
X185625700Y-102913200I0J-160000D01*
G01*
G37*
G36*
G01*
X184430700Y-102913200D02*
X184430700Y-103233200D01*
G75*
G02*
X184270700Y-103393200I-160000J0D01*
G01*
X183875700Y-103393200D01*
G75*
G02*
X183715700Y-103233200I0J160000D01*
G01*
X183715700Y-102913200D01*
G75*
G02*
X183875700Y-102753200I160000J0D01*
G01*
X184270700Y-102753200D01*
G75*
G02*
X184430700Y-102913200I0J-160000D01*
G01*
G37*
%TD*%
%TO.C,C36*%
G36*
G01*
X188424222Y-94844870D02*
X188205019Y-94625667D01*
G75*
G02*
X188205019Y-94406463I109602J109602D01*
G01*
X188505540Y-94105942D01*
G75*
G02*
X188724744Y-94105942I109602J-109602D01*
G01*
X188943947Y-94325145D01*
G75*
G02*
X188943947Y-94544349I-109602J-109602D01*
G01*
X188643426Y-94844870D01*
G75*
G02*
X188424222Y-94844870I-109602J109602D01*
G01*
G37*
G36*
G01*
X189226788Y-94042304D02*
X189007585Y-93823101D01*
G75*
G02*
X189007585Y-93603897I109602J109602D01*
G01*
X189308106Y-93303376D01*
G75*
G02*
X189527310Y-93303376I109602J-109602D01*
G01*
X189746513Y-93522579D01*
G75*
G02*
X189746513Y-93741783I-109602J-109602D01*
G01*
X189445992Y-94042304D01*
G75*
G02*
X189226788Y-94042304I-109602J109602D01*
G01*
G37*
%TD*%
%TO.C,C52*%
G36*
G01*
X189196524Y-95617172D02*
X188977321Y-95397969D01*
G75*
G02*
X188977321Y-95178765I109602J109602D01*
G01*
X189277842Y-94878244D01*
G75*
G02*
X189497046Y-94878244I109602J-109602D01*
G01*
X189716249Y-95097447D01*
G75*
G02*
X189716249Y-95316651I-109602J-109602D01*
G01*
X189415728Y-95617172D01*
G75*
G02*
X189196524Y-95617172I-109602J109602D01*
G01*
G37*
G36*
G01*
X189999090Y-94814606D02*
X189779887Y-94595403D01*
G75*
G02*
X189779887Y-94376199I109602J109602D01*
G01*
X190080408Y-94075678D01*
G75*
G02*
X190299612Y-94075678I109602J-109602D01*
G01*
X190518815Y-94294881D01*
G75*
G02*
X190518815Y-94514085I-109602J-109602D01*
G01*
X190218294Y-94814606D01*
G75*
G02*
X189999090Y-94814606I-109602J109602D01*
G01*
G37*
%TD*%
%TO.C,C42*%
G36*
G01*
X191909088Y-111903886D02*
X192128291Y-111684683D01*
G75*
G02*
X192347495Y-111684683I109602J-109602D01*
G01*
X192648016Y-111985204D01*
G75*
G02*
X192648016Y-112204408I-109602J-109602D01*
G01*
X192428813Y-112423611D01*
G75*
G02*
X192209609Y-112423611I-109602J109602D01*
G01*
X191909088Y-112123090D01*
G75*
G02*
X191909088Y-111903886I109602J109602D01*
G01*
G37*
G36*
G01*
X192711654Y-112706452D02*
X192930857Y-112487249D01*
G75*
G02*
X193150061Y-112487249I109602J-109602D01*
G01*
X193450582Y-112787770D01*
G75*
G02*
X193450582Y-113006974I-109602J-109602D01*
G01*
X193231379Y-113226177D01*
G75*
G02*
X193012175Y-113226177I-109602J109602D01*
G01*
X192711654Y-112925656D01*
G75*
G02*
X192711654Y-112706452I109602J109602D01*
G01*
G37*
%TD*%
%TO.C,R6*%
G36*
G01*
X183474400Y-107525800D02*
X183474400Y-107205800D01*
G75*
G02*
X183634400Y-107045800I160000J0D01*
G01*
X184029400Y-107045800D01*
G75*
G02*
X184189400Y-107205800I0J-160000D01*
G01*
X184189400Y-107525800D01*
G75*
G02*
X184029400Y-107685800I-160000J0D01*
G01*
X183634400Y-107685800D01*
G75*
G02*
X183474400Y-107525800I0J160000D01*
G01*
G37*
G36*
G01*
X184669400Y-107525800D02*
X184669400Y-107205800D01*
G75*
G02*
X184829400Y-107045800I160000J0D01*
G01*
X185224400Y-107045800D01*
G75*
G02*
X185384400Y-107205800I0J-160000D01*
G01*
X185384400Y-107525800D01*
G75*
G02*
X185224400Y-107685800I-160000J0D01*
G01*
X184829400Y-107685800D01*
G75*
G02*
X184669400Y-107525800I0J160000D01*
G01*
G37*
%TD*%
%TO.C,C65*%
G36*
G01*
X191441588Y-97826315D02*
X191222385Y-97607112D01*
G75*
G02*
X191222385Y-97387908I109602J109602D01*
G01*
X191522906Y-97087387D01*
G75*
G02*
X191742110Y-97087387I109602J-109602D01*
G01*
X191961313Y-97306590D01*
G75*
G02*
X191961313Y-97525794I-109602J-109602D01*
G01*
X191660792Y-97826315D01*
G75*
G02*
X191441588Y-97826315I-109602J109602D01*
G01*
G37*
G36*
G01*
X192244154Y-97023749D02*
X192024951Y-96804546D01*
G75*
G02*
X192024951Y-96585342I109602J109602D01*
G01*
X192325472Y-96284821D01*
G75*
G02*
X192544676Y-96284821I109602J-109602D01*
G01*
X192763879Y-96504024D01*
G75*
G02*
X192763879Y-96723228I-109602J-109602D01*
G01*
X192463358Y-97023749D01*
G75*
G02*
X192244154Y-97023749I-109602J109602D01*
G01*
G37*
%TD*%
%TO.C,R52*%
G36*
G01*
X189940259Y-96389191D02*
X189713985Y-96162917D01*
G75*
G02*
X189713985Y-95936643I113137J113137D01*
G01*
X189993293Y-95657335D01*
G75*
G02*
X190219567Y-95657335I113137J-113137D01*
G01*
X190445841Y-95883609D01*
G75*
G02*
X190445841Y-96109883I-113137J-113137D01*
G01*
X190166533Y-96389191D01*
G75*
G02*
X189940259Y-96389191I-113137J113137D01*
G01*
G37*
G36*
G01*
X190785251Y-95544199D02*
X190558977Y-95317925D01*
G75*
G02*
X190558977Y-95091651I113137J113137D01*
G01*
X190838285Y-94812343D01*
G75*
G02*
X191064559Y-94812343I113137J-113137D01*
G01*
X191290833Y-95038617D01*
G75*
G02*
X191290833Y-95264891I-113137J-113137D01*
G01*
X191011525Y-95544199D01*
G75*
G02*
X190785251Y-95544199I-113137J113137D01*
G01*
G37*
%TD*%
%TO.C,R17*%
G36*
G01*
X151798000Y-146191000D02*
X151478000Y-146191000D01*
G75*
G02*
X151318000Y-146031000I0J160000D01*
G01*
X151318000Y-145636000D01*
G75*
G02*
X151478000Y-145476000I160000J0D01*
G01*
X151798000Y-145476000D01*
G75*
G02*
X151958000Y-145636000I0J-160000D01*
G01*
X151958000Y-146031000D01*
G75*
G02*
X151798000Y-146191000I-160000J0D01*
G01*
G37*
G36*
G01*
X151798000Y-147386000D02*
X151478000Y-147386000D01*
G75*
G02*
X151318000Y-147226000I0J160000D01*
G01*
X151318000Y-146831000D01*
G75*
G02*
X151478000Y-146671000I160000J0D01*
G01*
X151798000Y-146671000D01*
G75*
G02*
X151958000Y-146831000I0J-160000D01*
G01*
X151958000Y-147226000D01*
G75*
G02*
X151798000Y-147386000I-160000J0D01*
G01*
G37*
%TD*%
%TO.C,R16*%
G36*
G01*
X153176000Y-142842000D02*
X153176000Y-143162000D01*
G75*
G02*
X153016000Y-143322000I-160000J0D01*
G01*
X152621000Y-143322000D01*
G75*
G02*
X152461000Y-143162000I0J160000D01*
G01*
X152461000Y-142842000D01*
G75*
G02*
X152621000Y-142682000I160000J0D01*
G01*
X153016000Y-142682000D01*
G75*
G02*
X153176000Y-142842000I0J-160000D01*
G01*
G37*
G36*
G01*
X154371000Y-142842000D02*
X154371000Y-143162000D01*
G75*
G02*
X154211000Y-143322000I-160000J0D01*
G01*
X153816000Y-143322000D01*
G75*
G02*
X153656000Y-143162000I0J160000D01*
G01*
X153656000Y-142842000D01*
G75*
G02*
X153816000Y-142682000I160000J0D01*
G01*
X154211000Y-142682000D01*
G75*
G02*
X154371000Y-142842000I0J-160000D01*
G01*
G37*
%TD*%
%TO.C,C69*%
G36*
G01*
X162704500Y-98580000D02*
X162704500Y-98270000D01*
G75*
G02*
X162859500Y-98115000I155000J0D01*
G01*
X163284500Y-98115000D01*
G75*
G02*
X163439500Y-98270000I0J-155000D01*
G01*
X163439500Y-98580000D01*
G75*
G02*
X163284500Y-98735000I-155000J0D01*
G01*
X162859500Y-98735000D01*
G75*
G02*
X162704500Y-98580000I0J155000D01*
G01*
G37*
G36*
G01*
X163839500Y-98580000D02*
X163839500Y-98270000D01*
G75*
G02*
X163994500Y-98115000I155000J0D01*
G01*
X164419500Y-98115000D01*
G75*
G02*
X164574500Y-98270000I0J-155000D01*
G01*
X164574500Y-98580000D01*
G75*
G02*
X164419500Y-98735000I-155000J0D01*
G01*
X163994500Y-98735000D01*
G75*
G02*
X163839500Y-98580000I0J155000D01*
G01*
G37*
%TD*%
%TO.C,C70*%
G36*
G01*
X163365544Y-90224753D02*
X163584747Y-90443956D01*
G75*
G02*
X163584747Y-90663160I-109602J-109602D01*
G01*
X163284226Y-90963681D01*
G75*
G02*
X163065022Y-90963681I-109602J109602D01*
G01*
X162845819Y-90744478D01*
G75*
G02*
X162845819Y-90525274I109602J109602D01*
G01*
X163146340Y-90224753D01*
G75*
G02*
X163365544Y-90224753I109602J-109602D01*
G01*
G37*
G36*
G01*
X162562978Y-91027319D02*
X162782181Y-91246522D01*
G75*
G02*
X162782181Y-91465726I-109602J-109602D01*
G01*
X162481660Y-91766247D01*
G75*
G02*
X162262456Y-91766247I-109602J109602D01*
G01*
X162043253Y-91547044D01*
G75*
G02*
X162043253Y-91327840I109602J109602D01*
G01*
X162343774Y-91027319D01*
G75*
G02*
X162562978Y-91027319I109602J-109602D01*
G01*
G37*
%TD*%
%TO.C,L3*%
G36*
G01*
X152236000Y-108611500D02*
X152056000Y-108611500D01*
G75*
G02*
X151966000Y-108521500I0J90000D01*
G01*
X151966000Y-108243500D01*
G75*
G02*
X152056000Y-108153500I90000J0D01*
G01*
X152236000Y-108153500D01*
G75*
G02*
X152326000Y-108243500I0J-90000D01*
G01*
X152326000Y-108521500D01*
G75*
G02*
X152236000Y-108611500I-90000J0D01*
G01*
G37*
G36*
G01*
X152236000Y-107746500D02*
X152056000Y-107746500D01*
G75*
G02*
X151966000Y-107656500I0J90000D01*
G01*
X151966000Y-107378500D01*
G75*
G02*
X152056000Y-107288500I90000J0D01*
G01*
X152236000Y-107288500D01*
G75*
G02*
X152326000Y-107378500I0J-90000D01*
G01*
X152326000Y-107656500D01*
G75*
G02*
X152236000Y-107746500I-90000J0D01*
G01*
G37*
%TD*%
%TO.C,C33*%
G36*
G01*
X156492000Y-104211400D02*
X156182000Y-104211400D01*
G75*
G02*
X156027000Y-104056400I0J155000D01*
G01*
X156027000Y-103631400D01*
G75*
G02*
X156182000Y-103476400I155000J0D01*
G01*
X156492000Y-103476400D01*
G75*
G02*
X156647000Y-103631400I0J-155000D01*
G01*
X156647000Y-104056400D01*
G75*
G02*
X156492000Y-104211400I-155000J0D01*
G01*
G37*
G36*
G01*
X156492000Y-103076400D02*
X156182000Y-103076400D01*
G75*
G02*
X156027000Y-102921400I0J155000D01*
G01*
X156027000Y-102496400D01*
G75*
G02*
X156182000Y-102341400I155000J0D01*
G01*
X156492000Y-102341400D01*
G75*
G02*
X156647000Y-102496400I0J-155000D01*
G01*
X156647000Y-102921400D01*
G75*
G02*
X156492000Y-103076400I-155000J0D01*
G01*
G37*
%TD*%
%TO.C,C32*%
G36*
G01*
X159382400Y-104627400D02*
X159692400Y-104627400D01*
G75*
G02*
X159847400Y-104782400I0J-155000D01*
G01*
X159847400Y-105207400D01*
G75*
G02*
X159692400Y-105362400I-155000J0D01*
G01*
X159382400Y-105362400D01*
G75*
G02*
X159227400Y-105207400I0J155000D01*
G01*
X159227400Y-104782400D01*
G75*
G02*
X159382400Y-104627400I155000J0D01*
G01*
G37*
G36*
G01*
X159382400Y-105762400D02*
X159692400Y-105762400D01*
G75*
G02*
X159847400Y-105917400I0J-155000D01*
G01*
X159847400Y-106342400D01*
G75*
G02*
X159692400Y-106497400I-155000J0D01*
G01*
X159382400Y-106497400D01*
G75*
G02*
X159227400Y-106342400I0J155000D01*
G01*
X159227400Y-105917400D01*
G75*
G02*
X159382400Y-105762400I155000J0D01*
G01*
G37*
%TD*%
%TO.C,C31*%
G36*
G01*
X152014200Y-105102600D02*
X152014200Y-105412600D01*
G75*
G02*
X151859200Y-105567600I-155000J0D01*
G01*
X151434200Y-105567600D01*
G75*
G02*
X151279200Y-105412600I0J155000D01*
G01*
X151279200Y-105102600D01*
G75*
G02*
X151434200Y-104947600I155000J0D01*
G01*
X151859200Y-104947600D01*
G75*
G02*
X152014200Y-105102600I0J-155000D01*
G01*
G37*
G36*
G01*
X150879200Y-105102600D02*
X150879200Y-105412600D01*
G75*
G02*
X150724200Y-105567600I-155000J0D01*
G01*
X150299200Y-105567600D01*
G75*
G02*
X150144200Y-105412600I0J155000D01*
G01*
X150144200Y-105102600D01*
G75*
G02*
X150299200Y-104947600I155000J0D01*
G01*
X150724200Y-104947600D01*
G75*
G02*
X150879200Y-105102600I0J-155000D01*
G01*
G37*
%TD*%
%TO.C,C34*%
G36*
G01*
X155755400Y-99436200D02*
X155445400Y-99436200D01*
G75*
G02*
X155290400Y-99281200I0J155000D01*
G01*
X155290400Y-98856200D01*
G75*
G02*
X155445400Y-98701200I155000J0D01*
G01*
X155755400Y-98701200D01*
G75*
G02*
X155910400Y-98856200I0J-155000D01*
G01*
X155910400Y-99281200D01*
G75*
G02*
X155755400Y-99436200I-155000J0D01*
G01*
G37*
G36*
G01*
X155755400Y-98301200D02*
X155445400Y-98301200D01*
G75*
G02*
X155290400Y-98146200I0J155000D01*
G01*
X155290400Y-97721200D01*
G75*
G02*
X155445400Y-97566200I155000J0D01*
G01*
X155755400Y-97566200D01*
G75*
G02*
X155910400Y-97721200I0J-155000D01*
G01*
X155910400Y-98146200D01*
G75*
G02*
X155755400Y-98301200I-155000J0D01*
G01*
G37*
%TD*%
%TO.C,C68*%
G36*
G01*
X166469000Y-115270000D02*
X166779000Y-115270000D01*
G75*
G02*
X166934000Y-115425000I0J-155000D01*
G01*
X166934000Y-115850000D01*
G75*
G02*
X166779000Y-116005000I-155000J0D01*
G01*
X166469000Y-116005000D01*
G75*
G02*
X166314000Y-115850000I0J155000D01*
G01*
X166314000Y-115425000D01*
G75*
G02*
X166469000Y-115270000I155000J0D01*
G01*
G37*
G36*
G01*
X166469000Y-116405000D02*
X166779000Y-116405000D01*
G75*
G02*
X166934000Y-116560000I0J-155000D01*
G01*
X166934000Y-116985000D01*
G75*
G02*
X166779000Y-117140000I-155000J0D01*
G01*
X166469000Y-117140000D01*
G75*
G02*
X166314000Y-116985000I0J155000D01*
G01*
X166314000Y-116560000D01*
G75*
G02*
X166469000Y-116405000I155000J0D01*
G01*
G37*
%TD*%
%TO.C,C12*%
G36*
G01*
X155679200Y-107234000D02*
X155369200Y-107234000D01*
G75*
G02*
X155214200Y-107079000I0J155000D01*
G01*
X155214200Y-106654000D01*
G75*
G02*
X155369200Y-106499000I155000J0D01*
G01*
X155679200Y-106499000D01*
G75*
G02*
X155834200Y-106654000I0J-155000D01*
G01*
X155834200Y-107079000D01*
G75*
G02*
X155679200Y-107234000I-155000J0D01*
G01*
G37*
G36*
G01*
X155679200Y-106099000D02*
X155369200Y-106099000D01*
G75*
G02*
X155214200Y-105944000I0J155000D01*
G01*
X155214200Y-105519000D01*
G75*
G02*
X155369200Y-105364000I155000J0D01*
G01*
X155679200Y-105364000D01*
G75*
G02*
X155834200Y-105519000I0J-155000D01*
G01*
X155834200Y-105944000D01*
G75*
G02*
X155679200Y-106099000I-155000J0D01*
G01*
G37*
%TD*%
%TO.C,C9*%
G36*
G01*
X165362747Y-119677544D02*
X165143544Y-119896747D01*
G75*
G02*
X164924340Y-119896747I-109602J109602D01*
G01*
X164623819Y-119596226D01*
G75*
G02*
X164623819Y-119377022I109602J109602D01*
G01*
X164843022Y-119157819D01*
G75*
G02*
X165062226Y-119157819I109602J-109602D01*
G01*
X165362747Y-119458340D01*
G75*
G02*
X165362747Y-119677544I-109602J-109602D01*
G01*
G37*
G36*
G01*
X164560181Y-118874978D02*
X164340978Y-119094181D01*
G75*
G02*
X164121774Y-119094181I-109602J109602D01*
G01*
X163821253Y-118793660D01*
G75*
G02*
X163821253Y-118574456I109602J109602D01*
G01*
X164040456Y-118355253D01*
G75*
G02*
X164259660Y-118355253I109602J-109602D01*
G01*
X164560181Y-118655774D01*
G75*
G02*
X164560181Y-118874978I-109602J-109602D01*
G01*
G37*
%TD*%
%TO.C,C7*%
G36*
G01*
X164127544Y-90986753D02*
X164346747Y-91205956D01*
G75*
G02*
X164346747Y-91425160I-109602J-109602D01*
G01*
X164046226Y-91725681D01*
G75*
G02*
X163827022Y-91725681I-109602J109602D01*
G01*
X163607819Y-91506478D01*
G75*
G02*
X163607819Y-91287274I109602J109602D01*
G01*
X163908340Y-90986753D01*
G75*
G02*
X164127544Y-90986753I109602J-109602D01*
G01*
G37*
G36*
G01*
X163324978Y-91789319D02*
X163544181Y-92008522D01*
G75*
G02*
X163544181Y-92227726I-109602J-109602D01*
G01*
X163243660Y-92528247D01*
G75*
G02*
X163024456Y-92528247I-109602J109602D01*
G01*
X162805253Y-92309044D01*
G75*
G02*
X162805253Y-92089840I109602J109602D01*
G01*
X163105774Y-91789319D01*
G75*
G02*
X163324978Y-91789319I109602J-109602D01*
G01*
G37*
%TD*%
%TO.C,C35*%
G36*
G01*
X151539000Y-98979000D02*
X151229000Y-98979000D01*
G75*
G02*
X151074000Y-98824000I0J155000D01*
G01*
X151074000Y-98399000D01*
G75*
G02*
X151229000Y-98244000I155000J0D01*
G01*
X151539000Y-98244000D01*
G75*
G02*
X151694000Y-98399000I0J-155000D01*
G01*
X151694000Y-98824000D01*
G75*
G02*
X151539000Y-98979000I-155000J0D01*
G01*
G37*
G36*
G01*
X151539000Y-97844000D02*
X151229000Y-97844000D01*
G75*
G02*
X151074000Y-97689000I0J155000D01*
G01*
X151074000Y-97264000D01*
G75*
G02*
X151229000Y-97109000I155000J0D01*
G01*
X151539000Y-97109000D01*
G75*
G02*
X151694000Y-97264000I0J-155000D01*
G01*
X151694000Y-97689000D01*
G75*
G02*
X151539000Y-97844000I-155000J0D01*
G01*
G37*
%TD*%
%TO.C,C30*%
G36*
G01*
X162080000Y-106395800D02*
X161770000Y-106395800D01*
G75*
G02*
X161615000Y-106240800I0J155000D01*
G01*
X161615000Y-105815800D01*
G75*
G02*
X161770000Y-105660800I155000J0D01*
G01*
X162080000Y-105660800D01*
G75*
G02*
X162235000Y-105815800I0J-155000D01*
G01*
X162235000Y-106240800D01*
G75*
G02*
X162080000Y-106395800I-155000J0D01*
G01*
G37*
G36*
G01*
X162080000Y-105260800D02*
X161770000Y-105260800D01*
G75*
G02*
X161615000Y-105105800I0J155000D01*
G01*
X161615000Y-104680800D01*
G75*
G02*
X161770000Y-104525800I155000J0D01*
G01*
X162080000Y-104525800D01*
G75*
G02*
X162235000Y-104680800I0J-155000D01*
G01*
X162235000Y-105105800D01*
G75*
G02*
X162080000Y-105260800I-155000J0D01*
G01*
G37*
%TD*%
%TO.C,C29*%
G36*
G01*
X157782200Y-103027200D02*
X158092200Y-103027200D01*
G75*
G02*
X158247200Y-103182200I0J-155000D01*
G01*
X158247200Y-103607200D01*
G75*
G02*
X158092200Y-103762200I-155000J0D01*
G01*
X157782200Y-103762200D01*
G75*
G02*
X157627200Y-103607200I0J155000D01*
G01*
X157627200Y-103182200D01*
G75*
G02*
X157782200Y-103027200I155000J0D01*
G01*
G37*
G36*
G01*
X157782200Y-104162200D02*
X158092200Y-104162200D01*
G75*
G02*
X158247200Y-104317200I0J-155000D01*
G01*
X158247200Y-104742200D01*
G75*
G02*
X158092200Y-104897200I-155000J0D01*
G01*
X157782200Y-104897200D01*
G75*
G02*
X157627200Y-104742200I0J155000D01*
G01*
X157627200Y-104317200D01*
G75*
G02*
X157782200Y-104162200I155000J0D01*
G01*
G37*
%TD*%
%TO.C,C28*%
G36*
G01*
X154942600Y-104846400D02*
X154632600Y-104846400D01*
G75*
G02*
X154477600Y-104691400I0J155000D01*
G01*
X154477600Y-104266400D01*
G75*
G02*
X154632600Y-104111400I155000J0D01*
G01*
X154942600Y-104111400D01*
G75*
G02*
X155097600Y-104266400I0J-155000D01*
G01*
X155097600Y-104691400D01*
G75*
G02*
X154942600Y-104846400I-155000J0D01*
G01*
G37*
G36*
G01*
X154942600Y-103711400D02*
X154632600Y-103711400D01*
G75*
G02*
X154477600Y-103556400I0J155000D01*
G01*
X154477600Y-103131400D01*
G75*
G02*
X154632600Y-102976400I155000J0D01*
G01*
X154942600Y-102976400D01*
G75*
G02*
X155097600Y-103131400I0J-155000D01*
G01*
X155097600Y-103556400D01*
G75*
G02*
X154942600Y-103711400I-155000J0D01*
G01*
G37*
%TD*%
%TO.C,C27*%
G36*
G01*
X156867800Y-105338600D02*
X157177800Y-105338600D01*
G75*
G02*
X157332800Y-105493600I0J-155000D01*
G01*
X157332800Y-105918600D01*
G75*
G02*
X157177800Y-106073600I-155000J0D01*
G01*
X156867800Y-106073600D01*
G75*
G02*
X156712800Y-105918600I0J155000D01*
G01*
X156712800Y-105493600D01*
G75*
G02*
X156867800Y-105338600I155000J0D01*
G01*
G37*
G36*
G01*
X156867800Y-106473600D02*
X157177800Y-106473600D01*
G75*
G02*
X157332800Y-106628600I0J-155000D01*
G01*
X157332800Y-107053600D01*
G75*
G02*
X157177800Y-107208600I-155000J0D01*
G01*
X156867800Y-107208600D01*
G75*
G02*
X156712800Y-107053600I0J155000D01*
G01*
X156712800Y-106628600D01*
G75*
G02*
X156867800Y-106473600I155000J0D01*
G01*
G37*
%TD*%
%TO.C,C26*%
G36*
G01*
X156519600Y-98605400D02*
X156519600Y-98295400D01*
G75*
G02*
X156674600Y-98140400I155000J0D01*
G01*
X157099600Y-98140400D01*
G75*
G02*
X157254600Y-98295400I0J-155000D01*
G01*
X157254600Y-98605400D01*
G75*
G02*
X157099600Y-98760400I-155000J0D01*
G01*
X156674600Y-98760400D01*
G75*
G02*
X156519600Y-98605400I0J155000D01*
G01*
G37*
G36*
G01*
X157654600Y-98605400D02*
X157654600Y-98295400D01*
G75*
G02*
X157809600Y-98140400I155000J0D01*
G01*
X158234600Y-98140400D01*
G75*
G02*
X158389600Y-98295400I0J-155000D01*
G01*
X158389600Y-98605400D01*
G75*
G02*
X158234600Y-98760400I-155000J0D01*
G01*
X157809600Y-98760400D01*
G75*
G02*
X157654600Y-98605400I0J155000D01*
G01*
G37*
%TD*%
%TO.C,C25*%
G36*
G01*
X161770000Y-101528600D02*
X162080000Y-101528600D01*
G75*
G02*
X162235000Y-101683600I0J-155000D01*
G01*
X162235000Y-102108600D01*
G75*
G02*
X162080000Y-102263600I-155000J0D01*
G01*
X161770000Y-102263600D01*
G75*
G02*
X161615000Y-102108600I0J155000D01*
G01*
X161615000Y-101683600D01*
G75*
G02*
X161770000Y-101528600I155000J0D01*
G01*
G37*
G36*
G01*
X161770000Y-102663600D02*
X162080000Y-102663600D01*
G75*
G02*
X162235000Y-102818600I0J-155000D01*
G01*
X162235000Y-103243600D01*
G75*
G02*
X162080000Y-103398600I-155000J0D01*
G01*
X161770000Y-103398600D01*
G75*
G02*
X161615000Y-103243600I0J155000D01*
G01*
X161615000Y-102818600D01*
G75*
G02*
X161770000Y-102663600I155000J0D01*
G01*
G37*
%TD*%
%TO.C,C24*%
G36*
G01*
X157883800Y-105338600D02*
X158193800Y-105338600D01*
G75*
G02*
X158348800Y-105493600I0J-155000D01*
G01*
X158348800Y-105918600D01*
G75*
G02*
X158193800Y-106073600I-155000J0D01*
G01*
X157883800Y-106073600D01*
G75*
G02*
X157728800Y-105918600I0J155000D01*
G01*
X157728800Y-105493600D01*
G75*
G02*
X157883800Y-105338600I155000J0D01*
G01*
G37*
G36*
G01*
X157883800Y-106473600D02*
X158193800Y-106473600D01*
G75*
G02*
X158348800Y-106628600I0J-155000D01*
G01*
X158348800Y-107053600D01*
G75*
G02*
X158193800Y-107208600I-155000J0D01*
G01*
X157883800Y-107208600D01*
G75*
G02*
X157728800Y-107053600I0J155000D01*
G01*
X157728800Y-106628600D01*
G75*
G02*
X157883800Y-106473600I155000J0D01*
G01*
G37*
%TD*%
%TO.C,C23*%
G36*
G01*
X164183000Y-105465600D02*
X164493000Y-105465600D01*
G75*
G02*
X164648000Y-105620600I0J-155000D01*
G01*
X164648000Y-106045600D01*
G75*
G02*
X164493000Y-106200600I-155000J0D01*
G01*
X164183000Y-106200600D01*
G75*
G02*
X164028000Y-106045600I0J155000D01*
G01*
X164028000Y-105620600D01*
G75*
G02*
X164183000Y-105465600I155000J0D01*
G01*
G37*
G36*
G01*
X164183000Y-106600600D02*
X164493000Y-106600600D01*
G75*
G02*
X164648000Y-106755600I0J-155000D01*
G01*
X164648000Y-107180600D01*
G75*
G02*
X164493000Y-107335600I-155000J0D01*
G01*
X164183000Y-107335600D01*
G75*
G02*
X164028000Y-107180600I0J155000D01*
G01*
X164028000Y-106755600D01*
G75*
G02*
X164183000Y-106600600I155000J0D01*
G01*
G37*
%TD*%
%TO.C,C22*%
G36*
G01*
X160675600Y-98295400D02*
X160675600Y-98605400D01*
G75*
G02*
X160520600Y-98760400I-155000J0D01*
G01*
X160095600Y-98760400D01*
G75*
G02*
X159940600Y-98605400I0J155000D01*
G01*
X159940600Y-98295400D01*
G75*
G02*
X160095600Y-98140400I155000J0D01*
G01*
X160520600Y-98140400D01*
G75*
G02*
X160675600Y-98295400I0J-155000D01*
G01*
G37*
G36*
G01*
X159540600Y-98295400D02*
X159540600Y-98605400D01*
G75*
G02*
X159385600Y-98760400I-155000J0D01*
G01*
X158960600Y-98760400D01*
G75*
G02*
X158805600Y-98605400I0J155000D01*
G01*
X158805600Y-98295400D01*
G75*
G02*
X158960600Y-98140400I155000J0D01*
G01*
X159385600Y-98140400D01*
G75*
G02*
X159540600Y-98295400I0J-155000D01*
G01*
G37*
%TD*%
%TO.C,C21*%
G36*
G01*
X154764800Y-99436200D02*
X154454800Y-99436200D01*
G75*
G02*
X154299800Y-99281200I0J155000D01*
G01*
X154299800Y-98856200D01*
G75*
G02*
X154454800Y-98701200I155000J0D01*
G01*
X154764800Y-98701200D01*
G75*
G02*
X154919800Y-98856200I0J-155000D01*
G01*
X154919800Y-99281200D01*
G75*
G02*
X154764800Y-99436200I-155000J0D01*
G01*
G37*
G36*
G01*
X154764800Y-98301200D02*
X154454800Y-98301200D01*
G75*
G02*
X154299800Y-98146200I0J155000D01*
G01*
X154299800Y-97721200D01*
G75*
G02*
X154454800Y-97566200I155000J0D01*
G01*
X154764800Y-97566200D01*
G75*
G02*
X154919800Y-97721200I0J-155000D01*
G01*
X154919800Y-98146200D01*
G75*
G02*
X154764800Y-98301200I-155000J0D01*
G01*
G37*
%TD*%
%TO.C,C20*%
G36*
G01*
X160472400Y-101495800D02*
X160472400Y-101805800D01*
G75*
G02*
X160317400Y-101960800I-155000J0D01*
G01*
X159892400Y-101960800D01*
G75*
G02*
X159737400Y-101805800I0J155000D01*
G01*
X159737400Y-101495800D01*
G75*
G02*
X159892400Y-101340800I155000J0D01*
G01*
X160317400Y-101340800D01*
G75*
G02*
X160472400Y-101495800I0J-155000D01*
G01*
G37*
G36*
G01*
X159337400Y-101495800D02*
X159337400Y-101805800D01*
G75*
G02*
X159182400Y-101960800I-155000J0D01*
G01*
X158757400Y-101960800D01*
G75*
G02*
X158602400Y-101805800I0J155000D01*
G01*
X158602400Y-101495800D01*
G75*
G02*
X158757400Y-101340800I155000J0D01*
G01*
X159182400Y-101340800D01*
G75*
G02*
X159337400Y-101495800I0J-155000D01*
G01*
G37*
%TD*%
%TO.C,C19*%
G36*
G01*
X161666200Y-107058400D02*
X161666200Y-107368400D01*
G75*
G02*
X161511200Y-107523400I-155000J0D01*
G01*
X161086200Y-107523400D01*
G75*
G02*
X160931200Y-107368400I0J155000D01*
G01*
X160931200Y-107058400D01*
G75*
G02*
X161086200Y-106903400I155000J0D01*
G01*
X161511200Y-106903400D01*
G75*
G02*
X161666200Y-107058400I0J-155000D01*
G01*
G37*
G36*
G01*
X160531200Y-107058400D02*
X160531200Y-107368400D01*
G75*
G02*
X160376200Y-107523400I-155000J0D01*
G01*
X159951200Y-107523400D01*
G75*
G02*
X159796200Y-107368400I0J155000D01*
G01*
X159796200Y-107058400D01*
G75*
G02*
X159951200Y-106903400I155000J0D01*
G01*
X160376200Y-106903400D01*
G75*
G02*
X160531200Y-107058400I0J-155000D01*
G01*
G37*
%TD*%
%TO.C,C18*%
G36*
G01*
X153063000Y-98979000D02*
X152753000Y-98979000D01*
G75*
G02*
X152598000Y-98824000I0J155000D01*
G01*
X152598000Y-98399000D01*
G75*
G02*
X152753000Y-98244000I155000J0D01*
G01*
X153063000Y-98244000D01*
G75*
G02*
X153218000Y-98399000I0J-155000D01*
G01*
X153218000Y-98824000D01*
G75*
G02*
X153063000Y-98979000I-155000J0D01*
G01*
G37*
G36*
G01*
X153063000Y-97844000D02*
X152753000Y-97844000D01*
G75*
G02*
X152598000Y-97689000I0J155000D01*
G01*
X152598000Y-97264000D01*
G75*
G02*
X152753000Y-97109000I155000J0D01*
G01*
X153063000Y-97109000D01*
G75*
G02*
X153218000Y-97264000I0J-155000D01*
G01*
X153218000Y-97689000D01*
G75*
G02*
X153063000Y-97844000I-155000J0D01*
G01*
G37*
%TD*%
%TO.C,C17*%
G36*
G01*
X167485000Y-115270000D02*
X167795000Y-115270000D01*
G75*
G02*
X167950000Y-115425000I0J-155000D01*
G01*
X167950000Y-115850000D01*
G75*
G02*
X167795000Y-116005000I-155000J0D01*
G01*
X167485000Y-116005000D01*
G75*
G02*
X167330000Y-115850000I0J155000D01*
G01*
X167330000Y-115425000D01*
G75*
G02*
X167485000Y-115270000I155000J0D01*
G01*
G37*
G36*
G01*
X167485000Y-116405000D02*
X167795000Y-116405000D01*
G75*
G02*
X167950000Y-116560000I0J-155000D01*
G01*
X167950000Y-116985000D01*
G75*
G02*
X167795000Y-117140000I-155000J0D01*
G01*
X167485000Y-117140000D01*
G75*
G02*
X167330000Y-116985000I0J155000D01*
G01*
X167330000Y-116560000D01*
G75*
G02*
X167485000Y-116405000I155000J0D01*
G01*
G37*
%TD*%
%TO.C,C14*%
G36*
G01*
X150144200Y-104422000D02*
X150144200Y-104112000D01*
G75*
G02*
X150299200Y-103957000I155000J0D01*
G01*
X150724200Y-103957000D01*
G75*
G02*
X150879200Y-104112000I0J-155000D01*
G01*
X150879200Y-104422000D01*
G75*
G02*
X150724200Y-104577000I-155000J0D01*
G01*
X150299200Y-104577000D01*
G75*
G02*
X150144200Y-104422000I0J155000D01*
G01*
G37*
G36*
G01*
X151279200Y-104422000D02*
X151279200Y-104112000D01*
G75*
G02*
X151434200Y-103957000I155000J0D01*
G01*
X151859200Y-103957000D01*
G75*
G02*
X152014200Y-104112000I0J-155000D01*
G01*
X152014200Y-104422000D01*
G75*
G02*
X151859200Y-104577000I-155000J0D01*
G01*
X151434200Y-104577000D01*
G75*
G02*
X151279200Y-104422000I0J155000D01*
G01*
G37*
%TD*%
%TO.C,R42*%
G36*
G01*
X170489900Y-78726000D02*
X170809900Y-78726000D01*
G75*
G02*
X170969900Y-78886000I0J-160000D01*
G01*
X170969900Y-79281000D01*
G75*
G02*
X170809900Y-79441000I-160000J0D01*
G01*
X170489900Y-79441000D01*
G75*
G02*
X170329900Y-79281000I0J160000D01*
G01*
X170329900Y-78886000D01*
G75*
G02*
X170489900Y-78726000I160000J0D01*
G01*
G37*
G36*
G01*
X170489900Y-77531000D02*
X170809900Y-77531000D01*
G75*
G02*
X170969900Y-77691000I0J-160000D01*
G01*
X170969900Y-78086000D01*
G75*
G02*
X170809900Y-78246000I-160000J0D01*
G01*
X170489900Y-78246000D01*
G75*
G02*
X170329900Y-78086000I0J160000D01*
G01*
X170329900Y-77691000D01*
G75*
G02*
X170489900Y-77531000I160000J0D01*
G01*
G37*
%TD*%
%TO.C,R41*%
G36*
G01*
X171556700Y-78726000D02*
X171876700Y-78726000D01*
G75*
G02*
X172036700Y-78886000I0J-160000D01*
G01*
X172036700Y-79281000D01*
G75*
G02*
X171876700Y-79441000I-160000J0D01*
G01*
X171556700Y-79441000D01*
G75*
G02*
X171396700Y-79281000I0J160000D01*
G01*
X171396700Y-78886000D01*
G75*
G02*
X171556700Y-78726000I160000J0D01*
G01*
G37*
G36*
G01*
X171556700Y-77531000D02*
X171876700Y-77531000D01*
G75*
G02*
X172036700Y-77691000I0J-160000D01*
G01*
X172036700Y-78086000D01*
G75*
G02*
X171876700Y-78246000I-160000J0D01*
G01*
X171556700Y-78246000D01*
G75*
G02*
X171396700Y-78086000I0J160000D01*
G01*
X171396700Y-77691000D01*
G75*
G02*
X171556700Y-77531000I160000J0D01*
G01*
G37*
%TD*%
%TO.C,R40*%
G36*
G01*
X175950900Y-78726000D02*
X176270900Y-78726000D01*
G75*
G02*
X176430900Y-78886000I0J-160000D01*
G01*
X176430900Y-79281000D01*
G75*
G02*
X176270900Y-79441000I-160000J0D01*
G01*
X175950900Y-79441000D01*
G75*
G02*
X175790900Y-79281000I0J160000D01*
G01*
X175790900Y-78886000D01*
G75*
G02*
X175950900Y-78726000I160000J0D01*
G01*
G37*
G36*
G01*
X175950900Y-77531000D02*
X176270900Y-77531000D01*
G75*
G02*
X176430900Y-77691000I0J-160000D01*
G01*
X176430900Y-78086000D01*
G75*
G02*
X176270900Y-78246000I-160000J0D01*
G01*
X175950900Y-78246000D01*
G75*
G02*
X175790900Y-78086000I0J160000D01*
G01*
X175790900Y-77691000D01*
G75*
G02*
X175950900Y-77531000I160000J0D01*
G01*
G37*
%TD*%
%TO.C,R13*%
G36*
G01*
X177043100Y-78726000D02*
X177363100Y-78726000D01*
G75*
G02*
X177523100Y-78886000I0J-160000D01*
G01*
X177523100Y-79281000D01*
G75*
G02*
X177363100Y-79441000I-160000J0D01*
G01*
X177043100Y-79441000D01*
G75*
G02*
X176883100Y-79281000I0J160000D01*
G01*
X176883100Y-78886000D01*
G75*
G02*
X177043100Y-78726000I160000J0D01*
G01*
G37*
G36*
G01*
X177043100Y-77531000D02*
X177363100Y-77531000D01*
G75*
G02*
X177523100Y-77691000I0J-160000D01*
G01*
X177523100Y-78086000D01*
G75*
G02*
X177363100Y-78246000I-160000J0D01*
G01*
X177043100Y-78246000D01*
G75*
G02*
X176883100Y-78086000I0J160000D01*
G01*
X176883100Y-77691000D01*
G75*
G02*
X177043100Y-77531000I160000J0D01*
G01*
G37*
%TD*%
%TO.C,R12*%
G36*
G01*
X178135300Y-78726000D02*
X178455300Y-78726000D01*
G75*
G02*
X178615300Y-78886000I0J-160000D01*
G01*
X178615300Y-79281000D01*
G75*
G02*
X178455300Y-79441000I-160000J0D01*
G01*
X178135300Y-79441000D01*
G75*
G02*
X177975300Y-79281000I0J160000D01*
G01*
X177975300Y-78886000D01*
G75*
G02*
X178135300Y-78726000I160000J0D01*
G01*
G37*
G36*
G01*
X178135300Y-77531000D02*
X178455300Y-77531000D01*
G75*
G02*
X178615300Y-77691000I0J-160000D01*
G01*
X178615300Y-78086000D01*
G75*
G02*
X178455300Y-78246000I-160000J0D01*
G01*
X178135300Y-78246000D01*
G75*
G02*
X177975300Y-78086000I0J160000D01*
G01*
X177975300Y-77691000D01*
G75*
G02*
X178135300Y-77531000I160000J0D01*
G01*
G37*
%TD*%
%TO.C,C5*%
G36*
G01*
X188356003Y-125338000D02*
X187055997Y-125338000D01*
G75*
G02*
X186806000Y-125088003I0J249997D01*
G01*
X186806000Y-124262997D01*
G75*
G02*
X187055997Y-124013000I249997J0D01*
G01*
X188356003Y-124013000D01*
G75*
G02*
X188606000Y-124262997I0J-249997D01*
G01*
X188606000Y-125088003D01*
G75*
G02*
X188356003Y-125338000I-249997J0D01*
G01*
G37*
G36*
G01*
X188356003Y-128463000D02*
X187055997Y-128463000D01*
G75*
G02*
X186806000Y-128213003I0J249997D01*
G01*
X186806000Y-127387997D01*
G75*
G02*
X187055997Y-127138000I249997J0D01*
G01*
X188356003Y-127138000D01*
G75*
G02*
X188606000Y-127387997I0J-249997D01*
G01*
X188606000Y-128213003D01*
G75*
G02*
X188356003Y-128463000I-249997J0D01*
G01*
G37*
%TD*%
D14*
%TO.C,U3*%
X174990000Y-135382000D03*
X172990000Y-134432000D03*
X172990000Y-136332000D03*
%TD*%
%TO.C,R10*%
G36*
G01*
X163390600Y-101052600D02*
X163710600Y-101052600D01*
G75*
G02*
X163870600Y-101212600I0J-160000D01*
G01*
X163870600Y-101607600D01*
G75*
G02*
X163710600Y-101767600I-160000J0D01*
G01*
X163390600Y-101767600D01*
G75*
G02*
X163230600Y-101607600I0J160000D01*
G01*
X163230600Y-101212600D01*
G75*
G02*
X163390600Y-101052600I160000J0D01*
G01*
G37*
G36*
G01*
X163390600Y-99857600D02*
X163710600Y-99857600D01*
G75*
G02*
X163870600Y-100017600I0J-160000D01*
G01*
X163870600Y-100412600D01*
G75*
G02*
X163710600Y-100572600I-160000J0D01*
G01*
X163390600Y-100572600D01*
G75*
G02*
X163230600Y-100412600I0J160000D01*
G01*
X163230600Y-100017600D01*
G75*
G02*
X163390600Y-99857600I160000J0D01*
G01*
G37*
%TD*%
%TO.C,R9*%
G36*
G01*
X132574000Y-72042000D02*
X132574000Y-71722000D01*
G75*
G02*
X132734000Y-71562000I160000J0D01*
G01*
X133129000Y-71562000D01*
G75*
G02*
X133289000Y-71722000I0J-160000D01*
G01*
X133289000Y-72042000D01*
G75*
G02*
X133129000Y-72202000I-160000J0D01*
G01*
X132734000Y-72202000D01*
G75*
G02*
X132574000Y-72042000I0J160000D01*
G01*
G37*
G36*
G01*
X131379000Y-72042000D02*
X131379000Y-71722000D01*
G75*
G02*
X131539000Y-71562000I160000J0D01*
G01*
X131934000Y-71562000D01*
G75*
G02*
X132094000Y-71722000I0J-160000D01*
G01*
X132094000Y-72042000D01*
G75*
G02*
X131934000Y-72202000I-160000J0D01*
G01*
X131539000Y-72202000D01*
G75*
G02*
X131379000Y-72042000I0J160000D01*
G01*
G37*
%TD*%
%TO.C,R8*%
G36*
G01*
X168943000Y-115965000D02*
X168623000Y-115965000D01*
G75*
G02*
X168463000Y-115805000I0J160000D01*
G01*
X168463000Y-115410000D01*
G75*
G02*
X168623000Y-115250000I160000J0D01*
G01*
X168943000Y-115250000D01*
G75*
G02*
X169103000Y-115410000I0J-160000D01*
G01*
X169103000Y-115805000D01*
G75*
G02*
X168943000Y-115965000I-160000J0D01*
G01*
G37*
G36*
G01*
X168943000Y-117160000D02*
X168623000Y-117160000D01*
G75*
G02*
X168463000Y-117000000I0J160000D01*
G01*
X168463000Y-116605000D01*
G75*
G02*
X168623000Y-116445000I160000J0D01*
G01*
X168943000Y-116445000D01*
G75*
G02*
X169103000Y-116605000I0J-160000D01*
G01*
X169103000Y-117000000D01*
G75*
G02*
X168943000Y-117160000I-160000J0D01*
G01*
G37*
%TD*%
%TO.C,R7*%
G36*
G01*
X144794000Y-76675000D02*
X144794000Y-76995000D01*
G75*
G02*
X144634000Y-77155000I-160000J0D01*
G01*
X144239000Y-77155000D01*
G75*
G02*
X144079000Y-76995000I0J160000D01*
G01*
X144079000Y-76675000D01*
G75*
G02*
X144239000Y-76515000I160000J0D01*
G01*
X144634000Y-76515000D01*
G75*
G02*
X144794000Y-76675000I0J-160000D01*
G01*
G37*
G36*
G01*
X145989000Y-76675000D02*
X145989000Y-76995000D01*
G75*
G02*
X145829000Y-77155000I-160000J0D01*
G01*
X145434000Y-77155000D01*
G75*
G02*
X145274000Y-76995000I0J160000D01*
G01*
X145274000Y-76675000D01*
G75*
G02*
X145434000Y-76515000I160000J0D01*
G01*
X145829000Y-76515000D01*
G75*
G02*
X145989000Y-76675000I0J-160000D01*
G01*
G37*
%TD*%
%TO.C,R5*%
G36*
G01*
X144794000Y-74135000D02*
X144794000Y-74455000D01*
G75*
G02*
X144634000Y-74615000I-160000J0D01*
G01*
X144239000Y-74615000D01*
G75*
G02*
X144079000Y-74455000I0J160000D01*
G01*
X144079000Y-74135000D01*
G75*
G02*
X144239000Y-73975000I160000J0D01*
G01*
X144634000Y-73975000D01*
G75*
G02*
X144794000Y-74135000I0J-160000D01*
G01*
G37*
G36*
G01*
X145989000Y-74135000D02*
X145989000Y-74455000D01*
G75*
G02*
X145829000Y-74615000I-160000J0D01*
G01*
X145434000Y-74615000D01*
G75*
G02*
X145274000Y-74455000I0J160000D01*
G01*
X145274000Y-74135000D01*
G75*
G02*
X145434000Y-73975000I160000J0D01*
G01*
X145829000Y-73975000D01*
G75*
G02*
X145989000Y-74135000I0J-160000D01*
G01*
G37*
%TD*%
%TO.C,R1*%
G36*
G01*
X144794000Y-71595000D02*
X144794000Y-71915000D01*
G75*
G02*
X144634000Y-72075000I-160000J0D01*
G01*
X144239000Y-72075000D01*
G75*
G02*
X144079000Y-71915000I0J160000D01*
G01*
X144079000Y-71595000D01*
G75*
G02*
X144239000Y-71435000I160000J0D01*
G01*
X144634000Y-71435000D01*
G75*
G02*
X144794000Y-71595000I0J-160000D01*
G01*
G37*
G36*
G01*
X145989000Y-71595000D02*
X145989000Y-71915000D01*
G75*
G02*
X145829000Y-72075000I-160000J0D01*
G01*
X145434000Y-72075000D01*
G75*
G02*
X145274000Y-71915000I0J160000D01*
G01*
X145274000Y-71595000D01*
G75*
G02*
X145434000Y-71435000I160000J0D01*
G01*
X145829000Y-71435000D01*
G75*
G02*
X145989000Y-71595000I0J-160000D01*
G01*
G37*
%TD*%
%TO.C,C15*%
G36*
G01*
X152454000Y-100492500D02*
X152454000Y-100802500D01*
G75*
G02*
X152299000Y-100957500I-155000J0D01*
G01*
X151874000Y-100957500D01*
G75*
G02*
X151719000Y-100802500I0J155000D01*
G01*
X151719000Y-100492500D01*
G75*
G02*
X151874000Y-100337500I155000J0D01*
G01*
X152299000Y-100337500D01*
G75*
G02*
X152454000Y-100492500I0J-155000D01*
G01*
G37*
G36*
G01*
X153589000Y-100492500D02*
X153589000Y-100802500D01*
G75*
G02*
X153434000Y-100957500I-155000J0D01*
G01*
X153009000Y-100957500D01*
G75*
G02*
X152854000Y-100802500I0J155000D01*
G01*
X152854000Y-100492500D01*
G75*
G02*
X153009000Y-100337500I155000J0D01*
G01*
X153434000Y-100337500D01*
G75*
G02*
X153589000Y-100492500I0J-155000D01*
G01*
G37*
%TD*%
%TO.C,C13*%
G36*
G01*
X184305000Y-78603500D02*
X183995000Y-78603500D01*
G75*
G02*
X183840000Y-78448500I0J155000D01*
G01*
X183840000Y-78023500D01*
G75*
G02*
X183995000Y-77868500I155000J0D01*
G01*
X184305000Y-77868500D01*
G75*
G02*
X184460000Y-78023500I0J-155000D01*
G01*
X184460000Y-78448500D01*
G75*
G02*
X184305000Y-78603500I-155000J0D01*
G01*
G37*
G36*
G01*
X184305000Y-79738500D02*
X183995000Y-79738500D01*
G75*
G02*
X183840000Y-79583500I0J155000D01*
G01*
X183840000Y-79158500D01*
G75*
G02*
X183995000Y-79003500I155000J0D01*
G01*
X184305000Y-79003500D01*
G75*
G02*
X184460000Y-79158500I0J-155000D01*
G01*
X184460000Y-79583500D01*
G75*
G02*
X184305000Y-79738500I-155000J0D01*
G01*
G37*
%TD*%
%TO.C,C10*%
G36*
G01*
X187055997Y-120788000D02*
X188356003Y-120788000D01*
G75*
G02*
X188606000Y-121037997I0J-249997D01*
G01*
X188606000Y-121863003D01*
G75*
G02*
X188356003Y-122113000I-249997J0D01*
G01*
X187055997Y-122113000D01*
G75*
G02*
X186806000Y-121863003I0J249997D01*
G01*
X186806000Y-121037997D01*
G75*
G02*
X187055997Y-120788000I249997J0D01*
G01*
G37*
G36*
G01*
X187055997Y-117663000D02*
X188356003Y-117663000D01*
G75*
G02*
X188606000Y-117912997I0J-249997D01*
G01*
X188606000Y-118738003D01*
G75*
G02*
X188356003Y-118988000I-249997J0D01*
G01*
X187055997Y-118988000D01*
G75*
G02*
X186806000Y-118738003I0J249997D01*
G01*
X186806000Y-117912997D01*
G75*
G02*
X187055997Y-117663000I249997J0D01*
G01*
G37*
%TD*%
%TO.C,C8*%
G36*
G01*
X189595997Y-120788000D02*
X190896003Y-120788000D01*
G75*
G02*
X191146000Y-121037997I0J-249997D01*
G01*
X191146000Y-121863003D01*
G75*
G02*
X190896003Y-122113000I-249997J0D01*
G01*
X189595997Y-122113000D01*
G75*
G02*
X189346000Y-121863003I0J249997D01*
G01*
X189346000Y-121037997D01*
G75*
G02*
X189595997Y-120788000I249997J0D01*
G01*
G37*
G36*
G01*
X189595997Y-117663000D02*
X190896003Y-117663000D01*
G75*
G02*
X191146000Y-117912997I0J-249997D01*
G01*
X191146000Y-118738003D01*
G75*
G02*
X190896003Y-118988000I-249997J0D01*
G01*
X189595997Y-118988000D01*
G75*
G02*
X189346000Y-118738003I0J249997D01*
G01*
X189346000Y-117912997D01*
G75*
G02*
X189595997Y-117663000I249997J0D01*
G01*
G37*
%TD*%
%TO.C,C2*%
G36*
G01*
X190896003Y-125338000D02*
X189595997Y-125338000D01*
G75*
G02*
X189346000Y-125088003I0J249997D01*
G01*
X189346000Y-124262997D01*
G75*
G02*
X189595997Y-124013000I249997J0D01*
G01*
X190896003Y-124013000D01*
G75*
G02*
X191146000Y-124262997I0J-249997D01*
G01*
X191146000Y-125088003D01*
G75*
G02*
X190896003Y-125338000I-249997J0D01*
G01*
G37*
G36*
G01*
X190896003Y-128463000D02*
X189595997Y-128463000D01*
G75*
G02*
X189346000Y-128213003I0J249997D01*
G01*
X189346000Y-127387997D01*
G75*
G02*
X189595997Y-127138000I249997J0D01*
G01*
X190896003Y-127138000D01*
G75*
G02*
X191146000Y-127387997I0J-249997D01*
G01*
X191146000Y-128213003D01*
G75*
G02*
X190896003Y-128463000I-249997J0D01*
G01*
G37*
%TD*%
M02*
