%TF.GenerationSoftware,KiCad,Pcbnew,(5.1.8-0-10_14)*%
%TF.CreationDate,2021-04-06T01:22:42+01:00*%
%TF.ProjectId,STM32MP1_TestBoard_RevB,53544d33-324d-4503-915f-54657374426f,rev?*%
%TF.SameCoordinates,Original*%
%TF.FileFunction,Legend,Bot*%
%TF.FilePolarity,Positive*%
%FSLAX46Y46*%
G04 Gerber Fmt 4.6, Leading zero omitted, Abs format (unit mm)*
G04 Created by KiCad (PCBNEW (5.1.8-0-10_14)) date 2021-04-06 01:22:42*
%MOMM*%
%LPD*%
G01*
G04 APERTURE LIST*
%ADD10C,0.120000*%
%ADD11C,0.100000*%
G04 APERTURE END LIST*
D10*
%TO.C,R25*%
X151753835Y-106659000D02*
X151522165Y-106659000D01*
X151753835Y-105939000D02*
X151522165Y-105939000D01*
%TO.C,C37*%
X141711000Y-110120165D02*
X141711000Y-110351835D01*
X140991000Y-110120165D02*
X140991000Y-110351835D01*
%TO.C,R24*%
X149859000Y-92161379D02*
X149859000Y-92496621D01*
X149099000Y-92161379D02*
X149099000Y-92496621D01*
%TO.C,C11*%
X144039000Y-102350835D02*
X144039000Y-102119165D01*
X144759000Y-102350835D02*
X144759000Y-102119165D01*
%TO.C,C16*%
X144759000Y-104405165D02*
X144759000Y-104636835D01*
X144039000Y-104405165D02*
X144039000Y-104636835D01*
%TO.C,Y1*%
X145123000Y-104527200D02*
X145123000Y-101677200D01*
X145123000Y-101677200D02*
X146723000Y-101677200D01*
X146723000Y-101677200D02*
X146723000Y-104527200D01*
%TO.C,X1*%
X142245000Y-111430000D02*
X142245000Y-108280000D01*
X142245000Y-108280000D02*
X146045000Y-108280000D01*
%TO.C,R23*%
X147067000Y-103591379D02*
X147067000Y-103926621D01*
X147827000Y-103591379D02*
X147827000Y-103926621D01*
%TO.C,R22*%
X147446000Y-108879621D02*
X147446000Y-108544379D01*
X146686000Y-108879621D02*
X146686000Y-108544379D01*
%TO.C,R21*%
X140548379Y-108965000D02*
X140883621Y-108965000D01*
X140548379Y-108205000D02*
X140883621Y-108205000D01*
%TO.C,R20*%
X139701000Y-110068379D02*
X139701000Y-110403621D01*
X140461000Y-110068379D02*
X140461000Y-110403621D01*
%TO.C,R2*%
X180629579Y-106973100D02*
X180964821Y-106973100D01*
X180629579Y-107733100D02*
X180964821Y-107733100D01*
%TO.C,R11*%
X180964821Y-108799900D02*
X180629579Y-108799900D01*
X180964821Y-108039900D02*
X180629579Y-108039900D01*
%TO.C,R14*%
X184838321Y-103453200D02*
X184503079Y-103453200D01*
X184838321Y-102693200D02*
X184503079Y-102693200D01*
%TO.C,R6*%
X184261779Y-106985800D02*
X184597021Y-106985800D01*
X184261779Y-107745800D02*
X184597021Y-107745800D01*
%TO.C,C69*%
X163523665Y-98065000D02*
X163755335Y-98065000D01*
X163523665Y-98785000D02*
X163755335Y-98785000D01*
%TO.C,C70*%
X163150466Y-91168151D02*
X162986651Y-91331966D01*
X162641349Y-90659034D02*
X162477534Y-90822849D01*
%TO.C,C33*%
X155977000Y-103392235D02*
X155977000Y-103160565D01*
X156697000Y-103392235D02*
X156697000Y-103160565D01*
%TO.C,C32*%
X159897400Y-105446565D02*
X159897400Y-105678235D01*
X159177400Y-105446565D02*
X159177400Y-105678235D01*
%TO.C,C31*%
X151195035Y-105617600D02*
X150963365Y-105617600D01*
X151195035Y-104897600D02*
X150963365Y-104897600D01*
%TO.C,C34*%
X155240400Y-98617035D02*
X155240400Y-98385365D01*
X155960400Y-98617035D02*
X155960400Y-98385365D01*
%TO.C,C12*%
X155164200Y-106414835D02*
X155164200Y-106183165D01*
X155884200Y-106414835D02*
X155884200Y-106183165D01*
%TO.C,C7*%
X163912466Y-91930151D02*
X163748651Y-92093966D01*
X163403349Y-91421034D02*
X163239534Y-91584849D01*
%TO.C,C35*%
X151024000Y-98159835D02*
X151024000Y-97928165D01*
X151744000Y-98159835D02*
X151744000Y-97928165D01*
%TO.C,C30*%
X161565000Y-105576635D02*
X161565000Y-105344965D01*
X162285000Y-105576635D02*
X162285000Y-105344965D01*
%TO.C,C29*%
X158297200Y-103846365D02*
X158297200Y-104078035D01*
X157577200Y-103846365D02*
X157577200Y-104078035D01*
%TO.C,C28*%
X154427600Y-104027235D02*
X154427600Y-103795565D01*
X155147600Y-104027235D02*
X155147600Y-103795565D01*
%TO.C,C27*%
X157382800Y-106157765D02*
X157382800Y-106389435D01*
X156662800Y-106157765D02*
X156662800Y-106389435D01*
%TO.C,C26*%
X157338765Y-98090400D02*
X157570435Y-98090400D01*
X157338765Y-98810400D02*
X157570435Y-98810400D01*
%TO.C,C25*%
X162285000Y-102347765D02*
X162285000Y-102579435D01*
X161565000Y-102347765D02*
X161565000Y-102579435D01*
%TO.C,C24*%
X158398800Y-106157765D02*
X158398800Y-106389435D01*
X157678800Y-106157765D02*
X157678800Y-106389435D01*
%TO.C,C23*%
X164698000Y-106284765D02*
X164698000Y-106516435D01*
X163978000Y-106284765D02*
X163978000Y-106516435D01*
%TO.C,C22*%
X159856435Y-98810400D02*
X159624765Y-98810400D01*
X159856435Y-98090400D02*
X159624765Y-98090400D01*
%TO.C,C21*%
X154249800Y-98617035D02*
X154249800Y-98385365D01*
X154969800Y-98617035D02*
X154969800Y-98385365D01*
%TO.C,C20*%
X159653235Y-102010800D02*
X159421565Y-102010800D01*
X159653235Y-101290800D02*
X159421565Y-101290800D01*
%TO.C,C19*%
X160847035Y-107573400D02*
X160615365Y-107573400D01*
X160847035Y-106853400D02*
X160615365Y-106853400D01*
%TO.C,C18*%
X152548000Y-98159835D02*
X152548000Y-97928165D01*
X153268000Y-98159835D02*
X153268000Y-97928165D01*
%TO.C,C14*%
X150963365Y-103907000D02*
X151195035Y-103907000D01*
X150963365Y-104627000D02*
X151195035Y-104627000D01*
%TO.C,R42*%
X170269900Y-78318379D02*
X170269900Y-78653621D01*
X171029900Y-78318379D02*
X171029900Y-78653621D01*
%TO.C,R41*%
X171336700Y-78318379D02*
X171336700Y-78653621D01*
X172096700Y-78318379D02*
X172096700Y-78653621D01*
%TO.C,R40*%
X175730900Y-78318379D02*
X175730900Y-78653621D01*
X176490900Y-78318379D02*
X176490900Y-78653621D01*
%TO.C,R13*%
X176823100Y-78318379D02*
X176823100Y-78653621D01*
X177583100Y-78318379D02*
X177583100Y-78653621D01*
%TO.C,R12*%
X177915300Y-78318379D02*
X177915300Y-78653621D01*
X178675300Y-78318379D02*
X178675300Y-78653621D01*
%TO.C,R10*%
X163170600Y-100644979D02*
X163170600Y-100980221D01*
X163930600Y-100644979D02*
X163930600Y-100980221D01*
%TO.C,C15*%
X152769835Y-100287500D02*
X152538165Y-100287500D01*
X152769835Y-101007500D02*
X152538165Y-101007500D01*
%TO.C,R25*%
D11*
X151072785Y-107740404D02*
X151339452Y-107359452D01*
X151529928Y-107740404D02*
X151529928Y-106940404D01*
X151225166Y-106940404D01*
X151148976Y-106978500D01*
X151110880Y-107016595D01*
X151072785Y-107092785D01*
X151072785Y-107207071D01*
X151110880Y-107283261D01*
X151148976Y-107321357D01*
X151225166Y-107359452D01*
X151529928Y-107359452D01*
X150768023Y-107016595D02*
X150729928Y-106978500D01*
X150653738Y-106940404D01*
X150463261Y-106940404D01*
X150387071Y-106978500D01*
X150348976Y-107016595D01*
X150310880Y-107092785D01*
X150310880Y-107168976D01*
X150348976Y-107283261D01*
X150806119Y-107740404D01*
X150310880Y-107740404D01*
X149587071Y-106940404D02*
X149968023Y-106940404D01*
X150006119Y-107321357D01*
X149968023Y-107283261D01*
X149891833Y-107245166D01*
X149701357Y-107245166D01*
X149625166Y-107283261D01*
X149587071Y-107321357D01*
X149548976Y-107397547D01*
X149548976Y-107588023D01*
X149587071Y-107664214D01*
X149625166Y-107702309D01*
X149701357Y-107740404D01*
X149891833Y-107740404D01*
X149968023Y-107702309D01*
X150006119Y-107664214D01*
%TO.C,C37*%
X141700214Y-112706214D02*
X141738309Y-112668119D01*
X141776404Y-112553833D01*
X141776404Y-112477642D01*
X141738309Y-112363357D01*
X141662119Y-112287166D01*
X141585928Y-112249071D01*
X141433547Y-112210976D01*
X141319261Y-112210976D01*
X141166880Y-112249071D01*
X141090690Y-112287166D01*
X141014500Y-112363357D01*
X140976404Y-112477642D01*
X140976404Y-112553833D01*
X141014500Y-112668119D01*
X141052595Y-112706214D01*
X140976404Y-112972880D02*
X140976404Y-113468119D01*
X141281166Y-113201452D01*
X141281166Y-113315738D01*
X141319261Y-113391928D01*
X141357357Y-113430023D01*
X141433547Y-113468119D01*
X141624023Y-113468119D01*
X141700214Y-113430023D01*
X141738309Y-113391928D01*
X141776404Y-113315738D01*
X141776404Y-113087166D01*
X141738309Y-113010976D01*
X141700214Y-112972880D01*
X140976404Y-113734785D02*
X140976404Y-114268119D01*
X141776404Y-113925261D01*
%TO.C,R24*%
X148670904Y-91814714D02*
X148289952Y-91548047D01*
X148670904Y-91357571D02*
X147870904Y-91357571D01*
X147870904Y-91662333D01*
X147909000Y-91738523D01*
X147947095Y-91776619D01*
X148023285Y-91814714D01*
X148137571Y-91814714D01*
X148213761Y-91776619D01*
X148251857Y-91738523D01*
X148289952Y-91662333D01*
X148289952Y-91357571D01*
X147947095Y-92119476D02*
X147909000Y-92157571D01*
X147870904Y-92233761D01*
X147870904Y-92424238D01*
X147909000Y-92500428D01*
X147947095Y-92538523D01*
X148023285Y-92576619D01*
X148099476Y-92576619D01*
X148213761Y-92538523D01*
X148670904Y-92081380D01*
X148670904Y-92576619D01*
X148137571Y-93262333D02*
X148670904Y-93262333D01*
X147832809Y-93071857D02*
X148404238Y-92881380D01*
X148404238Y-93376619D01*
%TO.C,C11*%
X143287714Y-101720714D02*
X143325809Y-101682619D01*
X143363904Y-101568333D01*
X143363904Y-101492142D01*
X143325809Y-101377857D01*
X143249619Y-101301666D01*
X143173428Y-101263571D01*
X143021047Y-101225476D01*
X142906761Y-101225476D01*
X142754380Y-101263571D01*
X142678190Y-101301666D01*
X142602000Y-101377857D01*
X142563904Y-101492142D01*
X142563904Y-101568333D01*
X142602000Y-101682619D01*
X142640095Y-101720714D01*
X143363904Y-102482619D02*
X143363904Y-102025476D01*
X143363904Y-102254047D02*
X142563904Y-102254047D01*
X142678190Y-102177857D01*
X142754380Y-102101666D01*
X142792476Y-102025476D01*
X143363904Y-103244523D02*
X143363904Y-102787380D01*
X143363904Y-103015952D02*
X142563904Y-103015952D01*
X142678190Y-102939761D01*
X142754380Y-102863571D01*
X142792476Y-102787380D01*
%TO.C,C16*%
X143287714Y-104070214D02*
X143325809Y-104032119D01*
X143363904Y-103917833D01*
X143363904Y-103841642D01*
X143325809Y-103727357D01*
X143249619Y-103651166D01*
X143173428Y-103613071D01*
X143021047Y-103574976D01*
X142906761Y-103574976D01*
X142754380Y-103613071D01*
X142678190Y-103651166D01*
X142602000Y-103727357D01*
X142563904Y-103841642D01*
X142563904Y-103917833D01*
X142602000Y-104032119D01*
X142640095Y-104070214D01*
X143363904Y-104832119D02*
X143363904Y-104374976D01*
X143363904Y-104603547D02*
X142563904Y-104603547D01*
X142678190Y-104527357D01*
X142754380Y-104451166D01*
X142792476Y-104374976D01*
X142563904Y-105517833D02*
X142563904Y-105365452D01*
X142602000Y-105289261D01*
X142640095Y-105251166D01*
X142754380Y-105174976D01*
X142906761Y-105136880D01*
X143211523Y-105136880D01*
X143287714Y-105174976D01*
X143325809Y-105213071D01*
X143363904Y-105289261D01*
X143363904Y-105441642D01*
X143325809Y-105517833D01*
X143287714Y-105555928D01*
X143211523Y-105594023D01*
X143021047Y-105594023D01*
X142944857Y-105555928D01*
X142906761Y-105517833D01*
X142868666Y-105441642D01*
X142868666Y-105289261D01*
X142906761Y-105213071D01*
X142944857Y-105174976D01*
X143021047Y-105136880D01*
%TO.C,Y1*%
X146240452Y-100056952D02*
X146240452Y-100437904D01*
X146507119Y-99637904D02*
X146240452Y-100056952D01*
X145973785Y-99637904D01*
X145288071Y-100437904D02*
X145745214Y-100437904D01*
X145516642Y-100437904D02*
X145516642Y-99637904D01*
X145592833Y-99752190D01*
X145669023Y-99828380D01*
X145745214Y-99866476D01*
%TO.C,X1*%
X145237119Y-107194404D02*
X144703785Y-107994404D01*
X144703785Y-107194404D02*
X145237119Y-107994404D01*
X143979976Y-107994404D02*
X144437119Y-107994404D01*
X144208547Y-107994404D02*
X144208547Y-107194404D01*
X144284738Y-107308690D01*
X144360928Y-107384880D01*
X144437119Y-107422976D01*
%TO.C,R23*%
X147808904Y-105403714D02*
X147427952Y-105137047D01*
X147808904Y-104946571D02*
X147008904Y-104946571D01*
X147008904Y-105251333D01*
X147047000Y-105327523D01*
X147085095Y-105365619D01*
X147161285Y-105403714D01*
X147275571Y-105403714D01*
X147351761Y-105365619D01*
X147389857Y-105327523D01*
X147427952Y-105251333D01*
X147427952Y-104946571D01*
X147085095Y-105708476D02*
X147047000Y-105746571D01*
X147008904Y-105822761D01*
X147008904Y-106013238D01*
X147047000Y-106089428D01*
X147085095Y-106127523D01*
X147161285Y-106165619D01*
X147237476Y-106165619D01*
X147351761Y-106127523D01*
X147808904Y-105670380D01*
X147808904Y-106165619D01*
X147008904Y-106432285D02*
X147008904Y-106927523D01*
X147313666Y-106660857D01*
X147313666Y-106775142D01*
X147351761Y-106851333D01*
X147389857Y-106889428D01*
X147466047Y-106927523D01*
X147656523Y-106927523D01*
X147732714Y-106889428D01*
X147770809Y-106851333D01*
X147808904Y-106775142D01*
X147808904Y-106546571D01*
X147770809Y-106470380D01*
X147732714Y-106432285D01*
%TO.C,R22*%
X147491404Y-110420214D02*
X147110452Y-110153547D01*
X147491404Y-109963071D02*
X146691404Y-109963071D01*
X146691404Y-110267833D01*
X146729500Y-110344023D01*
X146767595Y-110382119D01*
X146843785Y-110420214D01*
X146958071Y-110420214D01*
X147034261Y-110382119D01*
X147072357Y-110344023D01*
X147110452Y-110267833D01*
X147110452Y-109963071D01*
X146767595Y-110724976D02*
X146729500Y-110763071D01*
X146691404Y-110839261D01*
X146691404Y-111029738D01*
X146729500Y-111105928D01*
X146767595Y-111144023D01*
X146843785Y-111182119D01*
X146919976Y-111182119D01*
X147034261Y-111144023D01*
X147491404Y-110686880D01*
X147491404Y-111182119D01*
X146767595Y-111486880D02*
X146729500Y-111524976D01*
X146691404Y-111601166D01*
X146691404Y-111791642D01*
X146729500Y-111867833D01*
X146767595Y-111905928D01*
X146843785Y-111944023D01*
X146919976Y-111944023D01*
X147034261Y-111905928D01*
X147491404Y-111448785D01*
X147491404Y-111944023D01*
%TO.C,R21*%
X141230285Y-107041904D02*
X141496952Y-106660952D01*
X141687428Y-107041904D02*
X141687428Y-106241904D01*
X141382666Y-106241904D01*
X141306476Y-106280000D01*
X141268380Y-106318095D01*
X141230285Y-106394285D01*
X141230285Y-106508571D01*
X141268380Y-106584761D01*
X141306476Y-106622857D01*
X141382666Y-106660952D01*
X141687428Y-106660952D01*
X140925523Y-106318095D02*
X140887428Y-106280000D01*
X140811238Y-106241904D01*
X140620761Y-106241904D01*
X140544571Y-106280000D01*
X140506476Y-106318095D01*
X140468380Y-106394285D01*
X140468380Y-106470476D01*
X140506476Y-106584761D01*
X140963619Y-107041904D01*
X140468380Y-107041904D01*
X139706476Y-107041904D02*
X140163619Y-107041904D01*
X139935047Y-107041904D02*
X139935047Y-106241904D01*
X140011238Y-106356190D01*
X140087428Y-106432380D01*
X140163619Y-106470476D01*
%TO.C,R20*%
X139045904Y-109721714D02*
X138664952Y-109455047D01*
X139045904Y-109264571D02*
X138245904Y-109264571D01*
X138245904Y-109569333D01*
X138284000Y-109645523D01*
X138322095Y-109683619D01*
X138398285Y-109721714D01*
X138512571Y-109721714D01*
X138588761Y-109683619D01*
X138626857Y-109645523D01*
X138664952Y-109569333D01*
X138664952Y-109264571D01*
X138322095Y-110026476D02*
X138284000Y-110064571D01*
X138245904Y-110140761D01*
X138245904Y-110331238D01*
X138284000Y-110407428D01*
X138322095Y-110445523D01*
X138398285Y-110483619D01*
X138474476Y-110483619D01*
X138588761Y-110445523D01*
X139045904Y-109988380D01*
X139045904Y-110483619D01*
X138245904Y-110978857D02*
X138245904Y-111055047D01*
X138284000Y-111131238D01*
X138322095Y-111169333D01*
X138398285Y-111207428D01*
X138550666Y-111245523D01*
X138741142Y-111245523D01*
X138893523Y-111207428D01*
X138969714Y-111169333D01*
X139007809Y-111131238D01*
X139045904Y-111055047D01*
X139045904Y-110978857D01*
X139007809Y-110902666D01*
X138969714Y-110864571D01*
X138893523Y-110826476D01*
X138741142Y-110788380D01*
X138550666Y-110788380D01*
X138398285Y-110826476D01*
X138322095Y-110864571D01*
X138284000Y-110902666D01*
X138245904Y-110978857D01*
%TO.C,R2*%
X179050933Y-107753104D02*
X179317600Y-107372152D01*
X179508076Y-107753104D02*
X179508076Y-106953104D01*
X179203314Y-106953104D01*
X179127123Y-106991200D01*
X179089028Y-107029295D01*
X179050933Y-107105485D01*
X179050933Y-107219771D01*
X179089028Y-107295961D01*
X179127123Y-107334057D01*
X179203314Y-107372152D01*
X179508076Y-107372152D01*
X178746171Y-107029295D02*
X178708076Y-106991200D01*
X178631885Y-106953104D01*
X178441409Y-106953104D01*
X178365219Y-106991200D01*
X178327123Y-107029295D01*
X178289028Y-107105485D01*
X178289028Y-107181676D01*
X178327123Y-107295961D01*
X178784266Y-107753104D01*
X178289028Y-107753104D01*
%TO.C,R11*%
X181286085Y-109823204D02*
X181552752Y-109442252D01*
X181743228Y-109823204D02*
X181743228Y-109023204D01*
X181438466Y-109023204D01*
X181362276Y-109061300D01*
X181324180Y-109099395D01*
X181286085Y-109175585D01*
X181286085Y-109289871D01*
X181324180Y-109366061D01*
X181362276Y-109404157D01*
X181438466Y-109442252D01*
X181743228Y-109442252D01*
X180524180Y-109823204D02*
X180981323Y-109823204D01*
X180752752Y-109823204D02*
X180752752Y-109023204D01*
X180828942Y-109137490D01*
X180905133Y-109213680D01*
X180981323Y-109251776D01*
X179762276Y-109823204D02*
X180219419Y-109823204D01*
X179990847Y-109823204D02*
X179990847Y-109023204D01*
X180067038Y-109137490D01*
X180143228Y-109213680D01*
X180219419Y-109251776D01*
%TO.C,R14*%
X185146885Y-102431804D02*
X185413552Y-102050852D01*
X185604028Y-102431804D02*
X185604028Y-101631804D01*
X185299266Y-101631804D01*
X185223076Y-101669900D01*
X185184980Y-101707995D01*
X185146885Y-101784185D01*
X185146885Y-101898471D01*
X185184980Y-101974661D01*
X185223076Y-102012757D01*
X185299266Y-102050852D01*
X185604028Y-102050852D01*
X184384980Y-102431804D02*
X184842123Y-102431804D01*
X184613552Y-102431804D02*
X184613552Y-101631804D01*
X184689742Y-101746090D01*
X184765933Y-101822280D01*
X184842123Y-101860376D01*
X183699266Y-101898471D02*
X183699266Y-102431804D01*
X183889742Y-101593709D02*
X184080219Y-102165138D01*
X183584980Y-102165138D01*
%TO.C,R6*%
X184562733Y-108743704D02*
X184829400Y-108362752D01*
X185019876Y-108743704D02*
X185019876Y-107943704D01*
X184715114Y-107943704D01*
X184638923Y-107981800D01*
X184600828Y-108019895D01*
X184562733Y-108096085D01*
X184562733Y-108210371D01*
X184600828Y-108286561D01*
X184638923Y-108324657D01*
X184715114Y-108362752D01*
X185019876Y-108362752D01*
X183877019Y-107943704D02*
X184029400Y-107943704D01*
X184105590Y-107981800D01*
X184143685Y-108019895D01*
X184219876Y-108134180D01*
X184257971Y-108286561D01*
X184257971Y-108591323D01*
X184219876Y-108667514D01*
X184181780Y-108705609D01*
X184105590Y-108743704D01*
X183953209Y-108743704D01*
X183877019Y-108705609D01*
X183838923Y-108667514D01*
X183800828Y-108591323D01*
X183800828Y-108400847D01*
X183838923Y-108324657D01*
X183877019Y-108286561D01*
X183953209Y-108248466D01*
X184105590Y-108248466D01*
X184181780Y-108286561D01*
X184219876Y-108324657D01*
X184257971Y-108400847D01*
%TO.C,C69*%
X164090285Y-97059714D02*
X164128380Y-97097809D01*
X164242666Y-97135904D01*
X164318857Y-97135904D01*
X164433142Y-97097809D01*
X164509333Y-97021619D01*
X164547428Y-96945428D01*
X164585523Y-96793047D01*
X164585523Y-96678761D01*
X164547428Y-96526380D01*
X164509333Y-96450190D01*
X164433142Y-96374000D01*
X164318857Y-96335904D01*
X164242666Y-96335904D01*
X164128380Y-96374000D01*
X164090285Y-96412095D01*
X163404571Y-96335904D02*
X163556952Y-96335904D01*
X163633142Y-96374000D01*
X163671238Y-96412095D01*
X163747428Y-96526380D01*
X163785523Y-96678761D01*
X163785523Y-96983523D01*
X163747428Y-97059714D01*
X163709333Y-97097809D01*
X163633142Y-97135904D01*
X163480761Y-97135904D01*
X163404571Y-97097809D01*
X163366476Y-97059714D01*
X163328380Y-96983523D01*
X163328380Y-96793047D01*
X163366476Y-96716857D01*
X163404571Y-96678761D01*
X163480761Y-96640666D01*
X163633142Y-96640666D01*
X163709333Y-96678761D01*
X163747428Y-96716857D01*
X163785523Y-96793047D01*
X162947428Y-97135904D02*
X162795047Y-97135904D01*
X162718857Y-97097809D01*
X162680761Y-97059714D01*
X162604571Y-96945428D01*
X162566476Y-96793047D01*
X162566476Y-96488285D01*
X162604571Y-96412095D01*
X162642666Y-96374000D01*
X162718857Y-96335904D01*
X162871238Y-96335904D01*
X162947428Y-96374000D01*
X162985523Y-96412095D01*
X163023619Y-96488285D01*
X163023619Y-96678761D01*
X162985523Y-96754952D01*
X162947428Y-96793047D01*
X162871238Y-96831142D01*
X162718857Y-96831142D01*
X162642666Y-96793047D01*
X162604571Y-96754952D01*
X162566476Y-96678761D01*
%TO.C,C70*%
X165056085Y-89246375D02*
X165109960Y-89246375D01*
X165217709Y-89192500D01*
X165271584Y-89138625D01*
X165325459Y-89030876D01*
X165325459Y-88923126D01*
X165298522Y-88842314D01*
X165217709Y-88707627D01*
X165136897Y-88626815D01*
X165002210Y-88546003D01*
X164921398Y-88519065D01*
X164813648Y-88519065D01*
X164705899Y-88572940D01*
X164652024Y-88626815D01*
X164598149Y-88734564D01*
X164598149Y-88788439D01*
X164355712Y-88923126D02*
X163978589Y-89300250D01*
X164786711Y-89623499D01*
X163655340Y-89623499D02*
X163601465Y-89677374D01*
X163574528Y-89758186D01*
X163574528Y-89812061D01*
X163601465Y-89892873D01*
X163682277Y-90027560D01*
X163816964Y-90162247D01*
X163951651Y-90243059D01*
X164032464Y-90269996D01*
X164086338Y-90269996D01*
X164167151Y-90243059D01*
X164221025Y-90189184D01*
X164247963Y-90108372D01*
X164247963Y-90054497D01*
X164221025Y-89973685D01*
X164140213Y-89838998D01*
X164005526Y-89704311D01*
X163870839Y-89623499D01*
X163790027Y-89596561D01*
X163736152Y-89596561D01*
X163655340Y-89623499D01*
%TO.C,L3*%
X153396904Y-107816666D02*
X153396904Y-107435714D01*
X152596904Y-107435714D01*
X152596904Y-108007142D02*
X152596904Y-108502380D01*
X152901666Y-108235714D01*
X152901666Y-108350000D01*
X152939761Y-108426190D01*
X152977857Y-108464285D01*
X153054047Y-108502380D01*
X153244523Y-108502380D01*
X153320714Y-108464285D01*
X153358809Y-108426190D01*
X153396904Y-108350000D01*
X153396904Y-108121428D01*
X153358809Y-108045238D01*
X153320714Y-108007142D01*
%TO.C,C33*%
X156597314Y-110026514D02*
X156635409Y-109988419D01*
X156673504Y-109874133D01*
X156673504Y-109797942D01*
X156635409Y-109683657D01*
X156559219Y-109607466D01*
X156483028Y-109569371D01*
X156330647Y-109531276D01*
X156216361Y-109531276D01*
X156063980Y-109569371D01*
X155987790Y-109607466D01*
X155911600Y-109683657D01*
X155873504Y-109797942D01*
X155873504Y-109874133D01*
X155911600Y-109988419D01*
X155949695Y-110026514D01*
X155873504Y-110293180D02*
X155873504Y-110788419D01*
X156178266Y-110521752D01*
X156178266Y-110636038D01*
X156216361Y-110712228D01*
X156254457Y-110750323D01*
X156330647Y-110788419D01*
X156521123Y-110788419D01*
X156597314Y-110750323D01*
X156635409Y-110712228D01*
X156673504Y-110636038D01*
X156673504Y-110407466D01*
X156635409Y-110331276D01*
X156597314Y-110293180D01*
X155873504Y-111055085D02*
X155873504Y-111550323D01*
X156178266Y-111283657D01*
X156178266Y-111397942D01*
X156216361Y-111474133D01*
X156254457Y-111512228D01*
X156330647Y-111550323D01*
X156521123Y-111550323D01*
X156597314Y-111512228D01*
X156635409Y-111474133D01*
X156673504Y-111397942D01*
X156673504Y-111169371D01*
X156635409Y-111093180D01*
X156597314Y-111055085D01*
%TO.C,C32*%
X159848514Y-109975714D02*
X159886609Y-109937619D01*
X159924704Y-109823333D01*
X159924704Y-109747142D01*
X159886609Y-109632857D01*
X159810419Y-109556666D01*
X159734228Y-109518571D01*
X159581847Y-109480476D01*
X159467561Y-109480476D01*
X159315180Y-109518571D01*
X159238990Y-109556666D01*
X159162800Y-109632857D01*
X159124704Y-109747142D01*
X159124704Y-109823333D01*
X159162800Y-109937619D01*
X159200895Y-109975714D01*
X159124704Y-110242380D02*
X159124704Y-110737619D01*
X159429466Y-110470952D01*
X159429466Y-110585238D01*
X159467561Y-110661428D01*
X159505657Y-110699523D01*
X159581847Y-110737619D01*
X159772323Y-110737619D01*
X159848514Y-110699523D01*
X159886609Y-110661428D01*
X159924704Y-110585238D01*
X159924704Y-110356666D01*
X159886609Y-110280476D01*
X159848514Y-110242380D01*
X159200895Y-111042380D02*
X159162800Y-111080476D01*
X159124704Y-111156666D01*
X159124704Y-111347142D01*
X159162800Y-111423333D01*
X159200895Y-111461428D01*
X159277085Y-111499523D01*
X159353276Y-111499523D01*
X159467561Y-111461428D01*
X159924704Y-111004285D01*
X159924704Y-111499523D01*
%TO.C,C31*%
X149485285Y-105505214D02*
X149523380Y-105543309D01*
X149637666Y-105581404D01*
X149713857Y-105581404D01*
X149828142Y-105543309D01*
X149904333Y-105467119D01*
X149942428Y-105390928D01*
X149980523Y-105238547D01*
X149980523Y-105124261D01*
X149942428Y-104971880D01*
X149904333Y-104895690D01*
X149828142Y-104819500D01*
X149713857Y-104781404D01*
X149637666Y-104781404D01*
X149523380Y-104819500D01*
X149485285Y-104857595D01*
X149218619Y-104781404D02*
X148723380Y-104781404D01*
X148990047Y-105086166D01*
X148875761Y-105086166D01*
X148799571Y-105124261D01*
X148761476Y-105162357D01*
X148723380Y-105238547D01*
X148723380Y-105429023D01*
X148761476Y-105505214D01*
X148799571Y-105543309D01*
X148875761Y-105581404D01*
X149104333Y-105581404D01*
X149180523Y-105543309D01*
X149218619Y-105505214D01*
X147961476Y-105581404D02*
X148418619Y-105581404D01*
X148190047Y-105581404D02*
X148190047Y-104781404D01*
X148266238Y-104895690D01*
X148342428Y-104971880D01*
X148418619Y-105009976D01*
%TO.C,C34*%
X155924214Y-94989714D02*
X155962309Y-94951619D01*
X156000404Y-94837333D01*
X156000404Y-94761142D01*
X155962309Y-94646857D01*
X155886119Y-94570666D01*
X155809928Y-94532571D01*
X155657547Y-94494476D01*
X155543261Y-94494476D01*
X155390880Y-94532571D01*
X155314690Y-94570666D01*
X155238500Y-94646857D01*
X155200404Y-94761142D01*
X155200404Y-94837333D01*
X155238500Y-94951619D01*
X155276595Y-94989714D01*
X155200404Y-95256380D02*
X155200404Y-95751619D01*
X155505166Y-95484952D01*
X155505166Y-95599238D01*
X155543261Y-95675428D01*
X155581357Y-95713523D01*
X155657547Y-95751619D01*
X155848023Y-95751619D01*
X155924214Y-95713523D01*
X155962309Y-95675428D01*
X156000404Y-95599238D01*
X156000404Y-95370666D01*
X155962309Y-95294476D01*
X155924214Y-95256380D01*
X155467071Y-96437333D02*
X156000404Y-96437333D01*
X155162309Y-96246857D02*
X155733738Y-96056380D01*
X155733738Y-96551619D01*
%TO.C,C12*%
X155886114Y-112414114D02*
X155924209Y-112376019D01*
X155962304Y-112261733D01*
X155962304Y-112185542D01*
X155924209Y-112071257D01*
X155848019Y-111995066D01*
X155771828Y-111956971D01*
X155619447Y-111918876D01*
X155505161Y-111918876D01*
X155352780Y-111956971D01*
X155276590Y-111995066D01*
X155200400Y-112071257D01*
X155162304Y-112185542D01*
X155162304Y-112261733D01*
X155200400Y-112376019D01*
X155238495Y-112414114D01*
X155962304Y-113176019D02*
X155962304Y-112718876D01*
X155962304Y-112947447D02*
X155162304Y-112947447D01*
X155276590Y-112871257D01*
X155352780Y-112795066D01*
X155390876Y-112718876D01*
X155238495Y-113480780D02*
X155200400Y-113518876D01*
X155162304Y-113595066D01*
X155162304Y-113785542D01*
X155200400Y-113861733D01*
X155238495Y-113899828D01*
X155314685Y-113937923D01*
X155390876Y-113937923D01*
X155505161Y-113899828D01*
X155962304Y-113442685D01*
X155962304Y-113937923D01*
%TO.C,C7*%
X165345511Y-90531749D02*
X165399386Y-90531749D01*
X165507135Y-90477874D01*
X165561010Y-90424000D01*
X165614885Y-90316250D01*
X165614885Y-90208500D01*
X165587948Y-90127688D01*
X165507135Y-89993001D01*
X165426323Y-89912189D01*
X165291636Y-89831377D01*
X165210824Y-89804439D01*
X165103074Y-89804439D01*
X164995325Y-89858314D01*
X164941450Y-89912189D01*
X164887575Y-90019938D01*
X164887575Y-90073813D01*
X164645138Y-90208500D02*
X164268015Y-90585624D01*
X165076137Y-90908873D01*
%TO.C,C35*%
X150717214Y-97466214D02*
X150755309Y-97428119D01*
X150793404Y-97313833D01*
X150793404Y-97237642D01*
X150755309Y-97123357D01*
X150679119Y-97047166D01*
X150602928Y-97009071D01*
X150450547Y-96970976D01*
X150336261Y-96970976D01*
X150183880Y-97009071D01*
X150107690Y-97047166D01*
X150031500Y-97123357D01*
X149993404Y-97237642D01*
X149993404Y-97313833D01*
X150031500Y-97428119D01*
X150069595Y-97466214D01*
X149993404Y-97732880D02*
X149993404Y-98228119D01*
X150298166Y-97961452D01*
X150298166Y-98075738D01*
X150336261Y-98151928D01*
X150374357Y-98190023D01*
X150450547Y-98228119D01*
X150641023Y-98228119D01*
X150717214Y-98190023D01*
X150755309Y-98151928D01*
X150793404Y-98075738D01*
X150793404Y-97847166D01*
X150755309Y-97770976D01*
X150717214Y-97732880D01*
X149993404Y-98951928D02*
X149993404Y-98570976D01*
X150374357Y-98532880D01*
X150336261Y-98570976D01*
X150298166Y-98647166D01*
X150298166Y-98837642D01*
X150336261Y-98913833D01*
X150374357Y-98951928D01*
X150450547Y-98990023D01*
X150641023Y-98990023D01*
X150717214Y-98951928D01*
X150755309Y-98913833D01*
X150793404Y-98837642D01*
X150793404Y-98647166D01*
X150755309Y-98570976D01*
X150717214Y-98532880D01*
%TO.C,C30*%
X162083714Y-110839314D02*
X162121809Y-110801219D01*
X162159904Y-110686933D01*
X162159904Y-110610742D01*
X162121809Y-110496457D01*
X162045619Y-110420266D01*
X161969428Y-110382171D01*
X161817047Y-110344076D01*
X161702761Y-110344076D01*
X161550380Y-110382171D01*
X161474190Y-110420266D01*
X161398000Y-110496457D01*
X161359904Y-110610742D01*
X161359904Y-110686933D01*
X161398000Y-110801219D01*
X161436095Y-110839314D01*
X161359904Y-111105980D02*
X161359904Y-111601219D01*
X161664666Y-111334552D01*
X161664666Y-111448838D01*
X161702761Y-111525028D01*
X161740857Y-111563123D01*
X161817047Y-111601219D01*
X162007523Y-111601219D01*
X162083714Y-111563123D01*
X162121809Y-111525028D01*
X162159904Y-111448838D01*
X162159904Y-111220266D01*
X162121809Y-111144076D01*
X162083714Y-111105980D01*
X161359904Y-112096457D02*
X161359904Y-112172647D01*
X161398000Y-112248838D01*
X161436095Y-112286933D01*
X161512285Y-112325028D01*
X161664666Y-112363123D01*
X161855142Y-112363123D01*
X162007523Y-112325028D01*
X162083714Y-112286933D01*
X162121809Y-112248838D01*
X162159904Y-112172647D01*
X162159904Y-112096457D01*
X162121809Y-112020266D01*
X162083714Y-111982171D01*
X162007523Y-111944076D01*
X161855142Y-111905980D01*
X161664666Y-111905980D01*
X161512285Y-111944076D01*
X161436095Y-111982171D01*
X161398000Y-112020266D01*
X161359904Y-112096457D01*
%TO.C,C29*%
X158451514Y-109975714D02*
X158489609Y-109937619D01*
X158527704Y-109823333D01*
X158527704Y-109747142D01*
X158489609Y-109632857D01*
X158413419Y-109556666D01*
X158337228Y-109518571D01*
X158184847Y-109480476D01*
X158070561Y-109480476D01*
X157918180Y-109518571D01*
X157841990Y-109556666D01*
X157765800Y-109632857D01*
X157727704Y-109747142D01*
X157727704Y-109823333D01*
X157765800Y-109937619D01*
X157803895Y-109975714D01*
X157803895Y-110280476D02*
X157765800Y-110318571D01*
X157727704Y-110394761D01*
X157727704Y-110585238D01*
X157765800Y-110661428D01*
X157803895Y-110699523D01*
X157880085Y-110737619D01*
X157956276Y-110737619D01*
X158070561Y-110699523D01*
X158527704Y-110242380D01*
X158527704Y-110737619D01*
X158527704Y-111118571D02*
X158527704Y-111270952D01*
X158489609Y-111347142D01*
X158451514Y-111385238D01*
X158337228Y-111461428D01*
X158184847Y-111499523D01*
X157880085Y-111499523D01*
X157803895Y-111461428D01*
X157765800Y-111423333D01*
X157727704Y-111347142D01*
X157727704Y-111194761D01*
X157765800Y-111118571D01*
X157803895Y-111080476D01*
X157880085Y-111042380D01*
X158070561Y-111042380D01*
X158146752Y-111080476D01*
X158184847Y-111118571D01*
X158222942Y-111194761D01*
X158222942Y-111347142D01*
X158184847Y-111423333D01*
X158146752Y-111461428D01*
X158070561Y-111499523D01*
%TO.C,C28*%
X155073314Y-110026514D02*
X155111409Y-109988419D01*
X155149504Y-109874133D01*
X155149504Y-109797942D01*
X155111409Y-109683657D01*
X155035219Y-109607466D01*
X154959028Y-109569371D01*
X154806647Y-109531276D01*
X154692361Y-109531276D01*
X154539980Y-109569371D01*
X154463790Y-109607466D01*
X154387600Y-109683657D01*
X154349504Y-109797942D01*
X154349504Y-109874133D01*
X154387600Y-109988419D01*
X154425695Y-110026514D01*
X154425695Y-110331276D02*
X154387600Y-110369371D01*
X154349504Y-110445561D01*
X154349504Y-110636038D01*
X154387600Y-110712228D01*
X154425695Y-110750323D01*
X154501885Y-110788419D01*
X154578076Y-110788419D01*
X154692361Y-110750323D01*
X155149504Y-110293180D01*
X155149504Y-110788419D01*
X154692361Y-111245561D02*
X154654266Y-111169371D01*
X154616171Y-111131276D01*
X154539980Y-111093180D01*
X154501885Y-111093180D01*
X154425695Y-111131276D01*
X154387600Y-111169371D01*
X154349504Y-111245561D01*
X154349504Y-111397942D01*
X154387600Y-111474133D01*
X154425695Y-111512228D01*
X154501885Y-111550323D01*
X154539980Y-111550323D01*
X154616171Y-111512228D01*
X154654266Y-111474133D01*
X154692361Y-111397942D01*
X154692361Y-111245561D01*
X154730457Y-111169371D01*
X154768552Y-111131276D01*
X154844742Y-111093180D01*
X154997123Y-111093180D01*
X155073314Y-111131276D01*
X155111409Y-111169371D01*
X155149504Y-111245561D01*
X155149504Y-111397942D01*
X155111409Y-111474133D01*
X155073314Y-111512228D01*
X154997123Y-111550323D01*
X154844742Y-111550323D01*
X154768552Y-111512228D01*
X154730457Y-111474133D01*
X154692361Y-111397942D01*
%TO.C,C27*%
X157257714Y-112414114D02*
X157295809Y-112376019D01*
X157333904Y-112261733D01*
X157333904Y-112185542D01*
X157295809Y-112071257D01*
X157219619Y-111995066D01*
X157143428Y-111956971D01*
X156991047Y-111918876D01*
X156876761Y-111918876D01*
X156724380Y-111956971D01*
X156648190Y-111995066D01*
X156572000Y-112071257D01*
X156533904Y-112185542D01*
X156533904Y-112261733D01*
X156572000Y-112376019D01*
X156610095Y-112414114D01*
X156610095Y-112718876D02*
X156572000Y-112756971D01*
X156533904Y-112833161D01*
X156533904Y-113023638D01*
X156572000Y-113099828D01*
X156610095Y-113137923D01*
X156686285Y-113176019D01*
X156762476Y-113176019D01*
X156876761Y-113137923D01*
X157333904Y-112680780D01*
X157333904Y-113176019D01*
X156533904Y-113442685D02*
X156533904Y-113976019D01*
X157333904Y-113633161D01*
%TO.C,C26*%
X157994285Y-95129314D02*
X158032380Y-95167409D01*
X158146666Y-95205504D01*
X158222857Y-95205504D01*
X158337142Y-95167409D01*
X158413333Y-95091219D01*
X158451428Y-95015028D01*
X158489523Y-94862647D01*
X158489523Y-94748361D01*
X158451428Y-94595980D01*
X158413333Y-94519790D01*
X158337142Y-94443600D01*
X158222857Y-94405504D01*
X158146666Y-94405504D01*
X158032380Y-94443600D01*
X157994285Y-94481695D01*
X157689523Y-94481695D02*
X157651428Y-94443600D01*
X157575238Y-94405504D01*
X157384761Y-94405504D01*
X157308571Y-94443600D01*
X157270476Y-94481695D01*
X157232380Y-94557885D01*
X157232380Y-94634076D01*
X157270476Y-94748361D01*
X157727619Y-95205504D01*
X157232380Y-95205504D01*
X156546666Y-94405504D02*
X156699047Y-94405504D01*
X156775238Y-94443600D01*
X156813333Y-94481695D01*
X156889523Y-94595980D01*
X156927619Y-94748361D01*
X156927619Y-95053123D01*
X156889523Y-95129314D01*
X156851428Y-95167409D01*
X156775238Y-95205504D01*
X156622857Y-95205504D01*
X156546666Y-95167409D01*
X156508571Y-95129314D01*
X156470476Y-95053123D01*
X156470476Y-94862647D01*
X156508571Y-94786457D01*
X156546666Y-94748361D01*
X156622857Y-94710266D01*
X156775238Y-94710266D01*
X156851428Y-94748361D01*
X156889523Y-94786457D01*
X156927619Y-94862647D01*
%TO.C,C25*%
X170008485Y-102901714D02*
X170046580Y-102939809D01*
X170160866Y-102977904D01*
X170237057Y-102977904D01*
X170351342Y-102939809D01*
X170427533Y-102863619D01*
X170465628Y-102787428D01*
X170503723Y-102635047D01*
X170503723Y-102520761D01*
X170465628Y-102368380D01*
X170427533Y-102292190D01*
X170351342Y-102216000D01*
X170237057Y-102177904D01*
X170160866Y-102177904D01*
X170046580Y-102216000D01*
X170008485Y-102254095D01*
X169703723Y-102254095D02*
X169665628Y-102216000D01*
X169589438Y-102177904D01*
X169398961Y-102177904D01*
X169322771Y-102216000D01*
X169284676Y-102254095D01*
X169246580Y-102330285D01*
X169246580Y-102406476D01*
X169284676Y-102520761D01*
X169741819Y-102977904D01*
X169246580Y-102977904D01*
X168522771Y-102177904D02*
X168903723Y-102177904D01*
X168941819Y-102558857D01*
X168903723Y-102520761D01*
X168827533Y-102482666D01*
X168637057Y-102482666D01*
X168560866Y-102520761D01*
X168522771Y-102558857D01*
X168484676Y-102635047D01*
X168484676Y-102825523D01*
X168522771Y-102901714D01*
X168560866Y-102939809D01*
X168637057Y-102977904D01*
X168827533Y-102977904D01*
X168903723Y-102939809D01*
X168941819Y-102901714D01*
%TO.C,C24*%
X158553114Y-112236314D02*
X158591209Y-112198219D01*
X158629304Y-112083933D01*
X158629304Y-112007742D01*
X158591209Y-111893457D01*
X158515019Y-111817266D01*
X158438828Y-111779171D01*
X158286447Y-111741076D01*
X158172161Y-111741076D01*
X158019780Y-111779171D01*
X157943590Y-111817266D01*
X157867400Y-111893457D01*
X157829304Y-112007742D01*
X157829304Y-112083933D01*
X157867400Y-112198219D01*
X157905495Y-112236314D01*
X157905495Y-112541076D02*
X157867400Y-112579171D01*
X157829304Y-112655361D01*
X157829304Y-112845838D01*
X157867400Y-112922028D01*
X157905495Y-112960123D01*
X157981685Y-112998219D01*
X158057876Y-112998219D01*
X158172161Y-112960123D01*
X158629304Y-112502980D01*
X158629304Y-112998219D01*
X158095971Y-113683933D02*
X158629304Y-113683933D01*
X157791209Y-113493457D02*
X158362638Y-113302980D01*
X158362638Y-113798219D01*
%TO.C,C23*%
X164623714Y-110128114D02*
X164661809Y-110090019D01*
X164699904Y-109975733D01*
X164699904Y-109899542D01*
X164661809Y-109785257D01*
X164585619Y-109709066D01*
X164509428Y-109670971D01*
X164357047Y-109632876D01*
X164242761Y-109632876D01*
X164090380Y-109670971D01*
X164014190Y-109709066D01*
X163938000Y-109785257D01*
X163899904Y-109899542D01*
X163899904Y-109975733D01*
X163938000Y-110090019D01*
X163976095Y-110128114D01*
X163976095Y-110432876D02*
X163938000Y-110470971D01*
X163899904Y-110547161D01*
X163899904Y-110737638D01*
X163938000Y-110813828D01*
X163976095Y-110851923D01*
X164052285Y-110890019D01*
X164128476Y-110890019D01*
X164242761Y-110851923D01*
X164699904Y-110394780D01*
X164699904Y-110890019D01*
X163899904Y-111156685D02*
X163899904Y-111651923D01*
X164204666Y-111385257D01*
X164204666Y-111499542D01*
X164242761Y-111575733D01*
X164280857Y-111613828D01*
X164357047Y-111651923D01*
X164547523Y-111651923D01*
X164623714Y-111613828D01*
X164661809Y-111575733D01*
X164699904Y-111499542D01*
X164699904Y-111270971D01*
X164661809Y-111194780D01*
X164623714Y-111156685D01*
%TO.C,C22*%
X160407285Y-95091214D02*
X160445380Y-95129309D01*
X160559666Y-95167404D01*
X160635857Y-95167404D01*
X160750142Y-95129309D01*
X160826333Y-95053119D01*
X160864428Y-94976928D01*
X160902523Y-94824547D01*
X160902523Y-94710261D01*
X160864428Y-94557880D01*
X160826333Y-94481690D01*
X160750142Y-94405500D01*
X160635857Y-94367404D01*
X160559666Y-94367404D01*
X160445380Y-94405500D01*
X160407285Y-94443595D01*
X160102523Y-94443595D02*
X160064428Y-94405500D01*
X159988238Y-94367404D01*
X159797761Y-94367404D01*
X159721571Y-94405500D01*
X159683476Y-94443595D01*
X159645380Y-94519785D01*
X159645380Y-94595976D01*
X159683476Y-94710261D01*
X160140619Y-95167404D01*
X159645380Y-95167404D01*
X159340619Y-94443595D02*
X159302523Y-94405500D01*
X159226333Y-94367404D01*
X159035857Y-94367404D01*
X158959666Y-94405500D01*
X158921571Y-94443595D01*
X158883476Y-94519785D01*
X158883476Y-94595976D01*
X158921571Y-94710261D01*
X159378714Y-95167404D01*
X158883476Y-95167404D01*
%TO.C,C21*%
X154971714Y-95243714D02*
X155009809Y-95205619D01*
X155047904Y-95091333D01*
X155047904Y-95015142D01*
X155009809Y-94900857D01*
X154933619Y-94824666D01*
X154857428Y-94786571D01*
X154705047Y-94748476D01*
X154590761Y-94748476D01*
X154438380Y-94786571D01*
X154362190Y-94824666D01*
X154286000Y-94900857D01*
X154247904Y-95015142D01*
X154247904Y-95091333D01*
X154286000Y-95205619D01*
X154324095Y-95243714D01*
X154324095Y-95548476D02*
X154286000Y-95586571D01*
X154247904Y-95662761D01*
X154247904Y-95853238D01*
X154286000Y-95929428D01*
X154324095Y-95967523D01*
X154400285Y-96005619D01*
X154476476Y-96005619D01*
X154590761Y-95967523D01*
X155047904Y-95510380D01*
X155047904Y-96005619D01*
X155047904Y-96767523D02*
X155047904Y-96310380D01*
X155047904Y-96538952D02*
X154247904Y-96538952D01*
X154362190Y-96462761D01*
X154438380Y-96386571D01*
X154476476Y-96310380D01*
%TO.C,C20*%
X170033885Y-101885714D02*
X170071980Y-101923809D01*
X170186266Y-101961904D01*
X170262457Y-101961904D01*
X170376742Y-101923809D01*
X170452933Y-101847619D01*
X170491028Y-101771428D01*
X170529123Y-101619047D01*
X170529123Y-101504761D01*
X170491028Y-101352380D01*
X170452933Y-101276190D01*
X170376742Y-101200000D01*
X170262457Y-101161904D01*
X170186266Y-101161904D01*
X170071980Y-101200000D01*
X170033885Y-101238095D01*
X169729123Y-101238095D02*
X169691028Y-101200000D01*
X169614838Y-101161904D01*
X169424361Y-101161904D01*
X169348171Y-101200000D01*
X169310076Y-101238095D01*
X169271980Y-101314285D01*
X169271980Y-101390476D01*
X169310076Y-101504761D01*
X169767219Y-101961904D01*
X169271980Y-101961904D01*
X168776742Y-101161904D02*
X168700552Y-101161904D01*
X168624361Y-101200000D01*
X168586266Y-101238095D01*
X168548171Y-101314285D01*
X168510076Y-101466666D01*
X168510076Y-101657142D01*
X168548171Y-101809523D01*
X168586266Y-101885714D01*
X168624361Y-101923809D01*
X168700552Y-101961904D01*
X168776742Y-101961904D01*
X168852933Y-101923809D01*
X168891028Y-101885714D01*
X168929123Y-101809523D01*
X168967219Y-101657142D01*
X168967219Y-101466666D01*
X168929123Y-101314285D01*
X168891028Y-101238095D01*
X168852933Y-101200000D01*
X168776742Y-101161904D01*
%TO.C,C19*%
X160991514Y-109975714D02*
X161029609Y-109937619D01*
X161067704Y-109823333D01*
X161067704Y-109747142D01*
X161029609Y-109632857D01*
X160953419Y-109556666D01*
X160877228Y-109518571D01*
X160724847Y-109480476D01*
X160610561Y-109480476D01*
X160458180Y-109518571D01*
X160381990Y-109556666D01*
X160305800Y-109632857D01*
X160267704Y-109747142D01*
X160267704Y-109823333D01*
X160305800Y-109937619D01*
X160343895Y-109975714D01*
X161067704Y-110737619D02*
X161067704Y-110280476D01*
X161067704Y-110509047D02*
X160267704Y-110509047D01*
X160381990Y-110432857D01*
X160458180Y-110356666D01*
X160496276Y-110280476D01*
X161067704Y-111118571D02*
X161067704Y-111270952D01*
X161029609Y-111347142D01*
X160991514Y-111385238D01*
X160877228Y-111461428D01*
X160724847Y-111499523D01*
X160420085Y-111499523D01*
X160343895Y-111461428D01*
X160305800Y-111423333D01*
X160267704Y-111347142D01*
X160267704Y-111194761D01*
X160305800Y-111118571D01*
X160343895Y-111080476D01*
X160420085Y-111042380D01*
X160610561Y-111042380D01*
X160686752Y-111080476D01*
X160724847Y-111118571D01*
X160762942Y-111194761D01*
X160762942Y-111347142D01*
X160724847Y-111423333D01*
X160686752Y-111461428D01*
X160610561Y-111499523D01*
%TO.C,C18*%
X153193714Y-94100714D02*
X153231809Y-94062619D01*
X153269904Y-93948333D01*
X153269904Y-93872142D01*
X153231809Y-93757857D01*
X153155619Y-93681666D01*
X153079428Y-93643571D01*
X152927047Y-93605476D01*
X152812761Y-93605476D01*
X152660380Y-93643571D01*
X152584190Y-93681666D01*
X152508000Y-93757857D01*
X152469904Y-93872142D01*
X152469904Y-93948333D01*
X152508000Y-94062619D01*
X152546095Y-94100714D01*
X153269904Y-94862619D02*
X153269904Y-94405476D01*
X153269904Y-94634047D02*
X152469904Y-94634047D01*
X152584190Y-94557857D01*
X152660380Y-94481666D01*
X152698476Y-94405476D01*
X152812761Y-95319761D02*
X152774666Y-95243571D01*
X152736571Y-95205476D01*
X152660380Y-95167380D01*
X152622285Y-95167380D01*
X152546095Y-95205476D01*
X152508000Y-95243571D01*
X152469904Y-95319761D01*
X152469904Y-95472142D01*
X152508000Y-95548333D01*
X152546095Y-95586428D01*
X152622285Y-95624523D01*
X152660380Y-95624523D01*
X152736571Y-95586428D01*
X152774666Y-95548333D01*
X152812761Y-95472142D01*
X152812761Y-95319761D01*
X152850857Y-95243571D01*
X152888952Y-95205476D01*
X152965142Y-95167380D01*
X153117523Y-95167380D01*
X153193714Y-95205476D01*
X153231809Y-95243571D01*
X153269904Y-95319761D01*
X153269904Y-95472142D01*
X153231809Y-95548333D01*
X153193714Y-95586428D01*
X153117523Y-95624523D01*
X152965142Y-95624523D01*
X152888952Y-95586428D01*
X152850857Y-95548333D01*
X152812761Y-95472142D01*
%TO.C,C14*%
X151644285Y-103600214D02*
X151682380Y-103638309D01*
X151796666Y-103676404D01*
X151872857Y-103676404D01*
X151987142Y-103638309D01*
X152063333Y-103562119D01*
X152101428Y-103485928D01*
X152139523Y-103333547D01*
X152139523Y-103219261D01*
X152101428Y-103066880D01*
X152063333Y-102990690D01*
X151987142Y-102914500D01*
X151872857Y-102876404D01*
X151796666Y-102876404D01*
X151682380Y-102914500D01*
X151644285Y-102952595D01*
X150882380Y-103676404D02*
X151339523Y-103676404D01*
X151110952Y-103676404D02*
X151110952Y-102876404D01*
X151187142Y-102990690D01*
X151263333Y-103066880D01*
X151339523Y-103104976D01*
X150196666Y-103143071D02*
X150196666Y-103676404D01*
X150387142Y-102838309D02*
X150577619Y-103409738D01*
X150082380Y-103409738D01*
%TO.C,R42*%
X171011804Y-75685714D02*
X170630852Y-75419047D01*
X171011804Y-75228571D02*
X170211804Y-75228571D01*
X170211804Y-75533333D01*
X170249900Y-75609523D01*
X170287995Y-75647619D01*
X170364185Y-75685714D01*
X170478471Y-75685714D01*
X170554661Y-75647619D01*
X170592757Y-75609523D01*
X170630852Y-75533333D01*
X170630852Y-75228571D01*
X170478471Y-76371428D02*
X171011804Y-76371428D01*
X170173709Y-76180952D02*
X170745138Y-75990476D01*
X170745138Y-76485714D01*
X170287995Y-76752380D02*
X170249900Y-76790476D01*
X170211804Y-76866666D01*
X170211804Y-77057142D01*
X170249900Y-77133333D01*
X170287995Y-77171428D01*
X170364185Y-77209523D01*
X170440376Y-77209523D01*
X170554661Y-77171428D01*
X171011804Y-76714285D01*
X171011804Y-77209523D01*
%TO.C,R41*%
X172078604Y-75685714D02*
X171697652Y-75419047D01*
X172078604Y-75228571D02*
X171278604Y-75228571D01*
X171278604Y-75533333D01*
X171316700Y-75609523D01*
X171354795Y-75647619D01*
X171430985Y-75685714D01*
X171545271Y-75685714D01*
X171621461Y-75647619D01*
X171659557Y-75609523D01*
X171697652Y-75533333D01*
X171697652Y-75228571D01*
X171545271Y-76371428D02*
X172078604Y-76371428D01*
X171240509Y-76180952D02*
X171811938Y-75990476D01*
X171811938Y-76485714D01*
X172078604Y-77209523D02*
X172078604Y-76752380D01*
X172078604Y-76980952D02*
X171278604Y-76980952D01*
X171392890Y-76904761D01*
X171469080Y-76828571D01*
X171507176Y-76752380D01*
%TO.C,R40*%
X176549004Y-75685714D02*
X176168052Y-75419047D01*
X176549004Y-75228571D02*
X175749004Y-75228571D01*
X175749004Y-75533333D01*
X175787100Y-75609523D01*
X175825195Y-75647619D01*
X175901385Y-75685714D01*
X176015671Y-75685714D01*
X176091861Y-75647619D01*
X176129957Y-75609523D01*
X176168052Y-75533333D01*
X176168052Y-75228571D01*
X176015671Y-76371428D02*
X176549004Y-76371428D01*
X175710909Y-76180952D02*
X176282338Y-75990476D01*
X176282338Y-76485714D01*
X175749004Y-76942857D02*
X175749004Y-77019047D01*
X175787100Y-77095238D01*
X175825195Y-77133333D01*
X175901385Y-77171428D01*
X176053766Y-77209523D01*
X176244242Y-77209523D01*
X176396623Y-77171428D01*
X176472814Y-77133333D01*
X176510909Y-77095238D01*
X176549004Y-77019047D01*
X176549004Y-76942857D01*
X176510909Y-76866666D01*
X176472814Y-76828571D01*
X176396623Y-76790476D01*
X176244242Y-76752380D01*
X176053766Y-76752380D01*
X175901385Y-76790476D01*
X175825195Y-76828571D01*
X175787100Y-76866666D01*
X175749004Y-76942857D01*
%TO.C,R13*%
X177615804Y-75685714D02*
X177234852Y-75419047D01*
X177615804Y-75228571D02*
X176815804Y-75228571D01*
X176815804Y-75533333D01*
X176853900Y-75609523D01*
X176891995Y-75647619D01*
X176968185Y-75685714D01*
X177082471Y-75685714D01*
X177158661Y-75647619D01*
X177196757Y-75609523D01*
X177234852Y-75533333D01*
X177234852Y-75228571D01*
X177615804Y-76447619D02*
X177615804Y-75990476D01*
X177615804Y-76219047D02*
X176815804Y-76219047D01*
X176930090Y-76142857D01*
X177006280Y-76066666D01*
X177044376Y-75990476D01*
X176815804Y-76714285D02*
X176815804Y-77209523D01*
X177120566Y-76942857D01*
X177120566Y-77057142D01*
X177158661Y-77133333D01*
X177196757Y-77171428D01*
X177272947Y-77209523D01*
X177463423Y-77209523D01*
X177539614Y-77171428D01*
X177577709Y-77133333D01*
X177615804Y-77057142D01*
X177615804Y-76828571D01*
X177577709Y-76752380D01*
X177539614Y-76714285D01*
%TO.C,R12*%
X178657204Y-75685714D02*
X178276252Y-75419047D01*
X178657204Y-75228571D02*
X177857204Y-75228571D01*
X177857204Y-75533333D01*
X177895300Y-75609523D01*
X177933395Y-75647619D01*
X178009585Y-75685714D01*
X178123871Y-75685714D01*
X178200061Y-75647619D01*
X178238157Y-75609523D01*
X178276252Y-75533333D01*
X178276252Y-75228571D01*
X178657204Y-76447619D02*
X178657204Y-75990476D01*
X178657204Y-76219047D02*
X177857204Y-76219047D01*
X177971490Y-76142857D01*
X178047680Y-76066666D01*
X178085776Y-75990476D01*
X177933395Y-76752380D02*
X177895300Y-76790476D01*
X177857204Y-76866666D01*
X177857204Y-77057142D01*
X177895300Y-77133333D01*
X177933395Y-77171428D01*
X178009585Y-77209523D01*
X178085776Y-77209523D01*
X178200061Y-77171428D01*
X178657204Y-76714285D01*
X178657204Y-77209523D01*
%TO.C,R10*%
X170033885Y-100895104D02*
X170300552Y-100514152D01*
X170491028Y-100895104D02*
X170491028Y-100095104D01*
X170186266Y-100095104D01*
X170110076Y-100133200D01*
X170071980Y-100171295D01*
X170033885Y-100247485D01*
X170033885Y-100361771D01*
X170071980Y-100437961D01*
X170110076Y-100476057D01*
X170186266Y-100514152D01*
X170491028Y-100514152D01*
X169271980Y-100895104D02*
X169729123Y-100895104D01*
X169500552Y-100895104D02*
X169500552Y-100095104D01*
X169576742Y-100209390D01*
X169652933Y-100285580D01*
X169729123Y-100323676D01*
X168776742Y-100095104D02*
X168700552Y-100095104D01*
X168624361Y-100133200D01*
X168586266Y-100171295D01*
X168548171Y-100247485D01*
X168510076Y-100399866D01*
X168510076Y-100590342D01*
X168548171Y-100742723D01*
X168586266Y-100818914D01*
X168624361Y-100857009D01*
X168700552Y-100895104D01*
X168776742Y-100895104D01*
X168852933Y-100857009D01*
X168891028Y-100818914D01*
X168929123Y-100742723D01*
X168967219Y-100590342D01*
X168967219Y-100399866D01*
X168929123Y-100247485D01*
X168891028Y-100171295D01*
X168852933Y-100133200D01*
X168776742Y-100095104D01*
%TO.C,C15*%
X150882285Y-100996714D02*
X150920380Y-101034809D01*
X151034666Y-101072904D01*
X151110857Y-101072904D01*
X151225142Y-101034809D01*
X151301333Y-100958619D01*
X151339428Y-100882428D01*
X151377523Y-100730047D01*
X151377523Y-100615761D01*
X151339428Y-100463380D01*
X151301333Y-100387190D01*
X151225142Y-100311000D01*
X151110857Y-100272904D01*
X151034666Y-100272904D01*
X150920380Y-100311000D01*
X150882285Y-100349095D01*
X150120380Y-101072904D02*
X150577523Y-101072904D01*
X150348952Y-101072904D02*
X150348952Y-100272904D01*
X150425142Y-100387190D01*
X150501333Y-100463380D01*
X150577523Y-100501476D01*
X149396571Y-100272904D02*
X149777523Y-100272904D01*
X149815619Y-100653857D01*
X149777523Y-100615761D01*
X149701333Y-100577666D01*
X149510857Y-100577666D01*
X149434666Y-100615761D01*
X149396571Y-100653857D01*
X149358476Y-100730047D01*
X149358476Y-100920523D01*
X149396571Y-100996714D01*
X149434666Y-101034809D01*
X149510857Y-101072904D01*
X149701333Y-101072904D01*
X149777523Y-101034809D01*
X149815619Y-100996714D01*
%TD*%
M02*
