%TF.GenerationSoftware,KiCad,Pcbnew,(5.1.8-0-10_14)*%
%TF.CreationDate,2021-04-08T13:24:54+01:00*%
%TF.ProjectId,STM32MP1_TestBoard_RevB,53544d33-324d-4503-915f-54657374426f,rev?*%
%TF.SameCoordinates,Original*%
%TF.FileFunction,Legend,Bot*%
%TF.FilePolarity,Positive*%
%FSLAX46Y46*%
G04 Gerber Fmt 4.6, Leading zero omitted, Abs format (unit mm)*
G04 Created by KiCad (PCBNEW (5.1.8-0-10_14)) date 2021-04-08 13:24:54*
%MOMM*%
%LPD*%
G01*
G04 APERTURE LIST*
%ADD10C,0.300000*%
%ADD11C,0.120000*%
%ADD12C,0.100000*%
G04 APERTURE END LIST*
D10*
X171818300Y-118237000D02*
G75*
G03*
X171818300Y-118237000I-114300J0D01*
G01*
X168262300Y-126873000D02*
G75*
G03*
X168262300Y-126873000I-114300J0D01*
G01*
D11*
%TO.C,R15*%
X175981379Y-98805000D02*
X176316621Y-98805000D01*
X175981379Y-98045000D02*
X176316621Y-98045000D01*
%TO.C,R4*%
X198246000Y-127594379D02*
X198246000Y-127929621D01*
X197486000Y-127594379D02*
X197486000Y-127929621D01*
%TO.C,R3*%
X198246000Y-123403379D02*
X198246000Y-123738621D01*
X197486000Y-123403379D02*
X197486000Y-123738621D01*
%TO.C,C43*%
X170178000Y-118256267D02*
X170178000Y-117963733D01*
X171198000Y-118256267D02*
X171198000Y-117963733D01*
%TO.C,C39*%
X168421267Y-133987000D02*
X168128733Y-133987000D01*
X168421267Y-132967000D02*
X168128733Y-132967000D01*
%TO.C,C6*%
X185060000Y-123305835D02*
X185060000Y-123074165D01*
X185780000Y-123305835D02*
X185780000Y-123074165D01*
%TO.C,C4*%
X194067165Y-122703000D02*
X194298835Y-122703000D01*
X194067165Y-123423000D02*
X194298835Y-123423000D01*
%TO.C,C3*%
X169524000Y-136790165D02*
X169524000Y-137021835D01*
X168804000Y-136790165D02*
X168804000Y-137021835D01*
%TO.C,C1*%
X180573000Y-133361165D02*
X180573000Y-133592835D01*
X179853000Y-133361165D02*
X179853000Y-133592835D01*
%TO.C,L2*%
X177775000Y-124050000D02*
X177775000Y-122650000D01*
X177775000Y-117250000D02*
X177775000Y-118650000D01*
X177775000Y-124050000D02*
X178975000Y-124050000D01*
X177775000Y-117250000D02*
X178975000Y-117250000D01*
X184175000Y-117250000D02*
X182975000Y-117250000D01*
X184175000Y-117250000D02*
X184175000Y-118650000D01*
X184175000Y-124050000D02*
X184175000Y-122650000D01*
X184175000Y-124050000D02*
X182975000Y-124050000D01*
%TO.C,U6*%
X172380000Y-120534000D02*
X172380000Y-117584000D01*
X175600000Y-118734000D02*
X175600000Y-120534000D01*
%TO.C,U5*%
X167554000Y-130567000D02*
X167554000Y-127617000D01*
X170774000Y-128767000D02*
X170774000Y-130567000D01*
%TO.C,R26*%
X175386000Y-127340379D02*
X175386000Y-127675621D01*
X174626000Y-127340379D02*
X174626000Y-127675621D01*
%TO.C,C44*%
X173334000Y-127392165D02*
X173334000Y-127623835D01*
X172614000Y-127392165D02*
X172614000Y-127623835D01*
%TO.C,C41*%
X168771835Y-124058000D02*
X168540165Y-124058000D01*
X168771835Y-123338000D02*
X168540165Y-123338000D01*
%TO.C,C38*%
X163310835Y-77745000D02*
X163079165Y-77745000D01*
X163310835Y-78465000D02*
X163079165Y-78465000D01*
%TO.C,R25*%
X151753835Y-105939000D02*
X151522165Y-105939000D01*
X151753835Y-106659000D02*
X151522165Y-106659000D01*
%TO.C,C37*%
X140991000Y-110120165D02*
X140991000Y-110351835D01*
X141711000Y-110120165D02*
X141711000Y-110351835D01*
%TO.C,R24*%
X149099000Y-92161379D02*
X149099000Y-92496621D01*
X149859000Y-92161379D02*
X149859000Y-92496621D01*
%TO.C,C11*%
X144759000Y-102350835D02*
X144759000Y-102119165D01*
X144039000Y-102350835D02*
X144039000Y-102119165D01*
%TO.C,C16*%
X144039000Y-104405165D02*
X144039000Y-104636835D01*
X144759000Y-104405165D02*
X144759000Y-104636835D01*
%TO.C,Y1*%
X146723000Y-101677200D02*
X146723000Y-104527200D01*
X145123000Y-101677200D02*
X146723000Y-101677200D01*
X145123000Y-104527200D02*
X145123000Y-101677200D01*
%TO.C,X1*%
X142245000Y-108280000D02*
X146045000Y-108280000D01*
X142245000Y-111430000D02*
X142245000Y-108280000D01*
%TO.C,R23*%
X147827000Y-103591379D02*
X147827000Y-103926621D01*
X147067000Y-103591379D02*
X147067000Y-103926621D01*
%TO.C,R22*%
X146686000Y-108879621D02*
X146686000Y-108544379D01*
X147446000Y-108879621D02*
X147446000Y-108544379D01*
%TO.C,R21*%
X140548379Y-108205000D02*
X140883621Y-108205000D01*
X140548379Y-108965000D02*
X140883621Y-108965000D01*
%TO.C,R20*%
X140461000Y-110068379D02*
X140461000Y-110403621D01*
X139701000Y-110068379D02*
X139701000Y-110403621D01*
%TO.C,R19*%
X174157621Y-129668000D02*
X173822379Y-129668000D01*
X174157621Y-130428000D02*
X173822379Y-130428000D01*
%TO.C,R18*%
X174157621Y-123318000D02*
X173822379Y-123318000D01*
X174157621Y-124078000D02*
X173822379Y-124078000D01*
%TO.C,C57*%
X191429402Y-96655653D02*
X191593217Y-96491838D01*
X190920285Y-96146536D02*
X191084100Y-95982721D01*
%TO.C,C40*%
X193061789Y-111909660D02*
X193225604Y-112073475D01*
X193570906Y-111400543D02*
X193734721Y-111564358D01*
%TO.C,R2*%
X180629579Y-107733100D02*
X180964821Y-107733100D01*
X180629579Y-106973100D02*
X180964821Y-106973100D01*
%TO.C,C62*%
X192902164Y-98128415D02*
X193065979Y-97964600D01*
X192393047Y-97619298D02*
X192556862Y-97455483D01*
%TO.C,R11*%
X180964821Y-108039900D02*
X180629579Y-108039900D01*
X180964821Y-108799900D02*
X180629579Y-108799900D01*
%TO.C,R14*%
X184838321Y-102693200D02*
X184503079Y-102693200D01*
X184838321Y-103453200D02*
X184503079Y-103453200D01*
%TO.C,C36*%
X189148417Y-94410589D02*
X189312232Y-94246774D01*
X188639300Y-93901472D02*
X188803115Y-93737657D01*
%TO.C,C52*%
X189920719Y-95182891D02*
X190084534Y-95019076D01*
X189411602Y-94673774D02*
X189575417Y-94509959D01*
%TO.C,C42*%
X192343369Y-112628081D02*
X192507184Y-112791896D01*
X192852486Y-112118964D02*
X193016301Y-112282779D01*
%TO.C,R6*%
X184261779Y-107745800D02*
X184597021Y-107745800D01*
X184261779Y-106985800D02*
X184597021Y-106985800D01*
%TO.C,C65*%
X192165783Y-97392034D02*
X192329598Y-97228219D01*
X191656666Y-96882917D02*
X191820481Y-96719102D01*
%TO.C,R52*%
X190652584Y-95987994D02*
X190889636Y-95750942D01*
X190115182Y-95450592D02*
X190352234Y-95213540D01*
%TO.C,R17*%
X151258000Y-146598621D02*
X151258000Y-146263379D01*
X152018000Y-146598621D02*
X152018000Y-146263379D01*
%TO.C,R16*%
X153583621Y-143382000D02*
X153248379Y-143382000D01*
X153583621Y-142622000D02*
X153248379Y-142622000D01*
%TO.C,C69*%
X163523665Y-98785000D02*
X163755335Y-98785000D01*
X163523665Y-98065000D02*
X163755335Y-98065000D01*
%TO.C,C70*%
X162641349Y-90659034D02*
X162477534Y-90822849D01*
X163150466Y-91168151D02*
X162986651Y-91331966D01*
%TO.C,C33*%
X156697000Y-103392235D02*
X156697000Y-103160565D01*
X155977000Y-103392235D02*
X155977000Y-103160565D01*
%TO.C,C32*%
X159177400Y-105446565D02*
X159177400Y-105678235D01*
X159897400Y-105446565D02*
X159897400Y-105678235D01*
%TO.C,C31*%
X151195035Y-104897600D02*
X150963365Y-104897600D01*
X151195035Y-105617600D02*
X150963365Y-105617600D01*
%TO.C,C34*%
X155960400Y-98617035D02*
X155960400Y-98385365D01*
X155240400Y-98617035D02*
X155240400Y-98385365D01*
%TO.C,C68*%
X166264000Y-116089165D02*
X166264000Y-116320835D01*
X166984000Y-116089165D02*
X166984000Y-116320835D01*
%TO.C,C12*%
X155884200Y-106414835D02*
X155884200Y-106183165D01*
X155164200Y-106414835D02*
X155164200Y-106183165D01*
%TO.C,C9*%
X164928466Y-118953349D02*
X164764651Y-118789534D01*
X164419349Y-119462466D02*
X164255534Y-119298651D01*
%TO.C,C7*%
X163403349Y-91421034D02*
X163239534Y-91584849D01*
X163912466Y-91930151D02*
X163748651Y-92093966D01*
%TO.C,C35*%
X151744000Y-98159835D02*
X151744000Y-97928165D01*
X151024000Y-98159835D02*
X151024000Y-97928165D01*
%TO.C,C30*%
X162285000Y-105576635D02*
X162285000Y-105344965D01*
X161565000Y-105576635D02*
X161565000Y-105344965D01*
%TO.C,C29*%
X157577200Y-103846365D02*
X157577200Y-104078035D01*
X158297200Y-103846365D02*
X158297200Y-104078035D01*
%TO.C,C28*%
X155147600Y-104027235D02*
X155147600Y-103795565D01*
X154427600Y-104027235D02*
X154427600Y-103795565D01*
%TO.C,C27*%
X156662800Y-106157765D02*
X156662800Y-106389435D01*
X157382800Y-106157765D02*
X157382800Y-106389435D01*
%TO.C,C26*%
X157338765Y-98810400D02*
X157570435Y-98810400D01*
X157338765Y-98090400D02*
X157570435Y-98090400D01*
%TO.C,C25*%
X161565000Y-102347765D02*
X161565000Y-102579435D01*
X162285000Y-102347765D02*
X162285000Y-102579435D01*
%TO.C,C24*%
X157678800Y-106157765D02*
X157678800Y-106389435D01*
X158398800Y-106157765D02*
X158398800Y-106389435D01*
%TO.C,C23*%
X163978000Y-106284765D02*
X163978000Y-106516435D01*
X164698000Y-106284765D02*
X164698000Y-106516435D01*
%TO.C,C22*%
X159856435Y-98090400D02*
X159624765Y-98090400D01*
X159856435Y-98810400D02*
X159624765Y-98810400D01*
%TO.C,C21*%
X154969800Y-98617035D02*
X154969800Y-98385365D01*
X154249800Y-98617035D02*
X154249800Y-98385365D01*
%TO.C,C20*%
X159653235Y-101290800D02*
X159421565Y-101290800D01*
X159653235Y-102010800D02*
X159421565Y-102010800D01*
%TO.C,C19*%
X160847035Y-106853400D02*
X160615365Y-106853400D01*
X160847035Y-107573400D02*
X160615365Y-107573400D01*
%TO.C,C18*%
X153268000Y-98159835D02*
X153268000Y-97928165D01*
X152548000Y-98159835D02*
X152548000Y-97928165D01*
%TO.C,C17*%
X167280000Y-116089165D02*
X167280000Y-116320835D01*
X168000000Y-116089165D02*
X168000000Y-116320835D01*
%TO.C,C14*%
X150963365Y-104627000D02*
X151195035Y-104627000D01*
X150963365Y-103907000D02*
X151195035Y-103907000D01*
%TO.C,R42*%
X171029900Y-78318379D02*
X171029900Y-78653621D01*
X170269900Y-78318379D02*
X170269900Y-78653621D01*
%TO.C,R41*%
X172096700Y-78318379D02*
X172096700Y-78653621D01*
X171336700Y-78318379D02*
X171336700Y-78653621D01*
%TO.C,R40*%
X176490900Y-78318379D02*
X176490900Y-78653621D01*
X175730900Y-78318379D02*
X175730900Y-78653621D01*
%TO.C,R13*%
X177583100Y-78318379D02*
X177583100Y-78653621D01*
X176823100Y-78318379D02*
X176823100Y-78653621D01*
%TO.C,R12*%
X178675300Y-78318379D02*
X178675300Y-78653621D01*
X177915300Y-78318379D02*
X177915300Y-78653621D01*
%TO.C,C5*%
X186796000Y-126949252D02*
X186796000Y-125526748D01*
X188616000Y-126949252D02*
X188616000Y-125526748D01*
%TO.C,U3*%
X174750000Y-133802000D02*
X173290000Y-133802000D01*
X174750000Y-136962000D02*
X172590000Y-136962000D01*
X174750000Y-136962000D02*
X174750000Y-136032000D01*
X174750000Y-133802000D02*
X174750000Y-134732000D01*
%TO.C,R10*%
X163930600Y-100644979D02*
X163930600Y-100980221D01*
X163170600Y-100644979D02*
X163170600Y-100980221D01*
%TO.C,R9*%
X132166379Y-71502000D02*
X132501621Y-71502000D01*
X132166379Y-72262000D02*
X132501621Y-72262000D01*
%TO.C,R8*%
X168403000Y-116372621D02*
X168403000Y-116037379D01*
X169163000Y-116372621D02*
X169163000Y-116037379D01*
%TO.C,R7*%
X145201621Y-77215000D02*
X144866379Y-77215000D01*
X145201621Y-76455000D02*
X144866379Y-76455000D01*
%TO.C,R5*%
X145201621Y-74675000D02*
X144866379Y-74675000D01*
X145201621Y-73915000D02*
X144866379Y-73915000D01*
%TO.C,R1*%
X145201621Y-72135000D02*
X144866379Y-72135000D01*
X145201621Y-71375000D02*
X144866379Y-71375000D01*
%TO.C,C15*%
X152769835Y-101007500D02*
X152538165Y-101007500D01*
X152769835Y-100287500D02*
X152538165Y-100287500D01*
%TO.C,C13*%
X183790000Y-78919335D02*
X183790000Y-78687665D01*
X184510000Y-78919335D02*
X184510000Y-78687665D01*
%TO.C,C10*%
X188616000Y-119176748D02*
X188616000Y-120599252D01*
X186796000Y-119176748D02*
X186796000Y-120599252D01*
%TO.C,C8*%
X191156000Y-119176748D02*
X191156000Y-120599252D01*
X189336000Y-119176748D02*
X189336000Y-120599252D01*
%TO.C,C2*%
X189336000Y-126949252D02*
X189336000Y-125526748D01*
X191156000Y-126949252D02*
X191156000Y-125526748D01*
%TO.C,R15*%
D12*
X176637885Y-99752104D02*
X176904552Y-99371152D01*
X177095028Y-99752104D02*
X177095028Y-98952104D01*
X176790266Y-98952104D01*
X176714076Y-98990200D01*
X176675980Y-99028295D01*
X176637885Y-99104485D01*
X176637885Y-99218771D01*
X176675980Y-99294961D01*
X176714076Y-99333057D01*
X176790266Y-99371152D01*
X177095028Y-99371152D01*
X175875980Y-99752104D02*
X176333123Y-99752104D01*
X176104552Y-99752104D02*
X176104552Y-98952104D01*
X176180742Y-99066390D01*
X176256933Y-99142580D01*
X176333123Y-99180676D01*
X175152171Y-98952104D02*
X175533123Y-98952104D01*
X175571219Y-99333057D01*
X175533123Y-99294961D01*
X175456933Y-99256866D01*
X175266457Y-99256866D01*
X175190266Y-99294961D01*
X175152171Y-99333057D01*
X175114076Y-99409247D01*
X175114076Y-99599723D01*
X175152171Y-99675914D01*
X175190266Y-99714009D01*
X175266457Y-99752104D01*
X175456933Y-99752104D01*
X175533123Y-99714009D01*
X175571219Y-99675914D01*
%TO.C,R4*%
X199497904Y-127628666D02*
X199116952Y-127362000D01*
X199497904Y-127171523D02*
X198697904Y-127171523D01*
X198697904Y-127476285D01*
X198736000Y-127552476D01*
X198774095Y-127590571D01*
X198850285Y-127628666D01*
X198964571Y-127628666D01*
X199040761Y-127590571D01*
X199078857Y-127552476D01*
X199116952Y-127476285D01*
X199116952Y-127171523D01*
X198964571Y-128314380D02*
X199497904Y-128314380D01*
X198659809Y-128123904D02*
X199231238Y-127933428D01*
X199231238Y-128428666D01*
%TO.C,R3*%
X199497904Y-123437666D02*
X199116952Y-123171000D01*
X199497904Y-122980523D02*
X198697904Y-122980523D01*
X198697904Y-123285285D01*
X198736000Y-123361476D01*
X198774095Y-123399571D01*
X198850285Y-123437666D01*
X198964571Y-123437666D01*
X199040761Y-123399571D01*
X199078857Y-123361476D01*
X199116952Y-123285285D01*
X199116952Y-122980523D01*
X198697904Y-123704333D02*
X198697904Y-124199571D01*
X199002666Y-123932904D01*
X199002666Y-124047190D01*
X199040761Y-124123380D01*
X199078857Y-124161476D01*
X199155047Y-124199571D01*
X199345523Y-124199571D01*
X199421714Y-124161476D01*
X199459809Y-124123380D01*
X199497904Y-124047190D01*
X199497904Y-123818619D01*
X199459809Y-123742428D01*
X199421714Y-123704333D01*
%TO.C,C43*%
X170973714Y-114420714D02*
X171011809Y-114382619D01*
X171049904Y-114268333D01*
X171049904Y-114192142D01*
X171011809Y-114077857D01*
X170935619Y-114001666D01*
X170859428Y-113963571D01*
X170707047Y-113925476D01*
X170592761Y-113925476D01*
X170440380Y-113963571D01*
X170364190Y-114001666D01*
X170288000Y-114077857D01*
X170249904Y-114192142D01*
X170249904Y-114268333D01*
X170288000Y-114382619D01*
X170326095Y-114420714D01*
X170516571Y-115106428D02*
X171049904Y-115106428D01*
X170211809Y-114915952D02*
X170783238Y-114725476D01*
X170783238Y-115220714D01*
X170249904Y-115449285D02*
X170249904Y-115944523D01*
X170554666Y-115677857D01*
X170554666Y-115792142D01*
X170592761Y-115868333D01*
X170630857Y-115906428D01*
X170707047Y-115944523D01*
X170897523Y-115944523D01*
X170973714Y-115906428D01*
X171011809Y-115868333D01*
X171049904Y-115792142D01*
X171049904Y-115563571D01*
X171011809Y-115487380D01*
X170973714Y-115449285D01*
%TO.C,C39*%
X165995285Y-133762714D02*
X166033380Y-133800809D01*
X166147666Y-133838904D01*
X166223857Y-133838904D01*
X166338142Y-133800809D01*
X166414333Y-133724619D01*
X166452428Y-133648428D01*
X166490523Y-133496047D01*
X166490523Y-133381761D01*
X166452428Y-133229380D01*
X166414333Y-133153190D01*
X166338142Y-133077000D01*
X166223857Y-133038904D01*
X166147666Y-133038904D01*
X166033380Y-133077000D01*
X165995285Y-133115095D01*
X165728619Y-133038904D02*
X165233380Y-133038904D01*
X165500047Y-133343666D01*
X165385761Y-133343666D01*
X165309571Y-133381761D01*
X165271476Y-133419857D01*
X165233380Y-133496047D01*
X165233380Y-133686523D01*
X165271476Y-133762714D01*
X165309571Y-133800809D01*
X165385761Y-133838904D01*
X165614333Y-133838904D01*
X165690523Y-133800809D01*
X165728619Y-133762714D01*
X164852428Y-133838904D02*
X164700047Y-133838904D01*
X164623857Y-133800809D01*
X164585761Y-133762714D01*
X164509571Y-133648428D01*
X164471476Y-133496047D01*
X164471476Y-133191285D01*
X164509571Y-133115095D01*
X164547666Y-133077000D01*
X164623857Y-133038904D01*
X164776238Y-133038904D01*
X164852428Y-133077000D01*
X164890523Y-133115095D01*
X164928619Y-133191285D01*
X164928619Y-133381761D01*
X164890523Y-133457952D01*
X164852428Y-133496047D01*
X164776238Y-133534142D01*
X164623857Y-133534142D01*
X164547666Y-133496047D01*
X164509571Y-133457952D01*
X164471476Y-133381761D01*
%TO.C,C6*%
X186823333Y-123475714D02*
X186861428Y-123513809D01*
X186975714Y-123551904D01*
X187051904Y-123551904D01*
X187166190Y-123513809D01*
X187242380Y-123437619D01*
X187280476Y-123361428D01*
X187318571Y-123209047D01*
X187318571Y-123094761D01*
X187280476Y-122942380D01*
X187242380Y-122866190D01*
X187166190Y-122790000D01*
X187051904Y-122751904D01*
X186975714Y-122751904D01*
X186861428Y-122790000D01*
X186823333Y-122828095D01*
X186137619Y-122751904D02*
X186290000Y-122751904D01*
X186366190Y-122790000D01*
X186404285Y-122828095D01*
X186480476Y-122942380D01*
X186518571Y-123094761D01*
X186518571Y-123399523D01*
X186480476Y-123475714D01*
X186442380Y-123513809D01*
X186366190Y-123551904D01*
X186213809Y-123551904D01*
X186137619Y-123513809D01*
X186099523Y-123475714D01*
X186061428Y-123399523D01*
X186061428Y-123209047D01*
X186099523Y-123132857D01*
X186137619Y-123094761D01*
X186213809Y-123056666D01*
X186366190Y-123056666D01*
X186442380Y-123094761D01*
X186480476Y-123132857D01*
X186518571Y-123209047D01*
%TO.C,C4*%
X194316333Y-122078714D02*
X194354428Y-122116809D01*
X194468714Y-122154904D01*
X194544904Y-122154904D01*
X194659190Y-122116809D01*
X194735380Y-122040619D01*
X194773476Y-121964428D01*
X194811571Y-121812047D01*
X194811571Y-121697761D01*
X194773476Y-121545380D01*
X194735380Y-121469190D01*
X194659190Y-121393000D01*
X194544904Y-121354904D01*
X194468714Y-121354904D01*
X194354428Y-121393000D01*
X194316333Y-121431095D01*
X193630619Y-121621571D02*
X193630619Y-122154904D01*
X193821095Y-121316809D02*
X194011571Y-121888238D01*
X193516333Y-121888238D01*
%TO.C,C3*%
X168027333Y-137699714D02*
X168065428Y-137737809D01*
X168179714Y-137775904D01*
X168255904Y-137775904D01*
X168370190Y-137737809D01*
X168446380Y-137661619D01*
X168484476Y-137585428D01*
X168522571Y-137433047D01*
X168522571Y-137318761D01*
X168484476Y-137166380D01*
X168446380Y-137090190D01*
X168370190Y-137014000D01*
X168255904Y-136975904D01*
X168179714Y-136975904D01*
X168065428Y-137014000D01*
X168027333Y-137052095D01*
X167760666Y-136975904D02*
X167265428Y-136975904D01*
X167532095Y-137280666D01*
X167417809Y-137280666D01*
X167341619Y-137318761D01*
X167303523Y-137356857D01*
X167265428Y-137433047D01*
X167265428Y-137623523D01*
X167303523Y-137699714D01*
X167341619Y-137737809D01*
X167417809Y-137775904D01*
X167646380Y-137775904D01*
X167722571Y-137737809D01*
X167760666Y-137699714D01*
%TO.C,C1*%
X178796933Y-133788114D02*
X178835028Y-133826209D01*
X178949314Y-133864304D01*
X179025504Y-133864304D01*
X179139790Y-133826209D01*
X179215980Y-133750019D01*
X179254076Y-133673828D01*
X179292171Y-133521447D01*
X179292171Y-133407161D01*
X179254076Y-133254780D01*
X179215980Y-133178590D01*
X179139790Y-133102400D01*
X179025504Y-133064304D01*
X178949314Y-133064304D01*
X178835028Y-133102400D01*
X178796933Y-133140495D01*
X178035028Y-133864304D02*
X178492171Y-133864304D01*
X178263600Y-133864304D02*
X178263600Y-133064304D01*
X178339790Y-133178590D01*
X178415980Y-133254780D01*
X178492171Y-133292876D01*
%TO.C,L2*%
X181108333Y-116820904D02*
X181489285Y-116820904D01*
X181489285Y-116020904D01*
X180879761Y-116097095D02*
X180841666Y-116059000D01*
X180765476Y-116020904D01*
X180575000Y-116020904D01*
X180498809Y-116059000D01*
X180460714Y-116097095D01*
X180422619Y-116173285D01*
X180422619Y-116249476D01*
X180460714Y-116363761D01*
X180917857Y-116820904D01*
X180422619Y-116820904D01*
%TO.C,U6*%
X174599523Y-116401904D02*
X174599523Y-117049523D01*
X174561428Y-117125714D01*
X174523333Y-117163809D01*
X174447142Y-117201904D01*
X174294761Y-117201904D01*
X174218571Y-117163809D01*
X174180476Y-117125714D01*
X174142380Y-117049523D01*
X174142380Y-116401904D01*
X173418571Y-116401904D02*
X173570952Y-116401904D01*
X173647142Y-116440000D01*
X173685238Y-116478095D01*
X173761428Y-116592380D01*
X173799523Y-116744761D01*
X173799523Y-117049523D01*
X173761428Y-117125714D01*
X173723333Y-117163809D01*
X173647142Y-117201904D01*
X173494761Y-117201904D01*
X173418571Y-117163809D01*
X173380476Y-117125714D01*
X173342380Y-117049523D01*
X173342380Y-116859047D01*
X173380476Y-116782857D01*
X173418571Y-116744761D01*
X173494761Y-116706666D01*
X173647142Y-116706666D01*
X173723333Y-116744761D01*
X173761428Y-116782857D01*
X173799523Y-116859047D01*
%TO.C,U5*%
X166979523Y-129355904D02*
X166979523Y-130003523D01*
X166941428Y-130079714D01*
X166903333Y-130117809D01*
X166827142Y-130155904D01*
X166674761Y-130155904D01*
X166598571Y-130117809D01*
X166560476Y-130079714D01*
X166522380Y-130003523D01*
X166522380Y-129355904D01*
X165760476Y-129355904D02*
X166141428Y-129355904D01*
X166179523Y-129736857D01*
X166141428Y-129698761D01*
X166065238Y-129660666D01*
X165874761Y-129660666D01*
X165798571Y-129698761D01*
X165760476Y-129736857D01*
X165722380Y-129813047D01*
X165722380Y-130003523D01*
X165760476Y-130079714D01*
X165798571Y-130117809D01*
X165874761Y-130155904D01*
X166065238Y-130155904D01*
X166141428Y-130117809D01*
X166179523Y-130079714D01*
%TO.C,R26*%
X176383904Y-126231714D02*
X176002952Y-125965047D01*
X176383904Y-125774571D02*
X175583904Y-125774571D01*
X175583904Y-126079333D01*
X175622000Y-126155523D01*
X175660095Y-126193619D01*
X175736285Y-126231714D01*
X175850571Y-126231714D01*
X175926761Y-126193619D01*
X175964857Y-126155523D01*
X176002952Y-126079333D01*
X176002952Y-125774571D01*
X175660095Y-126536476D02*
X175622000Y-126574571D01*
X175583904Y-126650761D01*
X175583904Y-126841238D01*
X175622000Y-126917428D01*
X175660095Y-126955523D01*
X175736285Y-126993619D01*
X175812476Y-126993619D01*
X175926761Y-126955523D01*
X176383904Y-126498380D01*
X176383904Y-126993619D01*
X175583904Y-127679333D02*
X175583904Y-127526952D01*
X175622000Y-127450761D01*
X175660095Y-127412666D01*
X175774380Y-127336476D01*
X175926761Y-127298380D01*
X176231523Y-127298380D01*
X176307714Y-127336476D01*
X176345809Y-127374571D01*
X176383904Y-127450761D01*
X176383904Y-127603142D01*
X176345809Y-127679333D01*
X176307714Y-127717428D01*
X176231523Y-127755523D01*
X176041047Y-127755523D01*
X175964857Y-127717428D01*
X175926761Y-127679333D01*
X175888666Y-127603142D01*
X175888666Y-127450761D01*
X175926761Y-127374571D01*
X175964857Y-127336476D01*
X176041047Y-127298380D01*
%TO.C,C44*%
X172243714Y-126993714D02*
X172281809Y-126955619D01*
X172319904Y-126841333D01*
X172319904Y-126765142D01*
X172281809Y-126650857D01*
X172205619Y-126574666D01*
X172129428Y-126536571D01*
X171977047Y-126498476D01*
X171862761Y-126498476D01*
X171710380Y-126536571D01*
X171634190Y-126574666D01*
X171558000Y-126650857D01*
X171519904Y-126765142D01*
X171519904Y-126841333D01*
X171558000Y-126955619D01*
X171596095Y-126993714D01*
X171786571Y-127679428D02*
X172319904Y-127679428D01*
X171481809Y-127488952D02*
X172053238Y-127298476D01*
X172053238Y-127793714D01*
X171786571Y-128441333D02*
X172319904Y-128441333D01*
X171481809Y-128250857D02*
X172053238Y-128060380D01*
X172053238Y-128555619D01*
%TO.C,C41*%
X169170285Y-122967714D02*
X169208380Y-123005809D01*
X169322666Y-123043904D01*
X169398857Y-123043904D01*
X169513142Y-123005809D01*
X169589333Y-122929619D01*
X169627428Y-122853428D01*
X169665523Y-122701047D01*
X169665523Y-122586761D01*
X169627428Y-122434380D01*
X169589333Y-122358190D01*
X169513142Y-122282000D01*
X169398857Y-122243904D01*
X169322666Y-122243904D01*
X169208380Y-122282000D01*
X169170285Y-122320095D01*
X168484571Y-122510571D02*
X168484571Y-123043904D01*
X168675047Y-122205809D02*
X168865523Y-122777238D01*
X168370285Y-122777238D01*
X167646476Y-123043904D02*
X168103619Y-123043904D01*
X167875047Y-123043904D02*
X167875047Y-122243904D01*
X167951238Y-122358190D01*
X168027428Y-122434380D01*
X168103619Y-122472476D01*
%TO.C,C38*%
X163709285Y-77230714D02*
X163747380Y-77268809D01*
X163861666Y-77306904D01*
X163937857Y-77306904D01*
X164052142Y-77268809D01*
X164128333Y-77192619D01*
X164166428Y-77116428D01*
X164204523Y-76964047D01*
X164204523Y-76849761D01*
X164166428Y-76697380D01*
X164128333Y-76621190D01*
X164052142Y-76545000D01*
X163937857Y-76506904D01*
X163861666Y-76506904D01*
X163747380Y-76545000D01*
X163709285Y-76583095D01*
X163442619Y-76506904D02*
X162947380Y-76506904D01*
X163214047Y-76811666D01*
X163099761Y-76811666D01*
X163023571Y-76849761D01*
X162985476Y-76887857D01*
X162947380Y-76964047D01*
X162947380Y-77154523D01*
X162985476Y-77230714D01*
X163023571Y-77268809D01*
X163099761Y-77306904D01*
X163328333Y-77306904D01*
X163404523Y-77268809D01*
X163442619Y-77230714D01*
X162490238Y-76849761D02*
X162566428Y-76811666D01*
X162604523Y-76773571D01*
X162642619Y-76697380D01*
X162642619Y-76659285D01*
X162604523Y-76583095D01*
X162566428Y-76545000D01*
X162490238Y-76506904D01*
X162337857Y-76506904D01*
X162261666Y-76545000D01*
X162223571Y-76583095D01*
X162185476Y-76659285D01*
X162185476Y-76697380D01*
X162223571Y-76773571D01*
X162261666Y-76811666D01*
X162337857Y-76849761D01*
X162490238Y-76849761D01*
X162566428Y-76887857D01*
X162604523Y-76925952D01*
X162642619Y-77002142D01*
X162642619Y-77154523D01*
X162604523Y-77230714D01*
X162566428Y-77268809D01*
X162490238Y-77306904D01*
X162337857Y-77306904D01*
X162261666Y-77268809D01*
X162223571Y-77230714D01*
X162185476Y-77154523D01*
X162185476Y-77002142D01*
X162223571Y-76925952D01*
X162261666Y-76887857D01*
X162337857Y-76849761D01*
%TO.C,R25*%
X151072785Y-107740404D02*
X151339452Y-107359452D01*
X151529928Y-107740404D02*
X151529928Y-106940404D01*
X151225166Y-106940404D01*
X151148976Y-106978500D01*
X151110880Y-107016595D01*
X151072785Y-107092785D01*
X151072785Y-107207071D01*
X151110880Y-107283261D01*
X151148976Y-107321357D01*
X151225166Y-107359452D01*
X151529928Y-107359452D01*
X150768023Y-107016595D02*
X150729928Y-106978500D01*
X150653738Y-106940404D01*
X150463261Y-106940404D01*
X150387071Y-106978500D01*
X150348976Y-107016595D01*
X150310880Y-107092785D01*
X150310880Y-107168976D01*
X150348976Y-107283261D01*
X150806119Y-107740404D01*
X150310880Y-107740404D01*
X149587071Y-106940404D02*
X149968023Y-106940404D01*
X150006119Y-107321357D01*
X149968023Y-107283261D01*
X149891833Y-107245166D01*
X149701357Y-107245166D01*
X149625166Y-107283261D01*
X149587071Y-107321357D01*
X149548976Y-107397547D01*
X149548976Y-107588023D01*
X149587071Y-107664214D01*
X149625166Y-107702309D01*
X149701357Y-107740404D01*
X149891833Y-107740404D01*
X149968023Y-107702309D01*
X150006119Y-107664214D01*
%TO.C,C37*%
X141700214Y-112706214D02*
X141738309Y-112668119D01*
X141776404Y-112553833D01*
X141776404Y-112477642D01*
X141738309Y-112363357D01*
X141662119Y-112287166D01*
X141585928Y-112249071D01*
X141433547Y-112210976D01*
X141319261Y-112210976D01*
X141166880Y-112249071D01*
X141090690Y-112287166D01*
X141014500Y-112363357D01*
X140976404Y-112477642D01*
X140976404Y-112553833D01*
X141014500Y-112668119D01*
X141052595Y-112706214D01*
X140976404Y-112972880D02*
X140976404Y-113468119D01*
X141281166Y-113201452D01*
X141281166Y-113315738D01*
X141319261Y-113391928D01*
X141357357Y-113430023D01*
X141433547Y-113468119D01*
X141624023Y-113468119D01*
X141700214Y-113430023D01*
X141738309Y-113391928D01*
X141776404Y-113315738D01*
X141776404Y-113087166D01*
X141738309Y-113010976D01*
X141700214Y-112972880D01*
X140976404Y-113734785D02*
X140976404Y-114268119D01*
X141776404Y-113925261D01*
%TO.C,R24*%
X148670904Y-91814714D02*
X148289952Y-91548047D01*
X148670904Y-91357571D02*
X147870904Y-91357571D01*
X147870904Y-91662333D01*
X147909000Y-91738523D01*
X147947095Y-91776619D01*
X148023285Y-91814714D01*
X148137571Y-91814714D01*
X148213761Y-91776619D01*
X148251857Y-91738523D01*
X148289952Y-91662333D01*
X148289952Y-91357571D01*
X147947095Y-92119476D02*
X147909000Y-92157571D01*
X147870904Y-92233761D01*
X147870904Y-92424238D01*
X147909000Y-92500428D01*
X147947095Y-92538523D01*
X148023285Y-92576619D01*
X148099476Y-92576619D01*
X148213761Y-92538523D01*
X148670904Y-92081380D01*
X148670904Y-92576619D01*
X148137571Y-93262333D02*
X148670904Y-93262333D01*
X147832809Y-93071857D02*
X148404238Y-92881380D01*
X148404238Y-93376619D01*
%TO.C,C11*%
X143287714Y-101720714D02*
X143325809Y-101682619D01*
X143363904Y-101568333D01*
X143363904Y-101492142D01*
X143325809Y-101377857D01*
X143249619Y-101301666D01*
X143173428Y-101263571D01*
X143021047Y-101225476D01*
X142906761Y-101225476D01*
X142754380Y-101263571D01*
X142678190Y-101301666D01*
X142602000Y-101377857D01*
X142563904Y-101492142D01*
X142563904Y-101568333D01*
X142602000Y-101682619D01*
X142640095Y-101720714D01*
X143363904Y-102482619D02*
X143363904Y-102025476D01*
X143363904Y-102254047D02*
X142563904Y-102254047D01*
X142678190Y-102177857D01*
X142754380Y-102101666D01*
X142792476Y-102025476D01*
X143363904Y-103244523D02*
X143363904Y-102787380D01*
X143363904Y-103015952D02*
X142563904Y-103015952D01*
X142678190Y-102939761D01*
X142754380Y-102863571D01*
X142792476Y-102787380D01*
%TO.C,C16*%
X143287714Y-104070214D02*
X143325809Y-104032119D01*
X143363904Y-103917833D01*
X143363904Y-103841642D01*
X143325809Y-103727357D01*
X143249619Y-103651166D01*
X143173428Y-103613071D01*
X143021047Y-103574976D01*
X142906761Y-103574976D01*
X142754380Y-103613071D01*
X142678190Y-103651166D01*
X142602000Y-103727357D01*
X142563904Y-103841642D01*
X142563904Y-103917833D01*
X142602000Y-104032119D01*
X142640095Y-104070214D01*
X143363904Y-104832119D02*
X143363904Y-104374976D01*
X143363904Y-104603547D02*
X142563904Y-104603547D01*
X142678190Y-104527357D01*
X142754380Y-104451166D01*
X142792476Y-104374976D01*
X142563904Y-105517833D02*
X142563904Y-105365452D01*
X142602000Y-105289261D01*
X142640095Y-105251166D01*
X142754380Y-105174976D01*
X142906761Y-105136880D01*
X143211523Y-105136880D01*
X143287714Y-105174976D01*
X143325809Y-105213071D01*
X143363904Y-105289261D01*
X143363904Y-105441642D01*
X143325809Y-105517833D01*
X143287714Y-105555928D01*
X143211523Y-105594023D01*
X143021047Y-105594023D01*
X142944857Y-105555928D01*
X142906761Y-105517833D01*
X142868666Y-105441642D01*
X142868666Y-105289261D01*
X142906761Y-105213071D01*
X142944857Y-105174976D01*
X143021047Y-105136880D01*
%TO.C,Y1*%
X146240452Y-100056952D02*
X146240452Y-100437904D01*
X146507119Y-99637904D02*
X146240452Y-100056952D01*
X145973785Y-99637904D01*
X145288071Y-100437904D02*
X145745214Y-100437904D01*
X145516642Y-100437904D02*
X145516642Y-99637904D01*
X145592833Y-99752190D01*
X145669023Y-99828380D01*
X145745214Y-99866476D01*
%TO.C,X1*%
X145237119Y-107194404D02*
X144703785Y-107994404D01*
X144703785Y-107194404D02*
X145237119Y-107994404D01*
X143979976Y-107994404D02*
X144437119Y-107994404D01*
X144208547Y-107994404D02*
X144208547Y-107194404D01*
X144284738Y-107308690D01*
X144360928Y-107384880D01*
X144437119Y-107422976D01*
%TO.C,R23*%
X147808904Y-105403714D02*
X147427952Y-105137047D01*
X147808904Y-104946571D02*
X147008904Y-104946571D01*
X147008904Y-105251333D01*
X147047000Y-105327523D01*
X147085095Y-105365619D01*
X147161285Y-105403714D01*
X147275571Y-105403714D01*
X147351761Y-105365619D01*
X147389857Y-105327523D01*
X147427952Y-105251333D01*
X147427952Y-104946571D01*
X147085095Y-105708476D02*
X147047000Y-105746571D01*
X147008904Y-105822761D01*
X147008904Y-106013238D01*
X147047000Y-106089428D01*
X147085095Y-106127523D01*
X147161285Y-106165619D01*
X147237476Y-106165619D01*
X147351761Y-106127523D01*
X147808904Y-105670380D01*
X147808904Y-106165619D01*
X147008904Y-106432285D02*
X147008904Y-106927523D01*
X147313666Y-106660857D01*
X147313666Y-106775142D01*
X147351761Y-106851333D01*
X147389857Y-106889428D01*
X147466047Y-106927523D01*
X147656523Y-106927523D01*
X147732714Y-106889428D01*
X147770809Y-106851333D01*
X147808904Y-106775142D01*
X147808904Y-106546571D01*
X147770809Y-106470380D01*
X147732714Y-106432285D01*
%TO.C,R22*%
X147491404Y-110420214D02*
X147110452Y-110153547D01*
X147491404Y-109963071D02*
X146691404Y-109963071D01*
X146691404Y-110267833D01*
X146729500Y-110344023D01*
X146767595Y-110382119D01*
X146843785Y-110420214D01*
X146958071Y-110420214D01*
X147034261Y-110382119D01*
X147072357Y-110344023D01*
X147110452Y-110267833D01*
X147110452Y-109963071D01*
X146767595Y-110724976D02*
X146729500Y-110763071D01*
X146691404Y-110839261D01*
X146691404Y-111029738D01*
X146729500Y-111105928D01*
X146767595Y-111144023D01*
X146843785Y-111182119D01*
X146919976Y-111182119D01*
X147034261Y-111144023D01*
X147491404Y-110686880D01*
X147491404Y-111182119D01*
X146767595Y-111486880D02*
X146729500Y-111524976D01*
X146691404Y-111601166D01*
X146691404Y-111791642D01*
X146729500Y-111867833D01*
X146767595Y-111905928D01*
X146843785Y-111944023D01*
X146919976Y-111944023D01*
X147034261Y-111905928D01*
X147491404Y-111448785D01*
X147491404Y-111944023D01*
%TO.C,R21*%
X141230285Y-107041904D02*
X141496952Y-106660952D01*
X141687428Y-107041904D02*
X141687428Y-106241904D01*
X141382666Y-106241904D01*
X141306476Y-106280000D01*
X141268380Y-106318095D01*
X141230285Y-106394285D01*
X141230285Y-106508571D01*
X141268380Y-106584761D01*
X141306476Y-106622857D01*
X141382666Y-106660952D01*
X141687428Y-106660952D01*
X140925523Y-106318095D02*
X140887428Y-106280000D01*
X140811238Y-106241904D01*
X140620761Y-106241904D01*
X140544571Y-106280000D01*
X140506476Y-106318095D01*
X140468380Y-106394285D01*
X140468380Y-106470476D01*
X140506476Y-106584761D01*
X140963619Y-107041904D01*
X140468380Y-107041904D01*
X139706476Y-107041904D02*
X140163619Y-107041904D01*
X139935047Y-107041904D02*
X139935047Y-106241904D01*
X140011238Y-106356190D01*
X140087428Y-106432380D01*
X140163619Y-106470476D01*
%TO.C,R20*%
X139045904Y-109721714D02*
X138664952Y-109455047D01*
X139045904Y-109264571D02*
X138245904Y-109264571D01*
X138245904Y-109569333D01*
X138284000Y-109645523D01*
X138322095Y-109683619D01*
X138398285Y-109721714D01*
X138512571Y-109721714D01*
X138588761Y-109683619D01*
X138626857Y-109645523D01*
X138664952Y-109569333D01*
X138664952Y-109264571D01*
X138322095Y-110026476D02*
X138284000Y-110064571D01*
X138245904Y-110140761D01*
X138245904Y-110331238D01*
X138284000Y-110407428D01*
X138322095Y-110445523D01*
X138398285Y-110483619D01*
X138474476Y-110483619D01*
X138588761Y-110445523D01*
X139045904Y-109988380D01*
X139045904Y-110483619D01*
X138245904Y-110978857D02*
X138245904Y-111055047D01*
X138284000Y-111131238D01*
X138322095Y-111169333D01*
X138398285Y-111207428D01*
X138550666Y-111245523D01*
X138741142Y-111245523D01*
X138893523Y-111207428D01*
X138969714Y-111169333D01*
X139007809Y-111131238D01*
X139045904Y-111055047D01*
X139045904Y-110978857D01*
X139007809Y-110902666D01*
X138969714Y-110864571D01*
X138893523Y-110826476D01*
X138741142Y-110788380D01*
X138550666Y-110788380D01*
X138398285Y-110826476D01*
X138322095Y-110864571D01*
X138284000Y-110902666D01*
X138245904Y-110978857D01*
%TO.C,R19*%
X176790285Y-130409904D02*
X177056952Y-130028952D01*
X177247428Y-130409904D02*
X177247428Y-129609904D01*
X176942666Y-129609904D01*
X176866476Y-129648000D01*
X176828380Y-129686095D01*
X176790285Y-129762285D01*
X176790285Y-129876571D01*
X176828380Y-129952761D01*
X176866476Y-129990857D01*
X176942666Y-130028952D01*
X177247428Y-130028952D01*
X176028380Y-130409904D02*
X176485523Y-130409904D01*
X176256952Y-130409904D02*
X176256952Y-129609904D01*
X176333142Y-129724190D01*
X176409333Y-129800380D01*
X176485523Y-129838476D01*
X175647428Y-130409904D02*
X175495047Y-130409904D01*
X175418857Y-130371809D01*
X175380761Y-130333714D01*
X175304571Y-130219428D01*
X175266476Y-130067047D01*
X175266476Y-129762285D01*
X175304571Y-129686095D01*
X175342666Y-129648000D01*
X175418857Y-129609904D01*
X175571238Y-129609904D01*
X175647428Y-129648000D01*
X175685523Y-129686095D01*
X175723619Y-129762285D01*
X175723619Y-129952761D01*
X175685523Y-130028952D01*
X175647428Y-130067047D01*
X175571238Y-130105142D01*
X175418857Y-130105142D01*
X175342666Y-130067047D01*
X175304571Y-130028952D01*
X175266476Y-129952761D01*
%TO.C,R18*%
X174504285Y-123043904D02*
X174770952Y-122662952D01*
X174961428Y-123043904D02*
X174961428Y-122243904D01*
X174656666Y-122243904D01*
X174580476Y-122282000D01*
X174542380Y-122320095D01*
X174504285Y-122396285D01*
X174504285Y-122510571D01*
X174542380Y-122586761D01*
X174580476Y-122624857D01*
X174656666Y-122662952D01*
X174961428Y-122662952D01*
X173742380Y-123043904D02*
X174199523Y-123043904D01*
X173970952Y-123043904D02*
X173970952Y-122243904D01*
X174047142Y-122358190D01*
X174123333Y-122434380D01*
X174199523Y-122472476D01*
X173285238Y-122586761D02*
X173361428Y-122548666D01*
X173399523Y-122510571D01*
X173437619Y-122434380D01*
X173437619Y-122396285D01*
X173399523Y-122320095D01*
X173361428Y-122282000D01*
X173285238Y-122243904D01*
X173132857Y-122243904D01*
X173056666Y-122282000D01*
X173018571Y-122320095D01*
X172980476Y-122396285D01*
X172980476Y-122434380D01*
X173018571Y-122510571D01*
X173056666Y-122548666D01*
X173132857Y-122586761D01*
X173285238Y-122586761D01*
X173361428Y-122624857D01*
X173399523Y-122662952D01*
X173437619Y-122739142D01*
X173437619Y-122891523D01*
X173399523Y-122967714D01*
X173361428Y-123005809D01*
X173285238Y-123043904D01*
X173132857Y-123043904D01*
X173056666Y-123005809D01*
X173018571Y-122967714D01*
X172980476Y-122891523D01*
X172980476Y-122739142D01*
X173018571Y-122662952D01*
X173056666Y-122624857D01*
X173132857Y-122586761D01*
%TO.C,C57*%
X193583469Y-94358429D02*
X193637344Y-94358429D01*
X193745093Y-94304554D01*
X193798968Y-94250679D01*
X193852843Y-94142930D01*
X193852843Y-94035180D01*
X193825906Y-93954368D01*
X193745093Y-93819681D01*
X193664281Y-93738869D01*
X193529594Y-93658057D01*
X193448782Y-93631119D01*
X193341032Y-93631119D01*
X193233283Y-93684994D01*
X193179408Y-93738869D01*
X193125533Y-93846618D01*
X193125533Y-93900493D01*
X192559848Y-94358429D02*
X192829222Y-94089055D01*
X193125533Y-94331492D01*
X193071658Y-94331492D01*
X192990846Y-94358429D01*
X192856159Y-94493116D01*
X192829222Y-94573928D01*
X192829222Y-94627803D01*
X192856159Y-94708615D01*
X192990846Y-94843302D01*
X193071658Y-94870240D01*
X193125533Y-94870240D01*
X193206345Y-94843302D01*
X193341032Y-94708615D01*
X193367970Y-94627803D01*
X193367970Y-94573928D01*
X192344348Y-94573928D02*
X191967225Y-94951052D01*
X192775347Y-95274301D01*
%TO.C,C40*%
X195427772Y-114170587D02*
X195427772Y-114224462D01*
X195481647Y-114332211D01*
X195535522Y-114386086D01*
X195643271Y-114439961D01*
X195751021Y-114439961D01*
X195831833Y-114413024D01*
X195966520Y-114332211D01*
X196047332Y-114251399D01*
X196128144Y-114116712D01*
X196155082Y-114035900D01*
X196155082Y-113928150D01*
X196101207Y-113820401D01*
X196047332Y-113766526D01*
X195939583Y-113712651D01*
X195885708Y-113712651D01*
X195266147Y-113362465D02*
X194889024Y-113739589D01*
X195616334Y-113281653D02*
X195346960Y-113820401D01*
X194996773Y-113470214D01*
X195050648Y-112769842D02*
X194996773Y-112715967D01*
X194915961Y-112689030D01*
X194862086Y-112689030D01*
X194781274Y-112715967D01*
X194646587Y-112796779D01*
X194511900Y-112931466D01*
X194431088Y-113066153D01*
X194404151Y-113146966D01*
X194404151Y-113200840D01*
X194431088Y-113281653D01*
X194484963Y-113335527D01*
X194565775Y-113362465D01*
X194619650Y-113362465D01*
X194700462Y-113335527D01*
X194835149Y-113254715D01*
X194969836Y-113120028D01*
X195050648Y-112985341D01*
X195077586Y-112904529D01*
X195077586Y-112850654D01*
X195050648Y-112769842D01*
%TO.C,R2*%
X177933333Y-107753104D02*
X178200000Y-107372152D01*
X178390476Y-107753104D02*
X178390476Y-106953104D01*
X178085714Y-106953104D01*
X178009523Y-106991200D01*
X177971428Y-107029295D01*
X177933333Y-107105485D01*
X177933333Y-107219771D01*
X177971428Y-107295961D01*
X178009523Y-107334057D01*
X178085714Y-107372152D01*
X178390476Y-107372152D01*
X177628571Y-107029295D02*
X177590476Y-106991200D01*
X177514285Y-106953104D01*
X177323809Y-106953104D01*
X177247619Y-106991200D01*
X177209523Y-107029295D01*
X177171428Y-107105485D01*
X177171428Y-107181676D01*
X177209523Y-107295961D01*
X177666666Y-107753104D01*
X177171428Y-107753104D01*
%TO.C,C62*%
X195056231Y-95831191D02*
X195110106Y-95831191D01*
X195217855Y-95777316D01*
X195271730Y-95723441D01*
X195325605Y-95615692D01*
X195325605Y-95507942D01*
X195298668Y-95427130D01*
X195217855Y-95292443D01*
X195137043Y-95211631D01*
X195002356Y-95130819D01*
X194921544Y-95103881D01*
X194813794Y-95103881D01*
X194706045Y-95157756D01*
X194652170Y-95211631D01*
X194598295Y-95319380D01*
X194598295Y-95373255D01*
X194059547Y-95804254D02*
X194167297Y-95696504D01*
X194248109Y-95669567D01*
X194301984Y-95669567D01*
X194436671Y-95696504D01*
X194571358Y-95777316D01*
X194786857Y-95992816D01*
X194813794Y-96073628D01*
X194813794Y-96127503D01*
X194786857Y-96208315D01*
X194679107Y-96316064D01*
X194598295Y-96343002D01*
X194544420Y-96343002D01*
X194463608Y-96316064D01*
X194328921Y-96181377D01*
X194301984Y-96100565D01*
X194301984Y-96046690D01*
X194328921Y-95965878D01*
X194436671Y-95858128D01*
X194517483Y-95831191D01*
X194571358Y-95831191D01*
X194652170Y-95858128D01*
X193844048Y-96127503D02*
X193790173Y-96127503D01*
X193709361Y-96154440D01*
X193574674Y-96289127D01*
X193547736Y-96369939D01*
X193547736Y-96423814D01*
X193574674Y-96504626D01*
X193628549Y-96558501D01*
X193736298Y-96612376D01*
X194382796Y-96612376D01*
X194032610Y-96962562D01*
%TO.C,R11*%
X181286085Y-109823204D02*
X181552752Y-109442252D01*
X181743228Y-109823204D02*
X181743228Y-109023204D01*
X181438466Y-109023204D01*
X181362276Y-109061300D01*
X181324180Y-109099395D01*
X181286085Y-109175585D01*
X181286085Y-109289871D01*
X181324180Y-109366061D01*
X181362276Y-109404157D01*
X181438466Y-109442252D01*
X181743228Y-109442252D01*
X180524180Y-109823204D02*
X180981323Y-109823204D01*
X180752752Y-109823204D02*
X180752752Y-109023204D01*
X180828942Y-109137490D01*
X180905133Y-109213680D01*
X180981323Y-109251776D01*
X179762276Y-109823204D02*
X180219419Y-109823204D01*
X179990847Y-109823204D02*
X179990847Y-109023204D01*
X180067038Y-109137490D01*
X180143228Y-109213680D01*
X180219419Y-109251776D01*
%TO.C,R14*%
X185146885Y-102431804D02*
X185413552Y-102050852D01*
X185604028Y-102431804D02*
X185604028Y-101631804D01*
X185299266Y-101631804D01*
X185223076Y-101669900D01*
X185184980Y-101707995D01*
X185146885Y-101784185D01*
X185146885Y-101898471D01*
X185184980Y-101974661D01*
X185223076Y-102012757D01*
X185299266Y-102050852D01*
X185604028Y-102050852D01*
X184384980Y-102431804D02*
X184842123Y-102431804D01*
X184613552Y-102431804D02*
X184613552Y-101631804D01*
X184689742Y-101746090D01*
X184765933Y-101822280D01*
X184842123Y-101860376D01*
X183699266Y-101898471D02*
X183699266Y-102431804D01*
X183889742Y-101593709D02*
X184080219Y-102165138D01*
X183584980Y-102165138D01*
%TO.C,C36*%
X191356366Y-92059484D02*
X191410241Y-92059484D01*
X191517990Y-92005609D01*
X191571865Y-91951734D01*
X191625740Y-91843985D01*
X191625740Y-91736235D01*
X191598803Y-91655423D01*
X191517990Y-91520736D01*
X191437178Y-91439924D01*
X191302491Y-91359112D01*
X191221679Y-91332174D01*
X191113929Y-91332174D01*
X191006180Y-91386049D01*
X190952305Y-91439924D01*
X190898430Y-91547673D01*
X190898430Y-91601548D01*
X190655993Y-91736235D02*
X190305807Y-92086421D01*
X190709868Y-92113359D01*
X190629056Y-92194171D01*
X190602119Y-92274983D01*
X190602119Y-92328858D01*
X190629056Y-92409670D01*
X190763743Y-92544357D01*
X190844555Y-92571295D01*
X190898430Y-92571295D01*
X190979242Y-92544357D01*
X191140867Y-92382733D01*
X191167804Y-92301921D01*
X191167804Y-92248046D01*
X189820934Y-92571295D02*
X189928684Y-92463545D01*
X190009496Y-92436608D01*
X190063371Y-92436608D01*
X190198058Y-92463545D01*
X190332745Y-92544357D01*
X190548244Y-92759857D01*
X190575181Y-92840669D01*
X190575181Y-92894544D01*
X190548244Y-92975356D01*
X190440494Y-93083105D01*
X190359682Y-93110043D01*
X190305807Y-93110043D01*
X190224995Y-93083105D01*
X190090308Y-92948418D01*
X190063371Y-92867606D01*
X190063371Y-92813731D01*
X190090308Y-92732919D01*
X190198058Y-92625170D01*
X190278870Y-92598232D01*
X190332745Y-92598232D01*
X190413557Y-92625170D01*
%TO.C,C52*%
X192110707Y-92849746D02*
X192164582Y-92849746D01*
X192272331Y-92795871D01*
X192326206Y-92741996D01*
X192380081Y-92634247D01*
X192380081Y-92526497D01*
X192353144Y-92445685D01*
X192272331Y-92310998D01*
X192191519Y-92230186D01*
X192056832Y-92149374D01*
X191976020Y-92122436D01*
X191868270Y-92122436D01*
X191760521Y-92176311D01*
X191706646Y-92230186D01*
X191652771Y-92337935D01*
X191652771Y-92391810D01*
X191087086Y-92849746D02*
X191356460Y-92580372D01*
X191652771Y-92822809D01*
X191598896Y-92822809D01*
X191518084Y-92849746D01*
X191383397Y-92984433D01*
X191356460Y-93065245D01*
X191356460Y-93119120D01*
X191383397Y-93199932D01*
X191518084Y-93334619D01*
X191598896Y-93361557D01*
X191652771Y-93361557D01*
X191733583Y-93334619D01*
X191868270Y-93199932D01*
X191895208Y-93119120D01*
X191895208Y-93065245D01*
X190898524Y-93146058D02*
X190844649Y-93146058D01*
X190763837Y-93172995D01*
X190629150Y-93307682D01*
X190602212Y-93388494D01*
X190602212Y-93442369D01*
X190629150Y-93523181D01*
X190683025Y-93577056D01*
X190790774Y-93630931D01*
X191437272Y-93630931D01*
X191087086Y-93981117D01*
%TO.C,C42*%
X194655471Y-114906969D02*
X194655471Y-114960844D01*
X194709346Y-115068593D01*
X194763221Y-115122468D01*
X194870970Y-115176343D01*
X194978720Y-115176343D01*
X195059532Y-115149406D01*
X195194219Y-115068593D01*
X195275031Y-114987781D01*
X195355843Y-114853094D01*
X195382781Y-114772282D01*
X195382781Y-114664532D01*
X195328906Y-114556783D01*
X195275031Y-114502908D01*
X195167282Y-114449033D01*
X195113407Y-114449033D01*
X194493846Y-114098847D02*
X194116723Y-114475971D01*
X194844033Y-114018035D02*
X194574659Y-114556783D01*
X194224472Y-114206596D01*
X194359159Y-113694786D02*
X194359159Y-113640911D01*
X194332222Y-113560099D01*
X194197535Y-113425412D01*
X194116723Y-113398474D01*
X194062848Y-113398474D01*
X193982036Y-113425412D01*
X193928161Y-113479287D01*
X193874286Y-113587036D01*
X193874286Y-114233534D01*
X193524100Y-113883348D01*
%TO.C,R6*%
X184562733Y-108743704D02*
X184829400Y-108362752D01*
X185019876Y-108743704D02*
X185019876Y-107943704D01*
X184715114Y-107943704D01*
X184638923Y-107981800D01*
X184600828Y-108019895D01*
X184562733Y-108096085D01*
X184562733Y-108210371D01*
X184600828Y-108286561D01*
X184638923Y-108324657D01*
X184715114Y-108362752D01*
X185019876Y-108362752D01*
X183877019Y-107943704D02*
X184029400Y-107943704D01*
X184105590Y-107981800D01*
X184143685Y-108019895D01*
X184219876Y-108134180D01*
X184257971Y-108286561D01*
X184257971Y-108591323D01*
X184219876Y-108667514D01*
X184181780Y-108705609D01*
X184105590Y-108743704D01*
X183953209Y-108743704D01*
X183877019Y-108705609D01*
X183838923Y-108667514D01*
X183800828Y-108591323D01*
X183800828Y-108400847D01*
X183838923Y-108324657D01*
X183877019Y-108286561D01*
X183953209Y-108248466D01*
X184105590Y-108248466D01*
X184181780Y-108286561D01*
X184219876Y-108324657D01*
X184257971Y-108400847D01*
%TO.C,C65*%
X194319850Y-95094810D02*
X194373725Y-95094810D01*
X194481474Y-95040935D01*
X194535349Y-94987060D01*
X194589224Y-94879311D01*
X194589224Y-94771561D01*
X194562287Y-94690749D01*
X194481474Y-94556062D01*
X194400662Y-94475250D01*
X194265975Y-94394438D01*
X194185163Y-94367500D01*
X194077413Y-94367500D01*
X193969664Y-94421375D01*
X193915789Y-94475250D01*
X193861914Y-94582999D01*
X193861914Y-94636874D01*
X193323166Y-95067873D02*
X193430916Y-94960123D01*
X193511728Y-94933186D01*
X193565603Y-94933186D01*
X193700290Y-94960123D01*
X193834977Y-95040935D01*
X194050476Y-95256435D01*
X194077413Y-95337247D01*
X194077413Y-95391122D01*
X194050476Y-95471934D01*
X193942726Y-95579683D01*
X193861914Y-95606621D01*
X193808039Y-95606621D01*
X193727227Y-95579683D01*
X193592540Y-95444996D01*
X193565603Y-95364184D01*
X193565603Y-95310309D01*
X193592540Y-95229497D01*
X193700290Y-95121747D01*
X193781102Y-95094810D01*
X193834977Y-95094810D01*
X193915789Y-95121747D01*
X192757481Y-95633558D02*
X193026855Y-95364184D01*
X193323166Y-95606621D01*
X193269291Y-95606621D01*
X193188479Y-95633558D01*
X193053792Y-95768245D01*
X193026855Y-95849057D01*
X193026855Y-95902932D01*
X193053792Y-95983744D01*
X193188479Y-96118431D01*
X193269291Y-96145369D01*
X193323166Y-96145369D01*
X193403978Y-96118431D01*
X193538665Y-95983744D01*
X193565603Y-95902932D01*
X193565603Y-95849057D01*
%TO.C,R52*%
X192883002Y-93657963D02*
X192802190Y-93200027D01*
X193206251Y-93334714D02*
X192640565Y-92769029D01*
X192425066Y-92984528D01*
X192398129Y-93065340D01*
X192398129Y-93119215D01*
X192425066Y-93200027D01*
X192505878Y-93280839D01*
X192586690Y-93307777D01*
X192640565Y-93307777D01*
X192721377Y-93280839D01*
X192936877Y-93065340D01*
X191805506Y-93604088D02*
X192074880Y-93334714D01*
X192371191Y-93577151D01*
X192317316Y-93577151D01*
X192236504Y-93604088D01*
X192101817Y-93738775D01*
X192074880Y-93819587D01*
X192074880Y-93873462D01*
X192101817Y-93954274D01*
X192236504Y-94088961D01*
X192317316Y-94115899D01*
X192371191Y-94115899D01*
X192452003Y-94088961D01*
X192586690Y-93954274D01*
X192613628Y-93873462D01*
X192613628Y-93819587D01*
X191616944Y-93900400D02*
X191563069Y-93900400D01*
X191482257Y-93927337D01*
X191347570Y-94062024D01*
X191320632Y-94142836D01*
X191320632Y-94196711D01*
X191347570Y-94277523D01*
X191401445Y-94331398D01*
X191509194Y-94385273D01*
X192155692Y-94385273D01*
X191805506Y-94735459D01*
%TO.C,R17*%
X150729904Y-145916714D02*
X150348952Y-145650047D01*
X150729904Y-145459571D02*
X149929904Y-145459571D01*
X149929904Y-145764333D01*
X149968000Y-145840523D01*
X150006095Y-145878619D01*
X150082285Y-145916714D01*
X150196571Y-145916714D01*
X150272761Y-145878619D01*
X150310857Y-145840523D01*
X150348952Y-145764333D01*
X150348952Y-145459571D01*
X150729904Y-146678619D02*
X150729904Y-146221476D01*
X150729904Y-146450047D02*
X149929904Y-146450047D01*
X150044190Y-146373857D01*
X150120380Y-146297666D01*
X150158476Y-146221476D01*
X149929904Y-146945285D02*
X149929904Y-147478619D01*
X150729904Y-147135761D01*
%TO.C,R16*%
X153930285Y-144379904D02*
X154196952Y-143998952D01*
X154387428Y-144379904D02*
X154387428Y-143579904D01*
X154082666Y-143579904D01*
X154006476Y-143618000D01*
X153968380Y-143656095D01*
X153930285Y-143732285D01*
X153930285Y-143846571D01*
X153968380Y-143922761D01*
X154006476Y-143960857D01*
X154082666Y-143998952D01*
X154387428Y-143998952D01*
X153168380Y-144379904D02*
X153625523Y-144379904D01*
X153396952Y-144379904D02*
X153396952Y-143579904D01*
X153473142Y-143694190D01*
X153549333Y-143770380D01*
X153625523Y-143808476D01*
X152482666Y-143579904D02*
X152635047Y-143579904D01*
X152711238Y-143618000D01*
X152749333Y-143656095D01*
X152825523Y-143770380D01*
X152863619Y-143922761D01*
X152863619Y-144227523D01*
X152825523Y-144303714D01*
X152787428Y-144341809D01*
X152711238Y-144379904D01*
X152558857Y-144379904D01*
X152482666Y-144341809D01*
X152444571Y-144303714D01*
X152406476Y-144227523D01*
X152406476Y-144037047D01*
X152444571Y-143960857D01*
X152482666Y-143922761D01*
X152558857Y-143884666D01*
X152711238Y-143884666D01*
X152787428Y-143922761D01*
X152825523Y-143960857D01*
X152863619Y-144037047D01*
%TO.C,C69*%
X164090285Y-97059714D02*
X164128380Y-97097809D01*
X164242666Y-97135904D01*
X164318857Y-97135904D01*
X164433142Y-97097809D01*
X164509333Y-97021619D01*
X164547428Y-96945428D01*
X164585523Y-96793047D01*
X164585523Y-96678761D01*
X164547428Y-96526380D01*
X164509333Y-96450190D01*
X164433142Y-96374000D01*
X164318857Y-96335904D01*
X164242666Y-96335904D01*
X164128380Y-96374000D01*
X164090285Y-96412095D01*
X163404571Y-96335904D02*
X163556952Y-96335904D01*
X163633142Y-96374000D01*
X163671238Y-96412095D01*
X163747428Y-96526380D01*
X163785523Y-96678761D01*
X163785523Y-96983523D01*
X163747428Y-97059714D01*
X163709333Y-97097809D01*
X163633142Y-97135904D01*
X163480761Y-97135904D01*
X163404571Y-97097809D01*
X163366476Y-97059714D01*
X163328380Y-96983523D01*
X163328380Y-96793047D01*
X163366476Y-96716857D01*
X163404571Y-96678761D01*
X163480761Y-96640666D01*
X163633142Y-96640666D01*
X163709333Y-96678761D01*
X163747428Y-96716857D01*
X163785523Y-96793047D01*
X162947428Y-97135904D02*
X162795047Y-97135904D01*
X162718857Y-97097809D01*
X162680761Y-97059714D01*
X162604571Y-96945428D01*
X162566476Y-96793047D01*
X162566476Y-96488285D01*
X162604571Y-96412095D01*
X162642666Y-96374000D01*
X162718857Y-96335904D01*
X162871238Y-96335904D01*
X162947428Y-96374000D01*
X162985523Y-96412095D01*
X163023619Y-96488285D01*
X163023619Y-96678761D01*
X162985523Y-96754952D01*
X162947428Y-96793047D01*
X162871238Y-96831142D01*
X162718857Y-96831142D01*
X162642666Y-96793047D01*
X162604571Y-96754952D01*
X162566476Y-96678761D01*
%TO.C,C70*%
X165056085Y-89246375D02*
X165109960Y-89246375D01*
X165217709Y-89192500D01*
X165271584Y-89138625D01*
X165325459Y-89030876D01*
X165325459Y-88923126D01*
X165298522Y-88842314D01*
X165217709Y-88707627D01*
X165136897Y-88626815D01*
X165002210Y-88546003D01*
X164921398Y-88519065D01*
X164813648Y-88519065D01*
X164705899Y-88572940D01*
X164652024Y-88626815D01*
X164598149Y-88734564D01*
X164598149Y-88788439D01*
X164355712Y-88923126D02*
X163978589Y-89300250D01*
X164786711Y-89623499D01*
X163655340Y-89623499D02*
X163601465Y-89677374D01*
X163574528Y-89758186D01*
X163574528Y-89812061D01*
X163601465Y-89892873D01*
X163682277Y-90027560D01*
X163816964Y-90162247D01*
X163951651Y-90243059D01*
X164032464Y-90269996D01*
X164086338Y-90269996D01*
X164167151Y-90243059D01*
X164221025Y-90189184D01*
X164247963Y-90108372D01*
X164247963Y-90054497D01*
X164221025Y-89973685D01*
X164140213Y-89838998D01*
X164005526Y-89704311D01*
X163870839Y-89623499D01*
X163790027Y-89596561D01*
X163736152Y-89596561D01*
X163655340Y-89623499D01*
%TO.C,L3*%
X153396904Y-107816666D02*
X153396904Y-107435714D01*
X152596904Y-107435714D01*
X152596904Y-108007142D02*
X152596904Y-108502380D01*
X152901666Y-108235714D01*
X152901666Y-108350000D01*
X152939761Y-108426190D01*
X152977857Y-108464285D01*
X153054047Y-108502380D01*
X153244523Y-108502380D01*
X153320714Y-108464285D01*
X153358809Y-108426190D01*
X153396904Y-108350000D01*
X153396904Y-108121428D01*
X153358809Y-108045238D01*
X153320714Y-108007142D01*
%TO.C,C33*%
X156597314Y-110026514D02*
X156635409Y-109988419D01*
X156673504Y-109874133D01*
X156673504Y-109797942D01*
X156635409Y-109683657D01*
X156559219Y-109607466D01*
X156483028Y-109569371D01*
X156330647Y-109531276D01*
X156216361Y-109531276D01*
X156063980Y-109569371D01*
X155987790Y-109607466D01*
X155911600Y-109683657D01*
X155873504Y-109797942D01*
X155873504Y-109874133D01*
X155911600Y-109988419D01*
X155949695Y-110026514D01*
X155873504Y-110293180D02*
X155873504Y-110788419D01*
X156178266Y-110521752D01*
X156178266Y-110636038D01*
X156216361Y-110712228D01*
X156254457Y-110750323D01*
X156330647Y-110788419D01*
X156521123Y-110788419D01*
X156597314Y-110750323D01*
X156635409Y-110712228D01*
X156673504Y-110636038D01*
X156673504Y-110407466D01*
X156635409Y-110331276D01*
X156597314Y-110293180D01*
X155873504Y-111055085D02*
X155873504Y-111550323D01*
X156178266Y-111283657D01*
X156178266Y-111397942D01*
X156216361Y-111474133D01*
X156254457Y-111512228D01*
X156330647Y-111550323D01*
X156521123Y-111550323D01*
X156597314Y-111512228D01*
X156635409Y-111474133D01*
X156673504Y-111397942D01*
X156673504Y-111169371D01*
X156635409Y-111093180D01*
X156597314Y-111055085D01*
%TO.C,C32*%
X159848514Y-109975714D02*
X159886609Y-109937619D01*
X159924704Y-109823333D01*
X159924704Y-109747142D01*
X159886609Y-109632857D01*
X159810419Y-109556666D01*
X159734228Y-109518571D01*
X159581847Y-109480476D01*
X159467561Y-109480476D01*
X159315180Y-109518571D01*
X159238990Y-109556666D01*
X159162800Y-109632857D01*
X159124704Y-109747142D01*
X159124704Y-109823333D01*
X159162800Y-109937619D01*
X159200895Y-109975714D01*
X159124704Y-110242380D02*
X159124704Y-110737619D01*
X159429466Y-110470952D01*
X159429466Y-110585238D01*
X159467561Y-110661428D01*
X159505657Y-110699523D01*
X159581847Y-110737619D01*
X159772323Y-110737619D01*
X159848514Y-110699523D01*
X159886609Y-110661428D01*
X159924704Y-110585238D01*
X159924704Y-110356666D01*
X159886609Y-110280476D01*
X159848514Y-110242380D01*
X159200895Y-111042380D02*
X159162800Y-111080476D01*
X159124704Y-111156666D01*
X159124704Y-111347142D01*
X159162800Y-111423333D01*
X159200895Y-111461428D01*
X159277085Y-111499523D01*
X159353276Y-111499523D01*
X159467561Y-111461428D01*
X159924704Y-111004285D01*
X159924704Y-111499523D01*
%TO.C,C31*%
X153676285Y-105505214D02*
X153714380Y-105543309D01*
X153828666Y-105581404D01*
X153904857Y-105581404D01*
X154019142Y-105543309D01*
X154095333Y-105467119D01*
X154133428Y-105390928D01*
X154171523Y-105238547D01*
X154171523Y-105124261D01*
X154133428Y-104971880D01*
X154095333Y-104895690D01*
X154019142Y-104819500D01*
X153904857Y-104781404D01*
X153828666Y-104781404D01*
X153714380Y-104819500D01*
X153676285Y-104857595D01*
X153409619Y-104781404D02*
X152914380Y-104781404D01*
X153181047Y-105086166D01*
X153066761Y-105086166D01*
X152990571Y-105124261D01*
X152952476Y-105162357D01*
X152914380Y-105238547D01*
X152914380Y-105429023D01*
X152952476Y-105505214D01*
X152990571Y-105543309D01*
X153066761Y-105581404D01*
X153295333Y-105581404D01*
X153371523Y-105543309D01*
X153409619Y-105505214D01*
X152152476Y-105581404D02*
X152609619Y-105581404D01*
X152381047Y-105581404D02*
X152381047Y-104781404D01*
X152457238Y-104895690D01*
X152533428Y-104971880D01*
X152609619Y-105009976D01*
%TO.C,C34*%
X155924214Y-94989714D02*
X155962309Y-94951619D01*
X156000404Y-94837333D01*
X156000404Y-94761142D01*
X155962309Y-94646857D01*
X155886119Y-94570666D01*
X155809928Y-94532571D01*
X155657547Y-94494476D01*
X155543261Y-94494476D01*
X155390880Y-94532571D01*
X155314690Y-94570666D01*
X155238500Y-94646857D01*
X155200404Y-94761142D01*
X155200404Y-94837333D01*
X155238500Y-94951619D01*
X155276595Y-94989714D01*
X155200404Y-95256380D02*
X155200404Y-95751619D01*
X155505166Y-95484952D01*
X155505166Y-95599238D01*
X155543261Y-95675428D01*
X155581357Y-95713523D01*
X155657547Y-95751619D01*
X155848023Y-95751619D01*
X155924214Y-95713523D01*
X155962309Y-95675428D01*
X156000404Y-95599238D01*
X156000404Y-95370666D01*
X155962309Y-95294476D01*
X155924214Y-95256380D01*
X155467071Y-96437333D02*
X156000404Y-96437333D01*
X155162309Y-96246857D02*
X155733738Y-96056380D01*
X155733738Y-96551619D01*
%TO.C,C68*%
X166973214Y-118865714D02*
X167011309Y-118827619D01*
X167049404Y-118713333D01*
X167049404Y-118637142D01*
X167011309Y-118522857D01*
X166935119Y-118446666D01*
X166858928Y-118408571D01*
X166706547Y-118370476D01*
X166592261Y-118370476D01*
X166439880Y-118408571D01*
X166363690Y-118446666D01*
X166287500Y-118522857D01*
X166249404Y-118637142D01*
X166249404Y-118713333D01*
X166287500Y-118827619D01*
X166325595Y-118865714D01*
X166249404Y-119551428D02*
X166249404Y-119399047D01*
X166287500Y-119322857D01*
X166325595Y-119284761D01*
X166439880Y-119208571D01*
X166592261Y-119170476D01*
X166897023Y-119170476D01*
X166973214Y-119208571D01*
X167011309Y-119246666D01*
X167049404Y-119322857D01*
X167049404Y-119475238D01*
X167011309Y-119551428D01*
X166973214Y-119589523D01*
X166897023Y-119627619D01*
X166706547Y-119627619D01*
X166630357Y-119589523D01*
X166592261Y-119551428D01*
X166554166Y-119475238D01*
X166554166Y-119322857D01*
X166592261Y-119246666D01*
X166630357Y-119208571D01*
X166706547Y-119170476D01*
X166592261Y-120084761D02*
X166554166Y-120008571D01*
X166516071Y-119970476D01*
X166439880Y-119932380D01*
X166401785Y-119932380D01*
X166325595Y-119970476D01*
X166287500Y-120008571D01*
X166249404Y-120084761D01*
X166249404Y-120237142D01*
X166287500Y-120313333D01*
X166325595Y-120351428D01*
X166401785Y-120389523D01*
X166439880Y-120389523D01*
X166516071Y-120351428D01*
X166554166Y-120313333D01*
X166592261Y-120237142D01*
X166592261Y-120084761D01*
X166630357Y-120008571D01*
X166668452Y-119970476D01*
X166744642Y-119932380D01*
X166897023Y-119932380D01*
X166973214Y-119970476D01*
X167011309Y-120008571D01*
X167049404Y-120084761D01*
X167049404Y-120237142D01*
X167011309Y-120313333D01*
X166973214Y-120351428D01*
X166897023Y-120389523D01*
X166744642Y-120389523D01*
X166668452Y-120351428D01*
X166630357Y-120313333D01*
X166592261Y-120237142D01*
%TO.C,C12*%
X155886114Y-112414114D02*
X155924209Y-112376019D01*
X155962304Y-112261733D01*
X155962304Y-112185542D01*
X155924209Y-112071257D01*
X155848019Y-111995066D01*
X155771828Y-111956971D01*
X155619447Y-111918876D01*
X155505161Y-111918876D01*
X155352780Y-111956971D01*
X155276590Y-111995066D01*
X155200400Y-112071257D01*
X155162304Y-112185542D01*
X155162304Y-112261733D01*
X155200400Y-112376019D01*
X155238495Y-112414114D01*
X155962304Y-113176019D02*
X155962304Y-112718876D01*
X155962304Y-112947447D02*
X155162304Y-112947447D01*
X155276590Y-112871257D01*
X155352780Y-112795066D01*
X155390876Y-112718876D01*
X155238495Y-113480780D02*
X155200400Y-113518876D01*
X155162304Y-113595066D01*
X155162304Y-113785542D01*
X155200400Y-113861733D01*
X155238495Y-113899828D01*
X155314685Y-113937923D01*
X155390876Y-113937923D01*
X155505161Y-113899828D01*
X155962304Y-113442685D01*
X155962304Y-113937923D01*
%TO.C,C9*%
X163119251Y-118021391D02*
X163119251Y-118075266D01*
X163173126Y-118183015D01*
X163227001Y-118236890D01*
X163334750Y-118290765D01*
X163442500Y-118290765D01*
X163523312Y-118263828D01*
X163657999Y-118183015D01*
X163738811Y-118102203D01*
X163819623Y-117967516D01*
X163846561Y-117886704D01*
X163846561Y-117778954D01*
X163792686Y-117671205D01*
X163738811Y-117617330D01*
X163631062Y-117563455D01*
X163577187Y-117563455D01*
X162796002Y-117805892D02*
X162688252Y-117698142D01*
X162661315Y-117617330D01*
X162661315Y-117563455D01*
X162688252Y-117428768D01*
X162769065Y-117294081D01*
X162984564Y-117078582D01*
X163065376Y-117051644D01*
X163119251Y-117051644D01*
X163200063Y-117078582D01*
X163307813Y-117186331D01*
X163334750Y-117267144D01*
X163334750Y-117321018D01*
X163307813Y-117401831D01*
X163173126Y-117536518D01*
X163092313Y-117563455D01*
X163038439Y-117563455D01*
X162957626Y-117536518D01*
X162849877Y-117428768D01*
X162822939Y-117347956D01*
X162822939Y-117294081D01*
X162849877Y-117213269D01*
%TO.C,C7*%
X165345511Y-90531749D02*
X165399386Y-90531749D01*
X165507135Y-90477874D01*
X165561010Y-90424000D01*
X165614885Y-90316250D01*
X165614885Y-90208500D01*
X165587948Y-90127688D01*
X165507135Y-89993001D01*
X165426323Y-89912189D01*
X165291636Y-89831377D01*
X165210824Y-89804439D01*
X165103074Y-89804439D01*
X164995325Y-89858314D01*
X164941450Y-89912189D01*
X164887575Y-90019938D01*
X164887575Y-90073813D01*
X164645138Y-90208500D02*
X164268015Y-90585624D01*
X165076137Y-90908873D01*
%TO.C,C35*%
X150717214Y-97466214D02*
X150755309Y-97428119D01*
X150793404Y-97313833D01*
X150793404Y-97237642D01*
X150755309Y-97123357D01*
X150679119Y-97047166D01*
X150602928Y-97009071D01*
X150450547Y-96970976D01*
X150336261Y-96970976D01*
X150183880Y-97009071D01*
X150107690Y-97047166D01*
X150031500Y-97123357D01*
X149993404Y-97237642D01*
X149993404Y-97313833D01*
X150031500Y-97428119D01*
X150069595Y-97466214D01*
X149993404Y-97732880D02*
X149993404Y-98228119D01*
X150298166Y-97961452D01*
X150298166Y-98075738D01*
X150336261Y-98151928D01*
X150374357Y-98190023D01*
X150450547Y-98228119D01*
X150641023Y-98228119D01*
X150717214Y-98190023D01*
X150755309Y-98151928D01*
X150793404Y-98075738D01*
X150793404Y-97847166D01*
X150755309Y-97770976D01*
X150717214Y-97732880D01*
X149993404Y-98951928D02*
X149993404Y-98570976D01*
X150374357Y-98532880D01*
X150336261Y-98570976D01*
X150298166Y-98647166D01*
X150298166Y-98837642D01*
X150336261Y-98913833D01*
X150374357Y-98951928D01*
X150450547Y-98990023D01*
X150641023Y-98990023D01*
X150717214Y-98951928D01*
X150755309Y-98913833D01*
X150793404Y-98837642D01*
X150793404Y-98647166D01*
X150755309Y-98570976D01*
X150717214Y-98532880D01*
%TO.C,C30*%
X162083714Y-110839314D02*
X162121809Y-110801219D01*
X162159904Y-110686933D01*
X162159904Y-110610742D01*
X162121809Y-110496457D01*
X162045619Y-110420266D01*
X161969428Y-110382171D01*
X161817047Y-110344076D01*
X161702761Y-110344076D01*
X161550380Y-110382171D01*
X161474190Y-110420266D01*
X161398000Y-110496457D01*
X161359904Y-110610742D01*
X161359904Y-110686933D01*
X161398000Y-110801219D01*
X161436095Y-110839314D01*
X161359904Y-111105980D02*
X161359904Y-111601219D01*
X161664666Y-111334552D01*
X161664666Y-111448838D01*
X161702761Y-111525028D01*
X161740857Y-111563123D01*
X161817047Y-111601219D01*
X162007523Y-111601219D01*
X162083714Y-111563123D01*
X162121809Y-111525028D01*
X162159904Y-111448838D01*
X162159904Y-111220266D01*
X162121809Y-111144076D01*
X162083714Y-111105980D01*
X161359904Y-112096457D02*
X161359904Y-112172647D01*
X161398000Y-112248838D01*
X161436095Y-112286933D01*
X161512285Y-112325028D01*
X161664666Y-112363123D01*
X161855142Y-112363123D01*
X162007523Y-112325028D01*
X162083714Y-112286933D01*
X162121809Y-112248838D01*
X162159904Y-112172647D01*
X162159904Y-112096457D01*
X162121809Y-112020266D01*
X162083714Y-111982171D01*
X162007523Y-111944076D01*
X161855142Y-111905980D01*
X161664666Y-111905980D01*
X161512285Y-111944076D01*
X161436095Y-111982171D01*
X161398000Y-112020266D01*
X161359904Y-112096457D01*
%TO.C,C29*%
X158451514Y-109975714D02*
X158489609Y-109937619D01*
X158527704Y-109823333D01*
X158527704Y-109747142D01*
X158489609Y-109632857D01*
X158413419Y-109556666D01*
X158337228Y-109518571D01*
X158184847Y-109480476D01*
X158070561Y-109480476D01*
X157918180Y-109518571D01*
X157841990Y-109556666D01*
X157765800Y-109632857D01*
X157727704Y-109747142D01*
X157727704Y-109823333D01*
X157765800Y-109937619D01*
X157803895Y-109975714D01*
X157803895Y-110280476D02*
X157765800Y-110318571D01*
X157727704Y-110394761D01*
X157727704Y-110585238D01*
X157765800Y-110661428D01*
X157803895Y-110699523D01*
X157880085Y-110737619D01*
X157956276Y-110737619D01*
X158070561Y-110699523D01*
X158527704Y-110242380D01*
X158527704Y-110737619D01*
X158527704Y-111118571D02*
X158527704Y-111270952D01*
X158489609Y-111347142D01*
X158451514Y-111385238D01*
X158337228Y-111461428D01*
X158184847Y-111499523D01*
X157880085Y-111499523D01*
X157803895Y-111461428D01*
X157765800Y-111423333D01*
X157727704Y-111347142D01*
X157727704Y-111194761D01*
X157765800Y-111118571D01*
X157803895Y-111080476D01*
X157880085Y-111042380D01*
X158070561Y-111042380D01*
X158146752Y-111080476D01*
X158184847Y-111118571D01*
X158222942Y-111194761D01*
X158222942Y-111347142D01*
X158184847Y-111423333D01*
X158146752Y-111461428D01*
X158070561Y-111499523D01*
%TO.C,C28*%
X155073314Y-110026514D02*
X155111409Y-109988419D01*
X155149504Y-109874133D01*
X155149504Y-109797942D01*
X155111409Y-109683657D01*
X155035219Y-109607466D01*
X154959028Y-109569371D01*
X154806647Y-109531276D01*
X154692361Y-109531276D01*
X154539980Y-109569371D01*
X154463790Y-109607466D01*
X154387600Y-109683657D01*
X154349504Y-109797942D01*
X154349504Y-109874133D01*
X154387600Y-109988419D01*
X154425695Y-110026514D01*
X154425695Y-110331276D02*
X154387600Y-110369371D01*
X154349504Y-110445561D01*
X154349504Y-110636038D01*
X154387600Y-110712228D01*
X154425695Y-110750323D01*
X154501885Y-110788419D01*
X154578076Y-110788419D01*
X154692361Y-110750323D01*
X155149504Y-110293180D01*
X155149504Y-110788419D01*
X154692361Y-111245561D02*
X154654266Y-111169371D01*
X154616171Y-111131276D01*
X154539980Y-111093180D01*
X154501885Y-111093180D01*
X154425695Y-111131276D01*
X154387600Y-111169371D01*
X154349504Y-111245561D01*
X154349504Y-111397942D01*
X154387600Y-111474133D01*
X154425695Y-111512228D01*
X154501885Y-111550323D01*
X154539980Y-111550323D01*
X154616171Y-111512228D01*
X154654266Y-111474133D01*
X154692361Y-111397942D01*
X154692361Y-111245561D01*
X154730457Y-111169371D01*
X154768552Y-111131276D01*
X154844742Y-111093180D01*
X154997123Y-111093180D01*
X155073314Y-111131276D01*
X155111409Y-111169371D01*
X155149504Y-111245561D01*
X155149504Y-111397942D01*
X155111409Y-111474133D01*
X155073314Y-111512228D01*
X154997123Y-111550323D01*
X154844742Y-111550323D01*
X154768552Y-111512228D01*
X154730457Y-111474133D01*
X154692361Y-111397942D01*
%TO.C,C27*%
X157257714Y-112414114D02*
X157295809Y-112376019D01*
X157333904Y-112261733D01*
X157333904Y-112185542D01*
X157295809Y-112071257D01*
X157219619Y-111995066D01*
X157143428Y-111956971D01*
X156991047Y-111918876D01*
X156876761Y-111918876D01*
X156724380Y-111956971D01*
X156648190Y-111995066D01*
X156572000Y-112071257D01*
X156533904Y-112185542D01*
X156533904Y-112261733D01*
X156572000Y-112376019D01*
X156610095Y-112414114D01*
X156610095Y-112718876D02*
X156572000Y-112756971D01*
X156533904Y-112833161D01*
X156533904Y-113023638D01*
X156572000Y-113099828D01*
X156610095Y-113137923D01*
X156686285Y-113176019D01*
X156762476Y-113176019D01*
X156876761Y-113137923D01*
X157333904Y-112680780D01*
X157333904Y-113176019D01*
X156533904Y-113442685D02*
X156533904Y-113976019D01*
X157333904Y-113633161D01*
%TO.C,C26*%
X157994285Y-95129314D02*
X158032380Y-95167409D01*
X158146666Y-95205504D01*
X158222857Y-95205504D01*
X158337142Y-95167409D01*
X158413333Y-95091219D01*
X158451428Y-95015028D01*
X158489523Y-94862647D01*
X158489523Y-94748361D01*
X158451428Y-94595980D01*
X158413333Y-94519790D01*
X158337142Y-94443600D01*
X158222857Y-94405504D01*
X158146666Y-94405504D01*
X158032380Y-94443600D01*
X157994285Y-94481695D01*
X157689523Y-94481695D02*
X157651428Y-94443600D01*
X157575238Y-94405504D01*
X157384761Y-94405504D01*
X157308571Y-94443600D01*
X157270476Y-94481695D01*
X157232380Y-94557885D01*
X157232380Y-94634076D01*
X157270476Y-94748361D01*
X157727619Y-95205504D01*
X157232380Y-95205504D01*
X156546666Y-94405504D02*
X156699047Y-94405504D01*
X156775238Y-94443600D01*
X156813333Y-94481695D01*
X156889523Y-94595980D01*
X156927619Y-94748361D01*
X156927619Y-95053123D01*
X156889523Y-95129314D01*
X156851428Y-95167409D01*
X156775238Y-95205504D01*
X156622857Y-95205504D01*
X156546666Y-95167409D01*
X156508571Y-95129314D01*
X156470476Y-95053123D01*
X156470476Y-94862647D01*
X156508571Y-94786457D01*
X156546666Y-94748361D01*
X156622857Y-94710266D01*
X156775238Y-94710266D01*
X156851428Y-94748361D01*
X156889523Y-94786457D01*
X156927619Y-94862647D01*
%TO.C,C25*%
X170008485Y-102901714D02*
X170046580Y-102939809D01*
X170160866Y-102977904D01*
X170237057Y-102977904D01*
X170351342Y-102939809D01*
X170427533Y-102863619D01*
X170465628Y-102787428D01*
X170503723Y-102635047D01*
X170503723Y-102520761D01*
X170465628Y-102368380D01*
X170427533Y-102292190D01*
X170351342Y-102216000D01*
X170237057Y-102177904D01*
X170160866Y-102177904D01*
X170046580Y-102216000D01*
X170008485Y-102254095D01*
X169703723Y-102254095D02*
X169665628Y-102216000D01*
X169589438Y-102177904D01*
X169398961Y-102177904D01*
X169322771Y-102216000D01*
X169284676Y-102254095D01*
X169246580Y-102330285D01*
X169246580Y-102406476D01*
X169284676Y-102520761D01*
X169741819Y-102977904D01*
X169246580Y-102977904D01*
X168522771Y-102177904D02*
X168903723Y-102177904D01*
X168941819Y-102558857D01*
X168903723Y-102520761D01*
X168827533Y-102482666D01*
X168637057Y-102482666D01*
X168560866Y-102520761D01*
X168522771Y-102558857D01*
X168484676Y-102635047D01*
X168484676Y-102825523D01*
X168522771Y-102901714D01*
X168560866Y-102939809D01*
X168637057Y-102977904D01*
X168827533Y-102977904D01*
X168903723Y-102939809D01*
X168941819Y-102901714D01*
%TO.C,C24*%
X158553114Y-112236314D02*
X158591209Y-112198219D01*
X158629304Y-112083933D01*
X158629304Y-112007742D01*
X158591209Y-111893457D01*
X158515019Y-111817266D01*
X158438828Y-111779171D01*
X158286447Y-111741076D01*
X158172161Y-111741076D01*
X158019780Y-111779171D01*
X157943590Y-111817266D01*
X157867400Y-111893457D01*
X157829304Y-112007742D01*
X157829304Y-112083933D01*
X157867400Y-112198219D01*
X157905495Y-112236314D01*
X157905495Y-112541076D02*
X157867400Y-112579171D01*
X157829304Y-112655361D01*
X157829304Y-112845838D01*
X157867400Y-112922028D01*
X157905495Y-112960123D01*
X157981685Y-112998219D01*
X158057876Y-112998219D01*
X158172161Y-112960123D01*
X158629304Y-112502980D01*
X158629304Y-112998219D01*
X158095971Y-113683933D02*
X158629304Y-113683933D01*
X157791209Y-113493457D02*
X158362638Y-113302980D01*
X158362638Y-113798219D01*
%TO.C,C23*%
X164623714Y-110128114D02*
X164661809Y-110090019D01*
X164699904Y-109975733D01*
X164699904Y-109899542D01*
X164661809Y-109785257D01*
X164585619Y-109709066D01*
X164509428Y-109670971D01*
X164357047Y-109632876D01*
X164242761Y-109632876D01*
X164090380Y-109670971D01*
X164014190Y-109709066D01*
X163938000Y-109785257D01*
X163899904Y-109899542D01*
X163899904Y-109975733D01*
X163938000Y-110090019D01*
X163976095Y-110128114D01*
X163976095Y-110432876D02*
X163938000Y-110470971D01*
X163899904Y-110547161D01*
X163899904Y-110737638D01*
X163938000Y-110813828D01*
X163976095Y-110851923D01*
X164052285Y-110890019D01*
X164128476Y-110890019D01*
X164242761Y-110851923D01*
X164699904Y-110394780D01*
X164699904Y-110890019D01*
X163899904Y-111156685D02*
X163899904Y-111651923D01*
X164204666Y-111385257D01*
X164204666Y-111499542D01*
X164242761Y-111575733D01*
X164280857Y-111613828D01*
X164357047Y-111651923D01*
X164547523Y-111651923D01*
X164623714Y-111613828D01*
X164661809Y-111575733D01*
X164699904Y-111499542D01*
X164699904Y-111270971D01*
X164661809Y-111194780D01*
X164623714Y-111156685D01*
%TO.C,C22*%
X160407285Y-95091214D02*
X160445380Y-95129309D01*
X160559666Y-95167404D01*
X160635857Y-95167404D01*
X160750142Y-95129309D01*
X160826333Y-95053119D01*
X160864428Y-94976928D01*
X160902523Y-94824547D01*
X160902523Y-94710261D01*
X160864428Y-94557880D01*
X160826333Y-94481690D01*
X160750142Y-94405500D01*
X160635857Y-94367404D01*
X160559666Y-94367404D01*
X160445380Y-94405500D01*
X160407285Y-94443595D01*
X160102523Y-94443595D02*
X160064428Y-94405500D01*
X159988238Y-94367404D01*
X159797761Y-94367404D01*
X159721571Y-94405500D01*
X159683476Y-94443595D01*
X159645380Y-94519785D01*
X159645380Y-94595976D01*
X159683476Y-94710261D01*
X160140619Y-95167404D01*
X159645380Y-95167404D01*
X159340619Y-94443595D02*
X159302523Y-94405500D01*
X159226333Y-94367404D01*
X159035857Y-94367404D01*
X158959666Y-94405500D01*
X158921571Y-94443595D01*
X158883476Y-94519785D01*
X158883476Y-94595976D01*
X158921571Y-94710261D01*
X159378714Y-95167404D01*
X158883476Y-95167404D01*
%TO.C,C21*%
X154971714Y-95243714D02*
X155009809Y-95205619D01*
X155047904Y-95091333D01*
X155047904Y-95015142D01*
X155009809Y-94900857D01*
X154933619Y-94824666D01*
X154857428Y-94786571D01*
X154705047Y-94748476D01*
X154590761Y-94748476D01*
X154438380Y-94786571D01*
X154362190Y-94824666D01*
X154286000Y-94900857D01*
X154247904Y-95015142D01*
X154247904Y-95091333D01*
X154286000Y-95205619D01*
X154324095Y-95243714D01*
X154324095Y-95548476D02*
X154286000Y-95586571D01*
X154247904Y-95662761D01*
X154247904Y-95853238D01*
X154286000Y-95929428D01*
X154324095Y-95967523D01*
X154400285Y-96005619D01*
X154476476Y-96005619D01*
X154590761Y-95967523D01*
X155047904Y-95510380D01*
X155047904Y-96005619D01*
X155047904Y-96767523D02*
X155047904Y-96310380D01*
X155047904Y-96538952D02*
X154247904Y-96538952D01*
X154362190Y-96462761D01*
X154438380Y-96386571D01*
X154476476Y-96310380D01*
%TO.C,C20*%
X170033885Y-101885714D02*
X170071980Y-101923809D01*
X170186266Y-101961904D01*
X170262457Y-101961904D01*
X170376742Y-101923809D01*
X170452933Y-101847619D01*
X170491028Y-101771428D01*
X170529123Y-101619047D01*
X170529123Y-101504761D01*
X170491028Y-101352380D01*
X170452933Y-101276190D01*
X170376742Y-101200000D01*
X170262457Y-101161904D01*
X170186266Y-101161904D01*
X170071980Y-101200000D01*
X170033885Y-101238095D01*
X169729123Y-101238095D02*
X169691028Y-101200000D01*
X169614838Y-101161904D01*
X169424361Y-101161904D01*
X169348171Y-101200000D01*
X169310076Y-101238095D01*
X169271980Y-101314285D01*
X169271980Y-101390476D01*
X169310076Y-101504761D01*
X169767219Y-101961904D01*
X169271980Y-101961904D01*
X168776742Y-101161904D02*
X168700552Y-101161904D01*
X168624361Y-101200000D01*
X168586266Y-101238095D01*
X168548171Y-101314285D01*
X168510076Y-101466666D01*
X168510076Y-101657142D01*
X168548171Y-101809523D01*
X168586266Y-101885714D01*
X168624361Y-101923809D01*
X168700552Y-101961904D01*
X168776742Y-101961904D01*
X168852933Y-101923809D01*
X168891028Y-101885714D01*
X168929123Y-101809523D01*
X168967219Y-101657142D01*
X168967219Y-101466666D01*
X168929123Y-101314285D01*
X168891028Y-101238095D01*
X168852933Y-101200000D01*
X168776742Y-101161904D01*
%TO.C,C19*%
X160991514Y-109975714D02*
X161029609Y-109937619D01*
X161067704Y-109823333D01*
X161067704Y-109747142D01*
X161029609Y-109632857D01*
X160953419Y-109556666D01*
X160877228Y-109518571D01*
X160724847Y-109480476D01*
X160610561Y-109480476D01*
X160458180Y-109518571D01*
X160381990Y-109556666D01*
X160305800Y-109632857D01*
X160267704Y-109747142D01*
X160267704Y-109823333D01*
X160305800Y-109937619D01*
X160343895Y-109975714D01*
X161067704Y-110737619D02*
X161067704Y-110280476D01*
X161067704Y-110509047D02*
X160267704Y-110509047D01*
X160381990Y-110432857D01*
X160458180Y-110356666D01*
X160496276Y-110280476D01*
X161067704Y-111118571D02*
X161067704Y-111270952D01*
X161029609Y-111347142D01*
X160991514Y-111385238D01*
X160877228Y-111461428D01*
X160724847Y-111499523D01*
X160420085Y-111499523D01*
X160343895Y-111461428D01*
X160305800Y-111423333D01*
X160267704Y-111347142D01*
X160267704Y-111194761D01*
X160305800Y-111118571D01*
X160343895Y-111080476D01*
X160420085Y-111042380D01*
X160610561Y-111042380D01*
X160686752Y-111080476D01*
X160724847Y-111118571D01*
X160762942Y-111194761D01*
X160762942Y-111347142D01*
X160724847Y-111423333D01*
X160686752Y-111461428D01*
X160610561Y-111499523D01*
%TO.C,C18*%
X153193714Y-94100714D02*
X153231809Y-94062619D01*
X153269904Y-93948333D01*
X153269904Y-93872142D01*
X153231809Y-93757857D01*
X153155619Y-93681666D01*
X153079428Y-93643571D01*
X152927047Y-93605476D01*
X152812761Y-93605476D01*
X152660380Y-93643571D01*
X152584190Y-93681666D01*
X152508000Y-93757857D01*
X152469904Y-93872142D01*
X152469904Y-93948333D01*
X152508000Y-94062619D01*
X152546095Y-94100714D01*
X153269904Y-94862619D02*
X153269904Y-94405476D01*
X153269904Y-94634047D02*
X152469904Y-94634047D01*
X152584190Y-94557857D01*
X152660380Y-94481666D01*
X152698476Y-94405476D01*
X152812761Y-95319761D02*
X152774666Y-95243571D01*
X152736571Y-95205476D01*
X152660380Y-95167380D01*
X152622285Y-95167380D01*
X152546095Y-95205476D01*
X152508000Y-95243571D01*
X152469904Y-95319761D01*
X152469904Y-95472142D01*
X152508000Y-95548333D01*
X152546095Y-95586428D01*
X152622285Y-95624523D01*
X152660380Y-95624523D01*
X152736571Y-95586428D01*
X152774666Y-95548333D01*
X152812761Y-95472142D01*
X152812761Y-95319761D01*
X152850857Y-95243571D01*
X152888952Y-95205476D01*
X152965142Y-95167380D01*
X153117523Y-95167380D01*
X153193714Y-95205476D01*
X153231809Y-95243571D01*
X153269904Y-95319761D01*
X153269904Y-95472142D01*
X153231809Y-95548333D01*
X153193714Y-95586428D01*
X153117523Y-95624523D01*
X152965142Y-95624523D01*
X152888952Y-95586428D01*
X152850857Y-95548333D01*
X152812761Y-95472142D01*
%TO.C,C17*%
X167925714Y-113150714D02*
X167963809Y-113112619D01*
X168001904Y-112998333D01*
X168001904Y-112922142D01*
X167963809Y-112807857D01*
X167887619Y-112731666D01*
X167811428Y-112693571D01*
X167659047Y-112655476D01*
X167544761Y-112655476D01*
X167392380Y-112693571D01*
X167316190Y-112731666D01*
X167240000Y-112807857D01*
X167201904Y-112922142D01*
X167201904Y-112998333D01*
X167240000Y-113112619D01*
X167278095Y-113150714D01*
X168001904Y-113912619D02*
X168001904Y-113455476D01*
X168001904Y-113684047D02*
X167201904Y-113684047D01*
X167316190Y-113607857D01*
X167392380Y-113531666D01*
X167430476Y-113455476D01*
X167201904Y-114179285D02*
X167201904Y-114712619D01*
X168001904Y-114369761D01*
%TO.C,C14*%
X151644285Y-103600214D02*
X151682380Y-103638309D01*
X151796666Y-103676404D01*
X151872857Y-103676404D01*
X151987142Y-103638309D01*
X152063333Y-103562119D01*
X152101428Y-103485928D01*
X152139523Y-103333547D01*
X152139523Y-103219261D01*
X152101428Y-103066880D01*
X152063333Y-102990690D01*
X151987142Y-102914500D01*
X151872857Y-102876404D01*
X151796666Y-102876404D01*
X151682380Y-102914500D01*
X151644285Y-102952595D01*
X150882380Y-103676404D02*
X151339523Y-103676404D01*
X151110952Y-103676404D02*
X151110952Y-102876404D01*
X151187142Y-102990690D01*
X151263333Y-103066880D01*
X151339523Y-103104976D01*
X150196666Y-103143071D02*
X150196666Y-103676404D01*
X150387142Y-102838309D02*
X150577619Y-103409738D01*
X150082380Y-103409738D01*
%TO.C,R42*%
X171011804Y-75685714D02*
X170630852Y-75419047D01*
X171011804Y-75228571D02*
X170211804Y-75228571D01*
X170211804Y-75533333D01*
X170249900Y-75609523D01*
X170287995Y-75647619D01*
X170364185Y-75685714D01*
X170478471Y-75685714D01*
X170554661Y-75647619D01*
X170592757Y-75609523D01*
X170630852Y-75533333D01*
X170630852Y-75228571D01*
X170478471Y-76371428D02*
X171011804Y-76371428D01*
X170173709Y-76180952D02*
X170745138Y-75990476D01*
X170745138Y-76485714D01*
X170287995Y-76752380D02*
X170249900Y-76790476D01*
X170211804Y-76866666D01*
X170211804Y-77057142D01*
X170249900Y-77133333D01*
X170287995Y-77171428D01*
X170364185Y-77209523D01*
X170440376Y-77209523D01*
X170554661Y-77171428D01*
X171011804Y-76714285D01*
X171011804Y-77209523D01*
%TO.C,R41*%
X172078604Y-75685714D02*
X171697652Y-75419047D01*
X172078604Y-75228571D02*
X171278604Y-75228571D01*
X171278604Y-75533333D01*
X171316700Y-75609523D01*
X171354795Y-75647619D01*
X171430985Y-75685714D01*
X171545271Y-75685714D01*
X171621461Y-75647619D01*
X171659557Y-75609523D01*
X171697652Y-75533333D01*
X171697652Y-75228571D01*
X171545271Y-76371428D02*
X172078604Y-76371428D01*
X171240509Y-76180952D02*
X171811938Y-75990476D01*
X171811938Y-76485714D01*
X172078604Y-77209523D02*
X172078604Y-76752380D01*
X172078604Y-76980952D02*
X171278604Y-76980952D01*
X171392890Y-76904761D01*
X171469080Y-76828571D01*
X171507176Y-76752380D01*
%TO.C,R40*%
X176549004Y-75685714D02*
X176168052Y-75419047D01*
X176549004Y-75228571D02*
X175749004Y-75228571D01*
X175749004Y-75533333D01*
X175787100Y-75609523D01*
X175825195Y-75647619D01*
X175901385Y-75685714D01*
X176015671Y-75685714D01*
X176091861Y-75647619D01*
X176129957Y-75609523D01*
X176168052Y-75533333D01*
X176168052Y-75228571D01*
X176015671Y-76371428D02*
X176549004Y-76371428D01*
X175710909Y-76180952D02*
X176282338Y-75990476D01*
X176282338Y-76485714D01*
X175749004Y-76942857D02*
X175749004Y-77019047D01*
X175787100Y-77095238D01*
X175825195Y-77133333D01*
X175901385Y-77171428D01*
X176053766Y-77209523D01*
X176244242Y-77209523D01*
X176396623Y-77171428D01*
X176472814Y-77133333D01*
X176510909Y-77095238D01*
X176549004Y-77019047D01*
X176549004Y-76942857D01*
X176510909Y-76866666D01*
X176472814Y-76828571D01*
X176396623Y-76790476D01*
X176244242Y-76752380D01*
X176053766Y-76752380D01*
X175901385Y-76790476D01*
X175825195Y-76828571D01*
X175787100Y-76866666D01*
X175749004Y-76942857D01*
%TO.C,R13*%
X177615804Y-75685714D02*
X177234852Y-75419047D01*
X177615804Y-75228571D02*
X176815804Y-75228571D01*
X176815804Y-75533333D01*
X176853900Y-75609523D01*
X176891995Y-75647619D01*
X176968185Y-75685714D01*
X177082471Y-75685714D01*
X177158661Y-75647619D01*
X177196757Y-75609523D01*
X177234852Y-75533333D01*
X177234852Y-75228571D01*
X177615804Y-76447619D02*
X177615804Y-75990476D01*
X177615804Y-76219047D02*
X176815804Y-76219047D01*
X176930090Y-76142857D01*
X177006280Y-76066666D01*
X177044376Y-75990476D01*
X176815804Y-76714285D02*
X176815804Y-77209523D01*
X177120566Y-76942857D01*
X177120566Y-77057142D01*
X177158661Y-77133333D01*
X177196757Y-77171428D01*
X177272947Y-77209523D01*
X177463423Y-77209523D01*
X177539614Y-77171428D01*
X177577709Y-77133333D01*
X177615804Y-77057142D01*
X177615804Y-76828571D01*
X177577709Y-76752380D01*
X177539614Y-76714285D01*
%TO.C,R12*%
X178657204Y-75685714D02*
X178276252Y-75419047D01*
X178657204Y-75228571D02*
X177857204Y-75228571D01*
X177857204Y-75533333D01*
X177895300Y-75609523D01*
X177933395Y-75647619D01*
X178009585Y-75685714D01*
X178123871Y-75685714D01*
X178200061Y-75647619D01*
X178238157Y-75609523D01*
X178276252Y-75533333D01*
X178276252Y-75228571D01*
X178657204Y-76447619D02*
X178657204Y-75990476D01*
X178657204Y-76219047D02*
X177857204Y-76219047D01*
X177971490Y-76142857D01*
X178047680Y-76066666D01*
X178085776Y-75990476D01*
X177933395Y-76752380D02*
X177895300Y-76790476D01*
X177857204Y-76866666D01*
X177857204Y-77057142D01*
X177895300Y-77133333D01*
X177933395Y-77171428D01*
X178009585Y-77209523D01*
X178085776Y-77209523D01*
X178200061Y-77171428D01*
X178657204Y-76714285D01*
X178657204Y-77209523D01*
%TO.C,C5*%
X187839333Y-129571714D02*
X187877428Y-129609809D01*
X187991714Y-129647904D01*
X188067904Y-129647904D01*
X188182190Y-129609809D01*
X188258380Y-129533619D01*
X188296476Y-129457428D01*
X188334571Y-129305047D01*
X188334571Y-129190761D01*
X188296476Y-129038380D01*
X188258380Y-128962190D01*
X188182190Y-128886000D01*
X188067904Y-128847904D01*
X187991714Y-128847904D01*
X187877428Y-128886000D01*
X187839333Y-128924095D01*
X187115523Y-128847904D02*
X187496476Y-128847904D01*
X187534571Y-129228857D01*
X187496476Y-129190761D01*
X187420285Y-129152666D01*
X187229809Y-129152666D01*
X187153619Y-129190761D01*
X187115523Y-129228857D01*
X187077428Y-129305047D01*
X187077428Y-129495523D01*
X187115523Y-129571714D01*
X187153619Y-129609809D01*
X187229809Y-129647904D01*
X187420285Y-129647904D01*
X187496476Y-129609809D01*
X187534571Y-129571714D01*
%TO.C,U3*%
X177114123Y-134994704D02*
X177114123Y-135642323D01*
X177076028Y-135718514D01*
X177037933Y-135756609D01*
X176961742Y-135794704D01*
X176809361Y-135794704D01*
X176733171Y-135756609D01*
X176695076Y-135718514D01*
X176656980Y-135642323D01*
X176656980Y-134994704D01*
X176352219Y-134994704D02*
X175856980Y-134994704D01*
X176123647Y-135299466D01*
X176009361Y-135299466D01*
X175933171Y-135337561D01*
X175895076Y-135375657D01*
X175856980Y-135451847D01*
X175856980Y-135642323D01*
X175895076Y-135718514D01*
X175933171Y-135756609D01*
X176009361Y-135794704D01*
X176237933Y-135794704D01*
X176314123Y-135756609D01*
X176352219Y-135718514D01*
%TO.C,R10*%
X170033885Y-100895104D02*
X170300552Y-100514152D01*
X170491028Y-100895104D02*
X170491028Y-100095104D01*
X170186266Y-100095104D01*
X170110076Y-100133200D01*
X170071980Y-100171295D01*
X170033885Y-100247485D01*
X170033885Y-100361771D01*
X170071980Y-100437961D01*
X170110076Y-100476057D01*
X170186266Y-100514152D01*
X170491028Y-100514152D01*
X169271980Y-100895104D02*
X169729123Y-100895104D01*
X169500552Y-100895104D02*
X169500552Y-100095104D01*
X169576742Y-100209390D01*
X169652933Y-100285580D01*
X169729123Y-100323676D01*
X168776742Y-100095104D02*
X168700552Y-100095104D01*
X168624361Y-100133200D01*
X168586266Y-100171295D01*
X168548171Y-100247485D01*
X168510076Y-100399866D01*
X168510076Y-100590342D01*
X168548171Y-100742723D01*
X168586266Y-100818914D01*
X168624361Y-100857009D01*
X168700552Y-100895104D01*
X168776742Y-100895104D01*
X168852933Y-100857009D01*
X168891028Y-100818914D01*
X168929123Y-100742723D01*
X168967219Y-100590342D01*
X168967219Y-100399866D01*
X168929123Y-100247485D01*
X168891028Y-100171295D01*
X168852933Y-100133200D01*
X168776742Y-100095104D01*
%TO.C,R9*%
X132467333Y-70973904D02*
X132734000Y-70592952D01*
X132924476Y-70973904D02*
X132924476Y-70173904D01*
X132619714Y-70173904D01*
X132543523Y-70212000D01*
X132505428Y-70250095D01*
X132467333Y-70326285D01*
X132467333Y-70440571D01*
X132505428Y-70516761D01*
X132543523Y-70554857D01*
X132619714Y-70592952D01*
X132924476Y-70592952D01*
X132086380Y-70973904D02*
X131934000Y-70973904D01*
X131857809Y-70935809D01*
X131819714Y-70897714D01*
X131743523Y-70783428D01*
X131705428Y-70631047D01*
X131705428Y-70326285D01*
X131743523Y-70250095D01*
X131781619Y-70212000D01*
X131857809Y-70173904D01*
X132010190Y-70173904D01*
X132086380Y-70212000D01*
X132124476Y-70250095D01*
X132162571Y-70326285D01*
X132162571Y-70516761D01*
X132124476Y-70592952D01*
X132086380Y-70631047D01*
X132010190Y-70669142D01*
X131857809Y-70669142D01*
X131781619Y-70631047D01*
X131743523Y-70592952D01*
X131705428Y-70516761D01*
%TO.C,R8*%
X169208404Y-118103666D02*
X168827452Y-117837000D01*
X169208404Y-117646523D02*
X168408404Y-117646523D01*
X168408404Y-117951285D01*
X168446500Y-118027476D01*
X168484595Y-118065571D01*
X168560785Y-118103666D01*
X168675071Y-118103666D01*
X168751261Y-118065571D01*
X168789357Y-118027476D01*
X168827452Y-117951285D01*
X168827452Y-117646523D01*
X168751261Y-118560809D02*
X168713166Y-118484619D01*
X168675071Y-118446523D01*
X168598880Y-118408428D01*
X168560785Y-118408428D01*
X168484595Y-118446523D01*
X168446500Y-118484619D01*
X168408404Y-118560809D01*
X168408404Y-118713190D01*
X168446500Y-118789380D01*
X168484595Y-118827476D01*
X168560785Y-118865571D01*
X168598880Y-118865571D01*
X168675071Y-118827476D01*
X168713166Y-118789380D01*
X168751261Y-118713190D01*
X168751261Y-118560809D01*
X168789357Y-118484619D01*
X168827452Y-118446523D01*
X168903642Y-118408428D01*
X169056023Y-118408428D01*
X169132214Y-118446523D01*
X169170309Y-118484619D01*
X169208404Y-118560809D01*
X169208404Y-118713190D01*
X169170309Y-118789380D01*
X169132214Y-118827476D01*
X169056023Y-118865571D01*
X168903642Y-118865571D01*
X168827452Y-118827476D01*
X168789357Y-118789380D01*
X168751261Y-118713190D01*
%TO.C,R7*%
X145167333Y-76180904D02*
X145434000Y-75799952D01*
X145624476Y-76180904D02*
X145624476Y-75380904D01*
X145319714Y-75380904D01*
X145243523Y-75419000D01*
X145205428Y-75457095D01*
X145167333Y-75533285D01*
X145167333Y-75647571D01*
X145205428Y-75723761D01*
X145243523Y-75761857D01*
X145319714Y-75799952D01*
X145624476Y-75799952D01*
X144900666Y-75380904D02*
X144367333Y-75380904D01*
X144710190Y-76180904D01*
%TO.C,R5*%
X145167333Y-73640904D02*
X145434000Y-73259952D01*
X145624476Y-73640904D02*
X145624476Y-72840904D01*
X145319714Y-72840904D01*
X145243523Y-72879000D01*
X145205428Y-72917095D01*
X145167333Y-72993285D01*
X145167333Y-73107571D01*
X145205428Y-73183761D01*
X145243523Y-73221857D01*
X145319714Y-73259952D01*
X145624476Y-73259952D01*
X144443523Y-72840904D02*
X144824476Y-72840904D01*
X144862571Y-73221857D01*
X144824476Y-73183761D01*
X144748285Y-73145666D01*
X144557809Y-73145666D01*
X144481619Y-73183761D01*
X144443523Y-73221857D01*
X144405428Y-73298047D01*
X144405428Y-73488523D01*
X144443523Y-73564714D01*
X144481619Y-73602809D01*
X144557809Y-73640904D01*
X144748285Y-73640904D01*
X144824476Y-73602809D01*
X144862571Y-73564714D01*
%TO.C,R1*%
X145294333Y-71100904D02*
X145561000Y-70719952D01*
X145751476Y-71100904D02*
X145751476Y-70300904D01*
X145446714Y-70300904D01*
X145370523Y-70339000D01*
X145332428Y-70377095D01*
X145294333Y-70453285D01*
X145294333Y-70567571D01*
X145332428Y-70643761D01*
X145370523Y-70681857D01*
X145446714Y-70719952D01*
X145751476Y-70719952D01*
X144532428Y-71100904D02*
X144989571Y-71100904D01*
X144761000Y-71100904D02*
X144761000Y-70300904D01*
X144837190Y-70415190D01*
X144913380Y-70491380D01*
X144989571Y-70529476D01*
%TO.C,C15*%
X150882285Y-100996714D02*
X150920380Y-101034809D01*
X151034666Y-101072904D01*
X151110857Y-101072904D01*
X151225142Y-101034809D01*
X151301333Y-100958619D01*
X151339428Y-100882428D01*
X151377523Y-100730047D01*
X151377523Y-100615761D01*
X151339428Y-100463380D01*
X151301333Y-100387190D01*
X151225142Y-100311000D01*
X151110857Y-100272904D01*
X151034666Y-100272904D01*
X150920380Y-100311000D01*
X150882285Y-100349095D01*
X150120380Y-101072904D02*
X150577523Y-101072904D01*
X150348952Y-101072904D02*
X150348952Y-100272904D01*
X150425142Y-100387190D01*
X150501333Y-100463380D01*
X150577523Y-100501476D01*
X149396571Y-100272904D02*
X149777523Y-100272904D01*
X149815619Y-100653857D01*
X149777523Y-100615761D01*
X149701333Y-100577666D01*
X149510857Y-100577666D01*
X149434666Y-100615761D01*
X149396571Y-100653857D01*
X149358476Y-100730047D01*
X149358476Y-100920523D01*
X149396571Y-100996714D01*
X149434666Y-101034809D01*
X149510857Y-101072904D01*
X149701333Y-101072904D01*
X149777523Y-101034809D01*
X149815619Y-100996714D01*
%TO.C,C13*%
X183292714Y-78289214D02*
X183330809Y-78251119D01*
X183368904Y-78136833D01*
X183368904Y-78060642D01*
X183330809Y-77946357D01*
X183254619Y-77870166D01*
X183178428Y-77832071D01*
X183026047Y-77793976D01*
X182911761Y-77793976D01*
X182759380Y-77832071D01*
X182683190Y-77870166D01*
X182607000Y-77946357D01*
X182568904Y-78060642D01*
X182568904Y-78136833D01*
X182607000Y-78251119D01*
X182645095Y-78289214D01*
X183368904Y-79051119D02*
X183368904Y-78593976D01*
X183368904Y-78822547D02*
X182568904Y-78822547D01*
X182683190Y-78746357D01*
X182759380Y-78670166D01*
X182797476Y-78593976D01*
X182568904Y-79317785D02*
X182568904Y-79813023D01*
X182873666Y-79546357D01*
X182873666Y-79660642D01*
X182911761Y-79736833D01*
X182949857Y-79774928D01*
X183026047Y-79813023D01*
X183216523Y-79813023D01*
X183292714Y-79774928D01*
X183330809Y-79736833D01*
X183368904Y-79660642D01*
X183368904Y-79432071D01*
X183330809Y-79355880D01*
X183292714Y-79317785D01*
%TO.C,C10*%
X188347285Y-116109714D02*
X188385380Y-116147809D01*
X188499666Y-116185904D01*
X188575857Y-116185904D01*
X188690142Y-116147809D01*
X188766333Y-116071619D01*
X188804428Y-115995428D01*
X188842523Y-115843047D01*
X188842523Y-115728761D01*
X188804428Y-115576380D01*
X188766333Y-115500190D01*
X188690142Y-115424000D01*
X188575857Y-115385904D01*
X188499666Y-115385904D01*
X188385380Y-115424000D01*
X188347285Y-115462095D01*
X187585380Y-116185904D02*
X188042523Y-116185904D01*
X187813952Y-116185904D02*
X187813952Y-115385904D01*
X187890142Y-115500190D01*
X187966333Y-115576380D01*
X188042523Y-115614476D01*
X187090142Y-115385904D02*
X187013952Y-115385904D01*
X186937761Y-115424000D01*
X186899666Y-115462095D01*
X186861571Y-115538285D01*
X186823476Y-115690666D01*
X186823476Y-115881142D01*
X186861571Y-116033523D01*
X186899666Y-116109714D01*
X186937761Y-116147809D01*
X187013952Y-116185904D01*
X187090142Y-116185904D01*
X187166333Y-116147809D01*
X187204428Y-116109714D01*
X187242523Y-116033523D01*
X187280619Y-115881142D01*
X187280619Y-115690666D01*
X187242523Y-115538285D01*
X187204428Y-115462095D01*
X187166333Y-115424000D01*
X187090142Y-115385904D01*
%TO.C,C8*%
X190506333Y-116109714D02*
X190544428Y-116147809D01*
X190658714Y-116185904D01*
X190734904Y-116185904D01*
X190849190Y-116147809D01*
X190925380Y-116071619D01*
X190963476Y-115995428D01*
X191001571Y-115843047D01*
X191001571Y-115728761D01*
X190963476Y-115576380D01*
X190925380Y-115500190D01*
X190849190Y-115424000D01*
X190734904Y-115385904D01*
X190658714Y-115385904D01*
X190544428Y-115424000D01*
X190506333Y-115462095D01*
X190049190Y-115728761D02*
X190125380Y-115690666D01*
X190163476Y-115652571D01*
X190201571Y-115576380D01*
X190201571Y-115538285D01*
X190163476Y-115462095D01*
X190125380Y-115424000D01*
X190049190Y-115385904D01*
X189896809Y-115385904D01*
X189820619Y-115424000D01*
X189782523Y-115462095D01*
X189744428Y-115538285D01*
X189744428Y-115576380D01*
X189782523Y-115652571D01*
X189820619Y-115690666D01*
X189896809Y-115728761D01*
X190049190Y-115728761D01*
X190125380Y-115766857D01*
X190163476Y-115804952D01*
X190201571Y-115881142D01*
X190201571Y-116033523D01*
X190163476Y-116109714D01*
X190125380Y-116147809D01*
X190049190Y-116185904D01*
X189896809Y-116185904D01*
X189820619Y-116147809D01*
X189782523Y-116109714D01*
X189744428Y-116033523D01*
X189744428Y-115881142D01*
X189782523Y-115804952D01*
X189820619Y-115766857D01*
X189896809Y-115728761D01*
%TO.C,C2*%
X190379333Y-129571714D02*
X190417428Y-129609809D01*
X190531714Y-129647904D01*
X190607904Y-129647904D01*
X190722190Y-129609809D01*
X190798380Y-129533619D01*
X190836476Y-129457428D01*
X190874571Y-129305047D01*
X190874571Y-129190761D01*
X190836476Y-129038380D01*
X190798380Y-128962190D01*
X190722190Y-128886000D01*
X190607904Y-128847904D01*
X190531714Y-128847904D01*
X190417428Y-128886000D01*
X190379333Y-128924095D01*
X190074571Y-128924095D02*
X190036476Y-128886000D01*
X189960285Y-128847904D01*
X189769809Y-128847904D01*
X189693619Y-128886000D01*
X189655523Y-128924095D01*
X189617428Y-129000285D01*
X189617428Y-129076476D01*
X189655523Y-129190761D01*
X190112666Y-129647904D01*
X189617428Y-129647904D01*
%TD*%
M02*
