%TF.GenerationSoftware,KiCad,Pcbnew,(5.1.8-0-10_14)*%
%TF.CreationDate,2020-12-08T12:39:33+00:00*%
%TF.ProjectId,STM32MP1_TestBoard,53544d33-324d-4503-915f-54657374426f,rev?*%
%TF.SameCoordinates,Original*%
%TF.FileFunction,Legend,Top*%
%TF.FilePolarity,Positive*%
%FSLAX46Y46*%
G04 Gerber Fmt 4.6, Leading zero omitted, Abs format (unit mm)*
G04 Created by KiCad (PCBNEW (5.1.8-0-10_14)) date 2020-12-08 12:39:33*
%MOMM*%
%LPD*%
G01*
G04 APERTURE LIST*
%ADD10C,0.100000*%
%ADD11C,0.120000*%
%ADD12C,0.300000*%
%ADD13C,0.200000*%
G04 APERTURE END LIST*
D10*
X140449333Y-80841904D02*
X140982666Y-81641904D01*
X140982666Y-80841904D02*
X140449333Y-81641904D01*
X139052333Y-80841904D02*
X139585666Y-81641904D01*
X139585666Y-80841904D02*
X139052333Y-81641904D01*
X142932285Y-72444857D02*
X143046571Y-72482952D01*
X143084666Y-72521047D01*
X143122761Y-72597238D01*
X143122761Y-72711523D01*
X143084666Y-72787714D01*
X143046571Y-72825809D01*
X142970380Y-72863904D01*
X142665619Y-72863904D01*
X142665619Y-72063904D01*
X142932285Y-72063904D01*
X143008476Y-72102000D01*
X143046571Y-72140095D01*
X143084666Y-72216285D01*
X143084666Y-72292476D01*
X143046571Y-72368666D01*
X143008476Y-72406761D01*
X142932285Y-72444857D01*
X142665619Y-72444857D01*
X143618000Y-72063904D02*
X143770380Y-72063904D01*
X143846571Y-72102000D01*
X143922761Y-72178190D01*
X143960857Y-72330571D01*
X143960857Y-72597238D01*
X143922761Y-72749619D01*
X143846571Y-72825809D01*
X143770380Y-72863904D01*
X143618000Y-72863904D01*
X143541809Y-72825809D01*
X143465619Y-72749619D01*
X143427523Y-72597238D01*
X143427523Y-72330571D01*
X143465619Y-72178190D01*
X143541809Y-72102000D01*
X143618000Y-72063904D01*
X144456095Y-72063904D02*
X144608476Y-72063904D01*
X144684666Y-72102000D01*
X144760857Y-72178190D01*
X144798952Y-72330571D01*
X144798952Y-72597238D01*
X144760857Y-72749619D01*
X144684666Y-72825809D01*
X144608476Y-72863904D01*
X144456095Y-72863904D01*
X144379904Y-72825809D01*
X144303714Y-72749619D01*
X144265619Y-72597238D01*
X144265619Y-72330571D01*
X144303714Y-72178190D01*
X144379904Y-72102000D01*
X144456095Y-72063904D01*
X145027523Y-72063904D02*
X145484666Y-72063904D01*
X145256095Y-72863904D02*
X145256095Y-72063904D01*
X143275142Y-73744857D02*
X143008476Y-73744857D01*
X143008476Y-74163904D02*
X143008476Y-73363904D01*
X143389428Y-73363904D01*
X143656095Y-73935333D02*
X144037047Y-73935333D01*
X143579904Y-74163904D02*
X143846571Y-73363904D01*
X144113238Y-74163904D01*
X144379904Y-74163904D02*
X144379904Y-73363904D01*
X145141809Y-74163904D02*
X144760857Y-74163904D01*
X144760857Y-73363904D01*
X173177333Y-116043904D02*
X172720190Y-116043904D01*
X172948761Y-116043904D02*
X172948761Y-115243904D01*
X172872571Y-115358190D01*
X172796380Y-115434380D01*
X172720190Y-115472476D01*
X173520190Y-115967714D02*
X173558285Y-116005809D01*
X173520190Y-116043904D01*
X173482095Y-116005809D01*
X173520190Y-115967714D01*
X173520190Y-116043904D01*
X173824952Y-115243904D02*
X174320190Y-115243904D01*
X174053523Y-115548666D01*
X174167809Y-115548666D01*
X174244000Y-115586761D01*
X174282095Y-115624857D01*
X174320190Y-115701047D01*
X174320190Y-115891523D01*
X174282095Y-115967714D01*
X174244000Y-116005809D01*
X174167809Y-116043904D01*
X173939238Y-116043904D01*
X173863047Y-116005809D01*
X173824952Y-115967714D01*
X175044000Y-115243904D02*
X174663047Y-115243904D01*
X174624952Y-115624857D01*
X174663047Y-115586761D01*
X174739238Y-115548666D01*
X174929714Y-115548666D01*
X175005904Y-115586761D01*
X175044000Y-115624857D01*
X175082095Y-115701047D01*
X175082095Y-115891523D01*
X175044000Y-115967714D01*
X175005904Y-116005809D01*
X174929714Y-116043904D01*
X174739238Y-116043904D01*
X174663047Y-116005809D01*
X174624952Y-115967714D01*
X175310666Y-115243904D02*
X175577333Y-116043904D01*
X175844000Y-115243904D01*
X171596380Y-116543904D02*
X171863047Y-117343904D01*
X172129714Y-116543904D01*
X172396380Y-117343904D02*
X172396380Y-116543904D01*
X172586857Y-116543904D01*
X172701142Y-116582000D01*
X172777333Y-116658190D01*
X172815428Y-116734380D01*
X172853523Y-116886761D01*
X172853523Y-117001047D01*
X172815428Y-117153428D01*
X172777333Y-117229619D01*
X172701142Y-117305809D01*
X172586857Y-117343904D01*
X172396380Y-117343904D01*
X173196380Y-117343904D02*
X173196380Y-116543904D01*
X173386857Y-116543904D01*
X173501142Y-116582000D01*
X173577333Y-116658190D01*
X173615428Y-116734380D01*
X173653523Y-116886761D01*
X173653523Y-117001047D01*
X173615428Y-117153428D01*
X173577333Y-117229619D01*
X173501142Y-117305809D01*
X173386857Y-117343904D01*
X173196380Y-117343904D01*
X174453523Y-117267714D02*
X174415428Y-117305809D01*
X174301142Y-117343904D01*
X174224952Y-117343904D01*
X174110666Y-117305809D01*
X174034476Y-117229619D01*
X173996380Y-117153428D01*
X173958285Y-117001047D01*
X173958285Y-116886761D01*
X173996380Y-116734380D01*
X174034476Y-116658190D01*
X174110666Y-116582000D01*
X174224952Y-116543904D01*
X174301142Y-116543904D01*
X174415428Y-116582000D01*
X174453523Y-116620095D01*
X174948761Y-116543904D02*
X175101142Y-116543904D01*
X175177333Y-116582000D01*
X175253523Y-116658190D01*
X175291619Y-116810571D01*
X175291619Y-117077238D01*
X175253523Y-117229619D01*
X175177333Y-117305809D01*
X175101142Y-117343904D01*
X174948761Y-117343904D01*
X174872571Y-117305809D01*
X174796380Y-117229619D01*
X174758285Y-117077238D01*
X174758285Y-116810571D01*
X174796380Y-116658190D01*
X174872571Y-116582000D01*
X174948761Y-116543904D01*
X176091619Y-117343904D02*
X175824952Y-116962952D01*
X175634476Y-117343904D02*
X175634476Y-116543904D01*
X175939238Y-116543904D01*
X176015428Y-116582000D01*
X176053523Y-116620095D01*
X176091619Y-116696285D01*
X176091619Y-116810571D01*
X176053523Y-116886761D01*
X176015428Y-116924857D01*
X175939238Y-116962952D01*
X175634476Y-116962952D01*
X176434476Y-116924857D02*
X176701142Y-116924857D01*
X176815428Y-117343904D02*
X176434476Y-117343904D01*
X176434476Y-116543904D01*
X176815428Y-116543904D01*
X169189523Y-135055904D02*
X169684761Y-135055904D01*
X169418095Y-135360666D01*
X169532380Y-135360666D01*
X169608571Y-135398761D01*
X169646666Y-135436857D01*
X169684761Y-135513047D01*
X169684761Y-135703523D01*
X169646666Y-135779714D01*
X169608571Y-135817809D01*
X169532380Y-135855904D01*
X169303809Y-135855904D01*
X169227619Y-135817809D01*
X169189523Y-135779714D01*
X169913333Y-135055904D02*
X170180000Y-135855904D01*
X170446666Y-135055904D01*
X170637142Y-135055904D02*
X171132380Y-135055904D01*
X170865714Y-135360666D01*
X170980000Y-135360666D01*
X171056190Y-135398761D01*
X171094285Y-135436857D01*
X171132380Y-135513047D01*
X171132380Y-135703523D01*
X171094285Y-135779714D01*
X171056190Y-135817809D01*
X170980000Y-135855904D01*
X170751428Y-135855904D01*
X170675238Y-135817809D01*
X170637142Y-135779714D01*
X169170476Y-136355904D02*
X169170476Y-137003523D01*
X169208571Y-137079714D01*
X169246666Y-137117809D01*
X169322857Y-137155904D01*
X169475238Y-137155904D01*
X169551428Y-137117809D01*
X169589523Y-137079714D01*
X169627619Y-137003523D01*
X169627619Y-136355904D01*
X169970476Y-137117809D02*
X170084761Y-137155904D01*
X170275238Y-137155904D01*
X170351428Y-137117809D01*
X170389523Y-137079714D01*
X170427619Y-137003523D01*
X170427619Y-136927333D01*
X170389523Y-136851142D01*
X170351428Y-136813047D01*
X170275238Y-136774952D01*
X170122857Y-136736857D01*
X170046666Y-136698761D01*
X170008571Y-136660666D01*
X169970476Y-136584476D01*
X169970476Y-136508285D01*
X170008571Y-136432095D01*
X170046666Y-136394000D01*
X170122857Y-136355904D01*
X170313333Y-136355904D01*
X170427619Y-136394000D01*
X171037142Y-136736857D02*
X171151428Y-136774952D01*
X171189523Y-136813047D01*
X171227619Y-136889238D01*
X171227619Y-137003523D01*
X171189523Y-137079714D01*
X171151428Y-137117809D01*
X171075238Y-137155904D01*
X170770476Y-137155904D01*
X170770476Y-136355904D01*
X171037142Y-136355904D01*
X171113333Y-136394000D01*
X171151428Y-136432095D01*
X171189523Y-136508285D01*
X171189523Y-136584476D01*
X171151428Y-136660666D01*
X171113333Y-136698761D01*
X171037142Y-136736857D01*
X170770476Y-136736857D01*
X173761523Y-143691904D02*
X174256761Y-143691904D01*
X173990095Y-143996666D01*
X174104380Y-143996666D01*
X174180571Y-144034761D01*
X174218666Y-144072857D01*
X174256761Y-144149047D01*
X174256761Y-144339523D01*
X174218666Y-144415714D01*
X174180571Y-144453809D01*
X174104380Y-144491904D01*
X173875809Y-144491904D01*
X173799619Y-144453809D01*
X173761523Y-144415714D01*
X174485333Y-143691904D02*
X174752000Y-144491904D01*
X175018666Y-143691904D01*
X175209142Y-143691904D02*
X175704380Y-143691904D01*
X175437714Y-143996666D01*
X175552000Y-143996666D01*
X175628190Y-144034761D01*
X175666285Y-144072857D01*
X175704380Y-144149047D01*
X175704380Y-144339523D01*
X175666285Y-144415714D01*
X175628190Y-144453809D01*
X175552000Y-144491904D01*
X175323428Y-144491904D01*
X175247238Y-144453809D01*
X175209142Y-144415714D01*
X173685333Y-144991904D02*
X173952000Y-145791904D01*
X174218666Y-144991904D01*
X174485333Y-145791904D02*
X174485333Y-144991904D01*
X174675809Y-144991904D01*
X174790095Y-145030000D01*
X174866285Y-145106190D01*
X174904380Y-145182380D01*
X174942476Y-145334761D01*
X174942476Y-145449047D01*
X174904380Y-145601428D01*
X174866285Y-145677619D01*
X174790095Y-145753809D01*
X174675809Y-145791904D01*
X174485333Y-145791904D01*
X175285333Y-145791904D02*
X175285333Y-144991904D01*
X175475809Y-144991904D01*
X175590095Y-145030000D01*
X175666285Y-145106190D01*
X175704380Y-145182380D01*
X175742476Y-145334761D01*
X175742476Y-145449047D01*
X175704380Y-145601428D01*
X175666285Y-145677619D01*
X175590095Y-145753809D01*
X175475809Y-145791904D01*
X175285333Y-145791904D01*
X196018095Y-85115523D02*
X196018095Y-85610761D01*
X195713333Y-85344095D01*
X195713333Y-85458380D01*
X195675238Y-85534571D01*
X195637142Y-85572666D01*
X195560952Y-85610761D01*
X195370476Y-85610761D01*
X195294285Y-85572666D01*
X195256190Y-85534571D01*
X195218095Y-85458380D01*
X195218095Y-85229809D01*
X195256190Y-85153619D01*
X195294285Y-85115523D01*
X196018095Y-85839333D02*
X195218095Y-86106000D01*
X196018095Y-86372666D01*
X196018095Y-86563142D02*
X196018095Y-87058380D01*
X195713333Y-86791714D01*
X195713333Y-86906000D01*
X195675238Y-86982190D01*
X195637142Y-87020285D01*
X195560952Y-87058380D01*
X195370476Y-87058380D01*
X195294285Y-87020285D01*
X195256190Y-86982190D01*
X195218095Y-86906000D01*
X195218095Y-86677428D01*
X195256190Y-86601238D01*
X195294285Y-86563142D01*
X193440000Y-85496476D02*
X193478095Y-85420285D01*
X193478095Y-85306000D01*
X193440000Y-85191714D01*
X193363809Y-85115523D01*
X193287619Y-85077428D01*
X193135238Y-85039333D01*
X193020952Y-85039333D01*
X192868571Y-85077428D01*
X192792380Y-85115523D01*
X192716190Y-85191714D01*
X192678095Y-85306000D01*
X192678095Y-85382190D01*
X192716190Y-85496476D01*
X192754285Y-85534571D01*
X193020952Y-85534571D01*
X193020952Y-85382190D01*
X192678095Y-85877428D02*
X193478095Y-85877428D01*
X192678095Y-86334571D01*
X193478095Y-86334571D01*
X192678095Y-86715523D02*
X193478095Y-86715523D01*
X193478095Y-86906000D01*
X193440000Y-87020285D01*
X193363809Y-87096476D01*
X193287619Y-87134571D01*
X193135238Y-87172666D01*
X193020952Y-87172666D01*
X192868571Y-87134571D01*
X192792380Y-87096476D01*
X192716190Y-87020285D01*
X192678095Y-86906000D01*
X192678095Y-86715523D01*
X187363333Y-87229904D02*
X187363333Y-86429904D01*
X187553809Y-86429904D01*
X187668095Y-86468000D01*
X187744285Y-86544190D01*
X187782380Y-86620380D01*
X187820476Y-86772761D01*
X187820476Y-86887047D01*
X187782380Y-87039428D01*
X187744285Y-87115619D01*
X187668095Y-87191809D01*
X187553809Y-87229904D01*
X187363333Y-87229904D01*
X188125238Y-87191809D02*
X188239523Y-87229904D01*
X188430000Y-87229904D01*
X188506190Y-87191809D01*
X188544285Y-87153714D01*
X188582380Y-87077523D01*
X188582380Y-87001333D01*
X188544285Y-86925142D01*
X188506190Y-86887047D01*
X188430000Y-86848952D01*
X188277619Y-86810857D01*
X188201428Y-86772761D01*
X188163333Y-86734666D01*
X188125238Y-86658476D01*
X188125238Y-86582285D01*
X188163333Y-86506095D01*
X188201428Y-86468000D01*
X188277619Y-86429904D01*
X188468095Y-86429904D01*
X188582380Y-86468000D01*
X188925238Y-87229904D02*
X188925238Y-86429904D01*
X189115714Y-87306095D02*
X189725238Y-87306095D01*
X189915714Y-87229904D02*
X189915714Y-86429904D01*
X190106190Y-86429904D01*
X190220476Y-86468000D01*
X190296666Y-86544190D01*
X190334761Y-86620380D01*
X190372857Y-86772761D01*
X190372857Y-86887047D01*
X190334761Y-87039428D01*
X190296666Y-87115619D01*
X190220476Y-87191809D01*
X190106190Y-87229904D01*
X189915714Y-87229904D01*
X191134761Y-87229904D02*
X190677619Y-87229904D01*
X190906190Y-87229904D02*
X190906190Y-86429904D01*
X190830000Y-86544190D01*
X190753809Y-86620380D01*
X190677619Y-86658476D01*
X182067476Y-87229904D02*
X182067476Y-86429904D01*
X182257952Y-86429904D01*
X182372238Y-86468000D01*
X182448428Y-86544190D01*
X182486523Y-86620380D01*
X182524619Y-86772761D01*
X182524619Y-86887047D01*
X182486523Y-87039428D01*
X182448428Y-87115619D01*
X182372238Y-87191809D01*
X182257952Y-87229904D01*
X182067476Y-87229904D01*
X182829380Y-87191809D02*
X182943666Y-87229904D01*
X183134142Y-87229904D01*
X183210333Y-87191809D01*
X183248428Y-87153714D01*
X183286523Y-87077523D01*
X183286523Y-87001333D01*
X183248428Y-86925142D01*
X183210333Y-86887047D01*
X183134142Y-86848952D01*
X182981761Y-86810857D01*
X182905571Y-86772761D01*
X182867476Y-86734666D01*
X182829380Y-86658476D01*
X182829380Y-86582285D01*
X182867476Y-86506095D01*
X182905571Y-86468000D01*
X182981761Y-86429904D01*
X183172238Y-86429904D01*
X183286523Y-86468000D01*
X183629380Y-87229904D02*
X183629380Y-86429904D01*
X183819857Y-87306095D02*
X184429380Y-87306095D01*
X185077000Y-87153714D02*
X185038904Y-87191809D01*
X184924619Y-87229904D01*
X184848428Y-87229904D01*
X184734142Y-87191809D01*
X184657952Y-87115619D01*
X184619857Y-87039428D01*
X184581761Y-86887047D01*
X184581761Y-86772761D01*
X184619857Y-86620380D01*
X184657952Y-86544190D01*
X184734142Y-86468000D01*
X184848428Y-86429904D01*
X184924619Y-86429904D01*
X185038904Y-86468000D01*
X185077000Y-86506095D01*
X185800809Y-87229904D02*
X185419857Y-87229904D01*
X185419857Y-86429904D01*
X186067476Y-87229904D02*
X186067476Y-86429904D01*
X186524619Y-87229904D02*
X186181761Y-86772761D01*
X186524619Y-86429904D02*
X186067476Y-86887047D01*
X177203333Y-87229904D02*
X177203333Y-86429904D01*
X177393809Y-86429904D01*
X177508095Y-86468000D01*
X177584285Y-86544190D01*
X177622380Y-86620380D01*
X177660476Y-86772761D01*
X177660476Y-86887047D01*
X177622380Y-87039428D01*
X177584285Y-87115619D01*
X177508095Y-87191809D01*
X177393809Y-87229904D01*
X177203333Y-87229904D01*
X177965238Y-87191809D02*
X178079523Y-87229904D01*
X178270000Y-87229904D01*
X178346190Y-87191809D01*
X178384285Y-87153714D01*
X178422380Y-87077523D01*
X178422380Y-87001333D01*
X178384285Y-86925142D01*
X178346190Y-86887047D01*
X178270000Y-86848952D01*
X178117619Y-86810857D01*
X178041428Y-86772761D01*
X178003333Y-86734666D01*
X177965238Y-86658476D01*
X177965238Y-86582285D01*
X178003333Y-86506095D01*
X178041428Y-86468000D01*
X178117619Y-86429904D01*
X178308095Y-86429904D01*
X178422380Y-86468000D01*
X178765238Y-87229904D02*
X178765238Y-86429904D01*
X178955714Y-87306095D02*
X179565238Y-87306095D01*
X179755714Y-87229904D02*
X179755714Y-86429904D01*
X179946190Y-86429904D01*
X180060476Y-86468000D01*
X180136666Y-86544190D01*
X180174761Y-86620380D01*
X180212857Y-86772761D01*
X180212857Y-86887047D01*
X180174761Y-87039428D01*
X180136666Y-87115619D01*
X180060476Y-87191809D01*
X179946190Y-87229904D01*
X179755714Y-87229904D01*
X180708095Y-86429904D02*
X180784285Y-86429904D01*
X180860476Y-86468000D01*
X180898571Y-86506095D01*
X180936666Y-86582285D01*
X180974761Y-86734666D01*
X180974761Y-86925142D01*
X180936666Y-87077523D01*
X180898571Y-87153714D01*
X180860476Y-87191809D01*
X180784285Y-87229904D01*
X180708095Y-87229904D01*
X180631904Y-87191809D01*
X180593809Y-87153714D01*
X180555714Y-87077523D01*
X180517619Y-86925142D01*
X180517619Y-86734666D01*
X180555714Y-86582285D01*
X180593809Y-86506095D01*
X180631904Y-86468000D01*
X180708095Y-86429904D01*
D11*
X155067000Y-122047000D02*
X153543000Y-122047000D01*
X153543000Y-123952000D02*
X155067000Y-123952000D01*
D10*
X154666904Y-118681333D02*
X153866904Y-118681333D01*
X154438333Y-118414666D01*
X153866904Y-118148000D01*
X154666904Y-118148000D01*
X154666904Y-117652761D02*
X154628809Y-117728952D01*
X154590714Y-117767047D01*
X154514523Y-117805142D01*
X154285952Y-117805142D01*
X154209761Y-117767047D01*
X154171666Y-117728952D01*
X154133571Y-117652761D01*
X154133571Y-117538476D01*
X154171666Y-117462285D01*
X154209761Y-117424190D01*
X154285952Y-117386095D01*
X154514523Y-117386095D01*
X154590714Y-117424190D01*
X154628809Y-117462285D01*
X154666904Y-117538476D01*
X154666904Y-117652761D01*
X154666904Y-116700380D02*
X153866904Y-116700380D01*
X154628809Y-116700380D02*
X154666904Y-116776571D01*
X154666904Y-116928952D01*
X154628809Y-117005142D01*
X154590714Y-117043238D01*
X154514523Y-117081333D01*
X154285952Y-117081333D01*
X154209761Y-117043238D01*
X154171666Y-117005142D01*
X154133571Y-116928952D01*
X154133571Y-116776571D01*
X154171666Y-116700380D01*
X154628809Y-116014666D02*
X154666904Y-116090857D01*
X154666904Y-116243238D01*
X154628809Y-116319428D01*
X154552619Y-116357523D01*
X154247857Y-116357523D01*
X154171666Y-116319428D01*
X154133571Y-116243238D01*
X154133571Y-116090857D01*
X154171666Y-116014666D01*
X154247857Y-115976571D01*
X154324047Y-115976571D01*
X154400238Y-116357523D01*
D11*
X155067000Y-120015000D02*
X155067000Y-114427000D01*
X155067000Y-125857000D02*
X155067000Y-120015000D01*
X153543000Y-120015000D02*
X158877000Y-120015000D01*
X153543000Y-114427000D02*
X153543000Y-125857000D01*
X158877000Y-114427000D02*
X153543000Y-114427000D01*
X158877000Y-125857000D02*
X158877000Y-114427000D01*
X153543000Y-125857000D02*
X158877000Y-125857000D01*
D10*
X157803904Y-118497190D02*
X158451523Y-118497190D01*
X158527714Y-118459095D01*
X158565809Y-118421000D01*
X158603904Y-118344809D01*
X158603904Y-118192428D01*
X158565809Y-118116238D01*
X158527714Y-118078142D01*
X158451523Y-118040047D01*
X157803904Y-118040047D01*
X158375333Y-117697190D02*
X158375333Y-117316238D01*
X158603904Y-117773380D02*
X157803904Y-117506714D01*
X158603904Y-117240047D01*
X158603904Y-116516238D02*
X158222952Y-116782904D01*
X158603904Y-116973380D02*
X157803904Y-116973380D01*
X157803904Y-116668619D01*
X157842000Y-116592428D01*
X157880095Y-116554333D01*
X157956285Y-116516238D01*
X158070571Y-116516238D01*
X158146761Y-116554333D01*
X158184857Y-116592428D01*
X158222952Y-116668619D01*
X158222952Y-116973380D01*
X157803904Y-116287666D02*
X157803904Y-115830523D01*
X158603904Y-116059095D02*
X157803904Y-116059095D01*
D12*
X158356300Y-123063000D02*
G75*
G03*
X158356300Y-123063000I-114300J0D01*
G01*
X158356300Y-124841000D02*
G75*
G03*
X158356300Y-124841000I-114300J0D01*
G01*
D10*
X157460904Y-119411476D02*
X156660904Y-119411476D01*
X157460904Y-118954333D01*
X156660904Y-118954333D01*
X157460904Y-118459095D02*
X157422809Y-118535285D01*
X157384714Y-118573380D01*
X157308523Y-118611476D01*
X157079952Y-118611476D01*
X157003761Y-118573380D01*
X156965666Y-118535285D01*
X156927571Y-118459095D01*
X156927571Y-118344809D01*
X156965666Y-118268619D01*
X157003761Y-118230523D01*
X157079952Y-118192428D01*
X157308523Y-118192428D01*
X157384714Y-118230523D01*
X157422809Y-118268619D01*
X157460904Y-118344809D01*
X157460904Y-118459095D01*
X157041857Y-117582904D02*
X157041857Y-117849571D01*
X157460904Y-117849571D02*
X156660904Y-117849571D01*
X156660904Y-117468619D01*
X157460904Y-117049571D02*
X157422809Y-117125761D01*
X157346619Y-117163857D01*
X156660904Y-117163857D01*
X157460904Y-116401952D02*
X157041857Y-116401952D01*
X156965666Y-116440047D01*
X156927571Y-116516238D01*
X156927571Y-116668619D01*
X156965666Y-116744809D01*
X157422809Y-116401952D02*
X157460904Y-116478142D01*
X157460904Y-116668619D01*
X157422809Y-116744809D01*
X157346619Y-116782904D01*
X157270428Y-116782904D01*
X157194238Y-116744809D01*
X157156142Y-116668619D01*
X157156142Y-116478142D01*
X157118047Y-116401952D01*
X157422809Y-116059095D02*
X157460904Y-115982904D01*
X157460904Y-115830523D01*
X157422809Y-115754333D01*
X157346619Y-115716238D01*
X157308523Y-115716238D01*
X157232333Y-115754333D01*
X157194238Y-115830523D01*
X157194238Y-115944809D01*
X157156142Y-116021000D01*
X157079952Y-116059095D01*
X157041857Y-116059095D01*
X156965666Y-116021000D01*
X156927571Y-115944809D01*
X156927571Y-115830523D01*
X156965666Y-115754333D01*
X157460904Y-115373380D02*
X156660904Y-115373380D01*
X157460904Y-115030523D02*
X157041857Y-115030523D01*
X156965666Y-115068619D01*
X156927571Y-115144809D01*
X156927571Y-115259095D01*
X156965666Y-115335285D01*
X157003761Y-115373380D01*
D12*
X157086300Y-124841000D02*
G75*
G03*
X157086300Y-124841000I-114300J0D01*
G01*
X155816300Y-121031000D02*
G75*
G03*
X155816300Y-121031000I-114300J0D01*
G01*
X155816300Y-124841000D02*
G75*
G03*
X155816300Y-124841000I-114300J0D01*
G01*
D10*
X156152809Y-118230523D02*
X156190904Y-118116238D01*
X156190904Y-117925761D01*
X156152809Y-117849571D01*
X156114714Y-117811476D01*
X156038523Y-117773380D01*
X155962333Y-117773380D01*
X155886142Y-117811476D01*
X155848047Y-117849571D01*
X155809952Y-117925761D01*
X155771857Y-118078142D01*
X155733761Y-118154333D01*
X155695666Y-118192428D01*
X155619476Y-118230523D01*
X155543285Y-118230523D01*
X155467095Y-118192428D01*
X155429000Y-118154333D01*
X155390904Y-118078142D01*
X155390904Y-117887666D01*
X155429000Y-117773380D01*
X156190904Y-117430523D02*
X155390904Y-117430523D01*
X155390904Y-117240047D01*
X155429000Y-117125761D01*
X155505190Y-117049571D01*
X155581380Y-117011476D01*
X155733761Y-116973380D01*
X155848047Y-116973380D01*
X156000428Y-117011476D01*
X156076619Y-117049571D01*
X156152809Y-117125761D01*
X156190904Y-117240047D01*
X156190904Y-117430523D01*
X156190904Y-116211476D02*
X156190904Y-116668619D01*
X156190904Y-116440047D02*
X155390904Y-116440047D01*
X155505190Y-116516238D01*
X155581380Y-116592428D01*
X155619476Y-116668619D01*
X154247857Y-121354809D02*
X154285952Y-121240523D01*
X154324047Y-121202428D01*
X154400238Y-121164333D01*
X154514523Y-121164333D01*
X154590714Y-121202428D01*
X154628809Y-121240523D01*
X154666904Y-121316714D01*
X154666904Y-121621476D01*
X153866904Y-121621476D01*
X153866904Y-121354809D01*
X153905000Y-121278619D01*
X153943095Y-121240523D01*
X154019285Y-121202428D01*
X154095476Y-121202428D01*
X154171666Y-121240523D01*
X154209761Y-121278619D01*
X154247857Y-121354809D01*
X154247857Y-121621476D01*
X153866904Y-120669095D02*
X153866904Y-120592904D01*
X153905000Y-120516714D01*
X153943095Y-120478619D01*
X154019285Y-120440523D01*
X154171666Y-120402428D01*
X154362142Y-120402428D01*
X154514523Y-120440523D01*
X154590714Y-120478619D01*
X154628809Y-120516714D01*
X154666904Y-120592904D01*
X154666904Y-120669095D01*
X154628809Y-120745285D01*
X154590714Y-120783380D01*
X154514523Y-120821476D01*
X154362142Y-120859571D01*
X154171666Y-120859571D01*
X154019285Y-120821476D01*
X153943095Y-120783380D01*
X153905000Y-120745285D01*
X153866904Y-120669095D01*
X154247857Y-123386809D02*
X154285952Y-123272523D01*
X154324047Y-123234428D01*
X154400238Y-123196333D01*
X154514523Y-123196333D01*
X154590714Y-123234428D01*
X154628809Y-123272523D01*
X154666904Y-123348714D01*
X154666904Y-123653476D01*
X153866904Y-123653476D01*
X153866904Y-123386809D01*
X153905000Y-123310619D01*
X153943095Y-123272523D01*
X154019285Y-123234428D01*
X154095476Y-123234428D01*
X154171666Y-123272523D01*
X154209761Y-123310619D01*
X154247857Y-123386809D01*
X154247857Y-123653476D01*
X154666904Y-122434428D02*
X154666904Y-122891571D01*
X154666904Y-122663000D02*
X153866904Y-122663000D01*
X153981190Y-122739190D01*
X154057380Y-122815380D01*
X154095476Y-122891571D01*
X154247857Y-125291809D02*
X154285952Y-125177523D01*
X154324047Y-125139428D01*
X154400238Y-125101333D01*
X154514523Y-125101333D01*
X154590714Y-125139428D01*
X154628809Y-125177523D01*
X154666904Y-125253714D01*
X154666904Y-125558476D01*
X153866904Y-125558476D01*
X153866904Y-125291809D01*
X153905000Y-125215619D01*
X153943095Y-125177523D01*
X154019285Y-125139428D01*
X154095476Y-125139428D01*
X154171666Y-125177523D01*
X154209761Y-125215619D01*
X154247857Y-125291809D01*
X154247857Y-125558476D01*
X153943095Y-124796571D02*
X153905000Y-124758476D01*
X153866904Y-124682285D01*
X153866904Y-124491809D01*
X153905000Y-124415619D01*
X153943095Y-124377523D01*
X154019285Y-124339428D01*
X154095476Y-124339428D01*
X154209761Y-124377523D01*
X154666904Y-124834666D01*
X154666904Y-124339428D01*
X145294523Y-147516904D02*
X145294523Y-148164523D01*
X145332619Y-148240714D01*
X145370714Y-148278809D01*
X145446904Y-148316904D01*
X145599285Y-148316904D01*
X145675476Y-148278809D01*
X145713571Y-148240714D01*
X145751666Y-148164523D01*
X145751666Y-147516904D01*
X146094523Y-148278809D02*
X146208809Y-148316904D01*
X146399285Y-148316904D01*
X146475476Y-148278809D01*
X146513571Y-148240714D01*
X146551666Y-148164523D01*
X146551666Y-148088333D01*
X146513571Y-148012142D01*
X146475476Y-147974047D01*
X146399285Y-147935952D01*
X146246904Y-147897857D01*
X146170714Y-147859761D01*
X146132619Y-147821666D01*
X146094523Y-147745476D01*
X146094523Y-147669285D01*
X146132619Y-147593095D01*
X146170714Y-147555000D01*
X146246904Y-147516904D01*
X146437380Y-147516904D01*
X146551666Y-147555000D01*
X147161190Y-147897857D02*
X147275476Y-147935952D01*
X147313571Y-147974047D01*
X147351666Y-148050238D01*
X147351666Y-148164523D01*
X147313571Y-148240714D01*
X147275476Y-148278809D01*
X147199285Y-148316904D01*
X146894523Y-148316904D01*
X146894523Y-147516904D01*
X147161190Y-147516904D01*
X147237380Y-147555000D01*
X147275476Y-147593095D01*
X147313571Y-147669285D01*
X147313571Y-147745476D01*
X147275476Y-147821666D01*
X147237380Y-147859761D01*
X147161190Y-147897857D01*
X146894523Y-147897857D01*
X147656428Y-147593095D02*
X147694523Y-147555000D01*
X147770714Y-147516904D01*
X147961190Y-147516904D01*
X148037380Y-147555000D01*
X148075476Y-147593095D01*
X148113571Y-147669285D01*
X148113571Y-147745476D01*
X148075476Y-147859761D01*
X147618333Y-148316904D01*
X148113571Y-148316904D01*
X170694523Y-147516904D02*
X170694523Y-148164523D01*
X170732619Y-148240714D01*
X170770714Y-148278809D01*
X170846904Y-148316904D01*
X170999285Y-148316904D01*
X171075476Y-148278809D01*
X171113571Y-148240714D01*
X171151666Y-148164523D01*
X171151666Y-147516904D01*
X171494523Y-148278809D02*
X171608809Y-148316904D01*
X171799285Y-148316904D01*
X171875476Y-148278809D01*
X171913571Y-148240714D01*
X171951666Y-148164523D01*
X171951666Y-148088333D01*
X171913571Y-148012142D01*
X171875476Y-147974047D01*
X171799285Y-147935952D01*
X171646904Y-147897857D01*
X171570714Y-147859761D01*
X171532619Y-147821666D01*
X171494523Y-147745476D01*
X171494523Y-147669285D01*
X171532619Y-147593095D01*
X171570714Y-147555000D01*
X171646904Y-147516904D01*
X171837380Y-147516904D01*
X171951666Y-147555000D01*
X172561190Y-147897857D02*
X172675476Y-147935952D01*
X172713571Y-147974047D01*
X172751666Y-148050238D01*
X172751666Y-148164523D01*
X172713571Y-148240714D01*
X172675476Y-148278809D01*
X172599285Y-148316904D01*
X172294523Y-148316904D01*
X172294523Y-147516904D01*
X172561190Y-147516904D01*
X172637380Y-147555000D01*
X172675476Y-147593095D01*
X172713571Y-147669285D01*
X172713571Y-147745476D01*
X172675476Y-147821666D01*
X172637380Y-147859761D01*
X172561190Y-147897857D01*
X172294523Y-147897857D01*
X173513571Y-148316904D02*
X173056428Y-148316904D01*
X173285000Y-148316904D02*
X173285000Y-147516904D01*
X173208809Y-147631190D01*
X173132619Y-147707380D01*
X173056428Y-147745476D01*
X139725476Y-75800000D02*
X139649285Y-75761904D01*
X139535000Y-75761904D01*
X139420714Y-75800000D01*
X139344523Y-75876190D01*
X139306428Y-75952380D01*
X139268333Y-76104761D01*
X139268333Y-76219047D01*
X139306428Y-76371428D01*
X139344523Y-76447619D01*
X139420714Y-76523809D01*
X139535000Y-76561904D01*
X139611190Y-76561904D01*
X139725476Y-76523809D01*
X139763571Y-76485714D01*
X139763571Y-76219047D01*
X139611190Y-76219047D01*
X140106428Y-76561904D02*
X140106428Y-75761904D01*
X140563571Y-76561904D01*
X140563571Y-75761904D01*
X140944523Y-76561904D02*
X140944523Y-75761904D01*
X141135000Y-75761904D01*
X141249285Y-75800000D01*
X141325476Y-75876190D01*
X141363571Y-75952380D01*
X141401666Y-76104761D01*
X141401666Y-76219047D01*
X141363571Y-76371428D01*
X141325476Y-76447619D01*
X141249285Y-76523809D01*
X141135000Y-76561904D01*
X140944523Y-76561904D01*
X139344523Y-78301904D02*
X139839761Y-78301904D01*
X139573095Y-78606666D01*
X139687380Y-78606666D01*
X139763571Y-78644761D01*
X139801666Y-78682857D01*
X139839761Y-78759047D01*
X139839761Y-78949523D01*
X139801666Y-79025714D01*
X139763571Y-79063809D01*
X139687380Y-79101904D01*
X139458809Y-79101904D01*
X139382619Y-79063809D01*
X139344523Y-79025714D01*
X140068333Y-78301904D02*
X140335000Y-79101904D01*
X140601666Y-78301904D01*
X140792142Y-78301904D02*
X141287380Y-78301904D01*
X141020714Y-78606666D01*
X141135000Y-78606666D01*
X141211190Y-78644761D01*
X141249285Y-78682857D01*
X141287380Y-78759047D01*
X141287380Y-78949523D01*
X141249285Y-79025714D01*
X141211190Y-79063809D01*
X141135000Y-79101904D01*
X140906428Y-79101904D01*
X140830238Y-79063809D01*
X140792142Y-79025714D01*
X177044476Y-83254809D02*
X177158761Y-83292904D01*
X177349238Y-83292904D01*
X177425428Y-83254809D01*
X177463523Y-83216714D01*
X177501619Y-83140523D01*
X177501619Y-83064333D01*
X177463523Y-82988142D01*
X177425428Y-82950047D01*
X177349238Y-82911952D01*
X177196857Y-82873857D01*
X177120666Y-82835761D01*
X177082571Y-82797666D01*
X177044476Y-82721476D01*
X177044476Y-82645285D01*
X177082571Y-82569095D01*
X177120666Y-82531000D01*
X177196857Y-82492904D01*
X177387333Y-82492904D01*
X177501619Y-82531000D01*
X177844476Y-83292904D02*
X177844476Y-82492904D01*
X178034952Y-82492904D01*
X178149238Y-82531000D01*
X178225428Y-82607190D01*
X178263523Y-82683380D01*
X178301619Y-82835761D01*
X178301619Y-82950047D01*
X178263523Y-83102428D01*
X178225428Y-83178619D01*
X178149238Y-83254809D01*
X178034952Y-83292904D01*
X177844476Y-83292904D01*
X179063523Y-83292904D02*
X178606380Y-83292904D01*
X178834952Y-83292904D02*
X178834952Y-82492904D01*
X178758761Y-82607190D01*
X178682571Y-82683380D01*
X178606380Y-82721476D01*
X156597476Y-83381809D02*
X156711761Y-83419904D01*
X156902238Y-83419904D01*
X156978428Y-83381809D01*
X157016523Y-83343714D01*
X157054619Y-83267523D01*
X157054619Y-83191333D01*
X157016523Y-83115142D01*
X156978428Y-83077047D01*
X156902238Y-83038952D01*
X156749857Y-83000857D01*
X156673666Y-82962761D01*
X156635571Y-82924666D01*
X156597476Y-82848476D01*
X156597476Y-82772285D01*
X156635571Y-82696095D01*
X156673666Y-82658000D01*
X156749857Y-82619904D01*
X156940333Y-82619904D01*
X157054619Y-82658000D01*
X157397476Y-83419904D02*
X157397476Y-82619904D01*
X157587952Y-82619904D01*
X157702238Y-82658000D01*
X157778428Y-82734190D01*
X157816523Y-82810380D01*
X157854619Y-82962761D01*
X157854619Y-83077047D01*
X157816523Y-83229428D01*
X157778428Y-83305619D01*
X157702238Y-83381809D01*
X157587952Y-83419904D01*
X157397476Y-83419904D01*
X158159380Y-82696095D02*
X158197476Y-82658000D01*
X158273666Y-82619904D01*
X158464142Y-82619904D01*
X158540333Y-82658000D01*
X158578428Y-82696095D01*
X158616523Y-82772285D01*
X158616523Y-82848476D01*
X158578428Y-82962761D01*
X158121285Y-83419904D01*
X158616523Y-83419904D01*
X193065523Y-80841904D02*
X193560761Y-80841904D01*
X193294095Y-81146666D01*
X193408380Y-81146666D01*
X193484571Y-81184761D01*
X193522666Y-81222857D01*
X193560761Y-81299047D01*
X193560761Y-81489523D01*
X193522666Y-81565714D01*
X193484571Y-81603809D01*
X193408380Y-81641904D01*
X193179809Y-81641904D01*
X193103619Y-81603809D01*
X193065523Y-81565714D01*
X193789333Y-80841904D02*
X194056000Y-81641904D01*
X194322666Y-80841904D01*
X194513142Y-80841904D02*
X195008380Y-80841904D01*
X194741714Y-81146666D01*
X194856000Y-81146666D01*
X194932190Y-81184761D01*
X194970285Y-81222857D01*
X195008380Y-81299047D01*
X195008380Y-81489523D01*
X194970285Y-81565714D01*
X194932190Y-81603809D01*
X194856000Y-81641904D01*
X194627428Y-81641904D01*
X194551238Y-81603809D01*
X194513142Y-81565714D01*
X181565714Y-76561904D02*
X181565714Y-75761904D01*
X182022857Y-76561904D01*
X182022857Y-75761904D01*
X182860952Y-76561904D02*
X182594285Y-76180952D01*
X182403809Y-76561904D02*
X182403809Y-75761904D01*
X182708571Y-75761904D01*
X182784761Y-75800000D01*
X182822857Y-75838095D01*
X182860952Y-75914285D01*
X182860952Y-76028571D01*
X182822857Y-76104761D01*
X182784761Y-76142857D01*
X182708571Y-76180952D01*
X182403809Y-76180952D01*
X183165714Y-76523809D02*
X183280000Y-76561904D01*
X183470476Y-76561904D01*
X183546666Y-76523809D01*
X183584761Y-76485714D01*
X183622857Y-76409523D01*
X183622857Y-76333333D01*
X183584761Y-76257142D01*
X183546666Y-76219047D01*
X183470476Y-76180952D01*
X183318095Y-76142857D01*
X183241904Y-76104761D01*
X183203809Y-76066666D01*
X183165714Y-75990476D01*
X183165714Y-75914285D01*
X183203809Y-75838095D01*
X183241904Y-75800000D01*
X183318095Y-75761904D01*
X183508571Y-75761904D01*
X183622857Y-75800000D01*
X183851428Y-75761904D02*
X184308571Y-75761904D01*
X184080000Y-76561904D02*
X184080000Y-75761904D01*
X182822952Y-81641904D02*
X182822952Y-80841904D01*
X183013428Y-80841904D01*
X183127714Y-80880000D01*
X183203904Y-80956190D01*
X183242000Y-81032380D01*
X183280095Y-81184761D01*
X183280095Y-81299047D01*
X183242000Y-81451428D01*
X183203904Y-81527619D01*
X183127714Y-81603809D01*
X183013428Y-81641904D01*
X182822952Y-81641904D01*
X183622952Y-81641904D02*
X183622952Y-80841904D01*
X184156285Y-80841904D02*
X184308666Y-80841904D01*
X184384857Y-80880000D01*
X184461047Y-80956190D01*
X184499142Y-81108571D01*
X184499142Y-81375238D01*
X184461047Y-81527619D01*
X184384857Y-81603809D01*
X184308666Y-81641904D01*
X184156285Y-81641904D01*
X184080095Y-81603809D01*
X184003904Y-81527619D01*
X183965809Y-81375238D01*
X183965809Y-81108571D01*
X184003904Y-80956190D01*
X184080095Y-80880000D01*
X184156285Y-80841904D01*
X183165809Y-80295714D02*
X183127714Y-80333809D01*
X183013428Y-80371904D01*
X182937238Y-80371904D01*
X182822952Y-80333809D01*
X182746761Y-80257619D01*
X182708666Y-80181428D01*
X182670571Y-80029047D01*
X182670571Y-79914761D01*
X182708666Y-79762380D01*
X182746761Y-79686190D01*
X182822952Y-79610000D01*
X182937238Y-79571904D01*
X183013428Y-79571904D01*
X183127714Y-79610000D01*
X183165809Y-79648095D01*
X183889619Y-80371904D02*
X183508666Y-80371904D01*
X183508666Y-79571904D01*
X184156285Y-80371904D02*
X184156285Y-79571904D01*
X184613428Y-80371904D02*
X184270571Y-79914761D01*
X184613428Y-79571904D02*
X184156285Y-80029047D01*
X182537238Y-79063809D02*
X182651523Y-79101904D01*
X182842000Y-79101904D01*
X182918190Y-79063809D01*
X182956285Y-79025714D01*
X182994380Y-78949523D01*
X182994380Y-78873333D01*
X182956285Y-78797142D01*
X182918190Y-78759047D01*
X182842000Y-78720952D01*
X182689619Y-78682857D01*
X182613428Y-78644761D01*
X182575333Y-78606666D01*
X182537238Y-78530476D01*
X182537238Y-78454285D01*
X182575333Y-78378095D01*
X182613428Y-78340000D01*
X182689619Y-78301904D01*
X182880095Y-78301904D01*
X182994380Y-78340000D01*
X183261047Y-78301904D02*
X183451523Y-79101904D01*
X183603904Y-78530476D01*
X183756285Y-79101904D01*
X183946761Y-78301904D01*
X184403904Y-78301904D02*
X184556285Y-78301904D01*
X184632476Y-78340000D01*
X184708666Y-78416190D01*
X184746761Y-78568571D01*
X184746761Y-78835238D01*
X184708666Y-78987619D01*
X184632476Y-79063809D01*
X184556285Y-79101904D01*
X184403904Y-79101904D01*
X184327714Y-79063809D01*
X184251523Y-78987619D01*
X184213428Y-78835238D01*
X184213428Y-78568571D01*
X184251523Y-78416190D01*
X184327714Y-78340000D01*
X184403904Y-78301904D01*
D13*
X196008857Y-145019571D02*
X196937428Y-145019571D01*
X196437428Y-145591000D01*
X196651714Y-145591000D01*
X196794571Y-145662428D01*
X196866000Y-145733857D01*
X196937428Y-145876714D01*
X196937428Y-146233857D01*
X196866000Y-146376714D01*
X196794571Y-146448142D01*
X196651714Y-146519571D01*
X196223142Y-146519571D01*
X196080285Y-146448142D01*
X196008857Y-146376714D01*
X197866000Y-145019571D02*
X198008857Y-145019571D01*
X198151714Y-145091000D01*
X198223142Y-145162428D01*
X198294571Y-145305285D01*
X198366000Y-145591000D01*
X198366000Y-145948142D01*
X198294571Y-146233857D01*
X198223142Y-146376714D01*
X198151714Y-146448142D01*
X198008857Y-146519571D01*
X197866000Y-146519571D01*
X197723142Y-146448142D01*
X197651714Y-146376714D01*
X197580285Y-146233857D01*
X197508857Y-145948142D01*
X197508857Y-145591000D01*
X197580285Y-145305285D01*
X197651714Y-145162428D01*
X197723142Y-145091000D01*
X197866000Y-145019571D01*
X198794571Y-145019571D02*
X199294571Y-146519571D01*
X199794571Y-145019571D01*
X196008857Y-148969571D02*
X196008857Y-147469571D01*
X196508857Y-148541000D01*
X197008857Y-147469571D01*
X197008857Y-148969571D01*
X197651714Y-148541000D02*
X198366000Y-148541000D01*
X197508857Y-148969571D02*
X198008857Y-147469571D01*
X198508857Y-148969571D01*
X198866000Y-147469571D02*
X199866000Y-148969571D01*
X199866000Y-147469571D02*
X198866000Y-148969571D01*
D10*
X184257904Y-73043904D02*
X183876952Y-73310571D01*
X184257904Y-73501047D02*
X183457904Y-73501047D01*
X183457904Y-73196285D01*
X183496000Y-73120095D01*
X183534095Y-73082000D01*
X183610285Y-73043904D01*
X183724571Y-73043904D01*
X183800761Y-73082000D01*
X183838857Y-73120095D01*
X183876952Y-73196285D01*
X183876952Y-73501047D01*
X183838857Y-72701047D02*
X183838857Y-72434380D01*
X184257904Y-72320095D02*
X184257904Y-72701047D01*
X183457904Y-72701047D01*
X183457904Y-72320095D01*
X184219809Y-72015333D02*
X184257904Y-71901047D01*
X184257904Y-71710571D01*
X184219809Y-71634380D01*
X184181714Y-71596285D01*
X184105523Y-71558190D01*
X184029333Y-71558190D01*
X183953142Y-71596285D01*
X183915047Y-71634380D01*
X183876952Y-71710571D01*
X183838857Y-71862952D01*
X183800761Y-71939142D01*
X183762666Y-71977238D01*
X183686476Y-72015333D01*
X183610285Y-72015333D01*
X183534095Y-71977238D01*
X183496000Y-71939142D01*
X183457904Y-71862952D01*
X183457904Y-71672476D01*
X183496000Y-71558190D01*
X183838857Y-71215333D02*
X183838857Y-70948666D01*
X184257904Y-70834380D02*
X184257904Y-71215333D01*
X183457904Y-71215333D01*
X183457904Y-70834380D01*
X183457904Y-70605809D02*
X183457904Y-70148666D01*
X184257904Y-70377238D02*
X183457904Y-70377238D01*
D12*
X198072476Y-74696095D02*
X197977238Y-74981809D01*
X197977238Y-75457999D01*
X198072476Y-75648476D01*
X198167714Y-75743714D01*
X198358190Y-75838952D01*
X198548666Y-75838952D01*
X198739142Y-75743714D01*
X198834380Y-75648476D01*
X198929619Y-75457999D01*
X199024857Y-75077047D01*
X199120095Y-74886571D01*
X199215333Y-74791333D01*
X199405809Y-74696095D01*
X199596285Y-74696095D01*
X199786761Y-74791333D01*
X199882000Y-74886571D01*
X199977238Y-75077047D01*
X199977238Y-75553238D01*
X199882000Y-75838952D01*
X199977238Y-76410380D02*
X199977238Y-77553238D01*
X197977238Y-76981809D02*
X199977238Y-76981809D01*
X197977238Y-78219904D02*
X199977238Y-78219904D01*
X198548666Y-78886571D01*
X199977238Y-79553238D01*
X197977238Y-79553238D01*
X199977238Y-80315142D02*
X199977238Y-81553238D01*
X199215333Y-80886571D01*
X199215333Y-81172285D01*
X199120095Y-81362761D01*
X199024857Y-81457999D01*
X198834380Y-81553238D01*
X198358190Y-81553238D01*
X198167714Y-81457999D01*
X198072476Y-81362761D01*
X197977238Y-81172285D01*
X197977238Y-80600857D01*
X198072476Y-80410380D01*
X198167714Y-80315142D01*
X199786761Y-82315142D02*
X199882000Y-82410380D01*
X199977238Y-82600857D01*
X199977238Y-83077047D01*
X199882000Y-83267523D01*
X199786761Y-83362761D01*
X199596285Y-83457999D01*
X199405809Y-83457999D01*
X199120095Y-83362761D01*
X197977238Y-82219904D01*
X197977238Y-83457999D01*
X197977238Y-84315142D02*
X199977238Y-84315142D01*
X198548666Y-84981809D01*
X199977238Y-85648476D01*
X197977238Y-85648476D01*
X197977238Y-86600857D02*
X199977238Y-86600857D01*
X199977238Y-87362761D01*
X199882000Y-87553238D01*
X199786761Y-87648476D01*
X199596285Y-87743714D01*
X199310571Y-87743714D01*
X199120095Y-87648476D01*
X199024857Y-87553238D01*
X198929619Y-87362761D01*
X198929619Y-86600857D01*
X197977238Y-89648476D02*
X197977238Y-88505619D01*
X197977238Y-89077047D02*
X199977238Y-89077047D01*
X199691523Y-88886571D01*
X199501047Y-88696095D01*
X199405809Y-88505619D01*
X199977238Y-91457999D02*
X199977238Y-90505619D01*
X199024857Y-90410380D01*
X199120095Y-90505619D01*
X199215333Y-90696095D01*
X199215333Y-91172285D01*
X199120095Y-91362761D01*
X199024857Y-91457999D01*
X198834380Y-91553238D01*
X198358190Y-91553238D01*
X198167714Y-91457999D01*
X198072476Y-91362761D01*
X197977238Y-91172285D01*
X197977238Y-90696095D01*
X198072476Y-90505619D01*
X198167714Y-90410380D01*
X199977238Y-92219904D02*
X199977238Y-93553238D01*
X197977238Y-92696095D01*
X197977238Y-94124666D02*
X199310571Y-95172285D01*
X199310571Y-94124666D02*
X197977238Y-95172285D01*
X198548666Y-95838952D02*
X198548666Y-96791333D01*
X197977238Y-95648476D02*
X199977238Y-96315142D01*
X197977238Y-96981809D01*
X198167714Y-98791333D02*
X198072476Y-98696095D01*
X197977238Y-98410380D01*
X197977238Y-98219904D01*
X198072476Y-97934190D01*
X198262952Y-97743714D01*
X198453428Y-97648476D01*
X198834380Y-97553238D01*
X199120095Y-97553238D01*
X199501047Y-97648476D01*
X199691523Y-97743714D01*
X199882000Y-97934190D01*
X199977238Y-98219904D01*
X199977238Y-98410380D01*
X199882000Y-98696095D01*
X199786761Y-98791333D01*
X199024857Y-101838952D02*
X198929619Y-102124666D01*
X198834380Y-102219904D01*
X198643904Y-102315142D01*
X198358190Y-102315142D01*
X198167714Y-102219904D01*
X198072476Y-102124666D01*
X197977238Y-101934190D01*
X197977238Y-101172285D01*
X199977238Y-101172285D01*
X199977238Y-101838952D01*
X199882000Y-102029428D01*
X199786761Y-102124666D01*
X199596285Y-102219904D01*
X199405809Y-102219904D01*
X199215333Y-102124666D01*
X199120095Y-102029428D01*
X199024857Y-101838952D01*
X199024857Y-101172285D01*
X197977238Y-103172285D02*
X199310571Y-103172285D01*
X198929619Y-103172285D02*
X199120095Y-103267523D01*
X199215333Y-103362761D01*
X199310571Y-103553238D01*
X199310571Y-103743714D01*
X198072476Y-105172285D02*
X197977238Y-104981809D01*
X197977238Y-104600857D01*
X198072476Y-104410380D01*
X198262952Y-104315142D01*
X199024857Y-104315142D01*
X199215333Y-104410380D01*
X199310571Y-104600857D01*
X199310571Y-104981809D01*
X199215333Y-105172285D01*
X199024857Y-105267523D01*
X198834380Y-105267523D01*
X198643904Y-104315142D01*
X197977238Y-106981809D02*
X199024857Y-106981809D01*
X199215333Y-106886571D01*
X199310571Y-106696095D01*
X199310571Y-106315142D01*
X199215333Y-106124666D01*
X198072476Y-106981809D02*
X197977238Y-106791333D01*
X197977238Y-106315142D01*
X198072476Y-106124666D01*
X198262952Y-106029428D01*
X198453428Y-106029428D01*
X198643904Y-106124666D01*
X198739142Y-106315142D01*
X198739142Y-106791333D01*
X198834380Y-106981809D01*
X197977238Y-107934190D02*
X199977238Y-107934190D01*
X198739142Y-108124666D02*
X197977238Y-108696095D01*
X199310571Y-108696095D02*
X198548666Y-107934190D01*
X197977238Y-109838952D02*
X198072476Y-109648476D01*
X198167714Y-109553238D01*
X198358190Y-109457999D01*
X198929619Y-109457999D01*
X199120095Y-109553238D01*
X199215333Y-109648476D01*
X199310571Y-109838952D01*
X199310571Y-110124666D01*
X199215333Y-110315142D01*
X199120095Y-110410380D01*
X198929619Y-110505619D01*
X198358190Y-110505619D01*
X198167714Y-110410380D01*
X198072476Y-110315142D01*
X197977238Y-110124666D01*
X197977238Y-109838952D01*
X199310571Y-112219904D02*
X197977238Y-112219904D01*
X199310571Y-111362761D02*
X198262952Y-111362761D01*
X198072476Y-111457999D01*
X197977238Y-111648476D01*
X197977238Y-111934190D01*
X198072476Y-112124666D01*
X198167714Y-112219904D01*
X199310571Y-112886571D02*
X199310571Y-113648476D01*
X199977238Y-113172285D02*
X198262952Y-113172285D01*
X198072476Y-113267523D01*
X197977238Y-113457999D01*
X197977238Y-113648476D01*
X197977238Y-116981809D02*
X198929619Y-116315142D01*
X197977238Y-115838952D02*
X199977238Y-115838952D01*
X199977238Y-116600857D01*
X199882000Y-116791333D01*
X199786761Y-116886571D01*
X199596285Y-116981809D01*
X199310571Y-116981809D01*
X199120095Y-116886571D01*
X199024857Y-116791333D01*
X198929619Y-116600857D01*
X198929619Y-115838952D01*
X198072476Y-118600857D02*
X197977238Y-118410380D01*
X197977238Y-118029428D01*
X198072476Y-117838952D01*
X198262952Y-117743714D01*
X199024857Y-117743714D01*
X199215333Y-117838952D01*
X199310571Y-118029428D01*
X199310571Y-118410380D01*
X199215333Y-118600857D01*
X199024857Y-118696095D01*
X198834380Y-118696095D01*
X198643904Y-117743714D01*
X199310571Y-119362761D02*
X197977238Y-119838952D01*
X199310571Y-120315142D01*
X198548666Y-120981809D02*
X198548666Y-121934190D01*
X197977238Y-120791333D02*
X199977238Y-121457999D01*
X197977238Y-122124666D01*
X198167714Y-125457999D02*
X198072476Y-125362761D01*
X197977238Y-125077047D01*
X197977238Y-124886571D01*
X198072476Y-124600857D01*
X198262952Y-124410380D01*
X198453428Y-124315142D01*
X198834380Y-124219904D01*
X199120095Y-124219904D01*
X199501047Y-124315142D01*
X199691523Y-124410380D01*
X199882000Y-124600857D01*
X199977238Y-124886571D01*
X199977238Y-125077047D01*
X199882000Y-125362761D01*
X199786761Y-125457999D01*
X197977238Y-126315142D02*
X199977238Y-126315142D01*
X197977238Y-127172285D02*
X199024857Y-127172285D01*
X199215333Y-127077047D01*
X199310571Y-126886571D01*
X199310571Y-126600857D01*
X199215333Y-126410380D01*
X199120095Y-126315142D01*
X197977238Y-128124666D02*
X199310571Y-128124666D01*
X198929619Y-128124666D02*
X199120095Y-128219904D01*
X199215333Y-128315142D01*
X199310571Y-128505619D01*
X199310571Y-128696095D01*
X197977238Y-129362761D02*
X199310571Y-129362761D01*
X199977238Y-129362761D02*
X199882000Y-129267523D01*
X199786761Y-129362761D01*
X199882000Y-129457999D01*
X199977238Y-129362761D01*
X199786761Y-129362761D01*
X198072476Y-130219904D02*
X197977238Y-130410380D01*
X197977238Y-130791333D01*
X198072476Y-130981809D01*
X198262952Y-131077047D01*
X198358190Y-131077047D01*
X198548666Y-130981809D01*
X198643904Y-130791333D01*
X198643904Y-130505619D01*
X198739142Y-130315142D01*
X198929619Y-130219904D01*
X199024857Y-130219904D01*
X199215333Y-130315142D01*
X199310571Y-130505619D01*
X199310571Y-130791333D01*
X199215333Y-130981809D01*
X198072476Y-133362761D02*
X197977238Y-133648476D01*
X197977238Y-134124666D01*
X198072476Y-134315142D01*
X198167714Y-134410380D01*
X198358190Y-134505619D01*
X198548666Y-134505619D01*
X198739142Y-134410380D01*
X198834380Y-134315142D01*
X198929619Y-134124666D01*
X199024857Y-133743714D01*
X199120095Y-133553238D01*
X199215333Y-133457999D01*
X199405809Y-133362761D01*
X199596285Y-133362761D01*
X199786761Y-133457999D01*
X199882000Y-133553238D01*
X199977238Y-133743714D01*
X199977238Y-134219904D01*
X199882000Y-134505619D01*
X199310571Y-136219904D02*
X197977238Y-136219904D01*
X199310571Y-135362761D02*
X198262952Y-135362761D01*
X198072476Y-135457999D01*
X197977238Y-135648476D01*
X197977238Y-135934190D01*
X198072476Y-136124666D01*
X198167714Y-136219904D01*
X199310571Y-136886571D02*
X199310571Y-137648476D01*
X199977238Y-137172285D02*
X198262952Y-137172285D01*
X198072476Y-137267523D01*
X197977238Y-137457999D01*
X197977238Y-137648476D01*
X199310571Y-138029428D02*
X199310571Y-138791333D01*
X199977238Y-138315142D02*
X198262952Y-138315142D01*
X198072476Y-138410380D01*
X197977238Y-138600857D01*
X197977238Y-138791333D01*
X197977238Y-139743714D02*
X198072476Y-139553238D01*
X198167714Y-139457999D01*
X198358190Y-139362761D01*
X198929619Y-139362761D01*
X199120095Y-139457999D01*
X199215333Y-139553238D01*
X199310571Y-139743714D01*
X199310571Y-140029428D01*
X199215333Y-140219904D01*
X199120095Y-140315142D01*
X198929619Y-140410380D01*
X198358190Y-140410380D01*
X198167714Y-140315142D01*
X198072476Y-140219904D01*
X197977238Y-140029428D01*
X197977238Y-139743714D01*
X199310571Y-141267523D02*
X197977238Y-141267523D01*
X199120095Y-141267523D02*
X199215333Y-141362761D01*
X199310571Y-141553238D01*
X199310571Y-141838952D01*
X199215333Y-142029428D01*
X199024857Y-142124666D01*
X197977238Y-142124666D01*
D10*
X148443904Y-108388000D02*
X147643904Y-108388000D01*
X147643904Y-108121333D01*
X147682000Y-108054666D01*
X147720095Y-108021333D01*
X147796285Y-107988000D01*
X147910571Y-107988000D01*
X147986761Y-108021333D01*
X148024857Y-108054666D01*
X148062952Y-108121333D01*
X148062952Y-108388000D01*
X148443904Y-107688000D02*
X147643904Y-107688000D01*
X147643904Y-107521333D01*
X147682000Y-107421333D01*
X147758190Y-107354666D01*
X147834380Y-107321333D01*
X147986761Y-107288000D01*
X148101047Y-107288000D01*
X148253428Y-107321333D01*
X148329619Y-107354666D01*
X148405809Y-107421333D01*
X148443904Y-107521333D01*
X148443904Y-107688000D01*
X148443904Y-106621333D02*
X148443904Y-107021333D01*
X148443904Y-106821333D02*
X147643904Y-106821333D01*
X147758190Y-106888000D01*
X147834380Y-106954666D01*
X147872476Y-107021333D01*
X147643904Y-105988000D02*
X147643904Y-106321333D01*
X148024857Y-106354666D01*
X147986761Y-106321333D01*
X147948666Y-106254666D01*
X147948666Y-106088000D01*
X147986761Y-106021333D01*
X148024857Y-105988000D01*
X148101047Y-105954666D01*
X148291523Y-105954666D01*
X148367714Y-105988000D01*
X148405809Y-106021333D01*
X148443904Y-106088000D01*
X148443904Y-106254666D01*
X148405809Y-106321333D01*
X148367714Y-106354666D01*
X147427904Y-108388000D02*
X146627904Y-108388000D01*
X146627904Y-108121333D01*
X146666000Y-108054666D01*
X146704095Y-108021333D01*
X146780285Y-107988000D01*
X146894571Y-107988000D01*
X146970761Y-108021333D01*
X147008857Y-108054666D01*
X147046952Y-108121333D01*
X147046952Y-108388000D01*
X147427904Y-107688000D02*
X146627904Y-107688000D01*
X146627904Y-107521333D01*
X146666000Y-107421333D01*
X146742190Y-107354666D01*
X146818380Y-107321333D01*
X146970761Y-107288000D01*
X147085047Y-107288000D01*
X147237428Y-107321333D01*
X147313619Y-107354666D01*
X147389809Y-107421333D01*
X147427904Y-107521333D01*
X147427904Y-107688000D01*
X147427904Y-106621333D02*
X147427904Y-107021333D01*
X147427904Y-106821333D02*
X146627904Y-106821333D01*
X146742190Y-106888000D01*
X146818380Y-106954666D01*
X146856476Y-107021333D01*
X146894571Y-106021333D02*
X147427904Y-106021333D01*
X146589809Y-106188000D02*
X147161238Y-106354666D01*
X147161238Y-105921333D01*
X140823904Y-107800666D02*
X140023904Y-107800666D01*
X140023904Y-107534000D01*
X140062000Y-107467333D01*
X140100095Y-107434000D01*
X140176285Y-107400666D01*
X140290571Y-107400666D01*
X140366761Y-107434000D01*
X140404857Y-107467333D01*
X140442952Y-107534000D01*
X140442952Y-107800666D01*
X140823904Y-107100666D02*
X140023904Y-107100666D01*
X140023904Y-106934000D01*
X140062000Y-106834000D01*
X140138190Y-106767333D01*
X140214380Y-106734000D01*
X140366761Y-106700666D01*
X140481047Y-106700666D01*
X140633428Y-106734000D01*
X140709619Y-106767333D01*
X140785809Y-106834000D01*
X140823904Y-106934000D01*
X140823904Y-107100666D01*
X140366761Y-106300666D02*
X140328666Y-106367333D01*
X140290571Y-106400666D01*
X140214380Y-106434000D01*
X140176285Y-106434000D01*
X140100095Y-106400666D01*
X140062000Y-106367333D01*
X140023904Y-106300666D01*
X140023904Y-106167333D01*
X140062000Y-106100666D01*
X140100095Y-106067333D01*
X140176285Y-106034000D01*
X140214380Y-106034000D01*
X140290571Y-106067333D01*
X140328666Y-106100666D01*
X140366761Y-106167333D01*
X140366761Y-106300666D01*
X140404857Y-106367333D01*
X140442952Y-106400666D01*
X140519142Y-106434000D01*
X140671523Y-106434000D01*
X140747714Y-106400666D01*
X140785809Y-106367333D01*
X140823904Y-106300666D01*
X140823904Y-106167333D01*
X140785809Y-106100666D01*
X140747714Y-106067333D01*
X140671523Y-106034000D01*
X140519142Y-106034000D01*
X140442952Y-106067333D01*
X140404857Y-106100666D01*
X140366761Y-106167333D01*
X139553904Y-108388000D02*
X138753904Y-108388000D01*
X138753904Y-108121333D01*
X138792000Y-108054666D01*
X138830095Y-108021333D01*
X138906285Y-107988000D01*
X139020571Y-107988000D01*
X139096761Y-108021333D01*
X139134857Y-108054666D01*
X139172952Y-108121333D01*
X139172952Y-108388000D01*
X138792000Y-107321333D02*
X138753904Y-107388000D01*
X138753904Y-107488000D01*
X138792000Y-107588000D01*
X138868190Y-107654666D01*
X138944380Y-107688000D01*
X139096761Y-107721333D01*
X139211047Y-107721333D01*
X139363428Y-107688000D01*
X139439619Y-107654666D01*
X139515809Y-107588000D01*
X139553904Y-107488000D01*
X139553904Y-107421333D01*
X139515809Y-107321333D01*
X139477714Y-107288000D01*
X139211047Y-107288000D01*
X139211047Y-107421333D01*
X139553904Y-106621333D02*
X139553904Y-107021333D01*
X139553904Y-106821333D02*
X138753904Y-106821333D01*
X138868190Y-106888000D01*
X138944380Y-106954666D01*
X138982476Y-107021333D01*
X138830095Y-106354666D02*
X138792000Y-106321333D01*
X138753904Y-106254666D01*
X138753904Y-106088000D01*
X138792000Y-106021333D01*
X138830095Y-105988000D01*
X138906285Y-105954666D01*
X138982476Y-105954666D01*
X139096761Y-105988000D01*
X139553904Y-106388000D01*
X139553904Y-105954666D01*
X148443904Y-105260666D02*
X147643904Y-105260666D01*
X147643904Y-104994000D01*
X147682000Y-104927333D01*
X147720095Y-104894000D01*
X147796285Y-104860666D01*
X147910571Y-104860666D01*
X147986761Y-104894000D01*
X148024857Y-104927333D01*
X148062952Y-104994000D01*
X148062952Y-105260666D01*
X148443904Y-104560666D02*
X147643904Y-104560666D01*
X147643904Y-104394000D01*
X147682000Y-104294000D01*
X147758190Y-104227333D01*
X147834380Y-104194000D01*
X147986761Y-104160666D01*
X148101047Y-104160666D01*
X148253428Y-104194000D01*
X148329619Y-104227333D01*
X148405809Y-104294000D01*
X148443904Y-104394000D01*
X148443904Y-104560666D01*
X147643904Y-103560666D02*
X147643904Y-103694000D01*
X147682000Y-103760666D01*
X147720095Y-103794000D01*
X147834380Y-103860666D01*
X147986761Y-103894000D01*
X148291523Y-103894000D01*
X148367714Y-103860666D01*
X148405809Y-103827333D01*
X148443904Y-103760666D01*
X148443904Y-103627333D01*
X148405809Y-103560666D01*
X148367714Y-103527333D01*
X148291523Y-103494000D01*
X148101047Y-103494000D01*
X148024857Y-103527333D01*
X147986761Y-103560666D01*
X147948666Y-103627333D01*
X147948666Y-103760666D01*
X147986761Y-103827333D01*
X148024857Y-103860666D01*
X148101047Y-103894000D01*
X147427904Y-105560666D02*
X146627904Y-105560666D01*
X146627904Y-105294000D01*
X146666000Y-105227333D01*
X146704095Y-105194000D01*
X146780285Y-105160666D01*
X146894571Y-105160666D01*
X146970761Y-105194000D01*
X147008857Y-105227333D01*
X147046952Y-105294000D01*
X147046952Y-105560666D01*
X147008857Y-104860666D02*
X147008857Y-104627333D01*
X147427904Y-104527333D02*
X147427904Y-104860666D01*
X146627904Y-104860666D01*
X146627904Y-104527333D01*
X147427904Y-103860666D02*
X147427904Y-104260666D01*
X147427904Y-104060666D02*
X146627904Y-104060666D01*
X146742190Y-104127333D01*
X146818380Y-104194000D01*
X146856476Y-104260666D01*
X146627904Y-103227333D02*
X146627904Y-103560666D01*
X147008857Y-103594000D01*
X146970761Y-103560666D01*
X146932666Y-103494000D01*
X146932666Y-103327333D01*
X146970761Y-103260666D01*
X147008857Y-103227333D01*
X147085047Y-103194000D01*
X147275523Y-103194000D01*
X147351714Y-103227333D01*
X147389809Y-103260666D01*
X147427904Y-103327333D01*
X147427904Y-103494000D01*
X147389809Y-103560666D01*
X147351714Y-103594000D01*
X140569904Y-105560666D02*
X139769904Y-105560666D01*
X139769904Y-105294000D01*
X139808000Y-105227333D01*
X139846095Y-105194000D01*
X139922285Y-105160666D01*
X140036571Y-105160666D01*
X140112761Y-105194000D01*
X140150857Y-105227333D01*
X140188952Y-105294000D01*
X140188952Y-105560666D01*
X140150857Y-104860666D02*
X140150857Y-104627333D01*
X140569904Y-104527333D02*
X140569904Y-104860666D01*
X139769904Y-104860666D01*
X139769904Y-104527333D01*
X140569904Y-103860666D02*
X140569904Y-104260666D01*
X140569904Y-104060666D02*
X139769904Y-104060666D01*
X139884190Y-104127333D01*
X139960380Y-104194000D01*
X139998476Y-104260666D01*
X139846095Y-103594000D02*
X139808000Y-103560666D01*
X139769904Y-103494000D01*
X139769904Y-103327333D01*
X139808000Y-103260666D01*
X139846095Y-103227333D01*
X139922285Y-103194000D01*
X139998476Y-103194000D01*
X140112761Y-103227333D01*
X140569904Y-103627333D01*
X140569904Y-103194000D01*
X139553904Y-105560666D02*
X138753904Y-105560666D01*
X138753904Y-105294000D01*
X138792000Y-105227333D01*
X138830095Y-105194000D01*
X138906285Y-105160666D01*
X139020571Y-105160666D01*
X139096761Y-105194000D01*
X139134857Y-105227333D01*
X139172952Y-105294000D01*
X139172952Y-105560666D01*
X139134857Y-104860666D02*
X139134857Y-104627333D01*
X139553904Y-104527333D02*
X139553904Y-104860666D01*
X138753904Y-104860666D01*
X138753904Y-104527333D01*
X139553904Y-103860666D02*
X139553904Y-104260666D01*
X139553904Y-104060666D02*
X138753904Y-104060666D01*
X138868190Y-104127333D01*
X138944380Y-104194000D01*
X138982476Y-104260666D01*
X139020571Y-103260666D02*
X139553904Y-103260666D01*
X138715809Y-103427333D02*
X139287238Y-103594000D01*
X139287238Y-103160666D01*
X149459904Y-102766666D02*
X148659904Y-102766666D01*
X148659904Y-102500000D01*
X148698000Y-102433333D01*
X148736095Y-102400000D01*
X148812285Y-102366666D01*
X148926571Y-102366666D01*
X149002761Y-102400000D01*
X149040857Y-102433333D01*
X149078952Y-102500000D01*
X149078952Y-102766666D01*
X149040857Y-102066666D02*
X149040857Y-101833333D01*
X149459904Y-101733333D02*
X149459904Y-102066666D01*
X148659904Y-102066666D01*
X148659904Y-101733333D01*
X149459904Y-101066666D02*
X149459904Y-101466666D01*
X149459904Y-101266666D02*
X148659904Y-101266666D01*
X148774190Y-101333333D01*
X148850380Y-101400000D01*
X148888476Y-101466666D01*
X149459904Y-100400000D02*
X149459904Y-100800000D01*
X149459904Y-100600000D02*
X148659904Y-100600000D01*
X148774190Y-100666666D01*
X148850380Y-100733333D01*
X148888476Y-100800000D01*
X148443904Y-102766666D02*
X147643904Y-102766666D01*
X147643904Y-102500000D01*
X147682000Y-102433333D01*
X147720095Y-102400000D01*
X147796285Y-102366666D01*
X147910571Y-102366666D01*
X147986761Y-102400000D01*
X148024857Y-102433333D01*
X148062952Y-102500000D01*
X148062952Y-102766666D01*
X148024857Y-102066666D02*
X148024857Y-101833333D01*
X148443904Y-101733333D02*
X148443904Y-102066666D01*
X147643904Y-102066666D01*
X147643904Y-101733333D01*
X148443904Y-101066666D02*
X148443904Y-101466666D01*
X148443904Y-101266666D02*
X147643904Y-101266666D01*
X147758190Y-101333333D01*
X147834380Y-101400000D01*
X147872476Y-101466666D01*
X147643904Y-100833333D02*
X147643904Y-100400000D01*
X147948666Y-100633333D01*
X147948666Y-100533333D01*
X147986761Y-100466666D01*
X148024857Y-100433333D01*
X148101047Y-100400000D01*
X148291523Y-100400000D01*
X148367714Y-100433333D01*
X148405809Y-100466666D01*
X148443904Y-100533333D01*
X148443904Y-100733333D01*
X148405809Y-100800000D01*
X148367714Y-100833333D01*
X147173904Y-102433333D02*
X146373904Y-102433333D01*
X146373904Y-102166666D01*
X146412000Y-102100000D01*
X146450095Y-102066666D01*
X146526285Y-102033333D01*
X146640571Y-102033333D01*
X146716761Y-102066666D01*
X146754857Y-102100000D01*
X146792952Y-102166666D01*
X146792952Y-102433333D01*
X146754857Y-101733333D02*
X146754857Y-101500000D01*
X147173904Y-101400000D02*
X147173904Y-101733333D01*
X146373904Y-101733333D01*
X146373904Y-101400000D01*
X147173904Y-100733333D02*
X147173904Y-101133333D01*
X147173904Y-100933333D02*
X146373904Y-100933333D01*
X146488190Y-101000000D01*
X146564380Y-101066666D01*
X146602476Y-101133333D01*
X139553904Y-102800000D02*
X138753904Y-102800000D01*
X138753904Y-102533333D01*
X138792000Y-102466666D01*
X138830095Y-102433333D01*
X138906285Y-102400000D01*
X139020571Y-102400000D01*
X139096761Y-102433333D01*
X139134857Y-102466666D01*
X139172952Y-102533333D01*
X139172952Y-102800000D01*
X138792000Y-101733333D02*
X138753904Y-101800000D01*
X138753904Y-101900000D01*
X138792000Y-102000000D01*
X138868190Y-102066666D01*
X138944380Y-102100000D01*
X139096761Y-102133333D01*
X139211047Y-102133333D01*
X139363428Y-102100000D01*
X139439619Y-102066666D01*
X139515809Y-102000000D01*
X139553904Y-101900000D01*
X139553904Y-101833333D01*
X139515809Y-101733333D01*
X139477714Y-101700000D01*
X139211047Y-101700000D01*
X139211047Y-101833333D01*
X139553904Y-101033333D02*
X139553904Y-101433333D01*
X139553904Y-101233333D02*
X138753904Y-101233333D01*
X138868190Y-101300000D01*
X138944380Y-101366666D01*
X138982476Y-101433333D01*
X138753904Y-100400000D02*
X138753904Y-100733333D01*
X139134857Y-100766666D01*
X139096761Y-100733333D01*
X139058666Y-100666666D01*
X139058666Y-100500000D01*
X139096761Y-100433333D01*
X139134857Y-100400000D01*
X139211047Y-100366666D01*
X139401523Y-100366666D01*
X139477714Y-100400000D01*
X139515809Y-100433333D01*
X139553904Y-100500000D01*
X139553904Y-100666666D01*
X139515809Y-100733333D01*
X139477714Y-100766666D01*
X144835666Y-81641904D02*
X144835666Y-80841904D01*
X145102333Y-80841904D01*
X145169000Y-80880000D01*
X145202333Y-80918095D01*
X145235666Y-80994285D01*
X145235666Y-81108571D01*
X145202333Y-81184761D01*
X145169000Y-81222857D01*
X145102333Y-81260952D01*
X144835666Y-81260952D01*
X145535666Y-81222857D02*
X145769000Y-81222857D01*
X145869000Y-81641904D02*
X145535666Y-81641904D01*
X145535666Y-80841904D01*
X145869000Y-80841904D01*
X146469000Y-81108571D02*
X146469000Y-81641904D01*
X146302333Y-80803809D02*
X146135666Y-81375238D01*
X146569000Y-81375238D01*
X141802000Y-81641904D02*
X141802000Y-80841904D01*
X142068666Y-80841904D01*
X142135333Y-80880000D01*
X142168666Y-80918095D01*
X142202000Y-80994285D01*
X142202000Y-81108571D01*
X142168666Y-81184761D01*
X142135333Y-81222857D01*
X142068666Y-81260952D01*
X141802000Y-81260952D01*
X142902000Y-81565714D02*
X142868666Y-81603809D01*
X142768666Y-81641904D01*
X142702000Y-81641904D01*
X142602000Y-81603809D01*
X142535333Y-81527619D01*
X142502000Y-81451428D01*
X142468666Y-81299047D01*
X142468666Y-81184761D01*
X142502000Y-81032380D01*
X142535333Y-80956190D01*
X142602000Y-80880000D01*
X142702000Y-80841904D01*
X142768666Y-80841904D01*
X142868666Y-80880000D01*
X142902000Y-80918095D01*
X143568666Y-81641904D02*
X143168666Y-81641904D01*
X143368666Y-81641904D02*
X143368666Y-80841904D01*
X143302000Y-80956190D01*
X143235333Y-81032380D01*
X143168666Y-81070476D01*
X144235333Y-81641904D02*
X143835333Y-81641904D01*
X144035333Y-81641904D02*
X144035333Y-80841904D01*
X143968666Y-80956190D01*
X143902000Y-81032380D01*
X143835333Y-81070476D01*
X147723333Y-84181904D02*
X147723333Y-83381904D01*
X147990000Y-83381904D01*
X148056666Y-83420000D01*
X148090000Y-83458095D01*
X148123333Y-83534285D01*
X148123333Y-83648571D01*
X148090000Y-83724761D01*
X148056666Y-83762857D01*
X147990000Y-83800952D01*
X147723333Y-83800952D01*
X148423333Y-84181904D02*
X148423333Y-83381904D01*
X148590000Y-83381904D01*
X148690000Y-83420000D01*
X148756666Y-83496190D01*
X148790000Y-83572380D01*
X148823333Y-83724761D01*
X148823333Y-83839047D01*
X148790000Y-83991428D01*
X148756666Y-84067619D01*
X148690000Y-84143809D01*
X148590000Y-84181904D01*
X148423333Y-84181904D01*
X149090000Y-83458095D02*
X149123333Y-83420000D01*
X149190000Y-83381904D01*
X149356666Y-83381904D01*
X149423333Y-83420000D01*
X149456666Y-83458095D01*
X149490000Y-83534285D01*
X149490000Y-83610476D01*
X149456666Y-83724761D01*
X149056666Y-84181904D01*
X149490000Y-84181904D01*
X145183333Y-84181904D02*
X145183333Y-83381904D01*
X145450000Y-83381904D01*
X145516666Y-83420000D01*
X145550000Y-83458095D01*
X145583333Y-83534285D01*
X145583333Y-83648571D01*
X145550000Y-83724761D01*
X145516666Y-83762857D01*
X145450000Y-83800952D01*
X145183333Y-83800952D01*
X146283333Y-84105714D02*
X146250000Y-84143809D01*
X146150000Y-84181904D01*
X146083333Y-84181904D01*
X145983333Y-84143809D01*
X145916666Y-84067619D01*
X145883333Y-83991428D01*
X145850000Y-83839047D01*
X145850000Y-83724761D01*
X145883333Y-83572380D01*
X145916666Y-83496190D01*
X145983333Y-83420000D01*
X146083333Y-83381904D01*
X146150000Y-83381904D01*
X146250000Y-83420000D01*
X146283333Y-83458095D01*
X146616666Y-84181904D02*
X146750000Y-84181904D01*
X146816666Y-84143809D01*
X146850000Y-84105714D01*
X146916666Y-83991428D01*
X146950000Y-83839047D01*
X146950000Y-83534285D01*
X146916666Y-83458095D01*
X146883333Y-83420000D01*
X146816666Y-83381904D01*
X146683333Y-83381904D01*
X146616666Y-83420000D01*
X146583333Y-83458095D01*
X146550000Y-83534285D01*
X146550000Y-83724761D01*
X146583333Y-83800952D01*
X146616666Y-83839047D01*
X146683333Y-83877142D01*
X146816666Y-83877142D01*
X146883333Y-83839047D01*
X146916666Y-83800952D01*
X146950000Y-83724761D01*
X141548000Y-84181904D02*
X141548000Y-83381904D01*
X141814666Y-83381904D01*
X141881333Y-83420000D01*
X141914666Y-83458095D01*
X141948000Y-83534285D01*
X141948000Y-83648571D01*
X141914666Y-83724761D01*
X141881333Y-83762857D01*
X141814666Y-83800952D01*
X141548000Y-83800952D01*
X142648000Y-84105714D02*
X142614666Y-84143809D01*
X142514666Y-84181904D01*
X142448000Y-84181904D01*
X142348000Y-84143809D01*
X142281333Y-84067619D01*
X142248000Y-83991428D01*
X142214666Y-83839047D01*
X142214666Y-83724761D01*
X142248000Y-83572380D01*
X142281333Y-83496190D01*
X142348000Y-83420000D01*
X142448000Y-83381904D01*
X142514666Y-83381904D01*
X142614666Y-83420000D01*
X142648000Y-83458095D01*
X143314666Y-84181904D02*
X142914666Y-84181904D01*
X143114666Y-84181904D02*
X143114666Y-83381904D01*
X143048000Y-83496190D01*
X142981333Y-83572380D01*
X142914666Y-83610476D01*
X143748000Y-83381904D02*
X143814666Y-83381904D01*
X143881333Y-83420000D01*
X143914666Y-83458095D01*
X143948000Y-83534285D01*
X143981333Y-83686666D01*
X143981333Y-83877142D01*
X143948000Y-84029523D01*
X143914666Y-84105714D01*
X143881333Y-84143809D01*
X143814666Y-84181904D01*
X143748000Y-84181904D01*
X143681333Y-84143809D01*
X143648000Y-84105714D01*
X143614666Y-84029523D01*
X143581333Y-83877142D01*
X143581333Y-83686666D01*
X143614666Y-83534285D01*
X143648000Y-83458095D01*
X143681333Y-83420000D01*
X143748000Y-83381904D01*
X139087333Y-84689904D02*
X139087333Y-83889904D01*
X139354000Y-83889904D01*
X139420666Y-83928000D01*
X139454000Y-83966095D01*
X139487333Y-84042285D01*
X139487333Y-84156571D01*
X139454000Y-84232761D01*
X139420666Y-84270857D01*
X139354000Y-84308952D01*
X139087333Y-84308952D01*
X140187333Y-84613714D02*
X140154000Y-84651809D01*
X140054000Y-84689904D01*
X139987333Y-84689904D01*
X139887333Y-84651809D01*
X139820666Y-84575619D01*
X139787333Y-84499428D01*
X139754000Y-84347047D01*
X139754000Y-84232761D01*
X139787333Y-84080380D01*
X139820666Y-84004190D01*
X139887333Y-83928000D01*
X139987333Y-83889904D01*
X140054000Y-83889904D01*
X140154000Y-83928000D01*
X140187333Y-83966095D01*
X140587333Y-84232761D02*
X140520666Y-84194666D01*
X140487333Y-84156571D01*
X140454000Y-84080380D01*
X140454000Y-84042285D01*
X140487333Y-83966095D01*
X140520666Y-83928000D01*
X140587333Y-83889904D01*
X140720666Y-83889904D01*
X140787333Y-83928000D01*
X140820666Y-83966095D01*
X140854000Y-84042285D01*
X140854000Y-84080380D01*
X140820666Y-84156571D01*
X140787333Y-84194666D01*
X140720666Y-84232761D01*
X140587333Y-84232761D01*
X140520666Y-84270857D01*
X140487333Y-84308952D01*
X140454000Y-84385142D01*
X140454000Y-84537523D01*
X140487333Y-84613714D01*
X140520666Y-84651809D01*
X140587333Y-84689904D01*
X140720666Y-84689904D01*
X140787333Y-84651809D01*
X140820666Y-84613714D01*
X140854000Y-84537523D01*
X140854000Y-84385142D01*
X140820666Y-84308952D01*
X140787333Y-84270857D01*
X140720666Y-84232761D01*
X147723333Y-86721904D02*
X147723333Y-85921904D01*
X147990000Y-85921904D01*
X148056666Y-85960000D01*
X148090000Y-85998095D01*
X148123333Y-86074285D01*
X148123333Y-86188571D01*
X148090000Y-86264761D01*
X148056666Y-86302857D01*
X147990000Y-86340952D01*
X147723333Y-86340952D01*
X148656666Y-86302857D02*
X148756666Y-86340952D01*
X148790000Y-86379047D01*
X148823333Y-86455238D01*
X148823333Y-86569523D01*
X148790000Y-86645714D01*
X148756666Y-86683809D01*
X148690000Y-86721904D01*
X148423333Y-86721904D01*
X148423333Y-85921904D01*
X148656666Y-85921904D01*
X148723333Y-85960000D01*
X148756666Y-85998095D01*
X148790000Y-86074285D01*
X148790000Y-86150476D01*
X148756666Y-86226666D01*
X148723333Y-86264761D01*
X148656666Y-86302857D01*
X148423333Y-86302857D01*
X149423333Y-86188571D02*
X149423333Y-86721904D01*
X149256666Y-85883809D02*
X149090000Y-86455238D01*
X149523333Y-86455238D01*
X145183333Y-86721904D02*
X145183333Y-85921904D01*
X145450000Y-85921904D01*
X145516666Y-85960000D01*
X145550000Y-85998095D01*
X145583333Y-86074285D01*
X145583333Y-86188571D01*
X145550000Y-86264761D01*
X145516666Y-86302857D01*
X145450000Y-86340952D01*
X145183333Y-86340952D01*
X146283333Y-86645714D02*
X146250000Y-86683809D01*
X146150000Y-86721904D01*
X146083333Y-86721904D01*
X145983333Y-86683809D01*
X145916666Y-86607619D01*
X145883333Y-86531428D01*
X145850000Y-86379047D01*
X145850000Y-86264761D01*
X145883333Y-86112380D01*
X145916666Y-86036190D01*
X145983333Y-85960000D01*
X146083333Y-85921904D01*
X146150000Y-85921904D01*
X146250000Y-85960000D01*
X146283333Y-85998095D01*
X146516666Y-85921904D02*
X146983333Y-85921904D01*
X146683333Y-86721904D01*
X142389333Y-86721904D02*
X142389333Y-85921904D01*
X142656000Y-85921904D01*
X142722666Y-85960000D01*
X142756000Y-85998095D01*
X142789333Y-86074285D01*
X142789333Y-86188571D01*
X142756000Y-86264761D01*
X142722666Y-86302857D01*
X142656000Y-86340952D01*
X142389333Y-86340952D01*
X143489333Y-86645714D02*
X143456000Y-86683809D01*
X143356000Y-86721904D01*
X143289333Y-86721904D01*
X143189333Y-86683809D01*
X143122666Y-86607619D01*
X143089333Y-86531428D01*
X143056000Y-86379047D01*
X143056000Y-86264761D01*
X143089333Y-86112380D01*
X143122666Y-86036190D01*
X143189333Y-85960000D01*
X143289333Y-85921904D01*
X143356000Y-85921904D01*
X143456000Y-85960000D01*
X143489333Y-85998095D01*
X144089333Y-85921904D02*
X143956000Y-85921904D01*
X143889333Y-85960000D01*
X143856000Y-85998095D01*
X143789333Y-86112380D01*
X143756000Y-86264761D01*
X143756000Y-86569523D01*
X143789333Y-86645714D01*
X143822666Y-86683809D01*
X143889333Y-86721904D01*
X144022666Y-86721904D01*
X144089333Y-86683809D01*
X144122666Y-86645714D01*
X144156000Y-86569523D01*
X144156000Y-86379047D01*
X144122666Y-86302857D01*
X144089333Y-86264761D01*
X144022666Y-86226666D01*
X143889333Y-86226666D01*
X143822666Y-86264761D01*
X143789333Y-86302857D01*
X143756000Y-86379047D01*
X139008000Y-86721904D02*
X139008000Y-85921904D01*
X139274666Y-85921904D01*
X139341333Y-85960000D01*
X139374666Y-85998095D01*
X139408000Y-86074285D01*
X139408000Y-86188571D01*
X139374666Y-86264761D01*
X139341333Y-86302857D01*
X139274666Y-86340952D01*
X139008000Y-86340952D01*
X140108000Y-86645714D02*
X140074666Y-86683809D01*
X139974666Y-86721904D01*
X139908000Y-86721904D01*
X139808000Y-86683809D01*
X139741333Y-86607619D01*
X139708000Y-86531428D01*
X139674666Y-86379047D01*
X139674666Y-86264761D01*
X139708000Y-86112380D01*
X139741333Y-86036190D01*
X139808000Y-85960000D01*
X139908000Y-85921904D01*
X139974666Y-85921904D01*
X140074666Y-85960000D01*
X140108000Y-85998095D01*
X140774666Y-86721904D02*
X140374666Y-86721904D01*
X140574666Y-86721904D02*
X140574666Y-85921904D01*
X140508000Y-86036190D01*
X140441333Y-86112380D01*
X140374666Y-86150476D01*
X141041333Y-85998095D02*
X141074666Y-85960000D01*
X141141333Y-85921904D01*
X141308000Y-85921904D01*
X141374666Y-85960000D01*
X141408000Y-85998095D01*
X141441333Y-86074285D01*
X141441333Y-86150476D01*
X141408000Y-86264761D01*
X141008000Y-86721904D01*
X141441333Y-86721904D01*
X148789333Y-89261904D02*
X148789333Y-88461904D01*
X149056000Y-88461904D01*
X149122666Y-88500000D01*
X149156000Y-88538095D01*
X149189333Y-88614285D01*
X149189333Y-88728571D01*
X149156000Y-88804761D01*
X149122666Y-88842857D01*
X149056000Y-88880952D01*
X148789333Y-88880952D01*
X149456000Y-89033333D02*
X149789333Y-89033333D01*
X149389333Y-89261904D02*
X149622666Y-88461904D01*
X149856000Y-89261904D01*
X150189333Y-88804761D02*
X150122666Y-88766666D01*
X150089333Y-88728571D01*
X150056000Y-88652380D01*
X150056000Y-88614285D01*
X150089333Y-88538095D01*
X150122666Y-88500000D01*
X150189333Y-88461904D01*
X150322666Y-88461904D01*
X150389333Y-88500000D01*
X150422666Y-88538095D01*
X150456000Y-88614285D01*
X150456000Y-88652380D01*
X150422666Y-88728571D01*
X150389333Y-88766666D01*
X150322666Y-88804761D01*
X150189333Y-88804761D01*
X150122666Y-88842857D01*
X150089333Y-88880952D01*
X150056000Y-88957142D01*
X150056000Y-89109523D01*
X150089333Y-89185714D01*
X150122666Y-89223809D01*
X150189333Y-89261904D01*
X150322666Y-89261904D01*
X150389333Y-89223809D01*
X150422666Y-89185714D01*
X150456000Y-89109523D01*
X150456000Y-88957142D01*
X150422666Y-88880952D01*
X150389333Y-88842857D01*
X150322666Y-88804761D01*
X145612000Y-89261904D02*
X145612000Y-88461904D01*
X145878666Y-88461904D01*
X145945333Y-88500000D01*
X145978666Y-88538095D01*
X146012000Y-88614285D01*
X146012000Y-88728571D01*
X145978666Y-88804761D01*
X145945333Y-88842857D01*
X145878666Y-88880952D01*
X145612000Y-88880952D01*
X146545333Y-88842857D02*
X146645333Y-88880952D01*
X146678666Y-88919047D01*
X146712000Y-88995238D01*
X146712000Y-89109523D01*
X146678666Y-89185714D01*
X146645333Y-89223809D01*
X146578666Y-89261904D01*
X146312000Y-89261904D01*
X146312000Y-88461904D01*
X146545333Y-88461904D01*
X146612000Y-88500000D01*
X146645333Y-88538095D01*
X146678666Y-88614285D01*
X146678666Y-88690476D01*
X146645333Y-88766666D01*
X146612000Y-88804761D01*
X146545333Y-88842857D01*
X146312000Y-88842857D01*
X147378666Y-89261904D02*
X146978666Y-89261904D01*
X147178666Y-89261904D02*
X147178666Y-88461904D01*
X147112000Y-88576190D01*
X147045333Y-88652380D01*
X146978666Y-88690476D01*
X148012000Y-88461904D02*
X147678666Y-88461904D01*
X147645333Y-88842857D01*
X147678666Y-88804761D01*
X147745333Y-88766666D01*
X147912000Y-88766666D01*
X147978666Y-88804761D01*
X148012000Y-88842857D01*
X148045333Y-88919047D01*
X148045333Y-89109523D01*
X148012000Y-89185714D01*
X147978666Y-89223809D01*
X147912000Y-89261904D01*
X147745333Y-89261904D01*
X147678666Y-89223809D01*
X147645333Y-89185714D01*
X143151333Y-89261904D02*
X143151333Y-88461904D01*
X143418000Y-88461904D01*
X143484666Y-88500000D01*
X143518000Y-88538095D01*
X143551333Y-88614285D01*
X143551333Y-88728571D01*
X143518000Y-88804761D01*
X143484666Y-88842857D01*
X143418000Y-88880952D01*
X143151333Y-88880952D01*
X144084666Y-88842857D02*
X144184666Y-88880952D01*
X144218000Y-88919047D01*
X144251333Y-88995238D01*
X144251333Y-89109523D01*
X144218000Y-89185714D01*
X144184666Y-89223809D01*
X144118000Y-89261904D01*
X143851333Y-89261904D01*
X143851333Y-88461904D01*
X144084666Y-88461904D01*
X144151333Y-88500000D01*
X144184666Y-88538095D01*
X144218000Y-88614285D01*
X144218000Y-88690476D01*
X144184666Y-88766666D01*
X144151333Y-88804761D01*
X144084666Y-88842857D01*
X143851333Y-88842857D01*
X144584666Y-89261904D02*
X144718000Y-89261904D01*
X144784666Y-89223809D01*
X144818000Y-89185714D01*
X144884666Y-89071428D01*
X144918000Y-88919047D01*
X144918000Y-88614285D01*
X144884666Y-88538095D01*
X144851333Y-88500000D01*
X144784666Y-88461904D01*
X144651333Y-88461904D01*
X144584666Y-88500000D01*
X144551333Y-88538095D01*
X144518000Y-88614285D01*
X144518000Y-88804761D01*
X144551333Y-88880952D01*
X144584666Y-88919047D01*
X144651333Y-88957142D01*
X144784666Y-88957142D01*
X144851333Y-88919047D01*
X144884666Y-88880952D01*
X144918000Y-88804761D01*
X139770000Y-89261904D02*
X139770000Y-88461904D01*
X140036666Y-88461904D01*
X140103333Y-88500000D01*
X140136666Y-88538095D01*
X140170000Y-88614285D01*
X140170000Y-88728571D01*
X140136666Y-88804761D01*
X140103333Y-88842857D01*
X140036666Y-88880952D01*
X139770000Y-88880952D01*
X140703333Y-88842857D02*
X140803333Y-88880952D01*
X140836666Y-88919047D01*
X140870000Y-88995238D01*
X140870000Y-89109523D01*
X140836666Y-89185714D01*
X140803333Y-89223809D01*
X140736666Y-89261904D01*
X140470000Y-89261904D01*
X140470000Y-88461904D01*
X140703333Y-88461904D01*
X140770000Y-88500000D01*
X140803333Y-88538095D01*
X140836666Y-88614285D01*
X140836666Y-88690476D01*
X140803333Y-88766666D01*
X140770000Y-88804761D01*
X140703333Y-88842857D01*
X140470000Y-88842857D01*
X141536666Y-89261904D02*
X141136666Y-89261904D01*
X141336666Y-89261904D02*
X141336666Y-88461904D01*
X141270000Y-88576190D01*
X141203333Y-88652380D01*
X141136666Y-88690476D01*
X142136666Y-88728571D02*
X142136666Y-89261904D01*
X141970000Y-88423809D02*
X141803333Y-88995238D01*
X142236666Y-88995238D01*
X147723333Y-91801904D02*
X147723333Y-91001904D01*
X147990000Y-91001904D01*
X148056666Y-91040000D01*
X148090000Y-91078095D01*
X148123333Y-91154285D01*
X148123333Y-91268571D01*
X148090000Y-91344761D01*
X148056666Y-91382857D01*
X147990000Y-91420952D01*
X147723333Y-91420952D01*
X148656666Y-91382857D02*
X148756666Y-91420952D01*
X148790000Y-91459047D01*
X148823333Y-91535238D01*
X148823333Y-91649523D01*
X148790000Y-91725714D01*
X148756666Y-91763809D01*
X148690000Y-91801904D01*
X148423333Y-91801904D01*
X148423333Y-91001904D01*
X148656666Y-91001904D01*
X148723333Y-91040000D01*
X148756666Y-91078095D01*
X148790000Y-91154285D01*
X148790000Y-91230476D01*
X148756666Y-91306666D01*
X148723333Y-91344761D01*
X148656666Y-91382857D01*
X148423333Y-91382857D01*
X149223333Y-91344761D02*
X149156666Y-91306666D01*
X149123333Y-91268571D01*
X149090000Y-91192380D01*
X149090000Y-91154285D01*
X149123333Y-91078095D01*
X149156666Y-91040000D01*
X149223333Y-91001904D01*
X149356666Y-91001904D01*
X149423333Y-91040000D01*
X149456666Y-91078095D01*
X149490000Y-91154285D01*
X149490000Y-91192380D01*
X149456666Y-91268571D01*
X149423333Y-91306666D01*
X149356666Y-91344761D01*
X149223333Y-91344761D01*
X149156666Y-91382857D01*
X149123333Y-91420952D01*
X149090000Y-91497142D01*
X149090000Y-91649523D01*
X149123333Y-91725714D01*
X149156666Y-91763809D01*
X149223333Y-91801904D01*
X149356666Y-91801904D01*
X149423333Y-91763809D01*
X149456666Y-91725714D01*
X149490000Y-91649523D01*
X149490000Y-91497142D01*
X149456666Y-91420952D01*
X149423333Y-91382857D01*
X149356666Y-91344761D01*
X144962666Y-91801904D02*
X144962666Y-91001904D01*
X145229333Y-91001904D01*
X145296000Y-91040000D01*
X145329333Y-91078095D01*
X145362666Y-91154285D01*
X145362666Y-91268571D01*
X145329333Y-91344761D01*
X145296000Y-91382857D01*
X145229333Y-91420952D01*
X144962666Y-91420952D01*
X145662666Y-91382857D02*
X145896000Y-91382857D01*
X145996000Y-91801904D02*
X145662666Y-91801904D01*
X145662666Y-91001904D01*
X145996000Y-91001904D01*
X146629333Y-91001904D02*
X146296000Y-91001904D01*
X146262666Y-91382857D01*
X146296000Y-91344761D01*
X146362666Y-91306666D01*
X146529333Y-91306666D01*
X146596000Y-91344761D01*
X146629333Y-91382857D01*
X146662666Y-91459047D01*
X146662666Y-91649523D01*
X146629333Y-91725714D01*
X146596000Y-91763809D01*
X146529333Y-91801904D01*
X146362666Y-91801904D01*
X146296000Y-91763809D01*
X146262666Y-91725714D01*
X142135333Y-91801904D02*
X142135333Y-91001904D01*
X142402000Y-91001904D01*
X142468666Y-91040000D01*
X142502000Y-91078095D01*
X142535333Y-91154285D01*
X142535333Y-91268571D01*
X142502000Y-91344761D01*
X142468666Y-91382857D01*
X142402000Y-91420952D01*
X142135333Y-91420952D01*
X143068666Y-91382857D02*
X143168666Y-91420952D01*
X143202000Y-91459047D01*
X143235333Y-91535238D01*
X143235333Y-91649523D01*
X143202000Y-91725714D01*
X143168666Y-91763809D01*
X143102000Y-91801904D01*
X142835333Y-91801904D01*
X142835333Y-91001904D01*
X143068666Y-91001904D01*
X143135333Y-91040000D01*
X143168666Y-91078095D01*
X143202000Y-91154285D01*
X143202000Y-91230476D01*
X143168666Y-91306666D01*
X143135333Y-91344761D01*
X143068666Y-91382857D01*
X142835333Y-91382857D01*
X143468666Y-91001904D02*
X143902000Y-91001904D01*
X143668666Y-91306666D01*
X143768666Y-91306666D01*
X143835333Y-91344761D01*
X143868666Y-91382857D01*
X143902000Y-91459047D01*
X143902000Y-91649523D01*
X143868666Y-91725714D01*
X143835333Y-91763809D01*
X143768666Y-91801904D01*
X143568666Y-91801904D01*
X143502000Y-91763809D01*
X143468666Y-91725714D01*
X139391333Y-91801904D02*
X139391333Y-91001904D01*
X139658000Y-91001904D01*
X139724666Y-91040000D01*
X139758000Y-91078095D01*
X139791333Y-91154285D01*
X139791333Y-91268571D01*
X139758000Y-91344761D01*
X139724666Y-91382857D01*
X139658000Y-91420952D01*
X139391333Y-91420952D01*
X140058000Y-91573333D02*
X140391333Y-91573333D01*
X139991333Y-91801904D02*
X140224666Y-91001904D01*
X140458000Y-91801904D01*
X140724666Y-91801904D02*
X140858000Y-91801904D01*
X140924666Y-91763809D01*
X140958000Y-91725714D01*
X141024666Y-91611428D01*
X141058000Y-91459047D01*
X141058000Y-91154285D01*
X141024666Y-91078095D01*
X140991333Y-91040000D01*
X140924666Y-91001904D01*
X140791333Y-91001904D01*
X140724666Y-91040000D01*
X140691333Y-91078095D01*
X140658000Y-91154285D01*
X140658000Y-91344761D01*
X140691333Y-91420952D01*
X140724666Y-91459047D01*
X140791333Y-91497142D01*
X140924666Y-91497142D01*
X140991333Y-91459047D01*
X141024666Y-91420952D01*
X141058000Y-91344761D01*
X147723333Y-94341904D02*
X147723333Y-93541904D01*
X147990000Y-93541904D01*
X148056666Y-93580000D01*
X148090000Y-93618095D01*
X148123333Y-93694285D01*
X148123333Y-93808571D01*
X148090000Y-93884761D01*
X148056666Y-93922857D01*
X147990000Y-93960952D01*
X147723333Y-93960952D01*
X148423333Y-94341904D02*
X148423333Y-93541904D01*
X148590000Y-93541904D01*
X148690000Y-93580000D01*
X148756666Y-93656190D01*
X148790000Y-93732380D01*
X148823333Y-93884761D01*
X148823333Y-93999047D01*
X148790000Y-94151428D01*
X148756666Y-94227619D01*
X148690000Y-94303809D01*
X148590000Y-94341904D01*
X148423333Y-94341904D01*
X149423333Y-93808571D02*
X149423333Y-94341904D01*
X149256666Y-93503809D02*
X149090000Y-94075238D01*
X149523333Y-94075238D01*
X144675333Y-94341904D02*
X144675333Y-93541904D01*
X144942000Y-93541904D01*
X145008666Y-93580000D01*
X145042000Y-93618095D01*
X145075333Y-93694285D01*
X145075333Y-93808571D01*
X145042000Y-93884761D01*
X145008666Y-93922857D01*
X144942000Y-93960952D01*
X144675333Y-93960952D01*
X145375333Y-94341904D02*
X145375333Y-93541904D01*
X145542000Y-93541904D01*
X145642000Y-93580000D01*
X145708666Y-93656190D01*
X145742000Y-93732380D01*
X145775333Y-93884761D01*
X145775333Y-93999047D01*
X145742000Y-94151428D01*
X145708666Y-94227619D01*
X145642000Y-94303809D01*
X145542000Y-94341904D01*
X145375333Y-94341904D01*
X146008666Y-93541904D02*
X146442000Y-93541904D01*
X146208666Y-93846666D01*
X146308666Y-93846666D01*
X146375333Y-93884761D01*
X146408666Y-93922857D01*
X146442000Y-93999047D01*
X146442000Y-94189523D01*
X146408666Y-94265714D01*
X146375333Y-94303809D01*
X146308666Y-94341904D01*
X146108666Y-94341904D01*
X146042000Y-94303809D01*
X146008666Y-94265714D01*
X142135333Y-94341904D02*
X142135333Y-93541904D01*
X142402000Y-93541904D01*
X142468666Y-93580000D01*
X142502000Y-93618095D01*
X142535333Y-93694285D01*
X142535333Y-93808571D01*
X142502000Y-93884761D01*
X142468666Y-93922857D01*
X142402000Y-93960952D01*
X142135333Y-93960952D01*
X143202000Y-93580000D02*
X143135333Y-93541904D01*
X143035333Y-93541904D01*
X142935333Y-93580000D01*
X142868666Y-93656190D01*
X142835333Y-93732380D01*
X142802000Y-93884761D01*
X142802000Y-93999047D01*
X142835333Y-94151428D01*
X142868666Y-94227619D01*
X142935333Y-94303809D01*
X143035333Y-94341904D01*
X143102000Y-94341904D01*
X143202000Y-94303809D01*
X143235333Y-94265714D01*
X143235333Y-93999047D01*
X143102000Y-93999047D01*
X143835333Y-93541904D02*
X143702000Y-93541904D01*
X143635333Y-93580000D01*
X143602000Y-93618095D01*
X143535333Y-93732380D01*
X143502000Y-93884761D01*
X143502000Y-94189523D01*
X143535333Y-94265714D01*
X143568666Y-94303809D01*
X143635333Y-94341904D01*
X143768666Y-94341904D01*
X143835333Y-94303809D01*
X143868666Y-94265714D01*
X143902000Y-94189523D01*
X143902000Y-93999047D01*
X143868666Y-93922857D01*
X143835333Y-93884761D01*
X143768666Y-93846666D01*
X143635333Y-93846666D01*
X143568666Y-93884761D01*
X143535333Y-93922857D01*
X143502000Y-93999047D01*
X139341333Y-94341904D02*
X139341333Y-93541904D01*
X139608000Y-93541904D01*
X139674666Y-93580000D01*
X139708000Y-93618095D01*
X139741333Y-93694285D01*
X139741333Y-93808571D01*
X139708000Y-93884761D01*
X139674666Y-93922857D01*
X139608000Y-93960952D01*
X139341333Y-93960952D01*
X140041333Y-94341904D02*
X140041333Y-93541904D01*
X140208000Y-93541904D01*
X140308000Y-93580000D01*
X140374666Y-93656190D01*
X140408000Y-93732380D01*
X140441333Y-93884761D01*
X140441333Y-93999047D01*
X140408000Y-94151428D01*
X140374666Y-94227619D01*
X140308000Y-94303809D01*
X140208000Y-94341904D01*
X140041333Y-94341904D01*
X141074666Y-93541904D02*
X140741333Y-93541904D01*
X140708000Y-93922857D01*
X140741333Y-93884761D01*
X140808000Y-93846666D01*
X140974666Y-93846666D01*
X141041333Y-93884761D01*
X141074666Y-93922857D01*
X141108000Y-93999047D01*
X141108000Y-94189523D01*
X141074666Y-94265714D01*
X141041333Y-94303809D01*
X140974666Y-94341904D01*
X140808000Y-94341904D01*
X140741333Y-94303809D01*
X140708000Y-94265714D01*
X147977333Y-96881904D02*
X147977333Y-96081904D01*
X148244000Y-96081904D01*
X148310666Y-96120000D01*
X148344000Y-96158095D01*
X148377333Y-96234285D01*
X148377333Y-96348571D01*
X148344000Y-96424761D01*
X148310666Y-96462857D01*
X148244000Y-96500952D01*
X147977333Y-96500952D01*
X148677333Y-96881904D02*
X148677333Y-96081904D01*
X148844000Y-96081904D01*
X148944000Y-96120000D01*
X149010666Y-96196190D01*
X149044000Y-96272380D01*
X149077333Y-96424761D01*
X149077333Y-96539047D01*
X149044000Y-96691428D01*
X149010666Y-96767619D01*
X148944000Y-96843809D01*
X148844000Y-96881904D01*
X148677333Y-96881904D01*
X149744000Y-96881904D02*
X149344000Y-96881904D01*
X149544000Y-96881904D02*
X149544000Y-96081904D01*
X149477333Y-96196190D01*
X149410666Y-96272380D01*
X149344000Y-96310476D01*
X144596000Y-96881904D02*
X144596000Y-96081904D01*
X144862666Y-96081904D01*
X144929333Y-96120000D01*
X144962666Y-96158095D01*
X144996000Y-96234285D01*
X144996000Y-96348571D01*
X144962666Y-96424761D01*
X144929333Y-96462857D01*
X144862666Y-96500952D01*
X144596000Y-96500952D01*
X145296000Y-96881904D02*
X145296000Y-96081904D01*
X145462666Y-96081904D01*
X145562666Y-96120000D01*
X145629333Y-96196190D01*
X145662666Y-96272380D01*
X145696000Y-96424761D01*
X145696000Y-96539047D01*
X145662666Y-96691428D01*
X145629333Y-96767619D01*
X145562666Y-96843809D01*
X145462666Y-96881904D01*
X145296000Y-96881904D01*
X146362666Y-96881904D02*
X145962666Y-96881904D01*
X146162666Y-96881904D02*
X146162666Y-96081904D01*
X146096000Y-96196190D01*
X146029333Y-96272380D01*
X145962666Y-96310476D01*
X146796000Y-96081904D02*
X146862666Y-96081904D01*
X146929333Y-96120000D01*
X146962666Y-96158095D01*
X146996000Y-96234285D01*
X147029333Y-96386666D01*
X147029333Y-96577142D01*
X146996000Y-96729523D01*
X146962666Y-96805714D01*
X146929333Y-96843809D01*
X146862666Y-96881904D01*
X146796000Y-96881904D01*
X146729333Y-96843809D01*
X146696000Y-96805714D01*
X146662666Y-96729523D01*
X146629333Y-96577142D01*
X146629333Y-96386666D01*
X146662666Y-96234285D01*
X146696000Y-96158095D01*
X146729333Y-96120000D01*
X146796000Y-96081904D01*
X142135333Y-96881904D02*
X142135333Y-96081904D01*
X142402000Y-96081904D01*
X142468666Y-96120000D01*
X142502000Y-96158095D01*
X142535333Y-96234285D01*
X142535333Y-96348571D01*
X142502000Y-96424761D01*
X142468666Y-96462857D01*
X142402000Y-96500952D01*
X142135333Y-96500952D01*
X143068666Y-96462857D02*
X143168666Y-96500952D01*
X143202000Y-96539047D01*
X143235333Y-96615238D01*
X143235333Y-96729523D01*
X143202000Y-96805714D01*
X143168666Y-96843809D01*
X143102000Y-96881904D01*
X142835333Y-96881904D01*
X142835333Y-96081904D01*
X143068666Y-96081904D01*
X143135333Y-96120000D01*
X143168666Y-96158095D01*
X143202000Y-96234285D01*
X143202000Y-96310476D01*
X143168666Y-96386666D01*
X143135333Y-96424761D01*
X143068666Y-96462857D01*
X142835333Y-96462857D01*
X143468666Y-96081904D02*
X143935333Y-96081904D01*
X143635333Y-96881904D01*
X139374666Y-96881904D02*
X139374666Y-96081904D01*
X139641333Y-96081904D01*
X139708000Y-96120000D01*
X139741333Y-96158095D01*
X139774666Y-96234285D01*
X139774666Y-96348571D01*
X139741333Y-96424761D01*
X139708000Y-96462857D01*
X139641333Y-96500952D01*
X139374666Y-96500952D01*
X140074666Y-96462857D02*
X140308000Y-96462857D01*
X140408000Y-96881904D02*
X140074666Y-96881904D01*
X140074666Y-96081904D01*
X140408000Y-96081904D01*
X140641333Y-96081904D02*
X141074666Y-96081904D01*
X140841333Y-96386666D01*
X140941333Y-96386666D01*
X141008000Y-96424761D01*
X141041333Y-96462857D01*
X141074666Y-96539047D01*
X141074666Y-96729523D01*
X141041333Y-96805714D01*
X141008000Y-96843809D01*
X140941333Y-96881904D01*
X140741333Y-96881904D01*
X140674666Y-96843809D01*
X140641333Y-96805714D01*
X147502666Y-99675904D02*
X147502666Y-98875904D01*
X147769333Y-98875904D01*
X147836000Y-98914000D01*
X147869333Y-98952095D01*
X147902666Y-99028285D01*
X147902666Y-99142571D01*
X147869333Y-99218761D01*
X147836000Y-99256857D01*
X147769333Y-99294952D01*
X147502666Y-99294952D01*
X148202666Y-99256857D02*
X148436000Y-99256857D01*
X148536000Y-99675904D02*
X148202666Y-99675904D01*
X148202666Y-98875904D01*
X148536000Y-98875904D01*
X149136000Y-98875904D02*
X149002666Y-98875904D01*
X148936000Y-98914000D01*
X148902666Y-98952095D01*
X148836000Y-99066380D01*
X148802666Y-99218761D01*
X148802666Y-99523523D01*
X148836000Y-99599714D01*
X148869333Y-99637809D01*
X148936000Y-99675904D01*
X149069333Y-99675904D01*
X149136000Y-99637809D01*
X149169333Y-99599714D01*
X149202666Y-99523523D01*
X149202666Y-99333047D01*
X149169333Y-99256857D01*
X149136000Y-99218761D01*
X149069333Y-99180666D01*
X148936000Y-99180666D01*
X148869333Y-99218761D01*
X148836000Y-99256857D01*
X148802666Y-99333047D01*
X144929333Y-99675904D02*
X144929333Y-98875904D01*
X145196000Y-98875904D01*
X145262666Y-98914000D01*
X145296000Y-98952095D01*
X145329333Y-99028285D01*
X145329333Y-99142571D01*
X145296000Y-99218761D01*
X145262666Y-99256857D01*
X145196000Y-99294952D01*
X144929333Y-99294952D01*
X145629333Y-99675904D02*
X145629333Y-98875904D01*
X145796000Y-98875904D01*
X145896000Y-98914000D01*
X145962666Y-98990190D01*
X145996000Y-99066380D01*
X146029333Y-99218761D01*
X146029333Y-99333047D01*
X145996000Y-99485428D01*
X145962666Y-99561619D01*
X145896000Y-99637809D01*
X145796000Y-99675904D01*
X145629333Y-99675904D01*
X146462666Y-98875904D02*
X146529333Y-98875904D01*
X146596000Y-98914000D01*
X146629333Y-98952095D01*
X146662666Y-99028285D01*
X146696000Y-99180666D01*
X146696000Y-99371142D01*
X146662666Y-99523523D01*
X146629333Y-99599714D01*
X146596000Y-99637809D01*
X146529333Y-99675904D01*
X146462666Y-99675904D01*
X146396000Y-99637809D01*
X146362666Y-99599714D01*
X146329333Y-99523523D01*
X146296000Y-99371142D01*
X146296000Y-99180666D01*
X146329333Y-99028285D01*
X146362666Y-98952095D01*
X146396000Y-98914000D01*
X146462666Y-98875904D01*
X142168666Y-99675904D02*
X142168666Y-98875904D01*
X142435333Y-98875904D01*
X142502000Y-98914000D01*
X142535333Y-98952095D01*
X142568666Y-99028285D01*
X142568666Y-99142571D01*
X142535333Y-99218761D01*
X142502000Y-99256857D01*
X142435333Y-99294952D01*
X142168666Y-99294952D01*
X142868666Y-99256857D02*
X143102000Y-99256857D01*
X143202000Y-99675904D02*
X142868666Y-99675904D01*
X142868666Y-98875904D01*
X143202000Y-98875904D01*
X143635333Y-98875904D02*
X143702000Y-98875904D01*
X143768666Y-98914000D01*
X143802000Y-98952095D01*
X143835333Y-99028285D01*
X143868666Y-99180666D01*
X143868666Y-99371142D01*
X143835333Y-99523523D01*
X143802000Y-99599714D01*
X143768666Y-99637809D01*
X143702000Y-99675904D01*
X143635333Y-99675904D01*
X143568666Y-99637809D01*
X143535333Y-99599714D01*
X143502000Y-99523523D01*
X143468666Y-99371142D01*
X143468666Y-99180666D01*
X143502000Y-99028285D01*
X143535333Y-98952095D01*
X143568666Y-98914000D01*
X143635333Y-98875904D01*
X139341333Y-99675904D02*
X139341333Y-98875904D01*
X139608000Y-98875904D01*
X139674666Y-98914000D01*
X139708000Y-98952095D01*
X139741333Y-99028285D01*
X139741333Y-99142571D01*
X139708000Y-99218761D01*
X139674666Y-99256857D01*
X139608000Y-99294952D01*
X139341333Y-99294952D01*
X140041333Y-99675904D02*
X140041333Y-98875904D01*
X140208000Y-98875904D01*
X140308000Y-98914000D01*
X140374666Y-98990190D01*
X140408000Y-99066380D01*
X140441333Y-99218761D01*
X140441333Y-99333047D01*
X140408000Y-99485428D01*
X140374666Y-99561619D01*
X140308000Y-99637809D01*
X140208000Y-99675904D01*
X140041333Y-99675904D01*
X140674666Y-98875904D02*
X141141333Y-98875904D01*
X140841333Y-99675904D01*
X148406000Y-109581904D02*
X148406000Y-108781904D01*
X148672666Y-108781904D01*
X148739333Y-108820000D01*
X148772666Y-108858095D01*
X148806000Y-108934285D01*
X148806000Y-109048571D01*
X148772666Y-109124761D01*
X148739333Y-109162857D01*
X148672666Y-109200952D01*
X148406000Y-109200952D01*
X149506000Y-109505714D02*
X149472666Y-109543809D01*
X149372666Y-109581904D01*
X149306000Y-109581904D01*
X149206000Y-109543809D01*
X149139333Y-109467619D01*
X149106000Y-109391428D01*
X149072666Y-109239047D01*
X149072666Y-109124761D01*
X149106000Y-108972380D01*
X149139333Y-108896190D01*
X149206000Y-108820000D01*
X149306000Y-108781904D01*
X149372666Y-108781904D01*
X149472666Y-108820000D01*
X149506000Y-108858095D01*
X150172666Y-109581904D02*
X149772666Y-109581904D01*
X149972666Y-109581904D02*
X149972666Y-108781904D01*
X149906000Y-108896190D01*
X149839333Y-108972380D01*
X149772666Y-109010476D01*
X150406000Y-108781904D02*
X150839333Y-108781904D01*
X150606000Y-109086666D01*
X150706000Y-109086666D01*
X150772666Y-109124761D01*
X150806000Y-109162857D01*
X150839333Y-109239047D01*
X150839333Y-109429523D01*
X150806000Y-109505714D01*
X150772666Y-109543809D01*
X150706000Y-109581904D01*
X150506000Y-109581904D01*
X150439333Y-109543809D01*
X150406000Y-109505714D01*
X145358000Y-109581904D02*
X145358000Y-108781904D01*
X145624666Y-108781904D01*
X145691333Y-108820000D01*
X145724666Y-108858095D01*
X145758000Y-108934285D01*
X145758000Y-109048571D01*
X145724666Y-109124761D01*
X145691333Y-109162857D01*
X145624666Y-109200952D01*
X145358000Y-109200952D01*
X146458000Y-109505714D02*
X146424666Y-109543809D01*
X146324666Y-109581904D01*
X146258000Y-109581904D01*
X146158000Y-109543809D01*
X146091333Y-109467619D01*
X146058000Y-109391428D01*
X146024666Y-109239047D01*
X146024666Y-109124761D01*
X146058000Y-108972380D01*
X146091333Y-108896190D01*
X146158000Y-108820000D01*
X146258000Y-108781904D01*
X146324666Y-108781904D01*
X146424666Y-108820000D01*
X146458000Y-108858095D01*
X147124666Y-109581904D02*
X146724666Y-109581904D01*
X146924666Y-109581904D02*
X146924666Y-108781904D01*
X146858000Y-108896190D01*
X146791333Y-108972380D01*
X146724666Y-109010476D01*
X147758000Y-108781904D02*
X147424666Y-108781904D01*
X147391333Y-109162857D01*
X147424666Y-109124761D01*
X147491333Y-109086666D01*
X147658000Y-109086666D01*
X147724666Y-109124761D01*
X147758000Y-109162857D01*
X147791333Y-109239047D01*
X147791333Y-109429523D01*
X147758000Y-109505714D01*
X147724666Y-109543809D01*
X147658000Y-109581904D01*
X147491333Y-109581904D01*
X147424666Y-109543809D01*
X147391333Y-109505714D01*
X141373333Y-109581904D02*
X141373333Y-108781904D01*
X141640000Y-108781904D01*
X141706666Y-108820000D01*
X141740000Y-108858095D01*
X141773333Y-108934285D01*
X141773333Y-109048571D01*
X141740000Y-109124761D01*
X141706666Y-109162857D01*
X141640000Y-109200952D01*
X141373333Y-109200952D01*
X142306666Y-109162857D02*
X142406666Y-109200952D01*
X142440000Y-109239047D01*
X142473333Y-109315238D01*
X142473333Y-109429523D01*
X142440000Y-109505714D01*
X142406666Y-109543809D01*
X142340000Y-109581904D01*
X142073333Y-109581904D01*
X142073333Y-108781904D01*
X142306666Y-108781904D01*
X142373333Y-108820000D01*
X142406666Y-108858095D01*
X142440000Y-108934285D01*
X142440000Y-109010476D01*
X142406666Y-109086666D01*
X142373333Y-109124761D01*
X142306666Y-109162857D01*
X142073333Y-109162857D01*
X142873333Y-109124761D02*
X142806666Y-109086666D01*
X142773333Y-109048571D01*
X142740000Y-108972380D01*
X142740000Y-108934285D01*
X142773333Y-108858095D01*
X142806666Y-108820000D01*
X142873333Y-108781904D01*
X143006666Y-108781904D01*
X143073333Y-108820000D01*
X143106666Y-108858095D01*
X143140000Y-108934285D01*
X143140000Y-108972380D01*
X143106666Y-109048571D01*
X143073333Y-109086666D01*
X143006666Y-109124761D01*
X142873333Y-109124761D01*
X142806666Y-109162857D01*
X142773333Y-109200952D01*
X142740000Y-109277142D01*
X142740000Y-109429523D01*
X142773333Y-109505714D01*
X142806666Y-109543809D01*
X142873333Y-109581904D01*
X143006666Y-109581904D01*
X143073333Y-109543809D01*
X143106666Y-109505714D01*
X143140000Y-109429523D01*
X143140000Y-109277142D01*
X143106666Y-109200952D01*
X143073333Y-109162857D01*
X143006666Y-109124761D01*
X138833333Y-109581904D02*
X138833333Y-108781904D01*
X139100000Y-108781904D01*
X139166666Y-108820000D01*
X139200000Y-108858095D01*
X139233333Y-108934285D01*
X139233333Y-109048571D01*
X139200000Y-109124761D01*
X139166666Y-109162857D01*
X139100000Y-109200952D01*
X138833333Y-109200952D01*
X139533333Y-109581904D02*
X139533333Y-108781904D01*
X139700000Y-108781904D01*
X139800000Y-108820000D01*
X139866666Y-108896190D01*
X139900000Y-108972380D01*
X139933333Y-109124761D01*
X139933333Y-109239047D01*
X139900000Y-109391428D01*
X139866666Y-109467619D01*
X139800000Y-109543809D01*
X139700000Y-109581904D01*
X139533333Y-109581904D01*
X140266666Y-109581904D02*
X140400000Y-109581904D01*
X140466666Y-109543809D01*
X140500000Y-109505714D01*
X140566666Y-109391428D01*
X140600000Y-109239047D01*
X140600000Y-108934285D01*
X140566666Y-108858095D01*
X140533333Y-108820000D01*
X140466666Y-108781904D01*
X140333333Y-108781904D01*
X140266666Y-108820000D01*
X140233333Y-108858095D01*
X140200000Y-108934285D01*
X140200000Y-109124761D01*
X140233333Y-109200952D01*
X140266666Y-109239047D01*
X140333333Y-109277142D01*
X140466666Y-109277142D01*
X140533333Y-109239047D01*
X140566666Y-109200952D01*
X140600000Y-109124761D01*
X146878000Y-111956857D02*
X146978000Y-111994952D01*
X147011333Y-112033047D01*
X147044666Y-112109238D01*
X147044666Y-112223523D01*
X147011333Y-112299714D01*
X146978000Y-112337809D01*
X146911333Y-112375904D01*
X146644666Y-112375904D01*
X146644666Y-111575904D01*
X146878000Y-111575904D01*
X146944666Y-111614000D01*
X146978000Y-111652095D01*
X147011333Y-111728285D01*
X147011333Y-111804476D01*
X146978000Y-111880666D01*
X146944666Y-111918761D01*
X146878000Y-111956857D01*
X146644666Y-111956857D01*
X147478000Y-111575904D02*
X147611333Y-111575904D01*
X147678000Y-111614000D01*
X147744666Y-111690190D01*
X147778000Y-111842571D01*
X147778000Y-112109238D01*
X147744666Y-112261619D01*
X147678000Y-112337809D01*
X147611333Y-112375904D01*
X147478000Y-112375904D01*
X147411333Y-112337809D01*
X147344666Y-112261619D01*
X147311333Y-112109238D01*
X147311333Y-111842571D01*
X147344666Y-111690190D01*
X147411333Y-111614000D01*
X147478000Y-111575904D01*
X148211333Y-111575904D02*
X148344666Y-111575904D01*
X148411333Y-111614000D01*
X148478000Y-111690190D01*
X148511333Y-111842571D01*
X148511333Y-112109238D01*
X148478000Y-112261619D01*
X148411333Y-112337809D01*
X148344666Y-112375904D01*
X148211333Y-112375904D01*
X148144666Y-112337809D01*
X148078000Y-112261619D01*
X148044666Y-112109238D01*
X148044666Y-111842571D01*
X148078000Y-111690190D01*
X148144666Y-111614000D01*
X148211333Y-111575904D01*
X148711333Y-111575904D02*
X149111333Y-111575904D01*
X148911333Y-112375904D02*
X148911333Y-111575904D01*
X144150666Y-112375904D02*
X144150666Y-111575904D01*
X144417333Y-111575904D01*
X144484000Y-111614000D01*
X144517333Y-111652095D01*
X144550666Y-111728285D01*
X144550666Y-111842571D01*
X144517333Y-111918761D01*
X144484000Y-111956857D01*
X144417333Y-111994952D01*
X144150666Y-111994952D01*
X144850666Y-112375904D02*
X144850666Y-111575904D01*
X144850666Y-111956857D02*
X145250666Y-111956857D01*
X145250666Y-112375904D02*
X145250666Y-111575904D01*
X145950666Y-112375904D02*
X145550666Y-112375904D01*
X145750666Y-112375904D02*
X145750666Y-111575904D01*
X145684000Y-111690190D01*
X145617333Y-111766380D01*
X145550666Y-111804476D01*
X141356666Y-112375904D02*
X141356666Y-111575904D01*
X141623333Y-111575904D01*
X141690000Y-111614000D01*
X141723333Y-111652095D01*
X141756666Y-111728285D01*
X141756666Y-111842571D01*
X141723333Y-111918761D01*
X141690000Y-111956857D01*
X141623333Y-111994952D01*
X141356666Y-111994952D01*
X142056666Y-112375904D02*
X142056666Y-111575904D01*
X142056666Y-111956857D02*
X142456666Y-111956857D01*
X142456666Y-112375904D02*
X142456666Y-111575904D01*
X142923333Y-111575904D02*
X142990000Y-111575904D01*
X143056666Y-111614000D01*
X143090000Y-111652095D01*
X143123333Y-111728285D01*
X143156666Y-111880666D01*
X143156666Y-112071142D01*
X143123333Y-112223523D01*
X143090000Y-112299714D01*
X143056666Y-112337809D01*
X142990000Y-112375904D01*
X142923333Y-112375904D01*
X142856666Y-112337809D01*
X142823333Y-112299714D01*
X142790000Y-112223523D01*
X142756666Y-112071142D01*
X142756666Y-111880666D01*
X142790000Y-111728285D01*
X142823333Y-111652095D01*
X142856666Y-111614000D01*
X142923333Y-111575904D01*
X138883333Y-112375904D02*
X138883333Y-111575904D01*
X139150000Y-111575904D01*
X139216666Y-111614000D01*
X139250000Y-111652095D01*
X139283333Y-111728285D01*
X139283333Y-111842571D01*
X139250000Y-111918761D01*
X139216666Y-111956857D01*
X139150000Y-111994952D01*
X138883333Y-111994952D01*
X139550000Y-112147333D02*
X139883333Y-112147333D01*
X139483333Y-112375904D02*
X139716666Y-111575904D01*
X139950000Y-112375904D01*
X140116666Y-111575904D02*
X140550000Y-111575904D01*
X140316666Y-111880666D01*
X140416666Y-111880666D01*
X140483333Y-111918761D01*
X140516666Y-111956857D01*
X140550000Y-112033047D01*
X140550000Y-112223523D01*
X140516666Y-112299714D01*
X140483333Y-112337809D01*
X140416666Y-112375904D01*
X140216666Y-112375904D01*
X140150000Y-112337809D01*
X140116666Y-112299714D01*
X147011333Y-114661904D02*
X147011333Y-113861904D01*
X147278000Y-113861904D01*
X147344666Y-113900000D01*
X147378000Y-113938095D01*
X147411333Y-114014285D01*
X147411333Y-114128571D01*
X147378000Y-114204761D01*
X147344666Y-114242857D01*
X147278000Y-114280952D01*
X147011333Y-114280952D01*
X147678000Y-114433333D02*
X148011333Y-114433333D01*
X147611333Y-114661904D02*
X147844666Y-113861904D01*
X148078000Y-114661904D01*
X148611333Y-114128571D02*
X148611333Y-114661904D01*
X148444666Y-113823809D02*
X148278000Y-114395238D01*
X148711333Y-114395238D01*
X144471333Y-114661904D02*
X144471333Y-113861904D01*
X144738000Y-113861904D01*
X144804666Y-113900000D01*
X144838000Y-113938095D01*
X144871333Y-114014285D01*
X144871333Y-114128571D01*
X144838000Y-114204761D01*
X144804666Y-114242857D01*
X144738000Y-114280952D01*
X144471333Y-114280952D01*
X145138000Y-114433333D02*
X145471333Y-114433333D01*
X145071333Y-114661904D02*
X145304666Y-113861904D01*
X145538000Y-114661904D01*
X145904666Y-113861904D02*
X145971333Y-113861904D01*
X146038000Y-113900000D01*
X146071333Y-113938095D01*
X146104666Y-114014285D01*
X146138000Y-114166666D01*
X146138000Y-114357142D01*
X146104666Y-114509523D01*
X146071333Y-114585714D01*
X146038000Y-114623809D01*
X145971333Y-114661904D01*
X145904666Y-114661904D01*
X145838000Y-114623809D01*
X145804666Y-114585714D01*
X145771333Y-114509523D01*
X145738000Y-114357142D01*
X145738000Y-114166666D01*
X145771333Y-114014285D01*
X145804666Y-113938095D01*
X145838000Y-113900000D01*
X145904666Y-113861904D01*
X141344000Y-114661904D02*
X141344000Y-113861904D01*
X141610666Y-113861904D01*
X141677333Y-113900000D01*
X141710666Y-113938095D01*
X141744000Y-114014285D01*
X141744000Y-114128571D01*
X141710666Y-114204761D01*
X141677333Y-114242857D01*
X141610666Y-114280952D01*
X141344000Y-114280952D01*
X142010666Y-114433333D02*
X142344000Y-114433333D01*
X141944000Y-114661904D02*
X142177333Y-113861904D01*
X142410666Y-114661904D01*
X143010666Y-114661904D02*
X142610666Y-114661904D01*
X142810666Y-114661904D02*
X142810666Y-113861904D01*
X142744000Y-113976190D01*
X142677333Y-114052380D01*
X142610666Y-114090476D01*
X143610666Y-114128571D02*
X143610666Y-114661904D01*
X143444000Y-113823809D02*
X143277333Y-114395238D01*
X143710666Y-114395238D01*
X138883333Y-114661904D02*
X138883333Y-113861904D01*
X139150000Y-113861904D01*
X139216666Y-113900000D01*
X139250000Y-113938095D01*
X139283333Y-114014285D01*
X139283333Y-114128571D01*
X139250000Y-114204761D01*
X139216666Y-114242857D01*
X139150000Y-114280952D01*
X138883333Y-114280952D01*
X139550000Y-114433333D02*
X139883333Y-114433333D01*
X139483333Y-114661904D02*
X139716666Y-113861904D01*
X139950000Y-114661904D01*
X140516666Y-113861904D02*
X140183333Y-113861904D01*
X140150000Y-114242857D01*
X140183333Y-114204761D01*
X140250000Y-114166666D01*
X140416666Y-114166666D01*
X140483333Y-114204761D01*
X140516666Y-114242857D01*
X140550000Y-114319047D01*
X140550000Y-114509523D01*
X140516666Y-114585714D01*
X140483333Y-114623809D01*
X140416666Y-114661904D01*
X140250000Y-114661904D01*
X140183333Y-114623809D01*
X140150000Y-114585714D01*
X146882000Y-117201904D02*
X146882000Y-116401904D01*
X147148666Y-116401904D01*
X147215333Y-116440000D01*
X147248666Y-116478095D01*
X147282000Y-116554285D01*
X147282000Y-116668571D01*
X147248666Y-116744761D01*
X147215333Y-116782857D01*
X147148666Y-116820952D01*
X146882000Y-116820952D01*
X147948666Y-116440000D02*
X147882000Y-116401904D01*
X147782000Y-116401904D01*
X147682000Y-116440000D01*
X147615333Y-116516190D01*
X147582000Y-116592380D01*
X147548666Y-116744761D01*
X147548666Y-116859047D01*
X147582000Y-117011428D01*
X147615333Y-117087619D01*
X147682000Y-117163809D01*
X147782000Y-117201904D01*
X147848666Y-117201904D01*
X147948666Y-117163809D01*
X147982000Y-117125714D01*
X147982000Y-116859047D01*
X147848666Y-116859047D01*
X148648666Y-117201904D02*
X148248666Y-117201904D01*
X148448666Y-117201904D02*
X148448666Y-116401904D01*
X148382000Y-116516190D01*
X148315333Y-116592380D01*
X148248666Y-116630476D01*
X149248666Y-116668571D02*
X149248666Y-117201904D01*
X149082000Y-116363809D02*
X148915333Y-116935238D01*
X149348666Y-116935238D01*
X144421333Y-117201904D02*
X144421333Y-116401904D01*
X144688000Y-116401904D01*
X144754666Y-116440000D01*
X144788000Y-116478095D01*
X144821333Y-116554285D01*
X144821333Y-116668571D01*
X144788000Y-116744761D01*
X144754666Y-116782857D01*
X144688000Y-116820952D01*
X144421333Y-116820952D01*
X145521333Y-117125714D02*
X145488000Y-117163809D01*
X145388000Y-117201904D01*
X145321333Y-117201904D01*
X145221333Y-117163809D01*
X145154666Y-117087619D01*
X145121333Y-117011428D01*
X145088000Y-116859047D01*
X145088000Y-116744761D01*
X145121333Y-116592380D01*
X145154666Y-116516190D01*
X145221333Y-116440000D01*
X145321333Y-116401904D01*
X145388000Y-116401904D01*
X145488000Y-116440000D01*
X145521333Y-116478095D01*
X145754666Y-116401904D02*
X146188000Y-116401904D01*
X145954666Y-116706666D01*
X146054666Y-116706666D01*
X146121333Y-116744761D01*
X146154666Y-116782857D01*
X146188000Y-116859047D01*
X146188000Y-117049523D01*
X146154666Y-117125714D01*
X146121333Y-117163809D01*
X146054666Y-117201904D01*
X145854666Y-117201904D01*
X145788000Y-117163809D01*
X145754666Y-117125714D01*
X141627333Y-117201904D02*
X141627333Y-116401904D01*
X141894000Y-116401904D01*
X141960666Y-116440000D01*
X141994000Y-116478095D01*
X142027333Y-116554285D01*
X142027333Y-116668571D01*
X141994000Y-116744761D01*
X141960666Y-116782857D01*
X141894000Y-116820952D01*
X141627333Y-116820952D01*
X142727333Y-117125714D02*
X142694000Y-117163809D01*
X142594000Y-117201904D01*
X142527333Y-117201904D01*
X142427333Y-117163809D01*
X142360666Y-117087619D01*
X142327333Y-117011428D01*
X142294000Y-116859047D01*
X142294000Y-116744761D01*
X142327333Y-116592380D01*
X142360666Y-116516190D01*
X142427333Y-116440000D01*
X142527333Y-116401904D01*
X142594000Y-116401904D01*
X142694000Y-116440000D01*
X142727333Y-116478095D01*
X142994000Y-116478095D02*
X143027333Y-116440000D01*
X143094000Y-116401904D01*
X143260666Y-116401904D01*
X143327333Y-116440000D01*
X143360666Y-116478095D01*
X143394000Y-116554285D01*
X143394000Y-116630476D01*
X143360666Y-116744761D01*
X142960666Y-117201904D01*
X143394000Y-117201904D01*
X138866666Y-117201904D02*
X138866666Y-116401904D01*
X139133333Y-116401904D01*
X139200000Y-116440000D01*
X139233333Y-116478095D01*
X139266666Y-116554285D01*
X139266666Y-116668571D01*
X139233333Y-116744761D01*
X139200000Y-116782857D01*
X139133333Y-116820952D01*
X138866666Y-116820952D01*
X139566666Y-116782857D02*
X139800000Y-116782857D01*
X139900000Y-117201904D02*
X139566666Y-117201904D01*
X139566666Y-116401904D01*
X139900000Y-116401904D01*
X140166666Y-116478095D02*
X140200000Y-116440000D01*
X140266666Y-116401904D01*
X140433333Y-116401904D01*
X140500000Y-116440000D01*
X140533333Y-116478095D01*
X140566666Y-116554285D01*
X140566666Y-116630476D01*
X140533333Y-116744761D01*
X140133333Y-117201904D01*
X140566666Y-117201904D01*
X148027333Y-119741904D02*
X148027333Y-118941904D01*
X148294000Y-118941904D01*
X148360666Y-118980000D01*
X148394000Y-119018095D01*
X148427333Y-119094285D01*
X148427333Y-119208571D01*
X148394000Y-119284761D01*
X148360666Y-119322857D01*
X148294000Y-119360952D01*
X148027333Y-119360952D01*
X148694000Y-119513333D02*
X149027333Y-119513333D01*
X148627333Y-119741904D02*
X148860666Y-118941904D01*
X149094000Y-119741904D01*
X149294000Y-119018095D02*
X149327333Y-118980000D01*
X149394000Y-118941904D01*
X149560666Y-118941904D01*
X149627333Y-118980000D01*
X149660666Y-119018095D01*
X149694000Y-119094285D01*
X149694000Y-119170476D01*
X149660666Y-119284761D01*
X149260666Y-119741904D01*
X149694000Y-119741904D01*
X145437333Y-119741904D02*
X145437333Y-118941904D01*
X145704000Y-118941904D01*
X145770666Y-118980000D01*
X145804000Y-119018095D01*
X145837333Y-119094285D01*
X145837333Y-119208571D01*
X145804000Y-119284761D01*
X145770666Y-119322857D01*
X145704000Y-119360952D01*
X145437333Y-119360952D01*
X146537333Y-119665714D02*
X146504000Y-119703809D01*
X146404000Y-119741904D01*
X146337333Y-119741904D01*
X146237333Y-119703809D01*
X146170666Y-119627619D01*
X146137333Y-119551428D01*
X146104000Y-119399047D01*
X146104000Y-119284761D01*
X146137333Y-119132380D01*
X146170666Y-119056190D01*
X146237333Y-118980000D01*
X146337333Y-118941904D01*
X146404000Y-118941904D01*
X146504000Y-118980000D01*
X146537333Y-119018095D01*
X147204000Y-119741904D02*
X146804000Y-119741904D01*
X147004000Y-119741904D02*
X147004000Y-118941904D01*
X146937333Y-119056190D01*
X146870666Y-119132380D01*
X146804000Y-119170476D01*
X142056000Y-119741904D02*
X142056000Y-118941904D01*
X142322666Y-118941904D01*
X142389333Y-118980000D01*
X142422666Y-119018095D01*
X142456000Y-119094285D01*
X142456000Y-119208571D01*
X142422666Y-119284761D01*
X142389333Y-119322857D01*
X142322666Y-119360952D01*
X142056000Y-119360952D01*
X142989333Y-119322857D02*
X143089333Y-119360952D01*
X143122666Y-119399047D01*
X143156000Y-119475238D01*
X143156000Y-119589523D01*
X143122666Y-119665714D01*
X143089333Y-119703809D01*
X143022666Y-119741904D01*
X142756000Y-119741904D01*
X142756000Y-118941904D01*
X142989333Y-118941904D01*
X143056000Y-118980000D01*
X143089333Y-119018095D01*
X143122666Y-119094285D01*
X143122666Y-119170476D01*
X143089333Y-119246666D01*
X143056000Y-119284761D01*
X142989333Y-119322857D01*
X142756000Y-119322857D01*
X143822666Y-119741904D02*
X143422666Y-119741904D01*
X143622666Y-119741904D02*
X143622666Y-118941904D01*
X143556000Y-119056190D01*
X143489333Y-119132380D01*
X143422666Y-119170476D01*
X144489333Y-119741904D02*
X144089333Y-119741904D01*
X144289333Y-119741904D02*
X144289333Y-118941904D01*
X144222666Y-119056190D01*
X144156000Y-119132380D01*
X144089333Y-119170476D01*
X138754000Y-119741904D02*
X138754000Y-118941904D01*
X139020666Y-118941904D01*
X139087333Y-118980000D01*
X139120666Y-119018095D01*
X139154000Y-119094285D01*
X139154000Y-119208571D01*
X139120666Y-119284761D01*
X139087333Y-119322857D01*
X139020666Y-119360952D01*
X138754000Y-119360952D01*
X139820666Y-118980000D02*
X139754000Y-118941904D01*
X139654000Y-118941904D01*
X139554000Y-118980000D01*
X139487333Y-119056190D01*
X139454000Y-119132380D01*
X139420666Y-119284761D01*
X139420666Y-119399047D01*
X139454000Y-119551428D01*
X139487333Y-119627619D01*
X139554000Y-119703809D01*
X139654000Y-119741904D01*
X139720666Y-119741904D01*
X139820666Y-119703809D01*
X139854000Y-119665714D01*
X139854000Y-119399047D01*
X139720666Y-119399047D01*
X140520666Y-119741904D02*
X140120666Y-119741904D01*
X140320666Y-119741904D02*
X140320666Y-118941904D01*
X140254000Y-119056190D01*
X140187333Y-119132380D01*
X140120666Y-119170476D01*
X140754000Y-118941904D02*
X141187333Y-118941904D01*
X140954000Y-119246666D01*
X141054000Y-119246666D01*
X141120666Y-119284761D01*
X141154000Y-119322857D01*
X141187333Y-119399047D01*
X141187333Y-119589523D01*
X141154000Y-119665714D01*
X141120666Y-119703809D01*
X141054000Y-119741904D01*
X140854000Y-119741904D01*
X140787333Y-119703809D01*
X140754000Y-119665714D01*
X147723333Y-122281904D02*
X147723333Y-121481904D01*
X147990000Y-121481904D01*
X148056666Y-121520000D01*
X148090000Y-121558095D01*
X148123333Y-121634285D01*
X148123333Y-121748571D01*
X148090000Y-121824761D01*
X148056666Y-121862857D01*
X147990000Y-121900952D01*
X147723333Y-121900952D01*
X148823333Y-122205714D02*
X148790000Y-122243809D01*
X148690000Y-122281904D01*
X148623333Y-122281904D01*
X148523333Y-122243809D01*
X148456666Y-122167619D01*
X148423333Y-122091428D01*
X148390000Y-121939047D01*
X148390000Y-121824761D01*
X148423333Y-121672380D01*
X148456666Y-121596190D01*
X148523333Y-121520000D01*
X148623333Y-121481904D01*
X148690000Y-121481904D01*
X148790000Y-121520000D01*
X148823333Y-121558095D01*
X149423333Y-121748571D02*
X149423333Y-122281904D01*
X149256666Y-121443809D02*
X149090000Y-122015238D01*
X149523333Y-122015238D01*
X144421333Y-122281904D02*
X144421333Y-121481904D01*
X144688000Y-121481904D01*
X144754666Y-121520000D01*
X144788000Y-121558095D01*
X144821333Y-121634285D01*
X144821333Y-121748571D01*
X144788000Y-121824761D01*
X144754666Y-121862857D01*
X144688000Y-121900952D01*
X144421333Y-121900952D01*
X145521333Y-122205714D02*
X145488000Y-122243809D01*
X145388000Y-122281904D01*
X145321333Y-122281904D01*
X145221333Y-122243809D01*
X145154666Y-122167619D01*
X145121333Y-122091428D01*
X145088000Y-121939047D01*
X145088000Y-121824761D01*
X145121333Y-121672380D01*
X145154666Y-121596190D01*
X145221333Y-121520000D01*
X145321333Y-121481904D01*
X145388000Y-121481904D01*
X145488000Y-121520000D01*
X145521333Y-121558095D01*
X146154666Y-121481904D02*
X145821333Y-121481904D01*
X145788000Y-121862857D01*
X145821333Y-121824761D01*
X145888000Y-121786666D01*
X146054666Y-121786666D01*
X146121333Y-121824761D01*
X146154666Y-121862857D01*
X146188000Y-121939047D01*
X146188000Y-122129523D01*
X146154666Y-122205714D01*
X146121333Y-122243809D01*
X146054666Y-122281904D01*
X145888000Y-122281904D01*
X145821333Y-122243809D01*
X145788000Y-122205714D01*
X141373333Y-122281904D02*
X141373333Y-121481904D01*
X141640000Y-121481904D01*
X141706666Y-121520000D01*
X141740000Y-121558095D01*
X141773333Y-121634285D01*
X141773333Y-121748571D01*
X141740000Y-121824761D01*
X141706666Y-121862857D01*
X141640000Y-121900952D01*
X141373333Y-121900952D01*
X142306666Y-121862857D02*
X142406666Y-121900952D01*
X142440000Y-121939047D01*
X142473333Y-122015238D01*
X142473333Y-122129523D01*
X142440000Y-122205714D01*
X142406666Y-122243809D01*
X142340000Y-122281904D01*
X142073333Y-122281904D01*
X142073333Y-121481904D01*
X142306666Y-121481904D01*
X142373333Y-121520000D01*
X142406666Y-121558095D01*
X142440000Y-121634285D01*
X142440000Y-121710476D01*
X142406666Y-121786666D01*
X142373333Y-121824761D01*
X142306666Y-121862857D01*
X142073333Y-121862857D01*
X142906666Y-121481904D02*
X142973333Y-121481904D01*
X143040000Y-121520000D01*
X143073333Y-121558095D01*
X143106666Y-121634285D01*
X143140000Y-121786666D01*
X143140000Y-121977142D01*
X143106666Y-122129523D01*
X143073333Y-122205714D01*
X143040000Y-122243809D01*
X142973333Y-122281904D01*
X142906666Y-122281904D01*
X142840000Y-122243809D01*
X142806666Y-122205714D01*
X142773333Y-122129523D01*
X142740000Y-121977142D01*
X142740000Y-121786666D01*
X142773333Y-121634285D01*
X142806666Y-121558095D01*
X142840000Y-121520000D01*
X142906666Y-121481904D01*
X138833333Y-122281904D02*
X138833333Y-121481904D01*
X139100000Y-121481904D01*
X139166666Y-121520000D01*
X139200000Y-121558095D01*
X139233333Y-121634285D01*
X139233333Y-121748571D01*
X139200000Y-121824761D01*
X139166666Y-121862857D01*
X139100000Y-121900952D01*
X138833333Y-121900952D01*
X139766666Y-121862857D02*
X139866666Y-121900952D01*
X139900000Y-121939047D01*
X139933333Y-122015238D01*
X139933333Y-122129523D01*
X139900000Y-122205714D01*
X139866666Y-122243809D01*
X139800000Y-122281904D01*
X139533333Y-122281904D01*
X139533333Y-121481904D01*
X139766666Y-121481904D01*
X139833333Y-121520000D01*
X139866666Y-121558095D01*
X139900000Y-121634285D01*
X139900000Y-121710476D01*
X139866666Y-121786666D01*
X139833333Y-121824761D01*
X139766666Y-121862857D01*
X139533333Y-121862857D01*
X140600000Y-122281904D02*
X140200000Y-122281904D01*
X140400000Y-122281904D02*
X140400000Y-121481904D01*
X140333333Y-121596190D01*
X140266666Y-121672380D01*
X140200000Y-121710476D01*
X147644000Y-124821904D02*
X147644000Y-124021904D01*
X147910666Y-124021904D01*
X147977333Y-124060000D01*
X148010666Y-124098095D01*
X148044000Y-124174285D01*
X148044000Y-124288571D01*
X148010666Y-124364761D01*
X147977333Y-124402857D01*
X147910666Y-124440952D01*
X147644000Y-124440952D01*
X148577333Y-124402857D02*
X148677333Y-124440952D01*
X148710666Y-124479047D01*
X148744000Y-124555238D01*
X148744000Y-124669523D01*
X148710666Y-124745714D01*
X148677333Y-124783809D01*
X148610666Y-124821904D01*
X148344000Y-124821904D01*
X148344000Y-124021904D01*
X148577333Y-124021904D01*
X148644000Y-124060000D01*
X148677333Y-124098095D01*
X148710666Y-124174285D01*
X148710666Y-124250476D01*
X148677333Y-124326666D01*
X148644000Y-124364761D01*
X148577333Y-124402857D01*
X148344000Y-124402857D01*
X149410666Y-124821904D02*
X149010666Y-124821904D01*
X149210666Y-124821904D02*
X149210666Y-124021904D01*
X149144000Y-124136190D01*
X149077333Y-124212380D01*
X149010666Y-124250476D01*
X149844000Y-124021904D02*
X149910666Y-124021904D01*
X149977333Y-124060000D01*
X150010666Y-124098095D01*
X150044000Y-124174285D01*
X150077333Y-124326666D01*
X150077333Y-124517142D01*
X150044000Y-124669523D01*
X150010666Y-124745714D01*
X149977333Y-124783809D01*
X149910666Y-124821904D01*
X149844000Y-124821904D01*
X149777333Y-124783809D01*
X149744000Y-124745714D01*
X149710666Y-124669523D01*
X149677333Y-124517142D01*
X149677333Y-124326666D01*
X149710666Y-124174285D01*
X149744000Y-124098095D01*
X149777333Y-124060000D01*
X149844000Y-124021904D01*
X144342000Y-124821904D02*
X144342000Y-124021904D01*
X144608666Y-124021904D01*
X144675333Y-124060000D01*
X144708666Y-124098095D01*
X144742000Y-124174285D01*
X144742000Y-124288571D01*
X144708666Y-124364761D01*
X144675333Y-124402857D01*
X144608666Y-124440952D01*
X144342000Y-124440952D01*
X145275333Y-124402857D02*
X145375333Y-124440952D01*
X145408666Y-124479047D01*
X145442000Y-124555238D01*
X145442000Y-124669523D01*
X145408666Y-124745714D01*
X145375333Y-124783809D01*
X145308666Y-124821904D01*
X145042000Y-124821904D01*
X145042000Y-124021904D01*
X145275333Y-124021904D01*
X145342000Y-124060000D01*
X145375333Y-124098095D01*
X145408666Y-124174285D01*
X145408666Y-124250476D01*
X145375333Y-124326666D01*
X145342000Y-124364761D01*
X145275333Y-124402857D01*
X145042000Y-124402857D01*
X146108666Y-124821904D02*
X145708666Y-124821904D01*
X145908666Y-124821904D02*
X145908666Y-124021904D01*
X145842000Y-124136190D01*
X145775333Y-124212380D01*
X145708666Y-124250476D01*
X146375333Y-124098095D02*
X146408666Y-124060000D01*
X146475333Y-124021904D01*
X146642000Y-124021904D01*
X146708666Y-124060000D01*
X146742000Y-124098095D01*
X146775333Y-124174285D01*
X146775333Y-124250476D01*
X146742000Y-124364761D01*
X146342000Y-124821904D01*
X146775333Y-124821904D01*
X141423333Y-124821904D02*
X141423333Y-124021904D01*
X141690000Y-124021904D01*
X141756666Y-124060000D01*
X141790000Y-124098095D01*
X141823333Y-124174285D01*
X141823333Y-124288571D01*
X141790000Y-124364761D01*
X141756666Y-124402857D01*
X141690000Y-124440952D01*
X141423333Y-124440952D01*
X142090000Y-124593333D02*
X142423333Y-124593333D01*
X142023333Y-124821904D02*
X142256666Y-124021904D01*
X142490000Y-124821904D01*
X143023333Y-124021904D02*
X142890000Y-124021904D01*
X142823333Y-124060000D01*
X142790000Y-124098095D01*
X142723333Y-124212380D01*
X142690000Y-124364761D01*
X142690000Y-124669523D01*
X142723333Y-124745714D01*
X142756666Y-124783809D01*
X142823333Y-124821904D01*
X142956666Y-124821904D01*
X143023333Y-124783809D01*
X143056666Y-124745714D01*
X143090000Y-124669523D01*
X143090000Y-124479047D01*
X143056666Y-124402857D01*
X143023333Y-124364761D01*
X142956666Y-124326666D01*
X142823333Y-124326666D01*
X142756666Y-124364761D01*
X142723333Y-124402857D01*
X142690000Y-124479047D01*
X138883333Y-124821904D02*
X138883333Y-124021904D01*
X139150000Y-124021904D01*
X139216666Y-124060000D01*
X139250000Y-124098095D01*
X139283333Y-124174285D01*
X139283333Y-124288571D01*
X139250000Y-124364761D01*
X139216666Y-124402857D01*
X139150000Y-124440952D01*
X138883333Y-124440952D01*
X139550000Y-124593333D02*
X139883333Y-124593333D01*
X139483333Y-124821904D02*
X139716666Y-124021904D01*
X139950000Y-124821904D01*
X140550000Y-124821904D02*
X140150000Y-124821904D01*
X140350000Y-124821904D02*
X140350000Y-124021904D01*
X140283333Y-124136190D01*
X140216666Y-124212380D01*
X140150000Y-124250476D01*
X147723333Y-127361904D02*
X147723333Y-126561904D01*
X147990000Y-126561904D01*
X148056666Y-126600000D01*
X148090000Y-126638095D01*
X148123333Y-126714285D01*
X148123333Y-126828571D01*
X148090000Y-126904761D01*
X148056666Y-126942857D01*
X147990000Y-126980952D01*
X147723333Y-126980952D01*
X148656666Y-126942857D02*
X148756666Y-126980952D01*
X148790000Y-127019047D01*
X148823333Y-127095238D01*
X148823333Y-127209523D01*
X148790000Y-127285714D01*
X148756666Y-127323809D01*
X148690000Y-127361904D01*
X148423333Y-127361904D01*
X148423333Y-126561904D01*
X148656666Y-126561904D01*
X148723333Y-126600000D01*
X148756666Y-126638095D01*
X148790000Y-126714285D01*
X148790000Y-126790476D01*
X148756666Y-126866666D01*
X148723333Y-126904761D01*
X148656666Y-126942857D01*
X148423333Y-126942857D01*
X149223333Y-126904761D02*
X149156666Y-126866666D01*
X149123333Y-126828571D01*
X149090000Y-126752380D01*
X149090000Y-126714285D01*
X149123333Y-126638095D01*
X149156666Y-126600000D01*
X149223333Y-126561904D01*
X149356666Y-126561904D01*
X149423333Y-126600000D01*
X149456666Y-126638095D01*
X149490000Y-126714285D01*
X149490000Y-126752380D01*
X149456666Y-126828571D01*
X149423333Y-126866666D01*
X149356666Y-126904761D01*
X149223333Y-126904761D01*
X149156666Y-126942857D01*
X149123333Y-126980952D01*
X149090000Y-127057142D01*
X149090000Y-127209523D01*
X149123333Y-127285714D01*
X149156666Y-127323809D01*
X149223333Y-127361904D01*
X149356666Y-127361904D01*
X149423333Y-127323809D01*
X149456666Y-127285714D01*
X149490000Y-127209523D01*
X149490000Y-127057142D01*
X149456666Y-126980952D01*
X149423333Y-126942857D01*
X149356666Y-126904761D01*
X144342000Y-127361904D02*
X144342000Y-126561904D01*
X144608666Y-126561904D01*
X144675333Y-126600000D01*
X144708666Y-126638095D01*
X144742000Y-126714285D01*
X144742000Y-126828571D01*
X144708666Y-126904761D01*
X144675333Y-126942857D01*
X144608666Y-126980952D01*
X144342000Y-126980952D01*
X145408666Y-126600000D02*
X145342000Y-126561904D01*
X145242000Y-126561904D01*
X145142000Y-126600000D01*
X145075333Y-126676190D01*
X145042000Y-126752380D01*
X145008666Y-126904761D01*
X145008666Y-127019047D01*
X145042000Y-127171428D01*
X145075333Y-127247619D01*
X145142000Y-127323809D01*
X145242000Y-127361904D01*
X145308666Y-127361904D01*
X145408666Y-127323809D01*
X145442000Y-127285714D01*
X145442000Y-127019047D01*
X145308666Y-127019047D01*
X146108666Y-127361904D02*
X145708666Y-127361904D01*
X145908666Y-127361904D02*
X145908666Y-126561904D01*
X145842000Y-126676190D01*
X145775333Y-126752380D01*
X145708666Y-126790476D01*
X146775333Y-127361904D02*
X146375333Y-127361904D01*
X146575333Y-127361904D02*
X146575333Y-126561904D01*
X146508666Y-126676190D01*
X146442000Y-126752380D01*
X146375333Y-126790476D01*
X141931333Y-127361904D02*
X141931333Y-126561904D01*
X142198000Y-126561904D01*
X142264666Y-126600000D01*
X142298000Y-126638095D01*
X142331333Y-126714285D01*
X142331333Y-126828571D01*
X142298000Y-126904761D01*
X142264666Y-126942857D01*
X142198000Y-126980952D01*
X141931333Y-126980952D01*
X142598000Y-127133333D02*
X142931333Y-127133333D01*
X142531333Y-127361904D02*
X142764666Y-126561904D01*
X142998000Y-127361904D01*
X143164666Y-126561904D02*
X143631333Y-126561904D01*
X143331333Y-127361904D01*
X138804000Y-127361904D02*
X138804000Y-126561904D01*
X139070666Y-126561904D01*
X139137333Y-126600000D01*
X139170666Y-126638095D01*
X139204000Y-126714285D01*
X139204000Y-126828571D01*
X139170666Y-126904761D01*
X139137333Y-126942857D01*
X139070666Y-126980952D01*
X138804000Y-126980952D01*
X139737333Y-126942857D02*
X139504000Y-126942857D01*
X139504000Y-127361904D02*
X139504000Y-126561904D01*
X139837333Y-126561904D01*
X140470666Y-127361904D02*
X140070666Y-127361904D01*
X140270666Y-127361904D02*
X140270666Y-126561904D01*
X140204000Y-126676190D01*
X140137333Y-126752380D01*
X140070666Y-126790476D01*
X141137333Y-127361904D02*
X140737333Y-127361904D01*
X140937333Y-127361904D02*
X140937333Y-126561904D01*
X140870666Y-126676190D01*
X140804000Y-126752380D01*
X140737333Y-126790476D01*
X147502666Y-129901904D02*
X147502666Y-129101904D01*
X147769333Y-129101904D01*
X147836000Y-129140000D01*
X147869333Y-129178095D01*
X147902666Y-129254285D01*
X147902666Y-129368571D01*
X147869333Y-129444761D01*
X147836000Y-129482857D01*
X147769333Y-129520952D01*
X147502666Y-129520952D01*
X148202666Y-129482857D02*
X148436000Y-129482857D01*
X148536000Y-129901904D02*
X148202666Y-129901904D01*
X148202666Y-129101904D01*
X148536000Y-129101904D01*
X148869333Y-129901904D02*
X149002666Y-129901904D01*
X149069333Y-129863809D01*
X149102666Y-129825714D01*
X149169333Y-129711428D01*
X149202666Y-129559047D01*
X149202666Y-129254285D01*
X149169333Y-129178095D01*
X149136000Y-129140000D01*
X149069333Y-129101904D01*
X148936000Y-129101904D01*
X148869333Y-129140000D01*
X148836000Y-129178095D01*
X148802666Y-129254285D01*
X148802666Y-129444761D01*
X148836000Y-129520952D01*
X148869333Y-129559047D01*
X148936000Y-129597142D01*
X149069333Y-129597142D01*
X149136000Y-129559047D01*
X149169333Y-129520952D01*
X149202666Y-129444761D01*
X144088000Y-129901904D02*
X144088000Y-129101904D01*
X144354666Y-129101904D01*
X144421333Y-129140000D01*
X144454666Y-129178095D01*
X144488000Y-129254285D01*
X144488000Y-129368571D01*
X144454666Y-129444761D01*
X144421333Y-129482857D01*
X144354666Y-129520952D01*
X144088000Y-129520952D01*
X145154666Y-129140000D02*
X145088000Y-129101904D01*
X144988000Y-129101904D01*
X144888000Y-129140000D01*
X144821333Y-129216190D01*
X144788000Y-129292380D01*
X144754666Y-129444761D01*
X144754666Y-129559047D01*
X144788000Y-129711428D01*
X144821333Y-129787619D01*
X144888000Y-129863809D01*
X144988000Y-129901904D01*
X145054666Y-129901904D01*
X145154666Y-129863809D01*
X145188000Y-129825714D01*
X145188000Y-129559047D01*
X145054666Y-129559047D01*
X145854666Y-129901904D02*
X145454666Y-129901904D01*
X145654666Y-129901904D02*
X145654666Y-129101904D01*
X145588000Y-129216190D01*
X145521333Y-129292380D01*
X145454666Y-129330476D01*
X146288000Y-129101904D02*
X146354666Y-129101904D01*
X146421333Y-129140000D01*
X146454666Y-129178095D01*
X146488000Y-129254285D01*
X146521333Y-129406666D01*
X146521333Y-129597142D01*
X146488000Y-129749523D01*
X146454666Y-129825714D01*
X146421333Y-129863809D01*
X146354666Y-129901904D01*
X146288000Y-129901904D01*
X146221333Y-129863809D01*
X146188000Y-129825714D01*
X146154666Y-129749523D01*
X146121333Y-129597142D01*
X146121333Y-129406666D01*
X146154666Y-129254285D01*
X146188000Y-129178095D01*
X146221333Y-129140000D01*
X146288000Y-129101904D01*
X141373333Y-129901904D02*
X141373333Y-129101904D01*
X141640000Y-129101904D01*
X141706666Y-129140000D01*
X141740000Y-129178095D01*
X141773333Y-129254285D01*
X141773333Y-129368571D01*
X141740000Y-129444761D01*
X141706666Y-129482857D01*
X141640000Y-129520952D01*
X141373333Y-129520952D01*
X142440000Y-129140000D02*
X142373333Y-129101904D01*
X142273333Y-129101904D01*
X142173333Y-129140000D01*
X142106666Y-129216190D01*
X142073333Y-129292380D01*
X142040000Y-129444761D01*
X142040000Y-129559047D01*
X142073333Y-129711428D01*
X142106666Y-129787619D01*
X142173333Y-129863809D01*
X142273333Y-129901904D01*
X142340000Y-129901904D01*
X142440000Y-129863809D01*
X142473333Y-129825714D01*
X142473333Y-129559047D01*
X142340000Y-129559047D01*
X142873333Y-129444761D02*
X142806666Y-129406666D01*
X142773333Y-129368571D01*
X142740000Y-129292380D01*
X142740000Y-129254285D01*
X142773333Y-129178095D01*
X142806666Y-129140000D01*
X142873333Y-129101904D01*
X143006666Y-129101904D01*
X143073333Y-129140000D01*
X143106666Y-129178095D01*
X143140000Y-129254285D01*
X143140000Y-129292380D01*
X143106666Y-129368571D01*
X143073333Y-129406666D01*
X143006666Y-129444761D01*
X142873333Y-129444761D01*
X142806666Y-129482857D01*
X142773333Y-129520952D01*
X142740000Y-129597142D01*
X142740000Y-129749523D01*
X142773333Y-129825714D01*
X142806666Y-129863809D01*
X142873333Y-129901904D01*
X143006666Y-129901904D01*
X143073333Y-129863809D01*
X143106666Y-129825714D01*
X143140000Y-129749523D01*
X143140000Y-129597142D01*
X143106666Y-129520952D01*
X143073333Y-129482857D01*
X143006666Y-129444761D01*
X138833333Y-129901904D02*
X138833333Y-129101904D01*
X139100000Y-129101904D01*
X139166666Y-129140000D01*
X139200000Y-129178095D01*
X139233333Y-129254285D01*
X139233333Y-129368571D01*
X139200000Y-129444761D01*
X139166666Y-129482857D01*
X139100000Y-129520952D01*
X138833333Y-129520952D01*
X139933333Y-129825714D02*
X139900000Y-129863809D01*
X139800000Y-129901904D01*
X139733333Y-129901904D01*
X139633333Y-129863809D01*
X139566666Y-129787619D01*
X139533333Y-129711428D01*
X139500000Y-129559047D01*
X139500000Y-129444761D01*
X139533333Y-129292380D01*
X139566666Y-129216190D01*
X139633333Y-129140000D01*
X139733333Y-129101904D01*
X139800000Y-129101904D01*
X139900000Y-129140000D01*
X139933333Y-129178095D01*
X140366666Y-129101904D02*
X140433333Y-129101904D01*
X140500000Y-129140000D01*
X140533333Y-129178095D01*
X140566666Y-129254285D01*
X140600000Y-129406666D01*
X140600000Y-129597142D01*
X140566666Y-129749523D01*
X140533333Y-129825714D01*
X140500000Y-129863809D01*
X140433333Y-129901904D01*
X140366666Y-129901904D01*
X140300000Y-129863809D01*
X140266666Y-129825714D01*
X140233333Y-129749523D01*
X140200000Y-129597142D01*
X140200000Y-129406666D01*
X140233333Y-129254285D01*
X140266666Y-129178095D01*
X140300000Y-129140000D01*
X140366666Y-129101904D01*
X147519333Y-132441904D02*
X147519333Y-131641904D01*
X147786000Y-131641904D01*
X147852666Y-131680000D01*
X147886000Y-131718095D01*
X147919333Y-131794285D01*
X147919333Y-131908571D01*
X147886000Y-131984761D01*
X147852666Y-132022857D01*
X147786000Y-132060952D01*
X147519333Y-132060952D01*
X148452666Y-132022857D02*
X148219333Y-132022857D01*
X148219333Y-132441904D02*
X148219333Y-131641904D01*
X148552666Y-131641904D01*
X148752666Y-131641904D02*
X149219333Y-131641904D01*
X148919333Y-132441904D01*
X144342000Y-132441904D02*
X144342000Y-131641904D01*
X144608666Y-131641904D01*
X144675333Y-131680000D01*
X144708666Y-131718095D01*
X144742000Y-131794285D01*
X144742000Y-131908571D01*
X144708666Y-131984761D01*
X144675333Y-132022857D01*
X144608666Y-132060952D01*
X144342000Y-132060952D01*
X145042000Y-132441904D02*
X145042000Y-131641904D01*
X145208666Y-131641904D01*
X145308666Y-131680000D01*
X145375333Y-131756190D01*
X145408666Y-131832380D01*
X145442000Y-131984761D01*
X145442000Y-132099047D01*
X145408666Y-132251428D01*
X145375333Y-132327619D01*
X145308666Y-132403809D01*
X145208666Y-132441904D01*
X145042000Y-132441904D01*
X146108666Y-132441904D02*
X145708666Y-132441904D01*
X145908666Y-132441904D02*
X145908666Y-131641904D01*
X145842000Y-131756190D01*
X145775333Y-131832380D01*
X145708666Y-131870476D01*
X146775333Y-132441904D02*
X146375333Y-132441904D01*
X146575333Y-132441904D02*
X146575333Y-131641904D01*
X146508666Y-131756190D01*
X146442000Y-131832380D01*
X146375333Y-131870476D01*
X141344000Y-132441904D02*
X141344000Y-131641904D01*
X141610666Y-131641904D01*
X141677333Y-131680000D01*
X141710666Y-131718095D01*
X141744000Y-131794285D01*
X141744000Y-131908571D01*
X141710666Y-131984761D01*
X141677333Y-132022857D01*
X141610666Y-132060952D01*
X141344000Y-132060952D01*
X142277333Y-132022857D02*
X142044000Y-132022857D01*
X142044000Y-132441904D02*
X142044000Y-131641904D01*
X142377333Y-131641904D01*
X143010666Y-132441904D02*
X142610666Y-132441904D01*
X142810666Y-132441904D02*
X142810666Y-131641904D01*
X142744000Y-131756190D01*
X142677333Y-131832380D01*
X142610666Y-131870476D01*
X143444000Y-131641904D02*
X143510666Y-131641904D01*
X143577333Y-131680000D01*
X143610666Y-131718095D01*
X143644000Y-131794285D01*
X143677333Y-131946666D01*
X143677333Y-132137142D01*
X143644000Y-132289523D01*
X143610666Y-132365714D01*
X143577333Y-132403809D01*
X143510666Y-132441904D01*
X143444000Y-132441904D01*
X143377333Y-132403809D01*
X143344000Y-132365714D01*
X143310666Y-132289523D01*
X143277333Y-132137142D01*
X143277333Y-131946666D01*
X143310666Y-131794285D01*
X143344000Y-131718095D01*
X143377333Y-131680000D01*
X143444000Y-131641904D01*
X138833333Y-132441904D02*
X138833333Y-131641904D01*
X139100000Y-131641904D01*
X139166666Y-131680000D01*
X139200000Y-131718095D01*
X139233333Y-131794285D01*
X139233333Y-131908571D01*
X139200000Y-131984761D01*
X139166666Y-132022857D01*
X139100000Y-132060952D01*
X138833333Y-132060952D01*
X139766666Y-132022857D02*
X139866666Y-132060952D01*
X139900000Y-132099047D01*
X139933333Y-132175238D01*
X139933333Y-132289523D01*
X139900000Y-132365714D01*
X139866666Y-132403809D01*
X139800000Y-132441904D01*
X139533333Y-132441904D01*
X139533333Y-131641904D01*
X139766666Y-131641904D01*
X139833333Y-131680000D01*
X139866666Y-131718095D01*
X139900000Y-131794285D01*
X139900000Y-131870476D01*
X139866666Y-131946666D01*
X139833333Y-131984761D01*
X139766666Y-132022857D01*
X139533333Y-132022857D01*
X140566666Y-131641904D02*
X140233333Y-131641904D01*
X140200000Y-132022857D01*
X140233333Y-131984761D01*
X140300000Y-131946666D01*
X140466666Y-131946666D01*
X140533333Y-131984761D01*
X140566666Y-132022857D01*
X140600000Y-132099047D01*
X140600000Y-132289523D01*
X140566666Y-132365714D01*
X140533333Y-132403809D01*
X140466666Y-132441904D01*
X140300000Y-132441904D01*
X140233333Y-132403809D01*
X140200000Y-132365714D01*
X147519333Y-134981904D02*
X147519333Y-134181904D01*
X147786000Y-134181904D01*
X147852666Y-134220000D01*
X147886000Y-134258095D01*
X147919333Y-134334285D01*
X147919333Y-134448571D01*
X147886000Y-134524761D01*
X147852666Y-134562857D01*
X147786000Y-134600952D01*
X147519333Y-134600952D01*
X148452666Y-134562857D02*
X148219333Y-134562857D01*
X148219333Y-134981904D02*
X148219333Y-134181904D01*
X148552666Y-134181904D01*
X148919333Y-134524761D02*
X148852666Y-134486666D01*
X148819333Y-134448571D01*
X148786000Y-134372380D01*
X148786000Y-134334285D01*
X148819333Y-134258095D01*
X148852666Y-134220000D01*
X148919333Y-134181904D01*
X149052666Y-134181904D01*
X149119333Y-134220000D01*
X149152666Y-134258095D01*
X149186000Y-134334285D01*
X149186000Y-134372380D01*
X149152666Y-134448571D01*
X149119333Y-134486666D01*
X149052666Y-134524761D01*
X148919333Y-134524761D01*
X148852666Y-134562857D01*
X148819333Y-134600952D01*
X148786000Y-134677142D01*
X148786000Y-134829523D01*
X148819333Y-134905714D01*
X148852666Y-134943809D01*
X148919333Y-134981904D01*
X149052666Y-134981904D01*
X149119333Y-134943809D01*
X149152666Y-134905714D01*
X149186000Y-134829523D01*
X149186000Y-134677142D01*
X149152666Y-134600952D01*
X149119333Y-134562857D01*
X149052666Y-134524761D01*
X144725333Y-134981904D02*
X144725333Y-134181904D01*
X144992000Y-134181904D01*
X145058666Y-134220000D01*
X145092000Y-134258095D01*
X145125333Y-134334285D01*
X145125333Y-134448571D01*
X145092000Y-134524761D01*
X145058666Y-134562857D01*
X144992000Y-134600952D01*
X144725333Y-134600952D01*
X145658666Y-134562857D02*
X145425333Y-134562857D01*
X145425333Y-134981904D02*
X145425333Y-134181904D01*
X145758666Y-134181904D01*
X146058666Y-134981904D02*
X146192000Y-134981904D01*
X146258666Y-134943809D01*
X146292000Y-134905714D01*
X146358666Y-134791428D01*
X146392000Y-134639047D01*
X146392000Y-134334285D01*
X146358666Y-134258095D01*
X146325333Y-134220000D01*
X146258666Y-134181904D01*
X146125333Y-134181904D01*
X146058666Y-134220000D01*
X146025333Y-134258095D01*
X145992000Y-134334285D01*
X145992000Y-134524761D01*
X146025333Y-134600952D01*
X146058666Y-134639047D01*
X146125333Y-134677142D01*
X146258666Y-134677142D01*
X146325333Y-134639047D01*
X146358666Y-134600952D01*
X146392000Y-134524761D01*
X142185333Y-134981904D02*
X142185333Y-134181904D01*
X142452000Y-134181904D01*
X142518666Y-134220000D01*
X142552000Y-134258095D01*
X142585333Y-134334285D01*
X142585333Y-134448571D01*
X142552000Y-134524761D01*
X142518666Y-134562857D01*
X142452000Y-134600952D01*
X142185333Y-134600952D01*
X143118666Y-134562857D02*
X142885333Y-134562857D01*
X142885333Y-134981904D02*
X142885333Y-134181904D01*
X143218666Y-134181904D01*
X143785333Y-134181904D02*
X143652000Y-134181904D01*
X143585333Y-134220000D01*
X143552000Y-134258095D01*
X143485333Y-134372380D01*
X143452000Y-134524761D01*
X143452000Y-134829523D01*
X143485333Y-134905714D01*
X143518666Y-134943809D01*
X143585333Y-134981904D01*
X143718666Y-134981904D01*
X143785333Y-134943809D01*
X143818666Y-134905714D01*
X143852000Y-134829523D01*
X143852000Y-134639047D01*
X143818666Y-134562857D01*
X143785333Y-134524761D01*
X143718666Y-134486666D01*
X143585333Y-134486666D01*
X143518666Y-134524761D01*
X143485333Y-134562857D01*
X143452000Y-134639047D01*
X138754000Y-134981904D02*
X138754000Y-134181904D01*
X139020666Y-134181904D01*
X139087333Y-134220000D01*
X139120666Y-134258095D01*
X139154000Y-134334285D01*
X139154000Y-134448571D01*
X139120666Y-134524761D01*
X139087333Y-134562857D01*
X139020666Y-134600952D01*
X138754000Y-134600952D01*
X139687333Y-134562857D02*
X139787333Y-134600952D01*
X139820666Y-134639047D01*
X139854000Y-134715238D01*
X139854000Y-134829523D01*
X139820666Y-134905714D01*
X139787333Y-134943809D01*
X139720666Y-134981904D01*
X139454000Y-134981904D01*
X139454000Y-134181904D01*
X139687333Y-134181904D01*
X139754000Y-134220000D01*
X139787333Y-134258095D01*
X139820666Y-134334285D01*
X139820666Y-134410476D01*
X139787333Y-134486666D01*
X139754000Y-134524761D01*
X139687333Y-134562857D01*
X139454000Y-134562857D01*
X140520666Y-134981904D02*
X140120666Y-134981904D01*
X140320666Y-134981904D02*
X140320666Y-134181904D01*
X140254000Y-134296190D01*
X140187333Y-134372380D01*
X140120666Y-134410476D01*
X140754000Y-134181904D02*
X141187333Y-134181904D01*
X140954000Y-134486666D01*
X141054000Y-134486666D01*
X141120666Y-134524761D01*
X141154000Y-134562857D01*
X141187333Y-134639047D01*
X141187333Y-134829523D01*
X141154000Y-134905714D01*
X141120666Y-134943809D01*
X141054000Y-134981904D01*
X140854000Y-134981904D01*
X140787333Y-134943809D01*
X140754000Y-134905714D01*
X147390000Y-137521904D02*
X147390000Y-136721904D01*
X147656666Y-136721904D01*
X147723333Y-136760000D01*
X147756666Y-136798095D01*
X147790000Y-136874285D01*
X147790000Y-136988571D01*
X147756666Y-137064761D01*
X147723333Y-137102857D01*
X147656666Y-137140952D01*
X147390000Y-137140952D01*
X148090000Y-137521904D02*
X148090000Y-136721904D01*
X148256666Y-136721904D01*
X148356666Y-136760000D01*
X148423333Y-136836190D01*
X148456666Y-136912380D01*
X148490000Y-137064761D01*
X148490000Y-137179047D01*
X148456666Y-137331428D01*
X148423333Y-137407619D01*
X148356666Y-137483809D01*
X148256666Y-137521904D01*
X148090000Y-137521904D01*
X149156666Y-137521904D02*
X148756666Y-137521904D01*
X148956666Y-137521904D02*
X148956666Y-136721904D01*
X148890000Y-136836190D01*
X148823333Y-136912380D01*
X148756666Y-136950476D01*
X149423333Y-136798095D02*
X149456666Y-136760000D01*
X149523333Y-136721904D01*
X149690000Y-136721904D01*
X149756666Y-136760000D01*
X149790000Y-136798095D01*
X149823333Y-136874285D01*
X149823333Y-136950476D01*
X149790000Y-137064761D01*
X149390000Y-137521904D01*
X149823333Y-137521904D01*
X144421333Y-137521904D02*
X144421333Y-136721904D01*
X144688000Y-136721904D01*
X144754666Y-136760000D01*
X144788000Y-136798095D01*
X144821333Y-136874285D01*
X144821333Y-136988571D01*
X144788000Y-137064761D01*
X144754666Y-137102857D01*
X144688000Y-137140952D01*
X144421333Y-137140952D01*
X145488000Y-136760000D02*
X145421333Y-136721904D01*
X145321333Y-136721904D01*
X145221333Y-136760000D01*
X145154666Y-136836190D01*
X145121333Y-136912380D01*
X145088000Y-137064761D01*
X145088000Y-137179047D01*
X145121333Y-137331428D01*
X145154666Y-137407619D01*
X145221333Y-137483809D01*
X145321333Y-137521904D01*
X145388000Y-137521904D01*
X145488000Y-137483809D01*
X145521333Y-137445714D01*
X145521333Y-137179047D01*
X145388000Y-137179047D01*
X145754666Y-136721904D02*
X146221333Y-136721904D01*
X145921333Y-137521904D01*
X141327333Y-137521904D02*
X141327333Y-136721904D01*
X141594000Y-136721904D01*
X141660666Y-136760000D01*
X141694000Y-136798095D01*
X141727333Y-136874285D01*
X141727333Y-136988571D01*
X141694000Y-137064761D01*
X141660666Y-137102857D01*
X141594000Y-137140952D01*
X141327333Y-137140952D01*
X142027333Y-137102857D02*
X142260666Y-137102857D01*
X142360666Y-137521904D02*
X142027333Y-137521904D01*
X142027333Y-136721904D01*
X142360666Y-136721904D01*
X143027333Y-137521904D02*
X142627333Y-137521904D01*
X142827333Y-137521904D02*
X142827333Y-136721904D01*
X142760666Y-136836190D01*
X142694000Y-136912380D01*
X142627333Y-136950476D01*
X143460666Y-136721904D02*
X143527333Y-136721904D01*
X143594000Y-136760000D01*
X143627333Y-136798095D01*
X143660666Y-136874285D01*
X143694000Y-137026666D01*
X143694000Y-137217142D01*
X143660666Y-137369523D01*
X143627333Y-137445714D01*
X143594000Y-137483809D01*
X143527333Y-137521904D01*
X143460666Y-137521904D01*
X143394000Y-137483809D01*
X143360666Y-137445714D01*
X143327333Y-137369523D01*
X143294000Y-137217142D01*
X143294000Y-137026666D01*
X143327333Y-136874285D01*
X143360666Y-136798095D01*
X143394000Y-136760000D01*
X143460666Y-136721904D01*
X138866666Y-137521904D02*
X138866666Y-136721904D01*
X139133333Y-136721904D01*
X139200000Y-136760000D01*
X139233333Y-136798095D01*
X139266666Y-136874285D01*
X139266666Y-136988571D01*
X139233333Y-137064761D01*
X139200000Y-137102857D01*
X139133333Y-137140952D01*
X138866666Y-137140952D01*
X139566666Y-137102857D02*
X139800000Y-137102857D01*
X139900000Y-137521904D02*
X139566666Y-137521904D01*
X139566666Y-136721904D01*
X139900000Y-136721904D01*
X140133333Y-136721904D02*
X140600000Y-136721904D01*
X140300000Y-137521904D01*
X147469333Y-140061904D02*
X147469333Y-139261904D01*
X147736000Y-139261904D01*
X147802666Y-139300000D01*
X147836000Y-139338095D01*
X147869333Y-139414285D01*
X147869333Y-139528571D01*
X147836000Y-139604761D01*
X147802666Y-139642857D01*
X147736000Y-139680952D01*
X147469333Y-139680952D01*
X148402666Y-139642857D02*
X148502666Y-139680952D01*
X148536000Y-139719047D01*
X148569333Y-139795238D01*
X148569333Y-139909523D01*
X148536000Y-139985714D01*
X148502666Y-140023809D01*
X148436000Y-140061904D01*
X148169333Y-140061904D01*
X148169333Y-139261904D01*
X148402666Y-139261904D01*
X148469333Y-139300000D01*
X148502666Y-139338095D01*
X148536000Y-139414285D01*
X148536000Y-139490476D01*
X148502666Y-139566666D01*
X148469333Y-139604761D01*
X148402666Y-139642857D01*
X148169333Y-139642857D01*
X148836000Y-139338095D02*
X148869333Y-139300000D01*
X148936000Y-139261904D01*
X149102666Y-139261904D01*
X149169333Y-139300000D01*
X149202666Y-139338095D01*
X149236000Y-139414285D01*
X149236000Y-139490476D01*
X149202666Y-139604761D01*
X148802666Y-140061904D01*
X149236000Y-140061904D01*
X144421333Y-140061904D02*
X144421333Y-139261904D01*
X144688000Y-139261904D01*
X144754666Y-139300000D01*
X144788000Y-139338095D01*
X144821333Y-139414285D01*
X144821333Y-139528571D01*
X144788000Y-139604761D01*
X144754666Y-139642857D01*
X144688000Y-139680952D01*
X144421333Y-139680952D01*
X145354666Y-139642857D02*
X145454666Y-139680952D01*
X145488000Y-139719047D01*
X145521333Y-139795238D01*
X145521333Y-139909523D01*
X145488000Y-139985714D01*
X145454666Y-140023809D01*
X145388000Y-140061904D01*
X145121333Y-140061904D01*
X145121333Y-139261904D01*
X145354666Y-139261904D01*
X145421333Y-139300000D01*
X145454666Y-139338095D01*
X145488000Y-139414285D01*
X145488000Y-139490476D01*
X145454666Y-139566666D01*
X145421333Y-139604761D01*
X145354666Y-139642857D01*
X145121333Y-139642857D01*
X146121333Y-139261904D02*
X145988000Y-139261904D01*
X145921333Y-139300000D01*
X145888000Y-139338095D01*
X145821333Y-139452380D01*
X145788000Y-139604761D01*
X145788000Y-139909523D01*
X145821333Y-139985714D01*
X145854666Y-140023809D01*
X145921333Y-140061904D01*
X146054666Y-140061904D01*
X146121333Y-140023809D01*
X146154666Y-139985714D01*
X146188000Y-139909523D01*
X146188000Y-139719047D01*
X146154666Y-139642857D01*
X146121333Y-139604761D01*
X146054666Y-139566666D01*
X145921333Y-139566666D01*
X145854666Y-139604761D01*
X145821333Y-139642857D01*
X145788000Y-139719047D01*
X141294000Y-140061904D02*
X141294000Y-139261904D01*
X141560666Y-139261904D01*
X141627333Y-139300000D01*
X141660666Y-139338095D01*
X141694000Y-139414285D01*
X141694000Y-139528571D01*
X141660666Y-139604761D01*
X141627333Y-139642857D01*
X141560666Y-139680952D01*
X141294000Y-139680952D01*
X141994000Y-140061904D02*
X141994000Y-139261904D01*
X142160666Y-139261904D01*
X142260666Y-139300000D01*
X142327333Y-139376190D01*
X142360666Y-139452380D01*
X142394000Y-139604761D01*
X142394000Y-139719047D01*
X142360666Y-139871428D01*
X142327333Y-139947619D01*
X142260666Y-140023809D01*
X142160666Y-140061904D01*
X141994000Y-140061904D01*
X143060666Y-140061904D02*
X142660666Y-140061904D01*
X142860666Y-140061904D02*
X142860666Y-139261904D01*
X142794000Y-139376190D01*
X142727333Y-139452380D01*
X142660666Y-139490476D01*
X143294000Y-139261904D02*
X143727333Y-139261904D01*
X143494000Y-139566666D01*
X143594000Y-139566666D01*
X143660666Y-139604761D01*
X143694000Y-139642857D01*
X143727333Y-139719047D01*
X143727333Y-139909523D01*
X143694000Y-139985714D01*
X143660666Y-140023809D01*
X143594000Y-140061904D01*
X143394000Y-140061904D01*
X143327333Y-140023809D01*
X143294000Y-139985714D01*
X138866666Y-140061904D02*
X138866666Y-139261904D01*
X139133333Y-139261904D01*
X139200000Y-139300000D01*
X139233333Y-139338095D01*
X139266666Y-139414285D01*
X139266666Y-139528571D01*
X139233333Y-139604761D01*
X139200000Y-139642857D01*
X139133333Y-139680952D01*
X138866666Y-139680952D01*
X139566666Y-139642857D02*
X139800000Y-139642857D01*
X139900000Y-140061904D02*
X139566666Y-140061904D01*
X139566666Y-139261904D01*
X139900000Y-139261904D01*
X140300000Y-139604761D02*
X140233333Y-139566666D01*
X140200000Y-139528571D01*
X140166666Y-139452380D01*
X140166666Y-139414285D01*
X140200000Y-139338095D01*
X140233333Y-139300000D01*
X140300000Y-139261904D01*
X140433333Y-139261904D01*
X140500000Y-139300000D01*
X140533333Y-139338095D01*
X140566666Y-139414285D01*
X140566666Y-139452380D01*
X140533333Y-139528571D01*
X140500000Y-139566666D01*
X140433333Y-139604761D01*
X140300000Y-139604761D01*
X140233333Y-139642857D01*
X140200000Y-139680952D01*
X140166666Y-139757142D01*
X140166666Y-139909523D01*
X140200000Y-139985714D01*
X140233333Y-140023809D01*
X140300000Y-140061904D01*
X140433333Y-140061904D01*
X140500000Y-140023809D01*
X140533333Y-139985714D01*
X140566666Y-139909523D01*
X140566666Y-139757142D01*
X140533333Y-139680952D01*
X140500000Y-139642857D01*
X140433333Y-139604761D01*
X147440000Y-142601904D02*
X147440000Y-141801904D01*
X147706666Y-141801904D01*
X147773333Y-141840000D01*
X147806666Y-141878095D01*
X147840000Y-141954285D01*
X147840000Y-142068571D01*
X147806666Y-142144761D01*
X147773333Y-142182857D01*
X147706666Y-142220952D01*
X147440000Y-142220952D01*
X148106666Y-142373333D02*
X148440000Y-142373333D01*
X148040000Y-142601904D02*
X148273333Y-141801904D01*
X148506666Y-142601904D01*
X149106666Y-142601904D02*
X148706666Y-142601904D01*
X148906666Y-142601904D02*
X148906666Y-141801904D01*
X148840000Y-141916190D01*
X148773333Y-141992380D01*
X148706666Y-142030476D01*
X149773333Y-142601904D02*
X149373333Y-142601904D01*
X149573333Y-142601904D02*
X149573333Y-141801904D01*
X149506666Y-141916190D01*
X149440000Y-141992380D01*
X149373333Y-142030476D01*
X144392000Y-142601904D02*
X144392000Y-141801904D01*
X144658666Y-141801904D01*
X144725333Y-141840000D01*
X144758666Y-141878095D01*
X144792000Y-141954285D01*
X144792000Y-142068571D01*
X144758666Y-142144761D01*
X144725333Y-142182857D01*
X144658666Y-142220952D01*
X144392000Y-142220952D01*
X145058666Y-142373333D02*
X145392000Y-142373333D01*
X144992000Y-142601904D02*
X145225333Y-141801904D01*
X145458666Y-142601904D01*
X146058666Y-142601904D02*
X145658666Y-142601904D01*
X145858666Y-142601904D02*
X145858666Y-141801904D01*
X145792000Y-141916190D01*
X145725333Y-141992380D01*
X145658666Y-142030476D01*
X146325333Y-141878095D02*
X146358666Y-141840000D01*
X146425333Y-141801904D01*
X146592000Y-141801904D01*
X146658666Y-141840000D01*
X146692000Y-141878095D01*
X146725333Y-141954285D01*
X146725333Y-142030476D01*
X146692000Y-142144761D01*
X146292000Y-142601904D01*
X146725333Y-142601904D01*
X141344000Y-142601904D02*
X141344000Y-141801904D01*
X141610666Y-141801904D01*
X141677333Y-141840000D01*
X141710666Y-141878095D01*
X141744000Y-141954285D01*
X141744000Y-142068571D01*
X141710666Y-142144761D01*
X141677333Y-142182857D01*
X141610666Y-142220952D01*
X141344000Y-142220952D01*
X142010666Y-142373333D02*
X142344000Y-142373333D01*
X141944000Y-142601904D02*
X142177333Y-141801904D01*
X142410666Y-142601904D01*
X143010666Y-142601904D02*
X142610666Y-142601904D01*
X142810666Y-142601904D02*
X142810666Y-141801904D01*
X142744000Y-141916190D01*
X142677333Y-141992380D01*
X142610666Y-142030476D01*
X143444000Y-141801904D02*
X143510666Y-141801904D01*
X143577333Y-141840000D01*
X143610666Y-141878095D01*
X143644000Y-141954285D01*
X143677333Y-142106666D01*
X143677333Y-142297142D01*
X143644000Y-142449523D01*
X143610666Y-142525714D01*
X143577333Y-142563809D01*
X143510666Y-142601904D01*
X143444000Y-142601904D01*
X143377333Y-142563809D01*
X143344000Y-142525714D01*
X143310666Y-142449523D01*
X143277333Y-142297142D01*
X143277333Y-142106666D01*
X143310666Y-141954285D01*
X143344000Y-141878095D01*
X143377333Y-141840000D01*
X143444000Y-141801904D01*
X138771428Y-142601904D02*
X138771428Y-141801904D01*
X139057142Y-141801904D01*
X139128571Y-141840000D01*
X139164285Y-141878095D01*
X139200000Y-141954285D01*
X139200000Y-142068571D01*
X139164285Y-142144761D01*
X139128571Y-142182857D01*
X139057142Y-142220952D01*
X138771428Y-142220952D01*
X139914285Y-141840000D02*
X139842857Y-141801904D01*
X139735714Y-141801904D01*
X139628571Y-141840000D01*
X139557142Y-141916190D01*
X139521428Y-141992380D01*
X139485714Y-142144761D01*
X139485714Y-142259047D01*
X139521428Y-142411428D01*
X139557142Y-142487619D01*
X139628571Y-142563809D01*
X139735714Y-142601904D01*
X139807142Y-142601904D01*
X139914285Y-142563809D01*
X139950000Y-142525714D01*
X139950000Y-142259047D01*
X139807142Y-142259047D01*
X140307142Y-142601904D02*
X140450000Y-142601904D01*
X140521428Y-142563809D01*
X140557142Y-142525714D01*
X140628571Y-142411428D01*
X140664285Y-142259047D01*
X140664285Y-141954285D01*
X140628571Y-141878095D01*
X140592857Y-141840000D01*
X140521428Y-141801904D01*
X140378571Y-141801904D01*
X140307142Y-141840000D01*
X140271428Y-141878095D01*
X140235714Y-141954285D01*
X140235714Y-142144761D01*
X140271428Y-142220952D01*
X140307142Y-142259047D01*
X140378571Y-142297142D01*
X140521428Y-142297142D01*
X140592857Y-142259047D01*
X140628571Y-142220952D01*
X140664285Y-142144761D01*
D12*
X140322300Y-101600000D02*
G75*
G03*
X140322300Y-101600000I-114300J0D01*
G01*
X195694300Y-90805000D02*
G75*
G03*
X195694300Y-90805000I-114300J0D01*
G01*
X184543700Y-128498600D02*
G75*
G03*
X184543700Y-128498600I-114300J0D01*
G01*
X191528700Y-97383600D02*
G75*
G03*
X191528700Y-97383600I-114300J0D01*
G01*
D11*
%TO.C,J7*%
X196910000Y-87570000D02*
X196910000Y-88900000D01*
X195580000Y-87570000D02*
X196910000Y-87570000D01*
X194310000Y-87570000D02*
X194310000Y-90230000D01*
X194310000Y-90230000D02*
X176470000Y-90230000D01*
X194310000Y-87570000D02*
X176470000Y-87570000D01*
X176470000Y-87570000D02*
X176470000Y-90230000D01*
%TO.C,U1*%
X164051000Y-94737000D02*
X168051000Y-94737000D01*
X168051000Y-94737000D02*
X168051000Y-98737000D01*
X164051000Y-94737000D02*
X168051000Y-94737000D01*
X168051000Y-94737000D02*
X168051000Y-98737000D01*
X164051000Y-110977000D02*
X168051000Y-110977000D01*
X168051000Y-110977000D02*
X168051000Y-106977000D01*
X164051000Y-94737000D02*
X168051000Y-94737000D01*
X168051000Y-94737000D02*
X168051000Y-98737000D01*
X155811000Y-110977000D02*
X151811000Y-110977000D01*
X151811000Y-110977000D02*
X151811000Y-106977000D01*
X155811000Y-94737000D02*
X152931000Y-94737000D01*
X152931000Y-94737000D02*
X151811000Y-95857000D01*
X151811000Y-95857000D02*
X151811000Y-98737000D01*
D13*
X152031000Y-94857000D02*
G75*
G03*
X152031000Y-94857000I-100000J0D01*
G01*
D11*
%TO.C,TP1*%
X149899600Y-105359200D02*
G75*
G03*
X149899600Y-105359200I-700000J0D01*
G01*
%TO.C,R20*%
X170562000Y-118150621D02*
X170562000Y-117815379D01*
X171322000Y-118150621D02*
X171322000Y-117815379D01*
%TO.C,R19*%
X178094621Y-147319000D02*
X177759379Y-147319000D01*
X178094621Y-146559000D02*
X177759379Y-146559000D01*
%TO.C,R18*%
X173776621Y-134492000D02*
X173441379Y-134492000D01*
X173776621Y-133732000D02*
X173441379Y-133732000D01*
%TO.C,D5*%
X175307500Y-117594500D02*
X172447500Y-117594500D01*
X172447500Y-117594500D02*
X172447500Y-119514500D01*
X172447500Y-119514500D02*
X175307500Y-119514500D01*
%TO.C,D4*%
X176927000Y-145740000D02*
X179787000Y-145740000D01*
X179787000Y-145740000D02*
X179787000Y-143820000D01*
X179787000Y-143820000D02*
X176927000Y-143820000D01*
%TO.C,D3*%
X172228000Y-137104000D02*
X175088000Y-137104000D01*
X175088000Y-137104000D02*
X175088000Y-135184000D01*
X175088000Y-135184000D02*
X172228000Y-135184000D01*
%TO.C,J9*%
X186750000Y-134790000D02*
X185700000Y-134790000D01*
X185700000Y-135840000D02*
X185700000Y-134790000D01*
X195100000Y-140890000D02*
X195100000Y-149690000D01*
X195100000Y-149690000D02*
X185900000Y-149690000D01*
X192400000Y-134990000D02*
X195100000Y-134990000D01*
X195100000Y-134990000D02*
X195100000Y-136890000D01*
X185900000Y-149690000D02*
X185900000Y-134990000D01*
X185900000Y-134990000D02*
X188500000Y-134990000D01*
%TO.C,D2*%
X183880000Y-139405000D02*
X181880000Y-139405000D01*
X181880000Y-139405000D02*
X181880000Y-143255000D01*
X183880000Y-139405000D02*
X183880000Y-143255000D01*
%TO.C,C57*%
X185466400Y-96153235D02*
X185466400Y-95921565D01*
X186186400Y-96153235D02*
X186186400Y-95921565D01*
%TO.C,C40*%
X189539200Y-111466365D02*
X189539200Y-111698035D01*
X188819200Y-111466365D02*
X188819200Y-111698035D01*
%TO.C,R15*%
X176209979Y-98070400D02*
X176545221Y-98070400D01*
X176209979Y-98830400D02*
X176545221Y-98830400D01*
%TO.C,C62*%
X183383600Y-96153235D02*
X183383600Y-95921565D01*
X184103600Y-96153235D02*
X184103600Y-95921565D01*
%TO.C,U2*%
X192220000Y-98770000D02*
X192220000Y-98070000D01*
X192220000Y-98070000D02*
X191520000Y-98070000D01*
X192020000Y-107470000D02*
X192020000Y-98270000D01*
X192020000Y-98270000D02*
X178820000Y-98270000D01*
X178820000Y-98270000D02*
X178820000Y-107470000D01*
X178820000Y-107470000D02*
X192020000Y-107470000D01*
%TO.C,C36*%
X188666800Y-96178635D02*
X188666800Y-95946965D01*
X189386800Y-96178635D02*
X189386800Y-95946965D01*
%TO.C,C52*%
X187574600Y-96178635D02*
X187574600Y-95946965D01*
X188294600Y-96178635D02*
X188294600Y-95946965D01*
%TO.C,C42*%
X190555200Y-111466365D02*
X190555200Y-111698035D01*
X189835200Y-111466365D02*
X189835200Y-111698035D01*
%TO.C,C65*%
X184425000Y-96153235D02*
X184425000Y-95921565D01*
X185145000Y-96153235D02*
X185145000Y-95921565D01*
%TO.C,R52*%
X186487800Y-96230421D02*
X186487800Y-95895179D01*
X187247800Y-96230421D02*
X187247800Y-95895179D01*
%TO.C,R17*%
X154052000Y-141564379D02*
X154052000Y-141899621D01*
X154812000Y-141564379D02*
X154812000Y-141899621D01*
%TO.C,R16*%
X151512000Y-141564379D02*
X151512000Y-141899621D01*
X152272000Y-141564379D02*
X152272000Y-141899621D01*
%TO.C,J8*%
X151487400Y-143788300D02*
X151487400Y-144238300D01*
X151487400Y-143788300D02*
X151937400Y-143788300D01*
X157087400Y-144338300D02*
X156637400Y-144338300D01*
X157087400Y-146188300D02*
X157087400Y-144338300D01*
X149287400Y-148738300D02*
X149287400Y-148488300D01*
X157087400Y-148738300D02*
X157087400Y-148488300D01*
X149287400Y-146188300D02*
X149287400Y-144338300D01*
X149287400Y-144338300D02*
X149737400Y-144338300D01*
%TO.C,J5*%
X140910000Y-100270000D02*
X142240000Y-100270000D01*
X140910000Y-101600000D02*
X140910000Y-100270000D01*
X143510000Y-100270000D02*
X146110000Y-100270000D01*
X143510000Y-102870000D02*
X143510000Y-100270000D01*
X140910000Y-102870000D02*
X143510000Y-102870000D01*
X146110000Y-100270000D02*
X146110000Y-108010000D01*
X140910000Y-102870000D02*
X140910000Y-108010000D01*
X140910000Y-108010000D02*
X146110000Y-108010000D01*
%TO.C,J4*%
X130870000Y-143570000D02*
X129540000Y-143570000D01*
X130870000Y-142240000D02*
X130870000Y-143570000D01*
X130870000Y-140970000D02*
X128210000Y-140970000D01*
X128210000Y-140970000D02*
X128210000Y-74870000D01*
X130870000Y-140970000D02*
X130870000Y-74870000D01*
X130870000Y-74870000D02*
X128210000Y-74870000D01*
%TO.C,J3*%
X133410000Y-143570000D02*
X132080000Y-143570000D01*
X133410000Y-142240000D02*
X133410000Y-143570000D01*
X133410000Y-140970000D02*
X130750000Y-140970000D01*
X130750000Y-140970000D02*
X130750000Y-74870000D01*
X133410000Y-140970000D02*
X133410000Y-74870000D01*
X133410000Y-74870000D02*
X130750000Y-74870000D01*
%TO.C,J2*%
X135950000Y-143570000D02*
X134620000Y-143570000D01*
X135950000Y-142240000D02*
X135950000Y-143570000D01*
X135950000Y-140970000D02*
X133290000Y-140970000D01*
X133290000Y-140970000D02*
X133290000Y-74870000D01*
X135950000Y-140970000D02*
X135950000Y-74870000D01*
X135950000Y-74870000D02*
X133290000Y-74870000D01*
%TO.C,J1*%
X138490000Y-143570000D02*
X137160000Y-143570000D01*
X138490000Y-142240000D02*
X138490000Y-143570000D01*
X138490000Y-140970000D02*
X135830000Y-140970000D01*
X135830000Y-140970000D02*
X135830000Y-74870000D01*
X138490000Y-140970000D02*
X138490000Y-74870000D01*
X138490000Y-74870000D02*
X135830000Y-74870000D01*
%TO.C,C68*%
X163656600Y-113676165D02*
X163656600Y-113907835D01*
X162936600Y-113676165D02*
X162936600Y-113907835D01*
%TO.C,C9*%
X161710635Y-113517000D02*
X161478965Y-113517000D01*
X161710635Y-112797000D02*
X161478965Y-112797000D01*
%TO.C,C17*%
X162936600Y-116219235D02*
X162936600Y-115987565D01*
X163656600Y-116219235D02*
X163656600Y-115987565D01*
%TO.C,C5*%
X181250000Y-130251252D02*
X181250000Y-128828748D01*
X179430000Y-130251252D02*
X179430000Y-128828748D01*
%TO.C,U4*%
X187590000Y-127930000D02*
X185140000Y-127930000D01*
X185790000Y-131150000D02*
X187590000Y-131150000D01*
%TO.C,U3*%
X178687000Y-141026000D02*
X177227000Y-141026000D01*
X178687000Y-137866000D02*
X176527000Y-137866000D01*
X178687000Y-137866000D02*
X178687000Y-138796000D01*
X178687000Y-141026000D02*
X178687000Y-140096000D01*
%TO.C,SW2*%
X187805000Y-69930400D02*
X186880000Y-69930400D01*
X191680000Y-72055400D02*
X191680000Y-71505400D01*
X186780000Y-72055400D02*
X186780000Y-71505400D01*
X191580000Y-73630400D02*
X186880000Y-73630400D01*
X191580000Y-69930400D02*
X190655000Y-69930400D01*
%TO.C,R9*%
X142495000Y-77937379D02*
X142495000Y-78272621D01*
X143255000Y-77937379D02*
X143255000Y-78272621D01*
%TO.C,R8*%
X166877000Y-113832621D02*
X166877000Y-113497379D01*
X166117000Y-113832621D02*
X166117000Y-113497379D01*
%TO.C,R4*%
X194410000Y-129767064D02*
X194410000Y-129312936D01*
X192940000Y-129767064D02*
X192940000Y-129312936D01*
%TO.C,R3*%
X195480000Y-129312936D02*
X195480000Y-129767064D01*
X196950000Y-129312936D02*
X196950000Y-129767064D01*
%TO.C,Q1*%
X171648000Y-140206000D02*
X171648000Y-138746000D01*
X174808000Y-140206000D02*
X174808000Y-138046000D01*
X174808000Y-140206000D02*
X173878000Y-140206000D01*
X171648000Y-140206000D02*
X172578000Y-140206000D01*
%TO.C,L2*%
X175285000Y-130400000D02*
X175285000Y-129000000D01*
X175285000Y-123600000D02*
X175285000Y-125000000D01*
X175285000Y-130400000D02*
X174085000Y-130400000D01*
X175285000Y-123600000D02*
X174085000Y-123600000D01*
X168885000Y-123600000D02*
X170085000Y-123600000D01*
X168885000Y-123600000D02*
X168885000Y-125000000D01*
X168885000Y-130400000D02*
X168885000Y-129000000D01*
X168885000Y-130400000D02*
X170085000Y-130400000D01*
%TO.C,J14*%
X164162000Y-143864500D02*
X164162000Y-144314500D01*
X164162000Y-143864500D02*
X164612000Y-143864500D01*
X169762000Y-144414500D02*
X169312000Y-144414500D01*
X169762000Y-146264500D02*
X169762000Y-144414500D01*
X161962000Y-148814500D02*
X161962000Y-148564500D01*
X169762000Y-148814500D02*
X169762000Y-148564500D01*
X161962000Y-146264500D02*
X161962000Y-144414500D01*
X161962000Y-144414500D02*
X162412000Y-144414500D01*
%TO.C,J13*%
X146939000Y-76250800D02*
X146939000Y-82143600D01*
X158724600Y-82143600D02*
X146939000Y-82143600D01*
X158724600Y-76250800D02*
X158724600Y-82143600D01*
%TO.C,J12*%
X167259000Y-76250800D02*
X167259000Y-82143600D01*
X179044600Y-82143600D02*
X167259000Y-82143600D01*
X179044600Y-76250800D02*
X179044600Y-82143600D01*
%TO.C,J6*%
X187465000Y-75570000D02*
X187465000Y-75505000D01*
X190995000Y-75570000D02*
X190995000Y-75505000D01*
X187465000Y-81975000D02*
X187465000Y-81910000D01*
X190995000Y-81975000D02*
X190995000Y-81910000D01*
X192320000Y-81910000D02*
X190995000Y-81910000D01*
X190995000Y-75505000D02*
X187465000Y-75505000D01*
X190995000Y-81975000D02*
X187465000Y-81975000D01*
%TO.C,D1*%
X145714600Y-79584000D02*
X145714600Y-76724000D01*
X143794600Y-79584000D02*
X145714600Y-79584000D01*
X143794600Y-76724000D02*
X143794600Y-79584000D01*
%TO.C,C10*%
X177723748Y-126005000D02*
X179146252Y-126005000D01*
X177723748Y-124185000D02*
X179146252Y-124185000D01*
%TO.C,C8*%
X177723748Y-123465000D02*
X179146252Y-123465000D01*
X177723748Y-121645000D02*
X179146252Y-121645000D01*
%TO.C,C6*%
X178535000Y-129674252D02*
X178535000Y-129151748D01*
X177065000Y-129674252D02*
X177065000Y-129151748D01*
%TO.C,C4*%
X187860000Y-125468748D02*
X187860000Y-125991252D01*
X189330000Y-125468748D02*
X189330000Y-125991252D01*
%TO.C,C3*%
X177366665Y-143108000D02*
X177598335Y-143108000D01*
X177366665Y-142388000D02*
X177598335Y-142388000D01*
%TO.C,C2*%
X183790000Y-130251252D02*
X183790000Y-128828748D01*
X181970000Y-130251252D02*
X181970000Y-128828748D01*
%TO.C,C1*%
X178550835Y-135784000D02*
X178319165Y-135784000D01*
X178550835Y-136504000D02*
X178319165Y-136504000D01*
%TO.C,U1*%
D10*
X168833876Y-93237104D02*
X168833876Y-93884723D01*
X168871971Y-93960914D01*
X168910066Y-93999009D01*
X168986257Y-94037104D01*
X169138638Y-94037104D01*
X169214828Y-93999009D01*
X169252923Y-93960914D01*
X169291019Y-93884723D01*
X169291019Y-93237104D01*
X170091019Y-94037104D02*
X169633876Y-94037104D01*
X169862447Y-94037104D02*
X169862447Y-93237104D01*
X169786257Y-93351390D01*
X169710066Y-93427580D01*
X169633876Y-93465676D01*
%TO.C,R20*%
X170287904Y-118497285D02*
X169906952Y-118763952D01*
X170287904Y-118954428D02*
X169487904Y-118954428D01*
X169487904Y-118649666D01*
X169526000Y-118573476D01*
X169564095Y-118535380D01*
X169640285Y-118497285D01*
X169754571Y-118497285D01*
X169830761Y-118535380D01*
X169868857Y-118573476D01*
X169906952Y-118649666D01*
X169906952Y-118954428D01*
X169564095Y-118192523D02*
X169526000Y-118154428D01*
X169487904Y-118078238D01*
X169487904Y-117887761D01*
X169526000Y-117811571D01*
X169564095Y-117773476D01*
X169640285Y-117735380D01*
X169716476Y-117735380D01*
X169830761Y-117773476D01*
X170287904Y-118230619D01*
X170287904Y-117735380D01*
X169487904Y-117240142D02*
X169487904Y-117163952D01*
X169526000Y-117087761D01*
X169564095Y-117049666D01*
X169640285Y-117011571D01*
X169792666Y-116973476D01*
X169983142Y-116973476D01*
X170135523Y-117011571D01*
X170211714Y-117049666D01*
X170249809Y-117087761D01*
X170287904Y-117163952D01*
X170287904Y-117240142D01*
X170249809Y-117316333D01*
X170211714Y-117354428D01*
X170135523Y-117392523D01*
X169983142Y-117430619D01*
X169792666Y-117430619D01*
X169640285Y-117392523D01*
X169564095Y-117354428D01*
X169526000Y-117316333D01*
X169487904Y-117240142D01*
%TO.C,R19*%
X180079714Y-147427904D02*
X179813047Y-147046952D01*
X179622571Y-147427904D02*
X179622571Y-146627904D01*
X179927333Y-146627904D01*
X180003523Y-146666000D01*
X180041619Y-146704095D01*
X180079714Y-146780285D01*
X180079714Y-146894571D01*
X180041619Y-146970761D01*
X180003523Y-147008857D01*
X179927333Y-147046952D01*
X179622571Y-147046952D01*
X180841619Y-147427904D02*
X180384476Y-147427904D01*
X180613047Y-147427904D02*
X180613047Y-146627904D01*
X180536857Y-146742190D01*
X180460666Y-146818380D01*
X180384476Y-146856476D01*
X181222571Y-147427904D02*
X181374952Y-147427904D01*
X181451142Y-147389809D01*
X181489238Y-147351714D01*
X181565428Y-147237428D01*
X181603523Y-147085047D01*
X181603523Y-146780285D01*
X181565428Y-146704095D01*
X181527333Y-146666000D01*
X181451142Y-146627904D01*
X181298761Y-146627904D01*
X181222571Y-146666000D01*
X181184476Y-146704095D01*
X181146380Y-146780285D01*
X181146380Y-146970761D01*
X181184476Y-147046952D01*
X181222571Y-147085047D01*
X181298761Y-147123142D01*
X181451142Y-147123142D01*
X181527333Y-147085047D01*
X181565428Y-147046952D01*
X181603523Y-146970761D01*
%TO.C,R18*%
X175507714Y-134473904D02*
X175241047Y-134092952D01*
X175050571Y-134473904D02*
X175050571Y-133673904D01*
X175355333Y-133673904D01*
X175431523Y-133712000D01*
X175469619Y-133750095D01*
X175507714Y-133826285D01*
X175507714Y-133940571D01*
X175469619Y-134016761D01*
X175431523Y-134054857D01*
X175355333Y-134092952D01*
X175050571Y-134092952D01*
X176269619Y-134473904D02*
X175812476Y-134473904D01*
X176041047Y-134473904D02*
X176041047Y-133673904D01*
X175964857Y-133788190D01*
X175888666Y-133864380D01*
X175812476Y-133902476D01*
X176726761Y-134016761D02*
X176650571Y-133978666D01*
X176612476Y-133940571D01*
X176574380Y-133864380D01*
X176574380Y-133826285D01*
X176612476Y-133750095D01*
X176650571Y-133712000D01*
X176726761Y-133673904D01*
X176879142Y-133673904D01*
X176955333Y-133712000D01*
X176993428Y-133750095D01*
X177031523Y-133826285D01*
X177031523Y-133864380D01*
X176993428Y-133940571D01*
X176955333Y-133978666D01*
X176879142Y-134016761D01*
X176726761Y-134016761D01*
X176650571Y-134054857D01*
X176612476Y-134092952D01*
X176574380Y-134169142D01*
X176574380Y-134321523D01*
X176612476Y-134397714D01*
X176650571Y-134435809D01*
X176726761Y-134473904D01*
X176879142Y-134473904D01*
X176955333Y-134435809D01*
X176993428Y-134397714D01*
X177031523Y-134321523D01*
X177031523Y-134169142D01*
X176993428Y-134092952D01*
X176955333Y-134054857D01*
X176879142Y-134016761D01*
%TO.C,D5*%
X176447523Y-118916404D02*
X176447523Y-118116404D01*
X176638000Y-118116404D01*
X176752285Y-118154500D01*
X176828476Y-118230690D01*
X176866571Y-118306880D01*
X176904666Y-118459261D01*
X176904666Y-118573547D01*
X176866571Y-118725928D01*
X176828476Y-118802119D01*
X176752285Y-118878309D01*
X176638000Y-118916404D01*
X176447523Y-118916404D01*
X177628476Y-118116404D02*
X177247523Y-118116404D01*
X177209428Y-118497357D01*
X177247523Y-118459261D01*
X177323714Y-118421166D01*
X177514190Y-118421166D01*
X177590380Y-118459261D01*
X177628476Y-118497357D01*
X177666571Y-118573547D01*
X177666571Y-118764023D01*
X177628476Y-118840214D01*
X177590380Y-118878309D01*
X177514190Y-118916404D01*
X177323714Y-118916404D01*
X177247523Y-118878309D01*
X177209428Y-118840214D01*
%TO.C,D4*%
X180003523Y-145141904D02*
X180003523Y-144341904D01*
X180194000Y-144341904D01*
X180308285Y-144380000D01*
X180384476Y-144456190D01*
X180422571Y-144532380D01*
X180460666Y-144684761D01*
X180460666Y-144799047D01*
X180422571Y-144951428D01*
X180384476Y-145027619D01*
X180308285Y-145103809D01*
X180194000Y-145141904D01*
X180003523Y-145141904D01*
X181146380Y-144608571D02*
X181146380Y-145141904D01*
X180955904Y-144303809D02*
X180765428Y-144875238D01*
X181260666Y-144875238D01*
%TO.C,D3*%
X175431523Y-136505904D02*
X175431523Y-135705904D01*
X175622000Y-135705904D01*
X175736285Y-135744000D01*
X175812476Y-135820190D01*
X175850571Y-135896380D01*
X175888666Y-136048761D01*
X175888666Y-136163047D01*
X175850571Y-136315428D01*
X175812476Y-136391619D01*
X175736285Y-136467809D01*
X175622000Y-136505904D01*
X175431523Y-136505904D01*
X176155333Y-135705904D02*
X176650571Y-135705904D01*
X176383904Y-136010666D01*
X176498190Y-136010666D01*
X176574380Y-136048761D01*
X176612476Y-136086857D01*
X176650571Y-136163047D01*
X176650571Y-136353523D01*
X176612476Y-136429714D01*
X176574380Y-136467809D01*
X176498190Y-136505904D01*
X176269619Y-136505904D01*
X176193428Y-136467809D01*
X176155333Y-136429714D01*
%TO.C,J9*%
X194043333Y-133927904D02*
X194043333Y-134499333D01*
X194005238Y-134613619D01*
X193929047Y-134689809D01*
X193814761Y-134727904D01*
X193738571Y-134727904D01*
X194462380Y-134727904D02*
X194614761Y-134727904D01*
X194690952Y-134689809D01*
X194729047Y-134651714D01*
X194805238Y-134537428D01*
X194843333Y-134385047D01*
X194843333Y-134080285D01*
X194805238Y-134004095D01*
X194767142Y-133966000D01*
X194690952Y-133927904D01*
X194538571Y-133927904D01*
X194462380Y-133966000D01*
X194424285Y-134004095D01*
X194386190Y-134080285D01*
X194386190Y-134270761D01*
X194424285Y-134346952D01*
X194462380Y-134385047D01*
X194538571Y-134423142D01*
X194690952Y-134423142D01*
X194767142Y-134385047D01*
X194805238Y-134346952D01*
X194843333Y-134270761D01*
%TO.C,D2*%
X182289523Y-144887904D02*
X182289523Y-144087904D01*
X182480000Y-144087904D01*
X182594285Y-144126000D01*
X182670476Y-144202190D01*
X182708571Y-144278380D01*
X182746666Y-144430761D01*
X182746666Y-144545047D01*
X182708571Y-144697428D01*
X182670476Y-144773619D01*
X182594285Y-144849809D01*
X182480000Y-144887904D01*
X182289523Y-144887904D01*
X183051428Y-144164095D02*
X183089523Y-144126000D01*
X183165714Y-144087904D01*
X183356190Y-144087904D01*
X183432380Y-144126000D01*
X183470476Y-144164095D01*
X183508571Y-144240285D01*
X183508571Y-144316476D01*
X183470476Y-144430761D01*
X183013333Y-144887904D01*
X183508571Y-144887904D01*
%TO.C,C57*%
X186112114Y-93935485D02*
X186150209Y-93973580D01*
X186188304Y-94087866D01*
X186188304Y-94164057D01*
X186150209Y-94278342D01*
X186074019Y-94354533D01*
X185997828Y-94392628D01*
X185845447Y-94430723D01*
X185731161Y-94430723D01*
X185578780Y-94392628D01*
X185502590Y-94354533D01*
X185426400Y-94278342D01*
X185388304Y-94164057D01*
X185388304Y-94087866D01*
X185426400Y-93973580D01*
X185464495Y-93935485D01*
X185388304Y-93211676D02*
X185388304Y-93592628D01*
X185769257Y-93630723D01*
X185731161Y-93592628D01*
X185693066Y-93516438D01*
X185693066Y-93325961D01*
X185731161Y-93249771D01*
X185769257Y-93211676D01*
X185845447Y-93173580D01*
X186035923Y-93173580D01*
X186112114Y-93211676D01*
X186150209Y-93249771D01*
X186188304Y-93325961D01*
X186188304Y-93516438D01*
X186150209Y-93592628D01*
X186112114Y-93630723D01*
X185388304Y-92906914D02*
X185388304Y-92373580D01*
X186188304Y-92716438D01*
%TO.C,C40*%
X189464914Y-114738085D02*
X189503009Y-114776180D01*
X189541104Y-114890466D01*
X189541104Y-114966657D01*
X189503009Y-115080942D01*
X189426819Y-115157133D01*
X189350628Y-115195228D01*
X189198247Y-115233323D01*
X189083961Y-115233323D01*
X188931580Y-115195228D01*
X188855390Y-115157133D01*
X188779200Y-115080942D01*
X188741104Y-114966657D01*
X188741104Y-114890466D01*
X188779200Y-114776180D01*
X188817295Y-114738085D01*
X189007771Y-114052371D02*
X189541104Y-114052371D01*
X188703009Y-114242847D02*
X189274438Y-114433323D01*
X189274438Y-113938085D01*
X188741104Y-113480942D02*
X188741104Y-113404752D01*
X188779200Y-113328561D01*
X188817295Y-113290466D01*
X188893485Y-113252371D01*
X189045866Y-113214276D01*
X189236342Y-113214276D01*
X189388723Y-113252371D01*
X189464914Y-113290466D01*
X189503009Y-113328561D01*
X189541104Y-113404752D01*
X189541104Y-113480942D01*
X189503009Y-113557133D01*
X189464914Y-113595228D01*
X189388723Y-113633323D01*
X189236342Y-113671419D01*
X189045866Y-113671419D01*
X188893485Y-113633323D01*
X188817295Y-113595228D01*
X188779200Y-113557133D01*
X188741104Y-113480942D01*
%TO.C,R15*%
X175837914Y-97847104D02*
X175571247Y-97466152D01*
X175380771Y-97847104D02*
X175380771Y-97047104D01*
X175685533Y-97047104D01*
X175761723Y-97085200D01*
X175799819Y-97123295D01*
X175837914Y-97199485D01*
X175837914Y-97313771D01*
X175799819Y-97389961D01*
X175761723Y-97428057D01*
X175685533Y-97466152D01*
X175380771Y-97466152D01*
X176599819Y-97847104D02*
X176142676Y-97847104D01*
X176371247Y-97847104D02*
X176371247Y-97047104D01*
X176295057Y-97161390D01*
X176218866Y-97237580D01*
X176142676Y-97275676D01*
X177323628Y-97047104D02*
X176942676Y-97047104D01*
X176904580Y-97428057D01*
X176942676Y-97389961D01*
X177018866Y-97351866D01*
X177209342Y-97351866D01*
X177285533Y-97389961D01*
X177323628Y-97428057D01*
X177361723Y-97504247D01*
X177361723Y-97694723D01*
X177323628Y-97770914D01*
X177285533Y-97809009D01*
X177209342Y-97847104D01*
X177018866Y-97847104D01*
X176942676Y-97809009D01*
X176904580Y-97770914D01*
%TO.C,C62*%
X184029314Y-93935485D02*
X184067409Y-93973580D01*
X184105504Y-94087866D01*
X184105504Y-94164057D01*
X184067409Y-94278342D01*
X183991219Y-94354533D01*
X183915028Y-94392628D01*
X183762647Y-94430723D01*
X183648361Y-94430723D01*
X183495980Y-94392628D01*
X183419790Y-94354533D01*
X183343600Y-94278342D01*
X183305504Y-94164057D01*
X183305504Y-94087866D01*
X183343600Y-93973580D01*
X183381695Y-93935485D01*
X183305504Y-93249771D02*
X183305504Y-93402152D01*
X183343600Y-93478342D01*
X183381695Y-93516438D01*
X183495980Y-93592628D01*
X183648361Y-93630723D01*
X183953123Y-93630723D01*
X184029314Y-93592628D01*
X184067409Y-93554533D01*
X184105504Y-93478342D01*
X184105504Y-93325961D01*
X184067409Y-93249771D01*
X184029314Y-93211676D01*
X183953123Y-93173580D01*
X183762647Y-93173580D01*
X183686457Y-93211676D01*
X183648361Y-93249771D01*
X183610266Y-93325961D01*
X183610266Y-93478342D01*
X183648361Y-93554533D01*
X183686457Y-93592628D01*
X183762647Y-93630723D01*
X183381695Y-92868819D02*
X183343600Y-92830723D01*
X183305504Y-92754533D01*
X183305504Y-92564057D01*
X183343600Y-92487866D01*
X183381695Y-92449771D01*
X183457885Y-92411676D01*
X183534076Y-92411676D01*
X183648361Y-92449771D01*
X184105504Y-92906914D01*
X184105504Y-92411676D01*
%TO.C,U2*%
X193903676Y-98977504D02*
X193903676Y-99625123D01*
X193941771Y-99701314D01*
X193979866Y-99739409D01*
X194056057Y-99777504D01*
X194208438Y-99777504D01*
X194284628Y-99739409D01*
X194322723Y-99701314D01*
X194360819Y-99625123D01*
X194360819Y-98977504D01*
X194703676Y-99053695D02*
X194741771Y-99015600D01*
X194817961Y-98977504D01*
X195008438Y-98977504D01*
X195084628Y-99015600D01*
X195122723Y-99053695D01*
X195160819Y-99129885D01*
X195160819Y-99206076D01*
X195122723Y-99320361D01*
X194665580Y-99777504D01*
X195160819Y-99777504D01*
%TO.C,C36*%
X189312514Y-93884685D02*
X189350609Y-93922780D01*
X189388704Y-94037066D01*
X189388704Y-94113257D01*
X189350609Y-94227542D01*
X189274419Y-94303733D01*
X189198228Y-94341828D01*
X189045847Y-94379923D01*
X188931561Y-94379923D01*
X188779180Y-94341828D01*
X188702990Y-94303733D01*
X188626800Y-94227542D01*
X188588704Y-94113257D01*
X188588704Y-94037066D01*
X188626800Y-93922780D01*
X188664895Y-93884685D01*
X188588704Y-93618019D02*
X188588704Y-93122780D01*
X188893466Y-93389447D01*
X188893466Y-93275161D01*
X188931561Y-93198971D01*
X188969657Y-93160876D01*
X189045847Y-93122780D01*
X189236323Y-93122780D01*
X189312514Y-93160876D01*
X189350609Y-93198971D01*
X189388704Y-93275161D01*
X189388704Y-93503733D01*
X189350609Y-93579923D01*
X189312514Y-93618019D01*
X188588704Y-92437066D02*
X188588704Y-92589447D01*
X188626800Y-92665638D01*
X188664895Y-92703733D01*
X188779180Y-92779923D01*
X188931561Y-92818019D01*
X189236323Y-92818019D01*
X189312514Y-92779923D01*
X189350609Y-92741828D01*
X189388704Y-92665638D01*
X189388704Y-92513257D01*
X189350609Y-92437066D01*
X189312514Y-92398971D01*
X189236323Y-92360876D01*
X189045847Y-92360876D01*
X188969657Y-92398971D01*
X188931561Y-92437066D01*
X188893466Y-92513257D01*
X188893466Y-92665638D01*
X188931561Y-92741828D01*
X188969657Y-92779923D01*
X189045847Y-92818019D01*
%TO.C,C52*%
X188220314Y-93910085D02*
X188258409Y-93948180D01*
X188296504Y-94062466D01*
X188296504Y-94138657D01*
X188258409Y-94252942D01*
X188182219Y-94329133D01*
X188106028Y-94367228D01*
X187953647Y-94405323D01*
X187839361Y-94405323D01*
X187686980Y-94367228D01*
X187610790Y-94329133D01*
X187534600Y-94252942D01*
X187496504Y-94138657D01*
X187496504Y-94062466D01*
X187534600Y-93948180D01*
X187572695Y-93910085D01*
X187496504Y-93186276D02*
X187496504Y-93567228D01*
X187877457Y-93605323D01*
X187839361Y-93567228D01*
X187801266Y-93491038D01*
X187801266Y-93300561D01*
X187839361Y-93224371D01*
X187877457Y-93186276D01*
X187953647Y-93148180D01*
X188144123Y-93148180D01*
X188220314Y-93186276D01*
X188258409Y-93224371D01*
X188296504Y-93300561D01*
X188296504Y-93491038D01*
X188258409Y-93567228D01*
X188220314Y-93605323D01*
X187572695Y-92843419D02*
X187534600Y-92805323D01*
X187496504Y-92729133D01*
X187496504Y-92538657D01*
X187534600Y-92462466D01*
X187572695Y-92424371D01*
X187648885Y-92386276D01*
X187725076Y-92386276D01*
X187839361Y-92424371D01*
X188296504Y-92881514D01*
X188296504Y-92386276D01*
%TO.C,C42*%
X190531714Y-114712685D02*
X190569809Y-114750780D01*
X190607904Y-114865066D01*
X190607904Y-114941257D01*
X190569809Y-115055542D01*
X190493619Y-115131733D01*
X190417428Y-115169828D01*
X190265047Y-115207923D01*
X190150761Y-115207923D01*
X189998380Y-115169828D01*
X189922190Y-115131733D01*
X189846000Y-115055542D01*
X189807904Y-114941257D01*
X189807904Y-114865066D01*
X189846000Y-114750780D01*
X189884095Y-114712685D01*
X190074571Y-114026971D02*
X190607904Y-114026971D01*
X189769809Y-114217447D02*
X190341238Y-114407923D01*
X190341238Y-113912685D01*
X189884095Y-113646019D02*
X189846000Y-113607923D01*
X189807904Y-113531733D01*
X189807904Y-113341257D01*
X189846000Y-113265066D01*
X189884095Y-113226971D01*
X189960285Y-113188876D01*
X190036476Y-113188876D01*
X190150761Y-113226971D01*
X190607904Y-113684114D01*
X190607904Y-113188876D01*
%TO.C,C65*%
X185070714Y-93935485D02*
X185108809Y-93973580D01*
X185146904Y-94087866D01*
X185146904Y-94164057D01*
X185108809Y-94278342D01*
X185032619Y-94354533D01*
X184956428Y-94392628D01*
X184804047Y-94430723D01*
X184689761Y-94430723D01*
X184537380Y-94392628D01*
X184461190Y-94354533D01*
X184385000Y-94278342D01*
X184346904Y-94164057D01*
X184346904Y-94087866D01*
X184385000Y-93973580D01*
X184423095Y-93935485D01*
X184346904Y-93249771D02*
X184346904Y-93402152D01*
X184385000Y-93478342D01*
X184423095Y-93516438D01*
X184537380Y-93592628D01*
X184689761Y-93630723D01*
X184994523Y-93630723D01*
X185070714Y-93592628D01*
X185108809Y-93554533D01*
X185146904Y-93478342D01*
X185146904Y-93325961D01*
X185108809Y-93249771D01*
X185070714Y-93211676D01*
X184994523Y-93173580D01*
X184804047Y-93173580D01*
X184727857Y-93211676D01*
X184689761Y-93249771D01*
X184651666Y-93325961D01*
X184651666Y-93478342D01*
X184689761Y-93554533D01*
X184727857Y-93592628D01*
X184804047Y-93630723D01*
X184346904Y-92449771D02*
X184346904Y-92830723D01*
X184727857Y-92868819D01*
X184689761Y-92830723D01*
X184651666Y-92754533D01*
X184651666Y-92564057D01*
X184689761Y-92487866D01*
X184727857Y-92449771D01*
X184804047Y-92411676D01*
X184994523Y-92411676D01*
X185070714Y-92449771D01*
X185108809Y-92487866D01*
X185146904Y-92564057D01*
X185146904Y-92754533D01*
X185108809Y-92830723D01*
X185070714Y-92868819D01*
%TO.C,R52*%
X187255104Y-93935485D02*
X186874152Y-94202152D01*
X187255104Y-94392628D02*
X186455104Y-94392628D01*
X186455104Y-94087866D01*
X186493200Y-94011676D01*
X186531295Y-93973580D01*
X186607485Y-93935485D01*
X186721771Y-93935485D01*
X186797961Y-93973580D01*
X186836057Y-94011676D01*
X186874152Y-94087866D01*
X186874152Y-94392628D01*
X186455104Y-93211676D02*
X186455104Y-93592628D01*
X186836057Y-93630723D01*
X186797961Y-93592628D01*
X186759866Y-93516438D01*
X186759866Y-93325961D01*
X186797961Y-93249771D01*
X186836057Y-93211676D01*
X186912247Y-93173580D01*
X187102723Y-93173580D01*
X187178914Y-93211676D01*
X187217009Y-93249771D01*
X187255104Y-93325961D01*
X187255104Y-93516438D01*
X187217009Y-93592628D01*
X187178914Y-93630723D01*
X186531295Y-92868819D02*
X186493200Y-92830723D01*
X186455104Y-92754533D01*
X186455104Y-92564057D01*
X186493200Y-92487866D01*
X186531295Y-92449771D01*
X186607485Y-92411676D01*
X186683676Y-92411676D01*
X186797961Y-92449771D01*
X187255104Y-92906914D01*
X187255104Y-92411676D01*
%TO.C,R17*%
X156127404Y-142246285D02*
X155746452Y-142512952D01*
X156127404Y-142703428D02*
X155327404Y-142703428D01*
X155327404Y-142398666D01*
X155365500Y-142322476D01*
X155403595Y-142284380D01*
X155479785Y-142246285D01*
X155594071Y-142246285D01*
X155670261Y-142284380D01*
X155708357Y-142322476D01*
X155746452Y-142398666D01*
X155746452Y-142703428D01*
X156127404Y-141484380D02*
X156127404Y-141941523D01*
X156127404Y-141712952D02*
X155327404Y-141712952D01*
X155441690Y-141789142D01*
X155517880Y-141865333D01*
X155555976Y-141941523D01*
X155327404Y-141217714D02*
X155327404Y-140684380D01*
X156127404Y-141027238D01*
%TO.C,R16*%
X151364904Y-142246285D02*
X150983952Y-142512952D01*
X151364904Y-142703428D02*
X150564904Y-142703428D01*
X150564904Y-142398666D01*
X150603000Y-142322476D01*
X150641095Y-142284380D01*
X150717285Y-142246285D01*
X150831571Y-142246285D01*
X150907761Y-142284380D01*
X150945857Y-142322476D01*
X150983952Y-142398666D01*
X150983952Y-142703428D01*
X151364904Y-141484380D02*
X151364904Y-141941523D01*
X151364904Y-141712952D02*
X150564904Y-141712952D01*
X150679190Y-141789142D01*
X150755380Y-141865333D01*
X150793476Y-141941523D01*
X150564904Y-140798666D02*
X150564904Y-140951047D01*
X150603000Y-141027238D01*
X150641095Y-141065333D01*
X150755380Y-141141523D01*
X150907761Y-141179619D01*
X151212523Y-141179619D01*
X151288714Y-141141523D01*
X151326809Y-141103428D01*
X151364904Y-141027238D01*
X151364904Y-140874857D01*
X151326809Y-140798666D01*
X151288714Y-140760571D01*
X151212523Y-140722476D01*
X151022047Y-140722476D01*
X150945857Y-140760571D01*
X150907761Y-140798666D01*
X150869666Y-140874857D01*
X150869666Y-141027238D01*
X150907761Y-141103428D01*
X150945857Y-141141523D01*
X151022047Y-141179619D01*
%TO.C,J4*%
X129273333Y-144131904D02*
X129273333Y-144703333D01*
X129235238Y-144817619D01*
X129159047Y-144893809D01*
X129044761Y-144931904D01*
X128968571Y-144931904D01*
X129997142Y-144398571D02*
X129997142Y-144931904D01*
X129806666Y-144093809D02*
X129616190Y-144665238D01*
X130111428Y-144665238D01*
%TO.C,J3*%
X131813333Y-144131904D02*
X131813333Y-144703333D01*
X131775238Y-144817619D01*
X131699047Y-144893809D01*
X131584761Y-144931904D01*
X131508571Y-144931904D01*
X132118095Y-144131904D02*
X132613333Y-144131904D01*
X132346666Y-144436666D01*
X132460952Y-144436666D01*
X132537142Y-144474761D01*
X132575238Y-144512857D01*
X132613333Y-144589047D01*
X132613333Y-144779523D01*
X132575238Y-144855714D01*
X132537142Y-144893809D01*
X132460952Y-144931904D01*
X132232380Y-144931904D01*
X132156190Y-144893809D01*
X132118095Y-144855714D01*
%TO.C,J2*%
X134353333Y-144131904D02*
X134353333Y-144703333D01*
X134315238Y-144817619D01*
X134239047Y-144893809D01*
X134124761Y-144931904D01*
X134048571Y-144931904D01*
X134696190Y-144208095D02*
X134734285Y-144170000D01*
X134810476Y-144131904D01*
X135000952Y-144131904D01*
X135077142Y-144170000D01*
X135115238Y-144208095D01*
X135153333Y-144284285D01*
X135153333Y-144360476D01*
X135115238Y-144474761D01*
X134658095Y-144931904D01*
X135153333Y-144931904D01*
%TO.C,J1*%
X136893333Y-144131904D02*
X136893333Y-144703333D01*
X136855238Y-144817619D01*
X136779047Y-144893809D01*
X136664761Y-144931904D01*
X136588571Y-144931904D01*
X137693333Y-144931904D02*
X137236190Y-144931904D01*
X137464761Y-144931904D02*
X137464761Y-144131904D01*
X137388571Y-144246190D01*
X137312380Y-144322380D01*
X137236190Y-144360476D01*
%TO.C,C68*%
X164877714Y-114331685D02*
X164915809Y-114369780D01*
X164953904Y-114484066D01*
X164953904Y-114560257D01*
X164915809Y-114674542D01*
X164839619Y-114750733D01*
X164763428Y-114788828D01*
X164611047Y-114826923D01*
X164496761Y-114826923D01*
X164344380Y-114788828D01*
X164268190Y-114750733D01*
X164192000Y-114674542D01*
X164153904Y-114560257D01*
X164153904Y-114484066D01*
X164192000Y-114369780D01*
X164230095Y-114331685D01*
X164153904Y-113645971D02*
X164153904Y-113798352D01*
X164192000Y-113874542D01*
X164230095Y-113912638D01*
X164344380Y-113988828D01*
X164496761Y-114026923D01*
X164801523Y-114026923D01*
X164877714Y-113988828D01*
X164915809Y-113950733D01*
X164953904Y-113874542D01*
X164953904Y-113722161D01*
X164915809Y-113645971D01*
X164877714Y-113607876D01*
X164801523Y-113569780D01*
X164611047Y-113569780D01*
X164534857Y-113607876D01*
X164496761Y-113645971D01*
X164458666Y-113722161D01*
X164458666Y-113874542D01*
X164496761Y-113950733D01*
X164534857Y-113988828D01*
X164611047Y-114026923D01*
X164496761Y-113112638D02*
X164458666Y-113188828D01*
X164420571Y-113226923D01*
X164344380Y-113265019D01*
X164306285Y-113265019D01*
X164230095Y-113226923D01*
X164192000Y-113188828D01*
X164153904Y-113112638D01*
X164153904Y-112960257D01*
X164192000Y-112884066D01*
X164230095Y-112845971D01*
X164306285Y-112807876D01*
X164344380Y-112807876D01*
X164420571Y-112845971D01*
X164458666Y-112884066D01*
X164496761Y-112960257D01*
X164496761Y-113112638D01*
X164534857Y-113188828D01*
X164572952Y-113226923D01*
X164649142Y-113265019D01*
X164801523Y-113265019D01*
X164877714Y-113226923D01*
X164915809Y-113188828D01*
X164953904Y-113112638D01*
X164953904Y-112960257D01*
X164915809Y-112884066D01*
X164877714Y-112845971D01*
X164801523Y-112807876D01*
X164649142Y-112807876D01*
X164572952Y-112845971D01*
X164534857Y-112884066D01*
X164496761Y-112960257D01*
%TO.C,C9*%
X159505666Y-113468114D02*
X159467571Y-113506209D01*
X159353285Y-113544304D01*
X159277095Y-113544304D01*
X159162809Y-113506209D01*
X159086619Y-113430019D01*
X159048523Y-113353828D01*
X159010428Y-113201447D01*
X159010428Y-113087161D01*
X159048523Y-112934780D01*
X159086619Y-112858590D01*
X159162809Y-112782400D01*
X159277095Y-112744304D01*
X159353285Y-112744304D01*
X159467571Y-112782400D01*
X159505666Y-112820495D01*
X159886619Y-113544304D02*
X160039000Y-113544304D01*
X160115190Y-113506209D01*
X160153285Y-113468114D01*
X160229476Y-113353828D01*
X160267571Y-113201447D01*
X160267571Y-112896685D01*
X160229476Y-112820495D01*
X160191380Y-112782400D01*
X160115190Y-112744304D01*
X159962809Y-112744304D01*
X159886619Y-112782400D01*
X159848523Y-112820495D01*
X159810428Y-112896685D01*
X159810428Y-113087161D01*
X159848523Y-113163352D01*
X159886619Y-113201447D01*
X159962809Y-113239542D01*
X160115190Y-113239542D01*
X160191380Y-113201447D01*
X160229476Y-113163352D01*
X160267571Y-113087161D01*
%TO.C,C17*%
X164357114Y-116389114D02*
X164319019Y-116427209D01*
X164204733Y-116465304D01*
X164128542Y-116465304D01*
X164014257Y-116427209D01*
X163938066Y-116351019D01*
X163899971Y-116274828D01*
X163861876Y-116122447D01*
X163861876Y-116008161D01*
X163899971Y-115855780D01*
X163938066Y-115779590D01*
X164014257Y-115703400D01*
X164128542Y-115665304D01*
X164204733Y-115665304D01*
X164319019Y-115703400D01*
X164357114Y-115741495D01*
X165119019Y-116465304D02*
X164661876Y-116465304D01*
X164890447Y-116465304D02*
X164890447Y-115665304D01*
X164814257Y-115779590D01*
X164738066Y-115855780D01*
X164661876Y-115893876D01*
X165385685Y-115665304D02*
X165919019Y-115665304D01*
X165576161Y-116465304D01*
%TO.C,C5*%
X180206666Y-133000714D02*
X180168571Y-133038809D01*
X180054285Y-133076904D01*
X179978095Y-133076904D01*
X179863809Y-133038809D01*
X179787619Y-132962619D01*
X179749523Y-132886428D01*
X179711428Y-132734047D01*
X179711428Y-132619761D01*
X179749523Y-132467380D01*
X179787619Y-132391190D01*
X179863809Y-132315000D01*
X179978095Y-132276904D01*
X180054285Y-132276904D01*
X180168571Y-132315000D01*
X180206666Y-132353095D01*
X180930476Y-132276904D02*
X180549523Y-132276904D01*
X180511428Y-132657857D01*
X180549523Y-132619761D01*
X180625714Y-132581666D01*
X180816190Y-132581666D01*
X180892380Y-132619761D01*
X180930476Y-132657857D01*
X180968571Y-132734047D01*
X180968571Y-132924523D01*
X180930476Y-133000714D01*
X180892380Y-133038809D01*
X180816190Y-133076904D01*
X180625714Y-133076904D01*
X180549523Y-133038809D01*
X180511428Y-133000714D01*
%TO.C,U4*%
X188874476Y-129101904D02*
X188874476Y-129749523D01*
X188912571Y-129825714D01*
X188950666Y-129863809D01*
X189026857Y-129901904D01*
X189179238Y-129901904D01*
X189255428Y-129863809D01*
X189293523Y-129825714D01*
X189331619Y-129749523D01*
X189331619Y-129101904D01*
X190055428Y-129368571D02*
X190055428Y-129901904D01*
X189864952Y-129063809D02*
X189674476Y-129635238D01*
X190169714Y-129635238D01*
%TO.C,U3*%
X179832076Y-138957104D02*
X179832076Y-139604723D01*
X179870171Y-139680914D01*
X179908266Y-139719009D01*
X179984457Y-139757104D01*
X180136838Y-139757104D01*
X180213028Y-139719009D01*
X180251123Y-139680914D01*
X180289219Y-139604723D01*
X180289219Y-138957104D01*
X180593980Y-138957104D02*
X181089219Y-138957104D01*
X180822552Y-139261866D01*
X180936838Y-139261866D01*
X181013028Y-139299961D01*
X181051123Y-139338057D01*
X181089219Y-139414247D01*
X181089219Y-139604723D01*
X181051123Y-139680914D01*
X181013028Y-139719009D01*
X180936838Y-139757104D01*
X180708266Y-139757104D01*
X180632076Y-139719009D01*
X180593980Y-139680914D01*
%TO.C,R9*%
X143236904Y-76206333D02*
X142855952Y-76473000D01*
X143236904Y-76663476D02*
X142436904Y-76663476D01*
X142436904Y-76358714D01*
X142475000Y-76282523D01*
X142513095Y-76244428D01*
X142589285Y-76206333D01*
X142703571Y-76206333D01*
X142779761Y-76244428D01*
X142817857Y-76282523D01*
X142855952Y-76358714D01*
X142855952Y-76663476D01*
X143236904Y-75825380D02*
X143236904Y-75673000D01*
X143198809Y-75596809D01*
X143160714Y-75558714D01*
X143046428Y-75482523D01*
X142894047Y-75444428D01*
X142589285Y-75444428D01*
X142513095Y-75482523D01*
X142475000Y-75520619D01*
X142436904Y-75596809D01*
X142436904Y-75749190D01*
X142475000Y-75825380D01*
X142513095Y-75863476D01*
X142589285Y-75901571D01*
X142779761Y-75901571D01*
X142855952Y-75863476D01*
X142894047Y-75825380D01*
X142932142Y-75749190D01*
X142932142Y-75596809D01*
X142894047Y-75520619D01*
X142855952Y-75482523D01*
X142779761Y-75444428D01*
%TO.C,R8*%
X167874904Y-113798333D02*
X167493952Y-114065000D01*
X167874904Y-114255476D02*
X167074904Y-114255476D01*
X167074904Y-113950714D01*
X167113000Y-113874523D01*
X167151095Y-113836428D01*
X167227285Y-113798333D01*
X167341571Y-113798333D01*
X167417761Y-113836428D01*
X167455857Y-113874523D01*
X167493952Y-113950714D01*
X167493952Y-114255476D01*
X167417761Y-113341190D02*
X167379666Y-113417380D01*
X167341571Y-113455476D01*
X167265380Y-113493571D01*
X167227285Y-113493571D01*
X167151095Y-113455476D01*
X167113000Y-113417380D01*
X167074904Y-113341190D01*
X167074904Y-113188809D01*
X167113000Y-113112619D01*
X167151095Y-113074523D01*
X167227285Y-113036428D01*
X167265380Y-113036428D01*
X167341571Y-113074523D01*
X167379666Y-113112619D01*
X167417761Y-113188809D01*
X167417761Y-113341190D01*
X167455857Y-113417380D01*
X167493952Y-113455476D01*
X167570142Y-113493571D01*
X167722523Y-113493571D01*
X167798714Y-113455476D01*
X167836809Y-113417380D01*
X167874904Y-113341190D01*
X167874904Y-113188809D01*
X167836809Y-113112619D01*
X167798714Y-113074523D01*
X167722523Y-113036428D01*
X167570142Y-113036428D01*
X167493952Y-113074523D01*
X167455857Y-113112619D01*
X167417761Y-113188809D01*
%TO.C,R4*%
X193541666Y-127361904D02*
X193275000Y-126980952D01*
X193084523Y-127361904D02*
X193084523Y-126561904D01*
X193389285Y-126561904D01*
X193465476Y-126600000D01*
X193503571Y-126638095D01*
X193541666Y-126714285D01*
X193541666Y-126828571D01*
X193503571Y-126904761D01*
X193465476Y-126942857D01*
X193389285Y-126980952D01*
X193084523Y-126980952D01*
X194227380Y-126828571D02*
X194227380Y-127361904D01*
X194036904Y-126523809D02*
X193846428Y-127095238D01*
X194341666Y-127095238D01*
%TO.C,R3*%
X196081666Y-127361904D02*
X195815000Y-126980952D01*
X195624523Y-127361904D02*
X195624523Y-126561904D01*
X195929285Y-126561904D01*
X196005476Y-126600000D01*
X196043571Y-126638095D01*
X196081666Y-126714285D01*
X196081666Y-126828571D01*
X196043571Y-126904761D01*
X196005476Y-126942857D01*
X195929285Y-126980952D01*
X195624523Y-126980952D01*
X196348333Y-126561904D02*
X196843571Y-126561904D01*
X196576904Y-126866666D01*
X196691190Y-126866666D01*
X196767380Y-126904761D01*
X196805476Y-126942857D01*
X196843571Y-127019047D01*
X196843571Y-127209523D01*
X196805476Y-127285714D01*
X196767380Y-127323809D01*
X196691190Y-127361904D01*
X196462619Y-127361904D01*
X196386428Y-127323809D01*
X196348333Y-127285714D01*
%TO.C,Q1*%
X173151809Y-142271695D02*
X173075619Y-142233600D01*
X172999428Y-142157409D01*
X172885142Y-142043123D01*
X172808952Y-142005028D01*
X172732761Y-142005028D01*
X172770857Y-142195504D02*
X172694666Y-142157409D01*
X172618476Y-142081219D01*
X172580380Y-141928838D01*
X172580380Y-141662171D01*
X172618476Y-141509790D01*
X172694666Y-141433600D01*
X172770857Y-141395504D01*
X172923238Y-141395504D01*
X172999428Y-141433600D01*
X173075619Y-141509790D01*
X173113714Y-141662171D01*
X173113714Y-141928838D01*
X173075619Y-142081219D01*
X172999428Y-142157409D01*
X172923238Y-142195504D01*
X172770857Y-142195504D01*
X173875619Y-142195504D02*
X173418476Y-142195504D01*
X173647047Y-142195504D02*
X173647047Y-141395504D01*
X173570857Y-141509790D01*
X173494666Y-141585980D01*
X173418476Y-141624076D01*
%TO.C,L2*%
X171951666Y-131806904D02*
X171570714Y-131806904D01*
X171570714Y-131006904D01*
X172180238Y-131083095D02*
X172218333Y-131045000D01*
X172294523Y-131006904D01*
X172485000Y-131006904D01*
X172561190Y-131045000D01*
X172599285Y-131083095D01*
X172637380Y-131159285D01*
X172637380Y-131235476D01*
X172599285Y-131349761D01*
X172142142Y-131806904D01*
X172637380Y-131806904D01*
%TO.C,J6*%
X188963333Y-82536904D02*
X188963333Y-83108333D01*
X188925238Y-83222619D01*
X188849047Y-83298809D01*
X188734761Y-83336904D01*
X188658571Y-83336904D01*
X189687142Y-82536904D02*
X189534761Y-82536904D01*
X189458571Y-82575000D01*
X189420476Y-82613095D01*
X189344285Y-82727380D01*
X189306190Y-82879761D01*
X189306190Y-83184523D01*
X189344285Y-83260714D01*
X189382380Y-83298809D01*
X189458571Y-83336904D01*
X189610952Y-83336904D01*
X189687142Y-83298809D01*
X189725238Y-83260714D01*
X189763333Y-83184523D01*
X189763333Y-82994047D01*
X189725238Y-82917857D01*
X189687142Y-82879761D01*
X189610952Y-82841666D01*
X189458571Y-82841666D01*
X189382380Y-82879761D01*
X189344285Y-82917857D01*
X189306190Y-82994047D01*
%TO.C,D1*%
X144164123Y-75799904D02*
X144164123Y-74999904D01*
X144354600Y-74999904D01*
X144468885Y-75038000D01*
X144545076Y-75114190D01*
X144583171Y-75190380D01*
X144621266Y-75342761D01*
X144621266Y-75457047D01*
X144583171Y-75609428D01*
X144545076Y-75685619D01*
X144468885Y-75761809D01*
X144354600Y-75799904D01*
X144164123Y-75799904D01*
X145383171Y-75799904D02*
X144926028Y-75799904D01*
X145154600Y-75799904D02*
X145154600Y-74999904D01*
X145078409Y-75114190D01*
X145002219Y-75190380D01*
X144926028Y-75228476D01*
%TO.C,C10*%
X176777714Y-127158714D02*
X176739619Y-127196809D01*
X176625333Y-127234904D01*
X176549142Y-127234904D01*
X176434857Y-127196809D01*
X176358666Y-127120619D01*
X176320571Y-127044428D01*
X176282476Y-126892047D01*
X176282476Y-126777761D01*
X176320571Y-126625380D01*
X176358666Y-126549190D01*
X176434857Y-126473000D01*
X176549142Y-126434904D01*
X176625333Y-126434904D01*
X176739619Y-126473000D01*
X176777714Y-126511095D01*
X177539619Y-127234904D02*
X177082476Y-127234904D01*
X177311047Y-127234904D02*
X177311047Y-126434904D01*
X177234857Y-126549190D01*
X177158666Y-126625380D01*
X177082476Y-126663476D01*
X178034857Y-126434904D02*
X178111047Y-126434904D01*
X178187238Y-126473000D01*
X178225333Y-126511095D01*
X178263428Y-126587285D01*
X178301523Y-126739666D01*
X178301523Y-126930142D01*
X178263428Y-127082523D01*
X178225333Y-127158714D01*
X178187238Y-127196809D01*
X178111047Y-127234904D01*
X178034857Y-127234904D01*
X177958666Y-127196809D01*
X177920571Y-127158714D01*
X177882476Y-127082523D01*
X177844380Y-126930142D01*
X177844380Y-126739666D01*
X177882476Y-126587285D01*
X177920571Y-126511095D01*
X177958666Y-126473000D01*
X178034857Y-126434904D01*
%TO.C,C8*%
X177158666Y-121062714D02*
X177120571Y-121100809D01*
X177006285Y-121138904D01*
X176930095Y-121138904D01*
X176815809Y-121100809D01*
X176739619Y-121024619D01*
X176701523Y-120948428D01*
X176663428Y-120796047D01*
X176663428Y-120681761D01*
X176701523Y-120529380D01*
X176739619Y-120453190D01*
X176815809Y-120377000D01*
X176930095Y-120338904D01*
X177006285Y-120338904D01*
X177120571Y-120377000D01*
X177158666Y-120415095D01*
X177615809Y-120681761D02*
X177539619Y-120643666D01*
X177501523Y-120605571D01*
X177463428Y-120529380D01*
X177463428Y-120491285D01*
X177501523Y-120415095D01*
X177539619Y-120377000D01*
X177615809Y-120338904D01*
X177768190Y-120338904D01*
X177844380Y-120377000D01*
X177882476Y-120415095D01*
X177920571Y-120491285D01*
X177920571Y-120529380D01*
X177882476Y-120605571D01*
X177844380Y-120643666D01*
X177768190Y-120681761D01*
X177615809Y-120681761D01*
X177539619Y-120719857D01*
X177501523Y-120757952D01*
X177463428Y-120834142D01*
X177463428Y-120986523D01*
X177501523Y-121062714D01*
X177539619Y-121100809D01*
X177615809Y-121138904D01*
X177768190Y-121138904D01*
X177844380Y-121100809D01*
X177882476Y-121062714D01*
X177920571Y-120986523D01*
X177920571Y-120834142D01*
X177882476Y-120757952D01*
X177844380Y-120719857D01*
X177768190Y-120681761D01*
%TO.C,C6*%
X177666666Y-133000714D02*
X177628571Y-133038809D01*
X177514285Y-133076904D01*
X177438095Y-133076904D01*
X177323809Y-133038809D01*
X177247619Y-132962619D01*
X177209523Y-132886428D01*
X177171428Y-132734047D01*
X177171428Y-132619761D01*
X177209523Y-132467380D01*
X177247619Y-132391190D01*
X177323809Y-132315000D01*
X177438095Y-132276904D01*
X177514285Y-132276904D01*
X177628571Y-132315000D01*
X177666666Y-132353095D01*
X178352380Y-132276904D02*
X178200000Y-132276904D01*
X178123809Y-132315000D01*
X178085714Y-132353095D01*
X178009523Y-132467380D01*
X177971428Y-132619761D01*
X177971428Y-132924523D01*
X178009523Y-133000714D01*
X178047619Y-133038809D01*
X178123809Y-133076904D01*
X178276190Y-133076904D01*
X178352380Y-133038809D01*
X178390476Y-133000714D01*
X178428571Y-132924523D01*
X178428571Y-132734047D01*
X178390476Y-132657857D01*
X178352380Y-132619761D01*
X178276190Y-132581666D01*
X178123809Y-132581666D01*
X178047619Y-132619761D01*
X178009523Y-132657857D01*
X177971428Y-132734047D01*
%TO.C,C4*%
X188461666Y-123475714D02*
X188423571Y-123513809D01*
X188309285Y-123551904D01*
X188233095Y-123551904D01*
X188118809Y-123513809D01*
X188042619Y-123437619D01*
X188004523Y-123361428D01*
X187966428Y-123209047D01*
X187966428Y-123094761D01*
X188004523Y-122942380D01*
X188042619Y-122866190D01*
X188118809Y-122790000D01*
X188233095Y-122751904D01*
X188309285Y-122751904D01*
X188423571Y-122790000D01*
X188461666Y-122828095D01*
X189147380Y-123018571D02*
X189147380Y-123551904D01*
X188956904Y-122713809D02*
X188766428Y-123285238D01*
X189261666Y-123285238D01*
%TO.C,C3*%
X179444666Y-143033714D02*
X179406571Y-143071809D01*
X179292285Y-143109904D01*
X179216095Y-143109904D01*
X179101809Y-143071809D01*
X179025619Y-142995619D01*
X178987523Y-142919428D01*
X178949428Y-142767047D01*
X178949428Y-142652761D01*
X178987523Y-142500380D01*
X179025619Y-142424190D01*
X179101809Y-142348000D01*
X179216095Y-142309904D01*
X179292285Y-142309904D01*
X179406571Y-142348000D01*
X179444666Y-142386095D01*
X179711333Y-142309904D02*
X180206571Y-142309904D01*
X179939904Y-142614666D01*
X180054190Y-142614666D01*
X180130380Y-142652761D01*
X180168476Y-142690857D01*
X180206571Y-142767047D01*
X180206571Y-142957523D01*
X180168476Y-143033714D01*
X180130380Y-143071809D01*
X180054190Y-143109904D01*
X179825619Y-143109904D01*
X179749428Y-143071809D01*
X179711333Y-143033714D01*
%TO.C,C2*%
X182746666Y-133000714D02*
X182708571Y-133038809D01*
X182594285Y-133076904D01*
X182518095Y-133076904D01*
X182403809Y-133038809D01*
X182327619Y-132962619D01*
X182289523Y-132886428D01*
X182251428Y-132734047D01*
X182251428Y-132619761D01*
X182289523Y-132467380D01*
X182327619Y-132391190D01*
X182403809Y-132315000D01*
X182518095Y-132276904D01*
X182594285Y-132276904D01*
X182708571Y-132315000D01*
X182746666Y-132353095D01*
X183051428Y-132353095D02*
X183089523Y-132315000D01*
X183165714Y-132276904D01*
X183356190Y-132276904D01*
X183432380Y-132315000D01*
X183470476Y-132353095D01*
X183508571Y-132429285D01*
X183508571Y-132505476D01*
X183470476Y-132619761D01*
X183013333Y-133076904D01*
X183508571Y-133076904D01*
%TO.C,C1*%
X180333666Y-136429714D02*
X180295571Y-136467809D01*
X180181285Y-136505904D01*
X180105095Y-136505904D01*
X179990809Y-136467809D01*
X179914619Y-136391619D01*
X179876523Y-136315428D01*
X179838428Y-136163047D01*
X179838428Y-136048761D01*
X179876523Y-135896380D01*
X179914619Y-135820190D01*
X179990809Y-135744000D01*
X180105095Y-135705904D01*
X180181285Y-135705904D01*
X180295571Y-135744000D01*
X180333666Y-135782095D01*
X181095571Y-136505904D02*
X180638428Y-136505904D01*
X180867000Y-136505904D02*
X180867000Y-135705904D01*
X180790809Y-135820190D01*
X180714619Y-135896380D01*
X180638428Y-135934476D01*
%TD*%
M02*
