%TF.GenerationSoftware,KiCad,Pcbnew,(5.1.8-0-10_14)*%
%TF.CreationDate,2020-12-08T12:39:33+00:00*%
%TF.ProjectId,STM32MP1_TestBoard,53544d33-324d-4503-915f-54657374426f,rev?*%
%TF.SameCoordinates,Original*%
%TF.FileFunction,Soldermask,Bot*%
%TF.FilePolarity,Negative*%
%FSLAX46Y46*%
G04 Gerber Fmt 4.6, Leading zero omitted, Abs format (unit mm)*
G04 Created by KiCad (PCBNEW (5.1.8-0-10_14)) date 2020-12-08 12:39:33*
%MOMM*%
%LPD*%
G01*
G04 APERTURE LIST*
%ADD10O,1.700000X1.700000*%
%ADD11R,1.700000X1.700000*%
%ADD12R,3.500000X3.500000*%
%ADD13O,1.200000X1.900000*%
%ADD14C,1.450000*%
%ADD15C,0.100000*%
G04 APERTURE END LIST*
D10*
%TO.C,J7*%
X177800000Y-88900000D03*
X180340000Y-88900000D03*
X182880000Y-88900000D03*
X185420000Y-88900000D03*
X187960000Y-88900000D03*
X190500000Y-88900000D03*
X193040000Y-88900000D03*
D11*
X195580000Y-88900000D03*
%TD*%
%TO.C,J9*%
G36*
G01*
X196075000Y-140640000D02*
X194325000Y-140640000D01*
G75*
G02*
X193450000Y-139765000I0J875000D01*
G01*
X193450000Y-138015000D01*
G75*
G02*
X194325000Y-137140000I875000J0D01*
G01*
X196075000Y-137140000D01*
G75*
G02*
X196950000Y-138015000I0J-875000D01*
G01*
X196950000Y-139765000D01*
G75*
G02*
X196075000Y-140640000I-875000J0D01*
G01*
G37*
G36*
G01*
X191500000Y-143390000D02*
X189500000Y-143390000D01*
G75*
G02*
X188750000Y-142640000I0J750000D01*
G01*
X188750000Y-141140000D01*
G75*
G02*
X189500000Y-140390000I750000J0D01*
G01*
X191500000Y-140390000D01*
G75*
G02*
X192250000Y-141140000I0J-750000D01*
G01*
X192250000Y-142640000D01*
G75*
G02*
X191500000Y-143390000I-750000J0D01*
G01*
G37*
D12*
X190500000Y-135890000D03*
%TD*%
%TO.C,R2*%
G36*
G01*
X179842200Y-107513100D02*
X179842200Y-107193100D01*
G75*
G02*
X180002200Y-107033100I160000J0D01*
G01*
X180397200Y-107033100D01*
G75*
G02*
X180557200Y-107193100I0J-160000D01*
G01*
X180557200Y-107513100D01*
G75*
G02*
X180397200Y-107673100I-160000J0D01*
G01*
X180002200Y-107673100D01*
G75*
G02*
X179842200Y-107513100I0J160000D01*
G01*
G37*
G36*
G01*
X181037200Y-107513100D02*
X181037200Y-107193100D01*
G75*
G02*
X181197200Y-107033100I160000J0D01*
G01*
X181592200Y-107033100D01*
G75*
G02*
X181752200Y-107193100I0J-160000D01*
G01*
X181752200Y-107513100D01*
G75*
G02*
X181592200Y-107673100I-160000J0D01*
G01*
X181197200Y-107673100D01*
G75*
G02*
X181037200Y-107513100I0J160000D01*
G01*
G37*
%TD*%
%TO.C,R11*%
G36*
G01*
X181752200Y-108259900D02*
X181752200Y-108579900D01*
G75*
G02*
X181592200Y-108739900I-160000J0D01*
G01*
X181197200Y-108739900D01*
G75*
G02*
X181037200Y-108579900I0J160000D01*
G01*
X181037200Y-108259900D01*
G75*
G02*
X181197200Y-108099900I160000J0D01*
G01*
X181592200Y-108099900D01*
G75*
G02*
X181752200Y-108259900I0J-160000D01*
G01*
G37*
G36*
G01*
X180557200Y-108259900D02*
X180557200Y-108579900D01*
G75*
G02*
X180397200Y-108739900I-160000J0D01*
G01*
X180002200Y-108739900D01*
G75*
G02*
X179842200Y-108579900I0J160000D01*
G01*
X179842200Y-108259900D01*
G75*
G02*
X180002200Y-108099900I160000J0D01*
G01*
X180397200Y-108099900D01*
G75*
G02*
X180557200Y-108259900I0J-160000D01*
G01*
G37*
%TD*%
%TO.C,R14*%
G36*
G01*
X185625700Y-102913200D02*
X185625700Y-103233200D01*
G75*
G02*
X185465700Y-103393200I-160000J0D01*
G01*
X185070700Y-103393200D01*
G75*
G02*
X184910700Y-103233200I0J160000D01*
G01*
X184910700Y-102913200D01*
G75*
G02*
X185070700Y-102753200I160000J0D01*
G01*
X185465700Y-102753200D01*
G75*
G02*
X185625700Y-102913200I0J-160000D01*
G01*
G37*
G36*
G01*
X184430700Y-102913200D02*
X184430700Y-103233200D01*
G75*
G02*
X184270700Y-103393200I-160000J0D01*
G01*
X183875700Y-103393200D01*
G75*
G02*
X183715700Y-103233200I0J160000D01*
G01*
X183715700Y-102913200D01*
G75*
G02*
X183875700Y-102753200I160000J0D01*
G01*
X184270700Y-102753200D01*
G75*
G02*
X184430700Y-102913200I0J-160000D01*
G01*
G37*
%TD*%
%TO.C,R6*%
G36*
G01*
X183474400Y-107525800D02*
X183474400Y-107205800D01*
G75*
G02*
X183634400Y-107045800I160000J0D01*
G01*
X184029400Y-107045800D01*
G75*
G02*
X184189400Y-107205800I0J-160000D01*
G01*
X184189400Y-107525800D01*
G75*
G02*
X184029400Y-107685800I-160000J0D01*
G01*
X183634400Y-107685800D01*
G75*
G02*
X183474400Y-107525800I0J160000D01*
G01*
G37*
G36*
G01*
X184669400Y-107525800D02*
X184669400Y-107205800D01*
G75*
G02*
X184829400Y-107045800I160000J0D01*
G01*
X185224400Y-107045800D01*
G75*
G02*
X185384400Y-107205800I0J-160000D01*
G01*
X185384400Y-107525800D01*
G75*
G02*
X185224400Y-107685800I-160000J0D01*
G01*
X184829400Y-107685800D01*
G75*
G02*
X184669400Y-107525800I0J160000D01*
G01*
G37*
%TD*%
D13*
%TO.C,J8*%
X156687400Y-147338300D03*
X149687400Y-147338300D03*
D14*
X155687400Y-144638300D03*
X150687400Y-144638300D03*
%TD*%
D10*
%TO.C,J5*%
X144780000Y-106680000D03*
X142240000Y-106680000D03*
X144780000Y-104140000D03*
X142240000Y-104140000D03*
X144780000Y-101600000D03*
D11*
X142240000Y-101600000D03*
%TD*%
D10*
%TO.C,J4*%
X129540000Y-76200000D03*
X129540000Y-78740000D03*
X129540000Y-81280000D03*
X129540000Y-83820000D03*
X129540000Y-86360000D03*
X129540000Y-88900000D03*
X129540000Y-91440000D03*
X129540000Y-93980000D03*
X129540000Y-96520000D03*
X129540000Y-99060000D03*
X129540000Y-101600000D03*
X129540000Y-104140000D03*
X129540000Y-106680000D03*
X129540000Y-109220000D03*
X129540000Y-111760000D03*
X129540000Y-114300000D03*
X129540000Y-116840000D03*
X129540000Y-119380000D03*
X129540000Y-121920000D03*
X129540000Y-124460000D03*
X129540000Y-127000000D03*
X129540000Y-129540000D03*
X129540000Y-132080000D03*
X129540000Y-134620000D03*
X129540000Y-137160000D03*
X129540000Y-139700000D03*
D11*
X129540000Y-142240000D03*
%TD*%
D10*
%TO.C,J3*%
X132080000Y-76200000D03*
X132080000Y-78740000D03*
X132080000Y-81280000D03*
X132080000Y-83820000D03*
X132080000Y-86360000D03*
X132080000Y-88900000D03*
X132080000Y-91440000D03*
X132080000Y-93980000D03*
X132080000Y-96520000D03*
X132080000Y-99060000D03*
X132080000Y-101600000D03*
X132080000Y-104140000D03*
X132080000Y-106680000D03*
X132080000Y-109220000D03*
X132080000Y-111760000D03*
X132080000Y-114300000D03*
X132080000Y-116840000D03*
X132080000Y-119380000D03*
X132080000Y-121920000D03*
X132080000Y-124460000D03*
X132080000Y-127000000D03*
X132080000Y-129540000D03*
X132080000Y-132080000D03*
X132080000Y-134620000D03*
X132080000Y-137160000D03*
X132080000Y-139700000D03*
D11*
X132080000Y-142240000D03*
%TD*%
D10*
%TO.C,J2*%
X134620000Y-76200000D03*
X134620000Y-78740000D03*
X134620000Y-81280000D03*
X134620000Y-83820000D03*
X134620000Y-86360000D03*
X134620000Y-88900000D03*
X134620000Y-91440000D03*
X134620000Y-93980000D03*
X134620000Y-96520000D03*
X134620000Y-99060000D03*
X134620000Y-101600000D03*
X134620000Y-104140000D03*
X134620000Y-106680000D03*
X134620000Y-109220000D03*
X134620000Y-111760000D03*
X134620000Y-114300000D03*
X134620000Y-116840000D03*
X134620000Y-119380000D03*
X134620000Y-121920000D03*
X134620000Y-124460000D03*
X134620000Y-127000000D03*
X134620000Y-129540000D03*
X134620000Y-132080000D03*
X134620000Y-134620000D03*
X134620000Y-137160000D03*
X134620000Y-139700000D03*
D11*
X134620000Y-142240000D03*
%TD*%
D10*
%TO.C,J1*%
X137160000Y-76200000D03*
X137160000Y-78740000D03*
X137160000Y-81280000D03*
X137160000Y-83820000D03*
X137160000Y-86360000D03*
X137160000Y-88900000D03*
X137160000Y-91440000D03*
X137160000Y-93980000D03*
X137160000Y-96520000D03*
X137160000Y-99060000D03*
X137160000Y-101600000D03*
X137160000Y-104140000D03*
X137160000Y-106680000D03*
X137160000Y-109220000D03*
X137160000Y-111760000D03*
X137160000Y-114300000D03*
X137160000Y-116840000D03*
X137160000Y-119380000D03*
X137160000Y-121920000D03*
X137160000Y-124460000D03*
X137160000Y-127000000D03*
X137160000Y-129540000D03*
X137160000Y-132080000D03*
X137160000Y-134620000D03*
X137160000Y-137160000D03*
X137160000Y-139700000D03*
D11*
X137160000Y-142240000D03*
%TD*%
%TO.C,C69*%
G36*
G01*
X162704500Y-98580000D02*
X162704500Y-98270000D01*
G75*
G02*
X162859500Y-98115000I155000J0D01*
G01*
X163284500Y-98115000D01*
G75*
G02*
X163439500Y-98270000I0J-155000D01*
G01*
X163439500Y-98580000D01*
G75*
G02*
X163284500Y-98735000I-155000J0D01*
G01*
X162859500Y-98735000D01*
G75*
G02*
X162704500Y-98580000I0J155000D01*
G01*
G37*
G36*
G01*
X163839500Y-98580000D02*
X163839500Y-98270000D01*
G75*
G02*
X163994500Y-98115000I155000J0D01*
G01*
X164419500Y-98115000D01*
G75*
G02*
X164574500Y-98270000I0J-155000D01*
G01*
X164574500Y-98580000D01*
G75*
G02*
X164419500Y-98735000I-155000J0D01*
G01*
X163994500Y-98735000D01*
G75*
G02*
X163839500Y-98580000I0J155000D01*
G01*
G37*
%TD*%
%TO.C,C70*%
G36*
G01*
X163365544Y-90224753D02*
X163584747Y-90443956D01*
G75*
G02*
X163584747Y-90663160I-109602J-109602D01*
G01*
X163284226Y-90963681D01*
G75*
G02*
X163065022Y-90963681I-109602J109602D01*
G01*
X162845819Y-90744478D01*
G75*
G02*
X162845819Y-90525274I109602J109602D01*
G01*
X163146340Y-90224753D01*
G75*
G02*
X163365544Y-90224753I109602J-109602D01*
G01*
G37*
G36*
G01*
X162562978Y-91027319D02*
X162782181Y-91246522D01*
G75*
G02*
X162782181Y-91465726I-109602J-109602D01*
G01*
X162481660Y-91766247D01*
G75*
G02*
X162262456Y-91766247I-109602J109602D01*
G01*
X162043253Y-91547044D01*
G75*
G02*
X162043253Y-91327840I109602J109602D01*
G01*
X162343774Y-91027319D01*
G75*
G02*
X162562978Y-91027319I109602J-109602D01*
G01*
G37*
%TD*%
%TO.C,L3*%
G36*
G01*
X151165900Y-106272000D02*
X151165900Y-106072000D01*
G75*
G02*
X151265900Y-105972000I100000J0D01*
G01*
X151700900Y-105972000D01*
G75*
G02*
X151800900Y-106072000I0J-100000D01*
G01*
X151800900Y-106272000D01*
G75*
G02*
X151700900Y-106372000I-100000J0D01*
G01*
X151265900Y-106372000D01*
G75*
G02*
X151165900Y-106272000I0J100000D01*
G01*
G37*
G36*
G01*
X151980900Y-106272000D02*
X151980900Y-106072000D01*
G75*
G02*
X152080900Y-105972000I100000J0D01*
G01*
X152515900Y-105972000D01*
G75*
G02*
X152615900Y-106072000I0J-100000D01*
G01*
X152615900Y-106272000D01*
G75*
G02*
X152515900Y-106372000I-100000J0D01*
G01*
X152080900Y-106372000D01*
G75*
G02*
X151980900Y-106272000I0J100000D01*
G01*
G37*
%TD*%
D15*
%TO.C,JP4*%
G36*
X147193279Y-108274339D02*
G01*
X148253939Y-107213679D01*
X148961045Y-107920785D01*
X147900385Y-108981445D01*
X147193279Y-108274339D01*
G37*
G36*
X148112517Y-109193577D02*
G01*
X149173177Y-108132917D01*
X149880283Y-108840023D01*
X148819623Y-109900683D01*
X148112517Y-109193577D01*
G37*
%TD*%
%TO.C,C33*%
G36*
G01*
X156492000Y-104211400D02*
X156182000Y-104211400D01*
G75*
G02*
X156027000Y-104056400I0J155000D01*
G01*
X156027000Y-103631400D01*
G75*
G02*
X156182000Y-103476400I155000J0D01*
G01*
X156492000Y-103476400D01*
G75*
G02*
X156647000Y-103631400I0J-155000D01*
G01*
X156647000Y-104056400D01*
G75*
G02*
X156492000Y-104211400I-155000J0D01*
G01*
G37*
G36*
G01*
X156492000Y-103076400D02*
X156182000Y-103076400D01*
G75*
G02*
X156027000Y-102921400I0J155000D01*
G01*
X156027000Y-102496400D01*
G75*
G02*
X156182000Y-102341400I155000J0D01*
G01*
X156492000Y-102341400D01*
G75*
G02*
X156647000Y-102496400I0J-155000D01*
G01*
X156647000Y-102921400D01*
G75*
G02*
X156492000Y-103076400I-155000J0D01*
G01*
G37*
%TD*%
%TO.C,C32*%
G36*
G01*
X159382400Y-104627400D02*
X159692400Y-104627400D01*
G75*
G02*
X159847400Y-104782400I0J-155000D01*
G01*
X159847400Y-105207400D01*
G75*
G02*
X159692400Y-105362400I-155000J0D01*
G01*
X159382400Y-105362400D01*
G75*
G02*
X159227400Y-105207400I0J155000D01*
G01*
X159227400Y-104782400D01*
G75*
G02*
X159382400Y-104627400I155000J0D01*
G01*
G37*
G36*
G01*
X159382400Y-105762400D02*
X159692400Y-105762400D01*
G75*
G02*
X159847400Y-105917400I0J-155000D01*
G01*
X159847400Y-106342400D01*
G75*
G02*
X159692400Y-106497400I-155000J0D01*
G01*
X159382400Y-106497400D01*
G75*
G02*
X159227400Y-106342400I0J155000D01*
G01*
X159227400Y-105917400D01*
G75*
G02*
X159382400Y-105762400I155000J0D01*
G01*
G37*
%TD*%
%TO.C,C31*%
G36*
G01*
X152014200Y-105102600D02*
X152014200Y-105412600D01*
G75*
G02*
X151859200Y-105567600I-155000J0D01*
G01*
X151434200Y-105567600D01*
G75*
G02*
X151279200Y-105412600I0J155000D01*
G01*
X151279200Y-105102600D01*
G75*
G02*
X151434200Y-104947600I155000J0D01*
G01*
X151859200Y-104947600D01*
G75*
G02*
X152014200Y-105102600I0J-155000D01*
G01*
G37*
G36*
G01*
X150879200Y-105102600D02*
X150879200Y-105412600D01*
G75*
G02*
X150724200Y-105567600I-155000J0D01*
G01*
X150299200Y-105567600D01*
G75*
G02*
X150144200Y-105412600I0J155000D01*
G01*
X150144200Y-105102600D01*
G75*
G02*
X150299200Y-104947600I155000J0D01*
G01*
X150724200Y-104947600D01*
G75*
G02*
X150879200Y-105102600I0J-155000D01*
G01*
G37*
%TD*%
%TO.C,C34*%
G36*
G01*
X155755400Y-99436200D02*
X155445400Y-99436200D01*
G75*
G02*
X155290400Y-99281200I0J155000D01*
G01*
X155290400Y-98856200D01*
G75*
G02*
X155445400Y-98701200I155000J0D01*
G01*
X155755400Y-98701200D01*
G75*
G02*
X155910400Y-98856200I0J-155000D01*
G01*
X155910400Y-99281200D01*
G75*
G02*
X155755400Y-99436200I-155000J0D01*
G01*
G37*
G36*
G01*
X155755400Y-98301200D02*
X155445400Y-98301200D01*
G75*
G02*
X155290400Y-98146200I0J155000D01*
G01*
X155290400Y-97721200D01*
G75*
G02*
X155445400Y-97566200I155000J0D01*
G01*
X155755400Y-97566200D01*
G75*
G02*
X155910400Y-97721200I0J-155000D01*
G01*
X155910400Y-98146200D01*
G75*
G02*
X155755400Y-98301200I-155000J0D01*
G01*
G37*
%TD*%
%TO.C,C12*%
G36*
G01*
X155679200Y-107234000D02*
X155369200Y-107234000D01*
G75*
G02*
X155214200Y-107079000I0J155000D01*
G01*
X155214200Y-106654000D01*
G75*
G02*
X155369200Y-106499000I155000J0D01*
G01*
X155679200Y-106499000D01*
G75*
G02*
X155834200Y-106654000I0J-155000D01*
G01*
X155834200Y-107079000D01*
G75*
G02*
X155679200Y-107234000I-155000J0D01*
G01*
G37*
G36*
G01*
X155679200Y-106099000D02*
X155369200Y-106099000D01*
G75*
G02*
X155214200Y-105944000I0J155000D01*
G01*
X155214200Y-105519000D01*
G75*
G02*
X155369200Y-105364000I155000J0D01*
G01*
X155679200Y-105364000D01*
G75*
G02*
X155834200Y-105519000I0J-155000D01*
G01*
X155834200Y-105944000D01*
G75*
G02*
X155679200Y-106099000I-155000J0D01*
G01*
G37*
%TD*%
%TO.C,C7*%
G36*
G01*
X164127544Y-90986753D02*
X164346747Y-91205956D01*
G75*
G02*
X164346747Y-91425160I-109602J-109602D01*
G01*
X164046226Y-91725681D01*
G75*
G02*
X163827022Y-91725681I-109602J109602D01*
G01*
X163607819Y-91506478D01*
G75*
G02*
X163607819Y-91287274I109602J109602D01*
G01*
X163908340Y-90986753D01*
G75*
G02*
X164127544Y-90986753I109602J-109602D01*
G01*
G37*
G36*
G01*
X163324978Y-91789319D02*
X163544181Y-92008522D01*
G75*
G02*
X163544181Y-92227726I-109602J-109602D01*
G01*
X163243660Y-92528247D01*
G75*
G02*
X163024456Y-92528247I-109602J109602D01*
G01*
X162805253Y-92309044D01*
G75*
G02*
X162805253Y-92089840I109602J109602D01*
G01*
X163105774Y-91789319D01*
G75*
G02*
X163324978Y-91789319I109602J-109602D01*
G01*
G37*
%TD*%
%TO.C,C35*%
G36*
G01*
X153309600Y-100073400D02*
X153309600Y-100383400D01*
G75*
G02*
X153154600Y-100538400I-155000J0D01*
G01*
X152729600Y-100538400D01*
G75*
G02*
X152574600Y-100383400I0J155000D01*
G01*
X152574600Y-100073400D01*
G75*
G02*
X152729600Y-99918400I155000J0D01*
G01*
X153154600Y-99918400D01*
G75*
G02*
X153309600Y-100073400I0J-155000D01*
G01*
G37*
G36*
G01*
X152174600Y-100073400D02*
X152174600Y-100383400D01*
G75*
G02*
X152019600Y-100538400I-155000J0D01*
G01*
X151594600Y-100538400D01*
G75*
G02*
X151439600Y-100383400I0J155000D01*
G01*
X151439600Y-100073400D01*
G75*
G02*
X151594600Y-99918400I155000J0D01*
G01*
X152019600Y-99918400D01*
G75*
G02*
X152174600Y-100073400I0J-155000D01*
G01*
G37*
%TD*%
%TO.C,C30*%
G36*
G01*
X162080000Y-106395800D02*
X161770000Y-106395800D01*
G75*
G02*
X161615000Y-106240800I0J155000D01*
G01*
X161615000Y-105815800D01*
G75*
G02*
X161770000Y-105660800I155000J0D01*
G01*
X162080000Y-105660800D01*
G75*
G02*
X162235000Y-105815800I0J-155000D01*
G01*
X162235000Y-106240800D01*
G75*
G02*
X162080000Y-106395800I-155000J0D01*
G01*
G37*
G36*
G01*
X162080000Y-105260800D02*
X161770000Y-105260800D01*
G75*
G02*
X161615000Y-105105800I0J155000D01*
G01*
X161615000Y-104680800D01*
G75*
G02*
X161770000Y-104525800I155000J0D01*
G01*
X162080000Y-104525800D01*
G75*
G02*
X162235000Y-104680800I0J-155000D01*
G01*
X162235000Y-105105800D01*
G75*
G02*
X162080000Y-105260800I-155000J0D01*
G01*
G37*
%TD*%
%TO.C,C29*%
G36*
G01*
X157782200Y-103027200D02*
X158092200Y-103027200D01*
G75*
G02*
X158247200Y-103182200I0J-155000D01*
G01*
X158247200Y-103607200D01*
G75*
G02*
X158092200Y-103762200I-155000J0D01*
G01*
X157782200Y-103762200D01*
G75*
G02*
X157627200Y-103607200I0J155000D01*
G01*
X157627200Y-103182200D01*
G75*
G02*
X157782200Y-103027200I155000J0D01*
G01*
G37*
G36*
G01*
X157782200Y-104162200D02*
X158092200Y-104162200D01*
G75*
G02*
X158247200Y-104317200I0J-155000D01*
G01*
X158247200Y-104742200D01*
G75*
G02*
X158092200Y-104897200I-155000J0D01*
G01*
X157782200Y-104897200D01*
G75*
G02*
X157627200Y-104742200I0J155000D01*
G01*
X157627200Y-104317200D01*
G75*
G02*
X157782200Y-104162200I155000J0D01*
G01*
G37*
%TD*%
%TO.C,C28*%
G36*
G01*
X154942600Y-104846400D02*
X154632600Y-104846400D01*
G75*
G02*
X154477600Y-104691400I0J155000D01*
G01*
X154477600Y-104266400D01*
G75*
G02*
X154632600Y-104111400I155000J0D01*
G01*
X154942600Y-104111400D01*
G75*
G02*
X155097600Y-104266400I0J-155000D01*
G01*
X155097600Y-104691400D01*
G75*
G02*
X154942600Y-104846400I-155000J0D01*
G01*
G37*
G36*
G01*
X154942600Y-103711400D02*
X154632600Y-103711400D01*
G75*
G02*
X154477600Y-103556400I0J155000D01*
G01*
X154477600Y-103131400D01*
G75*
G02*
X154632600Y-102976400I155000J0D01*
G01*
X154942600Y-102976400D01*
G75*
G02*
X155097600Y-103131400I0J-155000D01*
G01*
X155097600Y-103556400D01*
G75*
G02*
X154942600Y-103711400I-155000J0D01*
G01*
G37*
%TD*%
%TO.C,C27*%
G36*
G01*
X156867800Y-105338600D02*
X157177800Y-105338600D01*
G75*
G02*
X157332800Y-105493600I0J-155000D01*
G01*
X157332800Y-105918600D01*
G75*
G02*
X157177800Y-106073600I-155000J0D01*
G01*
X156867800Y-106073600D01*
G75*
G02*
X156712800Y-105918600I0J155000D01*
G01*
X156712800Y-105493600D01*
G75*
G02*
X156867800Y-105338600I155000J0D01*
G01*
G37*
G36*
G01*
X156867800Y-106473600D02*
X157177800Y-106473600D01*
G75*
G02*
X157332800Y-106628600I0J-155000D01*
G01*
X157332800Y-107053600D01*
G75*
G02*
X157177800Y-107208600I-155000J0D01*
G01*
X156867800Y-107208600D01*
G75*
G02*
X156712800Y-107053600I0J155000D01*
G01*
X156712800Y-106628600D01*
G75*
G02*
X156867800Y-106473600I155000J0D01*
G01*
G37*
%TD*%
%TO.C,C26*%
G36*
G01*
X156519600Y-98605400D02*
X156519600Y-98295400D01*
G75*
G02*
X156674600Y-98140400I155000J0D01*
G01*
X157099600Y-98140400D01*
G75*
G02*
X157254600Y-98295400I0J-155000D01*
G01*
X157254600Y-98605400D01*
G75*
G02*
X157099600Y-98760400I-155000J0D01*
G01*
X156674600Y-98760400D01*
G75*
G02*
X156519600Y-98605400I0J155000D01*
G01*
G37*
G36*
G01*
X157654600Y-98605400D02*
X157654600Y-98295400D01*
G75*
G02*
X157809600Y-98140400I155000J0D01*
G01*
X158234600Y-98140400D01*
G75*
G02*
X158389600Y-98295400I0J-155000D01*
G01*
X158389600Y-98605400D01*
G75*
G02*
X158234600Y-98760400I-155000J0D01*
G01*
X157809600Y-98760400D01*
G75*
G02*
X157654600Y-98605400I0J155000D01*
G01*
G37*
%TD*%
%TO.C,C25*%
G36*
G01*
X161770000Y-101528600D02*
X162080000Y-101528600D01*
G75*
G02*
X162235000Y-101683600I0J-155000D01*
G01*
X162235000Y-102108600D01*
G75*
G02*
X162080000Y-102263600I-155000J0D01*
G01*
X161770000Y-102263600D01*
G75*
G02*
X161615000Y-102108600I0J155000D01*
G01*
X161615000Y-101683600D01*
G75*
G02*
X161770000Y-101528600I155000J0D01*
G01*
G37*
G36*
G01*
X161770000Y-102663600D02*
X162080000Y-102663600D01*
G75*
G02*
X162235000Y-102818600I0J-155000D01*
G01*
X162235000Y-103243600D01*
G75*
G02*
X162080000Y-103398600I-155000J0D01*
G01*
X161770000Y-103398600D01*
G75*
G02*
X161615000Y-103243600I0J155000D01*
G01*
X161615000Y-102818600D01*
G75*
G02*
X161770000Y-102663600I155000J0D01*
G01*
G37*
%TD*%
%TO.C,C24*%
G36*
G01*
X157883800Y-105338600D02*
X158193800Y-105338600D01*
G75*
G02*
X158348800Y-105493600I0J-155000D01*
G01*
X158348800Y-105918600D01*
G75*
G02*
X158193800Y-106073600I-155000J0D01*
G01*
X157883800Y-106073600D01*
G75*
G02*
X157728800Y-105918600I0J155000D01*
G01*
X157728800Y-105493600D01*
G75*
G02*
X157883800Y-105338600I155000J0D01*
G01*
G37*
G36*
G01*
X157883800Y-106473600D02*
X158193800Y-106473600D01*
G75*
G02*
X158348800Y-106628600I0J-155000D01*
G01*
X158348800Y-107053600D01*
G75*
G02*
X158193800Y-107208600I-155000J0D01*
G01*
X157883800Y-107208600D01*
G75*
G02*
X157728800Y-107053600I0J155000D01*
G01*
X157728800Y-106628600D01*
G75*
G02*
X157883800Y-106473600I155000J0D01*
G01*
G37*
%TD*%
%TO.C,C23*%
G36*
G01*
X164183000Y-105465600D02*
X164493000Y-105465600D01*
G75*
G02*
X164648000Y-105620600I0J-155000D01*
G01*
X164648000Y-106045600D01*
G75*
G02*
X164493000Y-106200600I-155000J0D01*
G01*
X164183000Y-106200600D01*
G75*
G02*
X164028000Y-106045600I0J155000D01*
G01*
X164028000Y-105620600D01*
G75*
G02*
X164183000Y-105465600I155000J0D01*
G01*
G37*
G36*
G01*
X164183000Y-106600600D02*
X164493000Y-106600600D01*
G75*
G02*
X164648000Y-106755600I0J-155000D01*
G01*
X164648000Y-107180600D01*
G75*
G02*
X164493000Y-107335600I-155000J0D01*
G01*
X164183000Y-107335600D01*
G75*
G02*
X164028000Y-107180600I0J155000D01*
G01*
X164028000Y-106755600D01*
G75*
G02*
X164183000Y-106600600I155000J0D01*
G01*
G37*
%TD*%
%TO.C,C22*%
G36*
G01*
X160675600Y-98295400D02*
X160675600Y-98605400D01*
G75*
G02*
X160520600Y-98760400I-155000J0D01*
G01*
X160095600Y-98760400D01*
G75*
G02*
X159940600Y-98605400I0J155000D01*
G01*
X159940600Y-98295400D01*
G75*
G02*
X160095600Y-98140400I155000J0D01*
G01*
X160520600Y-98140400D01*
G75*
G02*
X160675600Y-98295400I0J-155000D01*
G01*
G37*
G36*
G01*
X159540600Y-98295400D02*
X159540600Y-98605400D01*
G75*
G02*
X159385600Y-98760400I-155000J0D01*
G01*
X158960600Y-98760400D01*
G75*
G02*
X158805600Y-98605400I0J155000D01*
G01*
X158805600Y-98295400D01*
G75*
G02*
X158960600Y-98140400I155000J0D01*
G01*
X159385600Y-98140400D01*
G75*
G02*
X159540600Y-98295400I0J-155000D01*
G01*
G37*
%TD*%
%TO.C,C21*%
G36*
G01*
X154764800Y-99436200D02*
X154454800Y-99436200D01*
G75*
G02*
X154299800Y-99281200I0J155000D01*
G01*
X154299800Y-98856200D01*
G75*
G02*
X154454800Y-98701200I155000J0D01*
G01*
X154764800Y-98701200D01*
G75*
G02*
X154919800Y-98856200I0J-155000D01*
G01*
X154919800Y-99281200D01*
G75*
G02*
X154764800Y-99436200I-155000J0D01*
G01*
G37*
G36*
G01*
X154764800Y-98301200D02*
X154454800Y-98301200D01*
G75*
G02*
X154299800Y-98146200I0J155000D01*
G01*
X154299800Y-97721200D01*
G75*
G02*
X154454800Y-97566200I155000J0D01*
G01*
X154764800Y-97566200D01*
G75*
G02*
X154919800Y-97721200I0J-155000D01*
G01*
X154919800Y-98146200D01*
G75*
G02*
X154764800Y-98301200I-155000J0D01*
G01*
G37*
%TD*%
%TO.C,C20*%
G36*
G01*
X160472400Y-101495800D02*
X160472400Y-101805800D01*
G75*
G02*
X160317400Y-101960800I-155000J0D01*
G01*
X159892400Y-101960800D01*
G75*
G02*
X159737400Y-101805800I0J155000D01*
G01*
X159737400Y-101495800D01*
G75*
G02*
X159892400Y-101340800I155000J0D01*
G01*
X160317400Y-101340800D01*
G75*
G02*
X160472400Y-101495800I0J-155000D01*
G01*
G37*
G36*
G01*
X159337400Y-101495800D02*
X159337400Y-101805800D01*
G75*
G02*
X159182400Y-101960800I-155000J0D01*
G01*
X158757400Y-101960800D01*
G75*
G02*
X158602400Y-101805800I0J155000D01*
G01*
X158602400Y-101495800D01*
G75*
G02*
X158757400Y-101340800I155000J0D01*
G01*
X159182400Y-101340800D01*
G75*
G02*
X159337400Y-101495800I0J-155000D01*
G01*
G37*
%TD*%
%TO.C,C19*%
G36*
G01*
X161666200Y-107058400D02*
X161666200Y-107368400D01*
G75*
G02*
X161511200Y-107523400I-155000J0D01*
G01*
X161086200Y-107523400D01*
G75*
G02*
X160931200Y-107368400I0J155000D01*
G01*
X160931200Y-107058400D01*
G75*
G02*
X161086200Y-106903400I155000J0D01*
G01*
X161511200Y-106903400D01*
G75*
G02*
X161666200Y-107058400I0J-155000D01*
G01*
G37*
G36*
G01*
X160531200Y-107058400D02*
X160531200Y-107368400D01*
G75*
G02*
X160376200Y-107523400I-155000J0D01*
G01*
X159951200Y-107523400D01*
G75*
G02*
X159796200Y-107368400I0J155000D01*
G01*
X159796200Y-107058400D01*
G75*
G02*
X159951200Y-106903400I155000J0D01*
G01*
X160376200Y-106903400D01*
G75*
G02*
X160531200Y-107058400I0J-155000D01*
G01*
G37*
%TD*%
%TO.C,C18*%
G36*
G01*
X151439600Y-98199000D02*
X151439600Y-97889000D01*
G75*
G02*
X151594600Y-97734000I155000J0D01*
G01*
X152019600Y-97734000D01*
G75*
G02*
X152174600Y-97889000I0J-155000D01*
G01*
X152174600Y-98199000D01*
G75*
G02*
X152019600Y-98354000I-155000J0D01*
G01*
X151594600Y-98354000D01*
G75*
G02*
X151439600Y-98199000I0J155000D01*
G01*
G37*
G36*
G01*
X152574600Y-98199000D02*
X152574600Y-97889000D01*
G75*
G02*
X152729600Y-97734000I155000J0D01*
G01*
X153154600Y-97734000D01*
G75*
G02*
X153309600Y-97889000I0J-155000D01*
G01*
X153309600Y-98199000D01*
G75*
G02*
X153154600Y-98354000I-155000J0D01*
G01*
X152729600Y-98354000D01*
G75*
G02*
X152574600Y-98199000I0J155000D01*
G01*
G37*
%TD*%
%TO.C,C14*%
G36*
G01*
X150144200Y-104422000D02*
X150144200Y-104112000D01*
G75*
G02*
X150299200Y-103957000I155000J0D01*
G01*
X150724200Y-103957000D01*
G75*
G02*
X150879200Y-104112000I0J-155000D01*
G01*
X150879200Y-104422000D01*
G75*
G02*
X150724200Y-104577000I-155000J0D01*
G01*
X150299200Y-104577000D01*
G75*
G02*
X150144200Y-104422000I0J155000D01*
G01*
G37*
G36*
G01*
X151279200Y-104422000D02*
X151279200Y-104112000D01*
G75*
G02*
X151434200Y-103957000I155000J0D01*
G01*
X151859200Y-103957000D01*
G75*
G02*
X152014200Y-104112000I0J-155000D01*
G01*
X152014200Y-104422000D01*
G75*
G02*
X151859200Y-104577000I-155000J0D01*
G01*
X151434200Y-104577000D01*
G75*
G02*
X151279200Y-104422000I0J155000D01*
G01*
G37*
%TD*%
%TO.C,R47*%
G36*
G01*
X156812000Y-78726000D02*
X157132000Y-78726000D01*
G75*
G02*
X157292000Y-78886000I0J-160000D01*
G01*
X157292000Y-79281000D01*
G75*
G02*
X157132000Y-79441000I-160000J0D01*
G01*
X156812000Y-79441000D01*
G75*
G02*
X156652000Y-79281000I0J160000D01*
G01*
X156652000Y-78886000D01*
G75*
G02*
X156812000Y-78726000I160000J0D01*
G01*
G37*
G36*
G01*
X156812000Y-77531000D02*
X157132000Y-77531000D01*
G75*
G02*
X157292000Y-77691000I0J-160000D01*
G01*
X157292000Y-78086000D01*
G75*
G02*
X157132000Y-78246000I-160000J0D01*
G01*
X156812000Y-78246000D01*
G75*
G02*
X156652000Y-78086000I0J160000D01*
G01*
X156652000Y-77691000D01*
G75*
G02*
X156812000Y-77531000I160000J0D01*
G01*
G37*
%TD*%
%TO.C,R46*%
G36*
G01*
X155669000Y-78726000D02*
X155989000Y-78726000D01*
G75*
G02*
X156149000Y-78886000I0J-160000D01*
G01*
X156149000Y-79281000D01*
G75*
G02*
X155989000Y-79441000I-160000J0D01*
G01*
X155669000Y-79441000D01*
G75*
G02*
X155509000Y-79281000I0J160000D01*
G01*
X155509000Y-78886000D01*
G75*
G02*
X155669000Y-78726000I160000J0D01*
G01*
G37*
G36*
G01*
X155669000Y-77531000D02*
X155989000Y-77531000D01*
G75*
G02*
X156149000Y-77691000I0J-160000D01*
G01*
X156149000Y-78086000D01*
G75*
G02*
X155989000Y-78246000I-160000J0D01*
G01*
X155669000Y-78246000D01*
G75*
G02*
X155509000Y-78086000I0J160000D01*
G01*
X155509000Y-77691000D01*
G75*
G02*
X155669000Y-77531000I160000J0D01*
G01*
G37*
%TD*%
%TO.C,R45*%
G36*
G01*
X151351000Y-78726000D02*
X151671000Y-78726000D01*
G75*
G02*
X151831000Y-78886000I0J-160000D01*
G01*
X151831000Y-79281000D01*
G75*
G02*
X151671000Y-79441000I-160000J0D01*
G01*
X151351000Y-79441000D01*
G75*
G02*
X151191000Y-79281000I0J160000D01*
G01*
X151191000Y-78886000D01*
G75*
G02*
X151351000Y-78726000I160000J0D01*
G01*
G37*
G36*
G01*
X151351000Y-77531000D02*
X151671000Y-77531000D01*
G75*
G02*
X151831000Y-77691000I0J-160000D01*
G01*
X151831000Y-78086000D01*
G75*
G02*
X151671000Y-78246000I-160000J0D01*
G01*
X151351000Y-78246000D01*
G75*
G02*
X151191000Y-78086000I0J160000D01*
G01*
X151191000Y-77691000D01*
G75*
G02*
X151351000Y-77531000I160000J0D01*
G01*
G37*
%TD*%
%TO.C,R44*%
G36*
G01*
X150208000Y-78726000D02*
X150528000Y-78726000D01*
G75*
G02*
X150688000Y-78886000I0J-160000D01*
G01*
X150688000Y-79281000D01*
G75*
G02*
X150528000Y-79441000I-160000J0D01*
G01*
X150208000Y-79441000D01*
G75*
G02*
X150048000Y-79281000I0J160000D01*
G01*
X150048000Y-78886000D01*
G75*
G02*
X150208000Y-78726000I160000J0D01*
G01*
G37*
G36*
G01*
X150208000Y-77531000D02*
X150528000Y-77531000D01*
G75*
G02*
X150688000Y-77691000I0J-160000D01*
G01*
X150688000Y-78086000D01*
G75*
G02*
X150528000Y-78246000I-160000J0D01*
G01*
X150208000Y-78246000D01*
G75*
G02*
X150048000Y-78086000I0J160000D01*
G01*
X150048000Y-77691000D01*
G75*
G02*
X150208000Y-77531000I160000J0D01*
G01*
G37*
%TD*%
%TO.C,R43*%
G36*
G01*
X149065000Y-78726000D02*
X149385000Y-78726000D01*
G75*
G02*
X149545000Y-78886000I0J-160000D01*
G01*
X149545000Y-79281000D01*
G75*
G02*
X149385000Y-79441000I-160000J0D01*
G01*
X149065000Y-79441000D01*
G75*
G02*
X148905000Y-79281000I0J160000D01*
G01*
X148905000Y-78886000D01*
G75*
G02*
X149065000Y-78726000I160000J0D01*
G01*
G37*
G36*
G01*
X149065000Y-77531000D02*
X149385000Y-77531000D01*
G75*
G02*
X149545000Y-77691000I0J-160000D01*
G01*
X149545000Y-78086000D01*
G75*
G02*
X149385000Y-78246000I-160000J0D01*
G01*
X149065000Y-78246000D01*
G75*
G02*
X148905000Y-78086000I0J160000D01*
G01*
X148905000Y-77691000D01*
G75*
G02*
X149065000Y-77531000I160000J0D01*
G01*
G37*
%TD*%
%TO.C,R42*%
G36*
G01*
X177132000Y-78726000D02*
X177452000Y-78726000D01*
G75*
G02*
X177612000Y-78886000I0J-160000D01*
G01*
X177612000Y-79281000D01*
G75*
G02*
X177452000Y-79441000I-160000J0D01*
G01*
X177132000Y-79441000D01*
G75*
G02*
X176972000Y-79281000I0J160000D01*
G01*
X176972000Y-78886000D01*
G75*
G02*
X177132000Y-78726000I160000J0D01*
G01*
G37*
G36*
G01*
X177132000Y-77531000D02*
X177452000Y-77531000D01*
G75*
G02*
X177612000Y-77691000I0J-160000D01*
G01*
X177612000Y-78086000D01*
G75*
G02*
X177452000Y-78246000I-160000J0D01*
G01*
X177132000Y-78246000D01*
G75*
G02*
X176972000Y-78086000I0J160000D01*
G01*
X176972000Y-77691000D01*
G75*
G02*
X177132000Y-77531000I160000J0D01*
G01*
G37*
%TD*%
%TO.C,R41*%
G36*
G01*
X175989000Y-78726000D02*
X176309000Y-78726000D01*
G75*
G02*
X176469000Y-78886000I0J-160000D01*
G01*
X176469000Y-79281000D01*
G75*
G02*
X176309000Y-79441000I-160000J0D01*
G01*
X175989000Y-79441000D01*
G75*
G02*
X175829000Y-79281000I0J160000D01*
G01*
X175829000Y-78886000D01*
G75*
G02*
X175989000Y-78726000I160000J0D01*
G01*
G37*
G36*
G01*
X175989000Y-77531000D02*
X176309000Y-77531000D01*
G75*
G02*
X176469000Y-77691000I0J-160000D01*
G01*
X176469000Y-78086000D01*
G75*
G02*
X176309000Y-78246000I-160000J0D01*
G01*
X175989000Y-78246000D01*
G75*
G02*
X175829000Y-78086000I0J160000D01*
G01*
X175829000Y-77691000D01*
G75*
G02*
X175989000Y-77531000I160000J0D01*
G01*
G37*
%TD*%
%TO.C,R40*%
G36*
G01*
X171671000Y-78726000D02*
X171991000Y-78726000D01*
G75*
G02*
X172151000Y-78886000I0J-160000D01*
G01*
X172151000Y-79281000D01*
G75*
G02*
X171991000Y-79441000I-160000J0D01*
G01*
X171671000Y-79441000D01*
G75*
G02*
X171511000Y-79281000I0J160000D01*
G01*
X171511000Y-78886000D01*
G75*
G02*
X171671000Y-78726000I160000J0D01*
G01*
G37*
G36*
G01*
X171671000Y-77531000D02*
X171991000Y-77531000D01*
G75*
G02*
X172151000Y-77691000I0J-160000D01*
G01*
X172151000Y-78086000D01*
G75*
G02*
X171991000Y-78246000I-160000J0D01*
G01*
X171671000Y-78246000D01*
G75*
G02*
X171511000Y-78086000I0J160000D01*
G01*
X171511000Y-77691000D01*
G75*
G02*
X171671000Y-77531000I160000J0D01*
G01*
G37*
%TD*%
%TO.C,R13*%
G36*
G01*
X170528000Y-78726000D02*
X170848000Y-78726000D01*
G75*
G02*
X171008000Y-78886000I0J-160000D01*
G01*
X171008000Y-79281000D01*
G75*
G02*
X170848000Y-79441000I-160000J0D01*
G01*
X170528000Y-79441000D01*
G75*
G02*
X170368000Y-79281000I0J160000D01*
G01*
X170368000Y-78886000D01*
G75*
G02*
X170528000Y-78726000I160000J0D01*
G01*
G37*
G36*
G01*
X170528000Y-77531000D02*
X170848000Y-77531000D01*
G75*
G02*
X171008000Y-77691000I0J-160000D01*
G01*
X171008000Y-78086000D01*
G75*
G02*
X170848000Y-78246000I-160000J0D01*
G01*
X170528000Y-78246000D01*
G75*
G02*
X170368000Y-78086000I0J160000D01*
G01*
X170368000Y-77691000D01*
G75*
G02*
X170528000Y-77531000I160000J0D01*
G01*
G37*
%TD*%
%TO.C,R12*%
G36*
G01*
X169385000Y-78726000D02*
X169705000Y-78726000D01*
G75*
G02*
X169865000Y-78886000I0J-160000D01*
G01*
X169865000Y-79281000D01*
G75*
G02*
X169705000Y-79441000I-160000J0D01*
G01*
X169385000Y-79441000D01*
G75*
G02*
X169225000Y-79281000I0J160000D01*
G01*
X169225000Y-78886000D01*
G75*
G02*
X169385000Y-78726000I160000J0D01*
G01*
G37*
G36*
G01*
X169385000Y-77531000D02*
X169705000Y-77531000D01*
G75*
G02*
X169865000Y-77691000I0J-160000D01*
G01*
X169865000Y-78086000D01*
G75*
G02*
X169705000Y-78246000I-160000J0D01*
G01*
X169385000Y-78246000D01*
G75*
G02*
X169225000Y-78086000I0J160000D01*
G01*
X169225000Y-77691000D01*
G75*
G02*
X169385000Y-77531000I160000J0D01*
G01*
G37*
%TD*%
%TO.C,R10*%
G36*
G01*
X163390600Y-101052600D02*
X163710600Y-101052600D01*
G75*
G02*
X163870600Y-101212600I0J-160000D01*
G01*
X163870600Y-101607600D01*
G75*
G02*
X163710600Y-101767600I-160000J0D01*
G01*
X163390600Y-101767600D01*
G75*
G02*
X163230600Y-101607600I0J160000D01*
G01*
X163230600Y-101212600D01*
G75*
G02*
X163390600Y-101052600I160000J0D01*
G01*
G37*
G36*
G01*
X163390600Y-99857600D02*
X163710600Y-99857600D01*
G75*
G02*
X163870600Y-100017600I0J-160000D01*
G01*
X163870600Y-100412600D01*
G75*
G02*
X163710600Y-100572600I-160000J0D01*
G01*
X163390600Y-100572600D01*
G75*
G02*
X163230600Y-100412600I0J160000D01*
G01*
X163230600Y-100017600D01*
G75*
G02*
X163390600Y-99857600I160000J0D01*
G01*
G37*
%TD*%
%TO.C,R7*%
G36*
G01*
X141441200Y-110965000D02*
X141441200Y-111285000D01*
G75*
G02*
X141281200Y-111445000I-160000J0D01*
G01*
X140886200Y-111445000D01*
G75*
G02*
X140726200Y-111285000I0J160000D01*
G01*
X140726200Y-110965000D01*
G75*
G02*
X140886200Y-110805000I160000J0D01*
G01*
X141281200Y-110805000D01*
G75*
G02*
X141441200Y-110965000I0J-160000D01*
G01*
G37*
G36*
G01*
X142636200Y-110965000D02*
X142636200Y-111285000D01*
G75*
G02*
X142476200Y-111445000I-160000J0D01*
G01*
X142081200Y-111445000D01*
G75*
G02*
X141921200Y-111285000I0J160000D01*
G01*
X141921200Y-110965000D01*
G75*
G02*
X142081200Y-110805000I160000J0D01*
G01*
X142476200Y-110805000D01*
G75*
G02*
X142636200Y-110965000I0J-160000D01*
G01*
G37*
%TD*%
%TO.C,R5*%
G36*
G01*
X139860000Y-103328500D02*
X139540000Y-103328500D01*
G75*
G02*
X139380000Y-103168500I0J160000D01*
G01*
X139380000Y-102773500D01*
G75*
G02*
X139540000Y-102613500I160000J0D01*
G01*
X139860000Y-102613500D01*
G75*
G02*
X140020000Y-102773500I0J-160000D01*
G01*
X140020000Y-103168500D01*
G75*
G02*
X139860000Y-103328500I-160000J0D01*
G01*
G37*
G36*
G01*
X139860000Y-104523500D02*
X139540000Y-104523500D01*
G75*
G02*
X139380000Y-104363500I0J160000D01*
G01*
X139380000Y-103968500D01*
G75*
G02*
X139540000Y-103808500I160000J0D01*
G01*
X139860000Y-103808500D01*
G75*
G02*
X140020000Y-103968500I0J-160000D01*
G01*
X140020000Y-104363500D01*
G75*
G02*
X139860000Y-104523500I-160000J0D01*
G01*
G37*
%TD*%
%TO.C,R1*%
G36*
G01*
X141365000Y-98963500D02*
X141365000Y-99283500D01*
G75*
G02*
X141205000Y-99443500I-160000J0D01*
G01*
X140810000Y-99443500D01*
G75*
G02*
X140650000Y-99283500I0J160000D01*
G01*
X140650000Y-98963500D01*
G75*
G02*
X140810000Y-98803500I160000J0D01*
G01*
X141205000Y-98803500D01*
G75*
G02*
X141365000Y-98963500I0J-160000D01*
G01*
G37*
G36*
G01*
X142560000Y-98963500D02*
X142560000Y-99283500D01*
G75*
G02*
X142400000Y-99443500I-160000J0D01*
G01*
X142005000Y-99443500D01*
G75*
G02*
X141845000Y-99283500I0J160000D01*
G01*
X141845000Y-98963500D01*
G75*
G02*
X142005000Y-98803500I160000J0D01*
G01*
X142400000Y-98803500D01*
G75*
G02*
X142560000Y-98963500I0J-160000D01*
G01*
G37*
%TD*%
%TO.C,JP5*%
G36*
X147678000Y-96254000D02*
G01*
X147178000Y-96254000D01*
X147178000Y-96253398D01*
X147153466Y-96253398D01*
X147104635Y-96248588D01*
X147056510Y-96239016D01*
X147009555Y-96224772D01*
X146964222Y-96205995D01*
X146920949Y-96182864D01*
X146880150Y-96155604D01*
X146842221Y-96124476D01*
X146807524Y-96089779D01*
X146776396Y-96051850D01*
X146749136Y-96011051D01*
X146726005Y-95967778D01*
X146707228Y-95922445D01*
X146692984Y-95875490D01*
X146683412Y-95827365D01*
X146678602Y-95778534D01*
X146678602Y-95754000D01*
X146678000Y-95754000D01*
X146678000Y-95254000D01*
X146678602Y-95254000D01*
X146678602Y-95229466D01*
X146683412Y-95180635D01*
X146692984Y-95132510D01*
X146707228Y-95085555D01*
X146726005Y-95040222D01*
X146749136Y-94996949D01*
X146776396Y-94956150D01*
X146807524Y-94918221D01*
X146842221Y-94883524D01*
X146880150Y-94852396D01*
X146920949Y-94825136D01*
X146964222Y-94802005D01*
X147009555Y-94783228D01*
X147056510Y-94768984D01*
X147104635Y-94759412D01*
X147153466Y-94754602D01*
X147178000Y-94754602D01*
X147178000Y-94754000D01*
X147678000Y-94754000D01*
X147678000Y-96254000D01*
G37*
G36*
X148478000Y-94754602D02*
G01*
X148502534Y-94754602D01*
X148551365Y-94759412D01*
X148599490Y-94768984D01*
X148646445Y-94783228D01*
X148691778Y-94802005D01*
X148735051Y-94825136D01*
X148775850Y-94852396D01*
X148813779Y-94883524D01*
X148848476Y-94918221D01*
X148879604Y-94956150D01*
X148906864Y-94996949D01*
X148929995Y-95040222D01*
X148948772Y-95085555D01*
X148963016Y-95132510D01*
X148972588Y-95180635D01*
X148977398Y-95229466D01*
X148977398Y-95254000D01*
X148978000Y-95254000D01*
X148978000Y-95754000D01*
X148977398Y-95754000D01*
X148977398Y-95778534D01*
X148972588Y-95827365D01*
X148963016Y-95875490D01*
X148948772Y-95922445D01*
X148929995Y-95967778D01*
X148906864Y-96011051D01*
X148879604Y-96051850D01*
X148848476Y-96089779D01*
X148813779Y-96124476D01*
X148775850Y-96155604D01*
X148735051Y-96182864D01*
X148691778Y-96205995D01*
X148646445Y-96224772D01*
X148599490Y-96239016D01*
X148551365Y-96248588D01*
X148502534Y-96253398D01*
X148478000Y-96253398D01*
X148478000Y-96254000D01*
X147978000Y-96254000D01*
X147978000Y-94754000D01*
X148478000Y-94754000D01*
X148478000Y-94754602D01*
G37*
%TD*%
D13*
%TO.C,J14*%
X169362000Y-147414500D03*
X162362000Y-147414500D03*
D14*
X168362000Y-144714500D03*
X163362000Y-144714500D03*
%TD*%
%TO.C,C15*%
G36*
G01*
X155140000Y-101818500D02*
X155140000Y-101508500D01*
G75*
G02*
X155295000Y-101353500I155000J0D01*
G01*
X155720000Y-101353500D01*
G75*
G02*
X155875000Y-101508500I0J-155000D01*
G01*
X155875000Y-101818500D01*
G75*
G02*
X155720000Y-101973500I-155000J0D01*
G01*
X155295000Y-101973500D01*
G75*
G02*
X155140000Y-101818500I0J155000D01*
G01*
G37*
G36*
G01*
X154005000Y-101818500D02*
X154005000Y-101508500D01*
G75*
G02*
X154160000Y-101353500I155000J0D01*
G01*
X154585000Y-101353500D01*
G75*
G02*
X154740000Y-101508500I0J-155000D01*
G01*
X154740000Y-101818500D01*
G75*
G02*
X154585000Y-101973500I-155000J0D01*
G01*
X154160000Y-101973500D01*
G75*
G02*
X154005000Y-101818500I0J155000D01*
G01*
G37*
%TD*%
%TO.C,C13*%
G36*
G01*
X183188000Y-70711000D02*
X183188000Y-71021000D01*
G75*
G02*
X183033000Y-71176000I-155000J0D01*
G01*
X182608000Y-71176000D01*
G75*
G02*
X182453000Y-71021000I0J155000D01*
G01*
X182453000Y-70711000D01*
G75*
G02*
X182608000Y-70556000I155000J0D01*
G01*
X183033000Y-70556000D01*
G75*
G02*
X183188000Y-70711000I0J-155000D01*
G01*
G37*
G36*
G01*
X184323000Y-70711000D02*
X184323000Y-71021000D01*
G75*
G02*
X184168000Y-71176000I-155000J0D01*
G01*
X183743000Y-71176000D01*
G75*
G02*
X183588000Y-71021000I0J155000D01*
G01*
X183588000Y-70711000D01*
G75*
G02*
X183743000Y-70556000I155000J0D01*
G01*
X184168000Y-70556000D01*
G75*
G02*
X184323000Y-70711000I0J-155000D01*
G01*
G37*
%TD*%
M02*
