%TF.GenerationSoftware,KiCad,Pcbnew,(5.1.8-0-10_14)*%
%TF.CreationDate,2021-04-08T13:24:54+01:00*%
%TF.ProjectId,STM32MP1_TestBoard_RevB,53544d33-324d-4503-915f-54657374426f,rev?*%
%TF.SameCoordinates,Original*%
%TF.FileFunction,Soldermask,Top*%
%TF.FilePolarity,Negative*%
%FSLAX46Y46*%
G04 Gerber Fmt 4.6, Leading zero omitted, Abs format (unit mm)*
G04 Created by KiCad (PCBNEW (5.1.8-0-10_14)) date 2021-04-08 13:24:54*
%MOMM*%
%LPD*%
G01*
G04 APERTURE LIST*
%ADD10C,1.000000*%
%ADD11O,1.740000X2.190000*%
%ADD12O,1.300000X2.500000*%
%ADD13O,1.300000X3.200000*%
%ADD14C,0.700000*%
%ADD15R,1.900000X1.350000*%
%ADD16R,1.200000X1.000000*%
%ADD17R,1.550000X1.350000*%
%ADD18R,1.170000X1.800000*%
%ADD19R,0.850000X1.100000*%
%ADD20R,0.750000X1.100000*%
%ADD21R,1.000000X1.450000*%
%ADD22C,0.400000*%
%ADD23O,1.700000X1.700000*%
%ADD24R,1.700000X1.700000*%
%ADD25R,3.500000X3.500000*%
%ADD26R,1.200000X1.900000*%
%ADD27O,1.200000X1.900000*%
%ADD28R,1.500000X1.900000*%
%ADD29C,1.450000*%
%ADD30R,0.400000X1.350000*%
%ADD31R,1.060000X0.650000*%
%ADD32R,0.740000X2.400000*%
G04 APERTURE END LIST*
D10*
%TO.C,TP3*%
X167640000Y-148082000D03*
%TD*%
%TO.C,TP4*%
X167132000Y-128524000D03*
%TD*%
%TO.C,D2*%
G36*
G01*
X173540000Y-124644999D02*
X173540000Y-125545001D01*
G75*
G02*
X173290001Y-125795000I-249999J0D01*
G01*
X172639999Y-125795000D01*
G75*
G02*
X172390000Y-125545001I0J249999D01*
G01*
X172390000Y-124644999D01*
G75*
G02*
X172639999Y-124395000I249999J0D01*
G01*
X173290001Y-124395000D01*
G75*
G02*
X173540000Y-124644999I0J-249999D01*
G01*
G37*
G36*
G01*
X175590000Y-124644999D02*
X175590000Y-125545001D01*
G75*
G02*
X175340001Y-125795000I-249999J0D01*
G01*
X174689999Y-125795000D01*
G75*
G02*
X174440000Y-125545001I0J249999D01*
G01*
X174440000Y-124644999D01*
G75*
G02*
X174689999Y-124395000I249999J0D01*
G01*
X175340001Y-124395000D01*
G75*
G02*
X175590000Y-124644999I0J-249999D01*
G01*
G37*
%TD*%
D11*
%TO.C,J12*%
X165100000Y-73660000D03*
G36*
G01*
X161690000Y-74505001D02*
X161690000Y-72814999D01*
G75*
G02*
X161939999Y-72565000I249999J0D01*
G01*
X163180001Y-72565000D01*
G75*
G02*
X163430000Y-72814999I0J-249999D01*
G01*
X163430000Y-74505001D01*
G75*
G02*
X163180001Y-74755000I-249999J0D01*
G01*
X161939999Y-74755000D01*
G75*
G02*
X161690000Y-74505001I0J249999D01*
G01*
G37*
%TD*%
D10*
%TO.C,TP2*%
X149923500Y-107378500D03*
%TD*%
D12*
%TO.C,J11*%
X182270400Y-145846800D03*
X173639480Y-145836640D03*
D13*
X182306000Y-141696000D03*
X173656000Y-141696000D03*
D14*
X178406000Y-142548000D03*
X180956000Y-142544800D03*
X180106000Y-142548000D03*
X179256000Y-142548000D03*
X174993300Y-142544800D03*
X176695100Y-142544800D03*
X177556000Y-142548000D03*
X175844200Y-142544800D03*
X180962300Y-141185900D03*
X180111400Y-141185900D03*
X179256000Y-141185900D03*
X178406000Y-141185000D03*
X177556000Y-141185000D03*
X176695100Y-141185000D03*
X175844200Y-141185000D03*
X174993300Y-141185000D03*
%TD*%
D15*
%TO.C,J10*%
X171466500Y-71460000D03*
X177436500Y-71460000D03*
D16*
X180936500Y-76135000D03*
X180936500Y-72435000D03*
D17*
X180761500Y-82160000D03*
D18*
X169441500Y-81935000D03*
D19*
X171701500Y-82285000D03*
X172801500Y-82285000D03*
X173901500Y-82285000D03*
X175001500Y-82285000D03*
X176101500Y-82285000D03*
X177201500Y-82285000D03*
D20*
X170651500Y-82285000D03*
D19*
X178301500Y-82285000D03*
%TD*%
D21*
%TO.C,SW2*%
X199605000Y-80045000D03*
X199605000Y-74895000D03*
X197905000Y-74895000D03*
X197905000Y-80045000D03*
%TD*%
D22*
%TO.C,U1*%
X167131000Y-110057000D03*
X167131000Y-109257000D03*
X167131000Y-108457000D03*
X167131000Y-107657000D03*
X167131000Y-106057000D03*
X167131000Y-105257000D03*
X167131000Y-104457000D03*
X167131000Y-103657000D03*
X167131000Y-102857000D03*
X167131000Y-102057000D03*
X167131000Y-101257000D03*
X167131000Y-100457000D03*
X167131000Y-99657000D03*
X167131000Y-98057000D03*
X167131000Y-97257000D03*
X167131000Y-96457000D03*
X167131000Y-95657000D03*
X166331000Y-110057000D03*
X166331000Y-109257000D03*
X166331000Y-108457000D03*
X166331000Y-107657000D03*
X166331000Y-106857000D03*
X166331000Y-106057000D03*
X166331000Y-105257000D03*
X166331000Y-104457000D03*
X166331000Y-103657000D03*
X166331000Y-102857000D03*
X166331000Y-102057000D03*
X166331000Y-101257000D03*
X166331000Y-100457000D03*
X166331000Y-99657000D03*
X166331000Y-98857000D03*
X166331000Y-98057000D03*
X166331000Y-97257000D03*
X166331000Y-96457000D03*
X166331000Y-95657000D03*
X165531000Y-110057000D03*
X165531000Y-109257000D03*
X165531000Y-108457000D03*
X165531000Y-107657000D03*
X165531000Y-106857000D03*
X165531000Y-106057000D03*
X165531000Y-105257000D03*
X165531000Y-104457000D03*
X165531000Y-103657000D03*
X165531000Y-102857000D03*
X165531000Y-102057000D03*
X165531000Y-101257000D03*
X165531000Y-100457000D03*
X165531000Y-99657000D03*
X165531000Y-98857000D03*
X165531000Y-98057000D03*
X165531000Y-97257000D03*
X165531000Y-96457000D03*
X165531000Y-95657000D03*
X164731000Y-110057000D03*
X164731000Y-109257000D03*
X164731000Y-108457000D03*
X164731000Y-107657000D03*
X164731000Y-106857000D03*
X164731000Y-105257000D03*
X164731000Y-103657000D03*
X164731000Y-102057000D03*
X164731000Y-100457000D03*
X164731000Y-98857000D03*
X164731000Y-98057000D03*
X164731000Y-97257000D03*
X164731000Y-96457000D03*
X164731000Y-95657000D03*
X163931000Y-110057000D03*
X163931000Y-109257000D03*
X163931000Y-108457000D03*
X163931000Y-107657000D03*
X163931000Y-106857000D03*
X163931000Y-106057000D03*
X163931000Y-105257000D03*
X163931000Y-104457000D03*
X163931000Y-103657000D03*
X163931000Y-102857000D03*
X163931000Y-102057000D03*
X163931000Y-101257000D03*
X163931000Y-100457000D03*
X163931000Y-99657000D03*
X163931000Y-98857000D03*
X163931000Y-98057000D03*
X163931000Y-97257000D03*
X163931000Y-96457000D03*
X163931000Y-95657000D03*
X163131000Y-110057000D03*
X163131000Y-109257000D03*
X163131000Y-108457000D03*
X163131000Y-107657000D03*
X163131000Y-106857000D03*
X163131000Y-106057000D03*
X163131000Y-105257000D03*
X163131000Y-104457000D03*
X163131000Y-103657000D03*
X163131000Y-102857000D03*
X163131000Y-102057000D03*
X163131000Y-101257000D03*
X163131000Y-100457000D03*
X163131000Y-99657000D03*
X163131000Y-98857000D03*
X163131000Y-98057000D03*
X163131000Y-97257000D03*
X163131000Y-96457000D03*
X163131000Y-95657000D03*
X162331000Y-110057000D03*
X162331000Y-109257000D03*
X162331000Y-108457000D03*
X162331000Y-107657000D03*
X162331000Y-106857000D03*
X162331000Y-106057000D03*
X162331000Y-105257000D03*
X162331000Y-104457000D03*
X162331000Y-103657000D03*
X162331000Y-102857000D03*
X162331000Y-102057000D03*
X162331000Y-101257000D03*
X162331000Y-100457000D03*
X162331000Y-99657000D03*
X162331000Y-98857000D03*
X162331000Y-98057000D03*
X162331000Y-97257000D03*
X162331000Y-96457000D03*
X162331000Y-95657000D03*
X161531000Y-110057000D03*
X161531000Y-109257000D03*
X161531000Y-108457000D03*
X161531000Y-107657000D03*
X161531000Y-106857000D03*
X161531000Y-106057000D03*
X161531000Y-105257000D03*
X161531000Y-104457000D03*
X161531000Y-103657000D03*
X161531000Y-102857000D03*
X161531000Y-102057000D03*
X161531000Y-101257000D03*
X161531000Y-100457000D03*
X161531000Y-99657000D03*
X161531000Y-98857000D03*
X161531000Y-98057000D03*
X161531000Y-97257000D03*
X161531000Y-96457000D03*
X161531000Y-95657000D03*
X160731000Y-110057000D03*
X160731000Y-109257000D03*
X160731000Y-108457000D03*
X160731000Y-107657000D03*
X160731000Y-106857000D03*
X160731000Y-106057000D03*
X160731000Y-105257000D03*
X160731000Y-104457000D03*
X160731000Y-103657000D03*
X160731000Y-102857000D03*
X160731000Y-102057000D03*
X160731000Y-101257000D03*
X160731000Y-100457000D03*
X160731000Y-99657000D03*
X160731000Y-98857000D03*
X160731000Y-98057000D03*
X160731000Y-97257000D03*
X160731000Y-96457000D03*
X160731000Y-95657000D03*
X159931000Y-110057000D03*
X159931000Y-109257000D03*
X159931000Y-108457000D03*
X159931000Y-107657000D03*
X159931000Y-106857000D03*
X159931000Y-106057000D03*
X159931000Y-105257000D03*
X159931000Y-104457000D03*
X159931000Y-103657000D03*
X159931000Y-102857000D03*
X159931000Y-102057000D03*
X159931000Y-101257000D03*
X159931000Y-100457000D03*
X159931000Y-99657000D03*
X159931000Y-98857000D03*
X159931000Y-98057000D03*
X159931000Y-97257000D03*
X159931000Y-96457000D03*
X159931000Y-95657000D03*
X159131000Y-110057000D03*
X159131000Y-109257000D03*
X159131000Y-108457000D03*
X159131000Y-107657000D03*
X159131000Y-106857000D03*
X159131000Y-106057000D03*
X159131000Y-105257000D03*
X159131000Y-104457000D03*
X159131000Y-103657000D03*
X159131000Y-102857000D03*
X159131000Y-102057000D03*
X159131000Y-101257000D03*
X159131000Y-100457000D03*
X159131000Y-99657000D03*
X159131000Y-98857000D03*
X159131000Y-98057000D03*
X159131000Y-97257000D03*
X159131000Y-96457000D03*
X159131000Y-95657000D03*
X158331000Y-110057000D03*
X158331000Y-109257000D03*
X158331000Y-108457000D03*
X158331000Y-107657000D03*
X158331000Y-106857000D03*
X158331000Y-106057000D03*
X158331000Y-105257000D03*
X158331000Y-104457000D03*
X158331000Y-103657000D03*
X158331000Y-102857000D03*
X158331000Y-102057000D03*
X158331000Y-101257000D03*
X158331000Y-100457000D03*
X158331000Y-99657000D03*
X158331000Y-98857000D03*
X158331000Y-98057000D03*
X158331000Y-97257000D03*
X158331000Y-96457000D03*
X158331000Y-95657000D03*
X157531000Y-110057000D03*
X157531000Y-109257000D03*
X157531000Y-108457000D03*
X157531000Y-107657000D03*
X157531000Y-106857000D03*
X157531000Y-106057000D03*
X157531000Y-105257000D03*
X157531000Y-104457000D03*
X157531000Y-103657000D03*
X157531000Y-102857000D03*
X157531000Y-102057000D03*
X157531000Y-101257000D03*
X157531000Y-100457000D03*
X157531000Y-99657000D03*
X157531000Y-98857000D03*
X157531000Y-98057000D03*
X157531000Y-97257000D03*
X157531000Y-96457000D03*
X157531000Y-95657000D03*
X156731000Y-110057000D03*
X156731000Y-109257000D03*
X156731000Y-108457000D03*
X156731000Y-107657000D03*
X156731000Y-106857000D03*
X156731000Y-106057000D03*
X156731000Y-105257000D03*
X156731000Y-104457000D03*
X156731000Y-103657000D03*
X156731000Y-102857000D03*
X156731000Y-102057000D03*
X156731000Y-101257000D03*
X156731000Y-100457000D03*
X156731000Y-99657000D03*
X156731000Y-98857000D03*
X156731000Y-98057000D03*
X156731000Y-97257000D03*
X156731000Y-96457000D03*
X156731000Y-95657000D03*
X155931000Y-110057000D03*
X155931000Y-109257000D03*
X155931000Y-108457000D03*
X155931000Y-107657000D03*
X155931000Y-106857000D03*
X155931000Y-106057000D03*
X155931000Y-105257000D03*
X155931000Y-104457000D03*
X155931000Y-103657000D03*
X155931000Y-102857000D03*
X155931000Y-102057000D03*
X155931000Y-101257000D03*
X155931000Y-100457000D03*
X155931000Y-99657000D03*
X155931000Y-98857000D03*
X155931000Y-98057000D03*
X155931000Y-97257000D03*
X155931000Y-96457000D03*
X155931000Y-95657000D03*
X155131000Y-110057000D03*
X155131000Y-109257000D03*
X155131000Y-108457000D03*
X155131000Y-107657000D03*
X155131000Y-106857000D03*
X155131000Y-106057000D03*
X155131000Y-105257000D03*
X155131000Y-104457000D03*
X155131000Y-103657000D03*
X155131000Y-102857000D03*
X155131000Y-102057000D03*
X155131000Y-101257000D03*
X155131000Y-100457000D03*
X155131000Y-99657000D03*
X155131000Y-98857000D03*
X155131000Y-98057000D03*
X155131000Y-97257000D03*
X155131000Y-96457000D03*
X155131000Y-95657000D03*
X154331000Y-110057000D03*
X154331000Y-109257000D03*
X154331000Y-108457000D03*
X154331000Y-107657000D03*
X154331000Y-106857000D03*
X154331000Y-106057000D03*
X154331000Y-105257000D03*
X154331000Y-104457000D03*
X154331000Y-103657000D03*
X154331000Y-102857000D03*
X154331000Y-102057000D03*
X154331000Y-101257000D03*
X154331000Y-100457000D03*
X154331000Y-99657000D03*
X154331000Y-98857000D03*
X154331000Y-98057000D03*
X154331000Y-97257000D03*
X154331000Y-96457000D03*
X154331000Y-95657000D03*
X153531000Y-110057000D03*
X153531000Y-109257000D03*
X153531000Y-108457000D03*
X153531000Y-107657000D03*
X153531000Y-106857000D03*
X153531000Y-106057000D03*
X153531000Y-105257000D03*
X153531000Y-104457000D03*
X153531000Y-103657000D03*
X153531000Y-102857000D03*
X153531000Y-102057000D03*
X153531000Y-101257000D03*
X153531000Y-100457000D03*
X153531000Y-99657000D03*
X153531000Y-98857000D03*
X153531000Y-98057000D03*
X153531000Y-97257000D03*
X153531000Y-96457000D03*
X153531000Y-95657000D03*
X152731000Y-110057000D03*
X152731000Y-109257000D03*
X152731000Y-108457000D03*
X152731000Y-107657000D03*
X152731000Y-106857000D03*
X152731000Y-106057000D03*
X152731000Y-105257000D03*
X152731000Y-104457000D03*
X152731000Y-103657000D03*
X152731000Y-102857000D03*
X152731000Y-102057000D03*
X152731000Y-101257000D03*
X152731000Y-100457000D03*
X152731000Y-99657000D03*
X152731000Y-98857000D03*
X152731000Y-98057000D03*
X152731000Y-97257000D03*
X152731000Y-96457000D03*
X152731000Y-95657000D03*
%TD*%
D23*
%TO.C,J7*%
X198120000Y-91440000D03*
X198120000Y-93980000D03*
X198120000Y-96520000D03*
X198120000Y-99060000D03*
X198120000Y-101600000D03*
X198120000Y-104140000D03*
X198120000Y-106680000D03*
D24*
X198120000Y-109220000D03*
%TD*%
D10*
%TO.C,TP1*%
X149987000Y-102489000D03*
%TD*%
%TO.C,D4*%
G36*
G01*
X173540000Y-131629999D02*
X173540000Y-132530001D01*
G75*
G02*
X173290001Y-132780000I-249999J0D01*
G01*
X172639999Y-132780000D01*
G75*
G02*
X172390000Y-132530001I0J249999D01*
G01*
X172390000Y-131629999D01*
G75*
G02*
X172639999Y-131380000I249999J0D01*
G01*
X173290001Y-131380000D01*
G75*
G02*
X173540000Y-131629999I0J-249999D01*
G01*
G37*
G36*
G01*
X175590000Y-131629999D02*
X175590000Y-132530001D01*
G75*
G02*
X175340001Y-132780000I-249999J0D01*
G01*
X174689999Y-132780000D01*
G75*
G02*
X174440000Y-132530001I0J249999D01*
G01*
X174440000Y-131629999D01*
G75*
G02*
X174689999Y-131380000I249999J0D01*
G01*
X175340001Y-131380000D01*
G75*
G02*
X175590000Y-131629999I0J-249999D01*
G01*
G37*
%TD*%
%TO.C,D3*%
G36*
G01*
X173540000Y-128073999D02*
X173540000Y-128974001D01*
G75*
G02*
X173290001Y-129224000I-249999J0D01*
G01*
X172639999Y-129224000D01*
G75*
G02*
X172390000Y-128974001I0J249999D01*
G01*
X172390000Y-128073999D01*
G75*
G02*
X172639999Y-127824000I249999J0D01*
G01*
X173290001Y-127824000D01*
G75*
G02*
X173540000Y-128073999I0J-249999D01*
G01*
G37*
G36*
G01*
X175590000Y-128073999D02*
X175590000Y-128974001D01*
G75*
G02*
X175340001Y-129224000I-249999J0D01*
G01*
X174689999Y-129224000D01*
G75*
G02*
X174440000Y-128974001I0J249999D01*
G01*
X174440000Y-128073999D01*
G75*
G02*
X174689999Y-127824000I249999J0D01*
G01*
X175340001Y-127824000D01*
G75*
G02*
X175590000Y-128073999I0J-249999D01*
G01*
G37*
%TD*%
%TO.C,J9*%
G36*
G01*
X196075000Y-140640000D02*
X194325000Y-140640000D01*
G75*
G02*
X193450000Y-139765000I0J875000D01*
G01*
X193450000Y-138015000D01*
G75*
G02*
X194325000Y-137140000I875000J0D01*
G01*
X196075000Y-137140000D01*
G75*
G02*
X196950000Y-138015000I0J-875000D01*
G01*
X196950000Y-139765000D01*
G75*
G02*
X196075000Y-140640000I-875000J0D01*
G01*
G37*
G36*
G01*
X191500000Y-143390000D02*
X189500000Y-143390000D01*
G75*
G02*
X188750000Y-142640000I0J750000D01*
G01*
X188750000Y-141140000D01*
G75*
G02*
X189500000Y-140390000I750000J0D01*
G01*
X191500000Y-140390000D01*
G75*
G02*
X192250000Y-141140000I0J-750000D01*
G01*
X192250000Y-142640000D01*
G75*
G02*
X191500000Y-143390000I-750000J0D01*
G01*
G37*
D25*
X190500000Y-135890000D03*
%TD*%
D22*
%TO.C,U2*%
X191420000Y-99670000D03*
X191420000Y-100470000D03*
X191420000Y-101270000D03*
X191420000Y-104470000D03*
X191420000Y-105270000D03*
X191420000Y-106070000D03*
X190620000Y-99670000D03*
X190620000Y-100470000D03*
X190620000Y-101270000D03*
X190620000Y-104470000D03*
X190620000Y-105270000D03*
X190620000Y-106070000D03*
X189820000Y-99670000D03*
X189820000Y-100470000D03*
X189820000Y-101270000D03*
X189820000Y-104470000D03*
X189820000Y-105270000D03*
X189820000Y-106070000D03*
X189020000Y-99670000D03*
X189020000Y-100470000D03*
X189020000Y-101270000D03*
X189020000Y-104470000D03*
X189020000Y-105270000D03*
X189020000Y-106070000D03*
X188220000Y-99670000D03*
X188220000Y-100470000D03*
X188220000Y-101270000D03*
X188220000Y-104470000D03*
X188220000Y-105270000D03*
X188220000Y-106070000D03*
X187420000Y-99670000D03*
X187420000Y-100470000D03*
X187420000Y-101270000D03*
X187420000Y-104470000D03*
X187420000Y-105270000D03*
X187420000Y-106070000D03*
X186620000Y-99670000D03*
X186620000Y-100470000D03*
X186620000Y-101270000D03*
X186620000Y-104470000D03*
X186620000Y-105270000D03*
X186620000Y-106070000D03*
X185820000Y-99670000D03*
X185820000Y-100470000D03*
X185820000Y-101270000D03*
X185820000Y-104470000D03*
X185820000Y-105270000D03*
X185820000Y-106070000D03*
X185020000Y-99670000D03*
X185020000Y-100470000D03*
X185020000Y-101270000D03*
X185020000Y-104470000D03*
X185020000Y-105270000D03*
X185020000Y-106070000D03*
X184220000Y-99670000D03*
X184220000Y-100470000D03*
X184220000Y-101270000D03*
X184220000Y-104470000D03*
X184220000Y-105270000D03*
X184220000Y-106070000D03*
X183420000Y-99670000D03*
X183420000Y-100470000D03*
X183420000Y-101270000D03*
X183420000Y-104470000D03*
X183420000Y-105270000D03*
X183420000Y-106070000D03*
X182620000Y-99670000D03*
X182620000Y-100470000D03*
X182620000Y-101270000D03*
X182620000Y-104470000D03*
X182620000Y-105270000D03*
X182620000Y-106070000D03*
X181820000Y-99670000D03*
X181820000Y-100470000D03*
X181820000Y-101270000D03*
X181820000Y-104470000D03*
X181820000Y-105270000D03*
X181820000Y-106070000D03*
X181020000Y-99670000D03*
X181020000Y-100470000D03*
X181020000Y-101270000D03*
X181020000Y-104470000D03*
X181020000Y-105270000D03*
X181020000Y-106070000D03*
X180220000Y-99670000D03*
X180220000Y-100470000D03*
X180220000Y-101270000D03*
X180220000Y-104470000D03*
X180220000Y-105270000D03*
X180220000Y-106070000D03*
X179420000Y-99670000D03*
X179420000Y-100470000D03*
X179420000Y-101270000D03*
X179420000Y-104470000D03*
X179420000Y-105270000D03*
X179420000Y-106070000D03*
%TD*%
D26*
%TO.C,J8*%
X142667400Y-147338300D03*
X148467400Y-147338300D03*
D27*
X149067400Y-147338300D03*
X142067400Y-147338300D03*
D28*
X144567400Y-147338300D03*
D29*
X148067400Y-144638300D03*
D30*
X145567400Y-144638300D03*
X146217400Y-144638300D03*
X146867400Y-144638300D03*
X144267400Y-144638300D03*
X144917400Y-144638300D03*
D29*
X143067400Y-144638300D03*
D28*
X146567400Y-147338300D03*
%TD*%
D23*
%TO.C,J5*%
X150622000Y-76835000D03*
X148082000Y-76835000D03*
X150622000Y-74295000D03*
X148082000Y-74295000D03*
X150622000Y-71755000D03*
D24*
X148082000Y-71755000D03*
%TD*%
D23*
%TO.C,J4*%
X129540000Y-76200000D03*
X129540000Y-78740000D03*
X129540000Y-81280000D03*
X129540000Y-83820000D03*
X129540000Y-86360000D03*
X129540000Y-88900000D03*
X129540000Y-91440000D03*
X129540000Y-93980000D03*
X129540000Y-96520000D03*
X129540000Y-99060000D03*
X129540000Y-101600000D03*
X129540000Y-104140000D03*
X129540000Y-106680000D03*
X129540000Y-109220000D03*
X129540000Y-111760000D03*
X129540000Y-114300000D03*
X129540000Y-116840000D03*
X129540000Y-119380000D03*
X129540000Y-121920000D03*
X129540000Y-124460000D03*
X129540000Y-127000000D03*
X129540000Y-129540000D03*
X129540000Y-132080000D03*
X129540000Y-134620000D03*
X129540000Y-137160000D03*
X129540000Y-139700000D03*
D24*
X129540000Y-142240000D03*
%TD*%
D23*
%TO.C,J3*%
X132080000Y-76200000D03*
X132080000Y-78740000D03*
X132080000Y-81280000D03*
X132080000Y-83820000D03*
X132080000Y-86360000D03*
X132080000Y-88900000D03*
X132080000Y-91440000D03*
X132080000Y-93980000D03*
X132080000Y-96520000D03*
X132080000Y-99060000D03*
X132080000Y-101600000D03*
X132080000Y-104140000D03*
X132080000Y-106680000D03*
X132080000Y-109220000D03*
X132080000Y-111760000D03*
X132080000Y-114300000D03*
X132080000Y-116840000D03*
X132080000Y-119380000D03*
X132080000Y-121920000D03*
X132080000Y-124460000D03*
X132080000Y-127000000D03*
X132080000Y-129540000D03*
X132080000Y-132080000D03*
X132080000Y-134620000D03*
X132080000Y-137160000D03*
X132080000Y-139700000D03*
D24*
X132080000Y-142240000D03*
%TD*%
D23*
%TO.C,J2*%
X134620000Y-76200000D03*
X134620000Y-78740000D03*
X134620000Y-81280000D03*
X134620000Y-83820000D03*
X134620000Y-86360000D03*
X134620000Y-88900000D03*
X134620000Y-91440000D03*
X134620000Y-93980000D03*
X134620000Y-96520000D03*
X134620000Y-99060000D03*
X134620000Y-101600000D03*
X134620000Y-104140000D03*
X134620000Y-106680000D03*
X134620000Y-109220000D03*
X134620000Y-111760000D03*
X134620000Y-114300000D03*
X134620000Y-116840000D03*
X134620000Y-119380000D03*
X134620000Y-121920000D03*
X134620000Y-124460000D03*
X134620000Y-127000000D03*
X134620000Y-129540000D03*
X134620000Y-132080000D03*
X134620000Y-134620000D03*
X134620000Y-137160000D03*
X134620000Y-139700000D03*
D24*
X134620000Y-142240000D03*
%TD*%
D23*
%TO.C,J1*%
X137160000Y-76200000D03*
X137160000Y-78740000D03*
X137160000Y-81280000D03*
X137160000Y-83820000D03*
X137160000Y-86360000D03*
X137160000Y-88900000D03*
X137160000Y-91440000D03*
X137160000Y-93980000D03*
X137160000Y-96520000D03*
X137160000Y-99060000D03*
X137160000Y-101600000D03*
X137160000Y-104140000D03*
X137160000Y-106680000D03*
X137160000Y-109220000D03*
X137160000Y-111760000D03*
X137160000Y-114300000D03*
X137160000Y-116840000D03*
X137160000Y-119380000D03*
X137160000Y-121920000D03*
X137160000Y-124460000D03*
X137160000Y-127000000D03*
X137160000Y-129540000D03*
X137160000Y-132080000D03*
X137160000Y-134620000D03*
X137160000Y-137160000D03*
X137160000Y-139700000D03*
D24*
X137160000Y-142240000D03*
%TD*%
D31*
%TO.C,U4*%
X195410000Y-126238000D03*
X195410000Y-125288000D03*
X195410000Y-127188000D03*
X193210000Y-127188000D03*
X193210000Y-126238000D03*
X193210000Y-125288000D03*
%TD*%
D26*
%TO.C,J14*%
X155850000Y-147287500D03*
X161650000Y-147287500D03*
D27*
X162250000Y-147287500D03*
X155250000Y-147287500D03*
D28*
X157750000Y-147287500D03*
D29*
X161250000Y-144587500D03*
D30*
X158750000Y-144587500D03*
X159400000Y-144587500D03*
X160050000Y-144587500D03*
X157450000Y-144587500D03*
X158100000Y-144587500D03*
D29*
X156250000Y-144587500D03*
D28*
X159750000Y-147287500D03*
%TD*%
D32*
%TO.C,J6*%
X187896500Y-79420000D03*
X187896500Y-75520000D03*
X189166500Y-79420000D03*
X189166500Y-75520000D03*
X190436500Y-79420000D03*
X190436500Y-75520000D03*
X191706500Y-79420000D03*
X191706500Y-75520000D03*
X192976500Y-79420000D03*
X192976500Y-75520000D03*
%TD*%
%TO.C,D1*%
G36*
G01*
X136594000Y-72332001D02*
X136594000Y-71431999D01*
G75*
G02*
X136843999Y-71182000I249999J0D01*
G01*
X137494001Y-71182000D01*
G75*
G02*
X137744000Y-71431999I0J-249999D01*
G01*
X137744000Y-72332001D01*
G75*
G02*
X137494001Y-72582000I-249999J0D01*
G01*
X136843999Y-72582000D01*
G75*
G02*
X136594000Y-72332001I0J249999D01*
G01*
G37*
G36*
G01*
X134544000Y-72332001D02*
X134544000Y-71431999D01*
G75*
G02*
X134793999Y-71182000I249999J0D01*
G01*
X135444001Y-71182000D01*
G75*
G02*
X135694000Y-71431999I0J-249999D01*
G01*
X135694000Y-72332001D01*
G75*
G02*
X135444001Y-72582000I-249999J0D01*
G01*
X134793999Y-72582000D01*
G75*
G02*
X134544000Y-72332001I0J249999D01*
G01*
G37*
%TD*%
M02*
