%TF.GenerationSoftware,KiCad,Pcbnew,(5.1.8-0-10_14)*%
%TF.CreationDate,2021-04-08T13:24:54+01:00*%
%TF.ProjectId,STM32MP1_TestBoard_RevB,53544d33-324d-4503-915f-54657374426f,rev?*%
%TF.SameCoordinates,Original*%
%TF.FileFunction,Legend,Top*%
%TF.FilePolarity,Positive*%
%FSLAX46Y46*%
G04 Gerber Fmt 4.6, Leading zero omitted, Abs format (unit mm)*
G04 Created by KiCad (PCBNEW (5.1.8-0-10_14)) date 2021-04-08 13:24:54*
%MOMM*%
%LPD*%
G01*
G04 APERTURE LIST*
%ADD10C,0.300000*%
%ADD11C,0.100000*%
%ADD12C,0.120000*%
%ADD13C,0.200000*%
%ADD14C,1.000000*%
G04 APERTURE END LIST*
D10*
X191503300Y-96901000D02*
G75*
G03*
X191503300Y-96901000I-114300J0D01*
G01*
D11*
X167030476Y-146158000D02*
X166954285Y-146119904D01*
X166840000Y-146119904D01*
X166725714Y-146158000D01*
X166649523Y-146234190D01*
X166611428Y-146310380D01*
X166573333Y-146462761D01*
X166573333Y-146577047D01*
X166611428Y-146729428D01*
X166649523Y-146805619D01*
X166725714Y-146881809D01*
X166840000Y-146919904D01*
X166916190Y-146919904D01*
X167030476Y-146881809D01*
X167068571Y-146843714D01*
X167068571Y-146577047D01*
X166916190Y-146577047D01*
X167411428Y-146919904D02*
X167411428Y-146119904D01*
X167868571Y-146919904D01*
X167868571Y-146119904D01*
X168249523Y-146919904D02*
X168249523Y-146119904D01*
X168440000Y-146119904D01*
X168554285Y-146158000D01*
X168630476Y-146234190D01*
X168668571Y-146310380D01*
X168706666Y-146462761D01*
X168706666Y-146577047D01*
X168668571Y-146729428D01*
X168630476Y-146805619D01*
X168554285Y-146881809D01*
X168440000Y-146919904D01*
X168249523Y-146919904D01*
D10*
X161131190Y-86535523D02*
X161416904Y-86630761D01*
X161893095Y-86630761D01*
X162083571Y-86535523D01*
X162178809Y-86440285D01*
X162274047Y-86249809D01*
X162274047Y-86059333D01*
X162178809Y-85868857D01*
X162083571Y-85773619D01*
X161893095Y-85678380D01*
X161512142Y-85583142D01*
X161321666Y-85487904D01*
X161226428Y-85392666D01*
X161131190Y-85202190D01*
X161131190Y-85011714D01*
X161226428Y-84821238D01*
X161321666Y-84726000D01*
X161512142Y-84630761D01*
X161988333Y-84630761D01*
X162274047Y-84726000D01*
X162845476Y-84630761D02*
X163988333Y-84630761D01*
X163416904Y-86630761D02*
X163416904Y-84630761D01*
X164655000Y-86630761D02*
X164655000Y-84630761D01*
X165321666Y-86059333D01*
X165988333Y-84630761D01*
X165988333Y-86630761D01*
X166750238Y-84630761D02*
X167988333Y-84630761D01*
X167321666Y-85392666D01*
X167607380Y-85392666D01*
X167797857Y-85487904D01*
X167893095Y-85583142D01*
X167988333Y-85773619D01*
X167988333Y-86249809D01*
X167893095Y-86440285D01*
X167797857Y-86535523D01*
X167607380Y-86630761D01*
X167035952Y-86630761D01*
X166845476Y-86535523D01*
X166750238Y-86440285D01*
X168750238Y-84821238D02*
X168845476Y-84726000D01*
X169035952Y-84630761D01*
X169512142Y-84630761D01*
X169702619Y-84726000D01*
X169797857Y-84821238D01*
X169893095Y-85011714D01*
X169893095Y-85202190D01*
X169797857Y-85487904D01*
X168655000Y-86630761D01*
X169893095Y-86630761D01*
X170750238Y-86630761D02*
X170750238Y-84630761D01*
X171416904Y-86059333D01*
X172083571Y-84630761D01*
X172083571Y-86630761D01*
X173035952Y-86630761D02*
X173035952Y-84630761D01*
X173797857Y-84630761D01*
X173988333Y-84726000D01*
X174083571Y-84821238D01*
X174178809Y-85011714D01*
X174178809Y-85297428D01*
X174083571Y-85487904D01*
X173988333Y-85583142D01*
X173797857Y-85678380D01*
X173035952Y-85678380D01*
X176083571Y-86630761D02*
X174940714Y-86630761D01*
X175512142Y-86630761D02*
X175512142Y-84630761D01*
X175321666Y-84916476D01*
X175131190Y-85106952D01*
X174940714Y-85202190D01*
X177893095Y-84630761D02*
X176940714Y-84630761D01*
X176845476Y-85583142D01*
X176940714Y-85487904D01*
X177131190Y-85392666D01*
X177607380Y-85392666D01*
X177797857Y-85487904D01*
X177893095Y-85583142D01*
X177988333Y-85773619D01*
X177988333Y-86249809D01*
X177893095Y-86440285D01*
X177797857Y-86535523D01*
X177607380Y-86630761D01*
X177131190Y-86630761D01*
X176940714Y-86535523D01*
X176845476Y-86440285D01*
X178655000Y-84630761D02*
X179988333Y-84630761D01*
X179131190Y-86630761D01*
X181416904Y-85583142D02*
X180750238Y-85583142D01*
X180750238Y-86630761D02*
X180750238Y-84630761D01*
X181702619Y-84630761D01*
X184655000Y-85583142D02*
X184940714Y-85678380D01*
X185035952Y-85773619D01*
X185131190Y-85964095D01*
X185131190Y-86249809D01*
X185035952Y-86440285D01*
X184940714Y-86535523D01*
X184750238Y-86630761D01*
X183988333Y-86630761D01*
X183988333Y-84630761D01*
X184655000Y-84630761D01*
X184845476Y-84726000D01*
X184940714Y-84821238D01*
X185035952Y-85011714D01*
X185035952Y-85202190D01*
X184940714Y-85392666D01*
X184845476Y-85487904D01*
X184655000Y-85583142D01*
X183988333Y-85583142D01*
X185988333Y-86630761D02*
X185988333Y-85297428D01*
X185988333Y-85678380D02*
X186083571Y-85487904D01*
X186178809Y-85392666D01*
X186369285Y-85297428D01*
X186559761Y-85297428D01*
X187988333Y-86535523D02*
X187797857Y-86630761D01*
X187416904Y-86630761D01*
X187226428Y-86535523D01*
X187131190Y-86345047D01*
X187131190Y-85583142D01*
X187226428Y-85392666D01*
X187416904Y-85297428D01*
X187797857Y-85297428D01*
X187988333Y-85392666D01*
X188083571Y-85583142D01*
X188083571Y-85773619D01*
X187131190Y-85964095D01*
X189797857Y-86630761D02*
X189797857Y-85583142D01*
X189702619Y-85392666D01*
X189512142Y-85297428D01*
X189131190Y-85297428D01*
X188940714Y-85392666D01*
X189797857Y-86535523D02*
X189607380Y-86630761D01*
X189131190Y-86630761D01*
X188940714Y-86535523D01*
X188845476Y-86345047D01*
X188845476Y-86154571D01*
X188940714Y-85964095D01*
X189131190Y-85868857D01*
X189607380Y-85868857D01*
X189797857Y-85773619D01*
X190750238Y-86630761D02*
X190750238Y-84630761D01*
X190940714Y-85868857D02*
X191512142Y-86630761D01*
X191512142Y-85297428D02*
X190750238Y-86059333D01*
X192655000Y-86630761D02*
X192464523Y-86535523D01*
X192369285Y-86440285D01*
X192274047Y-86249809D01*
X192274047Y-85678380D01*
X192369285Y-85487904D01*
X192464523Y-85392666D01*
X192655000Y-85297428D01*
X192940714Y-85297428D01*
X193131190Y-85392666D01*
X193226428Y-85487904D01*
X193321666Y-85678380D01*
X193321666Y-86249809D01*
X193226428Y-86440285D01*
X193131190Y-86535523D01*
X192940714Y-86630761D01*
X192655000Y-86630761D01*
X195035952Y-85297428D02*
X195035952Y-86630761D01*
X194178809Y-85297428D02*
X194178809Y-86345047D01*
X194274047Y-86535523D01*
X194464523Y-86630761D01*
X194750238Y-86630761D01*
X194940714Y-86535523D01*
X195035952Y-86440285D01*
X195702619Y-85297428D02*
X196464523Y-85297428D01*
X195988333Y-84630761D02*
X195988333Y-86345047D01*
X196083571Y-86535523D01*
X196274047Y-86630761D01*
X196464523Y-86630761D01*
X170750238Y-89930761D02*
X170083571Y-88978380D01*
X169607380Y-89930761D02*
X169607380Y-87930761D01*
X170369285Y-87930761D01*
X170559761Y-88026000D01*
X170655000Y-88121238D01*
X170750238Y-88311714D01*
X170750238Y-88597428D01*
X170655000Y-88787904D01*
X170559761Y-88883142D01*
X170369285Y-88978380D01*
X169607380Y-88978380D01*
X172369285Y-89835523D02*
X172178809Y-89930761D01*
X171797857Y-89930761D01*
X171607380Y-89835523D01*
X171512142Y-89645047D01*
X171512142Y-88883142D01*
X171607380Y-88692666D01*
X171797857Y-88597428D01*
X172178809Y-88597428D01*
X172369285Y-88692666D01*
X172464523Y-88883142D01*
X172464523Y-89073619D01*
X171512142Y-89264095D01*
X173131190Y-88597428D02*
X173607380Y-89930761D01*
X174083571Y-88597428D01*
X175512142Y-88883142D02*
X175797857Y-88978380D01*
X175893095Y-89073619D01*
X175988333Y-89264095D01*
X175988333Y-89549809D01*
X175893095Y-89740285D01*
X175797857Y-89835523D01*
X175607380Y-89930761D01*
X174845476Y-89930761D01*
X174845476Y-87930761D01*
X175512142Y-87930761D01*
X175702619Y-88026000D01*
X175797857Y-88121238D01*
X175893095Y-88311714D01*
X175893095Y-88502190D01*
X175797857Y-88692666D01*
X175702619Y-88787904D01*
X175512142Y-88883142D01*
X174845476Y-88883142D01*
X179512142Y-89740285D02*
X179416904Y-89835523D01*
X179131190Y-89930761D01*
X178940714Y-89930761D01*
X178655000Y-89835523D01*
X178464523Y-89645047D01*
X178369285Y-89454571D01*
X178274047Y-89073619D01*
X178274047Y-88787904D01*
X178369285Y-88406952D01*
X178464523Y-88216476D01*
X178655000Y-88026000D01*
X178940714Y-87930761D01*
X179131190Y-87930761D01*
X179416904Y-88026000D01*
X179512142Y-88121238D01*
X180369285Y-89930761D02*
X180369285Y-87930761D01*
X181226428Y-89930761D02*
X181226428Y-88883142D01*
X181131190Y-88692666D01*
X180940714Y-88597428D01*
X180655000Y-88597428D01*
X180464523Y-88692666D01*
X180369285Y-88787904D01*
X182178809Y-89930761D02*
X182178809Y-88597428D01*
X182178809Y-88978380D02*
X182274047Y-88787904D01*
X182369285Y-88692666D01*
X182559761Y-88597428D01*
X182750238Y-88597428D01*
X183416904Y-89930761D02*
X183416904Y-88597428D01*
X183416904Y-87930761D02*
X183321666Y-88026000D01*
X183416904Y-88121238D01*
X183512142Y-88026000D01*
X183416904Y-87930761D01*
X183416904Y-88121238D01*
X184274047Y-89835523D02*
X184464523Y-89930761D01*
X184845476Y-89930761D01*
X185035952Y-89835523D01*
X185131190Y-89645047D01*
X185131190Y-89549809D01*
X185035952Y-89359333D01*
X184845476Y-89264095D01*
X184559761Y-89264095D01*
X184369285Y-89168857D01*
X184274047Y-88978380D01*
X184274047Y-88883142D01*
X184369285Y-88692666D01*
X184559761Y-88597428D01*
X184845476Y-88597428D01*
X185035952Y-88692666D01*
X187416904Y-89835523D02*
X187702619Y-89930761D01*
X188178809Y-89930761D01*
X188369285Y-89835523D01*
X188464523Y-89740285D01*
X188559761Y-89549809D01*
X188559761Y-89359333D01*
X188464523Y-89168857D01*
X188369285Y-89073619D01*
X188178809Y-88978380D01*
X187797857Y-88883142D01*
X187607380Y-88787904D01*
X187512142Y-88692666D01*
X187416904Y-88502190D01*
X187416904Y-88311714D01*
X187512142Y-88121238D01*
X187607380Y-88026000D01*
X187797857Y-87930761D01*
X188274047Y-87930761D01*
X188559761Y-88026000D01*
X190274047Y-88597428D02*
X190274047Y-89930761D01*
X189416904Y-88597428D02*
X189416904Y-89645047D01*
X189512142Y-89835523D01*
X189702619Y-89930761D01*
X189988333Y-89930761D01*
X190178809Y-89835523D01*
X190274047Y-89740285D01*
X190940714Y-88597428D02*
X191702619Y-88597428D01*
X191226428Y-87930761D02*
X191226428Y-89645047D01*
X191321666Y-89835523D01*
X191512142Y-89930761D01*
X191702619Y-89930761D01*
X192083571Y-88597428D02*
X192845476Y-88597428D01*
X192369285Y-87930761D02*
X192369285Y-89645047D01*
X192464523Y-89835523D01*
X192655000Y-89930761D01*
X192845476Y-89930761D01*
X193797857Y-89930761D02*
X193607380Y-89835523D01*
X193512142Y-89740285D01*
X193416904Y-89549809D01*
X193416904Y-88978380D01*
X193512142Y-88787904D01*
X193607380Y-88692666D01*
X193797857Y-88597428D01*
X194083571Y-88597428D01*
X194274047Y-88692666D01*
X194369285Y-88787904D01*
X194464523Y-88978380D01*
X194464523Y-89549809D01*
X194369285Y-89740285D01*
X194274047Y-89835523D01*
X194083571Y-89930761D01*
X193797857Y-89930761D01*
X195321666Y-88597428D02*
X195321666Y-89930761D01*
X195321666Y-88787904D02*
X195416904Y-88692666D01*
X195607380Y-88597428D01*
X195893095Y-88597428D01*
X196083571Y-88692666D01*
X196178809Y-88883142D01*
X196178809Y-89930761D01*
D11*
X149707619Y-110851904D02*
X149326666Y-110851904D01*
X149326666Y-110051904D01*
X149974285Y-110851904D02*
X149974285Y-110051904D01*
X150279047Y-110051904D01*
X150355238Y-110090000D01*
X150393333Y-110128095D01*
X150431428Y-110204285D01*
X150431428Y-110318571D01*
X150393333Y-110394761D01*
X150355238Y-110432857D01*
X150279047Y-110470952D01*
X149974285Y-110470952D01*
X148793333Y-100056904D02*
X148793333Y-99256904D01*
X149098095Y-99256904D01*
X149174285Y-99295000D01*
X149212380Y-99333095D01*
X149250476Y-99409285D01*
X149250476Y-99523571D01*
X149212380Y-99599761D01*
X149174285Y-99637857D01*
X149098095Y-99675952D01*
X148793333Y-99675952D01*
X149517142Y-99256904D02*
X149707619Y-100056904D01*
X149860000Y-99485476D01*
X150012380Y-100056904D01*
X150202857Y-99256904D01*
X150964761Y-100056904D02*
X150698095Y-99675952D01*
X150507619Y-100056904D02*
X150507619Y-99256904D01*
X150812380Y-99256904D01*
X150888571Y-99295000D01*
X150926666Y-99333095D01*
X150964761Y-99409285D01*
X150964761Y-99523571D01*
X150926666Y-99599761D01*
X150888571Y-99637857D01*
X150812380Y-99675952D01*
X150507619Y-99675952D01*
X168745047Y-131641904D02*
X169240285Y-131641904D01*
X168973619Y-131946666D01*
X169087904Y-131946666D01*
X169164095Y-131984761D01*
X169202190Y-132022857D01*
X169240285Y-132099047D01*
X169240285Y-132289523D01*
X169202190Y-132365714D01*
X169164095Y-132403809D01*
X169087904Y-132441904D01*
X168859333Y-132441904D01*
X168783142Y-132403809D01*
X168745047Y-132365714D01*
X169583142Y-132365714D02*
X169621238Y-132403809D01*
X169583142Y-132441904D01*
X169545047Y-132403809D01*
X169583142Y-132365714D01*
X169583142Y-132441904D01*
X169887904Y-131641904D02*
X170383142Y-131641904D01*
X170116476Y-131946666D01*
X170230761Y-131946666D01*
X170306952Y-131984761D01*
X170345047Y-132022857D01*
X170383142Y-132099047D01*
X170383142Y-132289523D01*
X170345047Y-132365714D01*
X170306952Y-132403809D01*
X170230761Y-132441904D01*
X170002190Y-132441904D01*
X169926000Y-132403809D01*
X169887904Y-132365714D01*
X170611714Y-131641904D02*
X170878380Y-132441904D01*
X171145047Y-131641904D01*
X168859333Y-125583904D02*
X168402190Y-125583904D01*
X168630761Y-125583904D02*
X168630761Y-124783904D01*
X168554571Y-124898190D01*
X168478380Y-124974380D01*
X168402190Y-125012476D01*
X169202190Y-125507714D02*
X169240285Y-125545809D01*
X169202190Y-125583904D01*
X169164095Y-125545809D01*
X169202190Y-125507714D01*
X169202190Y-125583904D01*
X169506952Y-124783904D02*
X170002190Y-124783904D01*
X169735523Y-125088666D01*
X169849809Y-125088666D01*
X169926000Y-125126761D01*
X169964095Y-125164857D01*
X170002190Y-125241047D01*
X170002190Y-125431523D01*
X169964095Y-125507714D01*
X169926000Y-125545809D01*
X169849809Y-125583904D01*
X169621238Y-125583904D01*
X169545047Y-125545809D01*
X169506952Y-125507714D01*
X170726000Y-124783904D02*
X170345047Y-124783904D01*
X170306952Y-125164857D01*
X170345047Y-125126761D01*
X170421238Y-125088666D01*
X170611714Y-125088666D01*
X170687904Y-125126761D01*
X170726000Y-125164857D01*
X170764095Y-125241047D01*
X170764095Y-125431523D01*
X170726000Y-125507714D01*
X170687904Y-125545809D01*
X170611714Y-125583904D01*
X170421238Y-125583904D01*
X170345047Y-125545809D01*
X170306952Y-125507714D01*
X170992666Y-124783904D02*
X171259333Y-125583904D01*
X171526000Y-124783904D01*
X169240285Y-128885904D02*
X168783142Y-128885904D01*
X169011714Y-128885904D02*
X169011714Y-128085904D01*
X168935523Y-128200190D01*
X168859333Y-128276380D01*
X168783142Y-128314476D01*
X169583142Y-128809714D02*
X169621238Y-128847809D01*
X169583142Y-128885904D01*
X169545047Y-128847809D01*
X169583142Y-128809714D01*
X169583142Y-128885904D01*
X170078380Y-128428761D02*
X170002190Y-128390666D01*
X169964095Y-128352571D01*
X169926000Y-128276380D01*
X169926000Y-128238285D01*
X169964095Y-128162095D01*
X170002190Y-128124000D01*
X170078380Y-128085904D01*
X170230761Y-128085904D01*
X170306952Y-128124000D01*
X170345047Y-128162095D01*
X170383142Y-128238285D01*
X170383142Y-128276380D01*
X170345047Y-128352571D01*
X170306952Y-128390666D01*
X170230761Y-128428761D01*
X170078380Y-128428761D01*
X170002190Y-128466857D01*
X169964095Y-128504952D01*
X169926000Y-128581142D01*
X169926000Y-128733523D01*
X169964095Y-128809714D01*
X170002190Y-128847809D01*
X170078380Y-128885904D01*
X170230761Y-128885904D01*
X170306952Y-128847809D01*
X170345047Y-128809714D01*
X170383142Y-128733523D01*
X170383142Y-128581142D01*
X170345047Y-128504952D01*
X170306952Y-128466857D01*
X170230761Y-128428761D01*
X170611714Y-128085904D02*
X170878380Y-128885904D01*
X171145047Y-128085904D01*
X167074904Y-76244285D02*
X167874904Y-75977619D01*
X167074904Y-75710952D01*
X167455857Y-75177619D02*
X167493952Y-75063333D01*
X167532047Y-75025238D01*
X167608238Y-74987142D01*
X167722523Y-74987142D01*
X167798714Y-75025238D01*
X167836809Y-75063333D01*
X167874904Y-75139523D01*
X167874904Y-75444285D01*
X167074904Y-75444285D01*
X167074904Y-75177619D01*
X167113000Y-75101428D01*
X167151095Y-75063333D01*
X167227285Y-75025238D01*
X167303476Y-75025238D01*
X167379666Y-75063333D01*
X167417761Y-75101428D01*
X167455857Y-75177619D01*
X167455857Y-75444285D01*
X167646333Y-74682380D02*
X167646333Y-74301428D01*
X167874904Y-74758571D02*
X167074904Y-74491904D01*
X167874904Y-74225238D01*
X167074904Y-74072857D02*
X167074904Y-73615714D01*
X167874904Y-73844285D02*
X167074904Y-73844285D01*
X144546666Y-108781904D02*
X145013333Y-109581904D01*
X145013333Y-108781904D02*
X144546666Y-109581904D01*
X141719333Y-80841904D02*
X142252666Y-81641904D01*
X142252666Y-80841904D02*
X141719333Y-81641904D01*
X139433333Y-80841904D02*
X139966666Y-81641904D01*
X139966666Y-80841904D02*
X139433333Y-81641904D01*
X139122285Y-71174857D02*
X139236571Y-71212952D01*
X139274666Y-71251047D01*
X139312761Y-71327238D01*
X139312761Y-71441523D01*
X139274666Y-71517714D01*
X139236571Y-71555809D01*
X139160380Y-71593904D01*
X138855619Y-71593904D01*
X138855619Y-70793904D01*
X139122285Y-70793904D01*
X139198476Y-70832000D01*
X139236571Y-70870095D01*
X139274666Y-70946285D01*
X139274666Y-71022476D01*
X139236571Y-71098666D01*
X139198476Y-71136761D01*
X139122285Y-71174857D01*
X138855619Y-71174857D01*
X139808000Y-70793904D02*
X139960380Y-70793904D01*
X140036571Y-70832000D01*
X140112761Y-70908190D01*
X140150857Y-71060571D01*
X140150857Y-71327238D01*
X140112761Y-71479619D01*
X140036571Y-71555809D01*
X139960380Y-71593904D01*
X139808000Y-71593904D01*
X139731809Y-71555809D01*
X139655619Y-71479619D01*
X139617523Y-71327238D01*
X139617523Y-71060571D01*
X139655619Y-70908190D01*
X139731809Y-70832000D01*
X139808000Y-70793904D01*
X140646095Y-70793904D02*
X140798476Y-70793904D01*
X140874666Y-70832000D01*
X140950857Y-70908190D01*
X140988952Y-71060571D01*
X140988952Y-71327238D01*
X140950857Y-71479619D01*
X140874666Y-71555809D01*
X140798476Y-71593904D01*
X140646095Y-71593904D01*
X140569904Y-71555809D01*
X140493714Y-71479619D01*
X140455619Y-71327238D01*
X140455619Y-71060571D01*
X140493714Y-70908190D01*
X140569904Y-70832000D01*
X140646095Y-70793904D01*
X141217523Y-70793904D02*
X141674666Y-70793904D01*
X141446095Y-71593904D02*
X141446095Y-70793904D01*
X139465142Y-72474857D02*
X139198476Y-72474857D01*
X139198476Y-72893904D02*
X139198476Y-72093904D01*
X139579428Y-72093904D01*
X139846095Y-72665333D02*
X140227047Y-72665333D01*
X139769904Y-72893904D02*
X140036571Y-72093904D01*
X140303238Y-72893904D01*
X140569904Y-72893904D02*
X140569904Y-72093904D01*
X141331809Y-72893904D02*
X140950857Y-72893904D01*
X140950857Y-72093904D01*
X194335523Y-108781904D02*
X194830761Y-108781904D01*
X194564095Y-109086666D01*
X194678380Y-109086666D01*
X194754571Y-109124761D01*
X194792666Y-109162857D01*
X194830761Y-109239047D01*
X194830761Y-109429523D01*
X194792666Y-109505714D01*
X194754571Y-109543809D01*
X194678380Y-109581904D01*
X194449809Y-109581904D01*
X194373619Y-109543809D01*
X194335523Y-109505714D01*
X195059333Y-108781904D02*
X195326000Y-109581904D01*
X195592666Y-108781904D01*
X195783142Y-108781904D02*
X196278380Y-108781904D01*
X196011714Y-109086666D01*
X196126000Y-109086666D01*
X196202190Y-109124761D01*
X196240285Y-109162857D01*
X196278380Y-109239047D01*
X196278380Y-109429523D01*
X196240285Y-109505714D01*
X196202190Y-109543809D01*
X196126000Y-109581904D01*
X195897428Y-109581904D01*
X195821238Y-109543809D01*
X195783142Y-109505714D01*
X194716476Y-106280000D02*
X194640285Y-106241904D01*
X194526000Y-106241904D01*
X194411714Y-106280000D01*
X194335523Y-106356190D01*
X194297428Y-106432380D01*
X194259333Y-106584761D01*
X194259333Y-106699047D01*
X194297428Y-106851428D01*
X194335523Y-106927619D01*
X194411714Y-107003809D01*
X194526000Y-107041904D01*
X194602190Y-107041904D01*
X194716476Y-107003809D01*
X194754571Y-106965714D01*
X194754571Y-106699047D01*
X194602190Y-106699047D01*
X195097428Y-107041904D02*
X195097428Y-106241904D01*
X195554571Y-107041904D01*
X195554571Y-106241904D01*
X195935523Y-107041904D02*
X195935523Y-106241904D01*
X196126000Y-106241904D01*
X196240285Y-106280000D01*
X196316476Y-106356190D01*
X196354571Y-106432380D01*
X196392666Y-106584761D01*
X196392666Y-106699047D01*
X196354571Y-106851428D01*
X196316476Y-106927619D01*
X196240285Y-107003809D01*
X196126000Y-107041904D01*
X195935523Y-107041904D01*
X194291047Y-102581904D02*
X194291047Y-101781904D01*
X194481523Y-101781904D01*
X194595809Y-101820000D01*
X194672000Y-101896190D01*
X194710095Y-101972380D01*
X194748190Y-102124761D01*
X194748190Y-102239047D01*
X194710095Y-102391428D01*
X194672000Y-102467619D01*
X194595809Y-102543809D01*
X194481523Y-102581904D01*
X194291047Y-102581904D01*
X195052952Y-102543809D02*
X195167238Y-102581904D01*
X195357714Y-102581904D01*
X195433904Y-102543809D01*
X195472000Y-102505714D01*
X195510095Y-102429523D01*
X195510095Y-102353333D01*
X195472000Y-102277142D01*
X195433904Y-102239047D01*
X195357714Y-102200952D01*
X195205333Y-102162857D01*
X195129142Y-102124761D01*
X195091047Y-102086666D01*
X195052952Y-102010476D01*
X195052952Y-101934285D01*
X195091047Y-101858095D01*
X195129142Y-101820000D01*
X195205333Y-101781904D01*
X195395809Y-101781904D01*
X195510095Y-101820000D01*
X195852952Y-102581904D02*
X195852952Y-101781904D01*
X194481523Y-103881904D02*
X194481523Y-103081904D01*
X194672000Y-103081904D01*
X194786285Y-103120000D01*
X194862476Y-103196190D01*
X194900571Y-103272380D01*
X194938666Y-103424761D01*
X194938666Y-103539047D01*
X194900571Y-103691428D01*
X194862476Y-103767619D01*
X194786285Y-103843809D01*
X194672000Y-103881904D01*
X194481523Y-103881904D01*
X195700571Y-103881904D02*
X195243428Y-103881904D01*
X195472000Y-103881904D02*
X195472000Y-103081904D01*
X195395809Y-103196190D01*
X195319619Y-103272380D01*
X195243428Y-103310476D01*
X194291047Y-97501904D02*
X194291047Y-96701904D01*
X194481523Y-96701904D01*
X194595809Y-96740000D01*
X194672000Y-96816190D01*
X194710095Y-96892380D01*
X194748190Y-97044761D01*
X194748190Y-97159047D01*
X194710095Y-97311428D01*
X194672000Y-97387619D01*
X194595809Y-97463809D01*
X194481523Y-97501904D01*
X194291047Y-97501904D01*
X195052952Y-97463809D02*
X195167238Y-97501904D01*
X195357714Y-97501904D01*
X195433904Y-97463809D01*
X195472000Y-97425714D01*
X195510095Y-97349523D01*
X195510095Y-97273333D01*
X195472000Y-97197142D01*
X195433904Y-97159047D01*
X195357714Y-97120952D01*
X195205333Y-97082857D01*
X195129142Y-97044761D01*
X195091047Y-97006666D01*
X195052952Y-96930476D01*
X195052952Y-96854285D01*
X195091047Y-96778095D01*
X195129142Y-96740000D01*
X195205333Y-96701904D01*
X195395809Y-96701904D01*
X195510095Y-96740000D01*
X195852952Y-97501904D02*
X195852952Y-96701904D01*
X194595809Y-98725714D02*
X194557714Y-98763809D01*
X194443428Y-98801904D01*
X194367238Y-98801904D01*
X194252952Y-98763809D01*
X194176761Y-98687619D01*
X194138666Y-98611428D01*
X194100571Y-98459047D01*
X194100571Y-98344761D01*
X194138666Y-98192380D01*
X194176761Y-98116190D01*
X194252952Y-98040000D01*
X194367238Y-98001904D01*
X194443428Y-98001904D01*
X194557714Y-98040000D01*
X194595809Y-98078095D01*
X195319619Y-98801904D02*
X194938666Y-98801904D01*
X194938666Y-98001904D01*
X195586285Y-98801904D02*
X195586285Y-98001904D01*
X196043428Y-98801904D02*
X195700571Y-98344761D01*
X196043428Y-98001904D02*
X195586285Y-98459047D01*
X194291047Y-92421904D02*
X194291047Y-91621904D01*
X194481523Y-91621904D01*
X194595809Y-91660000D01*
X194672000Y-91736190D01*
X194710095Y-91812380D01*
X194748190Y-91964761D01*
X194748190Y-92079047D01*
X194710095Y-92231428D01*
X194672000Y-92307619D01*
X194595809Y-92383809D01*
X194481523Y-92421904D01*
X194291047Y-92421904D01*
X195052952Y-92383809D02*
X195167238Y-92421904D01*
X195357714Y-92421904D01*
X195433904Y-92383809D01*
X195472000Y-92345714D01*
X195510095Y-92269523D01*
X195510095Y-92193333D01*
X195472000Y-92117142D01*
X195433904Y-92079047D01*
X195357714Y-92040952D01*
X195205333Y-92002857D01*
X195129142Y-91964761D01*
X195091047Y-91926666D01*
X195052952Y-91850476D01*
X195052952Y-91774285D01*
X195091047Y-91698095D01*
X195129142Y-91660000D01*
X195205333Y-91621904D01*
X195395809Y-91621904D01*
X195510095Y-91660000D01*
X195852952Y-92421904D02*
X195852952Y-91621904D01*
X194481523Y-93721904D02*
X194481523Y-92921904D01*
X194672000Y-92921904D01*
X194786285Y-92960000D01*
X194862476Y-93036190D01*
X194900571Y-93112380D01*
X194938666Y-93264761D01*
X194938666Y-93379047D01*
X194900571Y-93531428D01*
X194862476Y-93607619D01*
X194786285Y-93683809D01*
X194672000Y-93721904D01*
X194481523Y-93721904D01*
X195433904Y-92921904D02*
X195510095Y-92921904D01*
X195586285Y-92960000D01*
X195624380Y-92998095D01*
X195662476Y-93074285D01*
X195700571Y-93226666D01*
X195700571Y-93417142D01*
X195662476Y-93569523D01*
X195624380Y-93645714D01*
X195586285Y-93683809D01*
X195510095Y-93721904D01*
X195433904Y-93721904D01*
X195357714Y-93683809D01*
X195319619Y-93645714D01*
X195281523Y-93569523D01*
X195243428Y-93417142D01*
X195243428Y-93226666D01*
X195281523Y-93074285D01*
X195319619Y-92998095D01*
X195357714Y-92960000D01*
X195433904Y-92921904D01*
D12*
X155448000Y-73279000D02*
X153924000Y-73279000D01*
X153924000Y-75184000D02*
X155448000Y-75184000D01*
D11*
X155047904Y-81597333D02*
X154247904Y-81597333D01*
X154819333Y-81330666D01*
X154247904Y-81064000D01*
X155047904Y-81064000D01*
X155047904Y-80568761D02*
X155009809Y-80644952D01*
X154971714Y-80683047D01*
X154895523Y-80721142D01*
X154666952Y-80721142D01*
X154590761Y-80683047D01*
X154552666Y-80644952D01*
X154514571Y-80568761D01*
X154514571Y-80454476D01*
X154552666Y-80378285D01*
X154590761Y-80340190D01*
X154666952Y-80302095D01*
X154895523Y-80302095D01*
X154971714Y-80340190D01*
X155009809Y-80378285D01*
X155047904Y-80454476D01*
X155047904Y-80568761D01*
X155047904Y-79616380D02*
X154247904Y-79616380D01*
X155009809Y-79616380D02*
X155047904Y-79692571D01*
X155047904Y-79844952D01*
X155009809Y-79921142D01*
X154971714Y-79959238D01*
X154895523Y-79997333D01*
X154666952Y-79997333D01*
X154590761Y-79959238D01*
X154552666Y-79921142D01*
X154514571Y-79844952D01*
X154514571Y-79692571D01*
X154552666Y-79616380D01*
X155009809Y-78930666D02*
X155047904Y-79006857D01*
X155047904Y-79159238D01*
X155009809Y-79235428D01*
X154933619Y-79273523D01*
X154628857Y-79273523D01*
X154552666Y-79235428D01*
X154514571Y-79159238D01*
X154514571Y-79006857D01*
X154552666Y-78930666D01*
X154628857Y-78892571D01*
X154705047Y-78892571D01*
X154781238Y-79273523D01*
D12*
X155448000Y-83693000D02*
X155448000Y-77089000D01*
X155448000Y-77089000D02*
X155448000Y-71247000D01*
X153924000Y-83693000D02*
X159258000Y-83693000D01*
X153924000Y-71247000D02*
X153924000Y-83693000D01*
X159258000Y-71247000D02*
X153924000Y-71247000D01*
X159258000Y-83693000D02*
X159258000Y-71247000D01*
X153924000Y-77089000D02*
X159258000Y-77089000D01*
D11*
X158184904Y-83286238D02*
X158832523Y-83286238D01*
X158908714Y-83248142D01*
X158946809Y-83210047D01*
X158984904Y-83133857D01*
X158984904Y-82981476D01*
X158946809Y-82905285D01*
X158908714Y-82867190D01*
X158832523Y-82829095D01*
X158184904Y-82829095D01*
X158756333Y-82486238D02*
X158756333Y-82105285D01*
X158984904Y-82562428D02*
X158184904Y-82295761D01*
X158984904Y-82029095D01*
X158984904Y-81305285D02*
X158603952Y-81571952D01*
X158984904Y-81762428D02*
X158184904Y-81762428D01*
X158184904Y-81457666D01*
X158223000Y-81381476D01*
X158261095Y-81343380D01*
X158337285Y-81305285D01*
X158451571Y-81305285D01*
X158527761Y-81343380D01*
X158565857Y-81381476D01*
X158603952Y-81457666D01*
X158603952Y-81762428D01*
X158184904Y-81076714D02*
X158184904Y-80619571D01*
X158984904Y-80848142D02*
X158184904Y-80848142D01*
X158146809Y-79781476D02*
X159175380Y-80467190D01*
X158184904Y-79514809D02*
X158832523Y-79514809D01*
X158908714Y-79476714D01*
X158946809Y-79438619D01*
X158984904Y-79362428D01*
X158984904Y-79210047D01*
X158946809Y-79133857D01*
X158908714Y-79095761D01*
X158832523Y-79057666D01*
X158184904Y-79057666D01*
X158946809Y-78714809D02*
X158984904Y-78600523D01*
X158984904Y-78410047D01*
X158946809Y-78333857D01*
X158908714Y-78295761D01*
X158832523Y-78257666D01*
X158756333Y-78257666D01*
X158680142Y-78295761D01*
X158642047Y-78333857D01*
X158603952Y-78410047D01*
X158565857Y-78562428D01*
X158527761Y-78638619D01*
X158489666Y-78676714D01*
X158413476Y-78714809D01*
X158337285Y-78714809D01*
X158261095Y-78676714D01*
X158223000Y-78638619D01*
X158184904Y-78562428D01*
X158184904Y-78371952D01*
X158223000Y-78257666D01*
X158565857Y-77648142D02*
X158603952Y-77533857D01*
X158642047Y-77495761D01*
X158718238Y-77457666D01*
X158832523Y-77457666D01*
X158908714Y-77495761D01*
X158946809Y-77533857D01*
X158984904Y-77610047D01*
X158984904Y-77914809D01*
X158184904Y-77914809D01*
X158184904Y-77648142D01*
X158223000Y-77571952D01*
X158261095Y-77533857D01*
X158337285Y-77495761D01*
X158413476Y-77495761D01*
X158489666Y-77533857D01*
X158527761Y-77571952D01*
X158565857Y-77648142D01*
X158565857Y-77914809D01*
D10*
X158737300Y-74295000D02*
G75*
G03*
X158737300Y-74295000I-114300J0D01*
G01*
X158737300Y-76073000D02*
G75*
G03*
X158737300Y-76073000I-114300J0D01*
G01*
D11*
X157841904Y-83286238D02*
X157041904Y-83286238D01*
X157613333Y-83019571D01*
X157041904Y-82752904D01*
X157841904Y-82752904D01*
X157765714Y-81914809D02*
X157803809Y-81952904D01*
X157841904Y-82067190D01*
X157841904Y-82143380D01*
X157803809Y-82257666D01*
X157727619Y-82333857D01*
X157651428Y-82371952D01*
X157499047Y-82410047D01*
X157384761Y-82410047D01*
X157232380Y-82371952D01*
X157156190Y-82333857D01*
X157080000Y-82257666D01*
X157041904Y-82143380D01*
X157041904Y-82067190D01*
X157080000Y-81952904D01*
X157118095Y-81914809D01*
X157041904Y-81571952D02*
X157689523Y-81571952D01*
X157765714Y-81533857D01*
X157803809Y-81495761D01*
X157841904Y-81419571D01*
X157841904Y-81267190D01*
X157803809Y-81191000D01*
X157765714Y-81152904D01*
X157689523Y-81114809D01*
X157041904Y-81114809D01*
X157041904Y-79971952D02*
X157041904Y-79819571D01*
X157080000Y-79743380D01*
X157156190Y-79667190D01*
X157308571Y-79629095D01*
X157575238Y-79629095D01*
X157727619Y-79667190D01*
X157803809Y-79743380D01*
X157841904Y-79819571D01*
X157841904Y-79971952D01*
X157803809Y-80048142D01*
X157727619Y-80124333D01*
X157575238Y-80162428D01*
X157308571Y-80162428D01*
X157156190Y-80124333D01*
X157080000Y-80048142D01*
X157041904Y-79971952D01*
X157841904Y-79286238D02*
X157041904Y-79286238D01*
X157841904Y-78829095D01*
X157041904Y-78829095D01*
X157841904Y-78067190D02*
X157841904Y-78448142D01*
X157041904Y-78448142D01*
X157460952Y-77648142D02*
X157841904Y-77648142D01*
X157041904Y-77914809D02*
X157460952Y-77648142D01*
X157041904Y-77381476D01*
D10*
X157467300Y-76073000D02*
G75*
G03*
X157467300Y-76073000I-114300J0D01*
G01*
X156197300Y-72263000D02*
G75*
G03*
X156197300Y-72263000I-114300J0D01*
G01*
X156197300Y-76073000D02*
G75*
G03*
X156197300Y-76073000I-114300J0D01*
G01*
D11*
X156533809Y-82714809D02*
X156571904Y-82600523D01*
X156571904Y-82410047D01*
X156533809Y-82333857D01*
X156495714Y-82295761D01*
X156419523Y-82257666D01*
X156343333Y-82257666D01*
X156267142Y-82295761D01*
X156229047Y-82333857D01*
X156190952Y-82410047D01*
X156152857Y-82562428D01*
X156114761Y-82638619D01*
X156076666Y-82676714D01*
X156000476Y-82714809D01*
X155924285Y-82714809D01*
X155848095Y-82676714D01*
X155810000Y-82638619D01*
X155771904Y-82562428D01*
X155771904Y-82371952D01*
X155810000Y-82257666D01*
X156571904Y-81914809D02*
X155771904Y-81914809D01*
X155771904Y-81724333D01*
X155810000Y-81610047D01*
X155886190Y-81533857D01*
X155962380Y-81495761D01*
X156114761Y-81457666D01*
X156229047Y-81457666D01*
X156381428Y-81495761D01*
X156457619Y-81533857D01*
X156533809Y-81610047D01*
X156571904Y-81724333D01*
X156571904Y-81914809D01*
X156571904Y-81114809D02*
X155771904Y-81114809D01*
X156343333Y-80848142D01*
X155771904Y-80581476D01*
X156571904Y-80581476D01*
X156571904Y-80200523D02*
X155771904Y-80200523D01*
X156343333Y-79933857D01*
X155771904Y-79667190D01*
X156571904Y-79667190D01*
X156495714Y-78829095D02*
X156533809Y-78867190D01*
X156571904Y-78981476D01*
X156571904Y-79057666D01*
X156533809Y-79171952D01*
X156457619Y-79248142D01*
X156381428Y-79286238D01*
X156229047Y-79324333D01*
X156114761Y-79324333D01*
X155962380Y-79286238D01*
X155886190Y-79248142D01*
X155810000Y-79171952D01*
X155771904Y-79057666D01*
X155771904Y-78981476D01*
X155810000Y-78867190D01*
X155848095Y-78829095D01*
X156571904Y-78067190D02*
X156571904Y-78524333D01*
X156571904Y-78295761D02*
X155771904Y-78295761D01*
X155886190Y-78371952D01*
X155962380Y-78448142D01*
X156000476Y-78524333D01*
X154628857Y-72586809D02*
X154666952Y-72472523D01*
X154705047Y-72434428D01*
X154781238Y-72396333D01*
X154895523Y-72396333D01*
X154971714Y-72434428D01*
X155009809Y-72472523D01*
X155047904Y-72548714D01*
X155047904Y-72853476D01*
X154247904Y-72853476D01*
X154247904Y-72586809D01*
X154286000Y-72510619D01*
X154324095Y-72472523D01*
X154400285Y-72434428D01*
X154476476Y-72434428D01*
X154552666Y-72472523D01*
X154590761Y-72510619D01*
X154628857Y-72586809D01*
X154628857Y-72853476D01*
X154247904Y-71901095D02*
X154247904Y-71824904D01*
X154286000Y-71748714D01*
X154324095Y-71710619D01*
X154400285Y-71672523D01*
X154552666Y-71634428D01*
X154743142Y-71634428D01*
X154895523Y-71672523D01*
X154971714Y-71710619D01*
X155009809Y-71748714D01*
X155047904Y-71824904D01*
X155047904Y-71901095D01*
X155009809Y-71977285D01*
X154971714Y-72015380D01*
X154895523Y-72053476D01*
X154743142Y-72091571D01*
X154552666Y-72091571D01*
X154400285Y-72053476D01*
X154324095Y-72015380D01*
X154286000Y-71977285D01*
X154247904Y-71901095D01*
X154628857Y-74618809D02*
X154666952Y-74504523D01*
X154705047Y-74466428D01*
X154781238Y-74428333D01*
X154895523Y-74428333D01*
X154971714Y-74466428D01*
X155009809Y-74504523D01*
X155047904Y-74580714D01*
X155047904Y-74885476D01*
X154247904Y-74885476D01*
X154247904Y-74618809D01*
X154286000Y-74542619D01*
X154324095Y-74504523D01*
X154400285Y-74466428D01*
X154476476Y-74466428D01*
X154552666Y-74504523D01*
X154590761Y-74542619D01*
X154628857Y-74618809D01*
X154628857Y-74885476D01*
X155047904Y-73666428D02*
X155047904Y-74123571D01*
X155047904Y-73895000D02*
X154247904Y-73895000D01*
X154362190Y-73971190D01*
X154438380Y-74047380D01*
X154476476Y-74123571D01*
X154628857Y-76523809D02*
X154666952Y-76409523D01*
X154705047Y-76371428D01*
X154781238Y-76333333D01*
X154895523Y-76333333D01*
X154971714Y-76371428D01*
X155009809Y-76409523D01*
X155047904Y-76485714D01*
X155047904Y-76790476D01*
X154247904Y-76790476D01*
X154247904Y-76523809D01*
X154286000Y-76447619D01*
X154324095Y-76409523D01*
X154400285Y-76371428D01*
X154476476Y-76371428D01*
X154552666Y-76409523D01*
X154590761Y-76447619D01*
X154628857Y-76523809D01*
X154628857Y-76790476D01*
X154324095Y-76028571D02*
X154286000Y-75990476D01*
X154247904Y-75914285D01*
X154247904Y-75723809D01*
X154286000Y-75647619D01*
X154324095Y-75609523D01*
X154400285Y-75571428D01*
X154476476Y-75571428D01*
X154590761Y-75609523D01*
X155047904Y-76066666D01*
X155047904Y-75571428D01*
X140023904Y-148456476D02*
X140671523Y-148456476D01*
X140747714Y-148418380D01*
X140785809Y-148380285D01*
X140823904Y-148304095D01*
X140823904Y-148151714D01*
X140785809Y-148075523D01*
X140747714Y-148037428D01*
X140671523Y-147999333D01*
X140023904Y-147999333D01*
X140785809Y-147656476D02*
X140823904Y-147542190D01*
X140823904Y-147351714D01*
X140785809Y-147275523D01*
X140747714Y-147237428D01*
X140671523Y-147199333D01*
X140595333Y-147199333D01*
X140519142Y-147237428D01*
X140481047Y-147275523D01*
X140442952Y-147351714D01*
X140404857Y-147504095D01*
X140366761Y-147580285D01*
X140328666Y-147618380D01*
X140252476Y-147656476D01*
X140176285Y-147656476D01*
X140100095Y-147618380D01*
X140062000Y-147580285D01*
X140023904Y-147504095D01*
X140023904Y-147313619D01*
X140062000Y-147199333D01*
X140404857Y-146589809D02*
X140442952Y-146475523D01*
X140481047Y-146437428D01*
X140557238Y-146399333D01*
X140671523Y-146399333D01*
X140747714Y-146437428D01*
X140785809Y-146475523D01*
X140823904Y-146551714D01*
X140823904Y-146856476D01*
X140023904Y-146856476D01*
X140023904Y-146589809D01*
X140062000Y-146513619D01*
X140100095Y-146475523D01*
X140176285Y-146437428D01*
X140252476Y-146437428D01*
X140328666Y-146475523D01*
X140366761Y-146513619D01*
X140404857Y-146589809D01*
X140404857Y-146856476D01*
X140100095Y-146094571D02*
X140062000Y-146056476D01*
X140023904Y-145980285D01*
X140023904Y-145789809D01*
X140062000Y-145713619D01*
X140100095Y-145675523D01*
X140176285Y-145637428D01*
X140252476Y-145637428D01*
X140366761Y-145675523D01*
X140823904Y-146132666D01*
X140823904Y-145637428D01*
X153231904Y-148202476D02*
X153879523Y-148202476D01*
X153955714Y-148164380D01*
X153993809Y-148126285D01*
X154031904Y-148050095D01*
X154031904Y-147897714D01*
X153993809Y-147821523D01*
X153955714Y-147783428D01*
X153879523Y-147745333D01*
X153231904Y-147745333D01*
X153993809Y-147402476D02*
X154031904Y-147288190D01*
X154031904Y-147097714D01*
X153993809Y-147021523D01*
X153955714Y-146983428D01*
X153879523Y-146945333D01*
X153803333Y-146945333D01*
X153727142Y-146983428D01*
X153689047Y-147021523D01*
X153650952Y-147097714D01*
X153612857Y-147250095D01*
X153574761Y-147326285D01*
X153536666Y-147364380D01*
X153460476Y-147402476D01*
X153384285Y-147402476D01*
X153308095Y-147364380D01*
X153270000Y-147326285D01*
X153231904Y-147250095D01*
X153231904Y-147059619D01*
X153270000Y-146945333D01*
X153612857Y-146335809D02*
X153650952Y-146221523D01*
X153689047Y-146183428D01*
X153765238Y-146145333D01*
X153879523Y-146145333D01*
X153955714Y-146183428D01*
X153993809Y-146221523D01*
X154031904Y-146297714D01*
X154031904Y-146602476D01*
X153231904Y-146602476D01*
X153231904Y-146335809D01*
X153270000Y-146259619D01*
X153308095Y-146221523D01*
X153384285Y-146183428D01*
X153460476Y-146183428D01*
X153536666Y-146221523D01*
X153574761Y-146259619D01*
X153612857Y-146335809D01*
X153612857Y-146602476D01*
X154031904Y-145383428D02*
X154031904Y-145840571D01*
X154031904Y-145612000D02*
X153231904Y-145612000D01*
X153346190Y-145688190D01*
X153422380Y-145764380D01*
X153460476Y-145840571D01*
X139090476Y-75800000D02*
X139014285Y-75761904D01*
X138900000Y-75761904D01*
X138785714Y-75800000D01*
X138709523Y-75876190D01*
X138671428Y-75952380D01*
X138633333Y-76104761D01*
X138633333Y-76219047D01*
X138671428Y-76371428D01*
X138709523Y-76447619D01*
X138785714Y-76523809D01*
X138900000Y-76561904D01*
X138976190Y-76561904D01*
X139090476Y-76523809D01*
X139128571Y-76485714D01*
X139128571Y-76219047D01*
X138976190Y-76219047D01*
X139471428Y-76561904D02*
X139471428Y-75761904D01*
X139928571Y-76561904D01*
X139928571Y-75761904D01*
X140309523Y-76561904D02*
X140309523Y-75761904D01*
X140500000Y-75761904D01*
X140614285Y-75800000D01*
X140690476Y-75876190D01*
X140728571Y-75952380D01*
X140766666Y-76104761D01*
X140766666Y-76219047D01*
X140728571Y-76371428D01*
X140690476Y-76447619D01*
X140614285Y-76523809D01*
X140500000Y-76561904D01*
X140309523Y-76561904D01*
X138709523Y-78301904D02*
X139204761Y-78301904D01*
X138938095Y-78606666D01*
X139052380Y-78606666D01*
X139128571Y-78644761D01*
X139166666Y-78682857D01*
X139204761Y-78759047D01*
X139204761Y-78949523D01*
X139166666Y-79025714D01*
X139128571Y-79063809D01*
X139052380Y-79101904D01*
X138823809Y-79101904D01*
X138747619Y-79063809D01*
X138709523Y-79025714D01*
X139433333Y-78301904D02*
X139700000Y-79101904D01*
X139966666Y-78301904D01*
X140157142Y-78301904D02*
X140652380Y-78301904D01*
X140385714Y-78606666D01*
X140500000Y-78606666D01*
X140576190Y-78644761D01*
X140614285Y-78682857D01*
X140652380Y-78759047D01*
X140652380Y-78949523D01*
X140614285Y-79025714D01*
X140576190Y-79063809D01*
X140500000Y-79101904D01*
X140271428Y-79101904D01*
X140195238Y-79063809D01*
X140157142Y-79025714D01*
X177044476Y-83254809D02*
X177158761Y-83292904D01*
X177349238Y-83292904D01*
X177425428Y-83254809D01*
X177463523Y-83216714D01*
X177501619Y-83140523D01*
X177501619Y-83064333D01*
X177463523Y-82988142D01*
X177425428Y-82950047D01*
X177349238Y-82911952D01*
X177196857Y-82873857D01*
X177120666Y-82835761D01*
X177082571Y-82797666D01*
X177044476Y-82721476D01*
X177044476Y-82645285D01*
X177082571Y-82569095D01*
X177120666Y-82531000D01*
X177196857Y-82492904D01*
X177387333Y-82492904D01*
X177501619Y-82531000D01*
X177844476Y-83292904D02*
X177844476Y-82492904D01*
X178034952Y-82492904D01*
X178149238Y-82531000D01*
X178225428Y-82607190D01*
X178263523Y-82683380D01*
X178301619Y-82835761D01*
X178301619Y-82950047D01*
X178263523Y-83102428D01*
X178225428Y-83178619D01*
X178149238Y-83254809D01*
X178034952Y-83292904D01*
X177844476Y-83292904D01*
X179063523Y-83292904D02*
X178606380Y-83292904D01*
X178834952Y-83292904D02*
X178834952Y-82492904D01*
X178758761Y-82607190D01*
X178682571Y-82683380D01*
X178606380Y-82721476D01*
X192538404Y-73761476D02*
X192538404Y-73266238D01*
X192843166Y-73532904D01*
X192843166Y-73418619D01*
X192881261Y-73342428D01*
X192919357Y-73304333D01*
X192995547Y-73266238D01*
X193186023Y-73266238D01*
X193262214Y-73304333D01*
X193300309Y-73342428D01*
X193338404Y-73418619D01*
X193338404Y-73647190D01*
X193300309Y-73723380D01*
X193262214Y-73761476D01*
X192538404Y-73037666D02*
X193338404Y-72771000D01*
X192538404Y-72504333D01*
X192538404Y-72313857D02*
X192538404Y-71818619D01*
X192843166Y-72085285D01*
X192843166Y-71971000D01*
X192881261Y-71894809D01*
X192919357Y-71856714D01*
X192995547Y-71818619D01*
X193186023Y-71818619D01*
X193262214Y-71856714D01*
X193300309Y-71894809D01*
X193338404Y-71971000D01*
X193338404Y-72199571D01*
X193300309Y-72275761D01*
X193262214Y-72313857D01*
X184511904Y-83737285D02*
X183711904Y-83737285D01*
X184511904Y-83280142D01*
X183711904Y-83280142D01*
X184511904Y-82442047D02*
X184130952Y-82708714D01*
X184511904Y-82899190D02*
X183711904Y-82899190D01*
X183711904Y-82594428D01*
X183750000Y-82518238D01*
X183788095Y-82480142D01*
X183864285Y-82442047D01*
X183978571Y-82442047D01*
X184054761Y-82480142D01*
X184092857Y-82518238D01*
X184130952Y-82594428D01*
X184130952Y-82899190D01*
X184473809Y-82137285D02*
X184511904Y-82023000D01*
X184511904Y-81832523D01*
X184473809Y-81756333D01*
X184435714Y-81718238D01*
X184359523Y-81680142D01*
X184283333Y-81680142D01*
X184207142Y-81718238D01*
X184169047Y-81756333D01*
X184130952Y-81832523D01*
X184092857Y-81984904D01*
X184054761Y-82061095D01*
X184016666Y-82099190D01*
X183940476Y-82137285D01*
X183864285Y-82137285D01*
X183788095Y-82099190D01*
X183750000Y-82061095D01*
X183711904Y-81984904D01*
X183711904Y-81794428D01*
X183750000Y-81680142D01*
X183711904Y-81451571D02*
X183711904Y-80994428D01*
X184511904Y-81223000D02*
X183711904Y-81223000D01*
X193338404Y-82607047D02*
X192538404Y-82607047D01*
X192538404Y-82416571D01*
X192576500Y-82302285D01*
X192652690Y-82226095D01*
X192728880Y-82188000D01*
X192881261Y-82149904D01*
X192995547Y-82149904D01*
X193147928Y-82188000D01*
X193224119Y-82226095D01*
X193300309Y-82302285D01*
X193338404Y-82416571D01*
X193338404Y-82607047D01*
X193338404Y-81807047D02*
X192538404Y-81807047D01*
X192538404Y-81273714D02*
X192538404Y-81121333D01*
X192576500Y-81045142D01*
X192652690Y-80968952D01*
X192805071Y-80930857D01*
X193071738Y-80930857D01*
X193224119Y-80968952D01*
X193300309Y-81045142D01*
X193338404Y-81121333D01*
X193338404Y-81273714D01*
X193300309Y-81349904D01*
X193224119Y-81426095D01*
X193071738Y-81464190D01*
X192805071Y-81464190D01*
X192652690Y-81426095D01*
X192576500Y-81349904D01*
X192538404Y-81273714D01*
X191992214Y-82391190D02*
X192030309Y-82429285D01*
X192068404Y-82543571D01*
X192068404Y-82619761D01*
X192030309Y-82734047D01*
X191954119Y-82810238D01*
X191877928Y-82848333D01*
X191725547Y-82886428D01*
X191611261Y-82886428D01*
X191458880Y-82848333D01*
X191382690Y-82810238D01*
X191306500Y-82734047D01*
X191268404Y-82619761D01*
X191268404Y-82543571D01*
X191306500Y-82429285D01*
X191344595Y-82391190D01*
X192068404Y-81667380D02*
X192068404Y-82048333D01*
X191268404Y-82048333D01*
X192068404Y-81400714D02*
X191268404Y-81400714D01*
X192068404Y-80943571D02*
X191611261Y-81286428D01*
X191268404Y-80943571D02*
X191725547Y-81400714D01*
X190760309Y-83146761D02*
X190798404Y-83032476D01*
X190798404Y-82842000D01*
X190760309Y-82765809D01*
X190722214Y-82727714D01*
X190646023Y-82689619D01*
X190569833Y-82689619D01*
X190493642Y-82727714D01*
X190455547Y-82765809D01*
X190417452Y-82842000D01*
X190379357Y-82994380D01*
X190341261Y-83070571D01*
X190303166Y-83108666D01*
X190226976Y-83146761D01*
X190150785Y-83146761D01*
X190074595Y-83108666D01*
X190036500Y-83070571D01*
X189998404Y-82994380D01*
X189998404Y-82803904D01*
X190036500Y-82689619D01*
X189998404Y-82422952D02*
X190798404Y-82232476D01*
X190226976Y-82080095D01*
X190798404Y-81927714D01*
X189998404Y-81737238D01*
X189998404Y-81280095D02*
X189998404Y-81127714D01*
X190036500Y-81051523D01*
X190112690Y-80975333D01*
X190265071Y-80937238D01*
X190531738Y-80937238D01*
X190684119Y-80975333D01*
X190760309Y-81051523D01*
X190798404Y-81127714D01*
X190798404Y-81280095D01*
X190760309Y-81356285D01*
X190684119Y-81432476D01*
X190531738Y-81470571D01*
X190265071Y-81470571D01*
X190112690Y-81432476D01*
X190036500Y-81356285D01*
X189998404Y-81280095D01*
D13*
X196008857Y-145019571D02*
X196937428Y-145019571D01*
X196437428Y-145591000D01*
X196651714Y-145591000D01*
X196794571Y-145662428D01*
X196866000Y-145733857D01*
X196937428Y-145876714D01*
X196937428Y-146233857D01*
X196866000Y-146376714D01*
X196794571Y-146448142D01*
X196651714Y-146519571D01*
X196223142Y-146519571D01*
X196080285Y-146448142D01*
X196008857Y-146376714D01*
X197866000Y-145019571D02*
X198008857Y-145019571D01*
X198151714Y-145091000D01*
X198223142Y-145162428D01*
X198294571Y-145305285D01*
X198366000Y-145591000D01*
X198366000Y-145948142D01*
X198294571Y-146233857D01*
X198223142Y-146376714D01*
X198151714Y-146448142D01*
X198008857Y-146519571D01*
X197866000Y-146519571D01*
X197723142Y-146448142D01*
X197651714Y-146376714D01*
X197580285Y-146233857D01*
X197508857Y-145948142D01*
X197508857Y-145591000D01*
X197580285Y-145305285D01*
X197651714Y-145162428D01*
X197723142Y-145091000D01*
X197866000Y-145019571D01*
X198794571Y-145019571D02*
X199294571Y-146519571D01*
X199794571Y-145019571D01*
X196008857Y-148969571D02*
X196008857Y-147469571D01*
X196508857Y-148541000D01*
X197008857Y-147469571D01*
X197008857Y-148969571D01*
X197651714Y-148541000D02*
X198366000Y-148541000D01*
X197508857Y-148969571D02*
X198008857Y-147469571D01*
X198508857Y-148969571D01*
X198866000Y-147469571D02*
X199866000Y-148969571D01*
X199866000Y-147469571D02*
X198866000Y-148969571D01*
D11*
X197466095Y-73259904D02*
X197199428Y-72878952D01*
X197008952Y-73259904D02*
X197008952Y-72459904D01*
X197313714Y-72459904D01*
X197389904Y-72498000D01*
X197428000Y-72536095D01*
X197466095Y-72612285D01*
X197466095Y-72726571D01*
X197428000Y-72802761D01*
X197389904Y-72840857D01*
X197313714Y-72878952D01*
X197008952Y-72878952D01*
X197808952Y-72840857D02*
X198075619Y-72840857D01*
X198189904Y-73259904D02*
X197808952Y-73259904D01*
X197808952Y-72459904D01*
X198189904Y-72459904D01*
X198494666Y-73221809D02*
X198608952Y-73259904D01*
X198799428Y-73259904D01*
X198875619Y-73221809D01*
X198913714Y-73183714D01*
X198951809Y-73107523D01*
X198951809Y-73031333D01*
X198913714Y-72955142D01*
X198875619Y-72917047D01*
X198799428Y-72878952D01*
X198647047Y-72840857D01*
X198570857Y-72802761D01*
X198532761Y-72764666D01*
X198494666Y-72688476D01*
X198494666Y-72612285D01*
X198532761Y-72536095D01*
X198570857Y-72498000D01*
X198647047Y-72459904D01*
X198837523Y-72459904D01*
X198951809Y-72498000D01*
X199294666Y-72840857D02*
X199561333Y-72840857D01*
X199675619Y-73259904D02*
X199294666Y-73259904D01*
X199294666Y-72459904D01*
X199675619Y-72459904D01*
X199904190Y-72459904D02*
X200361333Y-72459904D01*
X200132761Y-73259904D02*
X200132761Y-72459904D01*
X146216000Y-107041904D02*
X146216000Y-106241904D01*
X146382666Y-106241904D01*
X146482666Y-106280000D01*
X146549333Y-106356190D01*
X146582666Y-106432380D01*
X146616000Y-106584761D01*
X146616000Y-106699047D01*
X146582666Y-106851428D01*
X146549333Y-106927619D01*
X146482666Y-107003809D01*
X146382666Y-107041904D01*
X146216000Y-107041904D01*
X147282666Y-107041904D02*
X146882666Y-107041904D01*
X147082666Y-107041904D02*
X147082666Y-106241904D01*
X147016000Y-106356190D01*
X146949333Y-106432380D01*
X146882666Y-106470476D01*
X147916000Y-106241904D02*
X147582666Y-106241904D01*
X147549333Y-106622857D01*
X147582666Y-106584761D01*
X147649333Y-106546666D01*
X147816000Y-106546666D01*
X147882666Y-106584761D01*
X147916000Y-106622857D01*
X147949333Y-106699047D01*
X147949333Y-106889523D01*
X147916000Y-106965714D01*
X147882666Y-107003809D01*
X147816000Y-107041904D01*
X147649333Y-107041904D01*
X147582666Y-107003809D01*
X147549333Y-106965714D01*
X143676000Y-107041904D02*
X143676000Y-106241904D01*
X143842666Y-106241904D01*
X143942666Y-106280000D01*
X144009333Y-106356190D01*
X144042666Y-106432380D01*
X144076000Y-106584761D01*
X144076000Y-106699047D01*
X144042666Y-106851428D01*
X144009333Y-106927619D01*
X143942666Y-107003809D01*
X143842666Y-107041904D01*
X143676000Y-107041904D01*
X144742666Y-107041904D02*
X144342666Y-107041904D01*
X144542666Y-107041904D02*
X144542666Y-106241904D01*
X144476000Y-106356190D01*
X144409333Y-106432380D01*
X144342666Y-106470476D01*
X145342666Y-106508571D02*
X145342666Y-107041904D01*
X145176000Y-106203809D02*
X145009333Y-106775238D01*
X145442666Y-106775238D01*
X141469333Y-107041904D02*
X141469333Y-106241904D01*
X141636000Y-106241904D01*
X141736000Y-106280000D01*
X141802666Y-106356190D01*
X141836000Y-106432380D01*
X141869333Y-106584761D01*
X141869333Y-106699047D01*
X141836000Y-106851428D01*
X141802666Y-106927619D01*
X141736000Y-107003809D01*
X141636000Y-107041904D01*
X141469333Y-107041904D01*
X142269333Y-106584761D02*
X142202666Y-106546666D01*
X142169333Y-106508571D01*
X142136000Y-106432380D01*
X142136000Y-106394285D01*
X142169333Y-106318095D01*
X142202666Y-106280000D01*
X142269333Y-106241904D01*
X142402666Y-106241904D01*
X142469333Y-106280000D01*
X142502666Y-106318095D01*
X142536000Y-106394285D01*
X142536000Y-106432380D01*
X142502666Y-106508571D01*
X142469333Y-106546666D01*
X142402666Y-106584761D01*
X142269333Y-106584761D01*
X142202666Y-106622857D01*
X142169333Y-106660952D01*
X142136000Y-106737142D01*
X142136000Y-106889523D01*
X142169333Y-106965714D01*
X142202666Y-107003809D01*
X142269333Y-107041904D01*
X142402666Y-107041904D01*
X142469333Y-107003809D01*
X142502666Y-106965714D01*
X142536000Y-106889523D01*
X142536000Y-106737142D01*
X142502666Y-106660952D01*
X142469333Y-106622857D01*
X142402666Y-106584761D01*
X139216666Y-106280000D02*
X139150000Y-106241904D01*
X139050000Y-106241904D01*
X138950000Y-106280000D01*
X138883333Y-106356190D01*
X138850000Y-106432380D01*
X138816666Y-106584761D01*
X138816666Y-106699047D01*
X138850000Y-106851428D01*
X138883333Y-106927619D01*
X138950000Y-107003809D01*
X139050000Y-107041904D01*
X139116666Y-107041904D01*
X139216666Y-107003809D01*
X139250000Y-106965714D01*
X139250000Y-106699047D01*
X139116666Y-106699047D01*
X139916666Y-107041904D02*
X139516666Y-107041904D01*
X139716666Y-107041904D02*
X139716666Y-106241904D01*
X139650000Y-106356190D01*
X139583333Y-106432380D01*
X139516666Y-106470476D01*
X140183333Y-106318095D02*
X140216666Y-106280000D01*
X140283333Y-106241904D01*
X140450000Y-106241904D01*
X140516666Y-106280000D01*
X140550000Y-106318095D01*
X140583333Y-106394285D01*
X140583333Y-106470476D01*
X140550000Y-106584761D01*
X140150000Y-107041904D01*
X140583333Y-107041904D01*
X146549333Y-104501904D02*
X146549333Y-103701904D01*
X146716000Y-103701904D01*
X146816000Y-103740000D01*
X146882666Y-103816190D01*
X146916000Y-103892380D01*
X146949333Y-104044761D01*
X146949333Y-104159047D01*
X146916000Y-104311428D01*
X146882666Y-104387619D01*
X146816000Y-104463809D01*
X146716000Y-104501904D01*
X146549333Y-104501904D01*
X147549333Y-103701904D02*
X147416000Y-103701904D01*
X147349333Y-103740000D01*
X147316000Y-103778095D01*
X147249333Y-103892380D01*
X147216000Y-104044761D01*
X147216000Y-104349523D01*
X147249333Y-104425714D01*
X147282666Y-104463809D01*
X147349333Y-104501904D01*
X147482666Y-104501904D01*
X147549333Y-104463809D01*
X147582666Y-104425714D01*
X147616000Y-104349523D01*
X147616000Y-104159047D01*
X147582666Y-104082857D01*
X147549333Y-104044761D01*
X147482666Y-104006666D01*
X147349333Y-104006666D01*
X147282666Y-104044761D01*
X147249333Y-104082857D01*
X147216000Y-104159047D01*
X143963333Y-104082857D02*
X144196666Y-104082857D01*
X144296666Y-104501904D02*
X143963333Y-104501904D01*
X143963333Y-103701904D01*
X144296666Y-103701904D01*
X144963333Y-104501904D02*
X144563333Y-104501904D01*
X144763333Y-104501904D02*
X144763333Y-103701904D01*
X144696666Y-103816190D01*
X144630000Y-103892380D01*
X144563333Y-103930476D01*
X145596666Y-103701904D02*
X145263333Y-103701904D01*
X145230000Y-104082857D01*
X145263333Y-104044761D01*
X145330000Y-104006666D01*
X145496666Y-104006666D01*
X145563333Y-104044761D01*
X145596666Y-104082857D01*
X145630000Y-104159047D01*
X145630000Y-104349523D01*
X145596666Y-104425714D01*
X145563333Y-104463809D01*
X145496666Y-104501904D01*
X145330000Y-104501904D01*
X145263333Y-104463809D01*
X145230000Y-104425714D01*
X141169333Y-104082857D02*
X141402666Y-104082857D01*
X141502666Y-104501904D02*
X141169333Y-104501904D01*
X141169333Y-103701904D01*
X141502666Y-103701904D01*
X142169333Y-104501904D02*
X141769333Y-104501904D01*
X141969333Y-104501904D02*
X141969333Y-103701904D01*
X141902666Y-103816190D01*
X141836000Y-103892380D01*
X141769333Y-103930476D01*
X142436000Y-103778095D02*
X142469333Y-103740000D01*
X142536000Y-103701904D01*
X142702666Y-103701904D01*
X142769333Y-103740000D01*
X142802666Y-103778095D01*
X142836000Y-103854285D01*
X142836000Y-103930476D01*
X142802666Y-104044761D01*
X142402666Y-104501904D01*
X142836000Y-104501904D01*
X138883333Y-104082857D02*
X139116666Y-104082857D01*
X139216666Y-104501904D02*
X138883333Y-104501904D01*
X138883333Y-103701904D01*
X139216666Y-103701904D01*
X139883333Y-104501904D02*
X139483333Y-104501904D01*
X139683333Y-104501904D02*
X139683333Y-103701904D01*
X139616666Y-103816190D01*
X139550000Y-103892380D01*
X139483333Y-103930476D01*
X140483333Y-103968571D02*
X140483333Y-104501904D01*
X140316666Y-103663809D02*
X140150000Y-104235238D01*
X140583333Y-104235238D01*
X146249333Y-101542857D02*
X146482666Y-101542857D01*
X146582666Y-101961904D02*
X146249333Y-101961904D01*
X146249333Y-101161904D01*
X146582666Y-101161904D01*
X147249333Y-101961904D02*
X146849333Y-101961904D01*
X147049333Y-101961904D02*
X147049333Y-101161904D01*
X146982666Y-101276190D01*
X146916000Y-101352380D01*
X146849333Y-101390476D01*
X147916000Y-101961904D02*
X147516000Y-101961904D01*
X147716000Y-101961904D02*
X147716000Y-101161904D01*
X147649333Y-101276190D01*
X147582666Y-101352380D01*
X147516000Y-101390476D01*
X143709333Y-101542857D02*
X143942666Y-101542857D01*
X144042666Y-101961904D02*
X143709333Y-101961904D01*
X143709333Y-101161904D01*
X144042666Y-101161904D01*
X144709333Y-101961904D02*
X144309333Y-101961904D01*
X144509333Y-101961904D02*
X144509333Y-101161904D01*
X144442666Y-101276190D01*
X144376000Y-101352380D01*
X144309333Y-101390476D01*
X144942666Y-101161904D02*
X145376000Y-101161904D01*
X145142666Y-101466666D01*
X145242666Y-101466666D01*
X145309333Y-101504761D01*
X145342666Y-101542857D01*
X145376000Y-101619047D01*
X145376000Y-101809523D01*
X145342666Y-101885714D01*
X145309333Y-101923809D01*
X145242666Y-101961904D01*
X145042666Y-101961904D01*
X144976000Y-101923809D01*
X144942666Y-101885714D01*
X141502666Y-101542857D02*
X141736000Y-101542857D01*
X141836000Y-101961904D02*
X141502666Y-101961904D01*
X141502666Y-101161904D01*
X141836000Y-101161904D01*
X142502666Y-101961904D02*
X142102666Y-101961904D01*
X142302666Y-101961904D02*
X142302666Y-101161904D01*
X142236000Y-101276190D01*
X142169333Y-101352380D01*
X142102666Y-101390476D01*
X139089666Y-101200000D02*
X139023000Y-101161904D01*
X138923000Y-101161904D01*
X138823000Y-101200000D01*
X138756333Y-101276190D01*
X138723000Y-101352380D01*
X138689666Y-101504761D01*
X138689666Y-101619047D01*
X138723000Y-101771428D01*
X138756333Y-101847619D01*
X138823000Y-101923809D01*
X138923000Y-101961904D01*
X138989666Y-101961904D01*
X139089666Y-101923809D01*
X139123000Y-101885714D01*
X139123000Y-101619047D01*
X138989666Y-101619047D01*
X139789666Y-101961904D02*
X139389666Y-101961904D01*
X139589666Y-101961904D02*
X139589666Y-101161904D01*
X139523000Y-101276190D01*
X139456333Y-101352380D01*
X139389666Y-101390476D01*
X140423000Y-101161904D02*
X140089666Y-101161904D01*
X140056333Y-101542857D01*
X140089666Y-101504761D01*
X140156333Y-101466666D01*
X140323000Y-101466666D01*
X140389666Y-101504761D01*
X140423000Y-101542857D01*
X140456333Y-101619047D01*
X140456333Y-101809523D01*
X140423000Y-101885714D01*
X140389666Y-101923809D01*
X140323000Y-101961904D01*
X140156333Y-101961904D01*
X140089666Y-101923809D01*
X140056333Y-101885714D01*
X146582666Y-81222857D02*
X146816000Y-81222857D01*
X146916000Y-81641904D02*
X146582666Y-81641904D01*
X146582666Y-80841904D01*
X146916000Y-80841904D01*
X147516000Y-81108571D02*
X147516000Y-81641904D01*
X147349333Y-80803809D02*
X147182666Y-81375238D01*
X147616000Y-81375238D01*
X144076000Y-81565714D02*
X144042666Y-81603809D01*
X143942666Y-81641904D01*
X143876000Y-81641904D01*
X143776000Y-81603809D01*
X143709333Y-81527619D01*
X143676000Y-81451428D01*
X143642666Y-81299047D01*
X143642666Y-81184761D01*
X143676000Y-81032380D01*
X143709333Y-80956190D01*
X143776000Y-80880000D01*
X143876000Y-80841904D01*
X143942666Y-80841904D01*
X144042666Y-80880000D01*
X144076000Y-80918095D01*
X144742666Y-81641904D02*
X144342666Y-81641904D01*
X144542666Y-81641904D02*
X144542666Y-80841904D01*
X144476000Y-80956190D01*
X144409333Y-81032380D01*
X144342666Y-81070476D01*
X145409333Y-81641904D02*
X145009333Y-81641904D01*
X145209333Y-81641904D02*
X145209333Y-80841904D01*
X145142666Y-80956190D01*
X145076000Y-81032380D01*
X145009333Y-81070476D01*
X146549333Y-84181904D02*
X146549333Y-83381904D01*
X146716000Y-83381904D01*
X146816000Y-83420000D01*
X146882666Y-83496190D01*
X146916000Y-83572380D01*
X146949333Y-83724761D01*
X146949333Y-83839047D01*
X146916000Y-83991428D01*
X146882666Y-84067619D01*
X146816000Y-84143809D01*
X146716000Y-84181904D01*
X146549333Y-84181904D01*
X147216000Y-83458095D02*
X147249333Y-83420000D01*
X147316000Y-83381904D01*
X147482666Y-83381904D01*
X147549333Y-83420000D01*
X147582666Y-83458095D01*
X147616000Y-83534285D01*
X147616000Y-83610476D01*
X147582666Y-83724761D01*
X147182666Y-84181904D01*
X147616000Y-84181904D01*
X144409333Y-84105714D02*
X144376000Y-84143809D01*
X144276000Y-84181904D01*
X144209333Y-84181904D01*
X144109333Y-84143809D01*
X144042666Y-84067619D01*
X144009333Y-83991428D01*
X143976000Y-83839047D01*
X143976000Y-83724761D01*
X144009333Y-83572380D01*
X144042666Y-83496190D01*
X144109333Y-83420000D01*
X144209333Y-83381904D01*
X144276000Y-83381904D01*
X144376000Y-83420000D01*
X144409333Y-83458095D01*
X144742666Y-84181904D02*
X144876000Y-84181904D01*
X144942666Y-84143809D01*
X144976000Y-84105714D01*
X145042666Y-83991428D01*
X145076000Y-83839047D01*
X145076000Y-83534285D01*
X145042666Y-83458095D01*
X145009333Y-83420000D01*
X144942666Y-83381904D01*
X144809333Y-83381904D01*
X144742666Y-83420000D01*
X144709333Y-83458095D01*
X144676000Y-83534285D01*
X144676000Y-83724761D01*
X144709333Y-83800952D01*
X144742666Y-83839047D01*
X144809333Y-83877142D01*
X144942666Y-83877142D01*
X145009333Y-83839047D01*
X145042666Y-83800952D01*
X145076000Y-83724761D01*
X141536000Y-84105714D02*
X141502666Y-84143809D01*
X141402666Y-84181904D01*
X141336000Y-84181904D01*
X141236000Y-84143809D01*
X141169333Y-84067619D01*
X141136000Y-83991428D01*
X141102666Y-83839047D01*
X141102666Y-83724761D01*
X141136000Y-83572380D01*
X141169333Y-83496190D01*
X141236000Y-83420000D01*
X141336000Y-83381904D01*
X141402666Y-83381904D01*
X141502666Y-83420000D01*
X141536000Y-83458095D01*
X142202666Y-84181904D02*
X141802666Y-84181904D01*
X142002666Y-84181904D02*
X142002666Y-83381904D01*
X141936000Y-83496190D01*
X141869333Y-83572380D01*
X141802666Y-83610476D01*
X142636000Y-83381904D02*
X142702666Y-83381904D01*
X142769333Y-83420000D01*
X142802666Y-83458095D01*
X142836000Y-83534285D01*
X142869333Y-83686666D01*
X142869333Y-83877142D01*
X142836000Y-84029523D01*
X142802666Y-84105714D01*
X142769333Y-84143809D01*
X142702666Y-84181904D01*
X142636000Y-84181904D01*
X142569333Y-84143809D01*
X142536000Y-84105714D01*
X142502666Y-84029523D01*
X142469333Y-83877142D01*
X142469333Y-83686666D01*
X142502666Y-83534285D01*
X142536000Y-83458095D01*
X142569333Y-83420000D01*
X142636000Y-83381904D01*
X139583333Y-84105714D02*
X139550000Y-84143809D01*
X139450000Y-84181904D01*
X139383333Y-84181904D01*
X139283333Y-84143809D01*
X139216666Y-84067619D01*
X139183333Y-83991428D01*
X139150000Y-83839047D01*
X139150000Y-83724761D01*
X139183333Y-83572380D01*
X139216666Y-83496190D01*
X139283333Y-83420000D01*
X139383333Y-83381904D01*
X139450000Y-83381904D01*
X139550000Y-83420000D01*
X139583333Y-83458095D01*
X139983333Y-83724761D02*
X139916666Y-83686666D01*
X139883333Y-83648571D01*
X139850000Y-83572380D01*
X139850000Y-83534285D01*
X139883333Y-83458095D01*
X139916666Y-83420000D01*
X139983333Y-83381904D01*
X140116666Y-83381904D01*
X140183333Y-83420000D01*
X140216666Y-83458095D01*
X140250000Y-83534285D01*
X140250000Y-83572380D01*
X140216666Y-83648571D01*
X140183333Y-83686666D01*
X140116666Y-83724761D01*
X139983333Y-83724761D01*
X139916666Y-83762857D01*
X139883333Y-83800952D01*
X139850000Y-83877142D01*
X139850000Y-84029523D01*
X139883333Y-84105714D01*
X139916666Y-84143809D01*
X139983333Y-84181904D01*
X140116666Y-84181904D01*
X140183333Y-84143809D01*
X140216666Y-84105714D01*
X140250000Y-84029523D01*
X140250000Y-83877142D01*
X140216666Y-83800952D01*
X140183333Y-83762857D01*
X140116666Y-83724761D01*
X146782666Y-86302857D02*
X146882666Y-86340952D01*
X146916000Y-86379047D01*
X146949333Y-86455238D01*
X146949333Y-86569523D01*
X146916000Y-86645714D01*
X146882666Y-86683809D01*
X146816000Y-86721904D01*
X146549333Y-86721904D01*
X146549333Y-85921904D01*
X146782666Y-85921904D01*
X146849333Y-85960000D01*
X146882666Y-85998095D01*
X146916000Y-86074285D01*
X146916000Y-86150476D01*
X146882666Y-86226666D01*
X146849333Y-86264761D01*
X146782666Y-86302857D01*
X146549333Y-86302857D01*
X147549333Y-86188571D02*
X147549333Y-86721904D01*
X147382666Y-85883809D02*
X147216000Y-86455238D01*
X147649333Y-86455238D01*
X144409333Y-86645714D02*
X144376000Y-86683809D01*
X144276000Y-86721904D01*
X144209333Y-86721904D01*
X144109333Y-86683809D01*
X144042666Y-86607619D01*
X144009333Y-86531428D01*
X143976000Y-86379047D01*
X143976000Y-86264761D01*
X144009333Y-86112380D01*
X144042666Y-86036190D01*
X144109333Y-85960000D01*
X144209333Y-85921904D01*
X144276000Y-85921904D01*
X144376000Y-85960000D01*
X144409333Y-85998095D01*
X144642666Y-85921904D02*
X145109333Y-85921904D01*
X144809333Y-86721904D01*
X141869333Y-86645714D02*
X141836000Y-86683809D01*
X141736000Y-86721904D01*
X141669333Y-86721904D01*
X141569333Y-86683809D01*
X141502666Y-86607619D01*
X141469333Y-86531428D01*
X141436000Y-86379047D01*
X141436000Y-86264761D01*
X141469333Y-86112380D01*
X141502666Y-86036190D01*
X141569333Y-85960000D01*
X141669333Y-85921904D01*
X141736000Y-85921904D01*
X141836000Y-85960000D01*
X141869333Y-85998095D01*
X142469333Y-85921904D02*
X142336000Y-85921904D01*
X142269333Y-85960000D01*
X142236000Y-85998095D01*
X142169333Y-86112380D01*
X142136000Y-86264761D01*
X142136000Y-86569523D01*
X142169333Y-86645714D01*
X142202666Y-86683809D01*
X142269333Y-86721904D01*
X142402666Y-86721904D01*
X142469333Y-86683809D01*
X142502666Y-86645714D01*
X142536000Y-86569523D01*
X142536000Y-86379047D01*
X142502666Y-86302857D01*
X142469333Y-86264761D01*
X142402666Y-86226666D01*
X142269333Y-86226666D01*
X142202666Y-86264761D01*
X142169333Y-86302857D01*
X142136000Y-86379047D01*
X139250000Y-86645714D02*
X139216666Y-86683809D01*
X139116666Y-86721904D01*
X139050000Y-86721904D01*
X138950000Y-86683809D01*
X138883333Y-86607619D01*
X138850000Y-86531428D01*
X138816666Y-86379047D01*
X138816666Y-86264761D01*
X138850000Y-86112380D01*
X138883333Y-86036190D01*
X138950000Y-85960000D01*
X139050000Y-85921904D01*
X139116666Y-85921904D01*
X139216666Y-85960000D01*
X139250000Y-85998095D01*
X139916666Y-86721904D02*
X139516666Y-86721904D01*
X139716666Y-86721904D02*
X139716666Y-85921904D01*
X139650000Y-86036190D01*
X139583333Y-86112380D01*
X139516666Y-86150476D01*
X140183333Y-85998095D02*
X140216666Y-85960000D01*
X140283333Y-85921904D01*
X140450000Y-85921904D01*
X140516666Y-85960000D01*
X140550000Y-85998095D01*
X140583333Y-86074285D01*
X140583333Y-86150476D01*
X140550000Y-86264761D01*
X140150000Y-86721904D01*
X140583333Y-86721904D01*
X146566000Y-89033333D02*
X146899333Y-89033333D01*
X146499333Y-89261904D02*
X146732666Y-88461904D01*
X146966000Y-89261904D01*
X147299333Y-88804761D02*
X147232666Y-88766666D01*
X147199333Y-88728571D01*
X147166000Y-88652380D01*
X147166000Y-88614285D01*
X147199333Y-88538095D01*
X147232666Y-88500000D01*
X147299333Y-88461904D01*
X147432666Y-88461904D01*
X147499333Y-88500000D01*
X147532666Y-88538095D01*
X147566000Y-88614285D01*
X147566000Y-88652380D01*
X147532666Y-88728571D01*
X147499333Y-88766666D01*
X147432666Y-88804761D01*
X147299333Y-88804761D01*
X147232666Y-88842857D01*
X147199333Y-88880952D01*
X147166000Y-88957142D01*
X147166000Y-89109523D01*
X147199333Y-89185714D01*
X147232666Y-89223809D01*
X147299333Y-89261904D01*
X147432666Y-89261904D01*
X147499333Y-89223809D01*
X147532666Y-89185714D01*
X147566000Y-89109523D01*
X147566000Y-88957142D01*
X147532666Y-88880952D01*
X147499333Y-88842857D01*
X147432666Y-88804761D01*
X143909333Y-88842857D02*
X144009333Y-88880952D01*
X144042666Y-88919047D01*
X144076000Y-88995238D01*
X144076000Y-89109523D01*
X144042666Y-89185714D01*
X144009333Y-89223809D01*
X143942666Y-89261904D01*
X143676000Y-89261904D01*
X143676000Y-88461904D01*
X143909333Y-88461904D01*
X143976000Y-88500000D01*
X144009333Y-88538095D01*
X144042666Y-88614285D01*
X144042666Y-88690476D01*
X144009333Y-88766666D01*
X143976000Y-88804761D01*
X143909333Y-88842857D01*
X143676000Y-88842857D01*
X144742666Y-89261904D02*
X144342666Y-89261904D01*
X144542666Y-89261904D02*
X144542666Y-88461904D01*
X144476000Y-88576190D01*
X144409333Y-88652380D01*
X144342666Y-88690476D01*
X145376000Y-88461904D02*
X145042666Y-88461904D01*
X145009333Y-88842857D01*
X145042666Y-88804761D01*
X145109333Y-88766666D01*
X145276000Y-88766666D01*
X145342666Y-88804761D01*
X145376000Y-88842857D01*
X145409333Y-88919047D01*
X145409333Y-89109523D01*
X145376000Y-89185714D01*
X145342666Y-89223809D01*
X145276000Y-89261904D01*
X145109333Y-89261904D01*
X145042666Y-89223809D01*
X145009333Y-89185714D01*
X141702666Y-88842857D02*
X141802666Y-88880952D01*
X141836000Y-88919047D01*
X141869333Y-88995238D01*
X141869333Y-89109523D01*
X141836000Y-89185714D01*
X141802666Y-89223809D01*
X141736000Y-89261904D01*
X141469333Y-89261904D01*
X141469333Y-88461904D01*
X141702666Y-88461904D01*
X141769333Y-88500000D01*
X141802666Y-88538095D01*
X141836000Y-88614285D01*
X141836000Y-88690476D01*
X141802666Y-88766666D01*
X141769333Y-88804761D01*
X141702666Y-88842857D01*
X141469333Y-88842857D01*
X142202666Y-89261904D02*
X142336000Y-89261904D01*
X142402666Y-89223809D01*
X142436000Y-89185714D01*
X142502666Y-89071428D01*
X142536000Y-88919047D01*
X142536000Y-88614285D01*
X142502666Y-88538095D01*
X142469333Y-88500000D01*
X142402666Y-88461904D01*
X142269333Y-88461904D01*
X142202666Y-88500000D01*
X142169333Y-88538095D01*
X142136000Y-88614285D01*
X142136000Y-88804761D01*
X142169333Y-88880952D01*
X142202666Y-88919047D01*
X142269333Y-88957142D01*
X142402666Y-88957142D01*
X142469333Y-88919047D01*
X142502666Y-88880952D01*
X142536000Y-88804761D01*
X139083333Y-88842857D02*
X139183333Y-88880952D01*
X139216666Y-88919047D01*
X139250000Y-88995238D01*
X139250000Y-89109523D01*
X139216666Y-89185714D01*
X139183333Y-89223809D01*
X139116666Y-89261904D01*
X138850000Y-89261904D01*
X138850000Y-88461904D01*
X139083333Y-88461904D01*
X139150000Y-88500000D01*
X139183333Y-88538095D01*
X139216666Y-88614285D01*
X139216666Y-88690476D01*
X139183333Y-88766666D01*
X139150000Y-88804761D01*
X139083333Y-88842857D01*
X138850000Y-88842857D01*
X139916666Y-89261904D02*
X139516666Y-89261904D01*
X139716666Y-89261904D02*
X139716666Y-88461904D01*
X139650000Y-88576190D01*
X139583333Y-88652380D01*
X139516666Y-88690476D01*
X140516666Y-88728571D02*
X140516666Y-89261904D01*
X140350000Y-88423809D02*
X140183333Y-88995238D01*
X140616666Y-88995238D01*
X142324166Y-108781904D02*
X142790833Y-109581904D01*
X142790833Y-108781904D02*
X142324166Y-109581904D01*
X144042666Y-91382857D02*
X144276000Y-91382857D01*
X144376000Y-91801904D02*
X144042666Y-91801904D01*
X144042666Y-91001904D01*
X144376000Y-91001904D01*
X145009333Y-91001904D02*
X144676000Y-91001904D01*
X144642666Y-91382857D01*
X144676000Y-91344761D01*
X144742666Y-91306666D01*
X144909333Y-91306666D01*
X144976000Y-91344761D01*
X145009333Y-91382857D01*
X145042666Y-91459047D01*
X145042666Y-91649523D01*
X145009333Y-91725714D01*
X144976000Y-91763809D01*
X144909333Y-91801904D01*
X144742666Y-91801904D01*
X144676000Y-91763809D01*
X144642666Y-91725714D01*
X141702666Y-91382857D02*
X141802666Y-91420952D01*
X141836000Y-91459047D01*
X141869333Y-91535238D01*
X141869333Y-91649523D01*
X141836000Y-91725714D01*
X141802666Y-91763809D01*
X141736000Y-91801904D01*
X141469333Y-91801904D01*
X141469333Y-91001904D01*
X141702666Y-91001904D01*
X141769333Y-91040000D01*
X141802666Y-91078095D01*
X141836000Y-91154285D01*
X141836000Y-91230476D01*
X141802666Y-91306666D01*
X141769333Y-91344761D01*
X141702666Y-91382857D01*
X141469333Y-91382857D01*
X142102666Y-91001904D02*
X142536000Y-91001904D01*
X142302666Y-91306666D01*
X142402666Y-91306666D01*
X142469333Y-91344761D01*
X142502666Y-91382857D01*
X142536000Y-91459047D01*
X142536000Y-91649523D01*
X142502666Y-91725714D01*
X142469333Y-91763809D01*
X142402666Y-91801904D01*
X142202666Y-91801904D01*
X142136000Y-91763809D01*
X142102666Y-91725714D01*
X139200000Y-91573333D02*
X139533333Y-91573333D01*
X139133333Y-91801904D02*
X139366666Y-91001904D01*
X139600000Y-91801904D01*
X139866666Y-91801904D02*
X140000000Y-91801904D01*
X140066666Y-91763809D01*
X140100000Y-91725714D01*
X140166666Y-91611428D01*
X140200000Y-91459047D01*
X140200000Y-91154285D01*
X140166666Y-91078095D01*
X140133333Y-91040000D01*
X140066666Y-91001904D01*
X139933333Y-91001904D01*
X139866666Y-91040000D01*
X139833333Y-91078095D01*
X139800000Y-91154285D01*
X139800000Y-91344761D01*
X139833333Y-91420952D01*
X139866666Y-91459047D01*
X139933333Y-91497142D01*
X140066666Y-91497142D01*
X140133333Y-91459047D01*
X140166666Y-91420952D01*
X140200000Y-91344761D01*
X146549333Y-94341904D02*
X146549333Y-93541904D01*
X146716000Y-93541904D01*
X146816000Y-93580000D01*
X146882666Y-93656190D01*
X146916000Y-93732380D01*
X146949333Y-93884761D01*
X146949333Y-93999047D01*
X146916000Y-94151428D01*
X146882666Y-94227619D01*
X146816000Y-94303809D01*
X146716000Y-94341904D01*
X146549333Y-94341904D01*
X147549333Y-93808571D02*
X147549333Y-94341904D01*
X147382666Y-93503809D02*
X147216000Y-94075238D01*
X147649333Y-94075238D01*
X144009333Y-94341904D02*
X144009333Y-93541904D01*
X144176000Y-93541904D01*
X144276000Y-93580000D01*
X144342666Y-93656190D01*
X144376000Y-93732380D01*
X144409333Y-93884761D01*
X144409333Y-93999047D01*
X144376000Y-94151428D01*
X144342666Y-94227619D01*
X144276000Y-94303809D01*
X144176000Y-94341904D01*
X144009333Y-94341904D01*
X144642666Y-93541904D02*
X145076000Y-93541904D01*
X144842666Y-93846666D01*
X144942666Y-93846666D01*
X145009333Y-93884761D01*
X145042666Y-93922857D01*
X145076000Y-93999047D01*
X145076000Y-94189523D01*
X145042666Y-94265714D01*
X145009333Y-94303809D01*
X144942666Y-94341904D01*
X144742666Y-94341904D01*
X144676000Y-94303809D01*
X144642666Y-94265714D01*
X141836000Y-93580000D02*
X141769333Y-93541904D01*
X141669333Y-93541904D01*
X141569333Y-93580000D01*
X141502666Y-93656190D01*
X141469333Y-93732380D01*
X141436000Y-93884761D01*
X141436000Y-93999047D01*
X141469333Y-94151428D01*
X141502666Y-94227619D01*
X141569333Y-94303809D01*
X141669333Y-94341904D01*
X141736000Y-94341904D01*
X141836000Y-94303809D01*
X141869333Y-94265714D01*
X141869333Y-93999047D01*
X141736000Y-93999047D01*
X142469333Y-93541904D02*
X142336000Y-93541904D01*
X142269333Y-93580000D01*
X142236000Y-93618095D01*
X142169333Y-93732380D01*
X142136000Y-93884761D01*
X142136000Y-94189523D01*
X142169333Y-94265714D01*
X142202666Y-94303809D01*
X142269333Y-94341904D01*
X142402666Y-94341904D01*
X142469333Y-94303809D01*
X142502666Y-94265714D01*
X142536000Y-94189523D01*
X142536000Y-93999047D01*
X142502666Y-93922857D01*
X142469333Y-93884761D01*
X142402666Y-93846666D01*
X142269333Y-93846666D01*
X142202666Y-93884761D01*
X142169333Y-93922857D01*
X142136000Y-93999047D01*
X139183333Y-94341904D02*
X139183333Y-93541904D01*
X139350000Y-93541904D01*
X139450000Y-93580000D01*
X139516666Y-93656190D01*
X139550000Y-93732380D01*
X139583333Y-93884761D01*
X139583333Y-93999047D01*
X139550000Y-94151428D01*
X139516666Y-94227619D01*
X139450000Y-94303809D01*
X139350000Y-94341904D01*
X139183333Y-94341904D01*
X140216666Y-93541904D02*
X139883333Y-93541904D01*
X139850000Y-93922857D01*
X139883333Y-93884761D01*
X139950000Y-93846666D01*
X140116666Y-93846666D01*
X140183333Y-93884761D01*
X140216666Y-93922857D01*
X140250000Y-93999047D01*
X140250000Y-94189523D01*
X140216666Y-94265714D01*
X140183333Y-94303809D01*
X140116666Y-94341904D01*
X139950000Y-94341904D01*
X139883333Y-94303809D01*
X139850000Y-94265714D01*
X146549333Y-96881904D02*
X146549333Y-96081904D01*
X146716000Y-96081904D01*
X146816000Y-96120000D01*
X146882666Y-96196190D01*
X146916000Y-96272380D01*
X146949333Y-96424761D01*
X146949333Y-96539047D01*
X146916000Y-96691428D01*
X146882666Y-96767619D01*
X146816000Y-96843809D01*
X146716000Y-96881904D01*
X146549333Y-96881904D01*
X147616000Y-96881904D02*
X147216000Y-96881904D01*
X147416000Y-96881904D02*
X147416000Y-96081904D01*
X147349333Y-96196190D01*
X147282666Y-96272380D01*
X147216000Y-96310476D01*
X143676000Y-96881904D02*
X143676000Y-96081904D01*
X143842666Y-96081904D01*
X143942666Y-96120000D01*
X144009333Y-96196190D01*
X144042666Y-96272380D01*
X144076000Y-96424761D01*
X144076000Y-96539047D01*
X144042666Y-96691428D01*
X144009333Y-96767619D01*
X143942666Y-96843809D01*
X143842666Y-96881904D01*
X143676000Y-96881904D01*
X144742666Y-96881904D02*
X144342666Y-96881904D01*
X144542666Y-96881904D02*
X144542666Y-96081904D01*
X144476000Y-96196190D01*
X144409333Y-96272380D01*
X144342666Y-96310476D01*
X145176000Y-96081904D02*
X145242666Y-96081904D01*
X145309333Y-96120000D01*
X145342666Y-96158095D01*
X145376000Y-96234285D01*
X145409333Y-96386666D01*
X145409333Y-96577142D01*
X145376000Y-96729523D01*
X145342666Y-96805714D01*
X145309333Y-96843809D01*
X145242666Y-96881904D01*
X145176000Y-96881904D01*
X145109333Y-96843809D01*
X145076000Y-96805714D01*
X145042666Y-96729523D01*
X145009333Y-96577142D01*
X145009333Y-96386666D01*
X145042666Y-96234285D01*
X145076000Y-96158095D01*
X145109333Y-96120000D01*
X145176000Y-96081904D01*
X141702666Y-96462857D02*
X141802666Y-96500952D01*
X141836000Y-96539047D01*
X141869333Y-96615238D01*
X141869333Y-96729523D01*
X141836000Y-96805714D01*
X141802666Y-96843809D01*
X141736000Y-96881904D01*
X141469333Y-96881904D01*
X141469333Y-96081904D01*
X141702666Y-96081904D01*
X141769333Y-96120000D01*
X141802666Y-96158095D01*
X141836000Y-96234285D01*
X141836000Y-96310476D01*
X141802666Y-96386666D01*
X141769333Y-96424761D01*
X141702666Y-96462857D01*
X141469333Y-96462857D01*
X142102666Y-96081904D02*
X142569333Y-96081904D01*
X142269333Y-96881904D01*
X139216666Y-96462857D02*
X139450000Y-96462857D01*
X139550000Y-96881904D02*
X139216666Y-96881904D01*
X139216666Y-96081904D01*
X139550000Y-96081904D01*
X139783333Y-96081904D02*
X140216666Y-96081904D01*
X139983333Y-96386666D01*
X140083333Y-96386666D01*
X140150000Y-96424761D01*
X140183333Y-96462857D01*
X140216666Y-96539047D01*
X140216666Y-96729523D01*
X140183333Y-96805714D01*
X140150000Y-96843809D01*
X140083333Y-96881904D01*
X139883333Y-96881904D01*
X139816666Y-96843809D01*
X139783333Y-96805714D01*
X146582666Y-99002857D02*
X146816000Y-99002857D01*
X146916000Y-99421904D02*
X146582666Y-99421904D01*
X146582666Y-98621904D01*
X146916000Y-98621904D01*
X147516000Y-98621904D02*
X147382666Y-98621904D01*
X147316000Y-98660000D01*
X147282666Y-98698095D01*
X147216000Y-98812380D01*
X147182666Y-98964761D01*
X147182666Y-99269523D01*
X147216000Y-99345714D01*
X147249333Y-99383809D01*
X147316000Y-99421904D01*
X147449333Y-99421904D01*
X147516000Y-99383809D01*
X147549333Y-99345714D01*
X147582666Y-99269523D01*
X147582666Y-99079047D01*
X147549333Y-99002857D01*
X147516000Y-98964761D01*
X147449333Y-98926666D01*
X147316000Y-98926666D01*
X147249333Y-98964761D01*
X147216000Y-99002857D01*
X147182666Y-99079047D01*
X144009333Y-99421904D02*
X144009333Y-98621904D01*
X144176000Y-98621904D01*
X144276000Y-98660000D01*
X144342666Y-98736190D01*
X144376000Y-98812380D01*
X144409333Y-98964761D01*
X144409333Y-99079047D01*
X144376000Y-99231428D01*
X144342666Y-99307619D01*
X144276000Y-99383809D01*
X144176000Y-99421904D01*
X144009333Y-99421904D01*
X144842666Y-98621904D02*
X144909333Y-98621904D01*
X144976000Y-98660000D01*
X145009333Y-98698095D01*
X145042666Y-98774285D01*
X145076000Y-98926666D01*
X145076000Y-99117142D01*
X145042666Y-99269523D01*
X145009333Y-99345714D01*
X144976000Y-99383809D01*
X144909333Y-99421904D01*
X144842666Y-99421904D01*
X144776000Y-99383809D01*
X144742666Y-99345714D01*
X144709333Y-99269523D01*
X144676000Y-99117142D01*
X144676000Y-98926666D01*
X144709333Y-98774285D01*
X144742666Y-98698095D01*
X144776000Y-98660000D01*
X144842666Y-98621904D01*
X141502666Y-99002857D02*
X141736000Y-99002857D01*
X141836000Y-99421904D02*
X141502666Y-99421904D01*
X141502666Y-98621904D01*
X141836000Y-98621904D01*
X142269333Y-98621904D02*
X142336000Y-98621904D01*
X142402666Y-98660000D01*
X142436000Y-98698095D01*
X142469333Y-98774285D01*
X142502666Y-98926666D01*
X142502666Y-99117142D01*
X142469333Y-99269523D01*
X142436000Y-99345714D01*
X142402666Y-99383809D01*
X142336000Y-99421904D01*
X142269333Y-99421904D01*
X142202666Y-99383809D01*
X142169333Y-99345714D01*
X142136000Y-99269523D01*
X142102666Y-99117142D01*
X142102666Y-98926666D01*
X142136000Y-98774285D01*
X142169333Y-98698095D01*
X142202666Y-98660000D01*
X142269333Y-98621904D01*
X139183333Y-99421904D02*
X139183333Y-98621904D01*
X139350000Y-98621904D01*
X139450000Y-98660000D01*
X139516666Y-98736190D01*
X139550000Y-98812380D01*
X139583333Y-98964761D01*
X139583333Y-99079047D01*
X139550000Y-99231428D01*
X139516666Y-99307619D01*
X139450000Y-99383809D01*
X139350000Y-99421904D01*
X139183333Y-99421904D01*
X139816666Y-98621904D02*
X140283333Y-98621904D01*
X139983333Y-99421904D01*
X146362000Y-109505714D02*
X146328666Y-109543809D01*
X146228666Y-109581904D01*
X146162000Y-109581904D01*
X146062000Y-109543809D01*
X145995333Y-109467619D01*
X145962000Y-109391428D01*
X145928666Y-109239047D01*
X145928666Y-109124761D01*
X145962000Y-108972380D01*
X145995333Y-108896190D01*
X146062000Y-108820000D01*
X146162000Y-108781904D01*
X146228666Y-108781904D01*
X146328666Y-108820000D01*
X146362000Y-108858095D01*
X147028666Y-109581904D02*
X146628666Y-109581904D01*
X146828666Y-109581904D02*
X146828666Y-108781904D01*
X146762000Y-108896190D01*
X146695333Y-108972380D01*
X146628666Y-109010476D01*
X147262000Y-108781904D02*
X147695333Y-108781904D01*
X147462000Y-109086666D01*
X147562000Y-109086666D01*
X147628666Y-109124761D01*
X147662000Y-109162857D01*
X147695333Y-109239047D01*
X147695333Y-109429523D01*
X147662000Y-109505714D01*
X147628666Y-109543809D01*
X147562000Y-109581904D01*
X147362000Y-109581904D01*
X147295333Y-109543809D01*
X147262000Y-109505714D01*
X146359666Y-91573333D02*
X146693000Y-91573333D01*
X146293000Y-91801904D02*
X146526333Y-91001904D01*
X146759666Y-91801904D01*
X147359666Y-91801904D02*
X146959666Y-91801904D01*
X147159666Y-91801904D02*
X147159666Y-91001904D01*
X147093000Y-91116190D01*
X147026333Y-91192380D01*
X146959666Y-91230476D01*
X147993000Y-91001904D02*
X147659666Y-91001904D01*
X147626333Y-91382857D01*
X147659666Y-91344761D01*
X147726333Y-91306666D01*
X147893000Y-91306666D01*
X147959666Y-91344761D01*
X147993000Y-91382857D01*
X148026333Y-91459047D01*
X148026333Y-91649523D01*
X147993000Y-91725714D01*
X147959666Y-91763809D01*
X147893000Y-91801904D01*
X147726333Y-91801904D01*
X147659666Y-91763809D01*
X147626333Y-91725714D01*
X139691333Y-109581904D02*
X139691333Y-108781904D01*
X139858000Y-108781904D01*
X139958000Y-108820000D01*
X140024666Y-108896190D01*
X140058000Y-108972380D01*
X140091333Y-109124761D01*
X140091333Y-109239047D01*
X140058000Y-109391428D01*
X140024666Y-109467619D01*
X139958000Y-109543809D01*
X139858000Y-109581904D01*
X139691333Y-109581904D01*
X140424666Y-109581904D02*
X140558000Y-109581904D01*
X140624666Y-109543809D01*
X140658000Y-109505714D01*
X140724666Y-109391428D01*
X140758000Y-109239047D01*
X140758000Y-108934285D01*
X140724666Y-108858095D01*
X140691333Y-108820000D01*
X140624666Y-108781904D01*
X140491333Y-108781904D01*
X140424666Y-108820000D01*
X140391333Y-108858095D01*
X140358000Y-108934285D01*
X140358000Y-109124761D01*
X140391333Y-109200952D01*
X140424666Y-109239047D01*
X140491333Y-109277142D01*
X140624666Y-109277142D01*
X140691333Y-109239047D01*
X140724666Y-109200952D01*
X140758000Y-109124761D01*
X146052500Y-111194857D02*
X146152500Y-111232952D01*
X146185833Y-111271047D01*
X146219166Y-111347238D01*
X146219166Y-111461523D01*
X146185833Y-111537714D01*
X146152500Y-111575809D01*
X146085833Y-111613904D01*
X145819166Y-111613904D01*
X145819166Y-110813904D01*
X146052500Y-110813904D01*
X146119166Y-110852000D01*
X146152500Y-110890095D01*
X146185833Y-110966285D01*
X146185833Y-111042476D01*
X146152500Y-111118666D01*
X146119166Y-111156761D01*
X146052500Y-111194857D01*
X145819166Y-111194857D01*
X146652500Y-110813904D02*
X146785833Y-110813904D01*
X146852500Y-110852000D01*
X146919166Y-110928190D01*
X146952500Y-111080571D01*
X146952500Y-111347238D01*
X146919166Y-111499619D01*
X146852500Y-111575809D01*
X146785833Y-111613904D01*
X146652500Y-111613904D01*
X146585833Y-111575809D01*
X146519166Y-111499619D01*
X146485833Y-111347238D01*
X146485833Y-111080571D01*
X146519166Y-110928190D01*
X146585833Y-110852000D01*
X146652500Y-110813904D01*
X147385833Y-110813904D02*
X147519166Y-110813904D01*
X147585833Y-110852000D01*
X147652500Y-110928190D01*
X147685833Y-111080571D01*
X147685833Y-111347238D01*
X147652500Y-111499619D01*
X147585833Y-111575809D01*
X147519166Y-111613904D01*
X147385833Y-111613904D01*
X147319166Y-111575809D01*
X147252500Y-111499619D01*
X147219166Y-111347238D01*
X147219166Y-111080571D01*
X147252500Y-110928190D01*
X147319166Y-110852000D01*
X147385833Y-110813904D01*
X147885833Y-110813904D02*
X148285833Y-110813904D01*
X148085833Y-111613904D02*
X148085833Y-110813904D01*
X144056166Y-111613904D02*
X144056166Y-110813904D01*
X144056166Y-111194857D02*
X144456166Y-111194857D01*
X144456166Y-111613904D02*
X144456166Y-110813904D01*
X145156166Y-111613904D02*
X144756166Y-111613904D01*
X144956166Y-111613904D02*
X144956166Y-110813904D01*
X144889500Y-110928190D01*
X144822833Y-111004380D01*
X144756166Y-111042476D01*
X141643166Y-111613904D02*
X141643166Y-110813904D01*
X141643166Y-111194857D02*
X142043166Y-111194857D01*
X142043166Y-111613904D02*
X142043166Y-110813904D01*
X142509833Y-110813904D02*
X142576500Y-110813904D01*
X142643166Y-110852000D01*
X142676500Y-110890095D01*
X142709833Y-110966285D01*
X142743166Y-111118666D01*
X142743166Y-111309142D01*
X142709833Y-111461523D01*
X142676500Y-111537714D01*
X142643166Y-111575809D01*
X142576500Y-111613904D01*
X142509833Y-111613904D01*
X142443166Y-111575809D01*
X142409833Y-111537714D01*
X142376500Y-111461523D01*
X142343166Y-111309142D01*
X142343166Y-111118666D01*
X142376500Y-110966285D01*
X142409833Y-110890095D01*
X142443166Y-110852000D01*
X142509833Y-110813904D01*
X139517500Y-111385333D02*
X139850833Y-111385333D01*
X139450833Y-111613904D02*
X139684166Y-110813904D01*
X139917500Y-111613904D01*
X140084166Y-110813904D02*
X140517500Y-110813904D01*
X140284166Y-111118666D01*
X140384166Y-111118666D01*
X140450833Y-111156761D01*
X140484166Y-111194857D01*
X140517500Y-111271047D01*
X140517500Y-111461523D01*
X140484166Y-111537714D01*
X140450833Y-111575809D01*
X140384166Y-111613904D01*
X140184166Y-111613904D01*
X140117500Y-111575809D01*
X140084166Y-111537714D01*
X146566000Y-114433333D02*
X146899333Y-114433333D01*
X146499333Y-114661904D02*
X146732666Y-113861904D01*
X146966000Y-114661904D01*
X147499333Y-114128571D02*
X147499333Y-114661904D01*
X147332666Y-113823809D02*
X147166000Y-114395238D01*
X147599333Y-114395238D01*
X144026000Y-114433333D02*
X144359333Y-114433333D01*
X143959333Y-114661904D02*
X144192666Y-113861904D01*
X144426000Y-114661904D01*
X144792666Y-113861904D02*
X144859333Y-113861904D01*
X144926000Y-113900000D01*
X144959333Y-113938095D01*
X144992666Y-114014285D01*
X145026000Y-114166666D01*
X145026000Y-114357142D01*
X144992666Y-114509523D01*
X144959333Y-114585714D01*
X144926000Y-114623809D01*
X144859333Y-114661904D01*
X144792666Y-114661904D01*
X144726000Y-114623809D01*
X144692666Y-114585714D01*
X144659333Y-114509523D01*
X144626000Y-114357142D01*
X144626000Y-114166666D01*
X144659333Y-114014285D01*
X144692666Y-113938095D01*
X144726000Y-113900000D01*
X144792666Y-113861904D01*
X141152666Y-114433333D02*
X141486000Y-114433333D01*
X141086000Y-114661904D02*
X141319333Y-113861904D01*
X141552666Y-114661904D01*
X142152666Y-114661904D02*
X141752666Y-114661904D01*
X141952666Y-114661904D02*
X141952666Y-113861904D01*
X141886000Y-113976190D01*
X141819333Y-114052380D01*
X141752666Y-114090476D01*
X142752666Y-114128571D02*
X142752666Y-114661904D01*
X142586000Y-113823809D02*
X142419333Y-114395238D01*
X142852666Y-114395238D01*
X139200000Y-114433333D02*
X139533333Y-114433333D01*
X139133333Y-114661904D02*
X139366666Y-113861904D01*
X139600000Y-114661904D01*
X140166666Y-113861904D02*
X139833333Y-113861904D01*
X139800000Y-114242857D01*
X139833333Y-114204761D01*
X139900000Y-114166666D01*
X140066666Y-114166666D01*
X140133333Y-114204761D01*
X140166666Y-114242857D01*
X140200000Y-114319047D01*
X140200000Y-114509523D01*
X140166666Y-114585714D01*
X140133333Y-114623809D01*
X140066666Y-114661904D01*
X139900000Y-114661904D01*
X139833333Y-114623809D01*
X139800000Y-114585714D01*
X146582666Y-116440000D02*
X146516000Y-116401904D01*
X146416000Y-116401904D01*
X146316000Y-116440000D01*
X146249333Y-116516190D01*
X146216000Y-116592380D01*
X146182666Y-116744761D01*
X146182666Y-116859047D01*
X146216000Y-117011428D01*
X146249333Y-117087619D01*
X146316000Y-117163809D01*
X146416000Y-117201904D01*
X146482666Y-117201904D01*
X146582666Y-117163809D01*
X146616000Y-117125714D01*
X146616000Y-116859047D01*
X146482666Y-116859047D01*
X147282666Y-117201904D02*
X146882666Y-117201904D01*
X147082666Y-117201904D02*
X147082666Y-116401904D01*
X147016000Y-116516190D01*
X146949333Y-116592380D01*
X146882666Y-116630476D01*
X147882666Y-116668571D02*
X147882666Y-117201904D01*
X147716000Y-116363809D02*
X147549333Y-116935238D01*
X147982666Y-116935238D01*
X144409333Y-117125714D02*
X144376000Y-117163809D01*
X144276000Y-117201904D01*
X144209333Y-117201904D01*
X144109333Y-117163809D01*
X144042666Y-117087619D01*
X144009333Y-117011428D01*
X143976000Y-116859047D01*
X143976000Y-116744761D01*
X144009333Y-116592380D01*
X144042666Y-116516190D01*
X144109333Y-116440000D01*
X144209333Y-116401904D01*
X144276000Y-116401904D01*
X144376000Y-116440000D01*
X144409333Y-116478095D01*
X144642666Y-116401904D02*
X145076000Y-116401904D01*
X144842666Y-116706666D01*
X144942666Y-116706666D01*
X145009333Y-116744761D01*
X145042666Y-116782857D01*
X145076000Y-116859047D01*
X145076000Y-117049523D01*
X145042666Y-117125714D01*
X145009333Y-117163809D01*
X144942666Y-117201904D01*
X144742666Y-117201904D01*
X144676000Y-117163809D01*
X144642666Y-117125714D01*
X141869333Y-117125714D02*
X141836000Y-117163809D01*
X141736000Y-117201904D01*
X141669333Y-117201904D01*
X141569333Y-117163809D01*
X141502666Y-117087619D01*
X141469333Y-117011428D01*
X141436000Y-116859047D01*
X141436000Y-116744761D01*
X141469333Y-116592380D01*
X141502666Y-116516190D01*
X141569333Y-116440000D01*
X141669333Y-116401904D01*
X141736000Y-116401904D01*
X141836000Y-116440000D01*
X141869333Y-116478095D01*
X142136000Y-116478095D02*
X142169333Y-116440000D01*
X142236000Y-116401904D01*
X142402666Y-116401904D01*
X142469333Y-116440000D01*
X142502666Y-116478095D01*
X142536000Y-116554285D01*
X142536000Y-116630476D01*
X142502666Y-116744761D01*
X142102666Y-117201904D01*
X142536000Y-117201904D01*
X139216666Y-116782857D02*
X139450000Y-116782857D01*
X139550000Y-117201904D02*
X139216666Y-117201904D01*
X139216666Y-116401904D01*
X139550000Y-116401904D01*
X139816666Y-116478095D02*
X139850000Y-116440000D01*
X139916666Y-116401904D01*
X140083333Y-116401904D01*
X140150000Y-116440000D01*
X140183333Y-116478095D01*
X140216666Y-116554285D01*
X140216666Y-116630476D01*
X140183333Y-116744761D01*
X139783333Y-117201904D01*
X140216666Y-117201904D01*
X146566000Y-119513333D02*
X146899333Y-119513333D01*
X146499333Y-119741904D02*
X146732666Y-118941904D01*
X146966000Y-119741904D01*
X147166000Y-119018095D02*
X147199333Y-118980000D01*
X147266000Y-118941904D01*
X147432666Y-118941904D01*
X147499333Y-118980000D01*
X147532666Y-119018095D01*
X147566000Y-119094285D01*
X147566000Y-119170476D01*
X147532666Y-119284761D01*
X147132666Y-119741904D01*
X147566000Y-119741904D01*
X144409333Y-119665714D02*
X144376000Y-119703809D01*
X144276000Y-119741904D01*
X144209333Y-119741904D01*
X144109333Y-119703809D01*
X144042666Y-119627619D01*
X144009333Y-119551428D01*
X143976000Y-119399047D01*
X143976000Y-119284761D01*
X144009333Y-119132380D01*
X144042666Y-119056190D01*
X144109333Y-118980000D01*
X144209333Y-118941904D01*
X144276000Y-118941904D01*
X144376000Y-118980000D01*
X144409333Y-119018095D01*
X145076000Y-119741904D02*
X144676000Y-119741904D01*
X144876000Y-119741904D02*
X144876000Y-118941904D01*
X144809333Y-119056190D01*
X144742666Y-119132380D01*
X144676000Y-119170476D01*
X141369333Y-119322857D02*
X141469333Y-119360952D01*
X141502666Y-119399047D01*
X141536000Y-119475238D01*
X141536000Y-119589523D01*
X141502666Y-119665714D01*
X141469333Y-119703809D01*
X141402666Y-119741904D01*
X141136000Y-119741904D01*
X141136000Y-118941904D01*
X141369333Y-118941904D01*
X141436000Y-118980000D01*
X141469333Y-119018095D01*
X141502666Y-119094285D01*
X141502666Y-119170476D01*
X141469333Y-119246666D01*
X141436000Y-119284761D01*
X141369333Y-119322857D01*
X141136000Y-119322857D01*
X142202666Y-119741904D02*
X141802666Y-119741904D01*
X142002666Y-119741904D02*
X142002666Y-118941904D01*
X141936000Y-119056190D01*
X141869333Y-119132380D01*
X141802666Y-119170476D01*
X142869333Y-119741904D02*
X142469333Y-119741904D01*
X142669333Y-119741904D02*
X142669333Y-118941904D01*
X142602666Y-119056190D01*
X142536000Y-119132380D01*
X142469333Y-119170476D01*
X139216666Y-118980000D02*
X139150000Y-118941904D01*
X139050000Y-118941904D01*
X138950000Y-118980000D01*
X138883333Y-119056190D01*
X138850000Y-119132380D01*
X138816666Y-119284761D01*
X138816666Y-119399047D01*
X138850000Y-119551428D01*
X138883333Y-119627619D01*
X138950000Y-119703809D01*
X139050000Y-119741904D01*
X139116666Y-119741904D01*
X139216666Y-119703809D01*
X139250000Y-119665714D01*
X139250000Y-119399047D01*
X139116666Y-119399047D01*
X139916666Y-119741904D02*
X139516666Y-119741904D01*
X139716666Y-119741904D02*
X139716666Y-118941904D01*
X139650000Y-119056190D01*
X139583333Y-119132380D01*
X139516666Y-119170476D01*
X140150000Y-118941904D02*
X140583333Y-118941904D01*
X140350000Y-119246666D01*
X140450000Y-119246666D01*
X140516666Y-119284761D01*
X140550000Y-119322857D01*
X140583333Y-119399047D01*
X140583333Y-119589523D01*
X140550000Y-119665714D01*
X140516666Y-119703809D01*
X140450000Y-119741904D01*
X140250000Y-119741904D01*
X140183333Y-119703809D01*
X140150000Y-119665714D01*
X146949333Y-122205714D02*
X146916000Y-122243809D01*
X146816000Y-122281904D01*
X146749333Y-122281904D01*
X146649333Y-122243809D01*
X146582666Y-122167619D01*
X146549333Y-122091428D01*
X146516000Y-121939047D01*
X146516000Y-121824761D01*
X146549333Y-121672380D01*
X146582666Y-121596190D01*
X146649333Y-121520000D01*
X146749333Y-121481904D01*
X146816000Y-121481904D01*
X146916000Y-121520000D01*
X146949333Y-121558095D01*
X147549333Y-121748571D02*
X147549333Y-122281904D01*
X147382666Y-121443809D02*
X147216000Y-122015238D01*
X147649333Y-122015238D01*
X144409333Y-122205714D02*
X144376000Y-122243809D01*
X144276000Y-122281904D01*
X144209333Y-122281904D01*
X144109333Y-122243809D01*
X144042666Y-122167619D01*
X144009333Y-122091428D01*
X143976000Y-121939047D01*
X143976000Y-121824761D01*
X144009333Y-121672380D01*
X144042666Y-121596190D01*
X144109333Y-121520000D01*
X144209333Y-121481904D01*
X144276000Y-121481904D01*
X144376000Y-121520000D01*
X144409333Y-121558095D01*
X145042666Y-121481904D02*
X144709333Y-121481904D01*
X144676000Y-121862857D01*
X144709333Y-121824761D01*
X144776000Y-121786666D01*
X144942666Y-121786666D01*
X145009333Y-121824761D01*
X145042666Y-121862857D01*
X145076000Y-121939047D01*
X145076000Y-122129523D01*
X145042666Y-122205714D01*
X145009333Y-122243809D01*
X144942666Y-122281904D01*
X144776000Y-122281904D01*
X144709333Y-122243809D01*
X144676000Y-122205714D01*
X141702666Y-121862857D02*
X141802666Y-121900952D01*
X141836000Y-121939047D01*
X141869333Y-122015238D01*
X141869333Y-122129523D01*
X141836000Y-122205714D01*
X141802666Y-122243809D01*
X141736000Y-122281904D01*
X141469333Y-122281904D01*
X141469333Y-121481904D01*
X141702666Y-121481904D01*
X141769333Y-121520000D01*
X141802666Y-121558095D01*
X141836000Y-121634285D01*
X141836000Y-121710476D01*
X141802666Y-121786666D01*
X141769333Y-121824761D01*
X141702666Y-121862857D01*
X141469333Y-121862857D01*
X142302666Y-121481904D02*
X142369333Y-121481904D01*
X142436000Y-121520000D01*
X142469333Y-121558095D01*
X142502666Y-121634285D01*
X142536000Y-121786666D01*
X142536000Y-121977142D01*
X142502666Y-122129523D01*
X142469333Y-122205714D01*
X142436000Y-122243809D01*
X142369333Y-122281904D01*
X142302666Y-122281904D01*
X142236000Y-122243809D01*
X142202666Y-122205714D01*
X142169333Y-122129523D01*
X142136000Y-121977142D01*
X142136000Y-121786666D01*
X142169333Y-121634285D01*
X142202666Y-121558095D01*
X142236000Y-121520000D01*
X142302666Y-121481904D01*
X139416666Y-121862857D02*
X139516666Y-121900952D01*
X139550000Y-121939047D01*
X139583333Y-122015238D01*
X139583333Y-122129523D01*
X139550000Y-122205714D01*
X139516666Y-122243809D01*
X139450000Y-122281904D01*
X139183333Y-122281904D01*
X139183333Y-121481904D01*
X139416666Y-121481904D01*
X139483333Y-121520000D01*
X139516666Y-121558095D01*
X139550000Y-121634285D01*
X139550000Y-121710476D01*
X139516666Y-121786666D01*
X139483333Y-121824761D01*
X139416666Y-121862857D01*
X139183333Y-121862857D01*
X140250000Y-122281904D02*
X139850000Y-122281904D01*
X140050000Y-122281904D02*
X140050000Y-121481904D01*
X139983333Y-121596190D01*
X139916666Y-121672380D01*
X139850000Y-121710476D01*
X146449333Y-124402857D02*
X146549333Y-124440952D01*
X146582666Y-124479047D01*
X146616000Y-124555238D01*
X146616000Y-124669523D01*
X146582666Y-124745714D01*
X146549333Y-124783809D01*
X146482666Y-124821904D01*
X146216000Y-124821904D01*
X146216000Y-124021904D01*
X146449333Y-124021904D01*
X146516000Y-124060000D01*
X146549333Y-124098095D01*
X146582666Y-124174285D01*
X146582666Y-124250476D01*
X146549333Y-124326666D01*
X146516000Y-124364761D01*
X146449333Y-124402857D01*
X146216000Y-124402857D01*
X147282666Y-124821904D02*
X146882666Y-124821904D01*
X147082666Y-124821904D02*
X147082666Y-124021904D01*
X147016000Y-124136190D01*
X146949333Y-124212380D01*
X146882666Y-124250476D01*
X147716000Y-124021904D02*
X147782666Y-124021904D01*
X147849333Y-124060000D01*
X147882666Y-124098095D01*
X147916000Y-124174285D01*
X147949333Y-124326666D01*
X147949333Y-124517142D01*
X147916000Y-124669523D01*
X147882666Y-124745714D01*
X147849333Y-124783809D01*
X147782666Y-124821904D01*
X147716000Y-124821904D01*
X147649333Y-124783809D01*
X147616000Y-124745714D01*
X147582666Y-124669523D01*
X147549333Y-124517142D01*
X147549333Y-124326666D01*
X147582666Y-124174285D01*
X147616000Y-124098095D01*
X147649333Y-124060000D01*
X147716000Y-124021904D01*
X143909333Y-124402857D02*
X144009333Y-124440952D01*
X144042666Y-124479047D01*
X144076000Y-124555238D01*
X144076000Y-124669523D01*
X144042666Y-124745714D01*
X144009333Y-124783809D01*
X143942666Y-124821904D01*
X143676000Y-124821904D01*
X143676000Y-124021904D01*
X143909333Y-124021904D01*
X143976000Y-124060000D01*
X144009333Y-124098095D01*
X144042666Y-124174285D01*
X144042666Y-124250476D01*
X144009333Y-124326666D01*
X143976000Y-124364761D01*
X143909333Y-124402857D01*
X143676000Y-124402857D01*
X144742666Y-124821904D02*
X144342666Y-124821904D01*
X144542666Y-124821904D02*
X144542666Y-124021904D01*
X144476000Y-124136190D01*
X144409333Y-124212380D01*
X144342666Y-124250476D01*
X145009333Y-124098095D02*
X145042666Y-124060000D01*
X145109333Y-124021904D01*
X145276000Y-124021904D01*
X145342666Y-124060000D01*
X145376000Y-124098095D01*
X145409333Y-124174285D01*
X145409333Y-124250476D01*
X145376000Y-124364761D01*
X144976000Y-124821904D01*
X145409333Y-124821904D01*
X141486000Y-124593333D02*
X141819333Y-124593333D01*
X141419333Y-124821904D02*
X141652666Y-124021904D01*
X141886000Y-124821904D01*
X142419333Y-124021904D02*
X142286000Y-124021904D01*
X142219333Y-124060000D01*
X142186000Y-124098095D01*
X142119333Y-124212380D01*
X142086000Y-124364761D01*
X142086000Y-124669523D01*
X142119333Y-124745714D01*
X142152666Y-124783809D01*
X142219333Y-124821904D01*
X142352666Y-124821904D01*
X142419333Y-124783809D01*
X142452666Y-124745714D01*
X142486000Y-124669523D01*
X142486000Y-124479047D01*
X142452666Y-124402857D01*
X142419333Y-124364761D01*
X142352666Y-124326666D01*
X142219333Y-124326666D01*
X142152666Y-124364761D01*
X142119333Y-124402857D01*
X142086000Y-124479047D01*
X139200000Y-124593333D02*
X139533333Y-124593333D01*
X139133333Y-124821904D02*
X139366666Y-124021904D01*
X139600000Y-124821904D01*
X140200000Y-124821904D02*
X139800000Y-124821904D01*
X140000000Y-124821904D02*
X140000000Y-124021904D01*
X139933333Y-124136190D01*
X139866666Y-124212380D01*
X139800000Y-124250476D01*
X146782666Y-126942857D02*
X146882666Y-126980952D01*
X146916000Y-127019047D01*
X146949333Y-127095238D01*
X146949333Y-127209523D01*
X146916000Y-127285714D01*
X146882666Y-127323809D01*
X146816000Y-127361904D01*
X146549333Y-127361904D01*
X146549333Y-126561904D01*
X146782666Y-126561904D01*
X146849333Y-126600000D01*
X146882666Y-126638095D01*
X146916000Y-126714285D01*
X146916000Y-126790476D01*
X146882666Y-126866666D01*
X146849333Y-126904761D01*
X146782666Y-126942857D01*
X146549333Y-126942857D01*
X147349333Y-126904761D02*
X147282666Y-126866666D01*
X147249333Y-126828571D01*
X147216000Y-126752380D01*
X147216000Y-126714285D01*
X147249333Y-126638095D01*
X147282666Y-126600000D01*
X147349333Y-126561904D01*
X147482666Y-126561904D01*
X147549333Y-126600000D01*
X147582666Y-126638095D01*
X147616000Y-126714285D01*
X147616000Y-126752380D01*
X147582666Y-126828571D01*
X147549333Y-126866666D01*
X147482666Y-126904761D01*
X147349333Y-126904761D01*
X147282666Y-126942857D01*
X147249333Y-126980952D01*
X147216000Y-127057142D01*
X147216000Y-127209523D01*
X147249333Y-127285714D01*
X147282666Y-127323809D01*
X147349333Y-127361904D01*
X147482666Y-127361904D01*
X147549333Y-127323809D01*
X147582666Y-127285714D01*
X147616000Y-127209523D01*
X147616000Y-127057142D01*
X147582666Y-126980952D01*
X147549333Y-126942857D01*
X147482666Y-126904761D01*
X144042666Y-126600000D02*
X143976000Y-126561904D01*
X143876000Y-126561904D01*
X143776000Y-126600000D01*
X143709333Y-126676190D01*
X143676000Y-126752380D01*
X143642666Y-126904761D01*
X143642666Y-127019047D01*
X143676000Y-127171428D01*
X143709333Y-127247619D01*
X143776000Y-127323809D01*
X143876000Y-127361904D01*
X143942666Y-127361904D01*
X144042666Y-127323809D01*
X144076000Y-127285714D01*
X144076000Y-127019047D01*
X143942666Y-127019047D01*
X144742666Y-127361904D02*
X144342666Y-127361904D01*
X144542666Y-127361904D02*
X144542666Y-126561904D01*
X144476000Y-126676190D01*
X144409333Y-126752380D01*
X144342666Y-126790476D01*
X145409333Y-127361904D02*
X145009333Y-127361904D01*
X145209333Y-127361904D02*
X145209333Y-126561904D01*
X145142666Y-126676190D01*
X145076000Y-126752380D01*
X145009333Y-126790476D01*
X141486000Y-127133333D02*
X141819333Y-127133333D01*
X141419333Y-127361904D02*
X141652666Y-126561904D01*
X141886000Y-127361904D01*
X142052666Y-126561904D02*
X142519333Y-126561904D01*
X142219333Y-127361904D01*
X139133333Y-126942857D02*
X138900000Y-126942857D01*
X138900000Y-127361904D02*
X138900000Y-126561904D01*
X139233333Y-126561904D01*
X139866666Y-127361904D02*
X139466666Y-127361904D01*
X139666666Y-127361904D02*
X139666666Y-126561904D01*
X139600000Y-126676190D01*
X139533333Y-126752380D01*
X139466666Y-126790476D01*
X140533333Y-127361904D02*
X140133333Y-127361904D01*
X140333333Y-127361904D02*
X140333333Y-126561904D01*
X140266666Y-126676190D01*
X140200000Y-126752380D01*
X140133333Y-126790476D01*
X146582666Y-129482857D02*
X146816000Y-129482857D01*
X146916000Y-129901904D02*
X146582666Y-129901904D01*
X146582666Y-129101904D01*
X146916000Y-129101904D01*
X147249333Y-129901904D02*
X147382666Y-129901904D01*
X147449333Y-129863809D01*
X147482666Y-129825714D01*
X147549333Y-129711428D01*
X147582666Y-129559047D01*
X147582666Y-129254285D01*
X147549333Y-129178095D01*
X147516000Y-129140000D01*
X147449333Y-129101904D01*
X147316000Y-129101904D01*
X147249333Y-129140000D01*
X147216000Y-129178095D01*
X147182666Y-129254285D01*
X147182666Y-129444761D01*
X147216000Y-129520952D01*
X147249333Y-129559047D01*
X147316000Y-129597142D01*
X147449333Y-129597142D01*
X147516000Y-129559047D01*
X147549333Y-129520952D01*
X147582666Y-129444761D01*
X144042666Y-129140000D02*
X143976000Y-129101904D01*
X143876000Y-129101904D01*
X143776000Y-129140000D01*
X143709333Y-129216190D01*
X143676000Y-129292380D01*
X143642666Y-129444761D01*
X143642666Y-129559047D01*
X143676000Y-129711428D01*
X143709333Y-129787619D01*
X143776000Y-129863809D01*
X143876000Y-129901904D01*
X143942666Y-129901904D01*
X144042666Y-129863809D01*
X144076000Y-129825714D01*
X144076000Y-129559047D01*
X143942666Y-129559047D01*
X144742666Y-129901904D02*
X144342666Y-129901904D01*
X144542666Y-129901904D02*
X144542666Y-129101904D01*
X144476000Y-129216190D01*
X144409333Y-129292380D01*
X144342666Y-129330476D01*
X145176000Y-129101904D02*
X145242666Y-129101904D01*
X145309333Y-129140000D01*
X145342666Y-129178095D01*
X145376000Y-129254285D01*
X145409333Y-129406666D01*
X145409333Y-129597142D01*
X145376000Y-129749523D01*
X145342666Y-129825714D01*
X145309333Y-129863809D01*
X145242666Y-129901904D01*
X145176000Y-129901904D01*
X145109333Y-129863809D01*
X145076000Y-129825714D01*
X145042666Y-129749523D01*
X145009333Y-129597142D01*
X145009333Y-129406666D01*
X145042666Y-129254285D01*
X145076000Y-129178095D01*
X145109333Y-129140000D01*
X145176000Y-129101904D01*
X141836000Y-129140000D02*
X141769333Y-129101904D01*
X141669333Y-129101904D01*
X141569333Y-129140000D01*
X141502666Y-129216190D01*
X141469333Y-129292380D01*
X141436000Y-129444761D01*
X141436000Y-129559047D01*
X141469333Y-129711428D01*
X141502666Y-129787619D01*
X141569333Y-129863809D01*
X141669333Y-129901904D01*
X141736000Y-129901904D01*
X141836000Y-129863809D01*
X141869333Y-129825714D01*
X141869333Y-129559047D01*
X141736000Y-129559047D01*
X142269333Y-129444761D02*
X142202666Y-129406666D01*
X142169333Y-129368571D01*
X142136000Y-129292380D01*
X142136000Y-129254285D01*
X142169333Y-129178095D01*
X142202666Y-129140000D01*
X142269333Y-129101904D01*
X142402666Y-129101904D01*
X142469333Y-129140000D01*
X142502666Y-129178095D01*
X142536000Y-129254285D01*
X142536000Y-129292380D01*
X142502666Y-129368571D01*
X142469333Y-129406666D01*
X142402666Y-129444761D01*
X142269333Y-129444761D01*
X142202666Y-129482857D01*
X142169333Y-129520952D01*
X142136000Y-129597142D01*
X142136000Y-129749523D01*
X142169333Y-129825714D01*
X142202666Y-129863809D01*
X142269333Y-129901904D01*
X142402666Y-129901904D01*
X142469333Y-129863809D01*
X142502666Y-129825714D01*
X142536000Y-129749523D01*
X142536000Y-129597142D01*
X142502666Y-129520952D01*
X142469333Y-129482857D01*
X142402666Y-129444761D01*
X139583333Y-129825714D02*
X139550000Y-129863809D01*
X139450000Y-129901904D01*
X139383333Y-129901904D01*
X139283333Y-129863809D01*
X139216666Y-129787619D01*
X139183333Y-129711428D01*
X139150000Y-129559047D01*
X139150000Y-129444761D01*
X139183333Y-129292380D01*
X139216666Y-129216190D01*
X139283333Y-129140000D01*
X139383333Y-129101904D01*
X139450000Y-129101904D01*
X139550000Y-129140000D01*
X139583333Y-129178095D01*
X140016666Y-129101904D02*
X140083333Y-129101904D01*
X140150000Y-129140000D01*
X140183333Y-129178095D01*
X140216666Y-129254285D01*
X140250000Y-129406666D01*
X140250000Y-129597142D01*
X140216666Y-129749523D01*
X140183333Y-129825714D01*
X140150000Y-129863809D01*
X140083333Y-129901904D01*
X140016666Y-129901904D01*
X139950000Y-129863809D01*
X139916666Y-129825714D01*
X139883333Y-129749523D01*
X139850000Y-129597142D01*
X139850000Y-129406666D01*
X139883333Y-129254285D01*
X139916666Y-129178095D01*
X139950000Y-129140000D01*
X140016666Y-129101904D01*
X146832666Y-132022857D02*
X146599333Y-132022857D01*
X146599333Y-132441904D02*
X146599333Y-131641904D01*
X146932666Y-131641904D01*
X147132666Y-131641904D02*
X147599333Y-131641904D01*
X147299333Y-132441904D01*
X143676000Y-132441904D02*
X143676000Y-131641904D01*
X143842666Y-131641904D01*
X143942666Y-131680000D01*
X144009333Y-131756190D01*
X144042666Y-131832380D01*
X144076000Y-131984761D01*
X144076000Y-132099047D01*
X144042666Y-132251428D01*
X144009333Y-132327619D01*
X143942666Y-132403809D01*
X143842666Y-132441904D01*
X143676000Y-132441904D01*
X144742666Y-132441904D02*
X144342666Y-132441904D01*
X144542666Y-132441904D02*
X144542666Y-131641904D01*
X144476000Y-131756190D01*
X144409333Y-131832380D01*
X144342666Y-131870476D01*
X145409333Y-132441904D02*
X145009333Y-132441904D01*
X145209333Y-132441904D02*
X145209333Y-131641904D01*
X145142666Y-131756190D01*
X145076000Y-131832380D01*
X145009333Y-131870476D01*
X141419333Y-132022857D02*
X141186000Y-132022857D01*
X141186000Y-132441904D02*
X141186000Y-131641904D01*
X141519333Y-131641904D01*
X142152666Y-132441904D02*
X141752666Y-132441904D01*
X141952666Y-132441904D02*
X141952666Y-131641904D01*
X141886000Y-131756190D01*
X141819333Y-131832380D01*
X141752666Y-131870476D01*
X142586000Y-131641904D02*
X142652666Y-131641904D01*
X142719333Y-131680000D01*
X142752666Y-131718095D01*
X142786000Y-131794285D01*
X142819333Y-131946666D01*
X142819333Y-132137142D01*
X142786000Y-132289523D01*
X142752666Y-132365714D01*
X142719333Y-132403809D01*
X142652666Y-132441904D01*
X142586000Y-132441904D01*
X142519333Y-132403809D01*
X142486000Y-132365714D01*
X142452666Y-132289523D01*
X142419333Y-132137142D01*
X142419333Y-131946666D01*
X142452666Y-131794285D01*
X142486000Y-131718095D01*
X142519333Y-131680000D01*
X142586000Y-131641904D01*
X139416666Y-132022857D02*
X139516666Y-132060952D01*
X139550000Y-132099047D01*
X139583333Y-132175238D01*
X139583333Y-132289523D01*
X139550000Y-132365714D01*
X139516666Y-132403809D01*
X139450000Y-132441904D01*
X139183333Y-132441904D01*
X139183333Y-131641904D01*
X139416666Y-131641904D01*
X139483333Y-131680000D01*
X139516666Y-131718095D01*
X139550000Y-131794285D01*
X139550000Y-131870476D01*
X139516666Y-131946666D01*
X139483333Y-131984761D01*
X139416666Y-132022857D01*
X139183333Y-132022857D01*
X140216666Y-131641904D02*
X139883333Y-131641904D01*
X139850000Y-132022857D01*
X139883333Y-131984761D01*
X139950000Y-131946666D01*
X140116666Y-131946666D01*
X140183333Y-131984761D01*
X140216666Y-132022857D01*
X140250000Y-132099047D01*
X140250000Y-132289523D01*
X140216666Y-132365714D01*
X140183333Y-132403809D01*
X140116666Y-132441904D01*
X139950000Y-132441904D01*
X139883333Y-132403809D01*
X139850000Y-132365714D01*
X146832666Y-134562857D02*
X146599333Y-134562857D01*
X146599333Y-134981904D02*
X146599333Y-134181904D01*
X146932666Y-134181904D01*
X147299333Y-134524761D02*
X147232666Y-134486666D01*
X147199333Y-134448571D01*
X147166000Y-134372380D01*
X147166000Y-134334285D01*
X147199333Y-134258095D01*
X147232666Y-134220000D01*
X147299333Y-134181904D01*
X147432666Y-134181904D01*
X147499333Y-134220000D01*
X147532666Y-134258095D01*
X147566000Y-134334285D01*
X147566000Y-134372380D01*
X147532666Y-134448571D01*
X147499333Y-134486666D01*
X147432666Y-134524761D01*
X147299333Y-134524761D01*
X147232666Y-134562857D01*
X147199333Y-134600952D01*
X147166000Y-134677142D01*
X147166000Y-134829523D01*
X147199333Y-134905714D01*
X147232666Y-134943809D01*
X147299333Y-134981904D01*
X147432666Y-134981904D01*
X147499333Y-134943809D01*
X147532666Y-134905714D01*
X147566000Y-134829523D01*
X147566000Y-134677142D01*
X147532666Y-134600952D01*
X147499333Y-134562857D01*
X147432666Y-134524761D01*
X144292666Y-134562857D02*
X144059333Y-134562857D01*
X144059333Y-134981904D02*
X144059333Y-134181904D01*
X144392666Y-134181904D01*
X144692666Y-134981904D02*
X144826000Y-134981904D01*
X144892666Y-134943809D01*
X144926000Y-134905714D01*
X144992666Y-134791428D01*
X145026000Y-134639047D01*
X145026000Y-134334285D01*
X144992666Y-134258095D01*
X144959333Y-134220000D01*
X144892666Y-134181904D01*
X144759333Y-134181904D01*
X144692666Y-134220000D01*
X144659333Y-134258095D01*
X144626000Y-134334285D01*
X144626000Y-134524761D01*
X144659333Y-134600952D01*
X144692666Y-134639047D01*
X144759333Y-134677142D01*
X144892666Y-134677142D01*
X144959333Y-134639047D01*
X144992666Y-134600952D01*
X145026000Y-134524761D01*
X141752666Y-134562857D02*
X141519333Y-134562857D01*
X141519333Y-134981904D02*
X141519333Y-134181904D01*
X141852666Y-134181904D01*
X142419333Y-134181904D02*
X142286000Y-134181904D01*
X142219333Y-134220000D01*
X142186000Y-134258095D01*
X142119333Y-134372380D01*
X142086000Y-134524761D01*
X142086000Y-134829523D01*
X142119333Y-134905714D01*
X142152666Y-134943809D01*
X142219333Y-134981904D01*
X142352666Y-134981904D01*
X142419333Y-134943809D01*
X142452666Y-134905714D01*
X142486000Y-134829523D01*
X142486000Y-134639047D01*
X142452666Y-134562857D01*
X142419333Y-134524761D01*
X142352666Y-134486666D01*
X142219333Y-134486666D01*
X142152666Y-134524761D01*
X142119333Y-134562857D01*
X142086000Y-134639047D01*
X139083333Y-134562857D02*
X139183333Y-134600952D01*
X139216666Y-134639047D01*
X139250000Y-134715238D01*
X139250000Y-134829523D01*
X139216666Y-134905714D01*
X139183333Y-134943809D01*
X139116666Y-134981904D01*
X138850000Y-134981904D01*
X138850000Y-134181904D01*
X139083333Y-134181904D01*
X139150000Y-134220000D01*
X139183333Y-134258095D01*
X139216666Y-134334285D01*
X139216666Y-134410476D01*
X139183333Y-134486666D01*
X139150000Y-134524761D01*
X139083333Y-134562857D01*
X138850000Y-134562857D01*
X139916666Y-134981904D02*
X139516666Y-134981904D01*
X139716666Y-134981904D02*
X139716666Y-134181904D01*
X139650000Y-134296190D01*
X139583333Y-134372380D01*
X139516666Y-134410476D01*
X140150000Y-134181904D02*
X140583333Y-134181904D01*
X140350000Y-134486666D01*
X140450000Y-134486666D01*
X140516666Y-134524761D01*
X140550000Y-134562857D01*
X140583333Y-134639047D01*
X140583333Y-134829523D01*
X140550000Y-134905714D01*
X140516666Y-134943809D01*
X140450000Y-134981904D01*
X140250000Y-134981904D01*
X140183333Y-134943809D01*
X140150000Y-134905714D01*
X146216000Y-137521904D02*
X146216000Y-136721904D01*
X146382666Y-136721904D01*
X146482666Y-136760000D01*
X146549333Y-136836190D01*
X146582666Y-136912380D01*
X146616000Y-137064761D01*
X146616000Y-137179047D01*
X146582666Y-137331428D01*
X146549333Y-137407619D01*
X146482666Y-137483809D01*
X146382666Y-137521904D01*
X146216000Y-137521904D01*
X147282666Y-137521904D02*
X146882666Y-137521904D01*
X147082666Y-137521904D02*
X147082666Y-136721904D01*
X147016000Y-136836190D01*
X146949333Y-136912380D01*
X146882666Y-136950476D01*
X147549333Y-136798095D02*
X147582666Y-136760000D01*
X147649333Y-136721904D01*
X147816000Y-136721904D01*
X147882666Y-136760000D01*
X147916000Y-136798095D01*
X147949333Y-136874285D01*
X147949333Y-136950476D01*
X147916000Y-137064761D01*
X147516000Y-137521904D01*
X147949333Y-137521904D01*
X144376000Y-136760000D02*
X144309333Y-136721904D01*
X144209333Y-136721904D01*
X144109333Y-136760000D01*
X144042666Y-136836190D01*
X144009333Y-136912380D01*
X143976000Y-137064761D01*
X143976000Y-137179047D01*
X144009333Y-137331428D01*
X144042666Y-137407619D01*
X144109333Y-137483809D01*
X144209333Y-137521904D01*
X144276000Y-137521904D01*
X144376000Y-137483809D01*
X144409333Y-137445714D01*
X144409333Y-137179047D01*
X144276000Y-137179047D01*
X144642666Y-136721904D02*
X145109333Y-136721904D01*
X144809333Y-137521904D01*
X141169333Y-137102857D02*
X141402666Y-137102857D01*
X141502666Y-137521904D02*
X141169333Y-137521904D01*
X141169333Y-136721904D01*
X141502666Y-136721904D01*
X142169333Y-137521904D02*
X141769333Y-137521904D01*
X141969333Y-137521904D02*
X141969333Y-136721904D01*
X141902666Y-136836190D01*
X141836000Y-136912380D01*
X141769333Y-136950476D01*
X142602666Y-136721904D02*
X142669333Y-136721904D01*
X142736000Y-136760000D01*
X142769333Y-136798095D01*
X142802666Y-136874285D01*
X142836000Y-137026666D01*
X142836000Y-137217142D01*
X142802666Y-137369523D01*
X142769333Y-137445714D01*
X142736000Y-137483809D01*
X142669333Y-137521904D01*
X142602666Y-137521904D01*
X142536000Y-137483809D01*
X142502666Y-137445714D01*
X142469333Y-137369523D01*
X142436000Y-137217142D01*
X142436000Y-137026666D01*
X142469333Y-136874285D01*
X142502666Y-136798095D01*
X142536000Y-136760000D01*
X142602666Y-136721904D01*
X139216666Y-137102857D02*
X139450000Y-137102857D01*
X139550000Y-137521904D02*
X139216666Y-137521904D01*
X139216666Y-136721904D01*
X139550000Y-136721904D01*
X139783333Y-136721904D02*
X140250000Y-136721904D01*
X139950000Y-137521904D01*
X146782666Y-139642857D02*
X146882666Y-139680952D01*
X146916000Y-139719047D01*
X146949333Y-139795238D01*
X146949333Y-139909523D01*
X146916000Y-139985714D01*
X146882666Y-140023809D01*
X146816000Y-140061904D01*
X146549333Y-140061904D01*
X146549333Y-139261904D01*
X146782666Y-139261904D01*
X146849333Y-139300000D01*
X146882666Y-139338095D01*
X146916000Y-139414285D01*
X146916000Y-139490476D01*
X146882666Y-139566666D01*
X146849333Y-139604761D01*
X146782666Y-139642857D01*
X146549333Y-139642857D01*
X147216000Y-139338095D02*
X147249333Y-139300000D01*
X147316000Y-139261904D01*
X147482666Y-139261904D01*
X147549333Y-139300000D01*
X147582666Y-139338095D01*
X147616000Y-139414285D01*
X147616000Y-139490476D01*
X147582666Y-139604761D01*
X147182666Y-140061904D01*
X147616000Y-140061904D01*
X144242666Y-139642857D02*
X144342666Y-139680952D01*
X144376000Y-139719047D01*
X144409333Y-139795238D01*
X144409333Y-139909523D01*
X144376000Y-139985714D01*
X144342666Y-140023809D01*
X144276000Y-140061904D01*
X144009333Y-140061904D01*
X144009333Y-139261904D01*
X144242666Y-139261904D01*
X144309333Y-139300000D01*
X144342666Y-139338095D01*
X144376000Y-139414285D01*
X144376000Y-139490476D01*
X144342666Y-139566666D01*
X144309333Y-139604761D01*
X144242666Y-139642857D01*
X144009333Y-139642857D01*
X145009333Y-139261904D02*
X144876000Y-139261904D01*
X144809333Y-139300000D01*
X144776000Y-139338095D01*
X144709333Y-139452380D01*
X144676000Y-139604761D01*
X144676000Y-139909523D01*
X144709333Y-139985714D01*
X144742666Y-140023809D01*
X144809333Y-140061904D01*
X144942666Y-140061904D01*
X145009333Y-140023809D01*
X145042666Y-139985714D01*
X145076000Y-139909523D01*
X145076000Y-139719047D01*
X145042666Y-139642857D01*
X145009333Y-139604761D01*
X144942666Y-139566666D01*
X144809333Y-139566666D01*
X144742666Y-139604761D01*
X144709333Y-139642857D01*
X144676000Y-139719047D01*
X141136000Y-140061904D02*
X141136000Y-139261904D01*
X141302666Y-139261904D01*
X141402666Y-139300000D01*
X141469333Y-139376190D01*
X141502666Y-139452380D01*
X141536000Y-139604761D01*
X141536000Y-139719047D01*
X141502666Y-139871428D01*
X141469333Y-139947619D01*
X141402666Y-140023809D01*
X141302666Y-140061904D01*
X141136000Y-140061904D01*
X142202666Y-140061904D02*
X141802666Y-140061904D01*
X142002666Y-140061904D02*
X142002666Y-139261904D01*
X141936000Y-139376190D01*
X141869333Y-139452380D01*
X141802666Y-139490476D01*
X142436000Y-139261904D02*
X142869333Y-139261904D01*
X142636000Y-139566666D01*
X142736000Y-139566666D01*
X142802666Y-139604761D01*
X142836000Y-139642857D01*
X142869333Y-139719047D01*
X142869333Y-139909523D01*
X142836000Y-139985714D01*
X142802666Y-140023809D01*
X142736000Y-140061904D01*
X142536000Y-140061904D01*
X142469333Y-140023809D01*
X142436000Y-139985714D01*
X139216666Y-139642857D02*
X139450000Y-139642857D01*
X139550000Y-140061904D02*
X139216666Y-140061904D01*
X139216666Y-139261904D01*
X139550000Y-139261904D01*
X139950000Y-139604761D02*
X139883333Y-139566666D01*
X139850000Y-139528571D01*
X139816666Y-139452380D01*
X139816666Y-139414285D01*
X139850000Y-139338095D01*
X139883333Y-139300000D01*
X139950000Y-139261904D01*
X140083333Y-139261904D01*
X140150000Y-139300000D01*
X140183333Y-139338095D01*
X140216666Y-139414285D01*
X140216666Y-139452380D01*
X140183333Y-139528571D01*
X140150000Y-139566666D01*
X140083333Y-139604761D01*
X139950000Y-139604761D01*
X139883333Y-139642857D01*
X139850000Y-139680952D01*
X139816666Y-139757142D01*
X139816666Y-139909523D01*
X139850000Y-139985714D01*
X139883333Y-140023809D01*
X139950000Y-140061904D01*
X140083333Y-140061904D01*
X140150000Y-140023809D01*
X140183333Y-139985714D01*
X140216666Y-139909523D01*
X140216666Y-139757142D01*
X140183333Y-139680952D01*
X140150000Y-139642857D01*
X140083333Y-139604761D01*
X146232666Y-142373333D02*
X146566000Y-142373333D01*
X146166000Y-142601904D02*
X146399333Y-141801904D01*
X146632666Y-142601904D01*
X147232666Y-142601904D02*
X146832666Y-142601904D01*
X147032666Y-142601904D02*
X147032666Y-141801904D01*
X146966000Y-141916190D01*
X146899333Y-141992380D01*
X146832666Y-142030476D01*
X147899333Y-142601904D02*
X147499333Y-142601904D01*
X147699333Y-142601904D02*
X147699333Y-141801904D01*
X147632666Y-141916190D01*
X147566000Y-141992380D01*
X147499333Y-142030476D01*
X143692666Y-142373333D02*
X144026000Y-142373333D01*
X143626000Y-142601904D02*
X143859333Y-141801904D01*
X144092666Y-142601904D01*
X144692666Y-142601904D02*
X144292666Y-142601904D01*
X144492666Y-142601904D02*
X144492666Y-141801904D01*
X144426000Y-141916190D01*
X144359333Y-141992380D01*
X144292666Y-142030476D01*
X144959333Y-141878095D02*
X144992666Y-141840000D01*
X145059333Y-141801904D01*
X145226000Y-141801904D01*
X145292666Y-141840000D01*
X145326000Y-141878095D01*
X145359333Y-141954285D01*
X145359333Y-142030476D01*
X145326000Y-142144761D01*
X144926000Y-142601904D01*
X145359333Y-142601904D01*
X141152666Y-142373333D02*
X141486000Y-142373333D01*
X141086000Y-142601904D02*
X141319333Y-141801904D01*
X141552666Y-142601904D01*
X142152666Y-142601904D02*
X141752666Y-142601904D01*
X141952666Y-142601904D02*
X141952666Y-141801904D01*
X141886000Y-141916190D01*
X141819333Y-141992380D01*
X141752666Y-142030476D01*
X142586000Y-141801904D02*
X142652666Y-141801904D01*
X142719333Y-141840000D01*
X142752666Y-141878095D01*
X142786000Y-141954285D01*
X142819333Y-142106666D01*
X142819333Y-142297142D01*
X142786000Y-142449523D01*
X142752666Y-142525714D01*
X142719333Y-142563809D01*
X142652666Y-142601904D01*
X142586000Y-142601904D01*
X142519333Y-142563809D01*
X142486000Y-142525714D01*
X142452666Y-142449523D01*
X142419333Y-142297142D01*
X142419333Y-142106666D01*
X142452666Y-141954285D01*
X142486000Y-141878095D01*
X142519333Y-141840000D01*
X142586000Y-141801904D01*
X139539285Y-141840000D02*
X139467857Y-141801904D01*
X139360714Y-141801904D01*
X139253571Y-141840000D01*
X139182142Y-141916190D01*
X139146428Y-141992380D01*
X139110714Y-142144761D01*
X139110714Y-142259047D01*
X139146428Y-142411428D01*
X139182142Y-142487619D01*
X139253571Y-142563809D01*
X139360714Y-142601904D01*
X139432142Y-142601904D01*
X139539285Y-142563809D01*
X139575000Y-142525714D01*
X139575000Y-142259047D01*
X139432142Y-142259047D01*
X139932142Y-142601904D02*
X140075000Y-142601904D01*
X140146428Y-142563809D01*
X140182142Y-142525714D01*
X140253571Y-142411428D01*
X140289285Y-142259047D01*
X140289285Y-141954285D01*
X140253571Y-141878095D01*
X140217857Y-141840000D01*
X140146428Y-141801904D01*
X140003571Y-141801904D01*
X139932142Y-141840000D01*
X139896428Y-141878095D01*
X139860714Y-141954285D01*
X139860714Y-142144761D01*
X139896428Y-142220952D01*
X139932142Y-142259047D01*
X140003571Y-142297142D01*
X140146428Y-142297142D01*
X140217857Y-142259047D01*
X140253571Y-142220952D01*
X140289285Y-142144761D01*
D14*
X198234300Y-111760000D02*
G75*
G03*
X198234300Y-111760000I-114300J0D01*
G01*
D10*
X192163700Y-125196600D02*
G75*
G03*
X192163700Y-125196600I-114300J0D01*
G01*
D12*
%TO.C,TP3*%
X168340000Y-148082000D02*
G75*
G03*
X168340000Y-148082000I-700000J0D01*
G01*
%TO.C,TP4*%
X167832000Y-128524000D02*
G75*
G03*
X167832000Y-128524000I-700000J0D01*
G01*
%TO.C,D2*%
X175850000Y-124135000D02*
X172990000Y-124135000D01*
X175850000Y-126055000D02*
X175850000Y-124135000D01*
X172990000Y-126055000D02*
X175850000Y-126055000D01*
%TO.C,J12*%
X161180000Y-70630000D02*
X161180000Y-76650000D01*
X161180000Y-76650000D02*
X166480000Y-76650000D01*
X166480000Y-76650000D02*
X166480000Y-70630000D01*
X166480000Y-70630000D02*
X161180000Y-70630000D01*
X160890000Y-71660000D02*
X160890000Y-75660000D01*
X162560000Y-76650000D02*
X162560000Y-75650000D01*
X162560000Y-75650000D02*
X165100000Y-75650000D01*
X165100000Y-75650000D02*
X165100000Y-76650000D01*
X162560000Y-75650000D02*
X162810000Y-75120000D01*
X162810000Y-75120000D02*
X164850000Y-75120000D01*
X164850000Y-75120000D02*
X165100000Y-75650000D01*
X162810000Y-76650000D02*
X162810000Y-75650000D01*
X164850000Y-76650000D02*
X164850000Y-75650000D01*
X161760000Y-70630000D02*
X161760000Y-71230000D01*
X161760000Y-71230000D02*
X163360000Y-71230000D01*
X163360000Y-71230000D02*
X163360000Y-70630000D01*
X164300000Y-70630000D02*
X164300000Y-71230000D01*
X164300000Y-71230000D02*
X165900000Y-71230000D01*
X165900000Y-71230000D02*
X165900000Y-70630000D01*
%TO.C,TP2*%
X150623500Y-107378500D02*
G75*
G03*
X150623500Y-107378500I-700000J0D01*
G01*
%TO.C,J11*%
X173386000Y-149446000D02*
X182576000Y-149446000D01*
X173506000Y-140036000D02*
X182456000Y-140036000D01*
X182576000Y-146716000D02*
X182576000Y-149446000D01*
X173386000Y-146716000D02*
X173386000Y-149446000D01*
X182576000Y-143116000D02*
X182576000Y-144016000D01*
X173386000Y-143116000D02*
X173386000Y-144016000D01*
%TO.C,J10*%
X181266500Y-81285000D02*
X181266500Y-76835000D01*
X181266500Y-75435000D02*
X181266500Y-73135000D01*
X181266500Y-71735000D02*
X181266500Y-71015000D01*
X181266500Y-71015000D02*
X178586500Y-71015000D01*
X176286500Y-71015000D02*
X172616500Y-71015000D01*
X170316500Y-71015000D02*
X169086500Y-71015000D01*
X169086500Y-71015000D02*
X169086500Y-80835000D01*
X179786500Y-82655000D02*
X178926500Y-82655000D01*
%TO.C,SW2*%
X200605000Y-76045000D02*
X200605000Y-75120000D01*
X198480000Y-79920000D02*
X199030000Y-79920000D01*
X198480000Y-75020000D02*
X199030000Y-75020000D01*
X196905000Y-79820000D02*
X196905000Y-75120000D01*
X200605000Y-79820000D02*
X200605000Y-78895000D01*
D13*
%TO.C,U1*%
X152031000Y-94857000D02*
G75*
G03*
X152031000Y-94857000I-100000J0D01*
G01*
D12*
X151811000Y-95857000D02*
X151811000Y-98737000D01*
X152931000Y-94737000D02*
X151811000Y-95857000D01*
X155811000Y-94737000D02*
X152931000Y-94737000D01*
X151811000Y-110977000D02*
X151811000Y-106977000D01*
X155811000Y-110977000D02*
X151811000Y-110977000D01*
X168051000Y-94737000D02*
X168051000Y-98737000D01*
X164051000Y-94737000D02*
X168051000Y-94737000D01*
X168051000Y-110977000D02*
X168051000Y-106977000D01*
X164051000Y-110977000D02*
X168051000Y-110977000D01*
X168051000Y-94737000D02*
X168051000Y-98737000D01*
X164051000Y-94737000D02*
X168051000Y-94737000D01*
X168051000Y-94737000D02*
X168051000Y-98737000D01*
X164051000Y-94737000D02*
X168051000Y-94737000D01*
%TO.C,J7*%
X199450000Y-110550000D02*
X198120000Y-110550000D01*
X199450000Y-109220000D02*
X199450000Y-110550000D01*
X199450000Y-107950000D02*
X196790000Y-107950000D01*
X196790000Y-107950000D02*
X196790000Y-90110000D01*
X199450000Y-107950000D02*
X199450000Y-90110000D01*
X199450000Y-90110000D02*
X196790000Y-90110000D01*
%TO.C,TP1*%
X150687000Y-102489000D02*
G75*
G03*
X150687000Y-102489000I-700000J0D01*
G01*
%TO.C,D4*%
X172990000Y-133040000D02*
X175850000Y-133040000D01*
X175850000Y-133040000D02*
X175850000Y-131120000D01*
X175850000Y-131120000D02*
X172990000Y-131120000D01*
%TO.C,D3*%
X172990000Y-129484000D02*
X175850000Y-129484000D01*
X175850000Y-129484000D02*
X175850000Y-127564000D01*
X175850000Y-127564000D02*
X172990000Y-127564000D01*
%TO.C,J9*%
X186750000Y-134790000D02*
X185700000Y-134790000D01*
X185700000Y-135840000D02*
X185700000Y-134790000D01*
X195100000Y-140890000D02*
X195100000Y-149690000D01*
X195100000Y-149690000D02*
X185900000Y-149690000D01*
X192400000Y-134990000D02*
X195100000Y-134990000D01*
X195100000Y-134990000D02*
X195100000Y-136890000D01*
X185900000Y-149690000D02*
X185900000Y-134990000D01*
X185900000Y-134990000D02*
X188500000Y-134990000D01*
%TO.C,U2*%
X192220000Y-98770000D02*
X192220000Y-98070000D01*
X192220000Y-98070000D02*
X191520000Y-98070000D01*
X192020000Y-107470000D02*
X192020000Y-98270000D01*
X192020000Y-98270000D02*
X178820000Y-98270000D01*
X178820000Y-98270000D02*
X178820000Y-107470000D01*
X178820000Y-107470000D02*
X192020000Y-107470000D01*
%TO.C,J8*%
X143867400Y-143788300D02*
X143867400Y-144238300D01*
X143867400Y-143788300D02*
X144317400Y-143788300D01*
X149467400Y-144338300D02*
X149017400Y-144338300D01*
X149467400Y-146188300D02*
X149467400Y-144338300D01*
X141667400Y-148738300D02*
X141667400Y-148488300D01*
X149467400Y-148738300D02*
X149467400Y-148488300D01*
X141667400Y-146188300D02*
X141667400Y-144338300D01*
X141667400Y-144338300D02*
X142117400Y-144338300D01*
%TO.C,J5*%
X146752000Y-70425000D02*
X148082000Y-70425000D01*
X146752000Y-71755000D02*
X146752000Y-70425000D01*
X149352000Y-70425000D02*
X151952000Y-70425000D01*
X149352000Y-73025000D02*
X149352000Y-70425000D01*
X146752000Y-73025000D02*
X149352000Y-73025000D01*
X151952000Y-70425000D02*
X151952000Y-78165000D01*
X146752000Y-73025000D02*
X146752000Y-78165000D01*
X146752000Y-78165000D02*
X151952000Y-78165000D01*
%TO.C,J4*%
X130870000Y-143570000D02*
X129540000Y-143570000D01*
X130870000Y-142240000D02*
X130870000Y-143570000D01*
X130870000Y-140970000D02*
X128210000Y-140970000D01*
X128210000Y-140970000D02*
X128210000Y-74870000D01*
X130870000Y-140970000D02*
X130870000Y-74870000D01*
X130870000Y-74870000D02*
X128210000Y-74870000D01*
%TO.C,J3*%
X133410000Y-143570000D02*
X132080000Y-143570000D01*
X133410000Y-142240000D02*
X133410000Y-143570000D01*
X133410000Y-140970000D02*
X130750000Y-140970000D01*
X130750000Y-140970000D02*
X130750000Y-74870000D01*
X133410000Y-140970000D02*
X133410000Y-74870000D01*
X133410000Y-74870000D02*
X130750000Y-74870000D01*
%TO.C,J2*%
X135950000Y-143570000D02*
X134620000Y-143570000D01*
X135950000Y-142240000D02*
X135950000Y-143570000D01*
X135950000Y-140970000D02*
X133290000Y-140970000D01*
X133290000Y-140970000D02*
X133290000Y-74870000D01*
X135950000Y-140970000D02*
X135950000Y-74870000D01*
X135950000Y-74870000D02*
X133290000Y-74870000D01*
%TO.C,J1*%
X138490000Y-143570000D02*
X137160000Y-143570000D01*
X138490000Y-142240000D02*
X138490000Y-143570000D01*
X138490000Y-140970000D02*
X135830000Y-140970000D01*
X135830000Y-140970000D02*
X135830000Y-74870000D01*
X138490000Y-140970000D02*
X138490000Y-74870000D01*
X138490000Y-74870000D02*
X135830000Y-74870000D01*
%TO.C,U4*%
X195210000Y-124628000D02*
X192760000Y-124628000D01*
X193410000Y-127848000D02*
X195210000Y-127848000D01*
%TO.C,J14*%
X157050000Y-143737500D02*
X157050000Y-144187500D01*
X157050000Y-143737500D02*
X157500000Y-143737500D01*
X162650000Y-144287500D02*
X162200000Y-144287500D01*
X162650000Y-146137500D02*
X162650000Y-144287500D01*
X154850000Y-148687500D02*
X154850000Y-148437500D01*
X162650000Y-148687500D02*
X162650000Y-148437500D01*
X154850000Y-146137500D02*
X154850000Y-144287500D01*
X154850000Y-144287500D02*
X155300000Y-144287500D01*
%TO.C,J6*%
X187266500Y-79235000D02*
X187201500Y-79235000D01*
X187266500Y-75705000D02*
X187201500Y-75705000D01*
X193671500Y-79235000D02*
X193606500Y-79235000D01*
X193671500Y-75705000D02*
X193606500Y-75705000D01*
X193606500Y-74380000D02*
X193606500Y-75705000D01*
X187201500Y-75705000D02*
X187201500Y-79235000D01*
X193671500Y-75705000D02*
X193671500Y-79235000D01*
%TO.C,D1*%
X134284000Y-72842000D02*
X137144000Y-72842000D01*
X134284000Y-70922000D02*
X134284000Y-72842000D01*
X137144000Y-70922000D02*
X134284000Y-70922000D01*
%TO.C,D2*%
D11*
X176955523Y-125456904D02*
X176955523Y-124656904D01*
X177146000Y-124656904D01*
X177260285Y-124695000D01*
X177336476Y-124771190D01*
X177374571Y-124847380D01*
X177412666Y-124999761D01*
X177412666Y-125114047D01*
X177374571Y-125266428D01*
X177336476Y-125342619D01*
X177260285Y-125418809D01*
X177146000Y-125456904D01*
X176955523Y-125456904D01*
X177717428Y-124733095D02*
X177755523Y-124695000D01*
X177831714Y-124656904D01*
X178022190Y-124656904D01*
X178098380Y-124695000D01*
X178136476Y-124733095D01*
X178174571Y-124809285D01*
X178174571Y-124885476D01*
X178136476Y-124999761D01*
X177679333Y-125456904D01*
X178174571Y-125456904D01*
%TO.C,J12*%
X167011404Y-72529619D02*
X167582833Y-72529619D01*
X167697119Y-72567714D01*
X167773309Y-72643904D01*
X167811404Y-72758190D01*
X167811404Y-72834380D01*
X167811404Y-71729619D02*
X167811404Y-72186761D01*
X167811404Y-71958190D02*
X167011404Y-71958190D01*
X167125690Y-72034380D01*
X167201880Y-72110571D01*
X167239976Y-72186761D01*
X167087595Y-71424857D02*
X167049500Y-71386761D01*
X167011404Y-71310571D01*
X167011404Y-71120095D01*
X167049500Y-71043904D01*
X167087595Y-71005809D01*
X167163785Y-70967714D01*
X167239976Y-70967714D01*
X167354261Y-71005809D01*
X167811404Y-71462952D01*
X167811404Y-70967714D01*
%TO.C,TP2*%
X148913976Y-108654904D02*
X149371119Y-108654904D01*
X149142547Y-109454904D02*
X149142547Y-108654904D01*
X149637785Y-109454904D02*
X149637785Y-108654904D01*
X149942547Y-108654904D01*
X150018738Y-108693000D01*
X150056833Y-108731095D01*
X150094928Y-108807285D01*
X150094928Y-108921571D01*
X150056833Y-108997761D01*
X150018738Y-109035857D01*
X149942547Y-109073952D01*
X149637785Y-109073952D01*
X150399690Y-108731095D02*
X150437785Y-108693000D01*
X150513976Y-108654904D01*
X150704452Y-108654904D01*
X150780642Y-108693000D01*
X150818738Y-108731095D01*
X150856833Y-108807285D01*
X150856833Y-108883476D01*
X150818738Y-108997761D01*
X150361595Y-109454904D01*
X150856833Y-109454904D01*
%TO.C,J11*%
X177333380Y-138477904D02*
X177333380Y-139049333D01*
X177295285Y-139163619D01*
X177219095Y-139239809D01*
X177104809Y-139277904D01*
X177028619Y-139277904D01*
X178133380Y-139277904D02*
X177676238Y-139277904D01*
X177904809Y-139277904D02*
X177904809Y-138477904D01*
X177828619Y-138592190D01*
X177752428Y-138668380D01*
X177676238Y-138706476D01*
X178895285Y-139277904D02*
X178438142Y-139277904D01*
X178666714Y-139277904D02*
X178666714Y-138477904D01*
X178590523Y-138592190D01*
X178514333Y-138668380D01*
X178438142Y-138706476D01*
%TO.C,NT1*%
X184441904Y-138709285D02*
X183641904Y-138709285D01*
X184441904Y-138252142D01*
X183641904Y-138252142D01*
X183641904Y-137985476D02*
X183641904Y-137528333D01*
X184441904Y-137756904D02*
X183641904Y-137756904D01*
X184441904Y-136842619D02*
X184441904Y-137299761D01*
X184441904Y-137071190D02*
X183641904Y-137071190D01*
X183756190Y-137147380D01*
X183832380Y-137223571D01*
X183870476Y-137299761D01*
%TO.C,J10*%
X182549880Y-71189904D02*
X182549880Y-71761333D01*
X182511785Y-71875619D01*
X182435595Y-71951809D01*
X182321309Y-71989904D01*
X182245119Y-71989904D01*
X183349880Y-71989904D02*
X182892738Y-71989904D01*
X183121309Y-71989904D02*
X183121309Y-71189904D01*
X183045119Y-71304190D01*
X182968928Y-71380380D01*
X182892738Y-71418476D01*
X183845119Y-71189904D02*
X183921309Y-71189904D01*
X183997500Y-71228000D01*
X184035595Y-71266095D01*
X184073690Y-71342285D01*
X184111785Y-71494666D01*
X184111785Y-71685142D01*
X184073690Y-71837523D01*
X184035595Y-71913714D01*
X183997500Y-71951809D01*
X183921309Y-71989904D01*
X183845119Y-71989904D01*
X183768928Y-71951809D01*
X183730833Y-71913714D01*
X183692738Y-71837523D01*
X183654642Y-71685142D01*
X183654642Y-71494666D01*
X183692738Y-71342285D01*
X183730833Y-71266095D01*
X183768928Y-71228000D01*
X183845119Y-71189904D01*
%TO.C,U1*%
X159321476Y-93418904D02*
X159321476Y-94066523D01*
X159359571Y-94142714D01*
X159397666Y-94180809D01*
X159473857Y-94218904D01*
X159626238Y-94218904D01*
X159702428Y-94180809D01*
X159740523Y-94142714D01*
X159778619Y-94066523D01*
X159778619Y-93418904D01*
X160578619Y-94218904D02*
X160121476Y-94218904D01*
X160350047Y-94218904D02*
X160350047Y-93418904D01*
X160273857Y-93533190D01*
X160197666Y-93609380D01*
X160121476Y-93647476D01*
%TO.C,TP1*%
X148977476Y-100602904D02*
X149434619Y-100602904D01*
X149206047Y-101402904D02*
X149206047Y-100602904D01*
X149701285Y-101402904D02*
X149701285Y-100602904D01*
X150006047Y-100602904D01*
X150082238Y-100641000D01*
X150120333Y-100679095D01*
X150158428Y-100755285D01*
X150158428Y-100869571D01*
X150120333Y-100945761D01*
X150082238Y-100983857D01*
X150006047Y-101021952D01*
X149701285Y-101021952D01*
X150920333Y-101402904D02*
X150463190Y-101402904D01*
X150691761Y-101402904D02*
X150691761Y-100602904D01*
X150615571Y-100717190D01*
X150539380Y-100793380D01*
X150463190Y-100831476D01*
%TO.C,D4*%
X176955523Y-132441904D02*
X176955523Y-131641904D01*
X177146000Y-131641904D01*
X177260285Y-131680000D01*
X177336476Y-131756190D01*
X177374571Y-131832380D01*
X177412666Y-131984761D01*
X177412666Y-132099047D01*
X177374571Y-132251428D01*
X177336476Y-132327619D01*
X177260285Y-132403809D01*
X177146000Y-132441904D01*
X176955523Y-132441904D01*
X178098380Y-131908571D02*
X178098380Y-132441904D01*
X177907904Y-131603809D02*
X177717428Y-132175238D01*
X178212666Y-132175238D01*
%TO.C,D3*%
X176955523Y-128885904D02*
X176955523Y-128085904D01*
X177146000Y-128085904D01*
X177260285Y-128124000D01*
X177336476Y-128200190D01*
X177374571Y-128276380D01*
X177412666Y-128428761D01*
X177412666Y-128543047D01*
X177374571Y-128695428D01*
X177336476Y-128771619D01*
X177260285Y-128847809D01*
X177146000Y-128885904D01*
X176955523Y-128885904D01*
X177679333Y-128085904D02*
X178174571Y-128085904D01*
X177907904Y-128390666D01*
X178022190Y-128390666D01*
X178098380Y-128428761D01*
X178136476Y-128466857D01*
X178174571Y-128543047D01*
X178174571Y-128733523D01*
X178136476Y-128809714D01*
X178098380Y-128847809D01*
X178022190Y-128885904D01*
X177793619Y-128885904D01*
X177717428Y-128847809D01*
X177679333Y-128809714D01*
%TO.C,J9*%
X195821333Y-135451904D02*
X195821333Y-136023333D01*
X195783238Y-136137619D01*
X195707047Y-136213809D01*
X195592761Y-136251904D01*
X195516571Y-136251904D01*
X196240380Y-136251904D02*
X196392761Y-136251904D01*
X196468952Y-136213809D01*
X196507047Y-136175714D01*
X196583238Y-136061428D01*
X196621333Y-135909047D01*
X196621333Y-135604285D01*
X196583238Y-135528095D01*
X196545142Y-135490000D01*
X196468952Y-135451904D01*
X196316571Y-135451904D01*
X196240380Y-135490000D01*
X196202285Y-135528095D01*
X196164190Y-135604285D01*
X196164190Y-135794761D01*
X196202285Y-135870952D01*
X196240380Y-135909047D01*
X196316571Y-135947142D01*
X196468952Y-135947142D01*
X196545142Y-135909047D01*
X196583238Y-135870952D01*
X196621333Y-135794761D01*
%TO.C,U2*%
X178968476Y-96843904D02*
X178968476Y-97491523D01*
X179006571Y-97567714D01*
X179044666Y-97605809D01*
X179120857Y-97643904D01*
X179273238Y-97643904D01*
X179349428Y-97605809D01*
X179387523Y-97567714D01*
X179425619Y-97491523D01*
X179425619Y-96843904D01*
X179768476Y-96920095D02*
X179806571Y-96882000D01*
X179882761Y-96843904D01*
X180073238Y-96843904D01*
X180149428Y-96882000D01*
X180187523Y-96920095D01*
X180225619Y-96996285D01*
X180225619Y-97072476D01*
X180187523Y-97186761D01*
X179730380Y-97643904D01*
X180225619Y-97643904D01*
%TO.C,J4*%
X129273333Y-144131904D02*
X129273333Y-144703333D01*
X129235238Y-144817619D01*
X129159047Y-144893809D01*
X129044761Y-144931904D01*
X128968571Y-144931904D01*
X129997142Y-144398571D02*
X129997142Y-144931904D01*
X129806666Y-144093809D02*
X129616190Y-144665238D01*
X130111428Y-144665238D01*
%TO.C,J3*%
X131813333Y-145611904D02*
X131813333Y-146183333D01*
X131775238Y-146297619D01*
X131699047Y-146373809D01*
X131584761Y-146411904D01*
X131508571Y-146411904D01*
X132118095Y-145611904D02*
X132613333Y-145611904D01*
X132346666Y-145916666D01*
X132460952Y-145916666D01*
X132537142Y-145954761D01*
X132575238Y-145992857D01*
X132613333Y-146069047D01*
X132613333Y-146259523D01*
X132575238Y-146335714D01*
X132537142Y-146373809D01*
X132460952Y-146411904D01*
X132232380Y-146411904D01*
X132156190Y-146373809D01*
X132118095Y-146335714D01*
%TO.C,J2*%
X134353333Y-144131904D02*
X134353333Y-144703333D01*
X134315238Y-144817619D01*
X134239047Y-144893809D01*
X134124761Y-144931904D01*
X134048571Y-144931904D01*
X134696190Y-144208095D02*
X134734285Y-144170000D01*
X134810476Y-144131904D01*
X135000952Y-144131904D01*
X135077142Y-144170000D01*
X135115238Y-144208095D01*
X135153333Y-144284285D01*
X135153333Y-144360476D01*
X135115238Y-144474761D01*
X134658095Y-144931904D01*
X135153333Y-144931904D01*
%TO.C,J1*%
X136893333Y-145611904D02*
X136893333Y-146183333D01*
X136855238Y-146297619D01*
X136779047Y-146373809D01*
X136664761Y-146411904D01*
X136588571Y-146411904D01*
X137693333Y-146411904D02*
X137236190Y-146411904D01*
X137464761Y-146411904D02*
X137464761Y-145611904D01*
X137388571Y-145726190D01*
X137312380Y-145802380D01*
X137236190Y-145840476D01*
%TO.C,U4*%
X194843476Y-128339904D02*
X194843476Y-128987523D01*
X194881571Y-129063714D01*
X194919666Y-129101809D01*
X194995857Y-129139904D01*
X195148238Y-129139904D01*
X195224428Y-129101809D01*
X195262523Y-129063714D01*
X195300619Y-128987523D01*
X195300619Y-128339904D01*
X196024428Y-128606571D02*
X196024428Y-129139904D01*
X195833952Y-128301809D02*
X195643476Y-128873238D01*
X196138714Y-128873238D01*
%TO.C,J6*%
X193935404Y-77736666D02*
X194506833Y-77736666D01*
X194621119Y-77774761D01*
X194697309Y-77850952D01*
X194735404Y-77965238D01*
X194735404Y-78041428D01*
X193935404Y-77012857D02*
X193935404Y-77165238D01*
X193973500Y-77241428D01*
X194011595Y-77279523D01*
X194125880Y-77355714D01*
X194278261Y-77393809D01*
X194583023Y-77393809D01*
X194659214Y-77355714D01*
X194697309Y-77317619D01*
X194735404Y-77241428D01*
X194735404Y-77089047D01*
X194697309Y-77012857D01*
X194659214Y-76974761D01*
X194583023Y-76936666D01*
X194392547Y-76936666D01*
X194316357Y-76974761D01*
X194278261Y-77012857D01*
X194240166Y-77089047D01*
X194240166Y-77241428D01*
X194278261Y-77317619D01*
X194316357Y-77355714D01*
X194392547Y-77393809D01*
%TO.C,D1*%
X135553523Y-74021904D02*
X135553523Y-73221904D01*
X135744000Y-73221904D01*
X135858285Y-73260000D01*
X135934476Y-73336190D01*
X135972571Y-73412380D01*
X136010666Y-73564761D01*
X136010666Y-73679047D01*
X135972571Y-73831428D01*
X135934476Y-73907619D01*
X135858285Y-73983809D01*
X135744000Y-74021904D01*
X135553523Y-74021904D01*
X136772571Y-74021904D02*
X136315428Y-74021904D01*
X136544000Y-74021904D02*
X136544000Y-73221904D01*
X136467809Y-73336190D01*
X136391619Y-73412380D01*
X136315428Y-73450476D01*
%TD*%
M02*
