M48
; DRILL file {KiCad (5.1.8-0-10_14)} date Tuesday, December 08, 2020 at 12:39:36 PM
; FORMAT={-:-/ absolute / inch / decimal}
; #@! TF.CreationDate,2020-12-08T12:39:36+00:00
; #@! TF.GenerationSoftware,Kicad,Pcbnew,(5.1.8-0-10_14)
; #@! TF.FileFunction,Plated,1,4,PTH
FMAT,2
INCH
T1C0.0079
T2C0.0236
T3C0.0335
T4C0.0394
%
G90
G05
T1
X5.04Y-4.54
X5.1Y-5.72
X5.1Y-5.87
X5.2Y-2.8
X5.2Y-5.65
X5.2Y-5.8
X5.22Y-4.15
X5.3Y-5.72
X5.3Y-5.87
X5.4Y-2.8
X5.4Y-5.65
X5.4Y-5.8
X5.488Y-3.282
X5.49Y-3.5175
X5.491Y-4.44
X5.5Y-5.72
X5.5Y-5.87
X5.504Y-4.375
X5.53Y-3.145
X5.53Y-3.282
X5.55Y-4.1225
X5.6Y-2.8
X5.6Y-3.05
X5.6Y-5.65
X5.6Y-5.8
X5.7Y-4.277
X5.7Y-5.72
X5.7Y-5.87
X5.7Y-4.3
X5.758Y-4.124
X5.8Y-2.8
X5.8Y-5.65
X5.812Y-3.01
X5.813Y-2.884
X5.875Y-3.04
X5.875Y-3.145
X5.876Y-3.538
X5.897Y-3.861
X5.9Y-3.96
X5.9Y-5.87
X5.902Y-4.105
X5.915Y-4.475
X5.92Y-3.145
X5.92Y-3.4
X5.94Y-3.582
X5.94Y-3.607
X5.945Y-4.545
X5.946Y-3.971
X5.957Y-4.034
X5.965Y-3.145
X5.983Y-4.018
X5.996Y-3.766
X6.0Y-2.8
X6.0Y-5.49
X6.005Y-5.6325
X6.005Y-3.145
X6.013Y-4.354
X6.029Y-4.192
X6.03Y-4.0325
X6.031Y-5.6325
X6.0325Y-3.7204
X6.059Y-3.845
X6.059Y-3.8765
X6.06Y-4.1275
X6.06Y-3.939
X6.06Y-4.159
X6.06Y-4.192
X6.06Y-4.254
X6.061Y-4.065
X6.061Y-4.095
X6.0614Y-3.9709
X6.09Y-3.698
X6.0906Y-4.2229
X6.0915Y-4.286
X6.092Y-3.813
X6.092Y-3.939
X6.092Y-3.971
X6.092Y-4.159
X6.092Y-4.254
X6.0925Y-4.034
X6.0925Y-4.192
X6.0941Y-3.4648
X6.1Y-2.9
X6.1Y-5.42
X6.1Y-5.87
X6.123Y-4.033
X6.123Y-4.1284
X6.1235Y-3.813
X6.1235Y-3.971
X6.1235Y-4.065
X6.1235Y-4.254
X6.1235Y-4.286
X6.1242Y-3.9392
X6.126Y-3.501
X6.127Y-3.67
X6.135Y-3.145
X6.151Y-3.526
X6.154Y-4.128
X6.1545Y-3.8445
X6.1545Y-4.254
X6.1545Y-4.286
X6.155Y-3.782
X6.155Y-3.666
X6.155Y-3.813
X6.155Y-3.907
X6.155Y-3.971
X6.155Y-4.0015
X6.155Y-4.19
X6.159Y-3.419
X6.18Y-3.145
X6.186Y-3.938
X6.186Y-4.034
X6.186Y-4.065
X6.1861Y-3.813
X6.1865Y-3.8445
X6.1865Y-4.0015
X6.1865Y-4.254
X6.187Y-3.971
X6.187Y-4.097
X6.187Y-4.286
X6.1873Y-4.1263
X6.195Y-3.341
X6.2Y-2.8
X6.2Y-5.49
X6.2Y-5.65
X6.2Y-3.485
X6.217Y-3.907
X6.2175Y-3.813
X6.218Y-3.939
X6.218Y-3.971
X6.218Y-4.0015
X6.218Y-4.254
X6.2185Y-4.034
X6.224Y-3.01
X6.2325Y-3.405
X6.249Y-3.8445
X6.249Y-3.908
X6.249Y-3.939
X6.249Y-4.034
X6.249Y-4.0655
X6.249Y-4.286
X6.2495Y-4.16
X6.25Y-3.813
X6.25Y-3.971
X6.25Y-4.0965
X6.25Y-4.125
X6.25Y-4.19
X6.25Y-4.254
X6.28Y-3.8445
X6.28Y-4.0965
X6.2805Y-3.813
X6.2805Y-4.254
X6.2805Y-4.286
X6.281Y-3.9075
X6.281Y-3.939
X6.281Y-3.971
X6.281Y-4.034
X6.281Y-4.0645
X6.281Y-4.222
X6.3Y-2.9
X6.3Y-3.1
X6.3Y-5.15
X6.3Y-5.3
X6.3Y-5.42
X6.3Y-5.57
X6.3Y-5.72
X6.3Y-5.87
X6.3072Y-3.1902
X6.312Y-3.908
X6.312Y-3.937
X6.312Y-4.16
X6.312Y-4.286
X6.312Y-4.534
X6.3127Y-3.971
X6.313Y-4.034
X6.313Y-4.065
X6.313Y-4.0965
X6.313Y-4.128
X6.313Y-4.254
X6.32Y-3.4175
X6.328Y-4.515
X6.33Y-3.375
X6.343Y-3.814
X6.3435Y-3.8445
X6.3435Y-4.1275
X6.3435Y-4.254
X6.344Y-3.9075
X6.344Y-3.939
X6.344Y-3.971
X6.344Y-4.0015
X6.344Y-4.0645
X6.344Y-4.0965
X6.344Y-4.16
X6.344Y-4.191
X6.344Y-4.286
X6.344Y-4.535
X6.3443Y-3.876
X6.3445Y-4.034
X6.36Y-3.45
X6.36Y-4.515
X6.364Y-3.205
X6.375Y-3.7815
X6.375Y-3.845
X6.375Y-3.971
X6.375Y-4.0965
X6.375Y-4.253
X6.375Y-4.3174
X6.3757Y-4.2213
X6.376Y-3.813
X6.3899Y-4.4
X6.39Y-3.49
X6.4Y-2.8
X6.4Y-3.0
X6.4Y-5.65
X6.405Y-3.648
X6.406Y-3.8444
X6.4064Y-4.381
X6.4065Y-4.16
X6.407Y-3.9075
X6.407Y-3.939
X6.407Y-4.002
X6.407Y-4.034
X6.407Y-4.0965
X6.407Y-4.128
X6.407Y-4.191
X6.407Y-4.222
X6.407Y-4.253
X6.4075Y-3.97
X6.4075Y-4.065
X6.4186Y-4.4
X6.425Y-3.3
X6.438Y-4.222
X6.4385Y-3.9075
X6.4385Y-4.254
X6.439Y-4.034
X6.439Y-4.065
X6.439Y-4.128
X6.439Y-4.191
X6.439Y-4.0965
X6.439Y-4.16
X6.4396Y-3.8444
X6.45Y-4.75
X6.4536Y-4.7
X6.4689Y-4.6161
X6.469Y-3.939
X6.469Y-3.8444
X6.4695Y-4.0965
X6.47Y-3.9075
X6.47Y-4.0015
X6.47Y-4.034
X6.47Y-4.1275
X6.47Y-4.2539
X6.47Y-4.284
X6.47Y-5.03
X6.471Y-4.063
X6.475Y-3.25
X6.4843Y-4.6408
X6.4996Y-4.6144
X6.5Y-2.9
X6.5Y-3.5
X6.5Y-3.9705
X6.5Y-4.191
X6.5Y-5.42
X6.5Y-5.56
X6.5Y-5.87
X6.5005Y-4.0645
X6.5005Y-4.159
X6.5005Y-3.8135
X6.501Y-3.845
X6.501Y-3.875
X6.501Y-3.907
X6.501Y-4.001
X6.5015Y-4.0345
X6.5019Y-4.285
X6.502Y-4.316
X6.5024Y-3.7801
X6.5044Y-5.64
X6.51Y-5.03
X6.515Y-4.639
X6.525Y-3.2
X6.53Y-5.64
X6.5304Y-4.72
X6.5313Y-4.0644
X6.532Y-4.318
X6.5325Y-4.0965
X6.5325Y-4.128
X6.5325Y-4.2225
X6.5326Y-4.158
X6.5327Y-4.1942
X6.5329Y-3.908
X6.533Y-4.0039
X6.533Y-3.749
X6.533Y-3.8136
X6.533Y-3.845
X6.533Y-3.8756
X6.533Y-4.254
X6.533Y-4.034
X6.5335Y-3.97
X6.55Y-4.993
X6.5635Y-4.158
X6.5635Y-4.035
X6.564Y-3.781
X6.564Y-3.9723
X6.564Y-4.254
X6.5643Y-4.0654
X6.5644Y-4.1277
X6.5647Y-4.2851
X6.565Y-3.907
X6.5655Y-4.351
X6.573Y-4.2065
X6.585Y-4.3914
X6.585Y-4.4126
X6.594Y-4.3456
X6.596Y-4.804
X6.596Y-4.998
X6.597Y-3.844
X6.6Y-2.8
X6.6Y-3.4
X6.6Y-4.6
X6.6Y-5.2
X6.6Y-5.49
X6.6Y-5.63
X6.6005Y-3.9235
X6.601Y-4.207
X6.6025Y-3.9894
X6.603Y-4.237
X6.605Y-3.708
X6.606Y-4.098
X6.608Y-4.05
X6.612Y-3.008
X6.619Y-4.281
X6.639Y-4.098
X6.647Y-4.281
X6.647Y-4.344
X6.666Y-3.44
X6.667Y-3.48
X6.667Y-3.52
X6.675Y-3.145
X6.7Y-2.9
X6.7Y-4.525
X6.7Y-4.72
X6.7Y-5.3
X6.7Y-5.56
X6.7Y-5.71
X6.7Y-5.87
X6.706Y-4.434
X6.7185Y-3.2375
X6.72Y-3.145
X6.75Y-3.35
X6.765Y-3.145
X6.8Y-2.8
X6.8Y-5.2
X6.8Y-5.63
X6.8Y-5.79
X6.805Y-3.145
X6.848Y-3.882
X6.89Y-3.876
X6.9Y-2.9
X6.9Y-3.3
X6.9Y-4.525
X6.9Y-5.87
X6.925Y-5.1
X6.935Y-3.145
X6.94Y-5.2
X6.94Y-5.32
X6.98Y-3.145
X6.995Y-3.876
X7.0Y-2.8
X7.0Y-4.6
X7.014Y-4.159
X7.023Y-4.282
X7.024Y-3.008
X7.041Y-3.871
X7.041Y-4.234
X7.046Y-3.9394
X7.0637Y-3.8927
X7.0638Y-4.1984
X7.0655Y-4.2739
X7.08Y-4.1292
X7.08Y-4.16
X7.0953Y-4.1984
X7.0955Y-3.8926
X7.1Y-2.9
X7.1Y-3.1
X7.1Y-4.525
X7.1Y-4.675
X7.1Y-5.3
X7.1Y-5.41
X7.1Y-5.57
X7.1Y-5.87
X7.111Y-3.94
X7.111Y-3.9686
X7.111Y-4.1605
X7.111Y-4.1277
X7.1252Y-4.1984
X7.127Y-3.893
X7.1407Y-4.0017
X7.1425Y-4.1603
X7.143Y-3.9395
X7.143Y-4.097
X7.157Y-3.894
X7.1572Y-4.1984
X7.174Y-4.129
X7.1744Y-4.0024
X7.175Y-3.939
X7.175Y-4.2241
X7.1898Y-3.9072
X7.1898Y-4.1984
X7.2Y-3.35
X7.2Y-4.6
X7.2Y-4.75
X7.2Y-4.87
X7.2Y-4.98
X7.2Y-5.475
X7.2Y-5.79
X7.2035Y-4.2241
X7.205Y-4.098
X7.2055Y-4.003
X7.206Y-3.9708
X7.237Y-3.94
X7.2375Y-4.1597
X7.2375Y-3.9708
X7.2377Y-4.191
X7.238Y-3.91
X7.247Y-4.0825
X7.25Y-5.1
X7.268Y-2.999
X7.2685Y-3.971
X7.269Y-3.9395
X7.269Y-4.16
X7.271Y-4.088
X7.28Y-3.575
X7.29Y-2.79
X7.295Y-4.083
X7.2995Y-3.9715
X7.3Y-2.975
X7.3Y-3.9395
X7.3Y-4.525
X7.3Y-4.68
X7.3Y-4.81
X7.3Y-4.93
X7.3Y-5.3
X7.3Y-5.5
X7.3Y-5.71
X7.3Y-5.87
X7.3002Y-4.16
X7.3005Y-4.129
X7.3067Y-5.227
X7.316Y-4.227
X7.331Y-3.972
X7.332Y-4.096
X7.332Y-4.193
X7.3592Y-4.9092
X7.363Y-3.9398
X7.363Y-4.16
X7.3647Y-4.1282
X7.3664Y-3.9709
X7.379Y-3.903
X7.382Y-4.206
X7.388Y-4.228
X7.4Y-2.9
X7.4Y-3.35
X7.4Y-4.6
X7.4Y-4.75
X7.4Y-4.87
X7.4Y-5.4
X7.4Y-5.79
X7.406Y-4.086
X7.42Y-5.2
X7.425Y-3.9715
X7.425Y-4.0037
X7.4255Y-4.128
X7.4255Y-4.16
X7.4555Y-4.0025
X7.4565Y-4.1287
X7.4567Y-4.098
X7.457Y-3.907
X7.457Y-3.9715
X7.4585Y-4.16
X7.488Y-3.9715
X7.4887Y-4.16
X7.489Y-3.9395
X7.4891Y-4.4459
X7.4895Y-4.098
X7.5Y-2.975
X7.5Y-3.125
X7.5Y-3.575
X7.5Y-3.725
X7.5Y-4.68
X7.5Y-4.81
X7.5Y-4.93
X7.5Y-5.05
X7.5Y-5.72
X7.5Y-5.87
X7.504Y-4.004
X7.5047Y-3.903
X7.5049Y-4.1958
X7.5123Y-4.3707
X7.52Y-4.16
X7.5205Y-3.9395
X7.5205Y-3.9705
X7.5205Y-4.129
X7.525Y-3.255
X7.5362Y-3.903
X7.537Y-4.1975
X7.5525Y-4.16
X7.6Y-2.9
X7.6Y-3.05
X7.6Y-3.8
X7.6Y-4.6
X7.6Y-4.87
X7.6Y-4.99
X7.6Y-5.2
X7.6Y-5.34
X7.6Y-5.64
X7.6Y-5.79
X7.69Y-4.93
X7.69Y-5.06
X7.7Y-2.825
X7.7Y-2.975
X7.7Y-3.125
X7.7Y-3.275
X7.7Y-3.725
X7.7Y-3.875
X7.7Y-4.1
X7.7Y-4.3
X7.7Y-4.525
X7.7Y-4.675
X7.7Y-5.27
T3
X5.9326Y-5.6944
X6.1294Y-5.6944
X6.4316Y-5.6974
X6.6284Y-5.6974
T4
X5.6Y-4.0
X5.6Y-4.1
X5.6Y-4.2
X5.7Y-4.0
X5.7Y-4.1
X5.7Y-4.2
X5.2Y-3.0
X5.2Y-3.1
X5.2Y-3.2
X5.2Y-3.3
X5.2Y-3.4
X5.2Y-3.5
X5.2Y-3.6
X5.2Y-3.7
X5.2Y-3.8
X5.2Y-3.9
X5.2Y-4.0
X5.2Y-4.1
X5.2Y-4.2
X5.2Y-4.3
X5.2Y-4.4
X5.2Y-4.5
X5.2Y-4.6
X5.2Y-4.7
X5.2Y-4.8
X5.2Y-4.9
X5.2Y-5.0
X5.2Y-5.1
X5.2Y-5.2
X5.2Y-5.3
X5.2Y-5.4
X5.2Y-5.5
X5.2Y-5.6
X5.1Y-3.0
X5.1Y-3.1
X5.1Y-3.2
X5.1Y-3.3
X5.1Y-3.4
X5.1Y-3.5
X5.1Y-3.6
X5.1Y-3.7
X5.1Y-3.8
X5.1Y-3.9
X5.1Y-4.0
X5.1Y-4.1
X5.1Y-4.2
X5.1Y-4.3
X5.1Y-4.4
X5.1Y-4.5
X5.1Y-4.6
X5.1Y-4.7
X5.1Y-4.8
X5.1Y-4.9
X5.1Y-5.0
X5.1Y-5.1
X5.1Y-5.2
X5.1Y-5.3
X5.1Y-5.4
X5.1Y-5.5
X5.1Y-5.6
X5.3Y-3.0
X5.3Y-3.1
X5.3Y-3.2
X5.3Y-3.3
X5.3Y-3.4
X5.3Y-3.5
X5.3Y-3.6
X5.3Y-3.7
X5.3Y-3.8
X5.3Y-3.9
X5.3Y-4.0
X5.3Y-4.1
X5.3Y-4.2
X5.3Y-4.3
X5.3Y-4.4
X5.3Y-4.5
X5.3Y-4.6
X5.3Y-4.7
X5.3Y-4.8
X5.3Y-4.9
X5.3Y-5.0
X5.3Y-5.1
X5.3Y-5.2
X5.3Y-5.3
X5.3Y-5.4
X5.3Y-5.5
X5.3Y-5.6
X7.0Y-3.5
X7.1Y-3.5
X7.2Y-3.5
X7.3Y-3.5
X7.4Y-3.5
X7.5Y-3.5
X7.6Y-3.5
X7.7Y-3.5
X5.4Y-3.0
X5.4Y-3.1
X5.4Y-3.2
X5.4Y-3.3
X5.4Y-3.4
X5.4Y-3.5
X5.4Y-3.6
X5.4Y-3.7
X5.4Y-3.8
X5.4Y-3.9
X5.4Y-4.0
X5.4Y-4.1
X5.4Y-4.2
X5.4Y-4.3
X5.4Y-4.4
X5.4Y-4.5
X5.4Y-4.6
X5.4Y-4.7
X5.4Y-4.8
X5.4Y-4.9
X5.4Y-5.0
X5.4Y-5.1
X5.4Y-5.2
X5.4Y-5.3
X5.4Y-5.4
X5.4Y-5.5
X5.4Y-5.6
T2
G00X5.8932Y-5.8145
M15
G01X5.8932Y-5.7869
M16
G05
G00X6.1688Y-5.7869
M15
G01X6.1688Y-5.8145
M16
G05
G00X6.3922Y-5.8175
M15
G01X6.3922Y-5.7899
M16
G05
G00X6.6678Y-5.7899
M15
G01X6.6678Y-5.8175
M16
G05
T4
G00X7.4606Y-5.35
M15
G01X7.5394Y-5.35
M16
G05
G00X7.4606Y-5.5862
M15
G01X7.5394Y-5.5862
M16
G05
G00X7.685Y-5.5075
M15
G01X7.685Y-5.4287
M16
G05
T0
M30
