<?xml version="1.0" standalone="no"?>
 <!DOCTYPE svg PUBLIC "-//W3C//DTD SVG 1.1//EN" 
 "http://www.w3.org/Graphics/SVG/1.1/DTD/svg11.dtd"> 
<svg
  xmlns:svg="http://www.w3.org/2000/svg"
  xmlns="http://www.w3.org/2000/svg"
  xmlns:xlink="http://www.w3.org/1999/xlink"
  version="1.1"
  width="29.700220cm" height="21.000720cm" viewBox="0 0 116930 82680">
<title>SVG Picture created as MicroSD-GPIO-SDIO1.svg date 2021/05/02 15:59:22 </title>
  <desc>Picture generated by Eeschema-SVG </desc>
<g style="fill:#000000; fill-opacity:1;stroke:#000000; stroke-opacity:1;
stroke-linecap:round; stroke-linejoin:round;"
 transform="translate(0 0) scale(1 1)">
</g>
<g style="fill:#000000; fill-opacity:0.0; 
stroke:#000000; stroke-width:-10; stroke-opacity:1; 
stroke-linecap:round; stroke-linejoin:round;">
</g>
<g style="fill:#840000; fill-opacity:0.0; 
stroke:#840000; stroke-width:-10; stroke-opacity:1; 
stroke-linecap:round; stroke-linejoin:round;">
</g>
<g style="fill:#840000; fill-opacity:0.0; 
stroke:#840000; stroke-width:100; stroke-opacity:1; 
stroke-linecap:round; stroke-linejoin:round;">
</g>
<g style="fill:#840000; fill-opacity:0.0; 
stroke:#840000; stroke-width:60; stroke-opacity:1; 
stroke-linecap:round; stroke-linejoin:round;">
<rect x="69690" y="65360" width="42520" height="12600" rx="0" />
</g>
<g style="fill:#840000; fill-opacity:0.0; 
stroke:#840000; stroke-width:100; stroke-opacity:1; 
stroke-linecap:round; stroke-linejoin:round;">
</g>
<g style="fill:#840000; fill-opacity:0.0; 
stroke:#840000; stroke-width:60; stroke-opacity:1; 
stroke-linecap:round; stroke-linejoin:round;">
<rect x="3940" y="3940" width="109050" height="74800" rx="0" />
</g>
<g style="fill:#840000; fill-opacity:0.0; 
stroke:#840000; stroke-width:100; stroke-opacity:1; 
stroke-linecap:round; stroke-linejoin:round;">
</g>
<g style="fill:#840000; fill-opacity:0.0; 
stroke:#840000; stroke-width:60; stroke-opacity:1; 
stroke-linecap:round; stroke-linejoin:round;">
<rect x="4720" y="4720" width="107490" height="73240" rx="0" />
</g>
<g style="fill:#840000; fill-opacity:0.0; 
stroke:#840000; stroke-width:100; stroke-opacity:1; 
stroke-linecap:round; stroke-linejoin:round;">
</g>
<g style="fill:#840000; fill-opacity:0.0; 
stroke:#840000; stroke-width:60; stroke-opacity:1; 
stroke-linecap:round; stroke-linejoin:round;">
<path d="M23620 4720
L23620 3940
" />
</g>
<g style="fill:#840000; fill-opacity:0.0; 
stroke:#840000; stroke-width:100; stroke-opacity:1; 
stroke-linecap:round; stroke-linejoin:round;">
</g>
<g style="fill:#840000; fill-opacity:0.0; 
stroke:#840000; stroke-width:60; stroke-opacity:1; 
stroke-linecap:round; stroke-linejoin:round;">
<path d="M43310 4720
L43310 3940
" />
</g>
<g style="fill:#840000; fill-opacity:0.0; 
stroke:#840000; stroke-width:100; stroke-opacity:1; 
stroke-linecap:round; stroke-linejoin:round;">
</g>
<g style="fill:#840000; fill-opacity:0.0; 
stroke:#840000; stroke-width:60; stroke-opacity:1; 
stroke-linecap:round; stroke-linejoin:round;">
<path d="M62990 4720
L62990 3940
" />
</g>
<g style="fill:#840000; fill-opacity:0.0; 
stroke:#840000; stroke-width:100; stroke-opacity:1; 
stroke-linecap:round; stroke-linejoin:round;">
</g>
<g style="fill:#840000; fill-opacity:0.0; 
stroke:#840000; stroke-width:60; stroke-opacity:1; 
stroke-linecap:round; stroke-linejoin:round;">
<path d="M82680 4720
L82680 3940
" />
</g>
<g style="fill:#840000; fill-opacity:0.0; 
stroke:#840000; stroke-width:100; stroke-opacity:1; 
stroke-linecap:round; stroke-linejoin:round;">
</g>
<g style="fill:#840000; fill-opacity:0.0; 
stroke:#840000; stroke-width:60; stroke-opacity:1; 
stroke-linecap:round; stroke-linejoin:round;">
<path d="M102360 4720
L102360 3940
" />
</g>
<g style="fill:#840000; fill-opacity:0.0; 
stroke:#840000; stroke-width:100; stroke-opacity:1; 
stroke-linecap:round; stroke-linejoin:round;">
</g>
<g style="fill:#840000; fill-opacity:0.0; 
stroke:#840000; stroke-width:60; stroke-opacity:1; 
stroke-linecap:round; stroke-linejoin:round;">
<text x="13780" y="4580"
textLength="550" font-size="680" lengthAdjust="spacingAndGlyphs"
text-anchor="start" opacity="0">1</text>
<path d="M14190 4560
L13900 4560
" />
<path d="M14050 4560
L14050 4050
L14000 4120
L13950 4170
L13900 4190
" />
</g>
<g style="fill:#840000; fill-opacity:0.0; 
stroke:#840000; stroke-width:100; stroke-opacity:1; 
stroke-linecap:round; stroke-linejoin:round;">
</g>
<g style="fill:#840000; fill-opacity:0.0; 
stroke:#840000; stroke-width:60; stroke-opacity:1; 
stroke-linecap:round; stroke-linejoin:round;">
<text x="33460" y="4580"
textLength="550" font-size="680" lengthAdjust="spacingAndGlyphs"
text-anchor="start" opacity="0">2</text>
<path d="M33580 4090
L33610 4070
L33660 4050
L33780 4050
L33830 4070
L33850 4090
L33870 4140
L33870 4190
L33850 4260
L33560 4560
L33870 4560
" />
</g>
<g style="fill:#840000; fill-opacity:0.0; 
stroke:#840000; stroke-width:100; stroke-opacity:1; 
stroke-linecap:round; stroke-linejoin:round;">
</g>
<g style="fill:#840000; fill-opacity:0.0; 
stroke:#840000; stroke-width:60; stroke-opacity:1; 
stroke-linecap:round; stroke-linejoin:round;">
<text x="53150" y="4580"
textLength="550" font-size="680" lengthAdjust="spacingAndGlyphs"
text-anchor="start" opacity="0">3</text>
<path d="M53250 4050
L53560 4050
L53390 4240
L53470 4240
L53520 4260
L53540 4290
L53560 4340
L53560 4460
L53540 4510
L53520 4530
L53470 4560
L53320 4560
L53270 4530
L53250 4510
" />
</g>
<g style="fill:#840000; fill-opacity:0.0; 
stroke:#840000; stroke-width:100; stroke-opacity:1; 
stroke-linecap:round; stroke-linejoin:round;">
</g>
<g style="fill:#840000; fill-opacity:0.0; 
stroke:#840000; stroke-width:60; stroke-opacity:1; 
stroke-linecap:round; stroke-linejoin:round;">
<text x="72830" y="4580"
textLength="550" font-size="680" lengthAdjust="spacingAndGlyphs"
text-anchor="start" opacity="0">4</text>
<path d="M73200 4220
L73200 4560
" />
<path d="M73070 4020
L72950 4390
L73270 4390
" />
</g>
<g style="fill:#840000; fill-opacity:0.0; 
stroke:#840000; stroke-width:100; stroke-opacity:1; 
stroke-linecap:round; stroke-linejoin:round;">
</g>
<g style="fill:#840000; fill-opacity:0.0; 
stroke:#840000; stroke-width:60; stroke-opacity:1; 
stroke-linecap:round; stroke-linejoin:round;">
<text x="92520" y="4580"
textLength="550" font-size="680" lengthAdjust="spacingAndGlyphs"
text-anchor="start" opacity="0">5</text>
<path d="M92910 4050
L92670 4050
L92640 4290
L92670 4260
L92720 4240
L92840 4240
L92890 4260
L92910 4290
L92930 4340
L92930 4460
L92910 4510
L92890 4530
L92840 4560
L92720 4560
L92670 4530
L92640 4510
" />
</g>
<g style="fill:#840000; fill-opacity:0.0; 
stroke:#840000; stroke-width:100; stroke-opacity:1; 
stroke-linecap:round; stroke-linejoin:round;">
</g>
<g style="fill:#840000; fill-opacity:0.0; 
stroke:#840000; stroke-width:60; stroke-opacity:1; 
stroke-linecap:round; stroke-linejoin:round;">
<text x="112200" y="4580"
textLength="550" font-size="680" lengthAdjust="spacingAndGlyphs"
text-anchor="start" opacity="0">6</text>
<path d="M112570 4050
L112470 4050
L112420 4070
L112400 4090
L112350 4170
L112320 4260
L112320 4460
L112350 4510
L112370 4530
L112420 4560
L112520 4560
L112570 4530
L112590 4510
L112610 4460
L112610 4340
L112590 4290
L112570 4260
L112520 4240
L112420 4240
L112370 4260
L112350 4290
L112320 4340
" />
</g>
<g style="fill:#840000; fill-opacity:0.0; 
stroke:#840000; stroke-width:100; stroke-opacity:1; 
stroke-linecap:round; stroke-linejoin:round;">
</g>
<g style="fill:#840000; fill-opacity:0.0; 
stroke:#840000; stroke-width:60; stroke-opacity:1; 
stroke-linecap:round; stroke-linejoin:round;">
<path d="M23620 77960
L23620 78740
" />
</g>
<g style="fill:#840000; fill-opacity:0.0; 
stroke:#840000; stroke-width:100; stroke-opacity:1; 
stroke-linecap:round; stroke-linejoin:round;">
</g>
<g style="fill:#840000; fill-opacity:0.0; 
stroke:#840000; stroke-width:60; stroke-opacity:1; 
stroke-linecap:round; stroke-linejoin:round;">
<path d="M43310 77960
L43310 78740
" />
</g>
<g style="fill:#840000; fill-opacity:0.0; 
stroke:#840000; stroke-width:100; stroke-opacity:1; 
stroke-linecap:round; stroke-linejoin:round;">
</g>
<g style="fill:#840000; fill-opacity:0.0; 
stroke:#840000; stroke-width:60; stroke-opacity:1; 
stroke-linecap:round; stroke-linejoin:round;">
<path d="M62990 77960
L62990 78740
" />
</g>
<g style="fill:#840000; fill-opacity:0.0; 
stroke:#840000; stroke-width:100; stroke-opacity:1; 
stroke-linecap:round; stroke-linejoin:round;">
</g>
<g style="fill:#840000; fill-opacity:0.0; 
stroke:#840000; stroke-width:60; stroke-opacity:1; 
stroke-linecap:round; stroke-linejoin:round;">
<path d="M82680 77960
L82680 78740
" />
</g>
<g style="fill:#840000; fill-opacity:0.0; 
stroke:#840000; stroke-width:100; stroke-opacity:1; 
stroke-linecap:round; stroke-linejoin:round;">
</g>
<g style="fill:#840000; fill-opacity:0.0; 
stroke:#840000; stroke-width:60; stroke-opacity:1; 
stroke-linecap:round; stroke-linejoin:round;">
<path d="M102360 77960
L102360 78740
" />
</g>
<g style="fill:#840000; fill-opacity:0.0; 
stroke:#840000; stroke-width:100; stroke-opacity:1; 
stroke-linecap:round; stroke-linejoin:round;">
</g>
<g style="fill:#840000; fill-opacity:0.0; 
stroke:#840000; stroke-width:60; stroke-opacity:1; 
stroke-linecap:round; stroke-linejoin:round;">
<text x="13780" y="78600"
textLength="550" font-size="680" lengthAdjust="spacingAndGlyphs"
text-anchor="start" opacity="0">1</text>
<path d="M14190 78580
L13900 78580
" />
<path d="M14050 78580
L14050 78070
L14000 78140
L13950 78190
L13900 78210
" />
</g>
<g style="fill:#840000; fill-opacity:0.0; 
stroke:#840000; stroke-width:100; stroke-opacity:1; 
stroke-linecap:round; stroke-linejoin:round;">
</g>
<g style="fill:#840000; fill-opacity:0.0; 
stroke:#840000; stroke-width:60; stroke-opacity:1; 
stroke-linecap:round; stroke-linejoin:round;">
<text x="33460" y="78600"
textLength="550" font-size="680" lengthAdjust="spacingAndGlyphs"
text-anchor="start" opacity="0">2</text>
<path d="M33580 78110
L33610 78090
L33660 78070
L33780 78070
L33830 78090
L33850 78110
L33870 78160
L33870 78210
L33850 78280
L33560 78580
L33870 78580
" />
</g>
<g style="fill:#840000; fill-opacity:0.0; 
stroke:#840000; stroke-width:100; stroke-opacity:1; 
stroke-linecap:round; stroke-linejoin:round;">
</g>
<g style="fill:#840000; fill-opacity:0.0; 
stroke:#840000; stroke-width:60; stroke-opacity:1; 
stroke-linecap:round; stroke-linejoin:round;">
<text x="53150" y="78600"
textLength="550" font-size="680" lengthAdjust="spacingAndGlyphs"
text-anchor="start" opacity="0">3</text>
<path d="M53250 78070
L53560 78070
L53390 78260
L53470 78260
L53520 78280
L53540 78310
L53560 78360
L53560 78480
L53540 78530
L53520 78550
L53470 78580
L53320 78580
L53270 78550
L53250 78530
" />
</g>
<g style="fill:#840000; fill-opacity:0.0; 
stroke:#840000; stroke-width:100; stroke-opacity:1; 
stroke-linecap:round; stroke-linejoin:round;">
</g>
<g style="fill:#840000; fill-opacity:0.0; 
stroke:#840000; stroke-width:60; stroke-opacity:1; 
stroke-linecap:round; stroke-linejoin:round;">
<text x="72830" y="78600"
textLength="550" font-size="680" lengthAdjust="spacingAndGlyphs"
text-anchor="start" opacity="0">4</text>
<path d="M73200 78240
L73200 78580
" />
<path d="M73070 78040
L72950 78410
L73270 78410
" />
</g>
<g style="fill:#840000; fill-opacity:0.0; 
stroke:#840000; stroke-width:100; stroke-opacity:1; 
stroke-linecap:round; stroke-linejoin:round;">
</g>
<g style="fill:#840000; fill-opacity:0.0; 
stroke:#840000; stroke-width:60; stroke-opacity:1; 
stroke-linecap:round; stroke-linejoin:round;">
<text x="92520" y="78600"
textLength="550" font-size="680" lengthAdjust="spacingAndGlyphs"
text-anchor="start" opacity="0">5</text>
<path d="M92910 78070
L92670 78070
L92640 78310
L92670 78280
L92720 78260
L92840 78260
L92890 78280
L92910 78310
L92930 78360
L92930 78480
L92910 78530
L92890 78550
L92840 78580
L92720 78580
L92670 78550
L92640 78530
" />
</g>
<g style="fill:#840000; fill-opacity:0.0; 
stroke:#840000; stroke-width:100; stroke-opacity:1; 
stroke-linecap:round; stroke-linejoin:round;">
</g>
<g style="fill:#840000; fill-opacity:0.0; 
stroke:#840000; stroke-width:60; stroke-opacity:1; 
stroke-linecap:round; stroke-linejoin:round;">
<text x="112200" y="78600"
textLength="550" font-size="680" lengthAdjust="spacingAndGlyphs"
text-anchor="start" opacity="0">6</text>
<path d="M112570 78070
L112470 78070
L112420 78090
L112400 78110
L112350 78190
L112320 78280
L112320 78480
L112350 78530
L112370 78550
L112420 78580
L112520 78580
L112570 78550
L112590 78530
L112610 78480
L112610 78360
L112590 78310
L112570 78280
L112520 78260
L112420 78260
L112370 78280
L112350 78310
L112320 78360
" />
</g>
<g style="fill:#840000; fill-opacity:0.0; 
stroke:#840000; stroke-width:100; stroke-opacity:1; 
stroke-linecap:round; stroke-linejoin:round;">
</g>
<g style="fill:#840000; fill-opacity:0.0; 
stroke:#840000; stroke-width:60; stroke-opacity:1; 
stroke-linecap:round; stroke-linejoin:round;">
<path d="M3940 23620
L4720 23620
" />
</g>
<g style="fill:#840000; fill-opacity:0.0; 
stroke:#840000; stroke-width:100; stroke-opacity:1; 
stroke-linecap:round; stroke-linejoin:round;">
</g>
<g style="fill:#840000; fill-opacity:0.0; 
stroke:#840000; stroke-width:60; stroke-opacity:1; 
stroke-linecap:round; stroke-linejoin:round;">
<path d="M3940 43310
L4720 43310
" />
</g>
<g style="fill:#840000; fill-opacity:0.0; 
stroke:#840000; stroke-width:100; stroke-opacity:1; 
stroke-linecap:round; stroke-linejoin:round;">
</g>
<g style="fill:#840000; fill-opacity:0.0; 
stroke:#840000; stroke-width:60; stroke-opacity:1; 
stroke-linecap:round; stroke-linejoin:round;">
<path d="M3940 62990
L4720 62990
" />
</g>
<g style="fill:#840000; fill-opacity:0.0; 
stroke:#840000; stroke-width:100; stroke-opacity:1; 
stroke-linecap:round; stroke-linejoin:round;">
</g>
<g style="fill:#840000; fill-opacity:0.0; 
stroke:#840000; stroke-width:60; stroke-opacity:1; 
stroke-linecap:round; stroke-linejoin:round;">
<text x="4330" y="14030"
textLength="500" font-size="680" lengthAdjust="spacingAndGlyphs"
text-anchor="middle" opacity="0">A</text>
<path d="M4200 13860
L4450 13860
" />
<path d="M4160 14010
L4330 13500
L4500 14010
" />
</g>
<g style="fill:#840000; fill-opacity:0.0; 
stroke:#840000; stroke-width:100; stroke-opacity:1; 
stroke-linecap:round; stroke-linejoin:round;">
</g>
<g style="fill:#840000; fill-opacity:0.0; 
stroke:#840000; stroke-width:60; stroke-opacity:1; 
stroke-linecap:round; stroke-linejoin:round;">
<text x="4330" y="33710"
textLength="570" font-size="680" lengthAdjust="spacingAndGlyphs"
text-anchor="middle" opacity="0">B</text>
<path d="M4360 33420
L4430 33440
L4460 33470
L4480 33520
L4480 33590
L4460 33640
L4430 33660
L4390 33690
L4190 33690
L4190 33180
L4360 33180
L4410 33200
L4430 33220
L4460 33270
L4460 33320
L4430 33370
L4410 33390
L4360 33420
L4190 33420
" />
</g>
<g style="fill:#840000; fill-opacity:0.0; 
stroke:#840000; stroke-width:100; stroke-opacity:1; 
stroke-linecap:round; stroke-linejoin:round;">
</g>
<g style="fill:#840000; fill-opacity:0.0; 
stroke:#840000; stroke-width:60; stroke-opacity:1; 
stroke-linecap:round; stroke-linejoin:round;">
<text x="4330" y="53400"
textLength="570" font-size="680" lengthAdjust="spacingAndGlyphs"
text-anchor="middle" opacity="0">C</text>
<path d="M4480 53330
L4460 53350
L4390 53380
L4340 53380
L4260 53350
L4220 53300
L4190 53250
L4170 53160
L4170 53080
L4190 52990
L4220 52940
L4260 52890
L4340 52870
L4390 52870
L4460 52890
L4480 52910
" />
</g>
<g style="fill:#840000; fill-opacity:0.0; 
stroke:#840000; stroke-width:100; stroke-opacity:1; 
stroke-linecap:round; stroke-linejoin:round;">
</g>
<g style="fill:#840000; fill-opacity:0.0; 
stroke:#840000; stroke-width:60; stroke-opacity:1; 
stroke-linecap:round; stroke-linejoin:round;">
<text x="4330" y="73080"
textLength="570" font-size="680" lengthAdjust="spacingAndGlyphs"
text-anchor="middle" opacity="0">D</text>
<path d="M4190 73060
L4190 72550
L4310 72550
L4390 72570
L4430 72620
L4460 72670
L4480 72760
L4480 72840
L4460 72930
L4430 72980
L4390 73030
L4310 73060
L4190 73060
" />
</g>
<g style="fill:#840000; fill-opacity:0.0; 
stroke:#840000; stroke-width:100; stroke-opacity:1; 
stroke-linecap:round; stroke-linejoin:round;">
</g>
<g style="fill:#840000; fill-opacity:0.0; 
stroke:#840000; stroke-width:60; stroke-opacity:1; 
stroke-linecap:round; stroke-linejoin:round;">
<path d="M112990 23620
L112210 23620
" />
</g>
<g style="fill:#840000; fill-opacity:0.0; 
stroke:#840000; stroke-width:100; stroke-opacity:1; 
stroke-linecap:round; stroke-linejoin:round;">
</g>
<g style="fill:#840000; fill-opacity:0.0; 
stroke:#840000; stroke-width:60; stroke-opacity:1; 
stroke-linecap:round; stroke-linejoin:round;">
<path d="M112990 43310
L112210 43310
" />
</g>
<g style="fill:#840000; fill-opacity:0.0; 
stroke:#840000; stroke-width:100; stroke-opacity:1; 
stroke-linecap:round; stroke-linejoin:round;">
</g>
<g style="fill:#840000; fill-opacity:0.0; 
stroke:#840000; stroke-width:60; stroke-opacity:1; 
stroke-linecap:round; stroke-linejoin:round;">
<path d="M112990 62990
L112210 62990
" />
</g>
<g style="fill:#840000; fill-opacity:0.0; 
stroke:#840000; stroke-width:100; stroke-opacity:1; 
stroke-linecap:round; stroke-linejoin:round;">
</g>
<g style="fill:#840000; fill-opacity:0.0; 
stroke:#840000; stroke-width:60; stroke-opacity:1; 
stroke-linecap:round; stroke-linejoin:round;">
<text x="112600" y="14030"
textLength="500" font-size="680" lengthAdjust="spacingAndGlyphs"
text-anchor="middle" opacity="0">A</text>
<path d="M112470 13860
L112720 13860
" />
<path d="M112430 14010
L112600 13500
L112770 14010
" />
</g>
<g style="fill:#840000; fill-opacity:0.0; 
stroke:#840000; stroke-width:100; stroke-opacity:1; 
stroke-linecap:round; stroke-linejoin:round;">
</g>
<g style="fill:#840000; fill-opacity:0.0; 
stroke:#840000; stroke-width:60; stroke-opacity:1; 
stroke-linecap:round; stroke-linejoin:round;">
<text x="112600" y="33710"
textLength="570" font-size="680" lengthAdjust="spacingAndGlyphs"
text-anchor="middle" opacity="0">B</text>
<path d="M112630 33420
L112700 33440
L112730 33470
L112750 33520
L112750 33590
L112730 33640
L112700 33660
L112660 33690
L112460 33690
L112460 33180
L112630 33180
L112680 33200
L112700 33220
L112730 33270
L112730 33320
L112700 33370
L112680 33390
L112630 33420
L112460 33420
" />
</g>
<g style="fill:#840000; fill-opacity:0.0; 
stroke:#840000; stroke-width:100; stroke-opacity:1; 
stroke-linecap:round; stroke-linejoin:round;">
</g>
<g style="fill:#840000; fill-opacity:0.0; 
stroke:#840000; stroke-width:60; stroke-opacity:1; 
stroke-linecap:round; stroke-linejoin:round;">
<text x="112600" y="53400"
textLength="570" font-size="680" lengthAdjust="spacingAndGlyphs"
text-anchor="middle" opacity="0">C</text>
<path d="M112750 53330
L112730 53350
L112660 53380
L112610 53380
L112530 53350
L112490 53300
L112460 53250
L112440 53160
L112440 53080
L112460 52990
L112490 52940
L112530 52890
L112610 52870
L112660 52870
L112730 52890
L112750 52910
" />
</g>
<g style="fill:#840000; fill-opacity:0.0; 
stroke:#840000; stroke-width:100; stroke-opacity:1; 
stroke-linecap:round; stroke-linejoin:round;">
</g>
<g style="fill:#840000; fill-opacity:0.0; 
stroke:#840000; stroke-width:60; stroke-opacity:1; 
stroke-linecap:round; stroke-linejoin:round;">
<text x="112600" y="73080"
textLength="570" font-size="680" lengthAdjust="spacingAndGlyphs"
text-anchor="middle" opacity="0">D</text>
<path d="M112460 73060
L112460 72550
L112580 72550
L112660 72570
L112700 72620
L112730 72670
L112750 72760
L112750 72840
L112730 72930
L112700 72980
L112660 73030
L112580 73060
L112460 73060
" />
</g>
<g style="fill:#840000; fill-opacity:0.0; 
stroke:#840000; stroke-width:100; stroke-opacity:1; 
stroke-linecap:round; stroke-linejoin:round;">
</g>
<g style="fill:#840000; fill-opacity:0.0; 
stroke:#840000; stroke-width:60; stroke-opacity:1; 
stroke-linecap:round; stroke-linejoin:round;">
<text x="78740" y="76320"
textLength="2760" font-size="780" lengthAdjust="spacingAndGlyphs"
text-anchor="start" opacity="0">Date: </text>
<path d="M78910 76290
L78910 75700
L79050 75700
L79130 75730
L79190 75790
L79210 75840
L79240 75950
L79240 76040
L79210 76150
L79190 76210
L79130 76260
L79050 76290
L78910 76290
" />
<path d="M79750 76290
L79750 75980
L79720 75930
L79660 75900
L79550 75900
L79500 75930
" />
<path d="M79750 76260
L79690 76290
L79550 76290
L79500 76260
L79470 76210
L79470 76150
L79500 76100
L79550 76070
L79690 76070
L79750 76040
" />
<path d="M79950 75900
L80170 75900
" />
<path d="M80030 75700
L80030 76210
L80060 76260
L80110 76290
L80170 76290
" />
<path d="M80590 76260
L80540 76290
L80420 76290
L80370 76260
L80340 76210
L80340 75980
L80370 75930
L80420 75900
L80540 75900
L80590 75930
L80620 75980
L80620 76040
L80340 76100
" />
<path d="M80870 76240
L80900 76260
L80870 76290
L80840 76260
L80870 76240
L80870 76290
" />
<path d="M80870 75930
L80900 75950
L80870 75980
L80840 75950
L80870 75930
L80870 75980
" />
</g>
<g style="fill:#840000; fill-opacity:0.0; 
stroke:#840000; stroke-width:100; stroke-opacity:1; 
stroke-linecap:round; stroke-linejoin:round;">
</g>
<g style="fill:#840000; fill-opacity:0.0; 
stroke:#840000; stroke-width:60; stroke-opacity:1; 
stroke-linecap:round; stroke-linejoin:round;">
<path d="M69690 76580
L112210 76580
" />
</g>
<g style="fill:#840000; fill-opacity:0.0; 
stroke:#840000; stroke-width:100; stroke-opacity:1; 
stroke-linecap:round; stroke-linejoin:round;">
</g>
<g style="fill:#840000; fill-opacity:0.0; 
stroke:#840000; stroke-width:60; stroke-opacity:1; 
stroke-linecap:round; stroke-linejoin:round;">
<text x="70080" y="77420"
textLength="16950" font-size="780" lengthAdjust="spacingAndGlyphs"
text-anchor="start" opacity="0">KiCad E.D.A.  kicad (5.1.8-0-10_14)</text>
<path d="M70250 77390
L70250 76800
" />
<path d="M70580 77390
L70330 77050
" />
<path d="M70580 76800
L70250 77140
" />
<path d="M70840 77390
L70840 77000
" />
<path d="M70840 76800
L70810 76830
L70840 76860
L70860 76830
L70840 76800
L70840 76860
" />
<path d="M71450 77340
L71430 77360
L71340 77390
L71290 77390
L71200 77360
L71140 77310
L71120 77250
L71090 77140
L71090 77050
L71120 76940
L71140 76890
L71200 76830
L71290 76800
L71340 76800
L71430 76830
L71450 76860
" />
<path d="M71960 77390
L71960 77080
L71930 77030
L71880 77000
L71760 77000
L71710 77030
" />
<path d="M71960 77360
L71900 77390
L71760 77390
L71710 77360
L71680 77310
L71680 77250
L71710 77200
L71760 77170
L71900 77170
L71960 77140
" />
<path d="M72490 77390
L72490 76800
" />
<path d="M72490 77360
L72440 77390
L72320 77390
L72270 77360
L72240 77340
L72210 77280
L72210 77110
L72240 77050
L72270 77030
L72320 77000
L72440 77000
L72490 77030
" />
<path d="M73220 77080
L73420 77080
" />
<path d="M73500 77390
L73220 77390
L73220 76800
L73500 76800
" />
<path d="M73760 77340
L73790 77360
L73760 77390
L73730 77360
L73760 77340
L73760 77390
" />
<path d="M74040 77390
L74040 76800
L74180 76800
L74260 76830
L74320 76890
L74350 76940
L74380 77050
L74380 77140
L74350 77250
L74320 77310
L74260 77360
L74180 77390
L74040 77390
" />
<path d="M74630 77340
L74660 77360
L74630 77390
L74600 77360
L74630 77340
L74630 77390
" />
<path d="M74880 77220
L75160 77220
" />
<path d="M74830 77390
L75020 76800
L75220 77390
" />
<path d="M75420 77340
L75440 77360
L75420 77390
L75390 77360
L75420 77340
L75420 77390
" />
<path d="M76600 77390
L76600 76800
" />
<path d="M76650 77170
L76820 77390
" />
<path d="M76820 77000
L76600 77220
" />
<path d="M77070 77390
L77070 77000
" />
<path d="M77070 76800
L77040 76830
L77070 76860
L77100 76830
L77070 76800
L77070 76860
" />
<path d="M77610 77360
L77550 77390
L77440 77390
L77380 77360
L77350 77340
L77330 77280
L77330 77110
L77350 77050
L77380 77030
L77440 77000
L77550 77000
L77610 77030
" />
<path d="M78110 77390
L78110 77080
L78080 77030
L78030 77000
L77920 77000
L77860 77030
" />
<path d="M78110 77360
L78060 77390
L77920 77390
L77860 77360
L77830 77310
L77830 77250
L77860 77200
L77920 77170
L78060 77170
L78110 77140
" />
<path d="M78650 77390
L78650 76800
" />
<path d="M78650 77360
L78590 77390
L78480 77390
L78420 77360
L78390 77340
L78370 77280
L78370 77110
L78390 77050
L78420 77030
L78480 77000
L78590 77000
L78650 77030
" />
<path d="M79550 77620
L79520 77590
L79460 77500
L79430 77450
L79400 77360
L79380 77220
L79380 77110
L79400 76970
L79430 76890
L79460 76830
L79520 76750
L79550 76720
" />
<path d="M80050 76800
L79770 76800
L79740 77080
L79770 77050
L79830 77030
L79970 77030
L80020 77050
L80050 77080
L80080 77140
L80080 77280
L80050 77340
L80020 77360
L79970 77390
L79830 77390
L79770 77360
L79740 77340
" />
<path d="M80330 77340
L80360 77360
L80330 77390
L80300 77360
L80330 77340
L80330 77390
" />
<path d="M80920 77390
L80580 77390
" />
<path d="M80750 77390
L80750 76800
L80700 76890
L80640 76940
L80580 76970
" />
<path d="M81170 77340
L81200 77360
L81170 77390
L81150 77360
L81170 77340
L81170 77390
" />
<path d="M81540 77050
L81480 77030
L81460 77000
L81430 76940
L81430 76910
L81460 76860
L81480 76830
L81540 76800
L81650 76800
L81710 76830
L81740 76860
L81760 76910
L81760 76940
L81740 77000
L81710 77030
L81650 77050
L81540 77050
L81480 77080
L81460 77110
L81430 77170
L81430 77280
L81460 77340
L81480 77360
L81540 77390
L81650 77390
L81710 77360
L81740 77340
L81760 77280
L81760 77170
L81740 77110
L81710 77080
L81650 77050
" />
<path d="M82020 77170
L82470 77170
" />
<path d="M82860 76800
L82920 76800
L82970 76830
L83000 76860
L83030 76910
L83060 77030
L83060 77170
L83030 77280
L83000 77340
L82970 77360
L82920 77390
L82860 77390
L82800 77360
L82780 77340
L82750 77280
L82720 77170
L82720 77030
L82750 76910
L82780 76860
L82800 76830
L82860 76800
" />
<path d="M83310 77170
L83760 77170
" />
<path d="M84350 77390
L84010 77390
" />
<path d="M84180 77390
L84180 76800
L84120 76890
L84070 76940
L84010 76970
" />
<path d="M84710 76800
L84770 76800
L84830 76830
L84860 76860
L84880 76910
L84910 77030
L84910 77170
L84880 77280
L84860 77340
L84830 77360
L84770 77390
L84710 77390
L84660 77360
L84630 77340
L84600 77280
L84570 77170
L84570 77030
L84600 76910
L84630 76860
L84660 76830
L84710 76800
" />
<path d="M85020 77450
L85470 77450
" />
<path d="M85920 77390
L85590 77390
" />
<path d="M85750 77390
L85750 76800
L85700 76890
L85640 76940
L85590 76970
" />
<path d="M86430 77000
L86430 77390
" />
<path d="M86290 76770
L86150 77200
L86510 77200
" />
<path d="M86680 77620
L86710 77590
L86770 77500
L86790 77450
L86820 77360
L86850 77220
L86850 77110
L86820 76970
L86790 76890
L86770 76830
L86710 76750
L86680 76720
" />
</g>
<g style="fill:#840000; fill-opacity:0.0; 
stroke:#840000; stroke-width:100; stroke-opacity:1; 
stroke-linecap:round; stroke-linejoin:round;">
</g>
<g style="fill:#840000; fill-opacity:0.0; 
stroke:#840000; stroke-width:60; stroke-opacity:1; 
stroke-linecap:round; stroke-linejoin:round;">
<path d="M69690 75400
L112210 75400
" />
</g>
<g style="fill:#840000; fill-opacity:0.0; 
stroke:#840000; stroke-width:100; stroke-opacity:1; 
stroke-linecap:round; stroke-linejoin:round;">
</g>
<g style="fill:#840000; fill-opacity:0.0; 
stroke:#840000; stroke-width:120; stroke-opacity:1; 
stroke-linecap:round; stroke-linejoin:round;">
<text x="103540" y="76320"
textLength="4470" font-size="780" lengthAdjust="spacingAndGlyphs"
text-anchor="start" opacity="0">Rev: RevB</text>
<path d="M104090 76290
L103890 76010
" />
<path d="M103750 76290
L103750 75700
L103980 75700
L104030 75730
L104060 75760
L104090 75810
L104090 75900
L104060 75950
L104030 75980
L103980 76010
L103750 76010
" />
<path d="M104570 76260
L104510 76290
L104400 76290
L104340 76260
L104320 76210
L104320 75980
L104340 75930
L104400 75900
L104510 75900
L104570 75930
L104600 75980
L104600 76040
L104320 76100
" />
<path d="M104790 75900
L104930 76290
L105070 75900
" />
<path d="M105300 76240
L105330 76260
L105300 76290
L105270 76260
L105300 76240
L105300 76290
" />
<path d="M105300 75930
L105330 75950
L105300 75980
L105270 75950
L105300 75930
L105300 75980
" />
<path d="M106370 76290
L106170 76010
" />
<path d="M106030 76290
L106030 75700
L106250 75700
L106310 75730
L106340 75760
L106370 75810
L106370 75900
L106340 75950
L106310 75980
L106250 76010
L106030 76010
" />
<path d="M106840 76260
L106790 76290
L106680 76290
L106620 76260
L106590 76210
L106590 75980
L106620 75930
L106680 75900
L106790 75900
L106840 75930
L106870 75980
L106870 76040
L106590 76100
" />
<path d="M107070 75900
L107210 76290
L107350 75900
" />
<path d="M107770 75980
L107860 76010
L107880 76040
L107910 76100
L107910 76180
L107880 76240
L107860 76260
L107800 76290
L107570 76290
L107570 75700
L107770 75700
L107830 75730
L107860 75760
L107880 75810
L107880 75870
L107860 75930
L107830 75950
L107770 75980
L107570 75980
" />
</g>
<g style="fill:#840000; fill-opacity:0.0; 
stroke:#840000; stroke-width:100; stroke-opacity:1; 
stroke-linecap:round; stroke-linejoin:round;">
</g>
<g style="fill:#840000; fill-opacity:0.0; 
stroke:#840000; stroke-width:60; stroke-opacity:1; 
stroke-linecap:round; stroke-linejoin:round;">
<text x="70080" y="76320"
textLength="3780" font-size="780" lengthAdjust="spacingAndGlyphs"
text-anchor="start" opacity="0">Size: A4</text>
<path d="M70220 76260
L70300 76290
L70440 76290
L70500 76260
L70530 76240
L70550 76180
L70550 76120
L70530 76070
L70500 76040
L70440 76010
L70330 75980
L70270 75950
L70250 75930
L70220 75870
L70220 75810
L70250 75760
L70270 75730
L70330 75700
L70470 75700
L70550 75730
" />
<path d="M70810 76290
L70810 75900
" />
<path d="M70810 75700
L70780 75730
L70810 75760
L70840 75730
L70810 75700
L70810 75760
" />
<path d="M71030 75900
L71340 75900
L71030 76290
L71340 76290
" />
<path d="M71790 76260
L71730 76290
L71620 76290
L71570 76260
L71540 76210
L71540 75980
L71570 75930
L71620 75900
L71730 75900
L71790 75930
L71820 75980
L71820 76040
L71540 76100
" />
<path d="M72070 76240
L72100 76260
L72070 76290
L72040 76260
L72070 76240
L72070 76290
" />
<path d="M72070 75930
L72100 75950
L72070 75980
L72040 75950
L72070 75930
L72070 75980
" />
<path d="M72770 76120
L73060 76120
" />
<path d="M72720 76290
L72910 75700
L73110 76290
" />
<path d="M73560 75900
L73560 76290
" />
<path d="M73420 75670
L73280 76100
L73650 76100
" />
</g>
<g style="fill:#840000; fill-opacity:0.0; 
stroke:#840000; stroke-width:100; stroke-opacity:1; 
stroke-linecap:round; stroke-linejoin:round;">
</g>
<g style="fill:#840000; fill-opacity:0.0; 
stroke:#840000; stroke-width:60; stroke-opacity:1; 
stroke-linecap:round; stroke-linejoin:round;">
<text x="103540" y="77420"
textLength="3350" font-size="780" lengthAdjust="spacingAndGlyphs"
text-anchor="start" opacity="0">Id: 8/9</text>
<path d="M103710 77390
L103710 76800
" />
<path d="M104240 77390
L104240 76800
" />
<path d="M104240 77360
L104180 77390
L104070 77390
L104010 77360
L103990 77340
L103960 77280
L103960 77110
L103990 77050
L104010 77030
L104070 77000
L104180 77000
L104240 77030
" />
<path d="M104520 77340
L104550 77360
L104520 77390
L104490 77360
L104520 77340
L104520 77390
" />
<path d="M104520 77030
L104550 77050
L104520 77080
L104490 77050
L104520 77030
L104520 77080
" />
<path d="M105340 77050
L105280 77030
L105250 77000
L105220 76940
L105220 76910
L105250 76860
L105280 76830
L105340 76800
L105450 76800
L105500 76830
L105530 76860
L105560 76910
L105560 76940
L105530 77000
L105500 77030
L105450 77050
L105340 77050
L105280 77080
L105250 77110
L105220 77170
L105220 77280
L105250 77340
L105280 77360
L105340 77390
L105450 77390
L105500 77360
L105530 77340
L105560 77280
L105560 77170
L105530 77110
L105500 77080
L105450 77050
" />
<path d="M106230 76770
L105730 77530
" />
<path d="M106460 77390
L106570 77390
L106630 77360
L106660 77340
L106710 77250
L106740 77140
L106740 76910
L106710 76860
L106680 76830
L106630 76800
L106520 76800
L106460 76830
L106430 76860
L106400 76910
L106400 77050
L106430 77110
L106460 77140
L106520 77170
L106630 77170
L106680 77140
L106710 77110
L106740 77050
" />
</g>
<g style="fill:#840000; fill-opacity:0.0; 
stroke:#840000; stroke-width:100; stroke-opacity:1; 
stroke-linecap:round; stroke-linejoin:round;">
</g>
<g style="fill:#840000; fill-opacity:0.0; 
stroke:#840000; stroke-width:60; stroke-opacity:1; 
stroke-linecap:round; stroke-linejoin:round;">
<path d="M69690 73820
L112210 73820
" />
</g>
<g style="fill:#840000; fill-opacity:0.0; 
stroke:#840000; stroke-width:100; stroke-opacity:1; 
stroke-linecap:round; stroke-linejoin:round;">
</g>
<g style="fill:#840000; fill-opacity:0.0; 
stroke:#840000; stroke-width:160; stroke-opacity:1; 
stroke-linecap:round; stroke-linejoin:round;">
<text x="70080" y="74920"
textLength="3710" font-size="1050" lengthAdjust="spacingAndGlyphs"
text-anchor="start" opacity="0">Title: </text>
<path d="M70360 74090
L70810 74090
" />
<path d="M70480 74880
L70580 74090
" />
<path d="M70970 74880
L71040 74360
" />
<path d="M71070 74090
L71030 74130
L71060 74170
L71110 74130
L71070 74090
L71060 74170
" />
<path d="M71300 74360
L71600 74360
" />
<path d="M71450 74090
L71360 74770
L71390 74840
L71460 74880
L71540 74880
" />
<path d="M71910 74880
L71840 74840
L71820 74770
L71900 74090
" />
<path d="M72520 74840
L72440 74880
L72290 74880
L72220 74840
L72190 74770
L72230 74470
L72280 74390
L72360 74360
L72510 74360
L72580 74390
L72610 74470
L72600 74540
L72210 74620
" />
<path d="M72900 74810
L72930 74840
L72890 74880
L72860 74840
L72900 74810
L72890 74880
" />
<path d="M72950 74390
L72990 74430
L72940 74470
L72910 74430
L72950 74390
L72940 74470
" />
</g>
<g style="fill:#840000; fill-opacity:0.0; 
stroke:#840000; stroke-width:100; stroke-opacity:1; 
stroke-linecap:round; stroke-linejoin:round;">
</g>
<g style="fill:#840000; fill-opacity:0.0; 
stroke:#840000; stroke-width:60; stroke-opacity:1; 
stroke-linecap:round; stroke-linejoin:round;">
<text x="70080" y="73400"
textLength="7850" font-size="780" lengthAdjust="spacingAndGlyphs"
text-anchor="start" opacity="0">File: MicroSD.sch</text>
<path d="M70440 73060
L70250 73060
" />
<path d="M70250 73370
L70250 72780
L70530 72780
" />
<path d="M70750 73370
L70750 72980
" />
<path d="M70750 72780
L70720 72810
L70750 72840
L70780 72810
L70750 72780
L70750 72840
" />
<path d="M71120 73370
L71060 73340
L71030 73290
L71030 72780
" />
<path d="M71570 73340
L71510 73370
L71400 73370
L71340 73340
L71310 73290
L71310 73060
L71340 73010
L71400 72980
L71510 72980
L71570 73010
L71590 73060
L71590 73120
L71310 73180
" />
<path d="M71850 73320
L71880 73340
L71850 73370
L71820 73340
L71850 73320
L71850 73370
" />
<path d="M71850 73010
L71880 73030
L71850 73060
L71820 73030
L71850 73010
L71850 73060
" />
<path d="M72580 73370
L72580 72780
L72770 73200
L72970 72780
L72970 73370
" />
<path d="M73250 73370
L73250 72980
" />
<path d="M73250 72780
L73220 72810
L73250 72840
L73280 72810
L73250 72780
L73250 72840
" />
<path d="M73790 73340
L73730 73370
L73620 73370
L73560 73340
L73530 73320
L73500 73260
L73500 73090
L73530 73030
L73560 73010
L73620 72980
L73730 72980
L73790 73010
" />
<path d="M74040 73370
L74040 72980
" />
<path d="M74040 73090
L74070 73030
L74090 73010
L74150 72980
L74210 72980
" />
<path d="M74490 73370
L74430 73340
L74400 73320
L74380 73260
L74380 73090
L74400 73030
L74430 73010
L74490 72980
L74570 72980
L74630 73010
L74660 73030
L74680 73090
L74680 73260
L74660 73320
L74630 73340
L74570 73370
L74490 73370
" />
<path d="M74910 73340
L74990 73370
L75130 73370
L75190 73340
L75220 73320
L75250 73260
L75250 73200
L75220 73150
L75190 73120
L75130 73090
L75020 73060
L74970 73030
L74940 73010
L74910 72950
L74910 72890
L74940 72840
L74970 72810
L75020 72780
L75160 72780
L75250 72810
" />
<path d="M75500 73370
L75500 72780
L75640 72780
L75720 72810
L75780 72870
L75810 72920
L75840 73030
L75840 73120
L75810 73230
L75780 73290
L75720 73340
L75640 73370
L75500 73370
" />
<path d="M76090 73320
L76120 73340
L76090 73370
L76060 73340
L76090 73320
L76090 73370
" />
<path d="M76340 73340
L76400 73370
L76510 73370
L76570 73340
L76600 73290
L76600 73260
L76570 73200
L76510 73180
L76430 73180
L76370 73150
L76340 73090
L76340 73060
L76370 73010
L76430 72980
L76510 72980
L76570 73010
" />
<path d="M77100 73340
L77040 73370
L76930 73370
L76880 73340
L76850 73320
L76820 73260
L76820 73090
L76850 73030
L76880 73010
L76930 72980
L77040 72980
L77100 73010
" />
<path d="M77350 73370
L77350 72780
" />
<path d="M77610 73370
L77610 73060
L77580 73010
L77520 72980
L77440 72980
L77380 73010
L77350 73030
" />
</g>
<g style="fill:#840000; fill-opacity:0.0; 
stroke:#840000; stroke-width:100; stroke-opacity:1; 
stroke-linecap:round; stroke-linejoin:round;">
</g>
<g style="fill:#840000; fill-opacity:0.0; 
stroke:#840000; stroke-width:60; stroke-opacity:1; 
stroke-linecap:round; stroke-linejoin:round;">
<path d="M69690 71460
L112210 71460
" />
</g>
<g style="fill:#840000; fill-opacity:0.0; 
stroke:#840000; stroke-width:100; stroke-opacity:1; 
stroke-linecap:round; stroke-linejoin:round;">
</g>
<g style="fill:#840000; fill-opacity:0.0; 
stroke:#840000; stroke-width:60; stroke-opacity:1; 
stroke-linecap:round; stroke-linejoin:round;">
<text x="70080" y="72340"
textLength="9780" font-size="780" lengthAdjust="spacingAndGlyphs"
text-anchor="start" opacity="0">Sheet: /GPIO/SDIO1/</text>
<path d="M70220 72280
L70300 72310
L70440 72310
L70500 72280
L70530 72260
L70550 72200
L70550 72140
L70530 72090
L70500 72060
L70440 72030
L70330 72000
L70270 71970
L70250 71950
L70220 71890
L70220 71830
L70250 71780
L70270 71750
L70330 71720
L70470 71720
L70550 71750
" />
<path d="M70810 72310
L70810 71720
" />
<path d="M71060 72310
L71060 72000
L71030 71950
L70980 71920
L70890 71920
L70840 71950
L70810 71970
" />
<path d="M71570 72280
L71510 72310
L71400 72310
L71340 72280
L71310 72230
L71310 72000
L71340 71950
L71400 71920
L71510 71920
L71570 71950
L71590 72000
L71590 72060
L71310 72120
" />
<path d="M72070 72280
L72020 72310
L71900 72310
L71850 72280
L71820 72230
L71820 72000
L71850 71950
L71900 71920
L72020 71920
L72070 71950
L72100 72000
L72100 72060
L71820 72120
" />
<path d="M72270 71920
L72490 71920
" />
<path d="M72350 71720
L72350 72230
L72380 72280
L72440 72310
L72490 72310
" />
<path d="M72690 72260
L72720 72280
L72690 72310
L72660 72280
L72690 72260
L72690 72310
" />
<path d="M72690 71950
L72720 71970
L72690 72000
L72660 71970
L72690 71950
L72690 72000
" />
<path d="M73840 71690
L73340 72450
" />
<path d="M74350 71750
L74290 71720
L74210 71720
L74120 71750
L74070 71810
L74040 71860
L74010 71970
L74010 72060
L74040 72170
L74070 72230
L74120 72280
L74210 72310
L74260 72310
L74350 72280
L74380 72260
L74380 72060
L74260 72060
" />
<path d="M74630 72310
L74630 71720
L74850 71720
L74910 71750
L74940 71780
L74970 71830
L74970 71920
L74940 71970
L74910 72000
L74850 72030
L74630 72030
" />
<path d="M75220 72310
L75220 71720
" />
<path d="M75610 71720
L75720 71720
L75780 71750
L75840 71810
L75860 71920
L75860 72120
L75840 72230
L75780 72280
L75720 72310
L75610 72310
L75560 72280
L75500 72230
L75470 72120
L75470 71920
L75500 71810
L75560 71750
L75610 71720
" />
<path d="M76540 71690
L76030 72450
" />
<path d="M76710 72280
L76790 72310
L76930 72310
L76990 72280
L77020 72260
L77040 72200
L77040 72140
L77020 72090
L76990 72060
L76930 72030
L76820 72000
L76760 71970
L76740 71950
L76710 71890
L76710 71830
L76740 71780
L76760 71750
L76820 71720
L76960 71720
L77040 71750
" />
<path d="M77300 72310
L77300 71720
L77440 71720
L77520 71750
L77580 71810
L77610 71860
L77630 71970
L77630 72060
L77610 72170
L77580 72230
L77520 72280
L77440 72310
L77300 72310
" />
<path d="M77890 72310
L77890 71720
" />
<path d="M78280 71720
L78390 71720
L78450 71750
L78510 71810
L78530 71920
L78530 72120
L78510 72230
L78450 72280
L78390 72310
L78280 72310
L78220 72280
L78170 72230
L78140 72120
L78140 71920
L78170 71810
L78220 71750
L78280 71720
" />
<path d="M79100 72310
L78760 72310
" />
<path d="M78930 72310
L78930 71720
L78870 71810
L78810 71860
L78760 71890
" />
<path d="M79770 71690
L79260 72450
" />
</g>
<g style="fill:#840000; fill-opacity:0.0; 
stroke:#840000; stroke-width:100; stroke-opacity:1; 
stroke-linecap:round; stroke-linejoin:round;">
</g>
<g style="fill:#840000; fill-opacity:0.0; 
stroke:#840000; stroke-width:60; stroke-opacity:1; 
stroke-linecap:round; stroke-linejoin:round;">
<path d="M77560 75400
L77560 76580
" />
</g>
<g style="fill:#840000; fill-opacity:0.0; 
stroke:#840000; stroke-width:100; stroke-opacity:1; 
stroke-linecap:round; stroke-linejoin:round;">
</g>
<g style="fill:#840000; fill-opacity:0.0; 
stroke:#840000; stroke-width:60; stroke-opacity:1; 
stroke-linecap:round; stroke-linejoin:round;">
<path d="M102760 75400
L102760 77960
" />
</g>
<g style="fill:#840000; fill-opacity:0.0; 
stroke:#840000; stroke-width:0; stroke-opacity:1; 
stroke-linecap:round; stroke-linejoin:round;">
<g >
</g>
<g style="fill:#840000; fill-opacity:0.0; 
stroke:#840000; stroke-width:60; stroke-opacity:1; 
stroke-linecap:round; stroke-linejoin:round;">
<path style="fill:#840000; fill-opacity:0.0; 
stroke:#840000; stroke-width:60; stroke-opacity:1; 
stroke-linecap:round; stroke-linejoin:round;fill:none"
d="M 58750,40500
58750,41000
59250,41000
58750,41500
58250,41000
58750,41000
" /> 
</g>
<g style="fill:#008484; fill-opacity:0.0; 
stroke:#008484; stroke-width:60; stroke-opacity:1; 
stroke-linecap:round; stroke-linejoin:round;">
<text x="58800" y="42500"
textLength="2060" font-size="660" lengthAdjust="spacingAndGlyphs"
text-anchor="middle" opacity="0">GNDS</text>
<path d="M58180 42000
L58130 41970
L58060 41970
L57990 42000
L57940 42040
L57910 42090
L57890 42190
L57890 42260
L57910 42350
L57940 42400
L57990 42450
L58060 42470
L58100 42470
L58180 42450
L58200 42420
L58200 42260
L58100 42260
" />
<path d="M58410 42470
L58410 41970
L58700 42470
L58700 41970
" />
<path d="M58940 42470
L58940 41970
L59060 41970
L59130 42000
L59180 42040
L59200 42090
L59220 42190
L59220 42260
L59200 42350
L59180 42400
L59130 42450
L59060 42470
L58940 42470
" />
<path d="M59410 42450
L59490 42470
L59600 42470
L59650 42450
L59680 42420
L59700 42380
L59700 42330
L59680 42280
L59650 42260
L59600 42230
L59510 42210
L59460 42190
L59440 42160
L59410 42110
L59410 42070
L59440 42020
L59460 42000
L59510 41970
L59630 41970
L59700 42000
" />
</g>
</g>
<g style="fill:#008484; fill-opacity:0.0; 
stroke:#008484; stroke-width:0; stroke-opacity:1; 
stroke-linecap:round; stroke-linejoin:round;">
<g >
</g>
<g style="fill:#840000; fill-opacity:0.0; 
stroke:#840000; stroke-width:0; stroke-opacity:1; 
stroke-linecap:round; stroke-linejoin:round;">
</g>
<g style="fill:#FFFFC2; fill-opacity:0.0; 
stroke:#FFFFC2; stroke-width:0; stroke-opacity:1; 
stroke-linecap:round; stroke-linejoin:round;">
</g>
<g style="fill:#FFFFC2; fill-opacity:0.6; 
stroke:#FFFFC2; stroke-width:0; stroke-opacity:1; 
stroke-linecap:round; stroke-linejoin:round;">
<path style="fill:#FFFFC2; fill-opacity:0.6; 
stroke:#FFFFC2; stroke-width:0; stroke-opacity:1; 
stroke-linecap:round; stroke-linejoin:round;fill-rule:evenodd;"
d="M 66500,42750
74500,42750
74500,45750
76000,47250
76000,47750
75500,47750
75500,48750
76000,49250
76000,54250
66500,54250
Z" /> 
</g>
<g style="fill:#840000; fill-opacity:0.6; 
stroke:#840000; stroke-width:0; stroke-opacity:1; 
stroke-linecap:round; stroke-linejoin:round;">
</g>
<g style="fill:#840000; fill-opacity:0.0; 
stroke:#840000; stroke-width:100; stroke-opacity:1; 
stroke-linecap:round; stroke-linejoin:round;">
<path style="fill:#840000; fill-opacity:0.0; 
stroke:#840000; stroke-width:100; stroke-opacity:1; 
stroke-linecap:round; stroke-linejoin:round;fill:none"
d="M 66500,42750
74500,42750
74500,45750
76000,47250
76000,47750
75500,47750
75500,48750
76000,49250
76000,54250
66500,54250
Z" /> 
</g>
<g style="fill:#840000; fill-opacity:1.0; 
stroke:#840000; stroke-width:60; stroke-opacity:1; 
stroke-linecap:round; stroke-linejoin:round;">
<rect x="66750" y="43250" width="500" height="1000" rx="0" />
<rect x="67750" y="43250" width="500" height="1000" rx="0" />
<rect x="68750" y="43250" width="500" height="1000" rx="0" />
<rect x="69750" y="43250" width="500" height="1000" rx="0" />
<rect x="70750" y="43250" width="500" height="1000" rx="0" />
<rect x="71750" y="43250" width="500" height="1000" rx="0" />
<rect x="72750" y="43250" width="500" height="1000" rx="0" />
<rect x="73750" y="43250" width="500" height="1000" rx="0" />
</g>
<g style="fill:#840000; fill-opacity:0.0; 
stroke:#840000; stroke-width:100; stroke-opacity:1; 
stroke-linecap:round; stroke-linejoin:round;">
<path style="fill:#840000; fill-opacity:0.0; 
stroke:#840000; stroke-width:100; stroke-opacity:1; 
stroke-linecap:round; stroke-linejoin:round;fill:none"
d="M 76000,52750
76500,52750
76500,38750
63500,38750
63500,52750
66500,52750
" /> 
<path style="fill:#840000; fill-opacity:0.0; 
stroke:#840000; stroke-width:100; stroke-opacity:1; 
stroke-linecap:round; stroke-linejoin:round;fill:none"
d="M 66500,42750
74500,42750
74500,45750
76000,47250
76000,47750
75500,47750
75500,48750
76000,49250
76000,54250
66500,54250
Z" /> 
</g>
<g style="fill:#840000; fill-opacity:0.0; 
stroke:#840000; stroke-width:60; stroke-opacity:1; 
stroke-linecap:round; stroke-linejoin:round;">
<path d="M74000 38750
L74000 37250
" />
</g>
<g style="fill:#008484; fill-opacity:0.0; 
stroke:#008484; stroke-width:60; stroke-opacity:1; 
stroke-linecap:round; stroke-linejoin:round;">
<g transform="rotate(-90 74000 39150)">
<text x="74000" y="39400"
textLength="1850" font-size="660" lengthAdjust="spacingAndGlyphs"
text-anchor="end" opacity="0">DAT2</text>
</g>
<path d="M74220 40840
L73720 40840
L73720 40720
L73750 40650
L73790 40600
L73840 40580
L73940 40560
L74010 40560
L74100 40580
L74150 40600
L74200 40650
L74220 40720
L74220 40840
" />
<path d="M74080 40370
L74080 40130
" />
<path d="M74220 40410
L73720 40250
L74220 40080
" />
<path d="M73720 39980
L73720 39700
" />
<path d="M74220 39840
L73720 39840
" />
<path d="M73770 39560
L73750 39530
L73720 39480
L73720 39370
L73750 39320
L73770 39290
L73820 39270
L73860 39270
L73940 39290
L74220 39580
L74220 39270
" />
</g>
<g style="fill:#840000; fill-opacity:0.0; 
stroke:#840000; stroke-width:60; stroke-opacity:1; 
stroke-linecap:round; stroke-linejoin:round;">
<g transform="rotate(-90 73900 38000)">
<text x="73900" y="38000"
textLength="540" font-size="660" lengthAdjust="spacingAndGlyphs"
text-anchor="middle" opacity="0">1</text>
</g>
<path d="M73870 37850
L73870 38140
" />
<path d="M73870 38000
L73370 38000
L73440 38040
L73490 38090
L73510 38140
" />
<path d="M66000 38750
L66000 37250
" />
</g>
<g style="fill:#008484; fill-opacity:0.0; 
stroke:#008484; stroke-width:60; stroke-opacity:1; 
stroke-linecap:round; stroke-linejoin:round;">
<g transform="rotate(-90 66000 39150)">
<text x="66000" y="39400"
textLength="2200" font-size="660" lengthAdjust="spacingAndGlyphs"
text-anchor="end" opacity="0">DET_A</text>
</g>
<path d="M66220 41200
L65720 41200
L65720 41080
L65750 41010
L65790 40960
L65840 40940
L65940 40910
L66010 40910
L66100 40940
L66150 40960
L66200 41010
L66220 41080
L66220 41200
" />
<path d="M65960 40700
L65960 40530
" />
<path d="M66220 40460
L66220 40700
L65720 40700
L65720 40460
" />
<path d="M65720 40320
L65720 40030
" />
<path d="M66220 40180
L65720 40180
" />
<path d="M66270 39980
L66270 39600
" />
<path d="M66080 39510
L66080 39270
" />
<path d="M66220 39560
L65720 39390
L66220 39220
" />
</g>
<g style="fill:#840000; fill-opacity:0.0; 
stroke:#840000; stroke-width:60; stroke-opacity:1; 
stroke-linecap:round; stroke-linejoin:round;">
<g transform="rotate(-90 65900 38000)">
<text x="65900" y="38000"
textLength="1010" font-size="660" lengthAdjust="spacingAndGlyphs"
text-anchor="middle" opacity="0">10</text>
</g>
<path d="M65870 38090
L65870 38380
" />
<path d="M65870 38230
L65370 38230
L65440 38280
L65490 38330
L65510 38380
" />
<path d="M65370 37780
L65370 37730
L65400 37690
L65420 37660
L65470 37640
L65560 37610
L65680 37610
L65780 37640
L65820 37660
L65850 37690
L65870 37730
L65870 37780
L65850 37830
L65820 37850
L65780 37880
L65680 37900
L65560 37900
L65470 37880
L65420 37850
L65400 37830
L65370 37780
" />
<path d="M65000 52750
L65000 54250
" />
</g>
<g style="fill:#008484; fill-opacity:0.0; 
stroke:#008484; stroke-width:60; stroke-opacity:1; 
stroke-linecap:round; stroke-linejoin:round;">
<g transform="rotate(-90 65000 52350)">
<text x="65000" y="52600"
textLength="2660" font-size="660" lengthAdjust="spacingAndGlyphs"
text-anchor="start" opacity="0">SHIELD</text>
</g>
<path d="M65200 52220
L65220 52150
L65220 52030
L65200 51980
L65170 51960
L65130 51930
L65080 51930
L65030 51960
L65010 51980
L64980 52030
L64960 52120
L64940 52170
L64910 52200
L64860 52220
L64820 52220
L64770 52200
L64750 52170
L64720 52120
L64720 52010
L64750 51930
" />
<path d="M65220 51720
L64720 51720
" />
<path d="M64960 51720
L64960 51430
" />
<path d="M65220 51430
L64720 51430
" />
<path d="M65220 51200
L64720 51200
" />
<path d="M64960 50960
L64960 50790
" />
<path d="M65220 50720
L65220 50960
L64720 50960
L64720 50720
" />
<path d="M65220 50270
L65220 50510
L64720 50510
" />
<path d="M65220 50100
L64720 50100
L64720 49980
L64750 49910
L64790 49860
L64840 49840
L64940 49820
L65010 49820
L65100 49840
L65150 49860
L65200 49910
L65220 49980
L65220 50100
" />
</g>
<g style="fill:#840000; fill-opacity:0.0; 
stroke:#840000; stroke-width:60; stroke-opacity:1; 
stroke-linecap:round; stroke-linejoin:round;">
<g transform="rotate(-90 64900 53500)">
<text x="64900" y="53500"
textLength="1010" font-size="660" lengthAdjust="spacingAndGlyphs"
text-anchor="middle" opacity="0">11</text>
</g>
<path d="M64870 53590
L64870 53880
" />
<path d="M64870 53730
L64370 53730
L64440 53780
L64490 53830
L64510 53880
" />
<path d="M64870 53110
L64870 53400
" />
<path d="M64870 53260
L64370 53260
L64440 53300
L64490 53350
L64510 53400
" />
<path d="M73000 38750
L73000 37250
" />
</g>
<g style="fill:#008484; fill-opacity:0.0; 
stroke:#008484; stroke-width:60; stroke-opacity:1; 
stroke-linecap:round; stroke-linejoin:round;">
<g transform="rotate(-90 73000 39150)">
<text x="73000" y="39400"
textLength="3370" font-size="660" lengthAdjust="spacingAndGlyphs"
text-anchor="end" opacity="0">DAT3/CD</text>
</g>
<path d="M73220 42370
L72720 42370
L72720 42250
L72750 42180
L72790 42130
L72840 42100
L72940 42080
L73010 42080
L73100 42100
L73150 42130
L73200 42180
L73220 42250
L73220 42370
" />
<path d="M73080 41890
L73080 41650
" />
<path d="M73220 41940
L72720 41770
L73220 41600
" />
<path d="M72720 41510
L72720 41220
" />
<path d="M73220 41370
L72720 41370
" />
<path d="M72720 41100
L72720 40790
L72910 40960
L72910 40890
L72940 40840
L72960 40820
L73010 40790
L73130 40790
L73170 40820
L73200 40840
L73220 40890
L73220 41030
L73200 41080
L73170 41100
" />
<path d="M72700 40220
L73340 40650
" />
<path d="M73170 39770
L73200 39790
L73220 39870
L73220 39910
L73200 39980
L73150 40030
L73100 40060
L73010 40080
L72940 40080
L72840 40060
L72790 40030
L72750 39980
L72720 39910
L72720 39870
L72750 39790
L72770 39770
" />
<path d="M73220 39560
L72720 39560
L72720 39440
L72750 39370
L72790 39320
L72840 39290
L72940 39270
L73010 39270
L73100 39290
L73150 39320
L73200 39370
L73220 39440
L73220 39560
" />
</g>
<g style="fill:#840000; fill-opacity:0.0; 
stroke:#840000; stroke-width:60; stroke-opacity:1; 
stroke-linecap:round; stroke-linejoin:round;">
<g transform="rotate(-90 72900 38000)">
<text x="72900" y="38000"
textLength="540" font-size="660" lengthAdjust="spacingAndGlyphs"
text-anchor="middle" opacity="0">2</text>
</g>
<path d="M72420 38140
L72400 38110
L72370 38070
L72370 37950
L72400 37900
L72420 37880
L72470 37850
L72510 37850
L72590 37880
L72870 38160
L72870 37850
" />
<path d="M72000 38750
L72000 37250
" />
</g>
<g style="fill:#008484; fill-opacity:0.0; 
stroke:#008484; stroke-width:60; stroke-opacity:1; 
stroke-linecap:round; stroke-linejoin:round;">
<g transform="rotate(-90 72000 39150)">
<text x="72000" y="39400"
textLength="1630" font-size="660" lengthAdjust="spacingAndGlyphs"
text-anchor="end" opacity="0">CMD</text>
</g>
<path d="M72170 40340
L72200 40370
L72220 40440
L72220 40480
L72200 40560
L72150 40600
L72100 40630
L72010 40650
L71940 40650
L71840 40630
L71790 40600
L71750 40560
L71720 40480
L71720 40440
L71750 40370
L71770 40340
" />
<path d="M72220 40130
L71720 40130
L72080 39960
L71720 39790
L72220 39790
" />
<path d="M72220 39560
L71720 39560
L71720 39440
L71750 39370
L71790 39320
L71840 39290
L71940 39270
L72010 39270
L72100 39290
L72150 39320
L72200 39370
L72220 39440
L72220 39560
" />
</g>
<g style="fill:#840000; fill-opacity:0.0; 
stroke:#840000; stroke-width:60; stroke-opacity:1; 
stroke-linecap:round; stroke-linejoin:round;">
<g transform="rotate(-90 71900 38000)">
<text x="71900" y="38000"
textLength="540" font-size="660" lengthAdjust="spacingAndGlyphs"
text-anchor="middle" opacity="0">3</text>
</g>
<path d="M71370 38160
L71370 37850
L71560 38020
L71560 37950
L71590 37900
L71610 37880
L71660 37850
L71780 37850
L71820 37880
L71850 37900
L71870 37950
L71870 38090
L71850 38140
L71820 38160
" />
<path d="M71000 38750
L71000 37250
" />
</g>
<g style="fill:#008484; fill-opacity:0.0; 
stroke:#008484; stroke-width:60; stroke-opacity:1; 
stroke-linecap:round; stroke-linejoin:round;">
<g transform="rotate(-90 71000 39150)">
<text x="71000" y="39400"
textLength="1490" font-size="660" lengthAdjust="spacingAndGlyphs"
text-anchor="end" opacity="0">VDD</text>
</g>
<path d="M70720 40560
L71220 40390
L70720 40220
" />
<path d="M71220 40060
L70720 40060
L70720 39940
L70750 39870
L70790 39820
L70840 39790
L70940 39770
L71010 39770
L71100 39790
L71150 39820
L71200 39870
L71220 39940
L71220 40060
" />
<path d="M71220 39560
L70720 39560
L70720 39440
L70750 39370
L70790 39320
L70840 39290
L70940 39270
L71010 39270
L71100 39290
L71150 39320
L71200 39370
L71220 39440
L71220 39560
" />
</g>
<g style="fill:#840000; fill-opacity:0.0; 
stroke:#840000; stroke-width:60; stroke-opacity:1; 
stroke-linecap:round; stroke-linejoin:round;">
<g transform="rotate(-90 70900 38000)">
<text x="70900" y="38000"
textLength="540" font-size="660" lengthAdjust="spacingAndGlyphs"
text-anchor="middle" opacity="0">4</text>
</g>
<path d="M70540 37900
L70870 37900
" />
<path d="M70350 38020
L70700 38140
L70700 37830
" />
<path d="M70000 38750
L70000 37250
" />
</g>
<g style="fill:#008484; fill-opacity:0.0; 
stroke:#008484; stroke-width:60; stroke-opacity:1; 
stroke-linecap:round; stroke-linejoin:round;">
<g transform="rotate(-90 70000 39150)">
<text x="70000" y="39400"
textLength="1460" font-size="660" lengthAdjust="spacingAndGlyphs"
text-anchor="end" opacity="0">CLK</text>
</g>
<path d="M70170 40180
L70200 40200
L70220 40270
L70220 40320
L70200 40390
L70150 40440
L70100 40460
L70010 40480
L69940 40480
L69840 40460
L69790 40440
L69750 40390
L69720 40320
L69720 40270
L69750 40200
L69770 40180
" />
<path d="M70220 39720
L70220 39960
L69720 39960
" />
<path d="M70220 39560
L69720 39560
" />
<path d="M70220 39270
L69940 39480
" />
<path d="M69720 39270
L70010 39560
" />
</g>
<g style="fill:#840000; fill-opacity:0.0; 
stroke:#840000; stroke-width:60; stroke-opacity:1; 
stroke-linecap:round; stroke-linejoin:round;">
<g transform="rotate(-90 69900 38000)">
<text x="69900" y="38000"
textLength="540" font-size="660" lengthAdjust="spacingAndGlyphs"
text-anchor="middle" opacity="0">5</text>
</g>
<path d="M69370 37880
L69370 38110
L69610 38140
L69590 38110
L69560 38070
L69560 37950
L69590 37900
L69610 37880
L69660 37850
L69780 37850
L69820 37880
L69850 37900
L69870 37950
L69870 38070
L69850 38110
L69820 38140
" />
<path d="M69000 38750
L69000 37250
" />
</g>
<g style="fill:#008484; fill-opacity:0.0; 
stroke:#008484; stroke-width:60; stroke-opacity:1; 
stroke-linecap:round; stroke-linejoin:round;">
<g transform="rotate(-90 69000 39150)">
<text x="69000" y="39400"
textLength="1440" font-size="660" lengthAdjust="spacingAndGlyphs"
text-anchor="end" opacity="0">VSS</text>
</g>
<path d="M68720 40510
L69220 40340
L68720 40180
" />
<path d="M69200 40030
L69220 39960
L69220 39840
L69200 39790
L69170 39770
L69130 39750
L69080 39750
L69030 39770
L69010 39790
L68980 39840
L68960 39940
L68940 39980
L68910 40010
L68860 40030
L68820 40030
L68770 40010
L68750 39980
L68720 39940
L68720 39820
L68750 39750
" />
<path d="M69200 39560
L69220 39480
L69220 39370
L69200 39320
L69170 39290
L69130 39270
L69080 39270
L69030 39290
L69010 39320
L68980 39370
L68960 39460
L68940 39510
L68910 39530
L68860 39560
L68820 39560
L68770 39530
L68750 39510
L68720 39460
L68720 39340
L68750 39270
" />
</g>
<g style="fill:#840000; fill-opacity:0.0; 
stroke:#840000; stroke-width:60; stroke-opacity:1; 
stroke-linecap:round; stroke-linejoin:round;">
<g transform="rotate(-90 68900 38000)">
<text x="68900" y="38000"
textLength="540" font-size="660" lengthAdjust="spacingAndGlyphs"
text-anchor="middle" opacity="0">6</text>
</g>
<path d="M68370 37900
L68370 38000
L68400 38040
L68420 38070
L68490 38110
L68590 38140
L68780 38140
L68820 38110
L68850 38090
L68870 38040
L68870 37950
L68850 37900
L68820 37880
L68780 37850
L68660 37850
L68610 37880
L68590 37900
L68560 37950
L68560 38040
L68590 38090
L68610 38110
L68660 38140
" />
<path d="M68000 38750
L68000 37250
" />
</g>
<g style="fill:#008484; fill-opacity:0.0; 
stroke:#008484; stroke-width:60; stroke-opacity:1; 
stroke-linecap:round; stroke-linejoin:round;">
<g transform="rotate(-90 68000 39150)">
<text x="68000" y="39400"
textLength="1850" font-size="660" lengthAdjust="spacingAndGlyphs"
text-anchor="end" opacity="0">DAT0</text>
</g>
<path d="M68220 40840
L67720 40840
L67720 40720
L67750 40650
L67790 40600
L67840 40580
L67940 40560
L68010 40560
L68100 40580
L68150 40600
L68200 40650
L68220 40720
L68220 40840
" />
<path d="M68080 40370
L68080 40130
" />
<path d="M68220 40410
L67720 40250
L68220 40080
" />
<path d="M67720 39980
L67720 39700
" />
<path d="M68220 39840
L67720 39840
" />
<path d="M67720 39440
L67720 39390
L67750 39340
L67770 39320
L67820 39290
L67910 39270
L68030 39270
L68130 39290
L68170 39320
L68200 39340
L68220 39390
L68220 39440
L68200 39480
L68170 39510
L68130 39530
L68030 39560
L67910 39560
L67820 39530
L67770 39510
L67750 39480
L67720 39440
" />
</g>
<g style="fill:#840000; fill-opacity:0.0; 
stroke:#840000; stroke-width:60; stroke-opacity:1; 
stroke-linecap:round; stroke-linejoin:round;">
<g transform="rotate(-90 67900 38000)">
<text x="67900" y="38000"
textLength="540" font-size="660" lengthAdjust="spacingAndGlyphs"
text-anchor="middle" opacity="0">7</text>
</g>
<path d="M67370 38160
L67370 37830
L67870 38040
" />
<path d="M67000 38750
L67000 37250
" />
</g>
<g style="fill:#008484; fill-opacity:0.0; 
stroke:#008484; stroke-width:60; stroke-opacity:1; 
stroke-linecap:round; stroke-linejoin:round;">
<g transform="rotate(-90 67000 39150)">
<text x="67000" y="39400"
textLength="1850" font-size="660" lengthAdjust="spacingAndGlyphs"
text-anchor="end" opacity="0">DAT1</text>
</g>
<path d="M67220 40840
L66720 40840
L66720 40720
L66750 40650
L66790 40600
L66840 40580
L66940 40560
L67010 40560
L67100 40580
L67150 40600
L67200 40650
L67220 40720
L67220 40840
" />
<path d="M67080 40370
L67080 40130
" />
<path d="M67220 40410
L66720 40250
L67220 40080
" />
<path d="M66720 39980
L66720 39700
" />
<path d="M67220 39840
L66720 39840
" />
<path d="M67220 39270
L67220 39560
" />
<path d="M67220 39410
L66720 39410
L66790 39460
L66840 39510
L66860 39560
" />
</g>
<g style="fill:#840000; fill-opacity:0.0; 
stroke:#840000; stroke-width:60; stroke-opacity:1; 
stroke-linecap:round; stroke-linejoin:round;">
<g transform="rotate(-90 66900 38000)">
<text x="66900" y="38000"
textLength="540" font-size="660" lengthAdjust="spacingAndGlyphs"
text-anchor="middle" opacity="0">8</text>
</g>
<path d="M66590 38040
L66560 38090
L66540 38110
L66490 38140
L66470 38140
L66420 38110
L66400 38090
L66370 38040
L66370 37950
L66400 37900
L66420 37880
L66470 37850
L66490 37850
L66540 37880
L66560 37900
L66590 37950
L66590 38040
L66610 38090
L66630 38110
L66680 38140
L66780 38140
L66820 38110
L66850 38090
L66870 38040
L66870 37950
L66850 37900
L66820 37880
L66780 37850
L66680 37850
L66630 37880
L66610 37900
L66590 37950
" />
<path d="M65000 38750
L65000 37250
" />
</g>
<g style="fill:#008484; fill-opacity:0.0; 
stroke:#008484; stroke-width:60; stroke-opacity:1; 
stroke-linecap:round; stroke-linejoin:round;">
<g transform="rotate(-90 65000 39150)">
<text x="65000" y="39400"
textLength="2270" font-size="660" lengthAdjust="spacingAndGlyphs"
text-anchor="end" opacity="0">DET_B</text>
</g>
<path d="M65220 41270
L64720 41270
L64720 41150
L64750 41080
L64790 41030
L64840 41010
L64940 40980
L65010 40980
L65100 41010
L65150 41030
L65200 41080
L65220 41150
L65220 41270
" />
<path d="M64960 40770
L64960 40600
" />
<path d="M65220 40530
L65220 40770
L64720 40770
L64720 40530
" />
<path d="M64720 40390
L64720 40100
" />
<path d="M65220 40250
L64720 40250
" />
<path d="M65270 40060
L65270 39680
" />
<path d="M64960 39390
L64980 39320
L65010 39290
L65050 39270
L65130 39270
L65170 39290
L65200 39320
L65220 39370
L65220 39560
L64720 39560
L64720 39390
L64750 39340
L64770 39320
L64820 39290
L64860 39290
L64910 39320
L64940 39340
L64960 39390
L64960 39560
" />
</g>
<g style="fill:#840000; fill-opacity:0.0; 
stroke:#840000; stroke-width:60; stroke-opacity:1; 
stroke-linecap:round; stroke-linejoin:round;">
<g transform="rotate(-90 64900 38000)">
<text x="64900" y="38000"
textLength="540" font-size="660" lengthAdjust="spacingAndGlyphs"
text-anchor="middle" opacity="0">9</text>
</g>
<path d="M64870 38090
L64870 38000
L64850 37950
L64820 37920
L64750 37880
L64660 37850
L64470 37850
L64420 37880
L64400 37900
L64370 37950
L64370 38040
L64400 38090
L64420 38110
L64470 38140
L64590 38140
L64630 38110
L64660 38090
L64680 38040
L64680 37950
L64660 37900
L64630 37880
L64590 37850
" />
</g>
<g style="fill:#008484; fill-opacity:0.0; 
stroke:#008484; stroke-width:60; stroke-opacity:1; 
stroke-linecap:round; stroke-linejoin:round;">
<text x="77490" y="45560"
textLength="1390" font-size="660" lengthAdjust="spacingAndGlyphs"
text-anchor="middle" opacity="0">J10</text>
<path d="M77080 45030
L77080 45390
L77060 45460
L77010 45510
L76940 45530
L76890 45530
" />
<path d="M77580 45530
L77290 45530
" />
<path d="M77440 45530
L77440 45030
L77390 45100
L77340 45150
L77290 45170
" />
<path d="M77890 45030
L77940 45030
L77990 45060
L78010 45080
L78030 45130
L78060 45220
L78060 45340
L78030 45440
L78010 45480
L77990 45510
L77940 45530
L77890 45530
L77840 45510
L77820 45480
L77790 45440
L77770 45340
L77770 45220
L77790 45130
L77820 45080
L77840 45060
L77890 45030
" />
<text x="80350" y="46470"
textLength="7110" font-size="660" lengthAdjust="spacingAndGlyphs"
text-anchor="middle" opacity="0">Micro_SD_Card_Det</text>
<path d="M76940 46440
L76940 45940
L77110 46300
L77270 45940
L77270 46440
" />
<path d="M77510 46440
L77510 46110
" />
<path d="M77510 45940
L77490 45970
L77510 45990
L77540 45970
L77510 45940
L77510 45990
" />
<path d="M77960 46420
L77920 46440
L77820 46440
L77770 46420
L77750 46390
L77730 46350
L77730 46200
L77750 46160
L77770 46130
L77820 46110
L77920 46110
L77960 46130
" />
<path d="M78180 46440
L78180 46110
" />
<path d="M78180 46200
L78200 46160
L78230 46130
L78270 46110
L78320 46110
" />
<path d="M78560 46440
L78510 46420
L78490 46390
L78460 46350
L78460 46200
L78490 46160
L78510 46130
L78560 46110
L78630 46110
L78680 46130
L78700 46160
L78730 46200
L78730 46350
L78700 46390
L78680 46420
L78630 46440
L78560 46440
" />
<path d="M78820 46490
L79200 46490
" />
<path d="M79300 46420
L79370 46440
L79490 46440
L79540 46420
L79560 46390
L79580 46350
L79580 46300
L79560 46250
L79540 46230
L79490 46200
L79390 46180
L79350 46160
L79320 46130
L79300 46080
L79300 46040
L79320 45990
L79350 45970
L79390 45940
L79510 45940
L79580 45970
" />
<path d="M79800 46440
L79800 45940
L79920 45940
L79990 45970
L80040 46010
L80060 46060
L80080 46160
L80080 46230
L80060 46320
L80040 46370
L79990 46420
L79920 46440
L79800 46440
" />
<path d="M80180 46490
L80560 46490
" />
<path d="M80960 46390
L80940 46420
L80870 46440
L80820 46440
L80750 46420
L80700 46370
L80680 46320
L80650 46230
L80650 46160
L80680 46060
L80700 46010
L80750 45970
L80820 45940
L80870 45940
L80940 45970
L80960 45990
" />
<path d="M81390 46440
L81390 46180
L81370 46130
L81320 46110
L81230 46110
L81180 46130
" />
<path d="M81390 46420
L81350 46440
L81230 46440
L81180 46420
L81150 46370
L81150 46320
L81180 46270
L81230 46250
L81350 46250
L81390 46230
" />
<path d="M81630 46440
L81630 46110
" />
<path d="M81630 46200
L81650 46160
L81680 46130
L81730 46110
L81770 46110
" />
<path d="M82150 46440
L82150 45940
" />
<path d="M82150 46420
L82110 46440
L82010 46440
L81960 46420
L81940 46390
L81920 46350
L81920 46200
L81940 46160
L81960 46130
L82010 46110
L82110 46110
L82150 46130
" />
<path d="M82270 46490
L82650 46490
" />
<path d="M82770 46440
L82770 45940
L82890 45940
L82960 45970
L83010 46010
L83040 46060
L83060 46160
L83060 46230
L83040 46320
L83010 46370
L82960 46420
L82890 46440
L82770 46440
" />
<path d="M83460 46420
L83420 46440
L83320 46440
L83270 46420
L83250 46370
L83250 46180
L83270 46130
L83320 46110
L83420 46110
L83460 46130
L83490 46180
L83490 46230
L83250 46270
" />
<path d="M83630 46110
L83820 46110
" />
<path d="M83700 45940
L83700 46370
L83730 46420
L83770 46440
L83820 46440
" />
</g>
</g>
<g style="fill:#008484; fill-opacity:0.0; 
stroke:#008484; stroke-width:0; stroke-opacity:1; 
stroke-linecap:round; stroke-linejoin:round;">
<g >
</g>
<g style="fill:#840000; fill-opacity:0.0; 
stroke:#840000; stroke-width:0; stroke-opacity:1; 
stroke-linecap:round; stroke-linejoin:round;">
</g>
<g style="fill:#840000; fill-opacity:0.0; 
stroke:#840000; stroke-width:100; stroke-opacity:1; 
stroke-linecap:round; stroke-linejoin:round;">
<rect x="59350" y="16250" width="800" height="2000" rx="0" />
</g>
<g style="fill:#840000; fill-opacity:0.0; 
stroke:#840000; stroke-width:60; stroke-opacity:1; 
stroke-linecap:round; stroke-linejoin:round;">
<path d="M59750 16250
L59750 15750
" />
<path d="M59750 18250
L59750 18750
" />
</g>
<g style="fill:#008484; fill-opacity:0.0; 
stroke:#008484; stroke-width:60; stroke-opacity:1; 
stroke-linecap:round; stroke-linejoin:round;">
<text x="61200" y="17060"
textLength="1510" font-size="660" lengthAdjust="spacingAndGlyphs"
text-anchor="middle" opacity="0">R42</text>
<path d="M60870 17030
L60710 16790
" />
<path d="M60590 17030
L60590 16530
L60780 16530
L60830 16560
L60850 16580
L60870 16630
L60870 16700
L60850 16750
L60830 16770
L60780 16790
L60590 16790
" />
<path d="M61300 16700
L61300 17030
" />
<path d="M61180 16510
L61060 16860
L61370 16860
" />
<path d="M61540 16580
L61560 16560
L61610 16530
L61730 16530
L61780 16560
L61800 16580
L61830 16630
L61830 16670
L61800 16750
L61520 17030
L61830 17030
" />
<text x="61200" y="17970"
textLength="1510" font-size="660" lengthAdjust="spacingAndGlyphs"
text-anchor="middle" opacity="0">47K</text>
<path d="M60800 17610
L60800 17940
" />
<path d="M60680 17420
L60560 17770
L60870 17770
" />
<path d="M61020 17440
L61350 17440
L61140 17940
" />
<path d="M61540 17940
L61540 17440
" />
<path d="M61830 17940
L61610 17660
" />
<path d="M61830 17440
L61540 17730
" />
</g>
</g>
<g style="fill:#008484; fill-opacity:0.0; 
stroke:#008484; stroke-width:0; stroke-opacity:1; 
stroke-linecap:round; stroke-linejoin:round;">
<g >
</g>
<g style="fill:#840000; fill-opacity:0.0; 
stroke:#840000; stroke-width:0; stroke-opacity:1; 
stroke-linecap:round; stroke-linejoin:round;">
</g>
<g style="fill:#840000; fill-opacity:0.0; 
stroke:#840000; stroke-width:100; stroke-opacity:1; 
stroke-linecap:round; stroke-linejoin:round;">
<rect x="55850" y="16250" width="800" height="2000" rx="0" />
</g>
<g style="fill:#840000; fill-opacity:0.0; 
stroke:#840000; stroke-width:60; stroke-opacity:1; 
stroke-linecap:round; stroke-linejoin:round;">
<path d="M56250 16250
L56250 15750
" />
<path d="M56250 18250
L56250 18750
" />
</g>
<g style="fill:#008484; fill-opacity:0.0; 
stroke:#008484; stroke-width:60; stroke-opacity:1; 
stroke-linecap:round; stroke-linejoin:round;">
<text x="57700" y="17060"
textLength="1510" font-size="660" lengthAdjust="spacingAndGlyphs"
text-anchor="middle" opacity="0">R41</text>
<path d="M57370 17030
L57210 16790
" />
<path d="M57090 17030
L57090 16530
L57280 16530
L57330 16560
L57350 16580
L57370 16630
L57370 16700
L57350 16750
L57330 16770
L57280 16790
L57090 16790
" />
<path d="M57800 16700
L57800 17030
" />
<path d="M57680 16510
L57560 16860
L57870 16860
" />
<path d="M58330 17030
L58040 17030
" />
<path d="M58180 17030
L58180 16530
L58140 16600
L58090 16650
L58040 16670
" />
<text x="57700" y="17970"
textLength="1510" font-size="660" lengthAdjust="spacingAndGlyphs"
text-anchor="middle" opacity="0">47K</text>
<path d="M57300 17610
L57300 17940
" />
<path d="M57180 17420
L57060 17770
L57370 17770
" />
<path d="M57520 17440
L57850 17440
L57640 17940
" />
<path d="M58040 17940
L58040 17440
" />
<path d="M58330 17940
L58110 17660
" />
<path d="M58330 17440
L58040 17730
" />
</g>
</g>
<g style="fill:#008484; fill-opacity:0.0; 
stroke:#008484; stroke-width:0; stroke-opacity:1; 
stroke-linecap:round; stroke-linejoin:round;">
<g >
</g>
<g style="fill:#840000; fill-opacity:0.0; 
stroke:#840000; stroke-width:0; stroke-opacity:1; 
stroke-linecap:round; stroke-linejoin:round;">
</g>
<g style="fill:#840000; fill-opacity:0.0; 
stroke:#840000; stroke-width:100; stroke-opacity:1; 
stroke-linecap:round; stroke-linejoin:round;">
<rect x="52350" y="16250" width="800" height="2000" rx="0" />
</g>
<g style="fill:#840000; fill-opacity:0.0; 
stroke:#840000; stroke-width:60; stroke-opacity:1; 
stroke-linecap:round; stroke-linejoin:round;">
<path d="M52750 16250
L52750 15750
" />
<path d="M52750 18250
L52750 18750
" />
</g>
<g style="fill:#008484; fill-opacity:0.0; 
stroke:#008484; stroke-width:60; stroke-opacity:1; 
stroke-linecap:round; stroke-linejoin:round;">
<text x="54200" y="17060"
textLength="1510" font-size="660" lengthAdjust="spacingAndGlyphs"
text-anchor="middle" opacity="0">R40</text>
<path d="M53870 17030
L53710 16790
" />
<path d="M53590 17030
L53590 16530
L53780 16530
L53830 16560
L53850 16580
L53870 16630
L53870 16700
L53850 16750
L53830 16770
L53780 16790
L53590 16790
" />
<path d="M54300 16700
L54300 17030
" />
<path d="M54180 16510
L54060 16860
L54370 16860
" />
<path d="M54660 16530
L54710 16530
L54750 16560
L54780 16580
L54800 16630
L54830 16720
L54830 16840
L54800 16940
L54780 16980
L54750 17010
L54710 17030
L54660 17030
L54610 17010
L54590 16980
L54560 16940
L54540 16840
L54540 16720
L54560 16630
L54590 16580
L54610 16560
L54660 16530
" />
<text x="54200" y="17970"
textLength="1510" font-size="660" lengthAdjust="spacingAndGlyphs"
text-anchor="middle" opacity="0">47K</text>
<path d="M53800 17610
L53800 17940
" />
<path d="M53680 17420
L53560 17770
L53870 17770
" />
<path d="M54020 17440
L54350 17440
L54140 17940
" />
<path d="M54540 17940
L54540 17440
" />
<path d="M54830 17940
L54610 17660
" />
<path d="M54830 17440
L54540 17730
" />
</g>
</g>
<g style="fill:#008484; fill-opacity:0.0; 
stroke:#008484; stroke-width:0; stroke-opacity:1; 
stroke-linecap:round; stroke-linejoin:round;">
<g >
</g>
<g style="fill:#840000; fill-opacity:0.0; 
stroke:#840000; stroke-width:0; stroke-opacity:1; 
stroke-linecap:round; stroke-linejoin:round;">
</g>
<g style="fill:#840000; fill-opacity:0.0; 
stroke:#840000; stroke-width:100; stroke-opacity:1; 
stroke-linecap:round; stroke-linejoin:round;">
<rect x="48850" y="16250" width="800" height="2000" rx="0" />
</g>
<g style="fill:#840000; fill-opacity:0.0; 
stroke:#840000; stroke-width:60; stroke-opacity:1; 
stroke-linecap:round; stroke-linejoin:round;">
<path d="M49250 16250
L49250 15750
" />
<path d="M49250 18250
L49250 18750
" />
</g>
<g style="fill:#008484; fill-opacity:0.0; 
stroke:#008484; stroke-width:60; stroke-opacity:1; 
stroke-linecap:round; stroke-linejoin:round;">
<text x="50700" y="17060"
textLength="1510" font-size="660" lengthAdjust="spacingAndGlyphs"
text-anchor="middle" opacity="0">R13</text>
<path d="M50370 17030
L50210 16790
" />
<path d="M50090 17030
L50090 16530
L50280 16530
L50330 16560
L50350 16580
L50370 16630
L50370 16700
L50350 16750
L50330 16770
L50280 16790
L50090 16790
" />
<path d="M50850 17030
L50560 17030
" />
<path d="M50710 17030
L50710 16530
L50660 16600
L50610 16650
L50560 16670
" />
<path d="M51020 16530
L51330 16530
L51160 16720
L51230 16720
L51280 16750
L51300 16770
L51330 16820
L51330 16940
L51300 16980
L51280 17010
L51230 17030
L51090 17030
L51040 17010
L51020 16980
" />
<text x="50700" y="17970"
textLength="1510" font-size="660" lengthAdjust="spacingAndGlyphs"
text-anchor="middle" opacity="0">47K</text>
<path d="M50300 17610
L50300 17940
" />
<path d="M50180 17420
L50060 17770
L50370 17770
" />
<path d="M50520 17440
L50850 17440
L50640 17940
" />
<path d="M51040 17940
L51040 17440
" />
<path d="M51330 17940
L51110 17660
" />
<path d="M51330 17440
L51040 17730
" />
</g>
</g>
<g style="fill:#008484; fill-opacity:0.0; 
stroke:#008484; stroke-width:0; stroke-opacity:1; 
stroke-linecap:round; stroke-linejoin:round;">
<g >
</g>
<g style="fill:#840000; fill-opacity:0.0; 
stroke:#840000; stroke-width:0; stroke-opacity:1; 
stroke-linecap:round; stroke-linejoin:round;">
</g>
<g style="fill:#840000; fill-opacity:0.0; 
stroke:#840000; stroke-width:100; stroke-opacity:1; 
stroke-linecap:round; stroke-linejoin:round;">
<rect x="45100" y="16250" width="800" height="2000" rx="0" />
</g>
<g style="fill:#840000; fill-opacity:0.0; 
stroke:#840000; stroke-width:60; stroke-opacity:1; 
stroke-linecap:round; stroke-linejoin:round;">
<path d="M45500 16250
L45500 15750
" />
<path d="M45500 18250
L45500 18750
" />
</g>
<g style="fill:#008484; fill-opacity:0.0; 
stroke:#008484; stroke-width:60; stroke-opacity:1; 
stroke-linecap:round; stroke-linejoin:round;">
<text x="46950" y="17060"
textLength="1510" font-size="660" lengthAdjust="spacingAndGlyphs"
text-anchor="middle" opacity="0">R12</text>
<path d="M46620 17030
L46460 16790
" />
<path d="M46340 17030
L46340 16530
L46530 16530
L46580 16560
L46600 16580
L46620 16630
L46620 16700
L46600 16750
L46580 16770
L46530 16790
L46340 16790
" />
<path d="M47100 17030
L46810 17030
" />
<path d="M46960 17030
L46960 16530
L46910 16600
L46860 16650
L46810 16670
" />
<path d="M47290 16580
L47310 16560
L47360 16530
L47480 16530
L47530 16560
L47550 16580
L47580 16630
L47580 16670
L47550 16750
L47270 17030
L47580 17030
" />
<text x="46950" y="17970"
textLength="1510" font-size="660" lengthAdjust="spacingAndGlyphs"
text-anchor="middle" opacity="0">47K</text>
<path d="M46550 17610
L46550 17940
" />
<path d="M46430 17420
L46310 17770
L46620 17770
" />
<path d="M46770 17440
L47100 17440
L46890 17940
" />
<path d="M47290 17940
L47290 17440
" />
<path d="M47580 17940
L47360 17660
" />
<path d="M47580 17440
L47290 17730
" />
</g>
</g>
<g style="fill:#008484; fill-opacity:0.0; 
stroke:#008484; stroke-width:0; stroke-opacity:1; 
stroke-linecap:round; stroke-linejoin:round;">
<g >
</g>
<g style="fill:#840000; fill-opacity:0.0; 
stroke:#840000; stroke-width:0; stroke-opacity:1; 
stroke-linecap:round; stroke-linejoin:round;">
</g>
<g style="fill:#840000; fill-opacity:0.0; 
stroke:#840000; stroke-width:60; stroke-opacity:1; 
stroke-linecap:round; stroke-linejoin:round;">
<path style="fill:#840000; fill-opacity:0.0; 
stroke:#840000; stroke-width:60; stroke-opacity:1; 
stroke-linecap:round; stroke-linejoin:round;fill:none"
d="M 69000,19750
69000,19250
68500,19250
69000,18750
69500,19250
69000,19250
" /> 
</g>
<g style="fill:#008484; fill-opacity:0.0; 
stroke:#008484; stroke-width:60; stroke-opacity:1; 
stroke-linecap:round; stroke-linejoin:round;">
<text x="68950" y="18240"
textLength="2060" font-size="660" lengthAdjust="spacingAndGlyphs"
text-anchor="middle" opacity="0">GNDS</text>
<path d="M68330 17740
L68280 17710
L68210 17710
L68140 17740
L68090 17780
L68060 17830
L68040 17930
L68040 18000
L68060 18090
L68090 18140
L68140 18190
L68210 18210
L68250 18210
L68330 18190
L68350 18160
L68350 18000
L68250 18000
" />
<path d="M68560 18210
L68560 17710
L68850 18210
L68850 17710
" />
<path d="M69090 18210
L69090 17710
L69210 17710
L69280 17740
L69330 17780
L69350 17830
L69370 17930
L69370 18000
L69350 18090
L69330 18140
L69280 18190
L69210 18210
L69090 18210
" />
<path d="M69560 18190
L69640 18210
L69750 18210
L69800 18190
L69830 18160
L69850 18120
L69850 18070
L69830 18020
L69800 18000
L69750 17970
L69660 17950
L69610 17930
L69590 17900
L69560 17850
L69560 17810
L69590 17760
L69610 17740
L69660 17710
L69780 17710
L69850 17740
" />
</g>
</g>
<g style="fill:#008484; fill-opacity:0.0; 
stroke:#008484; stroke-width:60; stroke-opacity:1; 
stroke-linecap:round; stroke-linejoin:round;">
</g>
<g style="fill:#008400; fill-opacity:0.0; 
stroke:#008400; stroke-width:60; stroke-opacity:1; 
stroke-linecap:round; stroke-linejoin:round;">
<path d="M68000 29750
L56250 29750
" />
<path d="M52750 24250
L72000 24250
" />
<path d="M38500 24250
L52750 24250
" />
<path d="M38500 31250
L59750 31250
" />
<path d="M74000 37250
L74000 21750
" />
<path d="M73000 37250
L73000 23000
" />
<path d="M72000 37250
L72000 24250
" />
<path d="M70000 37250
L70000 26750
" />
<path d="M68000 37250
L68000 29750
" />
<path d="M67000 37250
L67000 31250
" />
<path d="M69000 19750
L69000 37250
" />
<path d="M58750 35750
L58750 40500
" />
<path d="M65000 35750
L58750 35750
" />
<path d="M65000 37250
L65000 35750
" />
<path d="M66000 33500
L38250 33500
" />
<path d="M38500 26750
L70000 26750
" />
<path d="M73000 23000
L49250 23000
" />
<path d="M45500 18750
L45500 21750
" />
<path d="M66000 37250
L66000 33500
" />
<path d="M45500 21750
L38500 21750
" />
<path d="M49250 18750
L49250 23000
" />
<path d="M74000 21750
L45500 21750
" />
<path d="M49250 23000
L38500 23000
" />
<path d="M52750 18750
L52750 24250
" />
<path d="M71000 10000
L71000 37250
" />
<path d="M71000 10000
L52750 10000
" />
<path d="M56250 18750
L56250 29750
" />
<path d="M52750 10000
L52750 13750
" />
<path d="M56250 29750
L38500 29750
" />
<path d="M59750 18750
L59750 31250
" />
<path d="M52750 10000
L47750 10000
" />
<path d="M59750 31250
L67000 31250
" />
<path d="M45500 15750
L45500 13750
" />
<path d="M45500 13750
L49250 13750
" />
<path d="M59750 13750
L59750 15750
" />
<path d="M56250 15750
L56250 13750
" />
<path d="M49250 13750
L52750 13750
" />
<path d="M56250 13750
L59750 13750
" />
<path d="M52750 15750
L52750 13750
" />
<path d="M49250 15750
L49250 13750
" />
<path d="M52750 13750
L56250 13750
" />
</g>
<g style="fill:#848400; fill-opacity:0.0; 
stroke:#848400; stroke-width:60; stroke-opacity:1; 
stroke-linecap:round; stroke-linejoin:round;">
<text x="37900" y="24500"
textLength="3440" font-size="660" lengthAdjust="spacingAndGlyphs"
text-anchor="end" opacity="0">uSD_CMD</text>
<path d="M34820 24140
L34820 24470
" />
<path d="M34600 24140
L34600 24400
L34630 24450
L34670 24470
L34750 24470
L34790 24450
L34820 24420
" />
<path d="M35030 24450
L35100 24470
L35220 24470
L35270 24450
L35290 24420
L35320 24380
L35320 24330
L35290 24280
L35270 24260
L35220 24230
L35130 24210
L35080 24190
L35060 24160
L35030 24110
L35030 24070
L35060 24020
L35080 24000
L35130 23970
L35250 23970
L35320 24000
" />
<path d="M35530 24470
L35530 23970
L35650 23970
L35720 24000
L35770 24040
L35790 24090
L35820 24190
L35820 24260
L35790 24350
L35770 24400
L35720 24450
L35650 24470
L35530 24470
" />
<path d="M35910 24520
L36290 24520
" />
<path d="M36700 24420
L36670 24450
L36600 24470
L36560 24470
L36480 24450
L36440 24400
L36410 24350
L36390 24260
L36390 24190
L36410 24090
L36440 24040
L36480 24000
L36560 23970
L36600 23970
L36670 24000
L36700 24020
" />
<path d="M36910 24470
L36910 23970
L37080 24330
L37250 23970
L37250 24470
" />
<path d="M37480 24470
L37480 23970
L37600 23970
L37670 24000
L37720 24040
L37750 24090
L37770 24190
L37770 24260
L37750 24350
L37720 24400
L37670 24450
L37600 24470
L37480 24470
" />
</g>
<g style="fill:#848400; fill-opacity:0.0; 
stroke:#848400; stroke-width:100; stroke-opacity:1; 
stroke-linecap:round; stroke-linejoin:round;">
<path style="fill:#848400; fill-opacity:0.0; 
stroke:#848400; stroke-width:100; stroke-opacity:1; 
stroke-linecap:round; stroke-linejoin:round;fill:none"
d="M 38500,24250
38250,24000
38000,24000
38000,24500
38250,24500
Z" /> 
</g>
<g style="fill:#848400; fill-opacity:0.0; 
stroke:#848400; stroke-width:60; stroke-opacity:1; 
stroke-linecap:round; stroke-linejoin:round;">
<text x="47150" y="10250"
textLength="5370" font-size="660" lengthAdjust="spacingAndGlyphs"
text-anchor="end" opacity="0">3V3_SDIO_VDD</text>
<path d="M41880 9720
L42190 9720
L42020 9910
L42090 9910
L42140 9940
L42160 9960
L42190 10010
L42190 10130
L42160 10170
L42140 10200
L42090 10220
L41950 10220
L41900 10200
L41880 10170
" />
<path d="M42330 9720
L42500 10220
L42660 9720
" />
<path d="M42780 9720
L43090 9720
L42920 9910
L43000 9910
L43040 9940
L43070 9960
L43090 10010
L43090 10130
L43070 10170
L43040 10200
L43000 10220
L42850 10220
L42810 10200
L42780 10170
" />
<path d="M43190 10270
L43570 10270
" />
<path d="M43660 10200
L43730 10220
L43850 10220
L43900 10200
L43920 10170
L43950 10130
L43950 10080
L43920 10030
L43900 10010
L43850 9980
L43760 9960
L43710 9940
L43690 9910
L43660 9860
L43660 9820
L43690 9770
L43710 9750
L43760 9720
L43880 9720
L43950 9750
" />
<path d="M44160 10220
L44160 9720
L44280 9720
L44350 9750
L44400 9790
L44420 9840
L44450 9940
L44450 10010
L44420 10100
L44400 10150
L44350 10200
L44280 10220
L44160 10220
" />
<path d="M44660 10220
L44660 9720
" />
<path d="M45000 9720
L45090 9720
L45140 9750
L45190 9790
L45210 9890
L45210 10050
L45190 10150
L45140 10200
L45090 10220
L45000 10220
L44950 10200
L44900 10150
L44880 10050
L44880 9890
L44900 9790
L44950 9750
L45000 9720
" />
<path d="M45310 10270
L45690 10270
" />
<path d="M45730 9720
L45900 10220
L46070 9720
" />
<path d="M46230 10220
L46230 9720
L46350 9720
L46420 9750
L46470 9790
L46500 9840
L46520 9940
L46520 10010
L46500 10100
L46470 10150
L46420 10200
L46350 10220
L46230 10220
" />
<path d="M46730 10220
L46730 9720
L46850 9720
L46920 9750
L46970 9790
L47000 9840
L47020 9940
L47020 10010
L47000 10100
L46970 10150
L46920 10200
L46850 10220
L46730 10220
" />
</g>
<g style="fill:#848400; fill-opacity:0.0; 
stroke:#848400; stroke-width:100; stroke-opacity:1; 
stroke-linecap:round; stroke-linejoin:round;">
<path style="fill:#848400; fill-opacity:0.0; 
stroke:#848400; stroke-width:100; stroke-opacity:1; 
stroke-linecap:round; stroke-linejoin:round;fill:none"
d="M 47750,10000
47500,9750
47250,9750
47250,10250
47500,10250
Z" /> 
</g>
<g style="fill:#848400; fill-opacity:0.0; 
stroke:#848400; stroke-width:60; stroke-opacity:1; 
stroke-linecap:round; stroke-linejoin:round;">
<text x="37900" y="23250"
textLength="2850" font-size="660" lengthAdjust="spacingAndGlyphs"
text-anchor="end" opacity="0">uSD_D3</text>
<path d="M35410 22890
L35410 23220
" />
<path d="M35200 22890
L35200 23150
L35220 23200
L35270 23220
L35340 23220
L35390 23200
L35410 23170
" />
<path d="M35630 23200
L35700 23220
L35820 23220
L35870 23200
L35890 23170
L35910 23130
L35910 23080
L35890 23030
L35870 23010
L35820 22980
L35720 22960
L35670 22940
L35650 22910
L35630 22860
L35630 22820
L35650 22770
L35670 22750
L35720 22720
L35840 22720
L35910 22750
" />
<path d="M36130 23220
L36130 22720
L36250 22720
L36320 22750
L36370 22790
L36390 22840
L36410 22940
L36410 23010
L36390 23100
L36370 23150
L36320 23200
L36250 23220
L36130 23220
" />
<path d="M36510 23270
L36890 23270
" />
<path d="M37010 23220
L37010 22720
L37130 22720
L37200 22750
L37250 22790
L37270 22840
L37290 22940
L37290 23010
L37270 23100
L37250 23150
L37200 23200
L37130 23220
L37010 23220
" />
<path d="M37460 22720
L37770 22720
L37600 22910
L37670 22910
L37720 22940
L37750 22960
L37770 23010
L37770 23130
L37750 23170
L37720 23200
L37670 23220
L37530 23220
L37480 23200
L37460 23170
" />
</g>
<g style="fill:#848400; fill-opacity:0.0; 
stroke:#848400; stroke-width:100; stroke-opacity:1; 
stroke-linecap:round; stroke-linejoin:round;">
<path style="fill:#848400; fill-opacity:0.0; 
stroke:#848400; stroke-width:100; stroke-opacity:1; 
stroke-linecap:round; stroke-linejoin:round;fill:none"
d="M 38500,23000
38250,22750
38000,23000
38250,23250
Z" /> 
</g>
<g style="fill:#848400; fill-opacity:0.0; 
stroke:#848400; stroke-width:60; stroke-opacity:1; 
stroke-linecap:round; stroke-linejoin:round;">
<text x="37900" y="27000"
textLength="3270" font-size="660" lengthAdjust="spacingAndGlyphs"
text-anchor="end" opacity="0">uSD_CLK</text>
<path d="M34980 26640
L34980 26970
" />
<path d="M34770 26640
L34770 26900
L34790 26950
L34840 26970
L34910 26970
L34960 26950
L34980 26920
" />
<path d="M35200 26950
L35270 26970
L35390 26970
L35440 26950
L35460 26920
L35480 26880
L35480 26830
L35460 26780
L35440 26760
L35390 26730
L35290 26710
L35250 26690
L35220 26660
L35200 26610
L35200 26570
L35220 26520
L35250 26500
L35290 26470
L35410 26470
L35480 26500
" />
<path d="M35700 26970
L35700 26470
L35820 26470
L35890 26500
L35940 26540
L35960 26590
L35980 26690
L35980 26760
L35960 26850
L35940 26900
L35890 26950
L35820 26970
L35700 26970
" />
<path d="M36080 27020
L36460 27020
" />
<path d="M36870 26920
L36840 26950
L36770 26970
L36720 26970
L36650 26950
L36600 26900
L36580 26850
L36560 26760
L36560 26690
L36580 26590
L36600 26540
L36650 26500
L36720 26470
L36770 26470
L36840 26500
L36870 26520
" />
<path d="M37320 26970
L37080 26970
L37080 26470
" />
<path d="M37480 26970
L37480 26470
" />
<path d="M37770 26970
L37560 26690
" />
<path d="M37770 26470
L37480 26760
" />
</g>
<g style="fill:#848400; fill-opacity:0.0; 
stroke:#848400; stroke-width:100; stroke-opacity:1; 
stroke-linecap:round; stroke-linejoin:round;">
<path style="fill:#848400; fill-opacity:0.0; 
stroke:#848400; stroke-width:100; stroke-opacity:1; 
stroke-linecap:round; stroke-linejoin:round;fill:none"
d="M 38500,26750
38250,26500
38000,26500
38000,27000
38250,27000
Z" /> 
</g>
<g style="fill:#848400; fill-opacity:0.0; 
stroke:#848400; stroke-width:60; stroke-opacity:1; 
stroke-linecap:round; stroke-linejoin:round;">
<text x="37650" y="33750"
textLength="4230" font-size="660" lengthAdjust="spacingAndGlyphs"
text-anchor="end" opacity="0">uSD_Detect</text>
<path d="M33780 33390
L33780 33720
" />
<path d="M33570 33390
L33570 33650
L33590 33700
L33640 33720
L33710 33720
L33760 33700
L33780 33670
" />
<path d="M34000 33700
L34070 33720
L34190 33720
L34230 33700
L34260 33670
L34280 33630
L34280 33580
L34260 33530
L34230 33510
L34190 33480
L34090 33460
L34040 33440
L34020 33410
L34000 33360
L34000 33320
L34020 33270
L34040 33250
L34090 33220
L34210 33220
L34280 33250
" />
<path d="M34500 33720
L34500 33220
L34620 33220
L34690 33250
L34730 33290
L34760 33340
L34780 33440
L34780 33510
L34760 33600
L34730 33650
L34690 33700
L34620 33720
L34500 33720
" />
<path d="M34880 33770
L35260 33770
" />
<path d="M35380 33720
L35380 33220
L35500 33220
L35570 33250
L35620 33290
L35640 33340
L35660 33440
L35660 33510
L35640 33600
L35620 33650
L35570 33700
L35500 33720
L35380 33720
" />
<path d="M36070 33700
L36020 33720
L35920 33720
L35880 33700
L35850 33650
L35850 33460
L35880 33410
L35920 33390
L36020 33390
L36070 33410
L36090 33460
L36090 33510
L35850 33550
" />
<path d="M36230 33390
L36420 33390
" />
<path d="M36310 33220
L36310 33650
L36330 33700
L36380 33720
L36420 33720
" />
<path d="M36780 33700
L36730 33720
L36640 33720
L36590 33700
L36570 33650
L36570 33460
L36590 33410
L36640 33390
L36730 33390
L36780 33410
L36810 33460
L36810 33510
L36570 33550
" />
<path d="M37230 33700
L37190 33720
L37090 33720
L37040 33700
L37020 33670
L37000 33630
L37000 33480
L37020 33440
L37040 33410
L37090 33390
L37190 33390
L37230 33410
" />
<path d="M37380 33390
L37570 33390
" />
<path d="M37450 33220
L37450 33650
L37470 33700
L37520 33720
L37570 33720
" />
</g>
<g style="fill:#848400; fill-opacity:0.0; 
stroke:#848400; stroke-width:100; stroke-opacity:1; 
stroke-linecap:round; stroke-linejoin:round;">
<path style="fill:#848400; fill-opacity:0.0; 
stroke:#848400; stroke-width:100; stroke-opacity:1; 
stroke-linecap:round; stroke-linejoin:round;fill:none"
d="M 37750,33500
38000,33750
38250,33750
38250,33250
38000,33250
Z" /> 
</g>
<g style="fill:#848400; fill-opacity:0.0; 
stroke:#848400; stroke-width:60; stroke-opacity:1; 
stroke-linecap:round; stroke-linejoin:round;">
<text x="37900" y="30000"
textLength="2850" font-size="660" lengthAdjust="spacingAndGlyphs"
text-anchor="end" opacity="0">uSD_D0</text>
<path d="M35410 29640
L35410 29970
" />
<path d="M35200 29640
L35200 29900
L35220 29950
L35270 29970
L35340 29970
L35390 29950
L35410 29920
" />
<path d="M35630 29950
L35700 29970
L35820 29970
L35870 29950
L35890 29920
L35910 29880
L35910 29830
L35890 29780
L35870 29760
L35820 29730
L35720 29710
L35670 29690
L35650 29660
L35630 29610
L35630 29570
L35650 29520
L35670 29500
L35720 29470
L35840 29470
L35910 29500
" />
<path d="M36130 29970
L36130 29470
L36250 29470
L36320 29500
L36370 29540
L36390 29590
L36410 29690
L36410 29760
L36390 29850
L36370 29900
L36320 29950
L36250 29970
L36130 29970
" />
<path d="M36510 30020
L36890 30020
" />
<path d="M37010 29970
L37010 29470
L37130 29470
L37200 29500
L37250 29540
L37270 29590
L37290 29690
L37290 29760
L37270 29850
L37250 29900
L37200 29950
L37130 29970
L37010 29970
" />
<path d="M37600 29470
L37650 29470
L37700 29500
L37720 29520
L37750 29570
L37770 29660
L37770 29780
L37750 29880
L37720 29920
L37700 29950
L37650 29970
L37600 29970
L37560 29950
L37530 29920
L37510 29880
L37480 29780
L37480 29660
L37510 29570
L37530 29520
L37560 29500
L37600 29470
" />
</g>
<g style="fill:#848400; fill-opacity:0.0; 
stroke:#848400; stroke-width:100; stroke-opacity:1; 
stroke-linecap:round; stroke-linejoin:round;">
<path style="fill:#848400; fill-opacity:0.0; 
stroke:#848400; stroke-width:100; stroke-opacity:1; 
stroke-linecap:round; stroke-linejoin:round;fill:none"
d="M 38500,29750
38250,29500
38000,29750
38250,30000
Z" /> 
</g>
<g style="fill:#848400; fill-opacity:0.0; 
stroke:#848400; stroke-width:60; stroke-opacity:1; 
stroke-linecap:round; stroke-linejoin:round;">
<text x="37900" y="31500"
textLength="2850" font-size="660" lengthAdjust="spacingAndGlyphs"
text-anchor="end" opacity="0">uSD_D1</text>
<path d="M35410 31140
L35410 31470
" />
<path d="M35200 31140
L35200 31400
L35220 31450
L35270 31470
L35340 31470
L35390 31450
L35410 31420
" />
<path d="M35630 31450
L35700 31470
L35820 31470
L35870 31450
L35890 31420
L35910 31380
L35910 31330
L35890 31280
L35870 31260
L35820 31230
L35720 31210
L35670 31190
L35650 31160
L35630 31110
L35630 31070
L35650 31020
L35670 31000
L35720 30970
L35840 30970
L35910 31000
" />
<path d="M36130 31470
L36130 30970
L36250 30970
L36320 31000
L36370 31040
L36390 31090
L36410 31190
L36410 31260
L36390 31350
L36370 31400
L36320 31450
L36250 31470
L36130 31470
" />
<path d="M36510 31520
L36890 31520
" />
<path d="M37010 31470
L37010 30970
L37130 30970
L37200 31000
L37250 31040
L37270 31090
L37290 31190
L37290 31260
L37270 31350
L37250 31400
L37200 31450
L37130 31470
L37010 31470
" />
<path d="M37770 31470
L37480 31470
" />
<path d="M37630 31470
L37630 30970
L37580 31040
L37530 31090
L37480 31110
" />
</g>
<g style="fill:#848400; fill-opacity:0.0; 
stroke:#848400; stroke-width:100; stroke-opacity:1; 
stroke-linecap:round; stroke-linejoin:round;">
<path style="fill:#848400; fill-opacity:0.0; 
stroke:#848400; stroke-width:100; stroke-opacity:1; 
stroke-linecap:round; stroke-linejoin:round;fill:none"
d="M 38500,31250
38250,31000
38000,31250
38250,31500
Z" /> 
</g>
<g style="fill:#848400; fill-opacity:0.0; 
stroke:#848400; stroke-width:60; stroke-opacity:1; 
stroke-linecap:round; stroke-linejoin:round;">
<text x="37900" y="22000"
textLength="2850" font-size="660" lengthAdjust="spacingAndGlyphs"
text-anchor="end" opacity="0">uSD_D2</text>
<path d="M35410 21640
L35410 21970
" />
<path d="M35200 21640
L35200 21900
L35220 21950
L35270 21970
L35340 21970
L35390 21950
L35410 21920
" />
<path d="M35630 21950
L35700 21970
L35820 21970
L35870 21950
L35890 21920
L35910 21880
L35910 21830
L35890 21780
L35870 21760
L35820 21730
L35720 21710
L35670 21690
L35650 21660
L35630 21610
L35630 21570
L35650 21520
L35670 21500
L35720 21470
L35840 21470
L35910 21500
" />
<path d="M36130 21970
L36130 21470
L36250 21470
L36320 21500
L36370 21540
L36390 21590
L36410 21690
L36410 21760
L36390 21850
L36370 21900
L36320 21950
L36250 21970
L36130 21970
" />
<path d="M36510 22020
L36890 22020
" />
<path d="M37010 21970
L37010 21470
L37130 21470
L37200 21500
L37250 21540
L37270 21590
L37290 21690
L37290 21760
L37270 21850
L37250 21900
L37200 21950
L37130 21970
L37010 21970
" />
<path d="M37480 21520
L37510 21500
L37560 21470
L37670 21470
L37720 21500
L37750 21520
L37770 21570
L37770 21610
L37750 21690
L37460 21970
L37770 21970
" />
</g>
<g style="fill:#848400; fill-opacity:0.0; 
stroke:#848400; stroke-width:100; stroke-opacity:1; 
stroke-linecap:round; stroke-linejoin:round;">
<path style="fill:#848400; fill-opacity:0.0; 
stroke:#848400; stroke-width:100; stroke-opacity:1; 
stroke-linecap:round; stroke-linejoin:round;fill:none"
d="M 38500,21750
38250,21500
38000,21750
38250,22000
Z" /> 
</g>
<g style="fill:#848400; fill-opacity:0.0; 
stroke:#848400; stroke-width:0; stroke-opacity:1; 
stroke-linecap:round; stroke-linejoin:round;">
</g>
<g style="fill:#008400; fill-opacity:0.0; 
stroke:#008400; stroke-width:0; stroke-opacity:1; 
stroke-linecap:round; stroke-linejoin:round;">
</g>
<g style="fill:#008400; fill-opacity:1.0; 
stroke:#008400; stroke-width:100; stroke-opacity:1; 
stroke-linecap:round; stroke-linejoin:round;">
<circle cx="49250" cy="13750" r="200" /> 
</g>
<g style="fill:#008400; fill-opacity:1.0; 
stroke:#008400; stroke-width:0; stroke-opacity:1; 
stroke-linecap:round; stroke-linejoin:round;">
</g>
<g style="fill:#008400; fill-opacity:1.0; 
stroke:#008400; stroke-width:100; stroke-opacity:1; 
stroke-linecap:round; stroke-linejoin:round;">
<circle cx="56250" cy="13750" r="200" /> 
</g>
<g style="fill:#008400; fill-opacity:1.0; 
stroke:#008400; stroke-width:0; stroke-opacity:1; 
stroke-linecap:round; stroke-linejoin:round;">
</g>
<g style="fill:#008400; fill-opacity:1.0; 
stroke:#008400; stroke-width:100; stroke-opacity:1; 
stroke-linecap:round; stroke-linejoin:round;">
<circle cx="52750" cy="13750" r="200" /> 
</g>
<g style="fill:#008400; fill-opacity:1.0; 
stroke:#008400; stroke-width:0; stroke-opacity:1; 
stroke-linecap:round; stroke-linejoin:round;">
</g>
<g style="fill:#008400; fill-opacity:1.0; 
stroke:#008400; stroke-width:100; stroke-opacity:1; 
stroke-linecap:round; stroke-linejoin:round;">
<circle cx="56250" cy="29750" r="200" /> 
</g>
<g style="fill:#008400; fill-opacity:1.0; 
stroke:#008400; stroke-width:0; stroke-opacity:1; 
stroke-linecap:round; stroke-linejoin:round;">
</g>
<g style="fill:#008400; fill-opacity:1.0; 
stroke:#008400; stroke-width:100; stroke-opacity:1; 
stroke-linecap:round; stroke-linejoin:round;">
<circle cx="52750" cy="24250" r="200" /> 
</g>
<g style="fill:#008400; fill-opacity:1.0; 
stroke:#008400; stroke-width:0; stroke-opacity:1; 
stroke-linecap:round; stroke-linejoin:round;">
</g>
<g style="fill:#008400; fill-opacity:1.0; 
stroke:#008400; stroke-width:100; stroke-opacity:1; 
stroke-linecap:round; stroke-linejoin:round;">
<circle cx="52750" cy="10000" r="200" /> 
</g>
<g style="fill:#008400; fill-opacity:1.0; 
stroke:#008400; stroke-width:0; stroke-opacity:1; 
stroke-linecap:round; stroke-linejoin:round;">
</g>
<g style="fill:#008400; fill-opacity:1.0; 
stroke:#008400; stroke-width:100; stroke-opacity:1; 
stroke-linecap:round; stroke-linejoin:round;">
<circle cx="49250" cy="23000" r="200" /> 
</g>
<g style="fill:#008400; fill-opacity:1.0; 
stroke:#008400; stroke-width:0; stroke-opacity:1; 
stroke-linecap:round; stroke-linejoin:round;">
</g>
<g style="fill:#008400; fill-opacity:1.0; 
stroke:#008400; stroke-width:100; stroke-opacity:1; 
stroke-linecap:round; stroke-linejoin:round;">
<circle cx="45500" cy="21750" r="200" /> 
</g>
<g style="fill:#008400; fill-opacity:1.0; 
stroke:#008400; stroke-width:0; stroke-opacity:1; 
stroke-linecap:round; stroke-linejoin:round;">
</g>
<g style="fill:#008400; fill-opacity:1.0; 
stroke:#008400; stroke-width:100; stroke-opacity:1; 
stroke-linecap:round; stroke-linejoin:round;">
<circle cx="59750" cy="31250" r="200" /> 
</g>
<g style="fill:#008400; fill-opacity:1.0; 
stroke:#008400; stroke-width:60; stroke-opacity:1; 
stroke-linecap:round; stroke-linejoin:round;">
</g>
<g style="fill:#000084; fill-opacity:1.0; 
stroke:#000084; stroke-width:60; stroke-opacity:1; 
stroke-linecap:round; stroke-linejoin:round;">
</g>
<g style="fill:#000084; fill-opacity:0.0; 
stroke:#000084; stroke-width:60; stroke-opacity:1; 
stroke-linecap:round; stroke-linejoin:round;">
<path d="M64760 54010
L65240 54490
" />
<path d="M65240 54010
L64760 54490
" />
</g> 
</svg>
