<?xml version="1.0" standalone="no"?>
 <!DOCTYPE svg PUBLIC "-//W3C//DTD SVG 1.1//EN" 
 "http://www.w3.org/Graphics/SVG/1.1/DTD/svg11.dtd"> 
<svg
  xmlns:svg="http://www.w3.org/2000/svg"
  xmlns="http://www.w3.org/2000/svg"
  xmlns:xlink="http://www.w3.org/1999/xlink"
  version="1.1"
  width="29.700220cm" height="21.000720cm" viewBox="0 0 116930 82680">
<title>SVG Picture created as SWD10_Conn-DebugInterface1-SWD10_Conn.svg date 2021/04/08 13:43:04 </title>
  <desc>Picture generated by Eeschema-SVG </desc>
<g style="fill:#000000; fill-opacity:1;stroke:#000000; stroke-opacity:1;
stroke-linecap:round; stroke-linejoin:round;"
 transform="translate(0 0) scale(1 1)">
</g>
<g style="fill:#000000; fill-opacity:0.0; 
stroke:#000000; stroke-width:-10; stroke-opacity:1; 
stroke-linecap:round; stroke-linejoin:round;">
</g>
<g style="fill:#840000; fill-opacity:0.0; 
stroke:#840000; stroke-width:-10; stroke-opacity:1; 
stroke-linecap:round; stroke-linejoin:round;">
</g>
<g style="fill:#840000; fill-opacity:0.0; 
stroke:#840000; stroke-width:100; stroke-opacity:1; 
stroke-linecap:round; stroke-linejoin:round;">
</g>
<g style="fill:#840000; fill-opacity:0.0; 
stroke:#840000; stroke-width:60; stroke-opacity:1; 
stroke-linecap:round; stroke-linejoin:round;">
<rect x="69690" y="65360" width="42520" height="12600" rx="0" />
</g>
<g style="fill:#840000; fill-opacity:0.0; 
stroke:#840000; stroke-width:100; stroke-opacity:1; 
stroke-linecap:round; stroke-linejoin:round;">
</g>
<g style="fill:#840000; fill-opacity:0.0; 
stroke:#840000; stroke-width:60; stroke-opacity:1; 
stroke-linecap:round; stroke-linejoin:round;">
<rect x="3940" y="3940" width="109050" height="74800" rx="0" />
</g>
<g style="fill:#840000; fill-opacity:0.0; 
stroke:#840000; stroke-width:100; stroke-opacity:1; 
stroke-linecap:round; stroke-linejoin:round;">
</g>
<g style="fill:#840000; fill-opacity:0.0; 
stroke:#840000; stroke-width:60; stroke-opacity:1; 
stroke-linecap:round; stroke-linejoin:round;">
<rect x="4720" y="4720" width="107490" height="73240" rx="0" />
</g>
<g style="fill:#840000; fill-opacity:0.0; 
stroke:#840000; stroke-width:100; stroke-opacity:1; 
stroke-linecap:round; stroke-linejoin:round;">
</g>
<g style="fill:#840000; fill-opacity:0.0; 
stroke:#840000; stroke-width:60; stroke-opacity:1; 
stroke-linecap:round; stroke-linejoin:round;">
<path d="M23620 4720
L23620 3940
" />
</g>
<g style="fill:#840000; fill-opacity:0.0; 
stroke:#840000; stroke-width:100; stroke-opacity:1; 
stroke-linecap:round; stroke-linejoin:round;">
</g>
<g style="fill:#840000; fill-opacity:0.0; 
stroke:#840000; stroke-width:60; stroke-opacity:1; 
stroke-linecap:round; stroke-linejoin:round;">
<path d="M43310 4720
L43310 3940
" />
</g>
<g style="fill:#840000; fill-opacity:0.0; 
stroke:#840000; stroke-width:100; stroke-opacity:1; 
stroke-linecap:round; stroke-linejoin:round;">
</g>
<g style="fill:#840000; fill-opacity:0.0; 
stroke:#840000; stroke-width:60; stroke-opacity:1; 
stroke-linecap:round; stroke-linejoin:round;">
<path d="M62990 4720
L62990 3940
" />
</g>
<g style="fill:#840000; fill-opacity:0.0; 
stroke:#840000; stroke-width:100; stroke-opacity:1; 
stroke-linecap:round; stroke-linejoin:round;">
</g>
<g style="fill:#840000; fill-opacity:0.0; 
stroke:#840000; stroke-width:60; stroke-opacity:1; 
stroke-linecap:round; stroke-linejoin:round;">
<path d="M82680 4720
L82680 3940
" />
</g>
<g style="fill:#840000; fill-opacity:0.0; 
stroke:#840000; stroke-width:100; stroke-opacity:1; 
stroke-linecap:round; stroke-linejoin:round;">
</g>
<g style="fill:#840000; fill-opacity:0.0; 
stroke:#840000; stroke-width:60; stroke-opacity:1; 
stroke-linecap:round; stroke-linejoin:round;">
<path d="M102360 4720
L102360 3940
" />
</g>
<g style="fill:#840000; fill-opacity:0.0; 
stroke:#840000; stroke-width:100; stroke-opacity:1; 
stroke-linecap:round; stroke-linejoin:round;">
</g>
<g style="fill:#840000; fill-opacity:0.0; 
stroke:#840000; stroke-width:60; stroke-opacity:1; 
stroke-linecap:round; stroke-linejoin:round;">
<text x="13780" y="4580"
textLength="550" font-size="680" lengthAdjust="spacingAndGlyphs"
text-anchor="start" opacity="0">1</text>
<path d="M14190 4560
L13900 4560
" />
<path d="M14050 4560
L14050 4050
L14000 4120
L13950 4170
L13900 4190
" />
</g>
<g style="fill:#840000; fill-opacity:0.0; 
stroke:#840000; stroke-width:100; stroke-opacity:1; 
stroke-linecap:round; stroke-linejoin:round;">
</g>
<g style="fill:#840000; fill-opacity:0.0; 
stroke:#840000; stroke-width:60; stroke-opacity:1; 
stroke-linecap:round; stroke-linejoin:round;">
<text x="33460" y="4580"
textLength="550" font-size="680" lengthAdjust="spacingAndGlyphs"
text-anchor="start" opacity="0">2</text>
<path d="M33580 4090
L33610 4070
L33660 4050
L33780 4050
L33830 4070
L33850 4090
L33870 4140
L33870 4190
L33850 4260
L33560 4560
L33870 4560
" />
</g>
<g style="fill:#840000; fill-opacity:0.0; 
stroke:#840000; stroke-width:100; stroke-opacity:1; 
stroke-linecap:round; stroke-linejoin:round;">
</g>
<g style="fill:#840000; fill-opacity:0.0; 
stroke:#840000; stroke-width:60; stroke-opacity:1; 
stroke-linecap:round; stroke-linejoin:round;">
<text x="53150" y="4580"
textLength="550" font-size="680" lengthAdjust="spacingAndGlyphs"
text-anchor="start" opacity="0">3</text>
<path d="M53250 4050
L53560 4050
L53390 4240
L53470 4240
L53520 4260
L53540 4290
L53560 4340
L53560 4460
L53540 4510
L53520 4530
L53470 4560
L53320 4560
L53270 4530
L53250 4510
" />
</g>
<g style="fill:#840000; fill-opacity:0.0; 
stroke:#840000; stroke-width:100; stroke-opacity:1; 
stroke-linecap:round; stroke-linejoin:round;">
</g>
<g style="fill:#840000; fill-opacity:0.0; 
stroke:#840000; stroke-width:60; stroke-opacity:1; 
stroke-linecap:round; stroke-linejoin:round;">
<text x="72830" y="4580"
textLength="550" font-size="680" lengthAdjust="spacingAndGlyphs"
text-anchor="start" opacity="0">4</text>
<path d="M73200 4220
L73200 4560
" />
<path d="M73070 4020
L72950 4390
L73270 4390
" />
</g>
<g style="fill:#840000; fill-opacity:0.0; 
stroke:#840000; stroke-width:100; stroke-opacity:1; 
stroke-linecap:round; stroke-linejoin:round;">
</g>
<g style="fill:#840000; fill-opacity:0.0; 
stroke:#840000; stroke-width:60; stroke-opacity:1; 
stroke-linecap:round; stroke-linejoin:round;">
<text x="92520" y="4580"
textLength="550" font-size="680" lengthAdjust="spacingAndGlyphs"
text-anchor="start" opacity="0">5</text>
<path d="M92910 4050
L92670 4050
L92640 4290
L92670 4260
L92720 4240
L92840 4240
L92890 4260
L92910 4290
L92930 4340
L92930 4460
L92910 4510
L92890 4530
L92840 4560
L92720 4560
L92670 4530
L92640 4510
" />
</g>
<g style="fill:#840000; fill-opacity:0.0; 
stroke:#840000; stroke-width:100; stroke-opacity:1; 
stroke-linecap:round; stroke-linejoin:round;">
</g>
<g style="fill:#840000; fill-opacity:0.0; 
stroke:#840000; stroke-width:60; stroke-opacity:1; 
stroke-linecap:round; stroke-linejoin:round;">
<text x="112200" y="4580"
textLength="550" font-size="680" lengthAdjust="spacingAndGlyphs"
text-anchor="start" opacity="0">6</text>
<path d="M112570 4050
L112470 4050
L112420 4070
L112400 4090
L112350 4170
L112320 4260
L112320 4460
L112350 4510
L112370 4530
L112420 4560
L112520 4560
L112570 4530
L112590 4510
L112610 4460
L112610 4340
L112590 4290
L112570 4260
L112520 4240
L112420 4240
L112370 4260
L112350 4290
L112320 4340
" />
</g>
<g style="fill:#840000; fill-opacity:0.0; 
stroke:#840000; stroke-width:100; stroke-opacity:1; 
stroke-linecap:round; stroke-linejoin:round;">
</g>
<g style="fill:#840000; fill-opacity:0.0; 
stroke:#840000; stroke-width:60; stroke-opacity:1; 
stroke-linecap:round; stroke-linejoin:round;">
<path d="M23620 77960
L23620 78740
" />
</g>
<g style="fill:#840000; fill-opacity:0.0; 
stroke:#840000; stroke-width:100; stroke-opacity:1; 
stroke-linecap:round; stroke-linejoin:round;">
</g>
<g style="fill:#840000; fill-opacity:0.0; 
stroke:#840000; stroke-width:60; stroke-opacity:1; 
stroke-linecap:round; stroke-linejoin:round;">
<path d="M43310 77960
L43310 78740
" />
</g>
<g style="fill:#840000; fill-opacity:0.0; 
stroke:#840000; stroke-width:100; stroke-opacity:1; 
stroke-linecap:round; stroke-linejoin:round;">
</g>
<g style="fill:#840000; fill-opacity:0.0; 
stroke:#840000; stroke-width:60; stroke-opacity:1; 
stroke-linecap:round; stroke-linejoin:round;">
<path d="M62990 77960
L62990 78740
" />
</g>
<g style="fill:#840000; fill-opacity:0.0; 
stroke:#840000; stroke-width:100; stroke-opacity:1; 
stroke-linecap:round; stroke-linejoin:round;">
</g>
<g style="fill:#840000; fill-opacity:0.0; 
stroke:#840000; stroke-width:60; stroke-opacity:1; 
stroke-linecap:round; stroke-linejoin:round;">
<path d="M82680 77960
L82680 78740
" />
</g>
<g style="fill:#840000; fill-opacity:0.0; 
stroke:#840000; stroke-width:100; stroke-opacity:1; 
stroke-linecap:round; stroke-linejoin:round;">
</g>
<g style="fill:#840000; fill-opacity:0.0; 
stroke:#840000; stroke-width:60; stroke-opacity:1; 
stroke-linecap:round; stroke-linejoin:round;">
<path d="M102360 77960
L102360 78740
" />
</g>
<g style="fill:#840000; fill-opacity:0.0; 
stroke:#840000; stroke-width:100; stroke-opacity:1; 
stroke-linecap:round; stroke-linejoin:round;">
</g>
<g style="fill:#840000; fill-opacity:0.0; 
stroke:#840000; stroke-width:60; stroke-opacity:1; 
stroke-linecap:round; stroke-linejoin:round;">
<text x="13780" y="78600"
textLength="550" font-size="680" lengthAdjust="spacingAndGlyphs"
text-anchor="start" opacity="0">1</text>
<path d="M14190 78580
L13900 78580
" />
<path d="M14050 78580
L14050 78070
L14000 78140
L13950 78190
L13900 78210
" />
</g>
<g style="fill:#840000; fill-opacity:0.0; 
stroke:#840000; stroke-width:100; stroke-opacity:1; 
stroke-linecap:round; stroke-linejoin:round;">
</g>
<g style="fill:#840000; fill-opacity:0.0; 
stroke:#840000; stroke-width:60; stroke-opacity:1; 
stroke-linecap:round; stroke-linejoin:round;">
<text x="33460" y="78600"
textLength="550" font-size="680" lengthAdjust="spacingAndGlyphs"
text-anchor="start" opacity="0">2</text>
<path d="M33580 78110
L33610 78090
L33660 78070
L33780 78070
L33830 78090
L33850 78110
L33870 78160
L33870 78210
L33850 78280
L33560 78580
L33870 78580
" />
</g>
<g style="fill:#840000; fill-opacity:0.0; 
stroke:#840000; stroke-width:100; stroke-opacity:1; 
stroke-linecap:round; stroke-linejoin:round;">
</g>
<g style="fill:#840000; fill-opacity:0.0; 
stroke:#840000; stroke-width:60; stroke-opacity:1; 
stroke-linecap:round; stroke-linejoin:round;">
<text x="53150" y="78600"
textLength="550" font-size="680" lengthAdjust="spacingAndGlyphs"
text-anchor="start" opacity="0">3</text>
<path d="M53250 78070
L53560 78070
L53390 78260
L53470 78260
L53520 78280
L53540 78310
L53560 78360
L53560 78480
L53540 78530
L53520 78550
L53470 78580
L53320 78580
L53270 78550
L53250 78530
" />
</g>
<g style="fill:#840000; fill-opacity:0.0; 
stroke:#840000; stroke-width:100; stroke-opacity:1; 
stroke-linecap:round; stroke-linejoin:round;">
</g>
<g style="fill:#840000; fill-opacity:0.0; 
stroke:#840000; stroke-width:60; stroke-opacity:1; 
stroke-linecap:round; stroke-linejoin:round;">
<text x="72830" y="78600"
textLength="550" font-size="680" lengthAdjust="spacingAndGlyphs"
text-anchor="start" opacity="0">4</text>
<path d="M73200 78240
L73200 78580
" />
<path d="M73070 78040
L72950 78410
L73270 78410
" />
</g>
<g style="fill:#840000; fill-opacity:0.0; 
stroke:#840000; stroke-width:100; stroke-opacity:1; 
stroke-linecap:round; stroke-linejoin:round;">
</g>
<g style="fill:#840000; fill-opacity:0.0; 
stroke:#840000; stroke-width:60; stroke-opacity:1; 
stroke-linecap:round; stroke-linejoin:round;">
<text x="92520" y="78600"
textLength="550" font-size="680" lengthAdjust="spacingAndGlyphs"
text-anchor="start" opacity="0">5</text>
<path d="M92910 78070
L92670 78070
L92640 78310
L92670 78280
L92720 78260
L92840 78260
L92890 78280
L92910 78310
L92930 78360
L92930 78480
L92910 78530
L92890 78550
L92840 78580
L92720 78580
L92670 78550
L92640 78530
" />
</g>
<g style="fill:#840000; fill-opacity:0.0; 
stroke:#840000; stroke-width:100; stroke-opacity:1; 
stroke-linecap:round; stroke-linejoin:round;">
</g>
<g style="fill:#840000; fill-opacity:0.0; 
stroke:#840000; stroke-width:60; stroke-opacity:1; 
stroke-linecap:round; stroke-linejoin:round;">
<text x="112200" y="78600"
textLength="550" font-size="680" lengthAdjust="spacingAndGlyphs"
text-anchor="start" opacity="0">6</text>
<path d="M112570 78070
L112470 78070
L112420 78090
L112400 78110
L112350 78190
L112320 78280
L112320 78480
L112350 78530
L112370 78550
L112420 78580
L112520 78580
L112570 78550
L112590 78530
L112610 78480
L112610 78360
L112590 78310
L112570 78280
L112520 78260
L112420 78260
L112370 78280
L112350 78310
L112320 78360
" />
</g>
<g style="fill:#840000; fill-opacity:0.0; 
stroke:#840000; stroke-width:100; stroke-opacity:1; 
stroke-linecap:round; stroke-linejoin:round;">
</g>
<g style="fill:#840000; fill-opacity:0.0; 
stroke:#840000; stroke-width:60; stroke-opacity:1; 
stroke-linecap:round; stroke-linejoin:round;">
<path d="M3940 23620
L4720 23620
" />
</g>
<g style="fill:#840000; fill-opacity:0.0; 
stroke:#840000; stroke-width:100; stroke-opacity:1; 
stroke-linecap:round; stroke-linejoin:round;">
</g>
<g style="fill:#840000; fill-opacity:0.0; 
stroke:#840000; stroke-width:60; stroke-opacity:1; 
stroke-linecap:round; stroke-linejoin:round;">
<path d="M3940 43310
L4720 43310
" />
</g>
<g style="fill:#840000; fill-opacity:0.0; 
stroke:#840000; stroke-width:100; stroke-opacity:1; 
stroke-linecap:round; stroke-linejoin:round;">
</g>
<g style="fill:#840000; fill-opacity:0.0; 
stroke:#840000; stroke-width:60; stroke-opacity:1; 
stroke-linecap:round; stroke-linejoin:round;">
<path d="M3940 62990
L4720 62990
" />
</g>
<g style="fill:#840000; fill-opacity:0.0; 
stroke:#840000; stroke-width:100; stroke-opacity:1; 
stroke-linecap:round; stroke-linejoin:round;">
</g>
<g style="fill:#840000; fill-opacity:0.0; 
stroke:#840000; stroke-width:60; stroke-opacity:1; 
stroke-linecap:round; stroke-linejoin:round;">
<text x="4330" y="14030"
textLength="500" font-size="680" lengthAdjust="spacingAndGlyphs"
text-anchor="middle" opacity="0">A</text>
<path d="M4200 13860
L4450 13860
" />
<path d="M4160 14010
L4330 13500
L4500 14010
" />
</g>
<g style="fill:#840000; fill-opacity:0.0; 
stroke:#840000; stroke-width:100; stroke-opacity:1; 
stroke-linecap:round; stroke-linejoin:round;">
</g>
<g style="fill:#840000; fill-opacity:0.0; 
stroke:#840000; stroke-width:60; stroke-opacity:1; 
stroke-linecap:round; stroke-linejoin:round;">
<text x="4330" y="33710"
textLength="570" font-size="680" lengthAdjust="spacingAndGlyphs"
text-anchor="middle" opacity="0">B</text>
<path d="M4360 33420
L4430 33440
L4460 33470
L4480 33520
L4480 33590
L4460 33640
L4430 33660
L4390 33690
L4190 33690
L4190 33180
L4360 33180
L4410 33200
L4430 33220
L4460 33270
L4460 33320
L4430 33370
L4410 33390
L4360 33420
L4190 33420
" />
</g>
<g style="fill:#840000; fill-opacity:0.0; 
stroke:#840000; stroke-width:100; stroke-opacity:1; 
stroke-linecap:round; stroke-linejoin:round;">
</g>
<g style="fill:#840000; fill-opacity:0.0; 
stroke:#840000; stroke-width:60; stroke-opacity:1; 
stroke-linecap:round; stroke-linejoin:round;">
<text x="4330" y="53400"
textLength="570" font-size="680" lengthAdjust="spacingAndGlyphs"
text-anchor="middle" opacity="0">C</text>
<path d="M4480 53330
L4460 53350
L4390 53380
L4340 53380
L4260 53350
L4220 53300
L4190 53250
L4170 53160
L4170 53080
L4190 52990
L4220 52940
L4260 52890
L4340 52870
L4390 52870
L4460 52890
L4480 52910
" />
</g>
<g style="fill:#840000; fill-opacity:0.0; 
stroke:#840000; stroke-width:100; stroke-opacity:1; 
stroke-linecap:round; stroke-linejoin:round;">
</g>
<g style="fill:#840000; fill-opacity:0.0; 
stroke:#840000; stroke-width:60; stroke-opacity:1; 
stroke-linecap:round; stroke-linejoin:round;">
<text x="4330" y="73080"
textLength="570" font-size="680" lengthAdjust="spacingAndGlyphs"
text-anchor="middle" opacity="0">D</text>
<path d="M4190 73060
L4190 72550
L4310 72550
L4390 72570
L4430 72620
L4460 72670
L4480 72760
L4480 72840
L4460 72930
L4430 72980
L4390 73030
L4310 73060
L4190 73060
" />
</g>
<g style="fill:#840000; fill-opacity:0.0; 
stroke:#840000; stroke-width:100; stroke-opacity:1; 
stroke-linecap:round; stroke-linejoin:round;">
</g>
<g style="fill:#840000; fill-opacity:0.0; 
stroke:#840000; stroke-width:60; stroke-opacity:1; 
stroke-linecap:round; stroke-linejoin:round;">
<path d="M112990 23620
L112210 23620
" />
</g>
<g style="fill:#840000; fill-opacity:0.0; 
stroke:#840000; stroke-width:100; stroke-opacity:1; 
stroke-linecap:round; stroke-linejoin:round;">
</g>
<g style="fill:#840000; fill-opacity:0.0; 
stroke:#840000; stroke-width:60; stroke-opacity:1; 
stroke-linecap:round; stroke-linejoin:round;">
<path d="M112990 43310
L112210 43310
" />
</g>
<g style="fill:#840000; fill-opacity:0.0; 
stroke:#840000; stroke-width:100; stroke-opacity:1; 
stroke-linecap:round; stroke-linejoin:round;">
</g>
<g style="fill:#840000; fill-opacity:0.0; 
stroke:#840000; stroke-width:60; stroke-opacity:1; 
stroke-linecap:round; stroke-linejoin:round;">
<path d="M112990 62990
L112210 62990
" />
</g>
<g style="fill:#840000; fill-opacity:0.0; 
stroke:#840000; stroke-width:100; stroke-opacity:1; 
stroke-linecap:round; stroke-linejoin:round;">
</g>
<g style="fill:#840000; fill-opacity:0.0; 
stroke:#840000; stroke-width:60; stroke-opacity:1; 
stroke-linecap:round; stroke-linejoin:round;">
<text x="112600" y="14030"
textLength="500" font-size="680" lengthAdjust="spacingAndGlyphs"
text-anchor="middle" opacity="0">A</text>
<path d="M112470 13860
L112720 13860
" />
<path d="M112430 14010
L112600 13500
L112770 14010
" />
</g>
<g style="fill:#840000; fill-opacity:0.0; 
stroke:#840000; stroke-width:100; stroke-opacity:1; 
stroke-linecap:round; stroke-linejoin:round;">
</g>
<g style="fill:#840000; fill-opacity:0.0; 
stroke:#840000; stroke-width:60; stroke-opacity:1; 
stroke-linecap:round; stroke-linejoin:round;">
<text x="112600" y="33710"
textLength="570" font-size="680" lengthAdjust="spacingAndGlyphs"
text-anchor="middle" opacity="0">B</text>
<path d="M112630 33420
L112700 33440
L112730 33470
L112750 33520
L112750 33590
L112730 33640
L112700 33660
L112660 33690
L112460 33690
L112460 33180
L112630 33180
L112680 33200
L112700 33220
L112730 33270
L112730 33320
L112700 33370
L112680 33390
L112630 33420
L112460 33420
" />
</g>
<g style="fill:#840000; fill-opacity:0.0; 
stroke:#840000; stroke-width:100; stroke-opacity:1; 
stroke-linecap:round; stroke-linejoin:round;">
</g>
<g style="fill:#840000; fill-opacity:0.0; 
stroke:#840000; stroke-width:60; stroke-opacity:1; 
stroke-linecap:round; stroke-linejoin:round;">
<text x="112600" y="53400"
textLength="570" font-size="680" lengthAdjust="spacingAndGlyphs"
text-anchor="middle" opacity="0">C</text>
<path d="M112750 53330
L112730 53350
L112660 53380
L112610 53380
L112530 53350
L112490 53300
L112460 53250
L112440 53160
L112440 53080
L112460 52990
L112490 52940
L112530 52890
L112610 52870
L112660 52870
L112730 52890
L112750 52910
" />
</g>
<g style="fill:#840000; fill-opacity:0.0; 
stroke:#840000; stroke-width:100; stroke-opacity:1; 
stroke-linecap:round; stroke-linejoin:round;">
</g>
<g style="fill:#840000; fill-opacity:0.0; 
stroke:#840000; stroke-width:60; stroke-opacity:1; 
stroke-linecap:round; stroke-linejoin:round;">
<text x="112600" y="73080"
textLength="570" font-size="680" lengthAdjust="spacingAndGlyphs"
text-anchor="middle" opacity="0">D</text>
<path d="M112460 73060
L112460 72550
L112580 72550
L112660 72570
L112700 72620
L112730 72670
L112750 72760
L112750 72840
L112730 72930
L112700 72980
L112660 73030
L112580 73060
L112460 73060
" />
</g>
<g style="fill:#840000; fill-opacity:0.0; 
stroke:#840000; stroke-width:100; stroke-opacity:1; 
stroke-linecap:round; stroke-linejoin:round;">
</g>
<g style="fill:#840000; fill-opacity:0.0; 
stroke:#840000; stroke-width:60; stroke-opacity:1; 
stroke-linecap:round; stroke-linejoin:round;">
<text x="78740" y="76320"
textLength="2760" font-size="780" lengthAdjust="spacingAndGlyphs"
text-anchor="start" opacity="0">Date: </text>
<path d="M78910 76290
L78910 75700
L79050 75700
L79130 75730
L79190 75790
L79210 75840
L79240 75950
L79240 76040
L79210 76150
L79190 76210
L79130 76260
L79050 76290
L78910 76290
" />
<path d="M79750 76290
L79750 75980
L79720 75930
L79660 75900
L79550 75900
L79500 75930
" />
<path d="M79750 76260
L79690 76290
L79550 76290
L79500 76260
L79470 76210
L79470 76150
L79500 76100
L79550 76070
L79690 76070
L79750 76040
" />
<path d="M79950 75900
L80170 75900
" />
<path d="M80030 75700
L80030 76210
L80060 76260
L80110 76290
L80170 76290
" />
<path d="M80590 76260
L80540 76290
L80420 76290
L80370 76260
L80340 76210
L80340 75980
L80370 75930
L80420 75900
L80540 75900
L80590 75930
L80620 75980
L80620 76040
L80340 76100
" />
<path d="M80870 76240
L80900 76260
L80870 76290
L80840 76260
L80870 76240
L80870 76290
" />
<path d="M80870 75930
L80900 75950
L80870 75980
L80840 75950
L80870 75930
L80870 75980
" />
</g>
<g style="fill:#840000; fill-opacity:0.0; 
stroke:#840000; stroke-width:100; stroke-opacity:1; 
stroke-linecap:round; stroke-linejoin:round;">
</g>
<g style="fill:#840000; fill-opacity:0.0; 
stroke:#840000; stroke-width:60; stroke-opacity:1; 
stroke-linecap:round; stroke-linejoin:round;">
<path d="M69690 76580
L112210 76580
" />
</g>
<g style="fill:#840000; fill-opacity:0.0; 
stroke:#840000; stroke-width:100; stroke-opacity:1; 
stroke-linecap:round; stroke-linejoin:round;">
</g>
<g style="fill:#840000; fill-opacity:0.0; 
stroke:#840000; stroke-width:60; stroke-opacity:1; 
stroke-linecap:round; stroke-linejoin:round;">
<text x="70080" y="77420"
textLength="16950" font-size="780" lengthAdjust="spacingAndGlyphs"
text-anchor="start" opacity="0">KiCad E.D.A.  kicad (5.1.8-0-10_14)</text>
<path d="M70250 77390
L70250 76800
" />
<path d="M70580 77390
L70330 77050
" />
<path d="M70580 76800
L70250 77140
" />
<path d="M70840 77390
L70840 77000
" />
<path d="M70840 76800
L70810 76830
L70840 76860
L70860 76830
L70840 76800
L70840 76860
" />
<path d="M71450 77340
L71430 77360
L71340 77390
L71290 77390
L71200 77360
L71140 77310
L71120 77250
L71090 77140
L71090 77050
L71120 76940
L71140 76890
L71200 76830
L71290 76800
L71340 76800
L71430 76830
L71450 76860
" />
<path d="M71960 77390
L71960 77080
L71930 77030
L71880 77000
L71760 77000
L71710 77030
" />
<path d="M71960 77360
L71900 77390
L71760 77390
L71710 77360
L71680 77310
L71680 77250
L71710 77200
L71760 77170
L71900 77170
L71960 77140
" />
<path d="M72490 77390
L72490 76800
" />
<path d="M72490 77360
L72440 77390
L72320 77390
L72270 77360
L72240 77340
L72210 77280
L72210 77110
L72240 77050
L72270 77030
L72320 77000
L72440 77000
L72490 77030
" />
<path d="M73220 77080
L73420 77080
" />
<path d="M73500 77390
L73220 77390
L73220 76800
L73500 76800
" />
<path d="M73760 77340
L73790 77360
L73760 77390
L73730 77360
L73760 77340
L73760 77390
" />
<path d="M74040 77390
L74040 76800
L74180 76800
L74260 76830
L74320 76890
L74350 76940
L74380 77050
L74380 77140
L74350 77250
L74320 77310
L74260 77360
L74180 77390
L74040 77390
" />
<path d="M74630 77340
L74660 77360
L74630 77390
L74600 77360
L74630 77340
L74630 77390
" />
<path d="M74880 77220
L75160 77220
" />
<path d="M74830 77390
L75020 76800
L75220 77390
" />
<path d="M75420 77340
L75440 77360
L75420 77390
L75390 77360
L75420 77340
L75420 77390
" />
<path d="M76600 77390
L76600 76800
" />
<path d="M76650 77170
L76820 77390
" />
<path d="M76820 77000
L76600 77220
" />
<path d="M77070 77390
L77070 77000
" />
<path d="M77070 76800
L77040 76830
L77070 76860
L77100 76830
L77070 76800
L77070 76860
" />
<path d="M77610 77360
L77550 77390
L77440 77390
L77380 77360
L77350 77340
L77330 77280
L77330 77110
L77350 77050
L77380 77030
L77440 77000
L77550 77000
L77610 77030
" />
<path d="M78110 77390
L78110 77080
L78080 77030
L78030 77000
L77920 77000
L77860 77030
" />
<path d="M78110 77360
L78060 77390
L77920 77390
L77860 77360
L77830 77310
L77830 77250
L77860 77200
L77920 77170
L78060 77170
L78110 77140
" />
<path d="M78650 77390
L78650 76800
" />
<path d="M78650 77360
L78590 77390
L78480 77390
L78420 77360
L78390 77340
L78370 77280
L78370 77110
L78390 77050
L78420 77030
L78480 77000
L78590 77000
L78650 77030
" />
<path d="M79550 77620
L79520 77590
L79460 77500
L79430 77450
L79400 77360
L79380 77220
L79380 77110
L79400 76970
L79430 76890
L79460 76830
L79520 76750
L79550 76720
" />
<path d="M80050 76800
L79770 76800
L79740 77080
L79770 77050
L79830 77030
L79970 77030
L80020 77050
L80050 77080
L80080 77140
L80080 77280
L80050 77340
L80020 77360
L79970 77390
L79830 77390
L79770 77360
L79740 77340
" />
<path d="M80330 77340
L80360 77360
L80330 77390
L80300 77360
L80330 77340
L80330 77390
" />
<path d="M80920 77390
L80580 77390
" />
<path d="M80750 77390
L80750 76800
L80700 76890
L80640 76940
L80580 76970
" />
<path d="M81170 77340
L81200 77360
L81170 77390
L81150 77360
L81170 77340
L81170 77390
" />
<path d="M81540 77050
L81480 77030
L81460 77000
L81430 76940
L81430 76910
L81460 76860
L81480 76830
L81540 76800
L81650 76800
L81710 76830
L81740 76860
L81760 76910
L81760 76940
L81740 77000
L81710 77030
L81650 77050
L81540 77050
L81480 77080
L81460 77110
L81430 77170
L81430 77280
L81460 77340
L81480 77360
L81540 77390
L81650 77390
L81710 77360
L81740 77340
L81760 77280
L81760 77170
L81740 77110
L81710 77080
L81650 77050
" />
<path d="M82020 77170
L82470 77170
" />
<path d="M82860 76800
L82920 76800
L82970 76830
L83000 76860
L83030 76910
L83060 77030
L83060 77170
L83030 77280
L83000 77340
L82970 77360
L82920 77390
L82860 77390
L82800 77360
L82780 77340
L82750 77280
L82720 77170
L82720 77030
L82750 76910
L82780 76860
L82800 76830
L82860 76800
" />
<path d="M83310 77170
L83760 77170
" />
<path d="M84350 77390
L84010 77390
" />
<path d="M84180 77390
L84180 76800
L84120 76890
L84070 76940
L84010 76970
" />
<path d="M84710 76800
L84770 76800
L84830 76830
L84860 76860
L84880 76910
L84910 77030
L84910 77170
L84880 77280
L84860 77340
L84830 77360
L84770 77390
L84710 77390
L84660 77360
L84630 77340
L84600 77280
L84570 77170
L84570 77030
L84600 76910
L84630 76860
L84660 76830
L84710 76800
" />
<path d="M85020 77450
L85470 77450
" />
<path d="M85920 77390
L85590 77390
" />
<path d="M85750 77390
L85750 76800
L85700 76890
L85640 76940
L85590 76970
" />
<path d="M86430 77000
L86430 77390
" />
<path d="M86290 76770
L86150 77200
L86510 77200
" />
<path d="M86680 77620
L86710 77590
L86770 77500
L86790 77450
L86820 77360
L86850 77220
L86850 77110
L86820 76970
L86790 76890
L86770 76830
L86710 76750
L86680 76720
" />
</g>
<g style="fill:#840000; fill-opacity:0.0; 
stroke:#840000; stroke-width:100; stroke-opacity:1; 
stroke-linecap:round; stroke-linejoin:round;">
</g>
<g style="fill:#840000; fill-opacity:0.0; 
stroke:#840000; stroke-width:60; stroke-opacity:1; 
stroke-linecap:round; stroke-linejoin:round;">
<path d="M69690 75400
L112210 75400
" />
</g>
<g style="fill:#840000; fill-opacity:0.0; 
stroke:#840000; stroke-width:100; stroke-opacity:1; 
stroke-linecap:round; stroke-linejoin:round;">
</g>
<g style="fill:#840000; fill-opacity:0.0; 
stroke:#840000; stroke-width:120; stroke-opacity:1; 
stroke-linecap:round; stroke-linejoin:round;">
<text x="103540" y="76320"
textLength="4470" font-size="780" lengthAdjust="spacingAndGlyphs"
text-anchor="start" opacity="0">Rev: RevB</text>
<path d="M104090 76290
L103890 76010
" />
<path d="M103750 76290
L103750 75700
L103980 75700
L104030 75730
L104060 75760
L104090 75810
L104090 75900
L104060 75950
L104030 75980
L103980 76010
L103750 76010
" />
<path d="M104570 76260
L104510 76290
L104400 76290
L104340 76260
L104320 76210
L104320 75980
L104340 75930
L104400 75900
L104510 75900
L104570 75930
L104600 75980
L104600 76040
L104320 76100
" />
<path d="M104790 75900
L104930 76290
L105070 75900
" />
<path d="M105300 76240
L105330 76260
L105300 76290
L105270 76260
L105300 76240
L105300 76290
" />
<path d="M105300 75930
L105330 75950
L105300 75980
L105270 75950
L105300 75930
L105300 75980
" />
<path d="M106370 76290
L106170 76010
" />
<path d="M106030 76290
L106030 75700
L106250 75700
L106310 75730
L106340 75760
L106370 75810
L106370 75900
L106340 75950
L106310 75980
L106250 76010
L106030 76010
" />
<path d="M106840 76260
L106790 76290
L106680 76290
L106620 76260
L106590 76210
L106590 75980
L106620 75930
L106680 75900
L106790 75900
L106840 75930
L106870 75980
L106870 76040
L106590 76100
" />
<path d="M107070 75900
L107210 76290
L107350 75900
" />
<path d="M107770 75980
L107860 76010
L107880 76040
L107910 76100
L107910 76180
L107880 76240
L107860 76260
L107800 76290
L107570 76290
L107570 75700
L107770 75700
L107830 75730
L107860 75760
L107880 75810
L107880 75870
L107860 75930
L107830 75950
L107770 75980
L107570 75980
" />
</g>
<g style="fill:#840000; fill-opacity:0.0; 
stroke:#840000; stroke-width:100; stroke-opacity:1; 
stroke-linecap:round; stroke-linejoin:round;">
</g>
<g style="fill:#840000; fill-opacity:0.0; 
stroke:#840000; stroke-width:60; stroke-opacity:1; 
stroke-linecap:round; stroke-linejoin:round;">
<text x="70080" y="76320"
textLength="3780" font-size="780" lengthAdjust="spacingAndGlyphs"
text-anchor="start" opacity="0">Size: A4</text>
<path d="M70220 76260
L70300 76290
L70440 76290
L70500 76260
L70530 76240
L70550 76180
L70550 76120
L70530 76070
L70500 76040
L70440 76010
L70330 75980
L70270 75950
L70250 75930
L70220 75870
L70220 75810
L70250 75760
L70270 75730
L70330 75700
L70470 75700
L70550 75730
" />
<path d="M70810 76290
L70810 75900
" />
<path d="M70810 75700
L70780 75730
L70810 75760
L70840 75730
L70810 75700
L70810 75760
" />
<path d="M71030 75900
L71340 75900
L71030 76290
L71340 76290
" />
<path d="M71790 76260
L71730 76290
L71620 76290
L71570 76260
L71540 76210
L71540 75980
L71570 75930
L71620 75900
L71730 75900
L71790 75930
L71820 75980
L71820 76040
L71540 76100
" />
<path d="M72070 76240
L72100 76260
L72070 76290
L72040 76260
L72070 76240
L72070 76290
" />
<path d="M72070 75930
L72100 75950
L72070 75980
L72040 75950
L72070 75930
L72070 75980
" />
<path d="M72770 76120
L73060 76120
" />
<path d="M72720 76290
L72910 75700
L73110 76290
" />
<path d="M73560 75900
L73560 76290
" />
<path d="M73420 75670
L73280 76100
L73650 76100
" />
</g>
<g style="fill:#840000; fill-opacity:0.0; 
stroke:#840000; stroke-width:100; stroke-opacity:1; 
stroke-linecap:round; stroke-linejoin:round;">
</g>
<g style="fill:#840000; fill-opacity:0.0; 
stroke:#840000; stroke-width:60; stroke-opacity:1; 
stroke-linecap:round; stroke-linejoin:round;">
<text x="103540" y="77420"
textLength="3350" font-size="780" lengthAdjust="spacingAndGlyphs"
text-anchor="start" opacity="0">Id: 5/9</text>
<path d="M103710 77390
L103710 76800
" />
<path d="M104240 77390
L104240 76800
" />
<path d="M104240 77360
L104180 77390
L104070 77390
L104010 77360
L103990 77340
L103960 77280
L103960 77110
L103990 77050
L104010 77030
L104070 77000
L104180 77000
L104240 77030
" />
<path d="M104520 77340
L104550 77360
L104520 77390
L104490 77360
L104520 77340
L104520 77390
" />
<path d="M104520 77030
L104550 77050
L104520 77080
L104490 77050
L104520 77030
L104520 77080
" />
<path d="M105530 76800
L105250 76800
L105220 77080
L105250 77050
L105310 77030
L105450 77030
L105500 77050
L105530 77080
L105560 77140
L105560 77280
L105530 77340
L105500 77360
L105450 77390
L105310 77390
L105250 77360
L105220 77340
" />
<path d="M106230 76770
L105730 77530
" />
<path d="M106460 77390
L106570 77390
L106630 77360
L106660 77340
L106710 77250
L106740 77140
L106740 76910
L106710 76860
L106680 76830
L106630 76800
L106520 76800
L106460 76830
L106430 76860
L106400 76910
L106400 77050
L106430 77110
L106460 77140
L106520 77170
L106630 77170
L106680 77140
L106710 77110
L106740 77050
" />
</g>
<g style="fill:#840000; fill-opacity:0.0; 
stroke:#840000; stroke-width:100; stroke-opacity:1; 
stroke-linecap:round; stroke-linejoin:round;">
</g>
<g style="fill:#840000; fill-opacity:0.0; 
stroke:#840000; stroke-width:60; stroke-opacity:1; 
stroke-linecap:round; stroke-linejoin:round;">
<path d="M69690 73820
L112210 73820
" />
</g>
<g style="fill:#840000; fill-opacity:0.0; 
stroke:#840000; stroke-width:100; stroke-opacity:1; 
stroke-linecap:round; stroke-linejoin:round;">
</g>
<g style="fill:#840000; fill-opacity:0.0; 
stroke:#840000; stroke-width:160; stroke-opacity:1; 
stroke-linecap:round; stroke-linejoin:round;">
<text x="70080" y="74920"
textLength="3710" font-size="1050" lengthAdjust="spacingAndGlyphs"
text-anchor="start" opacity="0">Title: </text>
<path d="M70360 74090
L70810 74090
" />
<path d="M70480 74880
L70580 74090
" />
<path d="M70970 74880
L71040 74360
" />
<path d="M71070 74090
L71030 74130
L71060 74170
L71110 74130
L71070 74090
L71060 74170
" />
<path d="M71300 74360
L71600 74360
" />
<path d="M71450 74090
L71360 74770
L71390 74840
L71460 74880
L71540 74880
" />
<path d="M71910 74880
L71840 74840
L71820 74770
L71900 74090
" />
<path d="M72520 74840
L72440 74880
L72290 74880
L72220 74840
L72190 74770
L72230 74470
L72280 74390
L72360 74360
L72510 74360
L72580 74390
L72610 74470
L72600 74540
L72210 74620
" />
<path d="M72900 74810
L72930 74840
L72890 74880
L72860 74840
L72900 74810
L72890 74880
" />
<path d="M72950 74390
L72990 74430
L72940 74470
L72910 74430
L72950 74390
L72940 74470
" />
</g>
<g style="fill:#840000; fill-opacity:0.0; 
stroke:#840000; stroke-width:100; stroke-opacity:1; 
stroke-linecap:round; stroke-linejoin:round;">
</g>
<g style="fill:#840000; fill-opacity:0.0; 
stroke:#840000; stroke-width:60; stroke-opacity:1; 
stroke-linecap:round; stroke-linejoin:round;">
<text x="70080" y="73400"
textLength="9930" font-size="780" lengthAdjust="spacingAndGlyphs"
text-anchor="start" opacity="0">File: SWD10_Conn.sch</text>
<path d="M70440 73060
L70250 73060
" />
<path d="M70250 73370
L70250 72780
L70530 72780
" />
<path d="M70750 73370
L70750 72980
" />
<path d="M70750 72780
L70720 72810
L70750 72840
L70780 72810
L70750 72780
L70750 72840
" />
<path d="M71120 73370
L71060 73340
L71030 73290
L71030 72780
" />
<path d="M71570 73340
L71510 73370
L71400 73370
L71340 73340
L71310 73290
L71310 73060
L71340 73010
L71400 72980
L71510 72980
L71570 73010
L71590 73060
L71590 73120
L71310 73180
" />
<path d="M71850 73320
L71880 73340
L71850 73370
L71820 73340
L71850 73320
L71850 73370
" />
<path d="M71850 73010
L71880 73030
L71850 73060
L71820 73030
L71850 73010
L71850 73060
" />
<path d="M72550 73340
L72630 73370
L72770 73370
L72830 73340
L72860 73320
L72890 73260
L72890 73200
L72860 73150
L72830 73120
L72770 73090
L72660 73060
L72610 73030
L72580 73010
L72550 72950
L72550 72890
L72580 72840
L72610 72810
L72660 72780
L72800 72780
L72890 72810
" />
<path d="M73080 72780
L73220 73370
L73340 72950
L73450 73370
L73590 72780
" />
<path d="M73810 73370
L73810 72780
L73950 72780
L74040 72810
L74090 72870
L74120 72920
L74150 73030
L74150 73120
L74120 73230
L74090 73290
L74040 73340
L73950 73370
L73810 73370
" />
<path d="M74710 73370
L74380 73370
" />
<path d="M74540 73370
L74540 72780
L74490 72870
L74430 72920
L74380 72950
" />
<path d="M75080 72780
L75130 72780
L75190 72810
L75220 72840
L75250 72890
L75270 73010
L75270 73150
L75250 73260
L75220 73320
L75190 73340
L75130 73370
L75080 73370
L75020 73340
L74990 73320
L74970 73260
L74940 73150
L74940 73010
L74970 72890
L74990 72840
L75020 72810
L75080 72780
" />
<path d="M75390 73430
L75840 73430
" />
<path d="M76310 73320
L76290 73340
L76200 73370
L76150 73370
L76060 73340
L76010 73290
L75980 73230
L75950 73120
L75950 73030
L75980 72920
L76010 72870
L76060 72810
L76150 72780
L76200 72780
L76290 72810
L76310 72840
" />
<path d="M76650 73370
L76600 73340
L76570 73320
L76540 73260
L76540 73090
L76570 73030
L76600 73010
L76650 72980
L76740 72980
L76790 73010
L76820 73030
L76850 73090
L76850 73260
L76820 73320
L76790 73340
L76740 73370
L76650 73370
" />
<path d="M77100 72980
L77100 73370
" />
<path d="M77100 73030
L77130 73010
L77190 72980
L77270 72980
L77330 73010
L77350 73060
L77350 73370
" />
<path d="M77630 72980
L77630 73370
" />
<path d="M77630 73030
L77660 73010
L77720 72980
L77800 72980
L77860 73010
L77890 73060
L77890 73370
" />
<path d="M78170 73320
L78200 73340
L78170 73370
L78140 73340
L78170 73320
L78170 73370
" />
<path d="M78420 73340
L78480 73370
L78590 73370
L78650 73340
L78670 73290
L78670 73260
L78650 73200
L78590 73180
L78510 73180
L78450 73150
L78420 73090
L78420 73060
L78450 73010
L78510 72980
L78590 72980
L78650 73010
" />
<path d="M79180 73340
L79120 73370
L79010 73370
L78960 73340
L78930 73320
L78900 73260
L78900 73090
L78930 73030
L78960 73010
L79010 72980
L79120 72980
L79180 73010
" />
<path d="M79430 73370
L79430 72780
" />
<path d="M79690 73370
L79690 73060
L79660 73010
L79600 72980
L79520 72980
L79460 73010
L79430 73030
" />
</g>
<g style="fill:#840000; fill-opacity:0.0; 
stroke:#840000; stroke-width:100; stroke-opacity:1; 
stroke-linecap:round; stroke-linejoin:round;">
</g>
<g style="fill:#840000; fill-opacity:0.0; 
stroke:#840000; stroke-width:60; stroke-opacity:1; 
stroke-linecap:round; stroke-linejoin:round;">
<path d="M69690 71460
L112210 71460
" />
</g>
<g style="fill:#840000; fill-opacity:0.0; 
stroke:#840000; stroke-width:100; stroke-opacity:1; 
stroke-linecap:round; stroke-linejoin:round;">
</g>
<g style="fill:#840000; fill-opacity:0.0; 
stroke:#840000; stroke-width:60; stroke-opacity:1; 
stroke-linecap:round; stroke-linejoin:round;">
<text x="70080" y="72340"
textLength="17840" font-size="780" lengthAdjust="spacingAndGlyphs"
text-anchor="start" opacity="0">Sheet: /DebugInterface1/SWD10_Conn/</text>
<path d="M70220 72280
L70300 72310
L70440 72310
L70500 72280
L70530 72260
L70550 72200
L70550 72140
L70530 72090
L70500 72060
L70440 72030
L70330 72000
L70270 71970
L70250 71950
L70220 71890
L70220 71830
L70250 71780
L70270 71750
L70330 71720
L70470 71720
L70550 71750
" />
<path d="M70810 72310
L70810 71720
" />
<path d="M71060 72310
L71060 72000
L71030 71950
L70980 71920
L70890 71920
L70840 71950
L70810 71970
" />
<path d="M71570 72280
L71510 72310
L71400 72310
L71340 72280
L71310 72230
L71310 72000
L71340 71950
L71400 71920
L71510 71920
L71570 71950
L71590 72000
L71590 72060
L71310 72120
" />
<path d="M72070 72280
L72020 72310
L71900 72310
L71850 72280
L71820 72230
L71820 72000
L71850 71950
L71900 71920
L72020 71920
L72070 71950
L72100 72000
L72100 72060
L71820 72120
" />
<path d="M72270 71920
L72490 71920
" />
<path d="M72350 71720
L72350 72230
L72380 72280
L72440 72310
L72490 72310
" />
<path d="M72690 72260
L72720 72280
L72690 72310
L72660 72280
L72690 72260
L72690 72310
" />
<path d="M72690 71950
L72720 71970
L72690 72000
L72660 71970
L72690 71950
L72690 72000
" />
<path d="M73840 71690
L73340 72450
" />
<path d="M74040 72310
L74040 71720
L74180 71720
L74260 71750
L74320 71810
L74350 71860
L74380 71970
L74380 72060
L74350 72170
L74320 72230
L74260 72280
L74180 72310
L74040 72310
" />
<path d="M74850 72280
L74800 72310
L74680 72310
L74630 72280
L74600 72230
L74600 72000
L74630 71950
L74680 71920
L74800 71920
L74850 71950
L74880 72000
L74880 72060
L74600 72120
" />
<path d="M75130 72310
L75130 71720
" />
<path d="M75130 71950
L75190 71920
L75300 71920
L75360 71950
L75390 71970
L75420 72030
L75420 72200
L75390 72260
L75360 72280
L75300 72310
L75190 72310
L75130 72280
" />
<path d="M75920 71920
L75920 72310
" />
<path d="M75670 71920
L75670 72230
L75700 72280
L75750 72310
L75840 72310
L75890 72280
L75920 72260
" />
<path d="M76450 71920
L76450 72400
L76430 72450
L76400 72480
L76340 72510
L76260 72510
L76200 72480
" />
<path d="M76450 72280
L76400 72310
L76290 72310
L76230 72280
L76200 72260
L76170 72200
L76170 72030
L76200 71970
L76230 71950
L76290 71920
L76400 71920
L76450 71950
" />
<path d="M76740 72310
L76740 71720
" />
<path d="M77020 71920
L77020 72310
" />
<path d="M77020 71970
L77040 71950
L77100 71920
L77190 71920
L77240 71950
L77270 72000
L77270 72310
" />
<path d="M77470 71920
L77690 71920
" />
<path d="M77550 71720
L77550 72230
L77580 72280
L77630 72310
L77690 72310
" />
<path d="M78110 72280
L78060 72310
L77940 72310
L77890 72280
L77860 72230
L77860 72000
L77890 71950
L77940 71920
L78060 71920
L78110 71950
L78140 72000
L78140 72060
L77860 72120
" />
<path d="M78390 72310
L78390 71920
" />
<path d="M78390 72030
L78420 71970
L78450 71950
L78510 71920
L78560 71920
" />
<path d="M78670 71920
L78900 71920
" />
<path d="M78760 72310
L78760 71810
L78790 71750
L78840 71720
L78900 71720
" />
<path d="M79350 72310
L79350 72000
L79320 71950
L79260 71920
L79150 71920
L79100 71950
" />
<path d="M79350 72280
L79290 72310
L79150 72310
L79100 72280
L79070 72230
L79070 72170
L79100 72120
L79150 72090
L79290 72090
L79350 72060
" />
<path d="M79880 72280
L79830 72310
L79710 72310
L79660 72280
L79630 72260
L79600 72200
L79600 72030
L79630 71970
L79660 71950
L79710 71920
L79830 71920
L79880 71950
" />
<path d="M80360 72280
L80300 72310
L80190 72310
L80140 72280
L80110 72230
L80110 72000
L80140 71950
L80190 71920
L80300 71920
L80360 71950
L80390 72000
L80390 72060
L80110 72120
" />
<path d="M80950 72310
L80610 72310
" />
<path d="M80780 72310
L80780 71720
L80730 71810
L80670 71860
L80610 71890
" />
<path d="M81620 71690
L81120 72450
" />
<path d="M81790 72280
L81880 72310
L82020 72310
L82070 72280
L82100 72260
L82130 72200
L82130 72140
L82100 72090
L82070 72060
L82020 72030
L81910 72000
L81850 71970
L81820 71950
L81790 71890
L81790 71830
L81820 71780
L81850 71750
L81910 71720
L82050 71720
L82130 71750
" />
<path d="M82330 71720
L82470 72310
L82580 71890
L82690 72310
L82830 71720
" />
<path d="M83060 72310
L83060 71720
L83200 71720
L83280 71750
L83340 71810
L83370 71860
L83390 71970
L83390 72060
L83370 72170
L83340 72230
L83280 72280
L83200 72310
L83060 72310
" />
<path d="M83960 72310
L83620 72310
" />
<path d="M83790 72310
L83790 71720
L83730 71810
L83680 71860
L83620 71890
" />
<path d="M84320 71720
L84380 71720
L84430 71750
L84460 71780
L84490 71830
L84520 71950
L84520 72090
L84490 72200
L84460 72260
L84430 72280
L84380 72310
L84320 72310
L84270 72280
L84240 72260
L84210 72200
L84180 72090
L84180 71950
L84210 71830
L84240 71780
L84270 71750
L84320 71720
" />
<path d="M84630 72370
L85080 72370
" />
<path d="M85560 72260
L85530 72280
L85450 72310
L85390 72310
L85300 72280
L85250 72230
L85220 72170
L85190 72060
L85190 71970
L85220 71860
L85250 71810
L85300 71750
L85390 71720
L85450 71720
L85530 71750
L85560 71780
" />
<path d="M85890 72310
L85840 72280
L85810 72260
L85780 72200
L85780 72030
L85810 71970
L85840 71950
L85890 71920
L85980 71920
L86040 71950
L86060 71970
L86090 72030
L86090 72200
L86060 72260
L86040 72280
L85980 72310
L85890 72310
" />
<path d="M86340 71920
L86340 72310
" />
<path d="M86340 71970
L86370 71950
L86430 71920
L86510 71920
L86570 71950
L86600 72000
L86600 72310
" />
<path d="M86880 71920
L86880 72310
" />
<path d="M86880 71970
L86910 71950
L86960 71920
L87050 71920
L87100 71950
L87130 72000
L87130 72310
" />
<path d="M87830 71690
L87330 72450
" />
</g>
<g style="fill:#840000; fill-opacity:0.0; 
stroke:#840000; stroke-width:100; stroke-opacity:1; 
stroke-linecap:round; stroke-linejoin:round;">
</g>
<g style="fill:#840000; fill-opacity:0.0; 
stroke:#840000; stroke-width:60; stroke-opacity:1; 
stroke-linecap:round; stroke-linejoin:round;">
<path d="M77560 75400
L77560 76580
" />
</g>
<g style="fill:#840000; fill-opacity:0.0; 
stroke:#840000; stroke-width:100; stroke-opacity:1; 
stroke-linecap:round; stroke-linejoin:round;">
</g>
<g style="fill:#840000; fill-opacity:0.0; 
stroke:#840000; stroke-width:60; stroke-opacity:1; 
stroke-linecap:round; stroke-linejoin:round;">
<path d="M102760 75400
L102760 77960
" />
</g>
<g style="fill:#840000; fill-opacity:0.0; 
stroke:#840000; stroke-width:0; stroke-opacity:1; 
stroke-linecap:round; stroke-linejoin:round;">
<g >
</g>
<g style="fill:#FFFFC2; fill-opacity:0.0; 
stroke:#FFFFC2; stroke-width:0; stroke-opacity:1; 
stroke-linecap:round; stroke-linejoin:round;">
</g>
<g style="fill:#FFFFC2; fill-opacity:0.6; 
stroke:#FFFFC2; stroke-width:0; stroke-opacity:1; 
stroke-linecap:round; stroke-linejoin:round;">
<rect x="50750" y="35000" width="2000" height="5000" rx="0" />
</g>
<g style="fill:#840000; fill-opacity:0.6; 
stroke:#840000; stroke-width:0; stroke-opacity:1; 
stroke-linecap:round; stroke-linejoin:round;">
</g>
<g style="fill:#840000; fill-opacity:0.0; 
stroke:#840000; stroke-width:100; stroke-opacity:1; 
stroke-linecap:round; stroke-linejoin:round;">
<rect x="50750" y="35000" width="2000" height="5000" rx="0" />
</g>
<g style="fill:#840000; fill-opacity:0.0; 
stroke:#840000; stroke-width:60; stroke-opacity:1; 
stroke-linecap:round; stroke-linejoin:round;">
<rect x="50750" y="39450" width="500" height="100" rx="0" />
<rect x="50750" y="38450" width="500" height="100" rx="0" />
<rect x="50750" y="36450" width="500" height="100" rx="0" />
<rect x="50750" y="35450" width="500" height="100" rx="0" />
</g>
<g style="fill:#840000; fill-opacity:0.0; 
stroke:#840000; stroke-width:100; stroke-opacity:1; 
stroke-linecap:round; stroke-linejoin:round;">
<rect x="50750" y="35000" width="2000" height="5000" rx="0" />
</g>
<g style="fill:#840000; fill-opacity:0.0; 
stroke:#840000; stroke-width:60; stroke-opacity:1; 
stroke-linecap:round; stroke-linejoin:round;">
<rect x="50750" y="37450" width="500" height="100" rx="0" />
<rect x="52250" y="39450" width="500" height="100" rx="0" />
<rect x="52250" y="38450" width="500" height="100" rx="0" />
<rect x="52250" y="36450" width="500" height="100" rx="0" />
<rect x="52250" y="35450" width="500" height="100" rx="0" />
<rect x="52250" y="37450" width="500" height="100" rx="0" />
<path d="M50750 35500
L49250 35500
" />
<text x="50000" y="35400"
textLength="540" font-size="660" lengthAdjust="spacingAndGlyphs"
text-anchor="middle" opacity="0">1</text>
<path d="M50140 35370
L49850 35370
" />
<path d="M50000 35370
L50000 34870
L49950 34940
L49900 34990
L49850 35010
" />
<path d="M52750 39500
L54250 39500
" />
<text x="53500" y="39400"
textLength="1010" font-size="660" lengthAdjust="spacingAndGlyphs"
text-anchor="middle" opacity="0">10</text>
<path d="M53400 39370
L53110 39370
" />
<path d="M53260 39370
L53260 38870
L53210 38940
L53160 38990
L53110 39010
" />
<path d="M53710 38870
L53760 38870
L53800 38900
L53830 38920
L53850 38970
L53880 39060
L53880 39180
L53850 39280
L53830 39320
L53800 39350
L53760 39370
L53710 39370
L53660 39350
L53640 39320
L53610 39280
L53590 39180
L53590 39060
L53610 38970
L53640 38920
L53660 38900
L53710 38870
" />
<path d="M52750 35500
L54250 35500
" />
<text x="53500" y="35400"
textLength="540" font-size="660" lengthAdjust="spacingAndGlyphs"
text-anchor="middle" opacity="0">2</text>
<path d="M53350 34920
L53380 34900
L53420 34870
L53540 34870
L53590 34900
L53610 34920
L53640 34970
L53640 35010
L53610 35090
L53330 35370
L53640 35370
" />
<path d="M50750 36500
L49250 36500
" />
<text x="50000" y="36400"
textLength="540" font-size="660" lengthAdjust="spacingAndGlyphs"
text-anchor="middle" opacity="0">3</text>
<path d="M49830 35870
L50140 35870
L49970 36060
L50040 36060
L50090 36090
L50110 36110
L50140 36160
L50140 36280
L50110 36320
L50090 36350
L50040 36370
L49900 36370
L49850 36350
L49830 36320
" />
<path d="M52750 36500
L54250 36500
" />
<text x="53500" y="36400"
textLength="540" font-size="660" lengthAdjust="spacingAndGlyphs"
text-anchor="middle" opacity="0">4</text>
<path d="M53590 36040
L53590 36370
" />
<path d="M53470 35850
L53350 36200
L53660 36200
" />
<path d="M50750 37500
L49250 37500
" />
<text x="50000" y="37400"
textLength="540" font-size="660" lengthAdjust="spacingAndGlyphs"
text-anchor="middle" opacity="0">5</text>
<path d="M50110 36870
L49880 36870
L49850 37110
L49880 37090
L49920 37060
L50040 37060
L50090 37090
L50110 37110
L50140 37160
L50140 37280
L50110 37320
L50090 37350
L50040 37370
L49920 37370
L49880 37350
L49850 37320
" />
<path d="M52750 37500
L54250 37500
" />
<text x="53500" y="37400"
textLength="540" font-size="660" lengthAdjust="spacingAndGlyphs"
text-anchor="middle" opacity="0">6</text>
<path d="M53590 36870
L53500 36870
L53450 36900
L53420 36920
L53380 36990
L53350 37090
L53350 37280
L53380 37320
L53400 37350
L53450 37370
L53540 37370
L53590 37350
L53610 37320
L53640 37280
L53640 37160
L53610 37110
L53590 37090
L53540 37060
L53450 37060
L53400 37090
L53380 37110
L53350 37160
" />
<path d="M50750 38500
L49250 38500
" />
<text x="50000" y="38400"
textLength="540" font-size="660" lengthAdjust="spacingAndGlyphs"
text-anchor="middle" opacity="0">7</text>
<path d="M49830 37870
L50160 37870
L49950 38370
" />
<path d="M52750 38500
L54250 38500
" />
<text x="53500" y="38400"
textLength="540" font-size="660" lengthAdjust="spacingAndGlyphs"
text-anchor="middle" opacity="0">8</text>
<path d="M53450 38090
L53400 38060
L53380 38040
L53350 37990
L53350 37970
L53380 37920
L53400 37900
L53450 37870
L53540 37870
L53590 37900
L53610 37920
L53640 37970
L53640 37990
L53610 38040
L53590 38060
L53540 38090
L53450 38090
L53400 38110
L53380 38130
L53350 38180
L53350 38280
L53380 38320
L53400 38350
L53450 38370
L53540 38370
L53590 38350
L53610 38320
L53640 38280
L53640 38180
L53610 38130
L53590 38110
L53540 38090
" />
<path d="M50750 39500
L49250 39500
" />
<text x="50000" y="39400"
textLength="540" font-size="660" lengthAdjust="spacingAndGlyphs"
text-anchor="middle" opacity="0">9</text>
<path d="M49900 39370
L50000 39370
L50040 39350
L50070 39320
L50110 39250
L50140 39160
L50140 38970
L50110 38920
L50090 38900
L50040 38870
L49950 38870
L49900 38900
L49880 38920
L49850 38970
L49850 39090
L49880 39130
L49900 39160
L49950 39180
L50040 39180
L50090 39160
L50110 39130
L50140 39090
" />
</g>
<g style="fill:#008484; fill-opacity:0.0; 
stroke:#008484; stroke-width:60; stroke-opacity:1; 
stroke-linecap:round; stroke-linejoin:round;">
<text x="51750" y="33600"
textLength="920" font-size="660" lengthAdjust="spacingAndGlyphs"
text-anchor="middle" opacity="0">J6</text>
<path d="M51580 33070
L51580 33430
L51550 33500
L51510 33550
L51440 33570
L51390 33570
" />
<path d="M52030 33070
L51940 33070
L51890 33100
L51860 33120
L51820 33190
L51790 33290
L51790 33480
L51820 33520
L51840 33550
L51890 33570
L51980 33570
L52030 33550
L52050 33520
L52080 33480
L52080 33360
L52050 33310
L52030 33290
L51980 33260
L51890 33260
L51840 33290
L51820 33310
L51790 33360
" />
<text x="51750" y="34510"
textLength="8510" font-size="660" lengthAdjust="spacingAndGlyphs"
text-anchor="middle" opacity="0">Conn_02x05_Odd_Even</text>
<path d="M47920 34430
L47900 34460
L47830 34480
L47780 34480
L47710 34460
L47660 34410
L47640 34360
L47610 34270
L47610 34200
L47640 34100
L47660 34050
L47710 34010
L47780 33980
L47830 33980
L47900 34010
L47920 34030
" />
<path d="M48210 34480
L48160 34460
L48140 34430
L48110 34390
L48110 34240
L48140 34200
L48160 34170
L48210 34150
L48280 34150
L48330 34170
L48350 34200
L48380 34240
L48380 34390
L48350 34430
L48330 34460
L48280 34480
L48210 34480
" />
<path d="M48590 34150
L48590 34480
" />
<path d="M48590 34200
L48610 34170
L48660 34150
L48730 34150
L48780 34170
L48800 34220
L48800 34480
" />
<path d="M49040 34150
L49040 34480
" />
<path d="M49040 34200
L49070 34170
L49110 34150
L49190 34150
L49230 34170
L49260 34220
L49260 34480
" />
<path d="M49380 34530
L49760 34530
" />
<path d="M49970 33980
L50020 33980
L50070 34010
L50090 34030
L50110 34080
L50140 34170
L50140 34290
L50110 34390
L50090 34430
L50070 34460
L50020 34480
L49970 34480
L49920 34460
L49900 34430
L49880 34390
L49850 34290
L49850 34170
L49880 34080
L49900 34030
L49920 34010
L49970 33980
" />
<path d="M50330 34030
L50350 34010
L50400 33980
L50520 33980
L50570 34010
L50590 34030
L50610 34080
L50610 34120
L50590 34200
L50300 34480
L50610 34480
" />
<path d="M50780 34480
L51040 34150
" />
<path d="M50780 34150
L51040 34480
" />
<path d="M51330 33980
L51380 33980
L51420 34010
L51450 34030
L51470 34080
L51500 34170
L51500 34290
L51470 34390
L51450 34430
L51420 34460
L51380 34480
L51330 34480
L51280 34460
L51260 34430
L51230 34390
L51210 34290
L51210 34170
L51230 34080
L51260 34030
L51280 34010
L51330 33980
" />
<path d="M51950 33980
L51710 33980
L51690 34220
L51710 34200
L51760 34170
L51880 34170
L51920 34200
L51950 34220
L51970 34270
L51970 34390
L51950 34430
L51920 34460
L51880 34480
L51760 34480
L51710 34460
L51690 34430
" />
<path d="M52070 34530
L52450 34530
" />
<path d="M52660 33980
L52760 33980
L52800 34010
L52850 34050
L52880 34150
L52880 34310
L52850 34410
L52800 34460
L52760 34480
L52660 34480
L52610 34460
L52570 34410
L52540 34310
L52540 34150
L52570 34050
L52610 34010
L52660 33980
" />
<path d="M53300 34480
L53300 33980
" />
<path d="M53300 34460
L53260 34480
L53160 34480
L53110 34460
L53090 34430
L53070 34390
L53070 34240
L53090 34200
L53110 34170
L53160 34150
L53260 34150
L53300 34170
" />
<path d="M53760 34480
L53760 33980
" />
<path d="M53760 34460
L53710 34480
L53610 34480
L53570 34460
L53540 34430
L53520 34390
L53520 34240
L53540 34200
L53570 34170
L53610 34150
L53710 34150
L53760 34170
" />
<path d="M53880 34530
L54260 34530
" />
<path d="M54380 34220
L54540 34220
" />
<path d="M54610 34480
L54380 34480
L54380 33980
L54610 33980
" />
<path d="M54780 34150
L54900 34480
L55020 34150
" />
<path d="M55400 34460
L55350 34480
L55260 34480
L55210 34460
L55190 34410
L55190 34220
L55210 34170
L55260 34150
L55350 34150
L55400 34170
L55420 34220
L55420 34270
L55190 34310
" />
<path d="M55640 34150
L55640 34480
" />
<path d="M55640 34200
L55660 34170
L55710 34150
L55780 34150
L55830 34170
L55850 34220
L55850 34480
" />
</g>
</g>
<g style="fill:#008484; fill-opacity:0.0; 
stroke:#008484; stroke-width:0; stroke-opacity:1; 
stroke-linecap:round; stroke-linejoin:round;">
<g >
</g>
<g style="fill:#840000; fill-opacity:0.0; 
stroke:#840000; stroke-width:0; stroke-opacity:1; 
stroke-linecap:round; stroke-linejoin:round;">
</g>
<g style="fill:#840000; fill-opacity:0.0; 
stroke:#840000; stroke-width:60; stroke-opacity:1; 
stroke-linecap:round; stroke-linejoin:round;">
<path style="fill:#840000; fill-opacity:0.0; 
stroke:#840000; stroke-width:60; stroke-opacity:1; 
stroke-linecap:round; stroke-linejoin:round;fill:none"
d="M 44750,41500
44750,42000
45250,42000
44750,42500
44250,42000
44750,42000
" /> 
</g>
<g style="fill:#008484; fill-opacity:0.0; 
stroke:#008484; stroke-width:60; stroke-opacity:1; 
stroke-linecap:round; stroke-linejoin:round;">
<text x="44800" y="43500"
textLength="2060" font-size="660" lengthAdjust="spacingAndGlyphs"
text-anchor="middle" opacity="0">GNDS</text>
<path d="M44180 43000
L44130 42970
L44060 42970
L43990 43000
L43940 43040
L43910 43090
L43890 43190
L43890 43260
L43910 43350
L43940 43400
L43990 43450
L44060 43470
L44100 43470
L44180 43450
L44200 43420
L44200 43260
L44100 43260
" />
<path d="M44410 43470
L44410 42970
L44700 43470
L44700 42970
" />
<path d="M44940 43470
L44940 42970
L45060 42970
L45130 43000
L45180 43040
L45200 43090
L45220 43190
L45220 43260
L45200 43350
L45180 43400
L45130 43450
L45060 43470
L44940 43470
" />
<path d="M45410 43450
L45490 43470
L45600 43470
L45650 43450
L45680 43420
L45700 43380
L45700 43330
L45680 43280
L45650 43260
L45600 43230
L45510 43210
L45460 43190
L45440 43160
L45410 43110
L45410 43070
L45440 43020
L45460 43000
L45510 42970
L45630 42970
L45700 43000
" />
</g>
</g>
<g style="fill:#008484; fill-opacity:0.0; 
stroke:#008484; stroke-width:60; stroke-opacity:1; 
stroke-linecap:round; stroke-linejoin:round;">
</g>
<g style="fill:#008400; fill-opacity:0.0; 
stroke:#008400; stroke-width:60; stroke-opacity:1; 
stroke-linecap:round; stroke-linejoin:round;">
<path d="M49250 36500
L44750 36500
" />
<path d="M44750 36500
L44750 37500
" />
<path d="M49250 37500
L44750 37500
" />
<path d="M44750 37500
L44750 39500
" />
<path d="M49250 39500
L44750 39500
" />
<path d="M44750 39500
L44750 41500
" />
<path d="M54250 35500
L69000 35500
" />
<path d="M54250 36500
L69000 36500
" />
<path d="M54250 37500
L69000 37500
" />
<path d="M54250 39500
L69000 39500
" />
<path d="M42250 35500
L49250 35500
" />
</g>
<g style="fill:#848400; fill-opacity:0.0; 
stroke:#848400; stroke-width:60; stroke-opacity:1; 
stroke-linecap:round; stroke-linejoin:round;">
<text x="69600" y="37750"
textLength="1630" font-size="660" lengthAdjust="spacingAndGlyphs"
text-anchor="start" opacity="0">SWO</text>
<path d="M69720 37700
L69790 37720
L69910 37720
L69960 37700
L69980 37670
L70010 37630
L70010 37580
L69980 37530
L69960 37510
L69910 37480
L69820 37460
L69770 37440
L69740 37410
L69720 37360
L69720 37320
L69740 37270
L69770 37250
L69820 37220
L69930 37220
L70010 37250
" />
<path d="M70170 37220
L70290 37720
L70390 37360
L70480 37720
L70600 37220
" />
<path d="M70890 37220
L70980 37220
L71030 37250
L71080 37290
L71100 37390
L71100 37550
L71080 37650
L71030 37700
L70980 37720
L70890 37720
L70840 37700
L70790 37650
L70770 37550
L70770 37390
L70790 37290
L70840 37250
L70890 37220
" />
</g>
<g style="fill:#848400; fill-opacity:0.0; 
stroke:#848400; stroke-width:100; stroke-opacity:1; 
stroke-linecap:round; stroke-linejoin:round;">
<path style="fill:#848400; fill-opacity:0.0; 
stroke:#848400; stroke-width:100; stroke-opacity:1; 
stroke-linecap:round; stroke-linejoin:round;fill:none"
d="M 69500,37500
69250,37250
69000,37250
69000,37750
69250,37750
Z" /> 
</g>
<g style="fill:#848400; fill-opacity:0.0; 
stroke:#848400; stroke-width:60; stroke-opacity:1; 
stroke-linecap:round; stroke-linejoin:round;">
<text x="69600" y="36750"
textLength="2510" font-size="660" lengthAdjust="spacingAndGlyphs"
text-anchor="start" opacity="0">SWCLK</text>
<path d="M69720 36700
L69790 36720
L69910 36720
L69960 36700
L69980 36670
L70010 36630
L70010 36580
L69980 36530
L69960 36510
L69910 36480
L69820 36460
L69770 36440
L69740 36410
L69720 36360
L69720 36320
L69740 36270
L69770 36250
L69820 36220
L69930 36220
L70010 36250
" />
<path d="M70170 36220
L70290 36720
L70390 36360
L70480 36720
L70600 36220
" />
<path d="M71080 36670
L71050 36700
L70980 36720
L70930 36720
L70860 36700
L70820 36650
L70790 36600
L70770 36510
L70770 36440
L70790 36340
L70820 36290
L70860 36250
L70930 36220
L70980 36220
L71050 36250
L71080 36270
" />
<path d="M71530 36720
L71290 36720
L71290 36220
" />
<path d="M71700 36720
L71700 36220
" />
<path d="M71980 36720
L71770 36440
" />
<path d="M71980 36220
L71700 36510
" />
</g>
<g style="fill:#848400; fill-opacity:0.0; 
stroke:#848400; stroke-width:100; stroke-opacity:1; 
stroke-linecap:round; stroke-linejoin:round;">
<path style="fill:#848400; fill-opacity:0.0; 
stroke:#848400; stroke-width:100; stroke-opacity:1; 
stroke-linecap:round; stroke-linejoin:round;fill:none"
d="M 69000,36500
69250,36750
69500,36750
69500,36250
69250,36250
Z" /> 
</g>
<g style="fill:#848400; fill-opacity:0.0; 
stroke:#848400; stroke-width:60; stroke-opacity:1; 
stroke-linecap:round; stroke-linejoin:round;">
<text x="69600" y="35750"
textLength="2370" font-size="660" lengthAdjust="spacingAndGlyphs"
text-anchor="start" opacity="0">SWDIO</text>
<path d="M69720 35700
L69790 35720
L69910 35720
L69960 35700
L69980 35670
L70010 35630
L70010 35580
L69980 35530
L69960 35510
L69910 35480
L69820 35460
L69770 35440
L69740 35410
L69720 35360
L69720 35320
L69740 35270
L69770 35250
L69820 35220
L69930 35220
L70010 35250
" />
<path d="M70170 35220
L70290 35720
L70390 35360
L70480 35720
L70600 35220
" />
<path d="M70790 35720
L70790 35220
L70910 35220
L70980 35250
L71030 35290
L71050 35340
L71080 35440
L71080 35510
L71050 35600
L71030 35650
L70980 35700
L70910 35720
L70790 35720
" />
<path d="M71290 35720
L71290 35220
" />
<path d="M71630 35220
L71720 35220
L71770 35250
L71820 35290
L71840 35390
L71840 35550
L71820 35650
L71770 35700
L71720 35720
L71630 35720
L71580 35700
L71530 35650
L71510 35550
L71510 35390
L71530 35290
L71580 35250
L71630 35220
" />
</g>
<g style="fill:#848400; fill-opacity:0.0; 
stroke:#848400; stroke-width:100; stroke-opacity:1; 
stroke-linecap:round; stroke-linejoin:round;">
<path style="fill:#848400; fill-opacity:0.0; 
stroke:#848400; stroke-width:100; stroke-opacity:1; 
stroke-linecap:round; stroke-linejoin:round;fill:none"
d="M 69000,35500
69250,35250
69500,35500
69250,35750
Z" /> 
</g>
<g style="fill:#848400; fill-opacity:0.0; 
stroke:#848400; stroke-width:60; stroke-opacity:1; 
stroke-linecap:round; stroke-linejoin:round;">
<text x="69600" y="39750"
textLength="1940" font-size="660" lengthAdjust="spacingAndGlyphs"
text-anchor="start" opacity="0">NRST</text>
<path d="M69740 39720
L69740 39220
L70030 39720
L70030 39220
" />
<path d="M70550 39720
L70390 39480
" />
<path d="M70270 39720
L70270 39220
L70460 39220
L70510 39250
L70530 39270
L70550 39320
L70550 39390
L70530 39440
L70510 39460
L70460 39480
L70270 39480
" />
<path d="M70740 39700
L70820 39720
L70930 39720
L70980 39700
L71010 39670
L71030 39630
L71030 39580
L71010 39530
L70980 39510
L70930 39480
L70840 39460
L70790 39440
L70770 39410
L70740 39360
L70740 39320
L70770 39270
L70790 39250
L70840 39220
L70960 39220
L71030 39250
" />
<path d="M71170 39220
L71460 39220
" />
<path d="M71320 39720
L71320 39220
" />
</g>
<g style="fill:#848400; fill-opacity:0.0; 
stroke:#848400; stroke-width:100; stroke-opacity:1; 
stroke-linecap:round; stroke-linejoin:round;">
<path style="fill:#848400; fill-opacity:0.0; 
stroke:#848400; stroke-width:100; stroke-opacity:1; 
stroke-linecap:round; stroke-linejoin:round;fill:none"
d="M 69500,39500
69250,39250
69000,39250
69000,39750
69250,39750
Z" /> 
</g>
<g style="fill:#848400; fill-opacity:0.0; 
stroke:#848400; stroke-width:60; stroke-opacity:1; 
stroke-linecap:round; stroke-linejoin:round;">
<text x="41650" y="35750"
textLength="3490" font-size="660" lengthAdjust="spacingAndGlyphs"
text-anchor="end" opacity="0">3.3V_VDD</text>
<path d="M38260 35220
L38570 35220
L38400 35410
L38470 35410
L38520 35440
L38540 35460
L38570 35510
L38570 35630
L38540 35670
L38520 35700
L38470 35720
L38330 35720
L38280 35700
L38260 35670
" />
<path d="M38780 35670
L38810 35700
L38780 35720
L38760 35700
L38780 35670
L38780 35720
" />
<path d="M38970 35220
L39280 35220
L39120 35410
L39190 35410
L39230 35440
L39260 35460
L39280 35510
L39280 35630
L39260 35670
L39230 35700
L39190 35720
L39040 35720
L39000 35700
L38970 35670
" />
<path d="M39420 35220
L39590 35720
L39760 35220
" />
<path d="M39810 35770
L40190 35770
" />
<path d="M40230 35220
L40400 35720
L40570 35220
" />
<path d="M40730 35720
L40730 35220
L40850 35220
L40920 35250
L40970 35290
L41000 35340
L41020 35440
L41020 35510
L41000 35600
L40970 35650
L40920 35700
L40850 35720
L40730 35720
" />
<path d="M41230 35720
L41230 35220
L41350 35220
L41420 35250
L41470 35290
L41500 35340
L41520 35440
L41520 35510
L41500 35600
L41470 35650
L41420 35700
L41350 35720
L41230 35720
" />
</g>
<g style="fill:#848400; fill-opacity:0.0; 
stroke:#848400; stroke-width:100; stroke-opacity:1; 
stroke-linecap:round; stroke-linejoin:round;">
<path style="fill:#848400; fill-opacity:0.0; 
stroke:#848400; stroke-width:100; stroke-opacity:1; 
stroke-linecap:round; stroke-linejoin:round;fill:none"
d="M 42250,35500
42000,35250
41750,35250
41750,35750
42000,35750
Z" /> 
</g>
<g style="fill:#848400; fill-opacity:0.0; 
stroke:#848400; stroke-width:0; stroke-opacity:1; 
stroke-linecap:round; stroke-linejoin:round;">
</g>
<g style="fill:#008400; fill-opacity:0.0; 
stroke:#008400; stroke-width:0; stroke-opacity:1; 
stroke-linecap:round; stroke-linejoin:round;">
</g>
<g style="fill:#008400; fill-opacity:1.0; 
stroke:#008400; stroke-width:100; stroke-opacity:1; 
stroke-linecap:round; stroke-linejoin:round;">
<circle cx="44750" cy="37500" r="200" /> 
</g>
<g style="fill:#008400; fill-opacity:1.0; 
stroke:#008400; stroke-width:0; stroke-opacity:1; 
stroke-linecap:round; stroke-linejoin:round;">
</g>
<g style="fill:#008400; fill-opacity:1.0; 
stroke:#008400; stroke-width:100; stroke-opacity:1; 
stroke-linecap:round; stroke-linejoin:round;">
<circle cx="44750" cy="39500" r="200" /> 
</g>
<g style="fill:#008400; fill-opacity:1.0; 
stroke:#008400; stroke-width:60; stroke-opacity:1; 
stroke-linecap:round; stroke-linejoin:round;">
</g>
<g style="fill:#000084; fill-opacity:1.0; 
stroke:#000084; stroke-width:60; stroke-opacity:1; 
stroke-linecap:round; stroke-linejoin:round;">
</g>
<g style="fill:#000084; fill-opacity:0.0; 
stroke:#000084; stroke-width:60; stroke-opacity:1; 
stroke-linecap:round; stroke-linejoin:round;">
<path d="M49010 38260
L49490 38740
" />
<path d="M49490 38260
L49010 38740
" />
<path d="M54010 38260
L54490 38740
" />
<path d="M54490 38260
L54010 38740
" />
</g> 
</svg>
