<?xml version="1.0" standalone="no"?>
 <!DOCTYPE svg PUBLIC "-//W3C//DTD SVG 1.1//EN" 
 "http://www.w3.org/Graphics/SVG/1.1/DTD/svg11.dtd"> 
<svg
  xmlns:svg="http://www.w3.org/2000/svg"
  xmlns="http://www.w3.org/2000/svg"
  xmlns:xlink="http://www.w3.org/1999/xlink"
  version="1.1"
  width="29.700220cm" height="21.000720cm" viewBox="0 0 116930 82680">
<title>SVG Picture created as USB_Conn-GPIO-USB_Conn.svg date 2021/05/02 15:59:22 </title>
  <desc>Picture generated by Eeschema-SVG </desc>
<g style="fill:#000000; fill-opacity:1;stroke:#000000; stroke-opacity:1;
stroke-linecap:round; stroke-linejoin:round;"
 transform="translate(0 0) scale(1 1)">
</g>
<g style="fill:#000000; fill-opacity:0.0; 
stroke:#000000; stroke-width:-10; stroke-opacity:1; 
stroke-linecap:round; stroke-linejoin:round;">
</g>
<g style="fill:#840000; fill-opacity:0.0; 
stroke:#840000; stroke-width:-10; stroke-opacity:1; 
stroke-linecap:round; stroke-linejoin:round;">
</g>
<g style="fill:#840000; fill-opacity:0.0; 
stroke:#840000; stroke-width:100; stroke-opacity:1; 
stroke-linecap:round; stroke-linejoin:round;">
</g>
<g style="fill:#840000; fill-opacity:0.0; 
stroke:#840000; stroke-width:60; stroke-opacity:1; 
stroke-linecap:round; stroke-linejoin:round;">
<rect x="69690" y="65360" width="42520" height="12600" rx="0" />
</g>
<g style="fill:#840000; fill-opacity:0.0; 
stroke:#840000; stroke-width:100; stroke-opacity:1; 
stroke-linecap:round; stroke-linejoin:round;">
</g>
<g style="fill:#840000; fill-opacity:0.0; 
stroke:#840000; stroke-width:60; stroke-opacity:1; 
stroke-linecap:round; stroke-linejoin:round;">
<rect x="3940" y="3940" width="109050" height="74800" rx="0" />
</g>
<g style="fill:#840000; fill-opacity:0.0; 
stroke:#840000; stroke-width:100; stroke-opacity:1; 
stroke-linecap:round; stroke-linejoin:round;">
</g>
<g style="fill:#840000; fill-opacity:0.0; 
stroke:#840000; stroke-width:60; stroke-opacity:1; 
stroke-linecap:round; stroke-linejoin:round;">
<rect x="4720" y="4720" width="107490" height="73240" rx="0" />
</g>
<g style="fill:#840000; fill-opacity:0.0; 
stroke:#840000; stroke-width:100; stroke-opacity:1; 
stroke-linecap:round; stroke-linejoin:round;">
</g>
<g style="fill:#840000; fill-opacity:0.0; 
stroke:#840000; stroke-width:60; stroke-opacity:1; 
stroke-linecap:round; stroke-linejoin:round;">
<path d="M23620 4720
L23620 3940
" />
</g>
<g style="fill:#840000; fill-opacity:0.0; 
stroke:#840000; stroke-width:100; stroke-opacity:1; 
stroke-linecap:round; stroke-linejoin:round;">
</g>
<g style="fill:#840000; fill-opacity:0.0; 
stroke:#840000; stroke-width:60; stroke-opacity:1; 
stroke-linecap:round; stroke-linejoin:round;">
<path d="M43310 4720
L43310 3940
" />
</g>
<g style="fill:#840000; fill-opacity:0.0; 
stroke:#840000; stroke-width:100; stroke-opacity:1; 
stroke-linecap:round; stroke-linejoin:round;">
</g>
<g style="fill:#840000; fill-opacity:0.0; 
stroke:#840000; stroke-width:60; stroke-opacity:1; 
stroke-linecap:round; stroke-linejoin:round;">
<path d="M62990 4720
L62990 3940
" />
</g>
<g style="fill:#840000; fill-opacity:0.0; 
stroke:#840000; stroke-width:100; stroke-opacity:1; 
stroke-linecap:round; stroke-linejoin:round;">
</g>
<g style="fill:#840000; fill-opacity:0.0; 
stroke:#840000; stroke-width:60; stroke-opacity:1; 
stroke-linecap:round; stroke-linejoin:round;">
<path d="M82680 4720
L82680 3940
" />
</g>
<g style="fill:#840000; fill-opacity:0.0; 
stroke:#840000; stroke-width:100; stroke-opacity:1; 
stroke-linecap:round; stroke-linejoin:round;">
</g>
<g style="fill:#840000; fill-opacity:0.0; 
stroke:#840000; stroke-width:60; stroke-opacity:1; 
stroke-linecap:round; stroke-linejoin:round;">
<path d="M102360 4720
L102360 3940
" />
</g>
<g style="fill:#840000; fill-opacity:0.0; 
stroke:#840000; stroke-width:100; stroke-opacity:1; 
stroke-linecap:round; stroke-linejoin:round;">
</g>
<g style="fill:#840000; fill-opacity:0.0; 
stroke:#840000; stroke-width:60; stroke-opacity:1; 
stroke-linecap:round; stroke-linejoin:round;">
<text x="13780" y="4580"
textLength="550" font-size="680" lengthAdjust="spacingAndGlyphs"
text-anchor="start" opacity="0">1</text>
<path d="M14190 4560
L13900 4560
" />
<path d="M14050 4560
L14050 4050
L14000 4120
L13950 4170
L13900 4190
" />
</g>
<g style="fill:#840000; fill-opacity:0.0; 
stroke:#840000; stroke-width:100; stroke-opacity:1; 
stroke-linecap:round; stroke-linejoin:round;">
</g>
<g style="fill:#840000; fill-opacity:0.0; 
stroke:#840000; stroke-width:60; stroke-opacity:1; 
stroke-linecap:round; stroke-linejoin:round;">
<text x="33460" y="4580"
textLength="550" font-size="680" lengthAdjust="spacingAndGlyphs"
text-anchor="start" opacity="0">2</text>
<path d="M33580 4090
L33610 4070
L33660 4050
L33780 4050
L33830 4070
L33850 4090
L33870 4140
L33870 4190
L33850 4260
L33560 4560
L33870 4560
" />
</g>
<g style="fill:#840000; fill-opacity:0.0; 
stroke:#840000; stroke-width:100; stroke-opacity:1; 
stroke-linecap:round; stroke-linejoin:round;">
</g>
<g style="fill:#840000; fill-opacity:0.0; 
stroke:#840000; stroke-width:60; stroke-opacity:1; 
stroke-linecap:round; stroke-linejoin:round;">
<text x="53150" y="4580"
textLength="550" font-size="680" lengthAdjust="spacingAndGlyphs"
text-anchor="start" opacity="0">3</text>
<path d="M53250 4050
L53560 4050
L53390 4240
L53470 4240
L53520 4260
L53540 4290
L53560 4340
L53560 4460
L53540 4510
L53520 4530
L53470 4560
L53320 4560
L53270 4530
L53250 4510
" />
</g>
<g style="fill:#840000; fill-opacity:0.0; 
stroke:#840000; stroke-width:100; stroke-opacity:1; 
stroke-linecap:round; stroke-linejoin:round;">
</g>
<g style="fill:#840000; fill-opacity:0.0; 
stroke:#840000; stroke-width:60; stroke-opacity:1; 
stroke-linecap:round; stroke-linejoin:round;">
<text x="72830" y="4580"
textLength="550" font-size="680" lengthAdjust="spacingAndGlyphs"
text-anchor="start" opacity="0">4</text>
<path d="M73200 4220
L73200 4560
" />
<path d="M73070 4020
L72950 4390
L73270 4390
" />
</g>
<g style="fill:#840000; fill-opacity:0.0; 
stroke:#840000; stroke-width:100; stroke-opacity:1; 
stroke-linecap:round; stroke-linejoin:round;">
</g>
<g style="fill:#840000; fill-opacity:0.0; 
stroke:#840000; stroke-width:60; stroke-opacity:1; 
stroke-linecap:round; stroke-linejoin:round;">
<text x="92520" y="4580"
textLength="550" font-size="680" lengthAdjust="spacingAndGlyphs"
text-anchor="start" opacity="0">5</text>
<path d="M92910 4050
L92670 4050
L92640 4290
L92670 4260
L92720 4240
L92840 4240
L92890 4260
L92910 4290
L92930 4340
L92930 4460
L92910 4510
L92890 4530
L92840 4560
L92720 4560
L92670 4530
L92640 4510
" />
</g>
<g style="fill:#840000; fill-opacity:0.0; 
stroke:#840000; stroke-width:100; stroke-opacity:1; 
stroke-linecap:round; stroke-linejoin:round;">
</g>
<g style="fill:#840000; fill-opacity:0.0; 
stroke:#840000; stroke-width:60; stroke-opacity:1; 
stroke-linecap:round; stroke-linejoin:round;">
<text x="112200" y="4580"
textLength="550" font-size="680" lengthAdjust="spacingAndGlyphs"
text-anchor="start" opacity="0">6</text>
<path d="M112570 4050
L112470 4050
L112420 4070
L112400 4090
L112350 4170
L112320 4260
L112320 4460
L112350 4510
L112370 4530
L112420 4560
L112520 4560
L112570 4530
L112590 4510
L112610 4460
L112610 4340
L112590 4290
L112570 4260
L112520 4240
L112420 4240
L112370 4260
L112350 4290
L112320 4340
" />
</g>
<g style="fill:#840000; fill-opacity:0.0; 
stroke:#840000; stroke-width:100; stroke-opacity:1; 
stroke-linecap:round; stroke-linejoin:round;">
</g>
<g style="fill:#840000; fill-opacity:0.0; 
stroke:#840000; stroke-width:60; stroke-opacity:1; 
stroke-linecap:round; stroke-linejoin:round;">
<path d="M23620 77960
L23620 78740
" />
</g>
<g style="fill:#840000; fill-opacity:0.0; 
stroke:#840000; stroke-width:100; stroke-opacity:1; 
stroke-linecap:round; stroke-linejoin:round;">
</g>
<g style="fill:#840000; fill-opacity:0.0; 
stroke:#840000; stroke-width:60; stroke-opacity:1; 
stroke-linecap:round; stroke-linejoin:round;">
<path d="M43310 77960
L43310 78740
" />
</g>
<g style="fill:#840000; fill-opacity:0.0; 
stroke:#840000; stroke-width:100; stroke-opacity:1; 
stroke-linecap:round; stroke-linejoin:round;">
</g>
<g style="fill:#840000; fill-opacity:0.0; 
stroke:#840000; stroke-width:60; stroke-opacity:1; 
stroke-linecap:round; stroke-linejoin:round;">
<path d="M62990 77960
L62990 78740
" />
</g>
<g style="fill:#840000; fill-opacity:0.0; 
stroke:#840000; stroke-width:100; stroke-opacity:1; 
stroke-linecap:round; stroke-linejoin:round;">
</g>
<g style="fill:#840000; fill-opacity:0.0; 
stroke:#840000; stroke-width:60; stroke-opacity:1; 
stroke-linecap:round; stroke-linejoin:round;">
<path d="M82680 77960
L82680 78740
" />
</g>
<g style="fill:#840000; fill-opacity:0.0; 
stroke:#840000; stroke-width:100; stroke-opacity:1; 
stroke-linecap:round; stroke-linejoin:round;">
</g>
<g style="fill:#840000; fill-opacity:0.0; 
stroke:#840000; stroke-width:60; stroke-opacity:1; 
stroke-linecap:round; stroke-linejoin:round;">
<path d="M102360 77960
L102360 78740
" />
</g>
<g style="fill:#840000; fill-opacity:0.0; 
stroke:#840000; stroke-width:100; stroke-opacity:1; 
stroke-linecap:round; stroke-linejoin:round;">
</g>
<g style="fill:#840000; fill-opacity:0.0; 
stroke:#840000; stroke-width:60; stroke-opacity:1; 
stroke-linecap:round; stroke-linejoin:round;">
<text x="13780" y="78600"
textLength="550" font-size="680" lengthAdjust="spacingAndGlyphs"
text-anchor="start" opacity="0">1</text>
<path d="M14190 78580
L13900 78580
" />
<path d="M14050 78580
L14050 78070
L14000 78140
L13950 78190
L13900 78210
" />
</g>
<g style="fill:#840000; fill-opacity:0.0; 
stroke:#840000; stroke-width:100; stroke-opacity:1; 
stroke-linecap:round; stroke-linejoin:round;">
</g>
<g style="fill:#840000; fill-opacity:0.0; 
stroke:#840000; stroke-width:60; stroke-opacity:1; 
stroke-linecap:round; stroke-linejoin:round;">
<text x="33460" y="78600"
textLength="550" font-size="680" lengthAdjust="spacingAndGlyphs"
text-anchor="start" opacity="0">2</text>
<path d="M33580 78110
L33610 78090
L33660 78070
L33780 78070
L33830 78090
L33850 78110
L33870 78160
L33870 78210
L33850 78280
L33560 78580
L33870 78580
" />
</g>
<g style="fill:#840000; fill-opacity:0.0; 
stroke:#840000; stroke-width:100; stroke-opacity:1; 
stroke-linecap:round; stroke-linejoin:round;">
</g>
<g style="fill:#840000; fill-opacity:0.0; 
stroke:#840000; stroke-width:60; stroke-opacity:1; 
stroke-linecap:round; stroke-linejoin:round;">
<text x="53150" y="78600"
textLength="550" font-size="680" lengthAdjust="spacingAndGlyphs"
text-anchor="start" opacity="0">3</text>
<path d="M53250 78070
L53560 78070
L53390 78260
L53470 78260
L53520 78280
L53540 78310
L53560 78360
L53560 78480
L53540 78530
L53520 78550
L53470 78580
L53320 78580
L53270 78550
L53250 78530
" />
</g>
<g style="fill:#840000; fill-opacity:0.0; 
stroke:#840000; stroke-width:100; stroke-opacity:1; 
stroke-linecap:round; stroke-linejoin:round;">
</g>
<g style="fill:#840000; fill-opacity:0.0; 
stroke:#840000; stroke-width:60; stroke-opacity:1; 
stroke-linecap:round; stroke-linejoin:round;">
<text x="72830" y="78600"
textLength="550" font-size="680" lengthAdjust="spacingAndGlyphs"
text-anchor="start" opacity="0">4</text>
<path d="M73200 78240
L73200 78580
" />
<path d="M73070 78040
L72950 78410
L73270 78410
" />
</g>
<g style="fill:#840000; fill-opacity:0.0; 
stroke:#840000; stroke-width:100; stroke-opacity:1; 
stroke-linecap:round; stroke-linejoin:round;">
</g>
<g style="fill:#840000; fill-opacity:0.0; 
stroke:#840000; stroke-width:60; stroke-opacity:1; 
stroke-linecap:round; stroke-linejoin:round;">
<text x="92520" y="78600"
textLength="550" font-size="680" lengthAdjust="spacingAndGlyphs"
text-anchor="start" opacity="0">5</text>
<path d="M92910 78070
L92670 78070
L92640 78310
L92670 78280
L92720 78260
L92840 78260
L92890 78280
L92910 78310
L92930 78360
L92930 78480
L92910 78530
L92890 78550
L92840 78580
L92720 78580
L92670 78550
L92640 78530
" />
</g>
<g style="fill:#840000; fill-opacity:0.0; 
stroke:#840000; stroke-width:100; stroke-opacity:1; 
stroke-linecap:round; stroke-linejoin:round;">
</g>
<g style="fill:#840000; fill-opacity:0.0; 
stroke:#840000; stroke-width:60; stroke-opacity:1; 
stroke-linecap:round; stroke-linejoin:round;">
<text x="112200" y="78600"
textLength="550" font-size="680" lengthAdjust="spacingAndGlyphs"
text-anchor="start" opacity="0">6</text>
<path d="M112570 78070
L112470 78070
L112420 78090
L112400 78110
L112350 78190
L112320 78280
L112320 78480
L112350 78530
L112370 78550
L112420 78580
L112520 78580
L112570 78550
L112590 78530
L112610 78480
L112610 78360
L112590 78310
L112570 78280
L112520 78260
L112420 78260
L112370 78280
L112350 78310
L112320 78360
" />
</g>
<g style="fill:#840000; fill-opacity:0.0; 
stroke:#840000; stroke-width:100; stroke-opacity:1; 
stroke-linecap:round; stroke-linejoin:round;">
</g>
<g style="fill:#840000; fill-opacity:0.0; 
stroke:#840000; stroke-width:60; stroke-opacity:1; 
stroke-linecap:round; stroke-linejoin:round;">
<path d="M3940 23620
L4720 23620
" />
</g>
<g style="fill:#840000; fill-opacity:0.0; 
stroke:#840000; stroke-width:100; stroke-opacity:1; 
stroke-linecap:round; stroke-linejoin:round;">
</g>
<g style="fill:#840000; fill-opacity:0.0; 
stroke:#840000; stroke-width:60; stroke-opacity:1; 
stroke-linecap:round; stroke-linejoin:round;">
<path d="M3940 43310
L4720 43310
" />
</g>
<g style="fill:#840000; fill-opacity:0.0; 
stroke:#840000; stroke-width:100; stroke-opacity:1; 
stroke-linecap:round; stroke-linejoin:round;">
</g>
<g style="fill:#840000; fill-opacity:0.0; 
stroke:#840000; stroke-width:60; stroke-opacity:1; 
stroke-linecap:round; stroke-linejoin:round;">
<path d="M3940 62990
L4720 62990
" />
</g>
<g style="fill:#840000; fill-opacity:0.0; 
stroke:#840000; stroke-width:100; stroke-opacity:1; 
stroke-linecap:round; stroke-linejoin:round;">
</g>
<g style="fill:#840000; fill-opacity:0.0; 
stroke:#840000; stroke-width:60; stroke-opacity:1; 
stroke-linecap:round; stroke-linejoin:round;">
<text x="4330" y="14030"
textLength="500" font-size="680" lengthAdjust="spacingAndGlyphs"
text-anchor="middle" opacity="0">A</text>
<path d="M4200 13860
L4450 13860
" />
<path d="M4160 14010
L4330 13500
L4500 14010
" />
</g>
<g style="fill:#840000; fill-opacity:0.0; 
stroke:#840000; stroke-width:100; stroke-opacity:1; 
stroke-linecap:round; stroke-linejoin:round;">
</g>
<g style="fill:#840000; fill-opacity:0.0; 
stroke:#840000; stroke-width:60; stroke-opacity:1; 
stroke-linecap:round; stroke-linejoin:round;">
<text x="4330" y="33710"
textLength="570" font-size="680" lengthAdjust="spacingAndGlyphs"
text-anchor="middle" opacity="0">B</text>
<path d="M4360 33420
L4430 33440
L4460 33470
L4480 33520
L4480 33590
L4460 33640
L4430 33660
L4390 33690
L4190 33690
L4190 33180
L4360 33180
L4410 33200
L4430 33220
L4460 33270
L4460 33320
L4430 33370
L4410 33390
L4360 33420
L4190 33420
" />
</g>
<g style="fill:#840000; fill-opacity:0.0; 
stroke:#840000; stroke-width:100; stroke-opacity:1; 
stroke-linecap:round; stroke-linejoin:round;">
</g>
<g style="fill:#840000; fill-opacity:0.0; 
stroke:#840000; stroke-width:60; stroke-opacity:1; 
stroke-linecap:round; stroke-linejoin:round;">
<text x="4330" y="53400"
textLength="570" font-size="680" lengthAdjust="spacingAndGlyphs"
text-anchor="middle" opacity="0">C</text>
<path d="M4480 53330
L4460 53350
L4390 53380
L4340 53380
L4260 53350
L4220 53300
L4190 53250
L4170 53160
L4170 53080
L4190 52990
L4220 52940
L4260 52890
L4340 52870
L4390 52870
L4460 52890
L4480 52910
" />
</g>
<g style="fill:#840000; fill-opacity:0.0; 
stroke:#840000; stroke-width:100; stroke-opacity:1; 
stroke-linecap:round; stroke-linejoin:round;">
</g>
<g style="fill:#840000; fill-opacity:0.0; 
stroke:#840000; stroke-width:60; stroke-opacity:1; 
stroke-linecap:round; stroke-linejoin:round;">
<text x="4330" y="73080"
textLength="570" font-size="680" lengthAdjust="spacingAndGlyphs"
text-anchor="middle" opacity="0">D</text>
<path d="M4190 73060
L4190 72550
L4310 72550
L4390 72570
L4430 72620
L4460 72670
L4480 72760
L4480 72840
L4460 72930
L4430 72980
L4390 73030
L4310 73060
L4190 73060
" />
</g>
<g style="fill:#840000; fill-opacity:0.0; 
stroke:#840000; stroke-width:100; stroke-opacity:1; 
stroke-linecap:round; stroke-linejoin:round;">
</g>
<g style="fill:#840000; fill-opacity:0.0; 
stroke:#840000; stroke-width:60; stroke-opacity:1; 
stroke-linecap:round; stroke-linejoin:round;">
<path d="M112990 23620
L112210 23620
" />
</g>
<g style="fill:#840000; fill-opacity:0.0; 
stroke:#840000; stroke-width:100; stroke-opacity:1; 
stroke-linecap:round; stroke-linejoin:round;">
</g>
<g style="fill:#840000; fill-opacity:0.0; 
stroke:#840000; stroke-width:60; stroke-opacity:1; 
stroke-linecap:round; stroke-linejoin:round;">
<path d="M112990 43310
L112210 43310
" />
</g>
<g style="fill:#840000; fill-opacity:0.0; 
stroke:#840000; stroke-width:100; stroke-opacity:1; 
stroke-linecap:round; stroke-linejoin:round;">
</g>
<g style="fill:#840000; fill-opacity:0.0; 
stroke:#840000; stroke-width:60; stroke-opacity:1; 
stroke-linecap:round; stroke-linejoin:round;">
<path d="M112990 62990
L112210 62990
" />
</g>
<g style="fill:#840000; fill-opacity:0.0; 
stroke:#840000; stroke-width:100; stroke-opacity:1; 
stroke-linecap:round; stroke-linejoin:round;">
</g>
<g style="fill:#840000; fill-opacity:0.0; 
stroke:#840000; stroke-width:60; stroke-opacity:1; 
stroke-linecap:round; stroke-linejoin:round;">
<text x="112600" y="14030"
textLength="500" font-size="680" lengthAdjust="spacingAndGlyphs"
text-anchor="middle" opacity="0">A</text>
<path d="M112470 13860
L112720 13860
" />
<path d="M112430 14010
L112600 13500
L112770 14010
" />
</g>
<g style="fill:#840000; fill-opacity:0.0; 
stroke:#840000; stroke-width:100; stroke-opacity:1; 
stroke-linecap:round; stroke-linejoin:round;">
</g>
<g style="fill:#840000; fill-opacity:0.0; 
stroke:#840000; stroke-width:60; stroke-opacity:1; 
stroke-linecap:round; stroke-linejoin:round;">
<text x="112600" y="33710"
textLength="570" font-size="680" lengthAdjust="spacingAndGlyphs"
text-anchor="middle" opacity="0">B</text>
<path d="M112630 33420
L112700 33440
L112730 33470
L112750 33520
L112750 33590
L112730 33640
L112700 33660
L112660 33690
L112460 33690
L112460 33180
L112630 33180
L112680 33200
L112700 33220
L112730 33270
L112730 33320
L112700 33370
L112680 33390
L112630 33420
L112460 33420
" />
</g>
<g style="fill:#840000; fill-opacity:0.0; 
stroke:#840000; stroke-width:100; stroke-opacity:1; 
stroke-linecap:round; stroke-linejoin:round;">
</g>
<g style="fill:#840000; fill-opacity:0.0; 
stroke:#840000; stroke-width:60; stroke-opacity:1; 
stroke-linecap:round; stroke-linejoin:round;">
<text x="112600" y="53400"
textLength="570" font-size="680" lengthAdjust="spacingAndGlyphs"
text-anchor="middle" opacity="0">C</text>
<path d="M112750 53330
L112730 53350
L112660 53380
L112610 53380
L112530 53350
L112490 53300
L112460 53250
L112440 53160
L112440 53080
L112460 52990
L112490 52940
L112530 52890
L112610 52870
L112660 52870
L112730 52890
L112750 52910
" />
</g>
<g style="fill:#840000; fill-opacity:0.0; 
stroke:#840000; stroke-width:100; stroke-opacity:1; 
stroke-linecap:round; stroke-linejoin:round;">
</g>
<g style="fill:#840000; fill-opacity:0.0; 
stroke:#840000; stroke-width:60; stroke-opacity:1; 
stroke-linecap:round; stroke-linejoin:round;">
<text x="112600" y="73080"
textLength="570" font-size="680" lengthAdjust="spacingAndGlyphs"
text-anchor="middle" opacity="0">D</text>
<path d="M112460 73060
L112460 72550
L112580 72550
L112660 72570
L112700 72620
L112730 72670
L112750 72760
L112750 72840
L112730 72930
L112700 72980
L112660 73030
L112580 73060
L112460 73060
" />
</g>
<g style="fill:#840000; fill-opacity:0.0; 
stroke:#840000; stroke-width:100; stroke-opacity:1; 
stroke-linecap:round; stroke-linejoin:round;">
</g>
<g style="fill:#840000; fill-opacity:0.0; 
stroke:#840000; stroke-width:60; stroke-opacity:1; 
stroke-linecap:round; stroke-linejoin:round;">
<text x="78740" y="76320"
textLength="2760" font-size="780" lengthAdjust="spacingAndGlyphs"
text-anchor="start" opacity="0">Date: </text>
<path d="M78910 76290
L78910 75700
L79050 75700
L79130 75730
L79190 75790
L79210 75840
L79240 75950
L79240 76040
L79210 76150
L79190 76210
L79130 76260
L79050 76290
L78910 76290
" />
<path d="M79750 76290
L79750 75980
L79720 75930
L79660 75900
L79550 75900
L79500 75930
" />
<path d="M79750 76260
L79690 76290
L79550 76290
L79500 76260
L79470 76210
L79470 76150
L79500 76100
L79550 76070
L79690 76070
L79750 76040
" />
<path d="M79950 75900
L80170 75900
" />
<path d="M80030 75700
L80030 76210
L80060 76260
L80110 76290
L80170 76290
" />
<path d="M80590 76260
L80540 76290
L80420 76290
L80370 76260
L80340 76210
L80340 75980
L80370 75930
L80420 75900
L80540 75900
L80590 75930
L80620 75980
L80620 76040
L80340 76100
" />
<path d="M80870 76240
L80900 76260
L80870 76290
L80840 76260
L80870 76240
L80870 76290
" />
<path d="M80870 75930
L80900 75950
L80870 75980
L80840 75950
L80870 75930
L80870 75980
" />
</g>
<g style="fill:#840000; fill-opacity:0.0; 
stroke:#840000; stroke-width:100; stroke-opacity:1; 
stroke-linecap:round; stroke-linejoin:round;">
</g>
<g style="fill:#840000; fill-opacity:0.0; 
stroke:#840000; stroke-width:60; stroke-opacity:1; 
stroke-linecap:round; stroke-linejoin:round;">
<path d="M69690 76580
L112210 76580
" />
</g>
<g style="fill:#840000; fill-opacity:0.0; 
stroke:#840000; stroke-width:100; stroke-opacity:1; 
stroke-linecap:round; stroke-linejoin:round;">
</g>
<g style="fill:#840000; fill-opacity:0.0; 
stroke:#840000; stroke-width:60; stroke-opacity:1; 
stroke-linecap:round; stroke-linejoin:round;">
<text x="70080" y="77420"
textLength="16950" font-size="780" lengthAdjust="spacingAndGlyphs"
text-anchor="start" opacity="0">KiCad E.D.A.  kicad (5.1.8-0-10_14)</text>
<path d="M70250 77390
L70250 76800
" />
<path d="M70580 77390
L70330 77050
" />
<path d="M70580 76800
L70250 77140
" />
<path d="M70840 77390
L70840 77000
" />
<path d="M70840 76800
L70810 76830
L70840 76860
L70860 76830
L70840 76800
L70840 76860
" />
<path d="M71450 77340
L71430 77360
L71340 77390
L71290 77390
L71200 77360
L71140 77310
L71120 77250
L71090 77140
L71090 77050
L71120 76940
L71140 76890
L71200 76830
L71290 76800
L71340 76800
L71430 76830
L71450 76860
" />
<path d="M71960 77390
L71960 77080
L71930 77030
L71880 77000
L71760 77000
L71710 77030
" />
<path d="M71960 77360
L71900 77390
L71760 77390
L71710 77360
L71680 77310
L71680 77250
L71710 77200
L71760 77170
L71900 77170
L71960 77140
" />
<path d="M72490 77390
L72490 76800
" />
<path d="M72490 77360
L72440 77390
L72320 77390
L72270 77360
L72240 77340
L72210 77280
L72210 77110
L72240 77050
L72270 77030
L72320 77000
L72440 77000
L72490 77030
" />
<path d="M73220 77080
L73420 77080
" />
<path d="M73500 77390
L73220 77390
L73220 76800
L73500 76800
" />
<path d="M73760 77340
L73790 77360
L73760 77390
L73730 77360
L73760 77340
L73760 77390
" />
<path d="M74040 77390
L74040 76800
L74180 76800
L74260 76830
L74320 76890
L74350 76940
L74380 77050
L74380 77140
L74350 77250
L74320 77310
L74260 77360
L74180 77390
L74040 77390
" />
<path d="M74630 77340
L74660 77360
L74630 77390
L74600 77360
L74630 77340
L74630 77390
" />
<path d="M74880 77220
L75160 77220
" />
<path d="M74830 77390
L75020 76800
L75220 77390
" />
<path d="M75420 77340
L75440 77360
L75420 77390
L75390 77360
L75420 77340
L75420 77390
" />
<path d="M76600 77390
L76600 76800
" />
<path d="M76650 77170
L76820 77390
" />
<path d="M76820 77000
L76600 77220
" />
<path d="M77070 77390
L77070 77000
" />
<path d="M77070 76800
L77040 76830
L77070 76860
L77100 76830
L77070 76800
L77070 76860
" />
<path d="M77610 77360
L77550 77390
L77440 77390
L77380 77360
L77350 77340
L77330 77280
L77330 77110
L77350 77050
L77380 77030
L77440 77000
L77550 77000
L77610 77030
" />
<path d="M78110 77390
L78110 77080
L78080 77030
L78030 77000
L77920 77000
L77860 77030
" />
<path d="M78110 77360
L78060 77390
L77920 77390
L77860 77360
L77830 77310
L77830 77250
L77860 77200
L77920 77170
L78060 77170
L78110 77140
" />
<path d="M78650 77390
L78650 76800
" />
<path d="M78650 77360
L78590 77390
L78480 77390
L78420 77360
L78390 77340
L78370 77280
L78370 77110
L78390 77050
L78420 77030
L78480 77000
L78590 77000
L78650 77030
" />
<path d="M79550 77620
L79520 77590
L79460 77500
L79430 77450
L79400 77360
L79380 77220
L79380 77110
L79400 76970
L79430 76890
L79460 76830
L79520 76750
L79550 76720
" />
<path d="M80050 76800
L79770 76800
L79740 77080
L79770 77050
L79830 77030
L79970 77030
L80020 77050
L80050 77080
L80080 77140
L80080 77280
L80050 77340
L80020 77360
L79970 77390
L79830 77390
L79770 77360
L79740 77340
" />
<path d="M80330 77340
L80360 77360
L80330 77390
L80300 77360
L80330 77340
L80330 77390
" />
<path d="M80920 77390
L80580 77390
" />
<path d="M80750 77390
L80750 76800
L80700 76890
L80640 76940
L80580 76970
" />
<path d="M81170 77340
L81200 77360
L81170 77390
L81150 77360
L81170 77340
L81170 77390
" />
<path d="M81540 77050
L81480 77030
L81460 77000
L81430 76940
L81430 76910
L81460 76860
L81480 76830
L81540 76800
L81650 76800
L81710 76830
L81740 76860
L81760 76910
L81760 76940
L81740 77000
L81710 77030
L81650 77050
L81540 77050
L81480 77080
L81460 77110
L81430 77170
L81430 77280
L81460 77340
L81480 77360
L81540 77390
L81650 77390
L81710 77360
L81740 77340
L81760 77280
L81760 77170
L81740 77110
L81710 77080
L81650 77050
" />
<path d="M82020 77170
L82470 77170
" />
<path d="M82860 76800
L82920 76800
L82970 76830
L83000 76860
L83030 76910
L83060 77030
L83060 77170
L83030 77280
L83000 77340
L82970 77360
L82920 77390
L82860 77390
L82800 77360
L82780 77340
L82750 77280
L82720 77170
L82720 77030
L82750 76910
L82780 76860
L82800 76830
L82860 76800
" />
<path d="M83310 77170
L83760 77170
" />
<path d="M84350 77390
L84010 77390
" />
<path d="M84180 77390
L84180 76800
L84120 76890
L84070 76940
L84010 76970
" />
<path d="M84710 76800
L84770 76800
L84830 76830
L84860 76860
L84880 76910
L84910 77030
L84910 77170
L84880 77280
L84860 77340
L84830 77360
L84770 77390
L84710 77390
L84660 77360
L84630 77340
L84600 77280
L84570 77170
L84570 77030
L84600 76910
L84630 76860
L84660 76830
L84710 76800
" />
<path d="M85020 77450
L85470 77450
" />
<path d="M85920 77390
L85590 77390
" />
<path d="M85750 77390
L85750 76800
L85700 76890
L85640 76940
L85590 76970
" />
<path d="M86430 77000
L86430 77390
" />
<path d="M86290 76770
L86150 77200
L86510 77200
" />
<path d="M86680 77620
L86710 77590
L86770 77500
L86790 77450
L86820 77360
L86850 77220
L86850 77110
L86820 76970
L86790 76890
L86770 76830
L86710 76750
L86680 76720
" />
</g>
<g style="fill:#840000; fill-opacity:0.0; 
stroke:#840000; stroke-width:100; stroke-opacity:1; 
stroke-linecap:round; stroke-linejoin:round;">
</g>
<g style="fill:#840000; fill-opacity:0.0; 
stroke:#840000; stroke-width:60; stroke-opacity:1; 
stroke-linecap:round; stroke-linejoin:round;">
<path d="M69690 75400
L112210 75400
" />
</g>
<g style="fill:#840000; fill-opacity:0.0; 
stroke:#840000; stroke-width:100; stroke-opacity:1; 
stroke-linecap:round; stroke-linejoin:round;">
</g>
<g style="fill:#840000; fill-opacity:0.0; 
stroke:#840000; stroke-width:120; stroke-opacity:1; 
stroke-linecap:round; stroke-linejoin:round;">
<text x="103540" y="76320"
textLength="4470" font-size="780" lengthAdjust="spacingAndGlyphs"
text-anchor="start" opacity="0">Rev: RevB</text>
<path d="M104090 76290
L103890 76010
" />
<path d="M103750 76290
L103750 75700
L103980 75700
L104030 75730
L104060 75760
L104090 75810
L104090 75900
L104060 75950
L104030 75980
L103980 76010
L103750 76010
" />
<path d="M104570 76260
L104510 76290
L104400 76290
L104340 76260
L104320 76210
L104320 75980
L104340 75930
L104400 75900
L104510 75900
L104570 75930
L104600 75980
L104600 76040
L104320 76100
" />
<path d="M104790 75900
L104930 76290
L105070 75900
" />
<path d="M105300 76240
L105330 76260
L105300 76290
L105270 76260
L105300 76240
L105300 76290
" />
<path d="M105300 75930
L105330 75950
L105300 75980
L105270 75950
L105300 75930
L105300 75980
" />
<path d="M106370 76290
L106170 76010
" />
<path d="M106030 76290
L106030 75700
L106250 75700
L106310 75730
L106340 75760
L106370 75810
L106370 75900
L106340 75950
L106310 75980
L106250 76010
L106030 76010
" />
<path d="M106840 76260
L106790 76290
L106680 76290
L106620 76260
L106590 76210
L106590 75980
L106620 75930
L106680 75900
L106790 75900
L106840 75930
L106870 75980
L106870 76040
L106590 76100
" />
<path d="M107070 75900
L107210 76290
L107350 75900
" />
<path d="M107770 75980
L107860 76010
L107880 76040
L107910 76100
L107910 76180
L107880 76240
L107860 76260
L107800 76290
L107570 76290
L107570 75700
L107770 75700
L107830 75730
L107860 75760
L107880 75810
L107880 75870
L107860 75930
L107830 75950
L107770 75980
L107570 75980
" />
</g>
<g style="fill:#840000; fill-opacity:0.0; 
stroke:#840000; stroke-width:100; stroke-opacity:1; 
stroke-linecap:round; stroke-linejoin:round;">
</g>
<g style="fill:#840000; fill-opacity:0.0; 
stroke:#840000; stroke-width:60; stroke-opacity:1; 
stroke-linecap:round; stroke-linejoin:round;">
<text x="70080" y="76320"
textLength="3780" font-size="780" lengthAdjust="spacingAndGlyphs"
text-anchor="start" opacity="0">Size: A4</text>
<path d="M70220 76260
L70300 76290
L70440 76290
L70500 76260
L70530 76240
L70550 76180
L70550 76120
L70530 76070
L70500 76040
L70440 76010
L70330 75980
L70270 75950
L70250 75930
L70220 75870
L70220 75810
L70250 75760
L70270 75730
L70330 75700
L70470 75700
L70550 75730
" />
<path d="M70810 76290
L70810 75900
" />
<path d="M70810 75700
L70780 75730
L70810 75760
L70840 75730
L70810 75700
L70810 75760
" />
<path d="M71030 75900
L71340 75900
L71030 76290
L71340 76290
" />
<path d="M71790 76260
L71730 76290
L71620 76290
L71570 76260
L71540 76210
L71540 75980
L71570 75930
L71620 75900
L71730 75900
L71790 75930
L71820 75980
L71820 76040
L71540 76100
" />
<path d="M72070 76240
L72100 76260
L72070 76290
L72040 76260
L72070 76240
L72070 76290
" />
<path d="M72070 75930
L72100 75950
L72070 75980
L72040 75950
L72070 75930
L72070 75980
" />
<path d="M72770 76120
L73060 76120
" />
<path d="M72720 76290
L72910 75700
L73110 76290
" />
<path d="M73560 75900
L73560 76290
" />
<path d="M73420 75670
L73280 76100
L73650 76100
" />
</g>
<g style="fill:#840000; fill-opacity:0.0; 
stroke:#840000; stroke-width:100; stroke-opacity:1; 
stroke-linecap:round; stroke-linejoin:round;">
</g>
<g style="fill:#840000; fill-opacity:0.0; 
stroke:#840000; stroke-width:60; stroke-opacity:1; 
stroke-linecap:round; stroke-linejoin:round;">
<text x="103540" y="77420"
textLength="3350" font-size="780" lengthAdjust="spacingAndGlyphs"
text-anchor="start" opacity="0">Id: 9/9</text>
<path d="M103710 77390
L103710 76800
" />
<path d="M104240 77390
L104240 76800
" />
<path d="M104240 77360
L104180 77390
L104070 77390
L104010 77360
L103990 77340
L103960 77280
L103960 77110
L103990 77050
L104010 77030
L104070 77000
L104180 77000
L104240 77030
" />
<path d="M104520 77340
L104550 77360
L104520 77390
L104490 77360
L104520 77340
L104520 77390
" />
<path d="M104520 77030
L104550 77050
L104520 77080
L104490 77050
L104520 77030
L104520 77080
" />
<path d="M105280 77390
L105390 77390
L105450 77360
L105480 77340
L105530 77250
L105560 77140
L105560 76910
L105530 76860
L105500 76830
L105450 76800
L105340 76800
L105280 76830
L105250 76860
L105220 76910
L105220 77050
L105250 77110
L105280 77140
L105340 77170
L105450 77170
L105500 77140
L105530 77110
L105560 77050
" />
<path d="M106230 76770
L105730 77530
" />
<path d="M106460 77390
L106570 77390
L106630 77360
L106660 77340
L106710 77250
L106740 77140
L106740 76910
L106710 76860
L106680 76830
L106630 76800
L106520 76800
L106460 76830
L106430 76860
L106400 76910
L106400 77050
L106430 77110
L106460 77140
L106520 77170
L106630 77170
L106680 77140
L106710 77110
L106740 77050
" />
</g>
<g style="fill:#840000; fill-opacity:0.0; 
stroke:#840000; stroke-width:100; stroke-opacity:1; 
stroke-linecap:round; stroke-linejoin:round;">
</g>
<g style="fill:#840000; fill-opacity:0.0; 
stroke:#840000; stroke-width:60; stroke-opacity:1; 
stroke-linecap:round; stroke-linejoin:round;">
<path d="M69690 73820
L112210 73820
" />
</g>
<g style="fill:#840000; fill-opacity:0.0; 
stroke:#840000; stroke-width:100; stroke-opacity:1; 
stroke-linecap:round; stroke-linejoin:round;">
</g>
<g style="fill:#840000; fill-opacity:0.0; 
stroke:#840000; stroke-width:160; stroke-opacity:1; 
stroke-linecap:round; stroke-linejoin:round;">
<text x="70080" y="74920"
textLength="3710" font-size="1050" lengthAdjust="spacingAndGlyphs"
text-anchor="start" opacity="0">Title: </text>
<path d="M70360 74090
L70810 74090
" />
<path d="M70480 74880
L70580 74090
" />
<path d="M70970 74880
L71040 74360
" />
<path d="M71070 74090
L71030 74130
L71060 74170
L71110 74130
L71070 74090
L71060 74170
" />
<path d="M71300 74360
L71600 74360
" />
<path d="M71450 74090
L71360 74770
L71390 74840
L71460 74880
L71540 74880
" />
<path d="M71910 74880
L71840 74840
L71820 74770
L71900 74090
" />
<path d="M72520 74840
L72440 74880
L72290 74880
L72220 74840
L72190 74770
L72230 74470
L72280 74390
L72360 74360
L72510 74360
L72580 74390
L72610 74470
L72600 74540
L72210 74620
" />
<path d="M72900 74810
L72930 74840
L72890 74880
L72860 74840
L72900 74810
L72890 74880
" />
<path d="M72950 74390
L72990 74430
L72940 74470
L72910 74430
L72950 74390
L72940 74470
" />
</g>
<g style="fill:#840000; fill-opacity:0.0; 
stroke:#840000; stroke-width:100; stroke-opacity:1; 
stroke-linecap:round; stroke-linejoin:round;">
</g>
<g style="fill:#840000; fill-opacity:0.0; 
stroke:#840000; stroke-width:60; stroke-opacity:1; 
stroke-linecap:round; stroke-linejoin:round;">
<text x="70080" y="73400"
textLength="8750" font-size="780" lengthAdjust="spacingAndGlyphs"
text-anchor="start" opacity="0">File: USB_Conn.sch</text>
<path d="M70440 73060
L70250 73060
" />
<path d="M70250 73370
L70250 72780
L70530 72780
" />
<path d="M70750 73370
L70750 72980
" />
<path d="M70750 72780
L70720 72810
L70750 72840
L70780 72810
L70750 72780
L70750 72840
" />
<path d="M71120 73370
L71060 73340
L71030 73290
L71030 72780
" />
<path d="M71570 73340
L71510 73370
L71400 73370
L71340 73340
L71310 73290
L71310 73060
L71340 73010
L71400 72980
L71510 72980
L71570 73010
L71590 73060
L71590 73120
L71310 73180
" />
<path d="M71850 73320
L71880 73340
L71850 73370
L71820 73340
L71850 73320
L71850 73370
" />
<path d="M71850 73010
L71880 73030
L71850 73060
L71820 73030
L71850 73010
L71850 73060
" />
<path d="M72580 72780
L72580 73260
L72610 73320
L72630 73340
L72690 73370
L72800 73370
L72860 73340
L72890 73320
L72910 73260
L72910 72780
" />
<path d="M73170 73340
L73250 73370
L73390 73370
L73450 73340
L73480 73320
L73500 73260
L73500 73200
L73480 73150
L73450 73120
L73390 73090
L73280 73060
L73220 73030
L73200 73010
L73170 72950
L73170 72890
L73200 72840
L73220 72810
L73280 72780
L73420 72780
L73500 72810
" />
<path d="M73950 73060
L74040 73090
L74070 73120
L74090 73180
L74090 73260
L74070 73320
L74040 73340
L73980 73370
L73760 73370
L73760 72780
L73950 72780
L74010 72810
L74040 72840
L74070 72890
L74070 72950
L74040 73010
L74010 73030
L73950 73060
L73760 73060
" />
<path d="M74210 73430
L74660 73430
" />
<path d="M75130 73320
L75110 73340
L75020 73370
L74970 73370
L74880 73340
L74830 73290
L74800 73230
L74770 73120
L74770 73030
L74800 72920
L74830 72870
L74880 72810
L74970 72780
L75020 72780
L75110 72810
L75130 72840
" />
<path d="M75470 73370
L75420 73340
L75390 73320
L75360 73260
L75360 73090
L75390 73030
L75420 73010
L75470 72980
L75560 72980
L75610 73010
L75640 73030
L75670 73090
L75670 73260
L75640 73320
L75610 73340
L75560 73370
L75470 73370
" />
<path d="M75920 72980
L75920 73370
" />
<path d="M75920 73030
L75950 73010
L76010 72980
L76090 72980
L76150 73010
L76170 73060
L76170 73370
" />
<path d="M76450 72980
L76450 73370
" />
<path d="M76450 73030
L76480 73010
L76540 72980
L76620 72980
L76680 73010
L76710 73060
L76710 73370
" />
<path d="M76990 73320
L77020 73340
L76990 73370
L76960 73340
L76990 73320
L76990 73370
" />
<path d="M77240 73340
L77300 73370
L77410 73370
L77470 73340
L77490 73290
L77490 73260
L77470 73200
L77410 73180
L77330 73180
L77270 73150
L77240 73090
L77240 73060
L77270 73010
L77330 72980
L77410 72980
L77470 73010
" />
<path d="M78000 73340
L77940 73370
L77830 73370
L77780 73340
L77750 73320
L77720 73260
L77720 73090
L77750 73030
L77780 73010
L77830 72980
L77940 72980
L78000 73010
" />
<path d="M78250 73370
L78250 72780
" />
<path d="M78510 73370
L78510 73060
L78480 73010
L78420 72980
L78340 72980
L78280 73010
L78250 73030
" />
</g>
<g style="fill:#840000; fill-opacity:0.0; 
stroke:#840000; stroke-width:100; stroke-opacity:1; 
stroke-linecap:round; stroke-linejoin:round;">
</g>
<g style="fill:#840000; fill-opacity:0.0; 
stroke:#840000; stroke-width:60; stroke-opacity:1; 
stroke-linecap:round; stroke-linejoin:round;">
<path d="M69690 71460
L112210 71460
" />
</g>
<g style="fill:#840000; fill-opacity:0.0; 
stroke:#840000; stroke-width:100; stroke-opacity:1; 
stroke-linecap:round; stroke-linejoin:round;">
</g>
<g style="fill:#840000; fill-opacity:0.0; 
stroke:#840000; stroke-width:60; stroke-opacity:1; 
stroke-linecap:round; stroke-linejoin:round;">
<text x="70080" y="72340"
textLength="11580" font-size="780" lengthAdjust="spacingAndGlyphs"
text-anchor="start" opacity="0">Sheet: /GPIO/USB_Conn/</text>
<path d="M70220 72280
L70300 72310
L70440 72310
L70500 72280
L70530 72260
L70550 72200
L70550 72140
L70530 72090
L70500 72060
L70440 72030
L70330 72000
L70270 71970
L70250 71950
L70220 71890
L70220 71830
L70250 71780
L70270 71750
L70330 71720
L70470 71720
L70550 71750
" />
<path d="M70810 72310
L70810 71720
" />
<path d="M71060 72310
L71060 72000
L71030 71950
L70980 71920
L70890 71920
L70840 71950
L70810 71970
" />
<path d="M71570 72280
L71510 72310
L71400 72310
L71340 72280
L71310 72230
L71310 72000
L71340 71950
L71400 71920
L71510 71920
L71570 71950
L71590 72000
L71590 72060
L71310 72120
" />
<path d="M72070 72280
L72020 72310
L71900 72310
L71850 72280
L71820 72230
L71820 72000
L71850 71950
L71900 71920
L72020 71920
L72070 71950
L72100 72000
L72100 72060
L71820 72120
" />
<path d="M72270 71920
L72490 71920
" />
<path d="M72350 71720
L72350 72230
L72380 72280
L72440 72310
L72490 72310
" />
<path d="M72690 72260
L72720 72280
L72690 72310
L72660 72280
L72690 72260
L72690 72310
" />
<path d="M72690 71950
L72720 71970
L72690 72000
L72660 71970
L72690 71950
L72690 72000
" />
<path d="M73840 71690
L73340 72450
" />
<path d="M74350 71750
L74290 71720
L74210 71720
L74120 71750
L74070 71810
L74040 71860
L74010 71970
L74010 72060
L74040 72170
L74070 72230
L74120 72280
L74210 72310
L74260 72310
L74350 72280
L74380 72260
L74380 72060
L74260 72060
" />
<path d="M74630 72310
L74630 71720
L74850 71720
L74910 71750
L74940 71780
L74970 71830
L74970 71920
L74940 71970
L74910 72000
L74850 72030
L74630 72030
" />
<path d="M75220 72310
L75220 71720
" />
<path d="M75610 71720
L75720 71720
L75780 71750
L75840 71810
L75860 71920
L75860 72120
L75840 72230
L75780 72280
L75720 72310
L75610 72310
L75560 72280
L75500 72230
L75470 72120
L75470 71920
L75500 71810
L75560 71750
L75610 71720
" />
<path d="M76540 71690
L76030 72450
" />
<path d="M76740 71720
L76740 72200
L76760 72260
L76790 72280
L76850 72310
L76960 72310
L77020 72280
L77040 72260
L77070 72200
L77070 71720
" />
<path d="M77330 72280
L77410 72310
L77550 72310
L77610 72280
L77630 72260
L77660 72200
L77660 72140
L77630 72090
L77610 72060
L77550 72030
L77440 72000
L77380 71970
L77350 71950
L77330 71890
L77330 71830
L77350 71780
L77380 71750
L77440 71720
L77580 71720
L77660 71750
" />
<path d="M78110 72000
L78200 72030
L78220 72060
L78250 72120
L78250 72200
L78220 72260
L78200 72280
L78140 72310
L77920 72310
L77920 71720
L78110 71720
L78170 71750
L78200 71780
L78220 71830
L78220 71890
L78200 71950
L78170 71970
L78110 72000
L77920 72000
" />
<path d="M78370 72370
L78810 72370
" />
<path d="M79290 72260
L79260 72280
L79180 72310
L79120 72310
L79040 72280
L78980 72230
L78960 72170
L78930 72060
L78930 71970
L78960 71860
L78980 71810
L79040 71750
L79120 71720
L79180 71720
L79260 71750
L79290 71780
" />
<path d="M79630 72310
L79570 72280
L79550 72260
L79520 72200
L79520 72030
L79550 71970
L79570 71950
L79630 71920
L79710 71920
L79770 71950
L79800 71970
L79830 72030
L79830 72200
L79800 72260
L79770 72280
L79710 72310
L79630 72310
" />
<path d="M80080 71920
L80080 72310
" />
<path d="M80080 71970
L80110 71950
L80160 71920
L80250 71920
L80300 71950
L80330 72000
L80330 72310
" />
<path d="M80610 71920
L80610 72310
" />
<path d="M80610 71970
L80640 71950
L80700 71920
L80780 71920
L80840 71950
L80870 72000
L80870 72310
" />
<path d="M81570 71690
L81060 72450
" />
</g>
<g style="fill:#840000; fill-opacity:0.0; 
stroke:#840000; stroke-width:100; stroke-opacity:1; 
stroke-linecap:round; stroke-linejoin:round;">
</g>
<g style="fill:#840000; fill-opacity:0.0; 
stroke:#840000; stroke-width:60; stroke-opacity:1; 
stroke-linecap:round; stroke-linejoin:round;">
<path d="M77560 75400
L77560 76580
" />
</g>
<g style="fill:#840000; fill-opacity:0.0; 
stroke:#840000; stroke-width:100; stroke-opacity:1; 
stroke-linecap:round; stroke-linejoin:round;">
</g>
<g style="fill:#840000; fill-opacity:0.0; 
stroke:#840000; stroke-width:60; stroke-opacity:1; 
stroke-linecap:round; stroke-linejoin:round;">
<path d="M102760 75400
L102760 77960
" />
</g>
<g style="fill:#840000; fill-opacity:0.0; 
stroke:#840000; stroke-width:0; stroke-opacity:1; 
stroke-linecap:round; stroke-linejoin:round;">
<g >
</g>
<g style="fill:#840000; fill-opacity:0.0; 
stroke:#840000; stroke-width:60; stroke-opacity:1; 
stroke-linecap:round; stroke-linejoin:round;">
<path style="fill:#840000; fill-opacity:0.0; 
stroke:#840000; stroke-width:60; stroke-opacity:1; 
stroke-linecap:round; stroke-linejoin:round;fill:none"
d="M 46250,37250
46250,37750
46750,37750
46250,38250
45750,37750
46250,37750
" /> 
</g>
<g style="fill:#008484; fill-opacity:0.0; 
stroke:#008484; stroke-width:60; stroke-opacity:1; 
stroke-linecap:round; stroke-linejoin:round;">
<text x="47750" y="37520"
textLength="2060" font-size="660" lengthAdjust="spacingAndGlyphs"
text-anchor="middle" opacity="0">GNDS</text>
<path d="M47130 37020
L47080 36990
L47010 36990
L46940 37020
L46890 37060
L46860 37110
L46840 37210
L46840 37280
L46860 37370
L46890 37420
L46940 37470
L47010 37490
L47050 37490
L47130 37470
L47150 37440
L47150 37280
L47050 37280
" />
<path d="M47360 37490
L47360 36990
L47650 37490
L47650 36990
" />
<path d="M47890 37490
L47890 36990
L48010 36990
L48080 37020
L48130 37060
L48150 37110
L48170 37210
L48170 37280
L48150 37370
L48130 37420
L48080 37470
L48010 37490
L47890 37490
" />
<path d="M48360 37470
L48440 37490
L48550 37490
L48600 37470
L48630 37440
L48650 37400
L48650 37350
L48630 37300
L48600 37280
L48550 37250
L48460 37230
L48410 37210
L48390 37180
L48360 37130
L48360 37090
L48390 37040
L48410 37020
L48460 36990
L48580 36990
L48650 37020
" />
</g>
</g>
<g style="fill:#008484; fill-opacity:0.0; 
stroke:#008484; stroke-width:0; stroke-opacity:1; 
stroke-linecap:round; stroke-linejoin:round;">
<g >
</g>
<g style="fill:#840000; fill-opacity:0.0; 
stroke:#840000; stroke-width:0; stroke-opacity:1; 
stroke-linecap:round; stroke-linejoin:round;">
</g>
<g style="fill:#840000; fill-opacity:0.0; 
stroke:#840000; stroke-width:60; stroke-opacity:1; 
stroke-linecap:round; stroke-linejoin:round;">
<path style="fill:#840000; fill-opacity:0.0; 
stroke:#840000; stroke-width:60; stroke-opacity:1; 
stroke-linecap:round; stroke-linejoin:round;fill:none"
d="M 51450,26250
51750,25750
" /> 
<path style="fill:#840000; fill-opacity:0.0; 
stroke:#840000; stroke-width:60; stroke-opacity:1; 
stroke-linecap:round; stroke-linejoin:round;fill:none"
d="M 51750,26750
51750,25750
" /> 
<path style="fill:#840000; fill-opacity:0.0; 
stroke:#840000; stroke-width:60; stroke-opacity:1; 
stroke-linecap:round; stroke-linejoin:round;fill:none"
d="M 51750,25750
52050,26250
" /> 
</g>
<g style="fill:#008484; fill-opacity:0.0; 
stroke:#008484; stroke-width:60; stroke-opacity:1; 
stroke-linecap:round; stroke-linejoin:round;">
<text x="51900" y="25290"
textLength="1580" font-size="660" lengthAdjust="spacingAndGlyphs"
text-anchor="middle" opacity="0">+5V</text>
<path d="M51250 25070
L51630 25070
" />
<path d="M51440 25260
L51440 24880
" />
<path d="M52110 24760
L51870 24760
L51850 25000
L51870 24980
L51920 24950
L52040 24950
L52090 24980
L52110 25000
L52130 25050
L52130 25170
L52110 25210
L52090 25240
L52040 25260
L51920 25260
L51870 25240
L51850 25210
" />
<path d="M52280 24760
L52440 25260
L52610 24760
" />
</g>
</g>
<g style="fill:#008484; fill-opacity:0.0; 
stroke:#008484; stroke-width:0; stroke-opacity:1; 
stroke-linecap:round; stroke-linejoin:round;">
<g >
</g>
<g style="fill:#840000; fill-opacity:0.0; 
stroke:#840000; stroke-width:0; stroke-opacity:1; 
stroke-linecap:round; stroke-linejoin:round;">
</g>
<g style="fill:#840000; fill-opacity:0.0; 
stroke:#840000; stroke-width:60; stroke-opacity:1; 
stroke-linecap:round; stroke-linejoin:round;">
<path style="fill:#840000; fill-opacity:0.0; 
stroke:#840000; stroke-width:60; stroke-opacity:1; 
stroke-linecap:round; stroke-linejoin:round;fill:none"
d="M 53950,43750
54250,43250
" /> 
<path style="fill:#840000; fill-opacity:0.0; 
stroke:#840000; stroke-width:60; stroke-opacity:1; 
stroke-linecap:round; stroke-linejoin:round;fill:none"
d="M 54250,44250
54250,43250
" /> 
<path style="fill:#840000; fill-opacity:0.0; 
stroke:#840000; stroke-width:60; stroke-opacity:1; 
stroke-linecap:round; stroke-linejoin:round;fill:none"
d="M 54250,43250
54550,43750
" /> 
</g>
<g style="fill:#008484; fill-opacity:0.0; 
stroke:#008484; stroke-width:60; stroke-opacity:1; 
stroke-linecap:round; stroke-linejoin:round;">
<text x="54400" y="42790"
textLength="1580" font-size="660" lengthAdjust="spacingAndGlyphs"
text-anchor="middle" opacity="0">+5V</text>
<path d="M53750 42570
L54130 42570
" />
<path d="M53940 42760
L53940 42380
" />
<path d="M54610 42260
L54370 42260
L54350 42500
L54370 42480
L54420 42450
L54540 42450
L54590 42480
L54610 42500
L54630 42550
L54630 42670
L54610 42710
L54590 42740
L54540 42760
L54420 42760
L54370 42740
L54350 42710
" />
<path d="M54780 42260
L54940 42760
L55110 42260
" />
</g>
</g>
<g style="fill:#008484; fill-opacity:0.0; 
stroke:#008484; stroke-width:0; stroke-opacity:1; 
stroke-linecap:round; stroke-linejoin:round;">
<g >
</g>
<g style="fill:#840000; fill-opacity:0.0; 
stroke:#840000; stroke-width:0; stroke-opacity:1; 
stroke-linecap:round; stroke-linejoin:round;">
</g>
<g style="fill:#840000; fill-opacity:0.0; 
stroke:#840000; stroke-width:60; stroke-opacity:1; 
stroke-linecap:round; stroke-linejoin:round;">
<path style="fill:#840000; fill-opacity:0.0; 
stroke:#840000; stroke-width:60; stroke-opacity:1; 
stroke-linecap:round; stroke-linejoin:round;fill:none"
d="M 46500,59250
46500,59750
47000,59750
46500,60250
46000,59750
46500,59750
" /> 
</g>
<g style="fill:#008484; fill-opacity:0.0; 
stroke:#008484; stroke-width:60; stroke-opacity:1; 
stroke-linecap:round; stroke-linejoin:round;">
<text x="46550" y="61250"
textLength="2060" font-size="660" lengthAdjust="spacingAndGlyphs"
text-anchor="middle" opacity="0">GNDS</text>
<path d="M45930 60750
L45880 60720
L45810 60720
L45740 60750
L45690 60790
L45660 60840
L45640 60940
L45640 61010
L45660 61100
L45690 61150
L45740 61200
L45810 61220
L45850 61220
L45930 61200
L45950 61170
L45950 61010
L45850 61010
" />
<path d="M46160 61220
L46160 60720
L46450 61220
L46450 60720
" />
<path d="M46690 61220
L46690 60720
L46810 60720
L46880 60750
L46930 60790
L46950 60840
L46970 60940
L46970 61010
L46950 61100
L46930 61150
L46880 61200
L46810 61220
L46690 61220
" />
<path d="M47160 61200
L47240 61220
L47350 61220
L47400 61200
L47430 61170
L47450 61130
L47450 61080
L47430 61030
L47400 61010
L47350 60980
L47260 60960
L47210 60940
L47190 60910
L47160 60860
L47160 60820
L47190 60770
L47210 60750
L47260 60720
L47380 60720
L47450 60750
" />
</g>
</g>
<g style="fill:#008484; fill-opacity:0.0; 
stroke:#008484; stroke-width:0; stroke-opacity:1; 
stroke-linecap:round; stroke-linejoin:round;">
<g >
</g>
<g style="fill:#840000; fill-opacity:0.0; 
stroke:#840000; stroke-width:0; stroke-opacity:1; 
stroke-linecap:round; stroke-linejoin:round;">
</g>
<g style="fill:#FFFFC2; fill-opacity:0.0; 
stroke:#FFFFC2; stroke-width:0; stroke-opacity:1; 
stroke-linecap:round; stroke-linejoin:round;">
</g>
<g style="fill:#FFFFC2; fill-opacity:0.6; 
stroke:#FFFFC2; stroke-width:0; stroke-opacity:1; 
stroke-linecap:round; stroke-linejoin:round;">
<rect x="44250" y="29000" width="4000" height="6000" rx="0" />
</g>
<g style="fill:#840000; fill-opacity:0.6; 
stroke:#840000; stroke-width:0; stroke-opacity:1; 
stroke-linecap:round; stroke-linejoin:round;">
</g>
<g style="fill:#840000; fill-opacity:0.0; 
stroke:#840000; stroke-width:100; stroke-opacity:1; 
stroke-linecap:round; stroke-linejoin:round;">
<rect x="44250" y="29000" width="4000" height="6000" rx="0" />
</g>
<g style="fill:#840000; fill-opacity:1.0; 
stroke:#840000; stroke-width:100; stroke-opacity:1; 
stroke-linecap:round; stroke-linejoin:round;">
<circle cx="44750" cy="31150" r="250" /> 
<circle cx="46000" cy="30650" r="150" /> 
</g>
<g style="fill:#840000; fill-opacity:0.0; 
stroke:#840000; stroke-width:100; stroke-opacity:1; 
stroke-linecap:round; stroke-linejoin:round;">
<rect x="44250" y="29000" width="4000" height="6000" rx="0" />
</g>
<g style="fill:#840000; fill-opacity:0.0; 
stroke:#840000; stroke-width:60; stroke-opacity:1; 
stroke-linecap:round; stroke-linejoin:round;">
<rect x="46200" y="34700" width="100" height="300" rx="0" />
</g>
<g style="fill:#840000; fill-opacity:1.0; 
stroke:#840000; stroke-width:100; stroke-opacity:1; 
stroke-linecap:round; stroke-linejoin:round;">
<rect x="46050" y="31500" width="300" height="300" rx="0" />
</g>
<g style="fill:#840000; fill-opacity:0.0; 
stroke:#840000; stroke-width:60; stroke-opacity:1; 
stroke-linecap:round; stroke-linejoin:round;">
<rect x="47950" y="33950" width="300" height="100" rx="0" />
<rect x="47950" y="32950" width="300" height="100" rx="0" />
<rect x="47950" y="31950" width="300" height="100" rx="0" />
<rect x="47950" y="29950" width="300" height="100" rx="0" />
</g>
<g style="fill:#840000; fill-opacity:0.0; 
stroke:#840000; stroke-width:100; stroke-opacity:1; 
stroke-linecap:round; stroke-linejoin:round;">
<path style="fill:#840000; fill-opacity:0.0; 
stroke:#840000; stroke-width:100; stroke-opacity:1; 
stroke-linecap:round; stroke-linejoin:round;fill:none"
d="M 45500,31150
46500,31150
" /> 
<path style="fill:#840000; fill-opacity:0.0; 
stroke:#840000; stroke-width:100; stroke-opacity:1; 
stroke-linecap:round; stroke-linejoin:round;fill:none"
d="M 45000,31150
45250,31150
45750,30650
46000,30650
" /> 
<path style="fill:#840000; fill-opacity:0.0; 
stroke:#840000; stroke-width:100; stroke-opacity:1; 
stroke-linecap:round; stroke-linejoin:round;fill:none"
d="M 45250,31150
45500,31150
45750,31650
46250,31650
" /> 
</g>
<g style="fill:#840000; fill-opacity:1.0; 
stroke:#840000; stroke-width:100; stroke-opacity:1; 
stroke-linecap:round; stroke-linejoin:round;">
<path style="fill:#840000; fill-opacity:1.0; 
stroke:#840000; stroke-width:100; stroke-opacity:1; 
stroke-linecap:round; stroke-linejoin:round;fill-rule:evenodd;"
d="M 46500,30900
46500,31400
47000,31150
Z" /> 
</g>
<g style="fill:#840000; fill-opacity:1.0; 
stroke:#840000; stroke-width:60; stroke-opacity:1; 
stroke-linecap:round; stroke-linejoin:round;">
<path style="fill:#840000; fill-opacity:1.0; 
stroke:#840000; stroke-width:60; stroke-opacity:1; 
stroke-linecap:round; stroke-linejoin:round;fill-rule:evenodd;"
d="M 44550,29800
45550,29800
45450,30100
44650,30100
Z" /> 
</g>
<g style="fill:#840000; fill-opacity:0.0; 
stroke:#840000; stroke-width:60; stroke-opacity:1; 
stroke-linecap:round; stroke-linejoin:round;">
<path style="fill:#840000; fill-opacity:0.0; 
stroke:#840000; stroke-width:60; stroke-opacity:1; 
stroke-linecap:round; stroke-linejoin:round;fill:none"
d="M 44400,29700
44400,29800
44500,30100
44500,30200
45600,30200
45600,30100
45700,29800
45700,29700
Z" /> 
<path d="M48250 30000
L49250 30000
" />
</g>
<g style="fill:#008484; fill-opacity:0.0; 
stroke:#008484; stroke-width:60; stroke-opacity:1; 
stroke-linecap:round; stroke-linejoin:round;">
<text x="47850" y="30250"
textLength="1990" font-size="660" lengthAdjust="spacingAndGlyphs"
text-anchor="end" opacity="0">VBUS</text>
<path d="M45930 29720
L46100 30220
L46270 29720
" />
<path d="M46600 29960
L46670 29980
L46700 30010
L46720 30050
L46720 30130
L46700 30170
L46670 30200
L46620 30220
L46430 30220
L46430 29720
L46600 29720
L46650 29750
L46670 29770
L46700 29820
L46700 29860
L46670 29910
L46650 29940
L46600 29960
L46430 29960
" />
<path d="M46930 29720
L46930 30130
L46960 30170
L46980 30200
L47030 30220
L47120 30220
L47170 30200
L47200 30170
L47220 30130
L47220 29720
" />
<path d="M47430 30200
L47510 30220
L47620 30220
L47670 30200
L47700 30170
L47720 30130
L47720 30080
L47700 30030
L47670 30010
L47620 29980
L47530 29960
L47480 29940
L47460 29910
L47430 29860
L47430 29820
L47460 29770
L47480 29750
L47530 29720
L47650 29720
L47720 29750
" />
</g>
<g style="fill:#840000; fill-opacity:0.0; 
stroke:#840000; stroke-width:60; stroke-opacity:1; 
stroke-linecap:round; stroke-linejoin:round;">
<text x="48750" y="29900"
textLength="540" font-size="660" lengthAdjust="spacingAndGlyphs"
text-anchor="middle" opacity="0">1</text>
<path d="M48890 29870
L48600 29870
" />
<path d="M48750 29870
L48750 29370
L48700 29440
L48650 29490
L48600 29510
" />
<path d="M48250 33000
L49250 33000
" />
</g>
<g style="fill:#008484; fill-opacity:0.0; 
stroke:#008484; stroke-width:60; stroke-opacity:1; 
stroke-linecap:round; stroke-linejoin:round;">
<text x="47850" y="33250"
textLength="1180" font-size="660" lengthAdjust="spacingAndGlyphs"
text-anchor="end" opacity="0">D-</text>
<path d="M46820 33220
L46820 32720
L46930 32720
L47010 32750
L47050 32790
L47080 32840
L47100 32940
L47100 33010
L47080 33100
L47050 33150
L47010 33200
L46930 33220
L46820 33220
" />
<path d="M47320 33030
L47700 33030
" />
</g>
<g style="fill:#840000; fill-opacity:0.0; 
stroke:#840000; stroke-width:60; stroke-opacity:1; 
stroke-linecap:round; stroke-linejoin:round;">
<text x="48750" y="32900"
textLength="540" font-size="660" lengthAdjust="spacingAndGlyphs"
text-anchor="middle" opacity="0">2</text>
<path d="M48600 32420
L48630 32400
L48670 32370
L48790 32370
L48840 32400
L48860 32420
L48890 32470
L48890 32510
L48860 32590
L48580 32870
L48890 32870
" />
<path d="M48250 32000
L49250 32000
" />
</g>
<g style="fill:#008484; fill-opacity:0.0; 
stroke:#008484; stroke-width:60; stroke-opacity:1; 
stroke-linecap:round; stroke-linejoin:round;">
<text x="47850" y="32250"
textLength="1180" font-size="660" lengthAdjust="spacingAndGlyphs"
text-anchor="end" opacity="0">D+</text>
<path d="M46820 32220
L46820 31720
L46930 31720
L47010 31750
L47050 31790
L47080 31840
L47100 31940
L47100 32010
L47080 32100
L47050 32150
L47010 32200
L46930 32220
L46820 32220
" />
<path d="M47320 32030
L47700 32030
" />
<path d="M47510 32220
L47510 31840
" />
</g>
<g style="fill:#840000; fill-opacity:0.0; 
stroke:#840000; stroke-width:60; stroke-opacity:1; 
stroke-linecap:round; stroke-linejoin:round;">
<text x="48750" y="31900"
textLength="540" font-size="660" lengthAdjust="spacingAndGlyphs"
text-anchor="middle" opacity="0">3</text>
<path d="M48580 31370
L48890 31370
L48720 31560
L48790 31560
L48840 31590
L48860 31610
L48890 31660
L48890 31780
L48860 31820
L48840 31850
L48790 31870
L48650 31870
L48600 31850
L48580 31820
" />
<path d="M48250 34000
L49250 34000
" />
</g>
<g style="fill:#008484; fill-opacity:0.0; 
stroke:#008484; stroke-width:60; stroke-opacity:1; 
stroke-linecap:round; stroke-linejoin:round;">
<text x="47850" y="34250"
textLength="800" font-size="660" lengthAdjust="spacingAndGlyphs"
text-anchor="end" opacity="0">ID</text>
<path d="M47200 34220
L47200 33720
" />
<path d="M47430 34220
L47430 33720
L47550 33720
L47620 33750
L47670 33790
L47700 33840
L47720 33940
L47720 34010
L47700 34100
L47670 34150
L47620 34200
L47550 34220
L47430 34220
" />
</g>
<g style="fill:#840000; fill-opacity:0.0; 
stroke:#840000; stroke-width:60; stroke-opacity:1; 
stroke-linecap:round; stroke-linejoin:round;">
<text x="48750" y="33900"
textLength="540" font-size="660" lengthAdjust="spacingAndGlyphs"
text-anchor="middle" opacity="0">4</text>
<path d="M48840 33540
L48840 33870
" />
<path d="M48720 33350
L48600 33700
L48910 33700
" />
<path d="M46250 35000
L46250 36000
" />
</g>
<g style="fill:#008484; fill-opacity:0.0; 
stroke:#008484; stroke-width:60; stroke-opacity:1; 
stroke-linecap:round; stroke-linejoin:round;">
<g transform="rotate(-90 46250 34600)">
<text x="46250" y="34850"
textLength="1580" font-size="660" lengthAdjust="spacingAndGlyphs"
text-anchor="start" opacity="0">GND</text>
</g>
<path d="M46000 34180
L45970 34230
L45970 34300
L46000 34370
L46040 34420
L46090 34450
L46190 34470
L46260 34470
L46350 34450
L46400 34420
L46450 34370
L46470 34300
L46470 34260
L46450 34180
L46420 34160
L46260 34160
L46260 34260
" />
<path d="M46470 33950
L45970 33950
L46470 33660
L45970 33660
" />
<path d="M46470 33420
L45970 33420
L45970 33300
L46000 33230
L46040 33180
L46090 33160
L46190 33140
L46260 33140
L46350 33160
L46400 33180
L46450 33230
L46470 33300
L46470 33420
" />
</g>
<g style="fill:#840000; fill-opacity:0.0; 
stroke:#840000; stroke-width:60; stroke-opacity:1; 
stroke-linecap:round; stroke-linejoin:round;">
<g transform="rotate(-90 46150 35500)">
<text x="46150" y="35500"
textLength="540" font-size="660" lengthAdjust="spacingAndGlyphs"
text-anchor="middle" opacity="0">5</text>
</g>
<path d="M45620 35380
L45620 35610
L45860 35640
L45840 35610
L45810 35570
L45810 35450
L45840 35400
L45860 35380
L45910 35350
L46030 35350
L46070 35380
L46100 35400
L46120 35450
L46120 35570
L46100 35610
L46070 35640
" />
<path d="M45250 35000
L45250 36000
" />
</g>
<g style="fill:#008484; fill-opacity:0.0; 
stroke:#008484; stroke-width:60; stroke-opacity:1; 
stroke-linecap:round; stroke-linejoin:round;">
<g transform="rotate(-90 45250 34600)">
<text x="45250" y="34850"
textLength="2370" font-size="660" lengthAdjust="spacingAndGlyphs"
text-anchor="start" opacity="0">Shield</text>
</g>
<path d="M45450 34470
L45470 34400
L45470 34280
L45450 34230
L45420 34210
L45380 34180
L45330 34180
L45280 34210
L45260 34230
L45230 34280
L45210 34370
L45190 34420
L45160 34450
L45110 34470
L45070 34470
L45020 34450
L45000 34420
L44970 34370
L44970 34260
L45000 34180
" />
<path d="M45470 33970
L44970 33970
" />
<path d="M45470 33760
L45210 33760
L45160 33780
L45140 33830
L45140 33900
L45160 33950
L45190 33970
" />
<path d="M45470 33520
L45140 33520
" />
<path d="M44970 33520
L45000 33540
L45020 33520
L45000 33490
L44970 33520
L45020 33520
" />
<path d="M45450 33090
L45470 33140
L45470 33230
L45450 33280
L45400 33300
L45210 33300
L45160 33280
L45140 33230
L45140 33140
L45160 33090
L45210 33070
L45260 33070
L45300 33300
" />
<path d="M45470 32780
L45450 32830
L45400 32850
L44970 32850
" />
<path d="M45470 32370
L44970 32370
" />
<path d="M45450 32370
L45470 32420
L45470 32520
L45450 32570
L45420 32590
L45380 32610
L45230 32610
L45190 32590
L45160 32570
L45140 32520
L45140 32420
L45160 32370
" />
</g>
<g style="fill:#840000; fill-opacity:0.0; 
stroke:#840000; stroke-width:60; stroke-opacity:1; 
stroke-linecap:round; stroke-linejoin:round;">
<g transform="rotate(-90 45150 35500)">
<text x="45150" y="35500"
textLength="540" font-size="660" lengthAdjust="spacingAndGlyphs"
text-anchor="middle" opacity="0">6</text>
</g>
<path d="M44620 35400
L44620 35500
L44650 35540
L44670 35570
L44740 35610
L44840 35640
L45030 35640
L45070 35610
L45100 35590
L45120 35540
L45120 35450
L45100 35400
L45070 35380
L45030 35350
L44910 35350
L44860 35380
L44840 35400
L44810 35450
L44810 35540
L44840 35590
L44860 35610
L44910 35640
" />
</g>
<g style="fill:#008484; fill-opacity:0.0; 
stroke:#008484; stroke-width:60; stroke-opacity:1; 
stroke-linecap:round; stroke-linejoin:round;">
<text x="46820" y="27600"
textLength="1390" font-size="660" lengthAdjust="spacingAndGlyphs"
text-anchor="middle" opacity="0">J14</text>
<path d="M46410 27070
L46410 27430
L46390 27500
L46340 27550
L46270 27570
L46220 27570
" />
<path d="M46910 27570
L46620 27570
" />
<path d="M46770 27570
L46770 27070
L46720 27140
L46670 27190
L46620 27210
" />
<path d="M47340 27240
L47340 27570
" />
<path d="M47220 27050
L47100 27400
L47410 27400
" />
<text x="46820" y="28510"
textLength="4820" font-size="660" lengthAdjust="spacingAndGlyphs"
text-anchor="middle" opacity="0">USB_B_Micro</text>
<path d="M44550 27980
L44550 28390
L44580 28430
L44600 28460
L44650 28480
L44740 28480
L44790 28460
L44820 28430
L44840 28390
L44840 27980
" />
<path d="M45050 28460
L45120 28480
L45240 28480
L45290 28460
L45320 28430
L45340 28390
L45340 28340
L45320 28290
L45290 28270
L45240 28240
L45150 28220
L45100 28200
L45080 28170
L45050 28120
L45050 28080
L45080 28030
L45100 28010
L45150 27980
L45270 27980
L45340 28010
" />
<path d="M45720 28220
L45790 28240
L45820 28270
L45840 28310
L45840 28390
L45820 28430
L45790 28460
L45740 28480
L45550 28480
L45550 27980
L45720 27980
L45770 28010
L45790 28030
L45820 28080
L45820 28120
L45790 28170
L45770 28200
L45720 28220
L45550 28220
" />
<path d="M45930 28530
L46320 28530
" />
<path d="M46600 28220
L46670 28240
L46700 28270
L46720 28310
L46720 28390
L46700 28430
L46670 28460
L46620 28480
L46430 28480
L46430 27980
L46600 27980
L46650 28010
L46670 28030
L46700 28080
L46700 28120
L46670 28170
L46650 28200
L46600 28220
L46430 28220
" />
<path d="M46820 28530
L47200 28530
" />
<path d="M47320 28480
L47320 27980
L47480 28340
L47650 27980
L47650 28480
" />
<path d="M47890 28480
L47890 28150
" />
<path d="M47890 27980
L47860 28010
L47890 28030
L47910 28010
L47890 27980
L47890 28030
" />
<path d="M48340 28460
L48290 28480
L48200 28480
L48150 28460
L48120 28430
L48100 28390
L48100 28240
L48120 28200
L48150 28170
L48200 28150
L48290 28150
L48340 28170
" />
<path d="M48550 28480
L48550 28150
" />
<path d="M48550 28240
L48580 28200
L48600 28170
L48650 28150
L48700 28150
" />
<path d="M48930 28480
L48890 28460
L48860 28430
L48840 28390
L48840 28240
L48860 28200
L48890 28170
L48930 28150
L49010 28150
L49050 28170
L49080 28200
L49100 28240
L49100 28390
L49080 28430
L49050 28460
L49010 28480
L48930 28480
" />
</g>
</g>
<g style="fill:#008484; fill-opacity:0.0; 
stroke:#008484; stroke-width:0; stroke-opacity:1; 
stroke-linecap:round; stroke-linejoin:round;">
<g >
</g>
<g style="fill:#840000; fill-opacity:0.0; 
stroke:#840000; stroke-width:0; stroke-opacity:1; 
stroke-linecap:round; stroke-linejoin:round;">
</g>
<g style="fill:#FFFFC2; fill-opacity:0.0; 
stroke:#FFFFC2; stroke-width:0; stroke-opacity:1; 
stroke-linecap:round; stroke-linejoin:round;">
</g>
<g style="fill:#FFFFC2; fill-opacity:0.6; 
stroke:#FFFFC2; stroke-width:0; stroke-opacity:1; 
stroke-linecap:round; stroke-linejoin:round;">
<rect x="44500" y="47500" width="4000" height="6000" rx="0" />
</g>
<g style="fill:#840000; fill-opacity:0.6; 
stroke:#840000; stroke-width:0; stroke-opacity:1; 
stroke-linecap:round; stroke-linejoin:round;">
</g>
<g style="fill:#840000; fill-opacity:0.0; 
stroke:#840000; stroke-width:100; stroke-opacity:1; 
stroke-linecap:round; stroke-linejoin:round;">
<rect x="44500" y="47500" width="4000" height="6000" rx="0" />
</g>
<g style="fill:#840000; fill-opacity:1.0; 
stroke:#840000; stroke-width:100; stroke-opacity:1; 
stroke-linecap:round; stroke-linejoin:round;">
<circle cx="45000" cy="49650" r="250" /> 
<circle cx="46250" cy="49150" r="150" /> 
</g>
<g style="fill:#840000; fill-opacity:0.0; 
stroke:#840000; stroke-width:100; stroke-opacity:1; 
stroke-linecap:round; stroke-linejoin:round;">
<rect x="44500" y="47500" width="4000" height="6000" rx="0" />
</g>
<g style="fill:#840000; fill-opacity:0.0; 
stroke:#840000; stroke-width:60; stroke-opacity:1; 
stroke-linecap:round; stroke-linejoin:round;">
<rect x="46450" y="53200" width="100" height="300" rx="0" />
</g>
<g style="fill:#840000; fill-opacity:1.0; 
stroke:#840000; stroke-width:100; stroke-opacity:1; 
stroke-linecap:round; stroke-linejoin:round;">
<rect x="46300" y="50000" width="300" height="300" rx="0" />
</g>
<g style="fill:#840000; fill-opacity:0.0; 
stroke:#840000; stroke-width:60; stroke-opacity:1; 
stroke-linecap:round; stroke-linejoin:round;">
<rect x="48200" y="52450" width="300" height="100" rx="0" />
<rect x="48200" y="51450" width="300" height="100" rx="0" />
<rect x="48200" y="50450" width="300" height="100" rx="0" />
<rect x="48200" y="48450" width="300" height="100" rx="0" />
</g>
<g style="fill:#840000; fill-opacity:0.0; 
stroke:#840000; stroke-width:100; stroke-opacity:1; 
stroke-linecap:round; stroke-linejoin:round;">
<path style="fill:#840000; fill-opacity:0.0; 
stroke:#840000; stroke-width:100; stroke-opacity:1; 
stroke-linecap:round; stroke-linejoin:round;fill:none"
d="M 45750,49650
46750,49650
" /> 
<path style="fill:#840000; fill-opacity:0.0; 
stroke:#840000; stroke-width:100; stroke-opacity:1; 
stroke-linecap:round; stroke-linejoin:round;fill:none"
d="M 45250,49650
45500,49650
46000,49150
46250,49150
" /> 
<path style="fill:#840000; fill-opacity:0.0; 
stroke:#840000; stroke-width:100; stroke-opacity:1; 
stroke-linecap:round; stroke-linejoin:round;fill:none"
d="M 45500,49650
45750,49650
46000,50150
46500,50150
" /> 
</g>
<g style="fill:#840000; fill-opacity:1.0; 
stroke:#840000; stroke-width:100; stroke-opacity:1; 
stroke-linecap:round; stroke-linejoin:round;">
<path style="fill:#840000; fill-opacity:1.0; 
stroke:#840000; stroke-width:100; stroke-opacity:1; 
stroke-linecap:round; stroke-linejoin:round;fill-rule:evenodd;"
d="M 46750,49400
46750,49900
47250,49650
Z" /> 
</g>
<g style="fill:#840000; fill-opacity:1.0; 
stroke:#840000; stroke-width:60; stroke-opacity:1; 
stroke-linecap:round; stroke-linejoin:round;">
<path style="fill:#840000; fill-opacity:1.0; 
stroke:#840000; stroke-width:60; stroke-opacity:1; 
stroke-linecap:round; stroke-linejoin:round;fill-rule:evenodd;"
d="M 44800,48300
45800,48300
45700,48600
44900,48600
Z" /> 
</g>
<g style="fill:#840000; fill-opacity:0.0; 
stroke:#840000; stroke-width:60; stroke-opacity:1; 
stroke-linecap:round; stroke-linejoin:round;">
<path style="fill:#840000; fill-opacity:0.0; 
stroke:#840000; stroke-width:60; stroke-opacity:1; 
stroke-linecap:round; stroke-linejoin:round;fill:none"
d="M 44650,48200
44650,48300
44750,48600
44750,48700
45850,48700
45850,48600
45950,48300
45950,48200
Z" /> 
<path d="M48500 48500
L49500 48500
" />
</g>
<g style="fill:#008484; fill-opacity:0.0; 
stroke:#008484; stroke-width:60; stroke-opacity:1; 
stroke-linecap:round; stroke-linejoin:round;">
<text x="48100" y="48750"
textLength="1990" font-size="660" lengthAdjust="spacingAndGlyphs"
text-anchor="end" opacity="0">VBUS</text>
<path d="M46180 48220
L46350 48720
L46520 48220
" />
<path d="M46850 48460
L46920 48480
L46950 48510
L46970 48550
L46970 48630
L46950 48670
L46920 48700
L46870 48720
L46680 48720
L46680 48220
L46850 48220
L46900 48250
L46920 48270
L46950 48320
L46950 48360
L46920 48410
L46900 48440
L46850 48460
L46680 48460
" />
<path d="M47180 48220
L47180 48630
L47210 48670
L47230 48700
L47280 48720
L47370 48720
L47420 48700
L47450 48670
L47470 48630
L47470 48220
" />
<path d="M47680 48700
L47760 48720
L47870 48720
L47920 48700
L47950 48670
L47970 48630
L47970 48580
L47950 48530
L47920 48510
L47870 48480
L47780 48460
L47730 48440
L47710 48410
L47680 48360
L47680 48320
L47710 48270
L47730 48250
L47780 48220
L47900 48220
L47970 48250
" />
</g>
<g style="fill:#840000; fill-opacity:0.0; 
stroke:#840000; stroke-width:60; stroke-opacity:1; 
stroke-linecap:round; stroke-linejoin:round;">
<text x="49000" y="48400"
textLength="540" font-size="660" lengthAdjust="spacingAndGlyphs"
text-anchor="middle" opacity="0">1</text>
<path d="M49140 48370
L48850 48370
" />
<path d="M49000 48370
L49000 47870
L48950 47940
L48900 47990
L48850 48010
" />
<path d="M48500 51500
L49500 51500
" />
</g>
<g style="fill:#008484; fill-opacity:0.0; 
stroke:#008484; stroke-width:60; stroke-opacity:1; 
stroke-linecap:round; stroke-linejoin:round;">
<text x="48100" y="51750"
textLength="1180" font-size="660" lengthAdjust="spacingAndGlyphs"
text-anchor="end" opacity="0">D-</text>
<path d="M47070 51720
L47070 51220
L47180 51220
L47260 51250
L47300 51290
L47330 51340
L47350 51440
L47350 51510
L47330 51600
L47300 51650
L47260 51700
L47180 51720
L47070 51720
" />
<path d="M47570 51530
L47950 51530
" />
</g>
<g style="fill:#840000; fill-opacity:0.0; 
stroke:#840000; stroke-width:60; stroke-opacity:1; 
stroke-linecap:round; stroke-linejoin:round;">
<text x="49000" y="51400"
textLength="540" font-size="660" lengthAdjust="spacingAndGlyphs"
text-anchor="middle" opacity="0">2</text>
<path d="M48850 50920
L48880 50900
L48920 50870
L49040 50870
L49090 50900
L49110 50920
L49140 50970
L49140 51010
L49110 51090
L48830 51370
L49140 51370
" />
<path d="M48500 50500
L49500 50500
" />
</g>
<g style="fill:#008484; fill-opacity:0.0; 
stroke:#008484; stroke-width:60; stroke-opacity:1; 
stroke-linecap:round; stroke-linejoin:round;">
<text x="48100" y="50750"
textLength="1180" font-size="660" lengthAdjust="spacingAndGlyphs"
text-anchor="end" opacity="0">D+</text>
<path d="M47070 50720
L47070 50220
L47180 50220
L47260 50250
L47300 50290
L47330 50340
L47350 50440
L47350 50510
L47330 50600
L47300 50650
L47260 50700
L47180 50720
L47070 50720
" />
<path d="M47570 50530
L47950 50530
" />
<path d="M47760 50720
L47760 50340
" />
</g>
<g style="fill:#840000; fill-opacity:0.0; 
stroke:#840000; stroke-width:60; stroke-opacity:1; 
stroke-linecap:round; stroke-linejoin:round;">
<text x="49000" y="50400"
textLength="540" font-size="660" lengthAdjust="spacingAndGlyphs"
text-anchor="middle" opacity="0">3</text>
<path d="M48830 49870
L49140 49870
L48970 50060
L49040 50060
L49090 50090
L49110 50110
L49140 50160
L49140 50280
L49110 50320
L49090 50350
L49040 50370
L48900 50370
L48850 50350
L48830 50320
" />
<path d="M48500 52500
L49500 52500
" />
</g>
<g style="fill:#008484; fill-opacity:0.0; 
stroke:#008484; stroke-width:60; stroke-opacity:1; 
stroke-linecap:round; stroke-linejoin:round;">
<text x="48100" y="52750"
textLength="800" font-size="660" lengthAdjust="spacingAndGlyphs"
text-anchor="end" opacity="0">ID</text>
<path d="M47450 52720
L47450 52220
" />
<path d="M47680 52720
L47680 52220
L47800 52220
L47870 52250
L47920 52290
L47950 52340
L47970 52440
L47970 52510
L47950 52600
L47920 52650
L47870 52700
L47800 52720
L47680 52720
" />
</g>
<g style="fill:#840000; fill-opacity:0.0; 
stroke:#840000; stroke-width:60; stroke-opacity:1; 
stroke-linecap:round; stroke-linejoin:round;">
<text x="49000" y="52400"
textLength="540" font-size="660" lengthAdjust="spacingAndGlyphs"
text-anchor="middle" opacity="0">4</text>
<path d="M49090 52040
L49090 52370
" />
<path d="M48970 51850
L48850 52200
L49160 52200
" />
<path d="M46500 53500
L46500 54500
" />
</g>
<g style="fill:#008484; fill-opacity:0.0; 
stroke:#008484; stroke-width:60; stroke-opacity:1; 
stroke-linecap:round; stroke-linejoin:round;">
<g transform="rotate(-90 46500 53100)">
<text x="46500" y="53350"
textLength="1580" font-size="660" lengthAdjust="spacingAndGlyphs"
text-anchor="start" opacity="0">GND</text>
</g>
<path d="M46250 52680
L46220 52730
L46220 52800
L46250 52870
L46290 52920
L46340 52950
L46440 52970
L46510 52970
L46600 52950
L46650 52920
L46700 52870
L46720 52800
L46720 52760
L46700 52680
L46670 52660
L46510 52660
L46510 52760
" />
<path d="M46720 52450
L46220 52450
L46720 52160
L46220 52160
" />
<path d="M46720 51920
L46220 51920
L46220 51800
L46250 51730
L46290 51680
L46340 51660
L46440 51640
L46510 51640
L46600 51660
L46650 51680
L46700 51730
L46720 51800
L46720 51920
" />
</g>
<g style="fill:#840000; fill-opacity:0.0; 
stroke:#840000; stroke-width:60; stroke-opacity:1; 
stroke-linecap:round; stroke-linejoin:round;">
<g transform="rotate(-90 46400 54000)">
<text x="46400" y="54000"
textLength="540" font-size="660" lengthAdjust="spacingAndGlyphs"
text-anchor="middle" opacity="0">5</text>
</g>
<path d="M45870 53880
L45870 54110
L46110 54140
L46090 54110
L46060 54070
L46060 53950
L46090 53900
L46110 53880
L46160 53850
L46280 53850
L46320 53880
L46350 53900
L46370 53950
L46370 54070
L46350 54110
L46320 54140
" />
<path d="M45500 53500
L45500 54500
" />
</g>
<g style="fill:#008484; fill-opacity:0.0; 
stroke:#008484; stroke-width:60; stroke-opacity:1; 
stroke-linecap:round; stroke-linejoin:round;">
<g transform="rotate(-90 45500 53100)">
<text x="45500" y="53350"
textLength="2370" font-size="660" lengthAdjust="spacingAndGlyphs"
text-anchor="start" opacity="0">Shield</text>
</g>
<path d="M45700 52970
L45720 52900
L45720 52780
L45700 52730
L45670 52710
L45630 52680
L45580 52680
L45530 52710
L45510 52730
L45480 52780
L45460 52870
L45440 52920
L45410 52950
L45360 52970
L45320 52970
L45270 52950
L45250 52920
L45220 52870
L45220 52760
L45250 52680
" />
<path d="M45720 52470
L45220 52470
" />
<path d="M45720 52260
L45460 52260
L45410 52280
L45390 52330
L45390 52400
L45410 52450
L45440 52470
" />
<path d="M45720 52020
L45390 52020
" />
<path d="M45220 52020
L45250 52040
L45270 52020
L45250 51990
L45220 52020
L45270 52020
" />
<path d="M45700 51590
L45720 51640
L45720 51730
L45700 51780
L45650 51800
L45460 51800
L45410 51780
L45390 51730
L45390 51640
L45410 51590
L45460 51570
L45510 51570
L45550 51800
" />
<path d="M45720 51280
L45700 51330
L45650 51350
L45220 51350
" />
<path d="M45720 50870
L45220 50870
" />
<path d="M45700 50870
L45720 50920
L45720 51020
L45700 51070
L45670 51090
L45630 51110
L45480 51110
L45440 51090
L45410 51070
L45390 51020
L45390 50920
L45410 50870
" />
</g>
<g style="fill:#840000; fill-opacity:0.0; 
stroke:#840000; stroke-width:60; stroke-opacity:1; 
stroke-linecap:round; stroke-linejoin:round;">
<g transform="rotate(-90 45400 54000)">
<text x="45400" y="54000"
textLength="540" font-size="660" lengthAdjust="spacingAndGlyphs"
text-anchor="middle" opacity="0">6</text>
</g>
<path d="M44870 53900
L44870 54000
L44900 54040
L44920 54070
L44990 54110
L45090 54140
L45280 54140
L45320 54110
L45350 54090
L45370 54040
L45370 53950
L45350 53900
L45320 53880
L45280 53850
L45160 53850
L45110 53880
L45090 53900
L45060 53950
L45060 54040
L45090 54090
L45110 54110
L45160 54140
" />
</g>
<g style="fill:#008484; fill-opacity:0.0; 
stroke:#008484; stroke-width:60; stroke-opacity:1; 
stroke-linecap:round; stroke-linejoin:round;">
<text x="47070" y="46100"
textLength="920" font-size="660" lengthAdjust="spacingAndGlyphs"
text-anchor="middle" opacity="0">J8</text>
<path d="M46900 45570
L46900 45930
L46870 46000
L46830 46050
L46760 46070
L46710 46070
" />
<path d="M47210 45790
L47160 45760
L47140 45740
L47110 45690
L47110 45670
L47140 45620
L47160 45600
L47210 45570
L47300 45570
L47350 45600
L47370 45620
L47400 45670
L47400 45690
L47370 45740
L47350 45760
L47300 45790
L47210 45790
L47160 45810
L47140 45830
L47110 45880
L47110 45980
L47140 46020
L47160 46050
L47210 46070
L47300 46070
L47350 46050
L47370 46020
L47400 45980
L47400 45880
L47370 45830
L47350 45810
L47300 45790
" />
<text x="47070" y="47010"
textLength="4820" font-size="660" lengthAdjust="spacingAndGlyphs"
text-anchor="middle" opacity="0">USB_B_Micro</text>
<path d="M44800 46480
L44800 46890
L44830 46930
L44850 46960
L44900 46980
L44990 46980
L45040 46960
L45070 46930
L45090 46890
L45090 46480
" />
<path d="M45300 46960
L45370 46980
L45490 46980
L45540 46960
L45570 46930
L45590 46890
L45590 46840
L45570 46790
L45540 46770
L45490 46740
L45400 46720
L45350 46700
L45330 46670
L45300 46620
L45300 46580
L45330 46530
L45350 46510
L45400 46480
L45520 46480
L45590 46510
" />
<path d="M45970 46720
L46040 46740
L46070 46770
L46090 46810
L46090 46890
L46070 46930
L46040 46960
L45990 46980
L45800 46980
L45800 46480
L45970 46480
L46020 46510
L46040 46530
L46070 46580
L46070 46620
L46040 46670
L46020 46700
L45970 46720
L45800 46720
" />
<path d="M46180 47030
L46570 47030
" />
<path d="M46850 46720
L46920 46740
L46950 46770
L46970 46810
L46970 46890
L46950 46930
L46920 46960
L46870 46980
L46680 46980
L46680 46480
L46850 46480
L46900 46510
L46920 46530
L46950 46580
L46950 46620
L46920 46670
L46900 46700
L46850 46720
L46680 46720
" />
<path d="M47070 47030
L47450 47030
" />
<path d="M47570 46980
L47570 46480
L47730 46840
L47900 46480
L47900 46980
" />
<path d="M48140 46980
L48140 46650
" />
<path d="M48140 46480
L48110 46510
L48140 46530
L48160 46510
L48140 46480
L48140 46530
" />
<path d="M48590 46960
L48540 46980
L48450 46980
L48400 46960
L48370 46930
L48350 46890
L48350 46740
L48370 46700
L48400 46670
L48450 46650
L48540 46650
L48590 46670
" />
<path d="M48800 46980
L48800 46650
" />
<path d="M48800 46740
L48830 46700
L48850 46670
L48900 46650
L48950 46650
" />
<path d="M49180 46980
L49140 46960
L49110 46930
L49090 46890
L49090 46740
L49110 46700
L49140 46670
L49180 46650
L49260 46650
L49300 46670
L49330 46700
L49350 46740
L49350 46890
L49330 46930
L49300 46960
L49260 46980
L49180 46980
" />
</g>
</g>
<g style="fill:#008484; fill-opacity:0.0; 
stroke:#008484; stroke-width:0; stroke-opacity:1; 
stroke-linecap:round; stroke-linejoin:round;">
<g >
</g>
<g style="fill:#840000; fill-opacity:0.0; 
stroke:#840000; stroke-width:0; stroke-opacity:1; 
stroke-linecap:round; stroke-linejoin:round;">
</g>
<g style="fill:#840000; fill-opacity:0.0; 
stroke:#840000; stroke-width:100; stroke-opacity:1; 
stroke-linecap:round; stroke-linejoin:round;">
<rect x="51000" y="48100" width="2000" height="800" rx="0" />
</g>
<g style="fill:#840000; fill-opacity:0.0; 
stroke:#840000; stroke-width:60; stroke-opacity:1; 
stroke-linecap:round; stroke-linejoin:round;">
<path d="M53000 48500
L53500 48500
" />
<path d="M51000 48500
L50500 48500
" />
</g>
<g style="fill:#008484; fill-opacity:0.0; 
stroke:#008484; stroke-width:60; stroke-opacity:1; 
stroke-linecap:round; stroke-linejoin:round;">
<text x="52000" y="46700"
textLength="1510" font-size="660" lengthAdjust="spacingAndGlyphs"
text-anchor="middle" opacity="0">R16</text>
<path d="M51670 46670
L51510 46430
" />
<path d="M51390 46670
L51390 46170
L51580 46170
L51630 46200
L51650 46220
L51670 46270
L51670 46340
L51650 46390
L51630 46410
L51580 46430
L51390 46430
" />
<path d="M52150 46670
L51860 46670
" />
<path d="M52010 46670
L52010 46170
L51960 46240
L51910 46290
L51860 46310
" />
<path d="M52580 46170
L52480 46170
L52440 46200
L52410 46220
L52360 46290
L52340 46390
L52340 46580
L52360 46620
L52390 46650
L52440 46670
L52530 46670
L52580 46650
L52600 46620
L52630 46580
L52630 46460
L52600 46410
L52580 46390
L52530 46360
L52440 46360
L52390 46390
L52360 46410
L52340 46460
" />
<text x="52000" y="47610"
textLength="1040" font-size="660" lengthAdjust="spacingAndGlyphs"
text-anchor="middle" opacity="0">0R</text>
<path d="M51720 47080
L51770 47080
L51820 47110
L51840 47130
L51860 47180
L51890 47270
L51890 47390
L51860 47490
L51840 47530
L51820 47560
L51770 47580
L51720 47580
L51670 47560
L51650 47530
L51630 47490
L51600 47390
L51600 47270
L51630 47180
L51650 47130
L51670 47110
L51720 47080
" />
<path d="M52390 47580
L52220 47340
" />
<path d="M52100 47580
L52100 47080
L52290 47080
L52340 47110
L52360 47130
L52390 47180
L52390 47250
L52360 47300
L52340 47320
L52290 47340
L52100 47340
" />
</g>
</g>
<g style="fill:#008484; fill-opacity:0.0; 
stroke:#008484; stroke-width:0; stroke-opacity:1; 
stroke-linecap:round; stroke-linejoin:round;">
<g >
</g>
<g style="fill:#840000; fill-opacity:0.0; 
stroke:#840000; stroke-width:0; stroke-opacity:1; 
stroke-linecap:round; stroke-linejoin:round;">
</g>
<g style="fill:#840000; fill-opacity:0.0; 
stroke:#840000; stroke-width:100; stroke-opacity:1; 
stroke-linecap:round; stroke-linejoin:round;">
<rect x="46100" y="56250" width="800" height="2000" rx="0" />
</g>
<g style="fill:#840000; fill-opacity:0.0; 
stroke:#840000; stroke-width:60; stroke-opacity:1; 
stroke-linecap:round; stroke-linejoin:round;">
<path d="M46500 58250
L46500 58750
" />
<path d="M46500 56250
L46500 55750
" />
</g>
<g style="fill:#008484; fill-opacity:0.0; 
stroke:#008484; stroke-width:60; stroke-opacity:1; 
stroke-linecap:round; stroke-linejoin:round;">
<text x="47950" y="57010"
textLength="1510" font-size="660" lengthAdjust="spacingAndGlyphs"
text-anchor="middle" opacity="0">R17</text>
<path d="M47620 56980
L47460 56740
" />
<path d="M47340 56980
L47340 56480
L47530 56480
L47580 56510
L47600 56530
L47620 56580
L47620 56650
L47600 56700
L47580 56720
L47530 56740
L47340 56740
" />
<path d="M48100 56980
L47810 56980
" />
<path d="M47960 56980
L47960 56480
L47910 56550
L47860 56600
L47810 56620
" />
<path d="M48270 56480
L48600 56480
L48390 56980
" />
<text x="47720" y="57920"
textLength="1040" font-size="660" lengthAdjust="spacingAndGlyphs"
text-anchor="middle" opacity="0">0R</text>
<path d="M47440 57390
L47490 57390
L47540 57420
L47560 57440
L47580 57490
L47610 57580
L47610 57700
L47580 57800
L47560 57840
L47540 57870
L47490 57890
L47440 57890
L47390 57870
L47370 57840
L47350 57800
L47320 57700
L47320 57580
L47350 57490
L47370 57440
L47390 57420
L47440 57390
" />
<path d="M48110 57890
L47940 57650
" />
<path d="M47820 57890
L47820 57390
L48010 57390
L48060 57420
L48080 57440
L48110 57490
L48110 57560
L48080 57610
L48060 57630
L48010 57650
L47820 57650
" />
</g>
</g>
<g style="fill:#008484; fill-opacity:0.0; 
stroke:#008484; stroke-width:60; stroke-opacity:1; 
stroke-linecap:round; stroke-linejoin:round;">
</g>
<g style="fill:#008400; fill-opacity:0.0; 
stroke:#008400; stroke-width:60; stroke-opacity:1; 
stroke-linecap:round; stroke-linejoin:round;">
<path d="M49250 30000
L51750 30000
" />
<path d="M51750 30000
L51750 26750
" />
<path d="M54250 48500
L54250 44250
" />
<path d="M49500 50500
L54250 50500
" />
<path d="M49500 51500
L54250 51500
" />
<path d="M49250 32000
L59000 32000
" />
<path d="M49250 33000
L59000 33000
" />
<path d="M46250 36000
L46250 37250
" />
<path d="M49500 48500
L50500 48500
" />
<path d="M46500 54500
L46500 55750
" />
<path d="M53500 48500
L54250 48500
" />
<path d="M46500 58750
L46500 59250
" />
</g>
<g style="fill:#848400; fill-opacity:0.0; 
stroke:#848400; stroke-width:60; stroke-opacity:1; 
stroke-linecap:round; stroke-linejoin:round;">
<text x="59600" y="32250"
textLength="3820" font-size="660" lengthAdjust="spacingAndGlyphs"
text-anchor="start" opacity="0">USB_D1_N</text>
<path d="M59740 31720
L59740 32130
L59770 32170
L59790 32200
L59840 32220
L59930 32220
L59980 32200
L60010 32170
L60030 32130
L60030 31720
" />
<path d="M60240 32200
L60320 32220
L60430 32220
L60480 32200
L60510 32170
L60530 32130
L60530 32080
L60510 32030
L60480 32010
L60430 31980
L60340 31960
L60290 31940
L60270 31910
L60240 31860
L60240 31820
L60270 31770
L60290 31750
L60340 31720
L60460 31720
L60530 31750
" />
<path d="M60910 31960
L60980 31980
L61010 32010
L61030 32050
L61030 32130
L61010 32170
L60980 32200
L60930 32220
L60740 32220
L60740 31720
L60910 31720
L60960 31750
L60980 31770
L61010 31820
L61010 31860
L60980 31910
L60960 31940
L60910 31960
L60740 31960
" />
<path d="M61130 32270
L61510 32270
" />
<path d="M61630 32220
L61630 31720
L61740 31720
L61820 31750
L61860 31790
L61890 31840
L61910 31940
L61910 32010
L61890 32100
L61860 32150
L61820 32200
L61740 32220
L61630 32220
" />
<path d="M62390 32220
L62100 32220
" />
<path d="M62240 32220
L62240 31720
L62200 31790
L62150 31840
L62100 31860
" />
<path d="M62480 32270
L62860 32270
" />
<path d="M62980 32220
L62980 31720
L63270 32220
L63270 31720
" />
</g>
<g style="fill:#848400; fill-opacity:0.0; 
stroke:#848400; stroke-width:100; stroke-opacity:1; 
stroke-linecap:round; stroke-linejoin:round;">
<path style="fill:#848400; fill-opacity:0.0; 
stroke:#848400; stroke-width:100; stroke-opacity:1; 
stroke-linecap:round; stroke-linejoin:round;fill:none"
d="M 59000,32000
59250,31750
59500,32000
59250,32250
Z" /> 
</g>
<g style="fill:#848400; fill-opacity:0.0; 
stroke:#848400; stroke-width:60; stroke-opacity:1; 
stroke-linecap:round; stroke-linejoin:round;">
<text x="59600" y="33250"
textLength="3800" font-size="660" lengthAdjust="spacingAndGlyphs"
text-anchor="start" opacity="0">USB_D1_P</text>
<path d="M59740 32720
L59740 33130
L59770 33170
L59790 33200
L59840 33220
L59930 33220
L59980 33200
L60010 33170
L60030 33130
L60030 32720
" />
<path d="M60240 33200
L60320 33220
L60430 33220
L60480 33200
L60510 33170
L60530 33130
L60530 33080
L60510 33030
L60480 33010
L60430 32980
L60340 32960
L60290 32940
L60270 32910
L60240 32860
L60240 32820
L60270 32770
L60290 32750
L60340 32720
L60460 32720
L60530 32750
" />
<path d="M60910 32960
L60980 32980
L61010 33010
L61030 33050
L61030 33130
L61010 33170
L60980 33200
L60930 33220
L60740 33220
L60740 32720
L60910 32720
L60960 32750
L60980 32770
L61010 32820
L61010 32860
L60980 32910
L60960 32940
L60910 32960
L60740 32960
" />
<path d="M61130 33270
L61510 33270
" />
<path d="M61630 33220
L61630 32720
L61740 32720
L61820 32750
L61860 32790
L61890 32840
L61910 32940
L61910 33010
L61890 33100
L61860 33150
L61820 33200
L61740 33220
L61630 33220
" />
<path d="M62390 33220
L62100 33220
" />
<path d="M62240 33220
L62240 32720
L62200 32790
L62150 32840
L62100 32860
" />
<path d="M62480 33270
L62860 33270
" />
<path d="M62980 33220
L62980 32720
L63170 32720
L63220 32750
L63240 32770
L63270 32820
L63270 32890
L63240 32940
L63220 32960
L63170 32980
L62980 32980
" />
</g>
<g style="fill:#848400; fill-opacity:0.0; 
stroke:#848400; stroke-width:100; stroke-opacity:1; 
stroke-linecap:round; stroke-linejoin:round;">
<path style="fill:#848400; fill-opacity:0.0; 
stroke:#848400; stroke-width:100; stroke-opacity:1; 
stroke-linecap:round; stroke-linejoin:round;fill:none"
d="M 59000,33000
59250,32750
59500,33000
59250,33250
Z" /> 
</g>
<g style="fill:#848400; fill-opacity:0.0; 
stroke:#848400; stroke-width:60; stroke-opacity:1; 
stroke-linecap:round; stroke-linejoin:round;">
<text x="54850" y="50750"
textLength="3800" font-size="660" lengthAdjust="spacingAndGlyphs"
text-anchor="start" opacity="0">USB_D2_P</text>
<path d="M54990 50220
L54990 50630
L55020 50670
L55040 50700
L55090 50720
L55180 50720
L55230 50700
L55260 50670
L55280 50630
L55280 50220
" />
<path d="M55490 50700
L55570 50720
L55680 50720
L55730 50700
L55760 50670
L55780 50630
L55780 50580
L55760 50530
L55730 50510
L55680 50480
L55590 50460
L55540 50440
L55520 50410
L55490 50360
L55490 50320
L55520 50270
L55540 50250
L55590 50220
L55710 50220
L55780 50250
" />
<path d="M56160 50460
L56230 50480
L56260 50510
L56280 50550
L56280 50630
L56260 50670
L56230 50700
L56180 50720
L55990 50720
L55990 50220
L56160 50220
L56210 50250
L56230 50270
L56260 50320
L56260 50360
L56230 50410
L56210 50440
L56160 50460
L55990 50460
" />
<path d="M56380 50770
L56760 50770
" />
<path d="M56880 50720
L56880 50220
L56990 50220
L57070 50250
L57110 50290
L57140 50340
L57160 50440
L57160 50510
L57140 50600
L57110 50650
L57070 50700
L56990 50720
L56880 50720
" />
<path d="M57350 50270
L57380 50250
L57420 50220
L57540 50220
L57590 50250
L57610 50270
L57640 50320
L57640 50360
L57610 50440
L57330 50720
L57640 50720
" />
<path d="M57730 50770
L58110 50770
" />
<path d="M58230 50720
L58230 50220
L58420 50220
L58470 50250
L58490 50270
L58520 50320
L58520 50390
L58490 50440
L58470 50460
L58420 50480
L58230 50480
" />
</g>
<g style="fill:#848400; fill-opacity:0.0; 
stroke:#848400; stroke-width:100; stroke-opacity:1; 
stroke-linecap:round; stroke-linejoin:round;">
<path style="fill:#848400; fill-opacity:0.0; 
stroke:#848400; stroke-width:100; stroke-opacity:1; 
stroke-linecap:round; stroke-linejoin:round;fill:none"
d="M 54250,50500
54500,50250
54750,50500
54500,50750
Z" /> 
</g>
<g style="fill:#848400; fill-opacity:0.0; 
stroke:#848400; stroke-width:60; stroke-opacity:1; 
stroke-linecap:round; stroke-linejoin:round;">
<text x="54850" y="51750"
textLength="3820" font-size="660" lengthAdjust="spacingAndGlyphs"
text-anchor="start" opacity="0">USB_D2_N</text>
<path d="M54990 51220
L54990 51630
L55020 51670
L55040 51700
L55090 51720
L55180 51720
L55230 51700
L55260 51670
L55280 51630
L55280 51220
" />
<path d="M55490 51700
L55570 51720
L55680 51720
L55730 51700
L55760 51670
L55780 51630
L55780 51580
L55760 51530
L55730 51510
L55680 51480
L55590 51460
L55540 51440
L55520 51410
L55490 51360
L55490 51320
L55520 51270
L55540 51250
L55590 51220
L55710 51220
L55780 51250
" />
<path d="M56160 51460
L56230 51480
L56260 51510
L56280 51550
L56280 51630
L56260 51670
L56230 51700
L56180 51720
L55990 51720
L55990 51220
L56160 51220
L56210 51250
L56230 51270
L56260 51320
L56260 51360
L56230 51410
L56210 51440
L56160 51460
L55990 51460
" />
<path d="M56380 51770
L56760 51770
" />
<path d="M56880 51720
L56880 51220
L56990 51220
L57070 51250
L57110 51290
L57140 51340
L57160 51440
L57160 51510
L57140 51600
L57110 51650
L57070 51700
L56990 51720
L56880 51720
" />
<path d="M57350 51270
L57380 51250
L57420 51220
L57540 51220
L57590 51250
L57610 51270
L57640 51320
L57640 51360
L57610 51440
L57330 51720
L57640 51720
" />
<path d="M57730 51770
L58110 51770
" />
<path d="M58230 51720
L58230 51220
L58520 51720
L58520 51220
" />
</g>
<g style="fill:#848400; fill-opacity:0.0; 
stroke:#848400; stroke-width:100; stroke-opacity:1; 
stroke-linecap:round; stroke-linejoin:round;">
<path style="fill:#848400; fill-opacity:0.0; 
stroke:#848400; stroke-width:100; stroke-opacity:1; 
stroke-linecap:round; stroke-linejoin:round;fill:none"
d="M 54250,51500
54500,51250
54750,51500
54500,51750
Z" /> 
</g>
<g style="fill:#848400; fill-opacity:0.0; 
stroke:#848400; stroke-width:60; stroke-opacity:1; 
stroke-linecap:round; stroke-linejoin:round;">
</g>
<g style="fill:#000084; fill-opacity:0.0; 
stroke:#000084; stroke-width:60; stroke-opacity:1; 
stroke-linecap:round; stroke-linejoin:round;">
<path d="M45260 54260
L45740 54740
" />
<path d="M45740 54260
L45260 54740
" />
<path d="M49010 33760
L49490 34240
" />
<path d="M49490 33760
L49010 34240
" />
<path d="M45010 35760
L45490 36240
" />
<path d="M45490 35760
L45010 36240
" />
<path d="M49260 52260
L49740 52740
" />
<path d="M49740 52260
L49260 52740
" />
</g> 
</svg>
